  0
SECTION
  2
HEADER
  9
$ACADVER
  1
AC1006
  9
$EXTMIN
 10
0.000000
 20
0.000000
 30
0.000000
  9
$EXTMAX
 10
443.000000
 20
443.000000
 30
0.000000
  0
ENDSEC
  0
SECTION
  2
ENTITIES
  0
POLYLINE
  8
0
 66
1
 70
1
  0
VERTEX
  8
0
 10
243.000000
 20
327.516544
 42
0.107854
  0
VERTEX
  8
0
 10
243.076277
 20
327.167044
 42
0.001254
  0
VERTEX
  8
0
 10
244.073374
 20
325.005852
 42
0.003749
  0
VERTEX
  8
0
 10
245.253551
 20
322.513696
 42
0.002430
  0
VERTEX
  8
0
 10
246.654040
 20
319.648402
 42
0.000000
  0
VERTEX
  8
0
 10
250.308080
 20
312.263716
 42
0.000000
  0
VERTEX
  8
0
 10
266.904040
 20
312.381858
 42
-0.002910
  0
VERTEX
  8
0
 10
273.805935
 20
312.390820
 42
-0.002772
  0
VERTEX
  8
0
 10
280.819991
 20
312.320212
 42
-0.002749
  0
VERTEX
  8
0
 10
287.016828
 20
312.189389
 42
-0.009849
  0
VERTEX
  8
0
 10
290.972526
 20
312.006098
 42
0.000000
  0
VERTEX
  8
0
 10
298.445053
 20
311.512197
 42
0.000000
  0
VERTEX
  8
0
 10
302.712579
 20
319.006098
 42
0.003919
  0
VERTEX
  8
0
 10
304.348619
 20
321.932124
 42
0.005842
  0
VERTEX
  8
0
 10
305.729442
 20
324.518979
 42
0.002726
  0
VERTEX
  8
0
 10
306.863561
 20
326.734208
 42
0.114106
  0
VERTEX
  8
0
 10
306.990053
 20
327.250000
 42
0.370431
  0
VERTEX
  8
0
 10
306.741349
 20
327.547526
 42
0.012338
  0
VERTEX
  8
0
 10
305.098038
 20
327.779688
 42
0.018031
  0
VERTEX
  8
0
 10
303.013132
 20
327.946027
 42
0.010889
  0
VERTEX
  8
0
 10
300.535184
 20
328.000000
 42
0.010044
  0
VERTEX
  8
0
 10
296.844274
 20
327.925849
 42
0.061549
  0
VERTEX
  8
0
 10
294.968730
 20
327.617170
 42
0.117009
  0
VERTEX
  8
0
 10
293.801251
 20
326.950234
 42
0.083721
  0
VERTEX
  8
0
 10
292.885480
 20
325.750000
 42
-0.039804
  0
VERTEX
  8
0
 10
291.718079
 20
323.905558
 42
-0.091586
  0
VERTEX
  8
0
 10
290.514581
 20
322.797160
 42
-0.094647
  0
VERTEX
  8
0
 10
289.020806
 20
322.212805
 42
-0.044568
  0
VERTEX
  8
0
 10
286.950000
 20
322.015313
 42
-0.072952
  0
VERTEX
  8
0
 10
284.937999
 20
322.298113
 42
-0.104509
  0
VERTEX
  8
0
 10
283.356672
 20
323.148800
 42
-0.115067
  0
VERTEX
  8
0
 10
282.355344
 20
324.494090
 42
-0.103045
  0
VERTEX
  8
0
 10
282.000000
 20
326.200000
 42
0.163526
  0
VERTEX
  8
0
 10
281.689451
 20
327.124148
 42
0.162137
  0
VERTEX
  8
0
 10
280.882823
 20
327.677123
 42
0.061651
  0
VERTEX
  8
0
 10
279.229624
 20
327.937696
 42
0.008550
  0
VERTEX
  8
0
 10
275.750000
 20
327.993677
 42
0.010462
  0
VERTEX
  8
0
 10
271.925088
 20
327.909767
 42
0.079626
  0
VERTEX
  8
0
 10
270.165788
 20
327.549889
 42
0.129216
  0
VERTEX
  8
0
 10
268.991701
 20
326.715767
 42
0.044718
  0
VERTEX
  8
0
 10
267.796510
 20
324.993677
 42
-0.038698
  0
VERTEX
  8
0
 10
266.827516
 20
323.561045
 42
-0.080502
  0
VERTEX
  8
0
 10
265.832643
 20
322.656115
 42
-0.088824
  0
VERTEX
  8
0
 10
264.670818
 20
322.164561
 42
-0.055825
  0
VERTEX
  8
0
 10
263.201498
 20
322.000000
 42
-0.093969
  0
VERTEX
  8
0
 10
261.079573
 20
322.402344
 42
-0.071824
  0
VERTEX
  8
0
 10
259.022778
 20
323.575018
 42
-0.076834
  0
VERTEX
  8
0
 10
257.513391
 20
325.176352
 42
-0.151770
  0
VERTEX
  8
0
 10
257.000000
 20
326.828741
 42
0.317832
  0
VERTEX
  8
0
 10
256.629000
 20
327.353425
 42
0.043545
  0
VERTEX
  8
0
 10
255.255882
 20
327.708169
 42
0.030716
  0
VERTEX
  8
0
 10
253.107378
 20
327.933238
 42
0.010741
  0
VERTEX
  8
0
 10
250.000000
 20
328.000000
 42
0.006475
  0
VERTEX
  8
0
 10
247.315964
 20
327.965239
 42
0.010764
  0
VERTEX
  8
0
 10
245.056250
 20
327.857985
 42
0.004576
  0
VERTEX
  8
0
 10
243.178183
 20
327.710995
 42
0.388881
  0
SEQEND
  0
POLYLINE
  8
0
 66
1
 70
1
  0
VERTEX
  8
0
 10
76.000000
 20
307.176363
 42
0.071537
  0
VERTEX
  8
0
 10
70.910811
 20
304.399899
 42
0.040043
  0
VERTEX
  8
0
 10
65.610278
 20
299.729339
 42
0.040055
  0
VERTEX
  8
0
 10
61.125806
 20
294.277901
 42
0.072033
  0
VERTEX
  8
0
 10
58.536897
 20
289.111085
 42
0.076279
  0
VERTEX
  8
0
 10
56.949181
 20
279.773233
 42
0.073670
  0
VERTEX
  8
0
 10
58.200386
 20
270.270770
 42
0.074606
  0
VERTEX
  8
0
 10
62.125221
 20
261.643055
 42
0.081629
  0
VERTEX
  8
0
 10
68.315332
 20
254.846883
 42
0.042571
  0
VERTEX
  8
0
 10
72.197741
 20
252.280737
 42
0.030003
  0
VERTEX
  8
0
 10
76.936317
 20
250.055874
 42
0.030481
  0
VERTEX
  8
0
 10
81.676519
 20
248.495333
 42
0.064363
  0
VERTEX
  8
0
 10
85.508554
 20
248.000000
 42
-0.276168
  0
VERTEX
  8
0
 10
86.924208
 20
247.153525
 42
-0.050331
  0
VERTEX
  8
0
 10
88.142445
 20
244.210059
 42
-0.018488
  0
VERTEX
  8
0
 10
89.694624
 20
238.252258
 42
-0.001617
  0
VERTEX
  8
0
 10
93.022507
 20
222.987909
 42
0.000000
  0
VERTEX
  8
0
 10
98.390910
 20
197.975818
 42
0.000000
  0
VERTEX
  8
0
 10
101.945455
 20
201.398835
 42
-0.023466
  0
VERTEX
  8
0
 10
103.562167
 20
202.815737
 42
-0.017028
  0
VERTEX
  8
0
 10
105.483977
 20
204.242589
 42
-0.017267
  0
VERTEX
  8
0
 10
107.405369
 20
205.474333
 42
-0.035646
  0
VERTEX
  8
0
 10
109.000000
 20
206.272910
 42
0.025009
  0
VERTEX
  8
0
 10
110.462529
 20
206.966856
 42
0.020083
  0
VERTEX
  8
0
 10
111.962765
 20
207.852324
 42
0.020521
  0
VERTEX
  8
0
 10
113.285260
 20
208.785320
 42
0.047745
  0
VERTEX
  8
0
 10
114.171113
 20
209.611984
 42
0.184389
  0
VERTEX
  8
0
 10
115.044350
 20
211.932992
 42
0.044583
  0
VERTEX
  8
0
 10
114.652632
 20
216.090682
 42
0.013807
  0
VERTEX
  8
0
 10
112.943526
 20
224.083563
 42
0.000791
  0
VERTEX
  8
0
 10
106.972295
 20
248.500000
 42
-0.005460
  0
VERTEX
  8
0
 10
105.004191
 20
256.886153
 42
-0.015741
  0
VERTEX
  8
0
 10
103.887601
 20
262.751683
 42
-0.021751
  0
VERTEX
  8
0
 10
103.352702
 20
267.459331
 42
-0.025239
  0
VERTEX
  8
0
 10
103.266265
 20
271.966671
 42
0.006962
  0
VERTEX
  8
0
 10
103.338838
 20
276.144182
 42
0.048760
  0
VERTEX
  8
0
 10
103.147772
 20
278.170900
 42
0.123109
  0
VERTEX
  8
0
 10
102.646105
 20
279.246468
 42
0.173804
  0
VERTEX
  8
0
 10
101.750000
 20
279.789996
 42
0.078984
  0
VERTEX
  8
0
 10
100.958755
 20
279.824362
 42
0.169294
  0
VERTEX
  8
0
 10
100.415446
 20
279.562153
 42
0.144710
  0
VERTEX
  8
0
 10
100.099525
 20
278.981545
 42
0.052772
  0
VERTEX
  8
0
 10
100.000000
 20
278.041206
 42
-0.100099
  0
VERTEX
  8
0
 10
99.088947
 20
273.536047
 42
-0.093302
  0
VERTEX
  8
0
 10
96.488170
 20
269.610512
 42
-0.094568
  0
VERTEX
  8
0
 10
92.673470
 20
266.938528
 42
-0.106344
  0
VERTEX
  8
0
 10
88.299660
 20
266.003738
 42
-0.115555
  0
VERTEX
  8
0
 10
83.907675
 20
267.038692
 42
-0.085184
  0
VERTEX
  8
0
 10
79.860437
 20
269.998720
 42
-0.084273
  0
VERTEX
  8
0
 10
76.996196
 20
274.174441
 42
-0.109030
  0
VERTEX
  8
0
 10
76.003738
 20
278.700340
 42
-0.124110
  0
VERTEX
  8
0
 10
77.174420
 20
283.317964
 42
-0.090481
  0
VERTEX
  8
0
 10
80.499924
 20
287.466502
 42
-0.089306
  0
VERTEX
  8
0
 10
85.122771
 20
290.215420
 42
-0.116229
  0
VERTEX
  8
0
 10
89.992794
 20
290.836808
 42
0.066052
  0
VERTEX
  8
0
 10
91.455680
 20
290.876901
 42
0.083281
  0
VERTEX
  8
0
 10
92.737124
 20
291.309381
 42
0.066937
  0
VERTEX
  8
0
 10
94.005091
 20
292.224863
 42
0.028075
  0
VERTEX
  8
0
 10
95.451717
 20
293.760250
 42
-0.046398
  0
VERTEX
  8
0
 10
96.860281
 20
295.149680
 42
-0.027038
  0
VERTEX
  8
0
 10
98.776957
 20
296.552347
 42
-0.026357
  0
VERTEX
  8
0
 10
100.924162
 20
297.796055
 42
-0.032769
  0
VERTEX
  8
0
 10
103.042795
 20
298.708795
 42
0.000000
  0
VERTEX
  8
0
 10
107.930727
 20
300.444835
 42
0.000000
  0
VERTEX
  8
0
 10
105.715364
 20
302.854336
 42
0.111340
  0
VERTEX
  8
0
 10
100.354494
 20
306.566023
 42
0.059917
  0
VERTEX
  8
0
 10
92.555655
 20
308.675180
 42
0.056804
  0
VERTEX
  8
0
 10
83.914883
 20
308.942691
 42
0.068623
  0
SEQEND
  0
POLYLINE
  8
0
 66
1
 70
1
  0
VERTEX
  8
0
 10
241.797836
 20
308.056175
 42
0.012603
  0
VERTEX
  8
0
 10
239.159771
 20
307.770151
 42
0.016692
  0
VERTEX
  8
0
 10
236.777761
 20
307.369626
 42
0.014080
  0
VERTEX
  8
0
 10
234.841990
 20
306.920199
 42
0.136158
  0
VERTEX
  8
0
 10
234.119766
 20
306.500000
 42
0.210976
  0
VERTEX
  8
0
 10
233.535195
 20
304.934391
 42
0.005523
  0
VERTEX
  8
0
 10
234.064555
 20
297.334959
 42
0.006268
  0
VERTEX
  8
0
 10
234.766153
 20
289.822919
 42
0.171589
  0
VERTEX
  8
0
 10
235.609298
 20
288.057369
 42
0.342698
  0
VERTEX
  8
0
 10
235.948810
 20
288.014677
 42
0.043601
  0
VERTEX
  8
0
 10
236.588414
 20
288.473586
 42
0.036449
  0
VERTEX
  8
0
 10
237.357527
 20
289.238071
 42
0.021499
  0
VERTEX
  8
0
 10
238.164910
 20
290.251830
 42
-0.043433
  0
VERTEX
  8
0
 10
239.391732
 20
291.660872
 42
-0.089065
  0
VERTEX
  8
0
 10
240.604289
 20
292.472655
 42
-0.076993
  0
VERTEX
  8
0
 10
242.139468
 20
292.878752
 42
-0.026236
  0
VERTEX
  8
0
 10
244.448548
 20
293.000000
 42
-0.070500
  0
VERTEX
  8
0
 10
248.036713
 20
292.491541
 42
-0.079665
  0
VERTEX
  8
0
 10
251.181358
 20
291.009072
 42
-0.078443
  0
VERTEX
  8
0
 10
253.741510
 20
288.594766
 42
-0.065685
  0
VERTEX
  8
0
 10
255.621180
 20
285.364218
 42
-0.005742
  0
VERTEX
  8
0
 10
256.881632
 20
282.247394
 42
-0.240728
  0
VERTEX
  8
0
 10
256.811975
 20
281.550717
 42
-0.415727
  0
VERTEX
  8
0
 10
256.288631
 20
281.438788
 42
-0.010373
  0
VERTEX
  8
0
 10
254.067679
 20
282.951808
 42
0.072366
  0
VERTEX
  8
0
 10
250.024907
 20
285.027298
 42
0.045915
  0
VERTEX
  8
0
 10
244.870638
 20
286.277988
 42
0.041026
  0
VERTEX
  8
0
 10
238.926028
 20
286.660624
 42
0.032492
  0
VERTEX
  8
0
 10
232.506328
 20
286.128578
 42
-0.017786
  0
VERTEX
  8
0
 10
224.621821
 20
285.241151
 42
-0.024261
  0
VERTEX
  8
0
 10
217.474084
 20
285.040947
 42
-0.027042
  0
VERTEX
  8
0
 10
211.547396
 20
285.483779
 42
-0.079245
  0
VERTEX
  8
0
 10
207.631185
 20
286.638833
 42
-0.068261
  0
VERTEX
  8
0
 10
205.145177
 20
288.272141
 42
-0.078032
  0
VERTEX
  8
0
 10
203.319567
 20
290.450805
 42
-0.088032
  0
VERTEX
  8
0
 10
202.402022
 20
292.844121
 42
-0.125100
  0
VERTEX
  8
0
 10
202.534474
 20
295.108617
 42
0.236098
  0
VERTEX
  8
0
 10
202.363360
 20
296.193949
 42
0.377070
  0
VERTEX
  8
0
 10
201.506335
 20
296.394209
 42
0.096788
  0
VERTEX
  8
0
 10
199.879873
 20
295.066548
 42
0.054047
  0
VERTEX
  8
0
 10
198.463015
 20
292.928479
 42
0.066312
  0
VERTEX
  8
0
 10
197.374704
 20
289.898401
 42
0.061620
  0
VERTEX
  8
0
 10
197.080344
 20
286.611100
 42
0.061713
  0
VERTEX
  8
0
 10
197.595810
 20
283.355880
 42
0.066919
  0
VERTEX
  8
0
 10
198.885678
 20
280.419965
 42
0.144832
  0
VERTEX
  8
0
 10
203.905920
 20
275.876936
 42
0.084740
  0
VERTEX
  8
0
 10
211.764737
 20
273.627325
 42
0.071614
  0
VERTEX
  8
0
 10
221.258317
 20
273.943218
 42
0.058445
  0
VERTEX
  8
0
 10
231.000000
 20
276.882142
 42
-0.017474
  0
VERTEX
  8
0
 10
237.369646
 20
279.388048
 42
-0.035070
  0
VERTEX
  8
0
 10
242.576229
 20
280.827675
 42
-0.044845
  0
VERTEX
  8
0
 10
246.915240
 20
281.306991
 42
-0.072575
  0
VERTEX
  8
0
 10
250.592995
 20
280.846711
 42
-0.068545
  0
VERTEX
  8
0
 10
253.403171
 20
279.637743
 42
-0.135210
  0
VERTEX
  8
0
 10
255.062571
 20
277.887824
 42
-0.160616
  0
VERTEX
  8
0
 10
255.431858
 20
275.756369
 42
-0.108695
  0
VERTEX
  8
0
 10
254.548019
 20
273.432942
 42
-0.191628
  0
VERTEX
  8
0
 10
251.522623
 20
271.309006
 42
-0.093994
  0
VERTEX
  8
0
 10
246.743476
 20
271.089065
 42
-0.087432
  0
VERTEX
  8
0
 10
241.895701
 20
272.673375
 42
-0.133932
  0
VERTEX
  8
0
 10
238.700310
 20
275.689645
 42
0.175520
  0
VERTEX
  8
0
 10
237.544733
 20
276.615259
 42
0.411328
  0
VERTEX
  8
0
 10
236.642891
 20
276.176703
 42
0.073412
  0
VERTEX
  8
0
 10
236.122344
 20
273.486698
 42
0.011148
  0
VERTEX
  8
0
 10
236.000000
 20
268.000000
 42
0.000000
  0
VERTEX
  8
0
 10
236.000000
 20
259.000000
 42
0.000000
  0
VERTEX
  8
0
 10
239.750000
 20
259.001984
 42
0.024663
  0
VERTEX
  8
0
 10
247.830378
 20
259.405086
 42
0.007755
  0
VERTEX
  8
0
 10
259.858532
 20
260.790435
 42
0.006159
  0
VERTEX
  8
0
 10
271.690885
 20
262.488013
 42
0.052124
  0
VERTEX
  8
0
 10
276.882519
 20
263.863363
 42
0.048211
  0
VERTEX
  8
0
 10
283.524617
 20
267.149779
 42
0.072358
  0
VERTEX
  8
0
 10
288.461859
 20
271.310719
 42
0.072819
  0
VERTEX
  8
0
 10
291.987965
 20
276.684824
 42
0.049513
  0
VERTEX
  8
0
 10
294.405954
 20
283.600668
 42
0.000000
  0
VERTEX
  8
0
 10
295.833374
 20
289.500000
 42
0.000000
  0
VERTEX
  8
0
 10
295.916687
 20
283.210162
 42
-0.108033
  0
VERTEX
  8
0
 10
293.881652
 20
273.272476
 42
-0.134148
  0
VERTEX
  8
0
 10
287.941096
 20
265.984955
 42
-0.079994
  0
VERTEX
  8
0
 10
276.480348
 20
260.299266
 42
-0.020203
  0
VERTEX
  8
0
 10
256.307631
 20
254.922628
 42
0.006156
  0
VERTEX
  8
0
 10
247.712647
 20
252.888518
 42
0.012015
  0
VERTEX
  8
0
 10
240.923184
 20
251.018779
 42
0.014924
  0
VERTEX
  8
0
 10
235.457669
 20
249.191773
 42
0.024979
  0
VERTEX
  8
0
 10
231.000000
 20
247.294506
 42
0.041046
  0
VERTEX
  8
0
 10
224.044720
 20
243.178193
 42
0.040635
  0
VERTEX
  8
0
 10
217.830082
 20
237.968509
 42
0.041464
  0
VERTEX
  8
0
 10
212.656247
 20
231.937337
 42
0.047152
  0
VERTEX
  8
0
 10
208.796202
 20
225.378188
 42
0.097183
  0
VERTEX
  8
0
 10
205.060053
 20
210.366645
 42
0.097126
  0
VERTEX
  8
0
 10
207.272330
 20
195.053012
 42
0.098682
  0
VERTEX
  8
0
 10
215.047562
 20
181.899007
 42
0.103932
  0
VERTEX
  8
0
 10
227.147946
 20
173.018761
 42
0.008978
  0
VERTEX
  8
0
 10
231.688069
 20
171.056107
 42
0.286720
  0
VERTEX
  8
0
 10
232.830093
 20
171.250243
 42
0.427952
  0
VERTEX
  8
0
 10
232.862631
 20
172.173775
 42
0.011867
  0
VERTEX
  8
0
 10
229.686137
 20
175.275839
 42
-0.029831
  0
VERTEX
  8
0
 10
227.679622
 20
177.381297
 42
-0.019279
  0
VERTEX
  8
0
 10
225.606054
 20
180.035790
 42
-0.019178
  0
VERTEX
  8
0
 10
223.723823
 20
182.869958
 42
-0.027500
  0
VERTEX
  8
0
 10
222.297301
 20
185.525839
 42
-0.021535
  0
VERTEX
  8
0
 10
220.771072
 20
189.188176
 42
-0.044801
  0
VERTEX
  8
0
 10
219.969742
 20
192.173456
 42
-0.034804
  0
VERTEX
  8
0
 10
219.604949
 20
195.698368
 42
-0.008655
  0
VERTEX
  8
0
 10
219.510761
 20
201.500000
 42
-0.007996
  0
VERTEX
  8
0
 10
219.609418
 20
207.279764
 42
-0.035398
  0
VERTEX
  8
0
 10
219.961764
 20
210.661212
 42
-0.049876
  0
VERTEX
  8
0
 10
220.725194
 20
213.374653
 42
-0.027779
  0
VERTEX
  8
0
 10
222.156560
 20
216.500000
 42
-0.070723
  0
VERTEX
  8
0
 10
227.906758
 20
224.449309
 42
-0.064868
  0
VERTEX
  8
0
 10
235.801315
 20
230.752758
 42
-0.042982
  0
VERTEX
  8
0
 10
247.704155
 20
236.625300
 42
-0.012662
  0
VERTEX
  8
0
 10
266.858903
 20
243.554405
 42
0.012160
  0
VERTEX
  8
0
 10
280.006806
 20
248.295647
 42
0.035484
  0
VERTEX
  8
0
 10
288.723481
 20
252.413679
 42
0.051537
  0
VERTEX
  8
0
 10
294.708452
 20
256.643825
 42
0.071966
  0
VERTEX
  8
0
 10
298.968908
 20
261.612026
 42
0.078537
  0
VERTEX
  8
0
 10
302.437891
 20
269.628056
 42
0.051519
  0
VERTEX
  8
0
 10
303.931709
 20
279.598225
 42
0.051228
  0
VERTEX
  8
0
 10
303.357044
 20
289.742268
 42
0.074150
  0
VERTEX
  8
0
 10
300.648849
 20
298.285291
 42
0.008805
  0
VERTEX
  8
0
 10
297.975924
 20
303.513296
 42
0.148231
  0
VERTEX
  8
0
 10
296.619734
 20
304.871784
 42
0.550956
  0
VERTEX
  8
0
 10
295.811594
 20
304.414182
 42
0.029694
  0
VERTEX
  8
0
 10
295.850569
 20
300.856523
 42
-0.019764
  0
VERTEX
  8
0
 10
295.927094
 20
298.372933
 42
-0.047958
  0
VERTEX
  8
0
 10
295.735855
 20
296.550648
 42
-0.063635
  0
VERTEX
  8
0
 10
295.255202
 20
295.135866
 42
-0.070357
  0
VERTEX
  8
0
 10
294.445581
 20
293.939868
 42
-0.111645
  0
VERTEX
  8
0
 10
292.595344
 20
292.638800
 42
-0.080896
  0
VERTEX
  8
0
 10
290.133534
 20
292.064842
 42
-0.085287
  0
VERTEX
  8
0
 10
287.744676
 20
292.310684
 42
-0.152506
  0
VERTEX
  8
0
 10
286.103741
 20
293.375000
 42
-0.050634
  0
VERTEX
  8
0
 10
285.630307
 20
294.079733
 42
-0.330160
  0
VERTEX
  8
0
 10
285.689266
 20
294.476760
 42
-0.179811
  0
VERTEX
  8
0
 10
286.180694
 20
294.702002
 42
-0.018490
  0
VERTEX
  8
0
 10
287.478217
 20
294.750000
 42
0.185680
  0
VERTEX
  8
0
 10
291.471615
 20
296.285947
 42
0.214048
  0
VERTEX
  8
0
 10
293.104103
 20
299.994150
 42
0.166672
  0
VERTEX
  8
0
 10
291.537738
 20
304.460029
 42
0.127529
  0
VERTEX
  8
0
 10
287.387838
 20
307.611311
 42
0.064217
  0
VERTEX
  8
0
 10
284.834743
 20
308.311092
 42
0.020409
  0
VERTEX
  8
0
 10
280.901232
 20
308.699604
 42
0.013629
  0
VERTEX
  8
0
 10
275.148545
 20
308.874433
 42
0.003892
  0
VERTEX
  8
0
 10
266.218329
 20
308.832828
 42
0.002386
  0
VERTEX
  8
0
 10
258.943340
 20
308.707583
 42
0.002452
  0
VERTEX
  8
0
 10
251.735999
 20
308.513739
 42
0.002371
  0
VERTEX
  8
0
 10
245.486972
 20
308.285328
 42
0.010380
  0
SEQEND
  0
POLYLINE
  8
0
 66
1
 70
1
  0
VERTEX
  8
0
 10
264.093619
 20
304.410806
 42
-0.009786
  0
VERTEX
  8
0
 10
269.245672
 20
303.641356
 42
-0.071531
  0
VERTEX
  8
0
 10
271.615573
 20
302.880535
 42
-0.724635
  0
VERTEX
  8
0
 10
271.538221
 20
302.318634
 42
-0.041535
  0
VERTEX
  8
0
 10
268.910515
 20
302.063386
 42
0.018953
  0
VERTEX
  8
0
 10
266.368864
 20
301.931834
 42
0.084947
  0
VERTEX
  8
0
 10
264.933441
 20
301.551362
 42
0.121232
  0
VERTEX
  8
0
 10
263.971183
 20
300.789206
 42
0.058092
  0
VERTEX
  8
0
 10
263.150842
 20
299.431717
 42
-0.132632
  0
VERTEX
  8
0
 10
261.601398
 20
297.559145
 42
-0.221838
  0
VERTEX
  8
0
 10
259.628002
 20
297.201646
 42
-0.145759
  0
VERTEX
  8
0
 10
257.423976
 20
298.543470
 42
-0.055068
  0
VERTEX
  8
0
 10
255.293482
 20
301.500000
 42
-0.013171
  0
VERTEX
  8
0
 10
253.331135
 20
305.196310
 42
-0.143363
  0
VERTEX
  8
0
 10
253.037507
 20
306.838530
 42
-0.454498
  0
VERTEX
  8
0
 10
253.781105
 20
307.357983
 42
-0.058526
  0
VERTEX
  8
0
 10
255.843619
 20
306.580868
 42
0.040017
  0
VERTEX
  8
0
 10
257.306402
 20
305.967133
 42
0.015015
  0
VERTEX
  8
0
 10
259.440050
 20
305.336834
 42
0.014763
  0
VERTEX
  8
0
 10
261.815218
 20
304.786497
 42
0.017372
  0
SEQEND
  0
POLYLINE
  8
0
 66
1
 70
1
  0
VERTEX
  8
0
 10
116.500000
 20
301.097296
 42
0.041240
  0
VERTEX
  8
0
 10
115.597564
 20
300.617044
 42
0.020063
  0
VERTEX
  8
0
 10
114.527910
 20
299.866876
 42
0.019748
  0
VERTEX
  8
0
 10
113.470621
 20
298.992083
 42
0.026904
  0
VERTEX
  8
0
 10
112.595012
 20
298.118030
 42
-0.057933
  0
VERTEX
  8
0
 10
111.675079
 20
297.306998
 42
-0.041583
  0
VERTEX
  8
0
 10
110.487330
 20
296.621073
 42
-0.042131
  0
VERTEX
  8
0
 10
109.227902
 20
296.152220
 42
-0.067785
  0
VERTEX
  8
0
 10
108.095012
 20
295.996262
 42
0.108031
  0
VERTEX
  8
0
 10
104.143362
 20
295.126408
 42
0.075387
  0
VERTEX
  8
0
 10
100.318424
 20
292.607361
 42
0.071437
  0
VERTEX
  8
0
 10
97.228403
 20
288.903473
 42
0.077982
  0
VERTEX
  8
0
 10
95.418046
 20
284.585575
 42
0.011942
  0
VERTEX
  8
0
 10
95.041495
 20
282.881475
 42
0.177332
  0
VERTEX
  8
0
 10
95.135771
 20
282.287562
 42
0.340675
  0
VERTEX
  8
0
 10
95.546500
 20
282.111155
 42
0.036127
  0
VERTEX
  8
0
 10
96.600324
 20
282.464171
 42
-0.031294
  0
VERTEX
  8
0
 10
99.373963
 20
283.423179
 42
-0.064044
  0
VERTEX
  8
0
 10
101.648239
 20
283.749266
 42
-0.077805
  0
VERTEX
  8
0
 10
103.629631
 20
283.468427
 42
-0.071105
  0
VERTEX
  8
0
 10
105.498148
 20
282.593170
 42
-0.082745
  0
VERTEX
  8
0
 10
106.930151
 20
281.272028
 42
-0.115725
  0
VERTEX
  8
0
 10
107.653562
 20
279.695103
 42
-0.045834
  0
VERTEX
  8
0
 10
107.944658
 20
277.012151
 42
-0.004099
  0
VERTEX
  8
0
 10
108.000789
 20
270.226947
 42
0.019086
  0
VERTEX
  8
0
 10
108.289518
 20
262.680396
 42
0.056366
  0
VERTEX
  8
0
 10
109.263065
 20
257.591444
 42
0.044516
  0
VERTEX
  8
0
 10
111.471146
 20
252.229000
 42
0.008641
  0
VERTEX
  8
0
 10
116.467074
 20
243.015467
 42
-0.032433
  0
VERTEX
  8
0
 10
118.373684
 20
239.061450
 42
-0.110583
  0
VERTEX
  8
0
 10
118.838001
 20
236.258970
 42
-0.139790
  0
VERTEX
  8
0
 10
118.021984
 20
233.906293
 42
-0.065003
  0
VERTEX
  8
0
 10
115.820735
 20
231.502612
 42
0.013858
  0
VERTEX
  8
0
 10
113.872474
 20
229.768804
 42
0.131943
  0
VERTEX
  8
0
 10
113.291756
 20
228.829003
 42
0.178329
  0
VERTEX
  8
0
 10
113.352167
 20
227.853173
 42
0.030128
  0
VERTEX
  8
0
 10
114.221034
 20
226.163719
 42
0.057279
  0
VERTEX
  8
0
 10
115.129118
 20
224.968408
 42
0.023191
  0
VERTEX
  8
0
 10
116.614325
 20
223.555924
 42
0.022581
  0
VERTEX
  8
0
 10
118.369181
 20
222.169120
 42
0.026655
  0
VERTEX
  8
0
 10
120.150299
 20
221.026661
 42
0.046993
  0
VERTEX
  8
0
 10
123.338227
 20
219.591106
 42
0.059167
  0
VERTEX
  8
0
 10
126.501473
 20
218.913582
 42
0.024354
  0
VERTEX
  8
0
 10
131.424674
 20
218.696311
 42
0.002103
  0
VERTEX
  8
0
 10
144.000000
 20
218.806995
 42
-0.012339
  0
VERTEX
  8
0
 10
163.190675
 20
218.583066
 42
-0.035841
  0
VERTEX
  8
0
 10
176.373535
 20
217.153818
 42
-0.054209
  0
VERTEX
  8
0
 10
185.024446
 20
214.591499
 42
-0.188952
  0
VERTEX
  8
0
 10
189.131405
 20
210.610943
 42
0.000000
  0
VERTEX
  8
0
 10
190.273284
 20
208.104792
 42
0.000000
  0
VERTEX
  8
0
 10
195.097260
 20
210.549286
 42
0.021325
  0
VERTEX
  8
0
 10
197.754711
 20
212.041576
 42
0.073411
  0
VERTEX
  8
0
 10
199.261793
 20
213.313217
 42
0.084311
  0
VERTEX
  8
0
 10
200.225917
 20
214.867750
 42
0.034006
  0
VERTEX
  8
0
 10
201.011519
 20
217.246890
 42
-0.048142
  0
VERTEX
  8
0
 10
205.089993
 20
228.519369
 42
-0.062538
  0
VERTEX
  8
0
 10
210.996154
 20
237.768802
 42
-0.064642
  0
VERTEX
  8
0
 10
218.828997
 20
245.043916
 42
-0.056521
  0
VERTEX
  8
0
 10
228.610698
 20
250.470169
 42
0.000000
  0
VERTEX
  8
0
 10
234.500000
 20
252.915462
 42
0.000000
  0
VERTEX
  8
0
 10
230.500000
 20
252.943891
 42
0.013747
  0
VERTEX
  8
0
 10
222.400684
 20
252.778765
 42
0.001429
  0
VERTEX
  8
0
 10
203.385361
 20
251.813195
 42
0.001943
  0
VERTEX
  8
0
 10
182.914931
 20
250.635290
 42
0.002958
  0
VERTEX
  8
0
 10
165.149150
 20
249.438188
 42
-0.004166
  0
VERTEX
  8
0
 10
148.626903
 20
248.364969
 42
-0.082543
  0
VERTEX
  8
0
 10
143.597648
 20
248.911168
 42
-0.209852
  0
VERTEX
  8
0
 10
140.839084
 20
251.172154
 42
-0.049278
  0
VERTEX
  8
0
 10
138.618337
 20
256.863498
 42
-0.018468
  0
VERTEX
  8
0
 10
137.210685
 20
262.701053
 42
-0.095828
  0
VERTEX
  8
0
 10
137.182245
 20
266.001640
 42
-0.128927
  0
VERTEX
  8
0
 10
138.393732
 20
268.582390
 42
-0.044833
  0
VERTEX
  8
0
 10
141.321193
 20
271.512527
 42
0.032178
  0
VERTEX
  8
0
 10
145.047590
 20
275.058429
 42
0.061370
  0
VERTEX
  8
0
 10
147.457342
 20
278.410477
 42
0.068979
  0
VERTEX
  8
0
 10
148.808232
 20
281.967414
 42
0.052583
  0
VERTEX
  8
0
 10
149.308163
 20
286.108130
 42
0.094750
  0
VERTEX
  8
0
 10
148.287658
 20
291.918858
 42
0.114158
  0
VERTEX
  8
0
 10
145.209840
 20
296.514476
 42
0.105773
  0
VERTEX
  8
0
 10
140.212942
 20
299.527329
 42
0.072243
  0
VERTEX
  8
0
 10
133.677084
 20
300.767938
 42
-0.003590
  0
VERTEX
  8
0
 10
130.983148
 20
300.904176
 42
-0.002622
  0
VERTEX
  8
0
 10
127.992643
 20
301.092684
 42
-0.002648
  0
VERTEX
  8
0
 10
125.160181
 20
301.301227
 42
-0.005843
  0
VERTEX
  8
0
 10
123.000000
 20
301.497205
 42
0.020836
  0
VERTEX
  8
0
 10
121.130448
 20
301.610440
 42
0.020071
  0
VERTEX
  8
0
 10
119.234375
 20
301.570030
 42
0.020468
  0
VERTEX
  8
0
 10
117.569359
 20
301.398973
 42
0.065923
  0
SEQEND
  0
POLYLINE
  8
0
 66
1
 70
1
  0
VERTEX
  8
0
 10
137.365141
 20
294.927420
 42
-0.130609
  0
VERTEX
  8
0
 10
139.642643
 20
291.897264
 42
-0.132096
  0
VERTEX
  8
0
 10
140.102537
 20
288.149886
 42
-0.123896
  0
VERTEX
  8
0
 10
138.612020
 20
284.493623
 42
-0.107281
  0
VERTEX
  8
0
 10
135.500000
 20
281.745274
 42
-0.442765
  0
VERTEX
  8
0
 10
135.104209
 20
281.878180
 42
-0.070019
  0
VERTEX
  8
0
 10
134.854621
 20
282.768302
 42
-0.036447
  0
VERTEX
  8
0
 10
134.758546
 20
284.349034
 42
-0.012771
  0
VERTEX
  8
0
 10
134.844376
 20
286.624662
 42
0.019577
  0
VERTEX
  8
0
 10
134.907381
 20
289.239607
 42
0.036160
  0
VERTEX
  8
0
 10
134.722009
 20
291.356422
 42
0.044327
  0
VERTEX
  8
0
 10
134.282523
 20
293.090360
 42
0.060877
  0
VERTEX
  8
0
 10
133.571323
 20
294.531492
 42
-0.075818
  0
VERTEX
  8
0
 10
132.753135
 20
296.321676
 42
-0.465952
  0
VERTEX
  8
0
 10
133.249126
 20
297.054925
 42
-0.165213
  0
VERTEX
  8
0
 10
134.827610
 20
296.696168
 42
-0.028900
  0
SEQEND
  0
POLYLINE
  8
0
 66
1
 70
1
  0
VERTEX
  8
0
 10
122.252764
 20
294.015816
 42
-0.075861
  0
VERTEX
  8
0
 10
124.296901
 20
291.834072
 42
-0.101029
  0
VERTEX
  8
0
 10
125.352243
 20
289.338225
 42
-0.093877
  0
VERTEX
  8
0
 10
125.384914
 20
286.487162
 42
-0.057613
  0
VERTEX
  8
0
 10
124.418442
 20
283.258421
 42
0.000000
  0
VERTEX
  8
0
 10
122.803007
 20
279.500000
 42
0.000000
  0
VERTEX
  8
0
 10
121.544372
 20
284.296159
 42
0.031629
  0
VERTEX
  8
0
 10
120.869170
 20
286.334499
 42
0.023403
  0
VERTEX
  8
0
 10
119.879118
 20
288.493773
 42
0.023828
  0
VERTEX
  8
0
 10
118.746537
 20
290.452042
 42
0.048032
  0
VERTEX
  8
0
 10
117.642869
 20
291.850877
 42
-0.011685
  0
VERTEX
  8
0
 10
116.630558
 20
292.958180
 42
-0.016023
  0
VERTEX
  8
0
 10
115.776343
 20
294.003349
 42
-0.012732
  0
VERTEX
  8
0
 10
115.125649
 20
294.900129
 42
-0.151706
  0
VERTEX
  8
0
 10
115.000000
 20
295.304719
 42
-0.391230
  0
VERTEX
  8
0
 10
115.660763
 20
296.019933
 42
-0.063831
  0
VERTEX
  8
0
 10
117.723635
 20
295.920041
 42
-0.052744
  0
VERTEX
  8
0
 10
120.215791
 20
295.199992
 42
-0.070079
  0
SEQEND
  0
POLYLINE
  8
0
 66
1
 70
1
  0
VERTEX
  8
0
 10
303.022236
 20
301.877118
 42
0.100021
  0
VERTEX
  8
0
 10
303.091714
 20
301.456479
 42
0.004006
  0
VERTEX
  8
0
 10
303.656678
 20
300.004554
 42
0.006908
  0
VERTEX
  8
0
 10
304.366919
 20
298.290931
 42
0.004821
  0
VERTEX
  8
0
 10
305.213263
 20
296.377118
 42
-0.075489
  0
VERTEX
  8
0
 10
306.985174
 20
290.104804
 42
-0.030290
  0
VERTEX
  8
0
 10
307.557460
 20
281.184852
 42
-0.030433
  0
VERTEX
  8
0
 10
307.038102
 20
272.136827
 42
-0.065145
  0
VERTEX
  8
0
 10
305.322077
 20
265.368042
 42
-0.066227
  0
VERTEX
  8
0
 10
300.582943
 20
256.908633
 42
-0.080012
  0
VERTEX
  8
0
 10
294.043521
 20
250.590413
 42
-0.056611
  0
VERTEX
  8
0
 10
284.091457
 20
245.212724
 42
-0.017571
  0
VERTEX
  8
0
 10
268.074404
 20
239.417320
 42
0.007606
  0
VERTEX
  8
0
 10
254.425760
 20
234.784288
 42
0.022052
  0
VERTEX
  8
0
 10
245.192197
 20
231.025929
 42
0.031363
  0
VERTEX
  8
0
 10
238.446713
 20
227.398834
 42
0.044091
  0
VERTEX
  8
0
 10
232.985679
 20
223.297216
 42
0.049454
  0
VERTEX
  8
0
 10
228.695845
 20
218.595852
 42
0.062601
  0
VERTEX
  8
0
 10
225.796858
 20
213.482911
 42
0.059164
  0
VERTEX
  8
0
 10
224.146793
 20
207.579739
 42
0.038291
  0
VERTEX
  8
0
 10
223.594654
 20
200.500000
 42
0.066912
  0
VERTEX
  8
0
 10
224.945380
 20
190.353125
 42
0.081479
  0
VERTEX
  8
0
 10
228.923723
 20
181.645577
 42
0.081093
  0
VERTEX
  8
0
 10
235.494003
 20
174.635089
 42
0.065529
  0
VERTEX
  8
0
 10
244.432226
 20
169.456712
 42
0.000000
  0
VERTEX
  8
0
 10
248.364452
 20
167.820882
 42
0.000000
  0
VERTEX
  8
0
 10
245.037882
 20
171.609636
 42
-0.038165
  0
VERTEX
  8
0
 10
241.424243
 20
176.420417
 42
-0.057856
  0
VERTEX
  8
0
 10
239.139299
 20
181.122211
 42
-0.054918
  0
VERTEX
  8
0
 10
237.919408
 20
186.402243
 42
-0.030611
  0
VERTEX
  8
0
 10
237.548720
 20
193.000000
 42
-0.079358
  0
VERTEX
  8
0
 10
239.422898
 20
204.363110
 42
-0.122569
  0
VERTEX
  8
0
 10
244.732044
 20
212.723748
 42
-0.078897
  0
VERTEX
  8
0
 10
255.216252
 20
219.952484
 42
-0.018883
  0
VERTEX
  8
0
 10
274.690651
 20
228.379785
 42
0.005639
  0
VERTEX
  8
0
 10
287.078503
 20
233.355293
 42
0.025905
  0
VERTEX
  8
0
 10
294.064120
 20
236.686755
 42
0.041991
  0
VERTEX
  8
0
 10
298.906660
 20
239.864494
 42
0.038547
  0
VERTEX
  8
0
 10
303.301505
 20
243.891246
 42
0.036919
  0
VERTEX
  8
0
 10
307.167050
 20
248.688867
 42
0.047462
  0
VERTEX
  8
0
 10
309.929109
 20
253.631828
 42
0.044685
  0
VERTEX
  8
0
 10
311.822393
 20
259.243306
 42
0.027845
  0
VERTEX
  8
0
 10
313.068976
 20
266.077720
 42
0.030710
  0
VERTEX
  8
0
 10
313.518710
 20
273.168892
 42
0.033003
  0
VERTEX
  8
0
 10
313.074762
 20
280.090989
 42
0.034685
  0
VERTEX
  8
0
 10
311.770285
 20
286.546983
 42
0.044039
  0
VERTEX
  8
0
 10
309.647365
 20
292.243321
 42
0.020492
  0
VERTEX
  8
0
 10
307.733804
 20
295.868010
 42
0.018929
  0
VERTEX
  8
0
 10
305.481852
 20
299.423734
 42
0.019082
  0
VERTEX
  8
0
 10
303.527521
 20
302.045422
 42
0.694155
  0
SEQEND
  0
POLYLINE
  8
0
 66
1
 70
1
  0
VERTEX
  8
0
 10
348.411303
 20
300.109054
 42
0.095888
  0
VERTEX
  8
0
 10
342.841337
 20
295.035605
 42
0.126918
  0
VERTEX
  8
0
 10
340.254019
 20
288.711386
 42
0.129445
  0
VERTEX
  8
0
 10
341.071841
 20
282.019397
 42
0.101934
  0
VERTEX
  8
0
 10
345.101818
 20
275.898182
 42
-0.022834
  0
VERTEX
  8
0
 10
346.828083
 20
274.006612
 42
-0.040688
  0
VERTEX
  8
0
 10
348.039344
 20
272.283665
 42
-0.050425
  0
VERTEX
  8
0
 10
348.765103
 20
270.703904
 42
-0.081765
  0
VERTEX
  8
0
 10
349.009769
 20
269.250000
 42
0.084230
  0
VERTEX
  8
0
 10
349.538262
 20
266.200757
 42
0.023537
  0
VERTEX
  8
0
 10
351.370797
 20
261.701000
 42
0.024473
  0
VERTEX
  8
0
 10
353.775562
 20
257.112653
 42
0.040478
  0
VERTEX
  8
0
 10
356.288906
 20
253.536383
 42
0.000000
  0
VERTEX
  8
0
 10
358.752396
 20
250.572766
 42
0.000000
  0
VERTEX
  8
0
 10
364.392812
 20
254.831322
 42
0.000000
  0
VERTEX
  8
0
 10
370.033229
 20
259.089878
 42
0.000000
  0
VERTEX
  8
0
 10
367.634669
 20
262.294939
 42
-0.025228
  0
VERTEX
  8
0
 10
364.933059
 20
266.312385
 42
-0.046650
  0
VERTEX
  8
0
 10
363.229522
 20
269.854050
 42
-0.051112
  0
VERTEX
  8
0
 10
362.307459
 20
273.420997
 42
-0.037725
  0
VERTEX
  8
0
 10
362.000000
 20
277.490178
 42
-0.049086
  0
VERTEX
  8
0
 10
362.466478
 20
282.230320
 42
-0.055939
  0
VERTEX
  8
0
 10
363.848051
 20
286.573945
 42
-0.059352
  0
VERTEX
  8
0
 10
366.062170
 20
290.282123
 42
-0.069440
  0
VERTEX
  8
0
 10
368.987268
 20
293.148708
 42
0.069367
  0
VERTEX
  8
0
 10
370.808933
 20
294.933417
 42
0.277225
  0
VERTEX
  8
0
 10
370.982733
 20
296.421526
 42
0.149686
  0
VERTEX
  8
0
 10
369.638416
 20
297.948811
 42
0.020032
  0
VERTEX
  8
0
 10
365.856736
 20
300.073088
 42
0.069200
  0
VERTEX
  8
0
 10
361.727239
 20
301.504012
 42
0.048369
  0
VERTEX
  8
0
 10
356.817196
 20
301.990330
 42
0.049331
  0
VERTEX
  8
0
 10
352.059432
 20
301.529680
 42
0.088351
  0
SEQEND
  0
POLYLINE
  8
0
 66
1
 70
1
  0
VERTEX
  8
0
 10
384.500000
 20
300.597485
 42
0.027662
  0
VERTEX
  8
0
 10
383.223997
 20
299.947716
 42
0.019718
  0
VERTEX
  8
0
 10
381.869863
 20
299.087877
 42
0.019988
  0
VERTEX
  8
0
 10
380.640056
 20
298.162365
 42
0.039578
  0
VERTEX
  8
0
 10
379.759109
 20
297.317951
 42
0.031504
  0
VERTEX
  8
0
 10
378.786751
 20
296.076570
 42
0.221641
  0
VERTEX
  8
0
 10
378.663728
 20
295.338882
 42
0.153538
  0
VERTEX
  8
0
 10
379.136537
 20
294.610376
 42
0.013446
  0
VERTEX
  8
0
 10
380.892749
 20
293.237415
 42
-0.077175
  0
VERTEX
  8
0
 10
383.497700
 20
290.604782
 42
-0.043187
  0
VERTEX
  8
0
 10
385.818136
 20
286.731494
 42
-0.042964
  0
VERTEX
  8
0
 10
387.458534
 20
282.471281
 42
-0.070536
  0
VERTEX
  8
0
 10
388.000000
 20
278.652157
 42
-0.095687
  0
VERTEX
  8
0
 10
386.736448
 20
272.110111
 42
-0.078274
  0
VERTEX
  8
0
 10
383.080269
 20
265.980375
 42
-0.045526
  0
VERTEX
  8
0
 10
375.937022
 20
258.831932
 42
-0.010837
  0
VERTEX
  8
0
 10
362.770460
 20
248.334054
 42
0.010064
  0
VERTEX
  8
0
 10
352.668199
 20
240.304891
 42
0.029619
  0
VERTEX
  8
0
 10
346.180372
 20
234.249893
 42
0.039715
  0
VERTEX
  8
0
 10
341.578610
 20
228.574205
 42
0.035197
  0
VERTEX
  8
0
 10
337.722200
 20
222.015378
 42
0.017642
  0
VERTEX
  8
0
 10
335.886353
 20
217.968531
 42
0.049477
  0
VERTEX
  8
0
 10
334.992298
 20
214.991316
 42
0.039829
  0
VERTEX
  8
0
 10
334.601563
 20
211.555624
 42
0.008407
  0
VERTEX
  8
0
 10
334.500000
 20
205.515378
 42
0.008359
  0
VERTEX
  8
0
 10
334.597585
 20
199.678767
 42
0.035674
  0
VERTEX
  8
0
 10
334.961782
 20
196.214808
 42
0.047253
  0
VERTEX
  8
0
 10
335.762514
 20
193.327258
 42
0.022888
  0
VERTEX
  8
0
 10
337.294236
 20
189.809913
 42
0.053528
  0
VERTEX
  8
0
 10
340.708875
 20
184.404803
 42
0.039265
  0
VERTEX
  8
0
 10
345.540537
 20
179.206689
 42
0.039325
  0
VERTEX
  8
0
 10
351.114299
 20
174.837671
 42
0.054371
  0
VERTEX
  8
0
 10
356.753341
 20
171.919297
 42
0.054714
  0
VERTEX
  8
0
 10
362.963388
 20
170.269822
 42
0.032271
  0
VERTEX
  8
0
 10
370.618821
 20
169.611516
 42
0.032362
  0
VERTEX
  8
0
 10
378.042514
 20
169.934208
 42
0.074859
  0
VERTEX
  8
0
 10
383.424970
 20
171.352129
 42
-0.001774
  0
VERTEX
  8
0
 10
386.168452
 20
172.523304
 42
-0.140504
  0
VERTEX
  8
0
 10
386.629986
 20
172.579304
 42
-0.585957
  0
VERTEX
  8
0
 10
386.706678
 20
172.370697
 42
-0.006951
  0
VERTEX
  8
0
 10
385.516281
 20
171.017990
 42
-0.075401
  0
VERTEX
  8
0
 10
382.875840
 20
168.862096
 42
-0.023274
  0
VERTEX
  8
0
 10
378.326337
 20
166.449108
 42
-0.022888
  0
VERTEX
  8
0
 10
372.962391
 20
164.210601
 42
-0.024563
  0
VERTEX
  8
0
 10
367.539901
 20
162.530449
 42
-0.042326
  0
VERTEX
  8
0
 10
361.384414
 20
161.494397
 42
-0.016541
  0
VERTEX
  8
0
 10
352.768137
 20
161.071259
 42
-0.016480
  0
VERTEX
  8
0
 10
344.171659
 20
161.217122
 42
-0.044194
  0
VERTEX
  8
0
 10
338.114659
 20
162.059893
 42
-0.070972
  0
VERTEX
  8
0
 10
327.517186
 20
166.149415
 42
-0.078269
  0
VERTEX
  8
0
 10
318.879015
 20
172.939987
 42
-0.076035
  0
VERTEX
  8
0
 10
312.563442
 20
182.239447
 42
-0.062069
  0
VERTEX
  8
0
 10
308.765876
 20
193.667322
 42
0.002277
  0
VERTEX
  8
0
 10
308.304626
 20
195.926471
 42
0.003469
  0
VERTEX
  8
0
 10
307.881629
 20
197.883258
 42
0.001280
  0
VERTEX
  8
0
 10
307.501928
 20
199.562376
 42
0.087960
  0
VERTEX
  8
0
 10
307.389123
 20
199.828875
 42
0.375663
  0
VERTEX
  8
0
 10
307.163276
 20
199.892892
 42
0.000599
  0
VERTEX
  8
0
 10
303.108616
 20
197.965703
 42
0.003848
  0
VERTEX
  8
0
 10
298.522989
 20
195.735923
 42
0.002317
  0
VERTEX
  8
0
 10
293.117050
 20
193.024336
 42
0.011454
  0
VERTEX
  8
0
 10
282.005142
 20
187.062153
 42
0.082858
  0
VERTEX
  8
0
 10
277.306032
 20
183.256632
 42
0.133988
  0
VERTEX
  8
0
 10
275.166246
 20
178.919854
 42
0.048029
  0
VERTEX
  8
0
 10
274.500000
 20
172.000000
 42
0.026801
  0
VERTEX
  8
0
 10
274.792374
 20
166.549434
 42
0.062571
  0
VERTEX
  8
0
 10
275.730705
 20
162.580549
 42
0.037997
  0
VERTEX
  8
0
 10
277.885862
 20
157.919470
 42
0.005061
  0
VERTEX
  8
0
 10
283.268778
 20
148.500000
 42
-0.025991
  0
VERTEX
  8
0
 10
286.406993
 20
142.432505
 42
-0.030477
  0
VERTEX
  8
0
 10
288.715367
 20
136.381075
 42
-0.026216
  0
VERTEX
  8
0
 10
290.509777
 20
129.384759
 42
-0.012877
  0
VERTEX
  8
0
 10
292.091780
 20
120.326022
 42
0.090985
  0
VERTEX
  8
0
 10
296.278111
 20
108.048484
 42
0.137022
  0
VERTEX
  8
0
 10
304.201930
 20
100.077497
 42
0.105232
  0
VERTEX
  8
0
 10
316.814457
 20
96.088398
 42
0.039977
  0
VERTEX
  8
0
 10
335.364320
 20
95.778154
 42
-0.002816
  0
VERTEX
  8
0
 10
343.055598
 20
96.221319
 42
-0.041301
  0
VERTEX
  8
0
 10
345.765790
 20
96.138277
 42
-0.139619
  0
VERTEX
  8
0
 10
347.161048
 20
95.563720
 42
-0.135673
  0
VERTEX
  8
0
 10
348.062850
 20
94.334691
 42
-0.051478
  0
VERTEX
  8
0
 10
349.244509
 20
89.900863
 42
-0.007520
  0
VERTEX
  8
0
 10
350.569759
 20
80.667199
 42
-0.006036
  0
VERTEX
  8
0
 10
351.657193
 20
71.289049
 42
-0.080063
  0
VERTEX
  8
0
 10
351.461545
 20
67.824917
 42
-0.101954
  0
VERTEX
  8
0
 10
350.395670
 20
65.434339
 42
-0.137594
  0
VERTEX
  8
0
 10
348.555817
 20
63.962554
 42
-0.081324
  0
VERTEX
  8
0
 10
345.448067
 20
63.205507
 42
-0.019166
  0
VERTEX
  8
0
 10
340.088794
 20
63.000000
 42
-0.025957
  0
VERTEX
  8
0
 10
335.111526
 20
63.258560
 42
-0.133136
  0
VERTEX
  8
0
 10
332.555375
 20
64.245644
 42
-0.132787
  0
VERTEX
  8
0
 10
330.844195
 20
66.389927
 42
-0.025768
  0
VERTEX
  8
0
 10
329.092614
 20
71.072090
 42
0.046181
  0
VERTEX
  8
0
 10
328.415723
 20
72.678682
 42
0.023253
  0
VERTEX
  8
0
 10
327.288368
 20
74.569914
 42
0.022873
  0
VERTEX
  8
0
 10
325.931802
 20
76.431344
 42
0.031385
  0
VERTEX
  8
0
 10
324.537711
 20
77.963449
 42
0.147569
  0
VERTEX
  8
0
 10
317.497054
 20
81.599896
 42
0.126236
  0
VERTEX
  8
0
 10
309.139425
 20
81.035630
 42
0.135862
  0
VERTEX
  8
0
 10
302.516518
 20
76.614383
 42
0.179562
  0
VERTEX
  8
0
 10
300.003738
 20
69.872445
 42
-0.052277
  0
VERTEX
  8
0
 10
299.886683
 20
68.771048
 42
-0.042502
  0
VERTEX
  8
0
 10
299.541104
 20
67.634973
 42
-0.044099
  0
VERTEX
  8
0
 10
299.034453
 20
66.633560
 42
-0.080560
  0
VERTEX
  8
0
 10
298.434063
 20
65.945277
 42
0.086896
  0
VERTEX
  8
0
 10
295.942891
 20
63.015806
 42
0.078132
  0
VERTEX
  8
0
 10
294.480834
 20
59.305990
 42
0.076396
  0
VERTEX
  8
0
 10
294.208732
 20
55.249091
 42
0.077295
  0
VERTEX
  8
0
 10
295.170646
 20
51.315100
 42
-0.048178
  0
VERTEX
  8
0
 10
295.602797
 20
49.907150
 42
-0.020180
  0
VERTEX
  8
0
 10
295.921439
 20
47.947266
 42
-0.019743
  0
VERTEX
  8
0
 10
296.095838
 20
45.807855
 42
-0.024222
  0
VERTEX
  8
0
 10
296.082653
 20
43.803251
 42
0.055768
  0
VERTEX
  8
0
 10
296.299655
 20
39.960387
 42
0.071988
  0
VERTEX
  8
0
 10
297.381794
 20
36.600174
 42
0.075600
  0
VERTEX
  8
0
 10
299.316923
 20
33.808887
 42
0.070145
  0
VERTEX
  8
0
 10
302.039833
 20
31.635541
 42
0.022446
  0
VERTEX
  8
0
 10
304.745357
 20
30.197033
 42
0.185736
  0
VERTEX
  8
0
 10
306.108346
 20
30.092548
 42
0.329348
  0
VERTEX
  8
0
 10
306.722153
 20
30.910618
 42
0.055955
  0
VERTEX
  8
0
 10
306.506123
 20
32.972122
 42
-0.046947
  0
VERTEX
  8
0
 10
306.306078
 20
34.598580
 42
-0.092655
  0
VERTEX
  8
0
 10
306.507871
 20
35.879710
 42
-0.081365
  0
VERTEX
  8
0
 10
307.183630
 20
37.106793
 42
-0.029920
  0
VERTEX
  8
0
 10
308.500134
 20
38.591043
 42
-0.100723
  0
VERTEX
  8
0
 10
311.089740
 20
40.304859
 42
-0.113768
  0
VERTEX
  8
0
 10
314.029952
 20
40.771205
 42
-0.086300
  0
VERTEX
  8
0
 10
317.505231
 20
39.915454
 42
-0.037389
  0
VERTEX
  8
0
 10
321.725027
 20
37.673583
 42
0.052203
  0
VERTEX
  8
0
 10
327.745547
 20
34.699829
 42
0.095414
  0
VERTEX
  8
0
 10
333.130239
 20
33.807517
 42
0.073703
  0
VERTEX
  8
0
 10
339.367892
 20
34.898638
 42
0.021512
  0
VERTEX
  8
0
 10
348.500000
 20
38.370756
 42
-0.018813
  0
VERTEX
  8
0
 10
353.107543
 20
40.151098
 42
-0.061154
  0
VERTEX
  8
0
 10
356.305088
 20
40.829109
 42
-0.077217
  0
VERTEX
  8
0
 10
359.150039
 20
40.637241
 42
-0.043605
  0
VERTEX
  8
0
 10
362.451627
 20
39.584658
 42
-0.057434
  0
VERTEX
  8
0
 10
364.850305
 20
38.241294
 42
-0.079583
  0
VERTEX
  8
0
 10
366.592592
 20
36.503539
 42
-0.084160
  0
VERTEX
  8
0
 10
367.639916
 20
34.389351
 42
-0.073135
  0
VERTEX
  8
0
 10
368.000000
 20
31.940741
 42
0.051661
  0
VERTEX
  8
0
 10
368.121217
 20
30.770670
 42
0.226894
  0
VERTEX
  8
0
 10
368.531563
 20
30.233893
 42
0.148723
  0
VERTEX
  8
0
 10
369.342282
 20
30.089222
 42
0.019678
  0
VERTEX
  8
0
 10
371.084158
 20
30.366832
 42
0.064322
  0
VERTEX
  8
0
 10
374.432218
 20
31.498172
 42
0.062256
  0
VERTEX
  8
0
 10
377.423685
 20
33.452454
 42
0.058033
  0
VERTEX
  8
0
 10
380.011429
 20
36.220040
 42
0.044600
  0
VERTEX
  8
0
 10
382.164172
 20
39.756980
 42
0.042044
  0
VERTEX
  8
0
 10
383.483765
 20
43.123469
 42
0.048158
  0
VERTEX
  8
0
 10
384.147379
 20
46.513836
 42
0.022609
  0
VERTEX
  8
0
 10
384.411710
 20
51.608300
 42
0.002644
  0
VERTEX
  8
0
 10
384.426995
 20
63.000000
 42
0.008093
  0
VERTEX
  8
0
 10
384.164462
 20
76.039448
 42
0.006023
  0
VERTEX
  8
0
 10
383.468504
 20
90.419042
 42
0.006014
  0
VERTEX
  8
0
 10
382.498546
 20
103.786273
 42
0.016183
  0
VERTEX
  8
0
 10
381.387861
 20
113.250000
 42
-0.016345
  0
VERTEX
  8
0
 10
381.162189
 20
115.178236
 42
-0.085748
  0
VERTEX
  8
0
 10
381.254863
 20
116.237583
 42
-0.187875
  0
VERTEX
  8
0
 10
381.656336
 20
116.788494
 42
-0.143375
  0
VERTEX
  8
0
 10
382.378769
 20
117.000000
 42
0.177306
  0
VERTEX
  8
0
 10
384.622576
 20
117.821506
 42
0.036785
  0
VERTEX
  8
0
 10
387.671649
 20
120.810604
 42
0.038919
  0
VERTEX
  8
0
 10
390.351457
 20
124.380019
 42
0.095476
  0
VERTEX
  8
0
 10
391.550984
 20
127.420075
 42
0.040996
  0
VERTEX
  8
0
 10
391.714863
 20
128.997781
 42
0.024028
  0
VERTEX
  8
0
 10
391.664533
 20
130.897133
 42
0.023919
  0
VERTEX
  8
0
 10
391.429906
 20
132.804924
 42
0.037161
  0
VERTEX
  8
0
 10
391.028780
 20
134.412796
 42
0.000000
  0
VERTEX
  8
0
 10
389.859434
 20
137.955950
 42
0.000000
  0
VERTEX
  8
0
 10
387.134845
 20
135.941574
 42
-0.100238
  0
VERTEX
  8
0
 10
380.562329
 20
132.872773
 42
-0.028813
  0
VERTEX
  8
0
 10
369.460711
 20
130.859352
 42
-0.029249
  0
VERTEX
  8
0
 10
357.135707
 20
130.077872
 42
-0.040056
  0
VERTEX
  8
0
 10
346.055100
 20
130.913041
 42
-0.014040
  0
VERTEX
  8
0
 10
340.835341
 20
131.881109
 42
-0.067520
  0
VERTEX
  8
0
 10
337.998372
 20
132.904784
 42
-0.135037
  0
VERTEX
  8
0
 10
336.538546
 20
134.263607
 42
-0.139078
  0
VERTEX
  8
0
 10
336.000000
 20
136.162283
 42
0.096283
  0
VERTEX
  8
0
 10
335.516583
 20
138.649396
 42
0.023513
  0
VERTEX
  8
0
 10
333.764040
 20
142.460995
 42
0.024905
  0
VERTEX
  8
0
 10
331.490594
 20
146.360948
 42
0.040067
  0
VERTEX
  8
0
 10
329.139982
 20
149.404271
 42
-0.005222
  0
VERTEX
  8
0
 10
327.680235
 20
151.044242
 42
-0.105972
  0
VERTEX
  8
0
 10
327.359617
 20
151.623229
 42
-0.580429
  0
VERTEX
  8
0
 10
327.543848
 20
151.818139
 42
-0.035024
  0
VERTEX
  8
0
 10
328.500000
 20
151.513678
 42
0.047381
  0
VERTEX
  8
0
 10
335.994399
 20
149.329403
 42
0.029989
  0
VERTEX
  8
0
 10
345.028049
 20
148.158052
 42
0.029060
  0
VERTEX
  8
0
 10
354.555132
 20
148.054371
 42
0.033657
  0
VERTEX
  8
0
 10
363.566341
 20
149.090772
 42
0.082874
  0
VERTEX
  8
0
 10
384.157869
 20
156.541236
 42
0.091065
  0
VERTEX
  8
0
 10
400.454417
 20
170.105904
 42
0.095118
  0
VERTEX
  8
0
 10
410.371835
 20
188.031616
 42
0.100161
  0
VERTEX
  8
0
 10
412.701421
 20
208.021455
 42
0.050115
  0
VERTEX
  8
0
 10
411.153122
 20
216.350826
 42
0.055377
  0
VERTEX
  8
0
 10
408.003970
 20
223.913444
 42
0.054858
  0
VERTEX
  8
0
 10
403.241101
 20
230.658602
 42
0.047665
  0
VERTEX
  8
0
 10
396.913316
 20
236.566702
 42
0.011795
  0
VERTEX
  8
0
 10
390.675107
 20
241.136740
 42
0.113190
  0
VERTEX
  8
0
 10
387.640223
 20
242.360379
 42
0.164093
  0
VERTEX
  8
0
 10
384.864794
 20
241.891234
 42
0.032186
  0
VERTEX
  8
0
 10
380.508467
 20
239.177671
 42
0.000000
  0
VERTEX
  8
0
 10
374.836891
 20
235.116345
 42
0.000000
  0
VERTEX
  8
0
 10
379.668446
 20
232.647025
 42
-0.052030
  0
VERTEX
  8
0
 10
387.450847
 20
227.587741
 42
-0.068611
  0
VERTEX
  8
0
 10
393.233665
 20
221.422262
 42
-0.074827
  0
VERTEX
  8
0
 10
396.780047
 20
214.388562
 42
-0.079574
  0
VERTEX
  8
0
 10
398.000000
 20
206.771537
 42
-0.038609
  0
VERTEX
  8
0
 10
397.620748
 20
201.867448
 42
-0.052102
  0
VERTEX
  8
0
 10
396.484196
 20
197.568567
 42
-0.054067
  0
VERTEX
  8
0
 10
394.526472
 20
193.720322
 42
-0.046435
  0
VERTEX
  8
0
 10
391.699319
 20
190.162371
 42
-0.042425
  0
VERTEX
  8
0
 10
387.713659
 20
186.654287
 42
-0.060857
  0
VERTEX
  8
0
 10
383.623942
 20
184.337631
 42
-0.059354
  0
VERTEX
  8
0
 10
379.018424
 20
183.036903
 42
-0.038020
  0
VERTEX
  8
0
 10
373.472494
 20
182.588453
 42
-0.015881
  0
VERTEX
  8
0
 10
369.476249
 20
182.696692
 42
-0.045065
  0
VERTEX
  8
0
 10
366.722041
 20
183.109872
 42
-0.048149
  0
VERTEX
  8
0
 10
364.189054
 20
183.992226
 42
-0.020245
  0
VERTEX
  8
0
 10
360.972494
 20
185.633858
 42
-0.055168
  0
VERTEX
  8
0
 10
356.155985
 20
189.091465
 42
-0.067601
  0
VERTEX
  8
0
 10
352.577497
 20
193.314569
 42
-0.067873
  0
VERTEX
  8
0
 10
350.265080
 20
198.324587
 42
-0.056229
  0
VERTEX
  8
0
 10
349.186012
 20
204.105160
 42
-0.070388
  0
VERTEX
  8
0
 10
349.821906
 20
213.395911
 42
-0.098845
  0
VERTEX
  8
0
 10
353.095194
 20
221.011709
 42
-0.064726
  0
VERTEX
  8
0
 10
360.190860
 20
228.904709
 42
-0.015976
  0
VERTEX
  8
0
 10
373.793104
 20
239.844221
 42
0.008560
  0
VERTEX
  8
0
 10
385.709384
 20
249.140232
 42
0.031568
  0
VERTEX
  8
0
 10
392.740927
 20
255.595943
 42
0.049852
  0
VERTEX
  8
0
 10
397.056060
 20
261.095159
 42
0.065580
  0
VERTEX
  8
0
 10
399.739531
 20
266.873941
 42
-0.025785
  0
VERTEX
  8
0
 10
400.704354
 20
269.474030
 42
-0.031646
  0
VERTEX
  8
0
 10
401.877486
 20
271.782624
 42
-0.034309
  0
VERTEX
  8
0
 10
403.231182
 20
273.752786
 42
-0.044726
  0
VERTEX
  8
0
 10
404.737646
 20
275.337790
 42
0.096270
  0
VERTEX
  8
0
 10
408.098893
 20
279.691664
 42
0.090065
  0
VERTEX
  8
0
 10
409.685725
 20
285.090949
 42
0.091288
  0
VERTEX
  8
0
 10
409.263913
 20
290.640047
 42
0.102501
  0
VERTEX
  8
0
 10
406.879192
 20
295.426452
 42
0.099083
  0
VERTEX
  8
0
 10
402.571139
 20
299.105133
 42
0.070657
  0
VERTEX
  8
0
 10
396.636222
 20
301.394500
 42
0.069802
  0
VERTEX
  8
0
 10
390.218897
 20
301.958757
 42
0.091255
  0
SEQEND
  0
POLYLINE
  8
0
 66
1
 70
1
  0
VERTEX
  8
0
 10
314.960558
 20
72.021109
 42
-0.127662
  0
VERTEX
  8
0
 10
316.259761
 20
70.822020
 42
-0.028790
  0
VERTEX
  8
0
 10
317.750071
 20
68.182145
 42
-0.027996
  0
VERTEX
  8
0
 10
318.837994
 20
65.611795
 42
-0.519091
  0
VERTEX
  8
0
 10
318.407488
 20
65.000000
 42
-0.134448
  0
VERTEX
  8
0
 10
318.099975
 20
65.084211
 42
-0.007123
  0
VERTEX
  8
0
 10
317.224489
 20
65.619571
 42
-0.010782
  0
VERTEX
  8
0
 10
316.194639
 20
66.301150
 42
-0.007608
  0
VERTEX
  8
0
 10
315.066198
 20
67.109179
 42
0.042671
  0
VERTEX
  8
0
 10
313.442732
 20
68.107548
 42
0.059204
  0
VERTEX
  8
0
 10
311.838442
 20
68.689139
 42
0.052164
  0
VERTEX
  8
0
 10
309.992905
 20
68.921571
 42
0.025109
  0
VERTEX
  8
0
 10
307.606690
 20
68.851973
 42
-0.006312
  0
VERTEX
  8
0
 10
304.155908
 20
68.621318
 42
-0.181997
  0
VERTEX
  8
0
 10
303.323115
 20
68.884356
 42
-0.410940
  0
VERTEX
  8
0
 10
303.247752
 20
69.484094
 42
-0.020194
  0
VERTEX
  8
0
 10
304.654988
 20
71.171259
 42
-0.130412
  0
VERTEX
  8
0
 10
306.503537
 20
72.371493
 42
-0.058625
  0
VERTEX
  8
0
 10
309.362311
 20
72.949194
 42
-0.056847
  0
VERTEX
  8
0
 10
312.434339
 20
72.853032
 42
-0.086851
  0
SEQEND
  0
POLYLINE
  8
0
 66
1
 70
1
  0
VERTEX
  8
0
 10
314.076923
 20
56.076923
 42
-0.022896
  0
VERTEX
  8
0
 10
316.299791
 20
53.640594
 42
-0.149576
  0
VERTEX
  8
0
 10
316.932694
 20
52.130525
 42
-0.553997
  0
VERTEX
  8
0
 10
316.344579
 20
51.675109
 42
-0.056846
  0
VERTEX
  8
0
 10
314.421162
 20
52.643614
 42
0.093236
  0
VERTEX
  8
0
 10
311.353461
 20
53.919355
 42
0.054557
  0
VERTEX
  8
0
 10
307.380745
 20
54.314609
 42
0.055521
  0
VERTEX
  8
0
 10
303.563555
 20
53.851364
 42
0.126638
  0
VERTEX
  8
0
 10
301.012905
 20
52.511679
 42
-0.007923
  0
VERTEX
  8
0
 10
299.770284
 20
51.422434
 42
-0.162336
  0
VERTEX
  8
0
 10
299.313759
 20
51.239027
 42
-0.394493
  0
VERTEX
  8
0
 10
299.060323
 20
51.448775
 42
-0.031996
  0
VERTEX
  8
0
 10
299.000000
 20
52.390467
 42
-0.100302
  0
VERTEX
  8
0
 10
299.166419
 20
53.211711
 42
-0.033442
  0
VERTEX
  8
0
 10
299.721023
 20
54.312427
 42
-0.031725
  0
VERTEX
  8
0
 10
300.515203
 20
55.480742
 42
-0.031249
  0
VERTEX
  8
0
 10
301.454545
 20
56.545455
 42
-0.098480
  0
VERTEX
  8
0
 10
304.346270
 20
58.477738
 42
-0.107877
  0
VERTEX
  8
0
 10
307.663187
 20
59.073853
 42
-0.103478
  0
VERTEX
  8
0
 10
311.035376
 20
58.236728
 42
-0.084160
  0
SEQEND
  0
POLYLINE
  8
0
 66
1
 70
1
  0
VERTEX
  8
0
 10
315.627744
 20
286.854328
 42
-0.044839
  0
VERTEX
  8
0
 10
316.654144
 20
280.659082
 42
-0.019698
  0
VERTEX
  8
0
 10
316.946813
 20
272.342159
 42
-0.019729
  0
VERTEX
  8
0
 10
316.582060
 20
263.994710
 42
-0.042947
  0
VERTEX
  8
0
 10
315.504764
 20
257.679599
 42
-0.065674
  0
VERTEX
  8
0
 10
311.015560
 20
246.631886
 42
-0.088957
  0
VERTEX
  8
0
 10
304.133501
 20
238.370646
 42
-0.067029
  0
VERTEX
  8
0
 10
293.284350
 20
231.494225
 42
-0.022973
  0
VERTEX
  8
0
 10
276.000000
 20
224.487789
 42
0.011755
  0
VERTEX
  8
0
 10
267.668545
 20
221.326173
 42
0.019256
  0
VERTEX
  8
0
 10
260.791616
 20
218.216206
 42
0.022643
  0
VERTEX
  8
0
 10
255.134231
 20
215.062872
 42
0.033913
  0
VERTEX
  8
0
 10
250.537442
 20
211.770251
 42
0.112277
  0
VERTEX
  8
0
 10
244.692721
 20
204.205191
 42
0.089273
  0
VERTEX
  8
0
 10
242.071324
 20
194.194748
 42
0.086552
  0
VERTEX
  8
0
 10
243.075505
 20
183.615024
 42
0.096371
  0
VERTEX
  8
0
 10
247.617747
 20
174.434512
 42
0.052696
  0
VERTEX
  8
0
 10
249.967520
 20
171.946837
 42
0.021347
  0
VERTEX
  8
0
 10
253.640042
 20
169.061609
 42
0.017192
  0
VERTEX
  8
0
 10
257.386726
 20
166.559253
 42
0.139511
  0
VERTEX
  8
0
 10
259.352046
 20
166.000000
 42
0.532791
  0
VERTEX
  8
0
 10
259.485948
 20
166.199241
 42
0.018572
  0
VERTEX
  8
0
 10
259.029466
 20
167.209243
 42
0.019998
  0
VERTEX
  8
0
 10
258.301337
 20
168.536969
 42
0.010750
  0
VERTEX
  8
0
 10
257.304159
 20
170.116571
 42
-0.032272
  0
VERTEX
  8
0
 10
255.983434
 20
172.422830
 42
-0.040959
  0
VERTEX
  8
0
 10
255.087821
 20
174.706909
 42
-0.036957
  0
VERTEX
  8
0
 10
254.516335
 20
177.287556
 42
-0.020118
  0
VERTEX
  8
0
 10
254.179773
 20
180.517656
 42
-0.035009
  0
VERTEX
  8
0
 10
254.214329
 20
185.916485
 42
-0.058014
  0
VERTEX
  8
0
 10
255.083837
 20
190.382483
 42
-0.061507
  0
VERTEX
  8
0
 10
256.906613
 20
194.345997
 42
-0.045232
  0
VERTEX
  8
0
 10
259.813494
 20
198.215321
 42
-0.035734
  0
VERTEX
  8
0
 10
264.021183
 20
202.251906
 42
-0.035549
  0
VERTEX
  8
0
 10
268.767745
 20
205.655896
 42
-0.024970
  0
VERTEX
  8
0
 10
275.250207
 20
209.206929
 42
-0.007693
  0
VERTEX
  8
0
 10
285.354611
 20
213.912515
 42
0.005867
  0
VERTEX
  8
0
 10
295.750927
 20
218.707917
 42
0.021970
  0
VERTEX
  8
0
 10
302.102568
 20
222.078250
 42
0.032672
  0
VERTEX
  8
0
 10
306.725717
 20
225.221478
 42
0.030754
  0
VERTEX
  8
0
 10
310.999869
 20
228.999869
 42
0.098213
  0
VERTEX
  8
0
 10
318.573964
 20
240.321769
 42
0.066332
  0
VERTEX
  8
0
 10
322.600168
 20
255.375774
 42
0.064736
  0
VERTEX
  8
0
 10
322.593330
 20
271.378183
 42
0.082203
  0
VERTEX
  8
0
 10
318.321344
 20
285.500000
 42
0.004119
  0
VERTEX
  8
0
 10
315.913344
 20
290.287417
 42
0.158981
  0
VERTEX
  8
0
 10
315.074282
 20
291.119470
 42
0.632728
  0
VERTEX
  8
0
 10
314.673689
 20
290.807028
 42
0.008483
  0
SEQEND
  0
POLYLINE
  8
0
 66
1
 70
1
  0
VERTEX
  8
0
 10
326.338738
 20
268.964489
 42
-0.037212
  0
VERTEX
  8
0
 10
326.809439
 20
261.149501
 42
-0.032171
  0
VERTEX
  8
0
 10
326.164388
 20
252.954560
 42
-0.032436
  0
VERTEX
  8
0
 10
324.485208
 20
244.987338
 42
-0.039855
  0
VERTEX
  8
0
 10
321.863592
 20
237.854989
 42
-0.054471
  0
VERTEX
  8
0
 10
317.170091
 20
230.038165
 42
-0.061468
  0
VERTEX
  8
0
 10
311.061688
 20
223.768298
 42
-0.042478
  0
VERTEX
  8
0
 10
301.869727
 20
217.603708
 42
-0.012378
  0
VERTEX
  8
0
 10
286.750201
 20
209.711266
 42
0.003832
  0
VERTEX
  8
0
 10
276.331028
 20
204.497047
 42
0.016850
  0
VERTEX
  8
0
 10
270.316560
 20
201.169312
 42
0.028684
  0
VERTEX
  8
0
 10
266.419951
 20
198.523958
 42
0.052319
  0
VERTEX
  8
0
 10
263.631668
 20
195.882790
 42
0.072779
  0
VERTEX
  8
0
 10
259.922962
 20
190.001917
 42
0.083604
  0
VERTEX
  8
0
 10
258.278811
 20
183.576912
 42
0.083060
  0
VERTEX
  8
0
 10
258.825029
 20
176.933621
 42
0.070696
  0
VERTEX
  8
0
 10
261.495190
 20
170.417995
 42
0.064788
  0
VERTEX
  8
0
 10
264.670726
 20
166.322026
 42
0.063982
  0
VERTEX
  8
0
 10
268.801115
 20
163.155130
 42
0.292345
  0
VERTEX
  8
0
 10
270.696520
 20
163.235744
 42
0.379502
  0
VERTEX
  8
0
 10
271.081020
 20
164.848612
 42
-0.103473
  0
VERTEX
  8
0
 10
270.027663
 20
168.441525
 42
-0.035754
  0
VERTEX
  8
0
 10
269.986914
 20
173.877848
 42
-0.036096
  0
VERTEX
  8
0
 10
270.737426
 20
179.356407
 42
-0.085247
  0
VERTEX
  8
0
 10
272.255123
 20
183.174095
 42
-0.051717
  0
VERTEX
  8
0
 10
274.883798
 20
186.618980
 42
-0.054642
  0
VERTEX
  8
0
 10
278.119460
 20
189.380310
 42
-0.027525
  0
VERTEX
  8
0
 10
283.425091
 20
192.576949
 42
-0.003943
  0
VERTEX
  8
0
 10
294.680379
 20
198.427037
 42
0.013676
  0
VERTEX
  8
0
 10
305.281222
 20
204.201762
 42
0.033561
  0
VERTEX
  8
0
 10
312.636022
 20
209.160849
 42
0.043200
  0
VERTEX
  8
0
 10
318.073124
 20
214.192507
 42
0.043389
  0
VERTEX
  8
0
 10
322.555949
 20
220.076690
 42
0.059992
  0
VERTEX
  8
0
 10
327.176676
 20
229.778854
 42
0.042470
  0
VERTEX
  8
0
 10
330.044152
 20
241.509343
 42
0.041793
  0
VERTEX
  8
0
 10
330.922340
 20
253.802012
 42
0.051720
  0
VERTEX
  8
0
 10
329.599552
 20
265.197134
 42
0.010338
  0
VERTEX
  8
0
 10
328.864596
 20
268.205782
 42
0.012106
  0
VERTEX
  8
0
 10
328.039999
 20
271.025818
 42
0.011096
  0
VERTEX
  8
0
 10
327.236020
 20
273.366332
 42
0.069689
  0
VERTEX
  8
0
 10
326.640312
 20
274.477225
 42
0.207417
  0
VERTEX
  8
0
 10
326.113595
 20
274.786114
 42
0.433889
  0
VERTEX
  8
0
 10
325.787578
 20
274.512962
 42
0.043244
  0
VERTEX
  8
0
 10
325.838918
 20
272.898223
 42
0.004082
  0
SEQEND
  0
POLYLINE
  8
0
 66
1
 70
1
  0
VERTEX
  8
0
 10
71.082613
 20
243.250000
 42
-0.000570
  0
VERTEX
  8
0
 10
70.215338
 20
239.580305
 42
-0.000004
  0
VERTEX
  8
0
 10
62.966416
 20
209.064732
 42
-0.000016
  0
VERTEX
  8
0
 10
54.663135
 20
174.116874
 42
-0.000010
  0
VERTEX
  8
0
 10
45.021374
 20
133.544832
 42
0.000221
  0
VERTEX
  8
0
 10
35.471766
 20
93.285209
 42
0.000367
  0
VERTEX
  8
0
 10
27.466539
 20
59.358806
 42
0.000006
  0
VERTEX
  8
0
 10
20.229574
 20
28.585429
 42
0.261191
  0
VERTEX
  8
0
 10
20.288501
 20
28.380511
 42
0.366023
  0
VERTEX
  8
0
 10
20.468280
 20
28.366447
 42
0.000660
  0
VERTEX
  8
0
 10
23.089707
 20
30.257786
 42
0.004029
  0
VERTEX
  8
0
 10
26.050847
 20
32.436737
 42
0.002430
  0
VERTEX
  8
0
 10
29.527522
 20
35.064942
 42
0.000000
  0
VERTEX
  8
0
 10
38.555043
 20
41.958527
 42
0.000000
  0
VERTEX
  8
0
 10
49.847690
 20
90.729264
 42
-0.000877
  0
VERTEX
  8
0
 10
56.776339
 20
120.415815
 42
-0.009231
  0
VERTEX
  8
0
 10
59.854126
 20
132.494444
 42
-0.020236
  0
VERTEX
  8
0
 10
61.962339
 20
139.111627
 42
-0.118020
  0
VERTEX
  8
0
 10
63.963559
 20
142.140648
 42
-0.009446
  0
VERTEX
  8
0
 10
65.156175
 20
143.214627
 42
-0.009063
  0
VERTEX
  8
0
 10
66.404840
 20
144.258041
 42
-0.009029
  0
VERTEX
  8
0
 10
67.539021
 20
145.138112
 42
-0.032043
  0
VERTEX
  8
0
 10
68.309778
 20
145.640648
 42
0.199378
  0
VERTEX
  8
0
 10
69.233436
 20
146.822248
 42
0.002672
  0
VERTEX
  8
0
 10
71.702490
 20
155.936710
 42
0.005772
  0
VERTEX
  8
0
 10
74.788595
 20
168.142109
 42
0.001947
  0
VERTEX
  8
0
 10
79.011728
 20
186.000000
 42
0.000000
  0
VERTEX
  8
0
 10
88.190683
 20
225.500000
 42
0.000000
  0
VERTEX
  8
0
 10
86.459962
 20
234.000000
 42
0.006456
  0
VERTEX
  8
0
 10
85.739134
 20
237.320283
 42
0.009074
  0
VERTEX
  8
0
 10
85.004234
 20
240.261611
 42
0.005905
  0
VERTEX
  8
0
 10
84.318095
 20
242.695331
 42
0.112432
  0
VERTEX
  8
0
 10
83.934667
 20
243.379953
 42
0.111990
  0
VERTEX
  8
0
 10
83.046744
 20
244.004899
 42
0.003301
  0
VERTEX
  8
0
 10
78.783245
 20
245.725807
 42
0.006470
  0
VERTEX
  8
0
 10
74.665100
 20
247.295174
 42
0.034318
  0
VERTEX
  8
0
 10
72.349741
 20
247.967354
 42
0.398958
  0
VERTEX
  8
0
 10
72.274676
 20
247.921818
 42
0.000972
  0
VERTEX
  8
0
 10
71.915540
 20
246.595098
 42
0.004918
  0
VERTEX
  8
0
 10
71.521671
 20
245.069019
 42
0.002953
  0
SEQEND
  0
POLYLINE
  8
0
 66
1
 70
1
  0
VERTEX
  8
0
 10
120.149467
 20
209.303637
 42
0.036447
  0
VERTEX
  8
0
 10
118.792025
 20
208.507091
 42
0.030917
  0
VERTEX
  8
0
 10
117.483664
 20
207.480437
 42
0.032079
  0
VERTEX
  8
0
 10
116.406679
 20
206.390701
 42
0.072087
  0
VERTEX
  8
0
 10
115.779396
 20
205.415173
 42
-0.079668
  0
VERTEX
  8
0
 10
115.128396
 20
204.435545
 42
-0.061091
  0
VERTEX
  8
0
 10
114.146552
 20
203.603101
 42
-0.055170
  0
VERTEX
  8
0
 10
112.888043
 20
202.962271
 42
-0.043854
  0
VERTEX
  8
0
 10
111.418839
 20
202.550752
 42
0.120731
  0
VERTEX
  8
0
 10
107.074419
 20
200.580645
 42
0.078992
  0
VERTEX
  8
0
 10
103.319395
 20
196.526373
 42
0.082389
  0
VERTEX
  8
0
 10
101.136590
 20
191.703831
 42
0.158056
  0
VERTEX
  8
0
 10
101.358737
 20
187.507530
 42
-0.056567
  0
VERTEX
  8
0
 10
101.508213
 20
186.930311
 42
-0.101022
  0
VERTEX
  8
0
 10
101.478450
 20
186.442837
 42
-0.147717
  0
VERTEX
  8
0
 10
101.279879
 20
186.123034
 42
-0.182442
  0
VERTEX
  8
0
 10
100.953917
 20
186.000000
 42
0.248599
  0
VERTEX
  8
0
 10
99.436833
 20
185.196023
 42
0.041039
  0
VERTEX
  8
0
 10
97.752540
 20
182.213861
 42
0.042744
  0
VERTEX
  8
0
 10
96.441013
 20
178.583297
 42
0.065177
  0
VERTEX
  8
0
 10
96.003738
 20
175.265777
 42
0.033614
  0
VERTEX
  8
0
 10
96.153170
 20
173.015861
 42
0.060870
  0
VERTEX
  8
0
 10
96.618175
 20
171.232825
 42
0.059575
  0
VERTEX
  8
0
 10
97.507030
 20
169.589069
 42
0.030859
  0
VERTEX
  8
0
 10
98.970687
 20
167.765777
 42
0.000000
  0
VERTEX
  8
0
 10
101.941373
 20
164.500000
 42
0.000000
  0
VERTEX
  8
0
 10
101.970687
 20
167.178571
 42
-0.089940
  0
VERTEX
  8
0
 10
102.427511
 20
169.549552
 42
-0.111291
  0
VERTEX
  8
0
 10
103.678228
 20
171.411854
 42
-0.108344
  0
VERTEX
  8
0
 10
105.637063
 20
172.591025
 42
-0.081687
  0
VERTEX
  8
0
 10
108.123658
 20
173.000000
 42
-0.105165
  0
VERTEX
  8
0
 10
110.028635
 20
172.594844
 42
-0.055066
  0
VERTEX
  8
0
 10
112.130708
 20
171.365627
 42
-0.031133
  0
VERTEX
  8
0
 10
114.912094
 20
169.016197
 42
-0.007112
  0
VERTEX
  8
0
 10
119.302230
 20
164.691611
 42
0.011869
  0
VERTEX
  8
0
 10
122.807628
 20
161.303658
 42
0.010977
  0
VERTEX
  8
0
 10
126.560655
 20
157.994217
 42
0.011039
  0
VERTEX
  8
0
 10
130.031077
 20
155.195613
 42
0.035616
  0
VERTEX
  8
0
 10
132.500000
 20
153.559069
 42
-0.021071
  0
VERTEX
  8
0
 10
137.422320
 20
150.498378
 42
-0.054563
  0
VERTEX
  8
0
 10
140.594387
 20
147.785941
 42
-0.078981
  0
VERTEX
  8
0
 10
142.382282
 20
145.153958
 42
-0.110208
  0
VERTEX
  8
0
 10
143.000000
 20
142.385489
 42
-0.047128
  0
VERTEX
  8
0
 10
142.850049
 20
140.798112
 42
-0.065423
  0
VERTEX
  8
0
 10
142.402462
 20
139.443083
 42
-0.065712
  0
VERTEX
  8
0
 10
141.621864
 20
138.254043
 42
-0.048066
  0
VERTEX
  8
0
 10
140.478706
 20
137.161910
 42
0.000000
  0
VERTEX
  8
0
 10
137.957412
 20
135.178660
 42
0.000000
  0
VERTEX
  8
0
 10
140.613565
 20
133.089330
 42
0.076615
  0
VERTEX
  8
0
 10
143.091562
 20
131.691550
 42
0.075231
  0
VERTEX
  8
0
 10
145.891102
 20
131.093456
 42
0.067658
  0
VERTEX
  8
0
 10
148.994154
 20
131.326044
 42
0.046497
  0
VERTEX
  8
0
 10
152.366577
 20
132.379806
 42
0.070603
  0
VERTEX
  8
0
 10
154.318857
 20
133.541453
 42
0.006139
  0
VERTEX
  8
0
 10
158.786545
 20
137.228798
 42
0.007975
  0
VERTEX
  8
0
 10
164.013932
 20
141.797215
 42
0.006113
  0
VERTEX
  8
0
 10
169.584459
 20
146.949413
 42
-0.006744
  0
VERTEX
  8
0
 10
175.341252
 20
152.260429
 42
-0.007142
  0
VERTEX
  8
0
 10
181.131316
 20
157.311847
 42
-0.006856
  0
VERTEX
  8
0
 10
186.236938
 20
161.520341
 42
-0.032146
  0
VERTEX
  8
0
 10
189.351937
 20
163.703934
 42
-0.037473
  0
VERTEX
  8
0
 10
194.056489
 20
166.106786
 42
-0.048804
  0
VERTEX
  8
0
 10
198.674554
 20
167.534159
 42
-0.056760
  0
VERTEX
  8
0
 10
202.759695
 20
167.898047
 42
-0.117243
  0
VERTEX
  8
0
 10
205.841254
 20
167.084958
 42
0.092720
  0
VERTEX
  8
0
 10
207.186820
 20
166.659144
 42
0.117563
  0
VERTEX
  8
0
 10
208.478461
 20
166.805040
 42
0.062550
  0
VERTEX
  8
0
 10
210.125300
 20
167.644617
 42
0.011225
  0
VERTEX
  8
0
 10
212.937516
 20
169.647415
 42
0.000000
  0
VERTEX
  8
0
 10
217.899674
 20
173.352009
 42
0.000000
  0
VERTEX
  8
0
 10
213.582668
 20
177.426005
 42
-0.043148
  0
VERTEX
  8
0
 10
208.740010
 20
182.857945
 42
-0.045043
  0
VERTEX
  8
0
 10
204.979527
 20
188.966208
 42
-0.043139
  0
VERTEX
  8
0
 10
202.249975
 20
195.888580
 42
-0.034026
  0
VERTEX
  8
0
 10
200.480941
 20
203.750000
 42
0.011867
  0
VERTEX
  8
0
 10
200.189456
 20
205.379139
 42
0.019009
  0
VERTEX
  8
0
 10
199.855357
 20
206.751563
 42
0.013601
  0
VERTEX
  8
0
 10
199.518537
 20
207.825156
 42
0.320214
  0
VERTEX
  8
0
 10
199.273520
 20
208.000000
 42
0.157902
  0
VERTEX
  8
0
 10
197.055975
 20
207.281782
 42
0.003428
  0
VERTEX
  8
0
 10
187.776428
 20
200.469029
 42
0.008412
  0
VERTEX
  8
0
 10
178.058650
 20
192.974069
 42
0.009935
  0
VERTEX
  8
0
 10
169.131974
 20
185.551413
 42
-0.006194
  0
VERTEX
  8
0
 10
163.826129
 20
181.071980
 42
-0.008539
  0
VERTEX
  8
0
 10
158.944211
 20
177.190913
 42
-0.005817
  0
VERTEX
  8
0
 10
154.781432
 20
174.072313
 42
-0.096656
  0
VERTEX
  8
0
 10
153.222349
 20
173.340958
 42
-0.097412
  0
VERTEX
  8
0
 10
151.675421
 20
173.260921
 42
-0.101233
  0
VERTEX
  8
0
 10
150.236533
 20
173.776875
 42
-0.054903
  0
VERTEX
  8
0
 10
148.500173
 20
175.112744
 42
-0.010876
  0
VERTEX
  8
0
 10
145.727053
 20
177.895977
 42
0.000000
  0
VERTEX
  8
0
 10
140.773355
 20
183.088897
 42
0.000000
  0
VERTEX
  8
0
 10
141.465263
 20
190.472580
 42
0.012170
  0
VERTEX
  8
0
 10
141.749118
 20
194.574147
 42
0.038480
  0
VERTEX
  8
0
 10
141.660616
 20
197.324801
 42
0.048154
  0
VERTEX
  8
0
 10
141.169851
 20
199.681375
 42
0.028738
  0
VERTEX
  8
0
 10
140.162814
 20
202.364838
 42
0.103478
  0
VERTEX
  8
0
 10
136.772104
 20
207.087373
 42
0.102390
  0
VERTEX
  8
0
 10
131.760832
 20
210.076375
 42
0.100919
  0
VERTEX
  8
0
 10
125.912343
 20
210.856355
 42
0.097613
  0
SEQEND
  0
POLYLINE
  8
0
 66
1
 70
1
  0
VERTEX
  8
0
 10
127.854176
 20
202.668708
 42
-0.086055
  0
VERTEX
  8
0
 10
129.149275
 20
201.200815
 42
-0.063947
  0
VERTEX
  8
0
 10
130.039446
 20
199.226245
 42
-0.060566
  0
VERTEX
  8
0
 10
130.436841
 20
196.976413
 42
-0.060757
  0
VERTEX
  8
0
 10
130.282866
 20
194.699385
 42
-0.053326
  0
VERTEX
  8
0
 10
129.748305
 20
192.942930
 42
-0.176091
  0
VERTEX
  8
0
 10
128.935918
 20
192.071930
 42
-0.424848
  0
VERTEX
  8
0
 10
128.273169
 20
192.300338
 42
-0.109288
  0
VERTEX
  8
0
 10
128.000000
 20
193.535183
 42
0.115422
  0
VERTEX
  8
0
 10
127.523656
 20
195.571182
 42
0.051142
  0
VERTEX
  8
0
 10
126.044384
 20
197.920995
 42
0.048536
  0
VERTEX
  8
0
 10
123.956398
 20
200.113265
 42
0.058946
  0
VERTEX
  8
0
 10
121.608115
 20
201.702652
 42
-0.007869
  0
VERTEX
  8
0
 10
119.740105
 20
202.706206
 42
-0.158006
  0
VERTEX
  8
0
 10
119.305975
 20
203.173475
 42
-0.394483
  0
VERTEX
  8
0
 10
119.437016
 20
203.573924
 42
-0.033780
  0
VERTEX
  8
0
 10
120.506615
 20
204.071639
 42
-0.078863
  0
VERTEX
  8
0
 10
122.265025
 20
204.447520
 42
-0.060539
  0
VERTEX
  8
0
 10
124.227603
 20
204.314377
 42
-0.058608
  0
VERTEX
  8
0
 10
126.166162
 20
203.702477
 42
-0.063419
  0
SEQEND
  0
POLYLINE
  8
0
 66
1
 70
1
  0
VERTEX
  8
0
 10
117.267101
 20
190.250000
 42
-0.046450
  0
VERTEX
  8
0
 10
117.925157
 20
189.367337
 42
-0.022888
  0
VERTEX
  8
0
 10
118.599352
 20
188.139177
 42
-0.022490
  0
VERTEX
  8
0
 10
119.187766
 20
186.790133
 42
-0.030421
  0
VERTEX
  8
0
 10
119.587805
 20
185.521665
 42
0.000000
  0
VERTEX
  8
0
 10
120.331433
 20
182.543330
 42
0.000000
  0
VERTEX
  8
0
 10
117.088991
 20
185.271665
 42
0.034059
  0
VERTEX
  8
0
 10
115.291195
 20
186.586361
 42
0.055403
  0
VERTEX
  8
0
 10
113.592293
 20
187.412536
 42
0.054287
  0
VERTEX
  8
0
 10
111.728586
 20
187.855731
 42
0.031260
  0
VERTEX
  8
0
 10
109.423275
 20
188.000000
 42
-0.027227
  0
VERTEX
  8
0
 10
106.507457
 20
188.158895
 42
-0.182120
  0
VERTEX
  8
0
 10
105.234505
 20
188.804187
 42
-0.395262
  0
VERTEX
  8
0
 10
105.245211
 20
189.735202
 42
-0.069877
  0
VERTEX
  8
0
 10
106.750000
 20
190.919901
 42
-0.094421
  0
VERTEX
  8
0
 10
109.228074
 20
191.794058
 42
-0.053665
  0
VERTEX
  8
0
 10
112.414991
 20
191.933150
 42
-0.054599
  0
VERTEX
  8
0
 10
115.415430
 20
191.409762
 42
-0.139784
  0
SEQEND
  0
POLYLINE
  8
0
 66
1
 70
1
  0
VERTEX
  8
0
 10
105.559525
 20
168.096313
 42
0.171478
  0
VERTEX
  8
0
 10
105.408469
 20
167.400993
 42
0.005246
  0
VERTEX
  8
0
 10
105.813938
 20
164.442882
 42
0.009773
  0
VERTEX
  8
0
 10
106.403935
 20
160.926974
 42
0.006540
  0
VERTEX
  8
0
 10
107.209902
 20
156.928111
 42
0.006083
  0
VERTEX
  8
0
 10
108.689472
 20
150.437621
 42
0.053157
  0
VERTEX
  8
0
 10
109.680113
 20
147.659307
 42
0.092162
  0
VERTEX
  8
0
 10
111.047968
 20
145.793178
 42
0.035135
  0
VERTEX
  8
0
 10
113.556208
 20
143.747273
 42
0.000000
  0
VERTEX
  8
0
 10
117.693628
 20
140.830950
 42
0.000000
  0
VERTEX
  8
0
 10
129.096814
 20
91.727137
 42
0.001001
  0
VERTEX
  8
0
 10
135.695258
 20
63.569298
 42
0.007930
  0
VERTEX
  8
0
 10
138.982440
 20
50.589965
 42
0.012939
  0
VERTEX
  8
0
 10
141.224146
 20
43.071949
 42
0.127387
  0
VERTEX
  8
0
 10
142.989782
 20
40.311662
 42
0.009499
  0
VERTEX
  8
0
 10
143.980715
 20
39.426070
 42
0.013443
  0
VERTEX
  8
0
 10
144.898067
 20
38.679010
 42
0.009519
  0
VERTEX
  8
0
 10
145.682277
 20
38.098151
 42
0.155794
  0
VERTEX
  8
0
 10
145.989782
 20
37.999860
 42
0.423693
  0
VERTEX
  8
0
 10
146.577864
 20
38.606891
 42
0.007135
  0
VERTEX
  8
0
 10
146.339541
 20
43.755805
 42
0.015958
  0
VERTEX
  8
0
 10
145.861229
 20
48.915508
 42
0.036286
  0
VERTEX
  8
0
 10
145.095787
 20
52.752808
 42
-0.064204
  0
VERTEX
  8
0
 10
144.577012
 20
56.402494
 42
-0.050650
  0
VERTEX
  8
0
 10
144.928997
 20
60.380684
 42
-0.053170
  0
VERTEX
  8
0
 10
146.003049
 20
63.906414
 42
-0.119598
  0
VERTEX
  8
0
 10
147.661846
 20
66.134320
 42
0.061523
  0
VERTEX
  8
0
 10
148.174679
 20
66.679121
 42
0.043822
  0
VERTEX
  8
0
 10
148.609451
 20
67.396754
 42
0.044260
  0
VERTEX
  8
0
 10
148.907375
 20
68.167948
 42
0.068831
  0
VERTEX
  8
0
 10
149.008628
 20
68.872445
 42
0.055130
  0
VERTEX
  8
0
 10
148.876669
 20
70.126397
 42
0.000307
  0
VERTEX
  8
0
 10
146.304182
 20
81.872153
 42
0.001322
  0
VERTEX
  8
0
 10
143.326279
 20
95.260257
 42
0.000839
  0
VERTEX
  8
0
 10
139.789888
 20
110.841269
 42
0.000000
  0
VERTEX
  8
0
 10
130.562522
 20
151.182537
 42
0.000000
  0
VERTEX
  8
0
 10
127.031261
 20
153.014903
 42
-0.045110
  0
VERTEX
  8
0
 10
125.226079
 20
154.168940
 42
-0.011105
  0
VERTEX
  8
0
 10
122.488936
 20
156.387694
 42
-0.011277
  0
VERTEX
  8
0
 10
119.455592
 20
159.080184
 42
-0.011063
  0
VERTEX
  8
0
 10
116.526820
 20
161.923634
 42
0.014424
  0
VERTEX
  8
0
 10
112.155497
 20
166.110908
 42
0.055661
  0
VERTEX
  8
0
 10
109.109473
 20
168.303219
 42
0.123958
  0
VERTEX
  8
0
 10
106.995868
 20
168.879036
 42
0.265096
  0
SEQEND
  0
POLYLINE
  8
0
 66
1
 70
1
  0
VERTEX
  8
0
 10
239.084271
 20
159.915655
 42
0.016435
  0
VERTEX
  8
0
 10
228.815207
 20
158.241212
 42
0.026065
  0
VERTEX
  8
0
 10
220.175388
 20
156.066183
 42
0.030557
  0
VERTEX
  8
0
 10
213.420989
 20
153.525088
 42
0.082614
  0
VERTEX
  8
0
 10
209.166329
 20
150.702272
 42
0.093142
  0
VERTEX
  8
0
 10
205.293422
 20
145.439418
 42
0.083423
  0
VERTEX
  8
0
 10
203.403837
 20
138.922315
 42
0.043579
  0
VERTEX
  8
0
 10
203.117863
 20
128.940385
 42
0.007967
  0
VERTEX
  8
0
 10
204.492263
 20
110.500000
 42
-0.010539
  0
VERTEX
  8
0
 10
205.461965
 20
96.519701
 42
-0.009062
  0
VERTEX
  8
0
 10
205.904790
 20
81.788430
 42
-0.004290
  0
VERTEX
  8
0
 10
205.950449
 20
68.152753
 42
-0.140575
  0
VERTEX
  8
0
 10
205.034734
 20
65.021960
 42
-0.157725
  0
VERTEX
  8
0
 10
204.196333
 20
64.324261
 42
-0.041614
  0
VERTEX
  8
0
 10
202.507398
 20
63.805504
 42
-0.029906
  0
VERTEX
  8
0
 10
200.022296
 20
63.417122
 42
-0.011196
  0
VERTEX
  8
0
 10
196.502230
 20
63.160246
 42
-0.025468
  0
VERTEX
  8
0
 10
191.025513
 20
63.162823
 42
-0.099080
  0
VERTEX
  8
0
 10
187.756151
 20
63.993841
 42
-0.146347
  0
VERTEX
  8
0
 10
185.753005
 20
65.812120
 42
-0.081908
  0
VERTEX
  8
0
 10
184.523266
 20
68.894072
 42
0.032709
  0
VERTEX
  8
0
 10
184.159447
 20
70.151717
 42
0.015070
  0
VERTEX
  8
0
 10
183.531511
 20
71.737056
 42
0.014853
  0
VERTEX
  8
0
 10
182.768483
 20
73.370641
 42
0.019928
  0
VERTEX
  8
0
 10
181.975725
 20
74.799520
 42
0.152128
  0
VERTEX
  8
0
 10
175.323794
 20
80.662904
 42
0.147944
  0
VERTEX
  8
0
 10
166.438996
 20
81.795358
 42
0.150279
  0
VERTEX
  8
0
 10
158.516764
 20
77.817797
 42
0.157634
  0
VERTEX
  8
0
 10
154.381948
 20
70.148553
 42
-0.040579
  0
VERTEX
  8
0
 10
153.948701
 20
68.538665
 42
-0.024474
  0
VERTEX
  8
0
 10
153.191510
 20
66.711891
 42
-0.024423
  0
VERTEX
  8
0
 10
152.254823
 20
64.958803
 42
-0.038860
  0
VERTEX
  8
0
 10
151.271106
 20
63.572779
 42
0.035063
  0
VERTEX
  8
0
 10
149.983672
 20
61.787673
 42
0.082344
  0
VERTEX
  8
0
 10
149.359998
 20
60.272157
 42
0.067866
  0
VERTEX
  8
0
 10
149.195498
 20
58.460699
 42
0.018199
  0
VERTEX
  8
0
 10
149.430964
 20
55.572779
 42
-0.006429
  0
VERTEX
  8
0
 10
149.680708
 20
53.200515
 42
-0.003319
  0
VERTEX
  8
0
 10
149.935195
 20
50.227629
 42
-0.003298
  0
VERTEX
  8
0
 10
150.156456
 20
47.166667
 42
-0.004991
  0
VERTEX
  8
0
 10
150.304820
 20
44.500000
 42
0.016476
  0
VERTEX
  8
0
 10
150.498156
 20
42.043606
 42
0.016862
  0
VERTEX
  8
0
 10
150.851958
 20
39.624343
 42
0.016865
  0
VERTEX
  8
0
 10
151.299763
 20
37.550478
 42
0.065046
  0
VERTEX
  8
0
 10
151.782974
 20
36.327552
 42
0.063339
  0
VERTEX
  8
0
 10
153.370590
 20
34.162473
 42
0.039914
  0
VERTEX
  8
0
 10
155.706330
 20
32.064653
 42
0.039905
  0
VERTEX
  8
0
 10
158.169260
 20
30.478220
 42
0.123743
  0
VERTEX
  8
0
 10
160.071988
 20
30.000000
 42
0.092859
  0
VERTEX
  8
0
 10
160.958749
 20
30.166120
 42
0.213203
  0
VERTEX
  8
0
 10
161.426469
 20
30.638628
 42
0.112093
  0
VERTEX
  8
0
 10
161.553318
 20
31.559176
 42
0.018641
  0
VERTEX
  8
0
 10
161.331543
 20
33.344366
 42
-0.035858
  0
VERTEX
  8
0
 10
161.166325
 20
35.191867
 42
-0.099743
  0
VERTEX
  8
0
 10
161.400172
 20
36.467382
 42
-0.097752
  0
VERTEX
  8
0
 10
162.113308
 20
37.567737
 42
-0.033602
  0
VERTEX
  8
0
 10
163.529272
 20
38.844366
 42
-0.068166
  0
VERTEX
  8
0
 10
166.240377
 20
40.434289
 42
-0.126685
  0
VERTEX
  8
0
 10
168.747456
 20
40.793338
 42
-0.082540
  0
VERTEX
  8
0
 10
171.823047
 20
39.927266
 42
-0.017679
  0
VERTEX
  8
0
 10
176.772712
 20
37.384615
 42
0.041933
  0
VERTEX
  8
0
 10
182.723463
 20
34.683607
 42
0.080364
  0
VERTEX
  8
0
 10
187.867385
 20
33.737535
 42
0.077787
  0
VERTEX
  8
0
 10
193.158205
 20
34.449470
 42
0.037184
  0
VERTEX
  8
0
 10
199.587042
 20
36.893936
 42
-0.020124
  0
VERTEX
  8
0
 10
205.546459
 20
39.395591
 42
-0.052272
  0
VERTEX
  8
0
 10
210.047954
 20
40.558207
 42
-0.071383
  0
VERTEX
  8
0
 10
213.785438
 20
40.579797
 42
-0.076730
  0
VERTEX
  8
0
 10
217.280242
 20
39.537258
 42
-0.078582
  0
VERTEX
  8
0
 10
219.718690
 20
37.869355
 42
-0.064824
  0
VERTEX
  8
0
 10
221.713013
 20
35.426124
 42
-0.072745
  0
VERTEX
  8
0
 10
222.806348
 20
32.909748
 42
-0.207457
  0
VERTEX
  8
0
 10
222.537303
 20
31.060357
 42
0.482292
  0
VERTEX
  8
0
 10
222.845133
 20
30.204283
 42
0.122201
  0
VERTEX
  8
0
 10
224.560947
 20
30.060418
 42
0.056198
  0
VERTEX
  8
0
 10
227.405975
 20
30.853385
 42
0.052271
  0
VERTEX
  8
0
 10
230.078320
 20
32.273797
 42
0.093167
  0
VERTEX
  8
0
 10
235.442039
 20
37.567110
 42
0.095293
  0
VERTEX
  8
0
 10
238.465128
 20
44.406439
 42
0.053826
  0
VERTEX
  8
0
 10
239.711516
 20
54.863303
 42
0.011493
  0
VERTEX
  8
0
 10
239.493446
 20
73.187811
 42
0.000000
  0
VERTEX
  8
0
 10
238.767117
 20
94.000000
 42
0.000000
  0
VERTEX
  8
0
 10
240.982429
 20
94.000000
 42
0.107067
  0
VERTEX
  8
0
 10
245.469421
 20
94.971958
 42
0.094279
  0
VERTEX
  8
0
 10
249.388518
 20
97.738272
 42
0.092825
  0
VERTEX
  8
0
 10
252.063397
 20
101.794147
 42
0.099807
  0
VERTEX
  8
0
 10
253.000000
 20
106.439476
 42
0.011367
  0
VERTEX
  8
0
 10
252.951313
 20
108.580739
 42
0.149841
  0
VERTEX
  8
0
 10
252.688095
 20
109.317950
 42
0.317632
  0
VERTEX
  8
0
 10
252.157337
 20
109.491064
 42
0.047930
  0
VERTEX
  8
0
 10
251.065741
 20
109.035184
 42
-0.075685
  0
VERTEX
  8
0
 10
249.083597
 20
108.333323
 42
-0.040205
  0
VERTEX
  8
0
 10
246.488898
 20
108.049728
 42
-0.040115
  0
VERTEX
  8
0
 10
243.977230
 20
108.179669
 42
-0.109052
  0
VERTEX
  8
0
 10
242.312561
 20
108.785665
 42
-0.131583
  0
VERTEX
  8
0
 10
240.992083
 20
110.223822
 42
-0.048477
  0
VERTEX
  8
0
 10
239.950921
 20
112.798920
 42
-0.047761
  0
VERTEX
  8
0
 10
239.389249
 20
115.689852
 42
-0.078322
  0
VERTEX
  8
0
 10
239.538156
 20
118.173724
 42
0.000000
  0
VERTEX
  8
0
 10
240.158911
 20
121.000000
 42
0.000000
  0
VERTEX
  8
0
 10
257.668349
 20
121.000000
 42
0.000000
  0
VERTEX
  8
0
 10
275.177787
 20
121.000000
 42
0.000000
  0
VERTEX
  8
0
 10
272.588894
 20
124.076725
 42
-0.079947
  0
VERTEX
  8
0
 10
270.808178
 20
127.047730
 42
-0.077814
  0
VERTEX
  8
0
 10
270.027959
 20
130.455358
 42
-0.083680
  0
VERTEX
  8
0
 10
270.345721
 20
133.714109
 42
-0.118396
  0
VERTEX
  8
0
 10
271.737358
 20
136.262277
 42
0.104985
  0
VERTEX
  8
0
 10
272.553850
 20
137.667506
 42
0.144335
  0
VERTEX
  8
0
 10
272.598105
 20
139.119583
 42
0.052053
  0
VERTEX
  8
0
 10
271.762355
 20
141.338360
 42
0.004442
  0
VERTEX
  8
0
 10
268.987358
 20
146.759218
 42
0.010985
  0
VERTEX
  8
0
 10
267.061903
 20
150.250608
 42
0.011035
  0
VERTEX
  8
0
 10
264.987753
 20
153.648694
 42
0.010909
  0
VERTEX
  8
0
 10
263.050991
 20
156.529393
 42
0.042729
  0
VERTEX
  8
0
 10
261.673077
 20
158.168200
 42
0.037831
  0
VERTEX
  8
0
 10
259.843848
 20
159.742492
 42
0.089642
  0
VERTEX
  8
0
 10
258.236681
 20
160.531171
 42
0.062563
  0
VERTEX
  8
0
 10
256.119087
 20
160.856485
 42
0.011618
  0
VERTEX
  8
0
 10
252.173077
 20
160.873195
 42
0.008431
  0
VERTEX
  8
0
 10
249.153112
 20
160.764846
 42
0.005076
  0
VERTEX
  8
0
 10
245.575596
 20
160.539610
 42
0.005082
  0
VERTEX
  8
0
 10
242.022845
 20
160.243367
 42
0.008853
  0
SEQEND
  0
POLYLINE
  8
0
 66
1
 70
1
  0
VERTEX
  8
0
 10
170.685549
 20
70.825686
 42
-0.038888
  0
VERTEX
  8
0
 10
171.571194
 20
69.853540
 42
-0.036103
  0
VERTEX
  8
0
 10
172.320130
 20
68.732461
 42
-0.038139
  0
VERTEX
  8
0
 10
172.837584
 20
67.634871
 42
-0.091329
  0
VERTEX
  8
0
 10
173.000000
 20
66.753106
 42
-0.032661
  0
VERTEX
  8
0
 10
172.928331
 20
65.657122
 42
-0.395434
  0
VERTEX
  8
0
 10
172.630034
 20
65.412394
 42
-0.145051
  0
VERTEX
  8
0
 10
172.070231
 20
65.619377
 42
-0.006068
  0
VERTEX
  8
0
 10
170.365141
 20
66.927420
 42
0.051442
  0
VERTEX
  8
0
 10
168.881073
 20
67.865570
 42
0.047865
  0
VERTEX
  8
0
 10
167.200958
 20
68.508104
 42
0.041850
  0
VERTEX
  8
0
 10
165.229981
 20
68.878918
 42
0.025584
  0
VERTEX
  8
0
 10
162.865141
 20
69.000000
 42
-0.023918
  0
VERTEX
  8
0
 10
159.679756
 20
69.152461
 42
-0.165848
  0
VERTEX
  8
0
 10
158.276476
 20
69.786472
 42
-0.413148
  0
VERTEX
  8
0
 10
158.244694
 20
70.716510
 42
-0.073624
  0
VERTEX
  8
0
 10
159.750000
 20
71.919901
 42
-0.093382
  0
VERTEX
  8
0
 10
162.322853
 20
72.833453
 42
-0.063759
  0
VERTEX
  8
0
 10
165.432476
 20
72.919354
 42
-0.064266
  0
VERTEX
  8
0
 10
168.434009
 20
72.222631
 42
-0.099767
  0
SEQEND
  0
POLYLINE
  8
0
 66
1
 70
1
  0
VERTEX
  8
0
 10
168.545455
 20
56.545455
 42
-0.026644
  0
VERTEX
  8
0
 10
169.484905
 20
55.500165
 42
-0.029060
  0
VERTEX
  8
0
 10
170.278977
 20
54.389621
 42
-0.030283
  0
VERTEX
  8
0
 10
170.839395
 20
53.368864
 42
-0.110837
  0
VERTEX
  8
0
 10
171.000000
 20
52.653254
 42
-0.181587
  0
VERTEX
  8
0
 10
170.780331
 20
52.068340
 42
-0.249694
  0
VERTEX
  8
0
 10
170.264971
 20
51.872652
 42
-0.076044
  0
VERTEX
  8
0
 10
169.243814
 20
52.164392
 42
-0.010492
  0
VERTEX
  8
0
 10
167.250000
 20
53.130125
 42
0.061929
  0
VERTEX
  8
0
 10
164.366700
 20
54.177204
 42
0.061740
  0
VERTEX
  8
0
 10
161.311738
 20
54.487795
 42
0.067564
  0
VERTEX
  8
0
 10
158.553320
 20
54.051336
 42
0.116409
  0
VERTEX
  8
0
 10
156.550000
 20
52.894647
 42
-0.062960
  0
VERTEX
  8
0
 10
155.569497
 20
52.180281
 42
-0.179351
  0
VERTEX
  8
0
 10
154.747308
 20
52.056893
 42
-0.239797
  0
VERTEX
  8
0
 10
154.200104
 20
52.496394
 42
-0.106251
  0
VERTEX
  8
0
 10
154.000000
 20
53.427420
 42
-0.190833
  0
VERTEX
  8
0
 10
154.713402
 20
55.228529
 42
-0.061532
  0
VERTEX
  8
0
 10
156.962229
 20
57.098311
 42
-0.058157
  0
VERTEX
  8
0
 10
159.872410
 20
58.520391
 42
-0.084789
  0
VERTEX
  8
0
 10
162.680313
 20
59.000000
 42
-0.046477
  0
VERTEX
  8
0
 10
164.330947
 20
58.846234
 42
-0.052692
  0
VERTEX
  8
0
 10
165.853375
 20
58.390159
 42
-0.052367
  0
VERTEX
  8
0
 10
167.254581
 20
57.622877
 42
-0.044973
  0
SEQEND
  0
POLYLINE
  8
0
 66
1
 70
1
  0
VERTEX
  8
0
 10
268.000000
 20
157.319457
 42
0.111078
  0
VERTEX
  8
0
 10
268.109957
 20
156.830612
 42
0.001390
  0
VERTEX
  8
0
 10
269.495530
 20
153.927335
 42
0.004010
  0
VERTEX
  8
0
 10
271.139896
 20
150.575397
 42
0.002606
  0
VERTEX
  8
0
 10
273.091165
 20
146.727462
 42
-0.003052
  0
VERTEX
  8
0
 10
276.409597
 20
140.168981
 42
-0.051163
  0
VERTEX
  8
0
 10
277.266421
 20
137.893161
 42
-0.183891
  0
VERTEX
  8
0
 10
277.122610
 20
136.539987
 42
-0.123163
  0
VERTEX
  8
0
 10
276.091165
 20
135.351301
 42
0.214641
  0
VERTEX
  8
0
 10
273.987264
 20
131.816799
 42
0.157795
  0
VERTEX
  8
0
 10
274.900135
 20
127.289246
 42
0.120695
  0
VERTEX
  8
0
 10
278.677971
 20
123.251827
 42
0.111721
  0
VERTEX
  8
0
 10
284.002471
 20
121.272843
 42
0.000000
  0
VERTEX
  8
0
 10
288.228102
 20
120.706067
 42
0.000000
  0
VERTEX
  8
0
 10
287.517111
 20
126.103033
 42
0.049964
  0
VERTEX
  8
0
 10
285.814225
 20
133.348811
 42
0.025256
  0
VERTEX
  8
0
 10
282.321511
 20
142.063734
 42
0.025236
  0
VERTEX
  8
0
 10
278.002465
 20
150.316791
 42
0.054032
  0
VERTEX
  8
0
 10
273.711045
 20
156.073955
 42
0.087469
  0
VERTEX
  8
0
 10
272.198334
 20
157.218654
 42
0.064732
  0
VERTEX
  8
0
 10
270.219463
 20
157.927592
 42
0.087440
  0
VERTEX
  8
0
 10
268.589026
 20
157.993316
 42
0.375447
  0
SEQEND
  0
ENDSEC
  0
EOF
