G04 #@! TF.GenerationSoftware,KiCad,Pcbnew,7.0.1-3b83917a11~172~ubuntu22.04.1*
G04 #@! TF.CreationDate,2023-04-18T09:55:19+02:00*
G04 #@! TF.ProjectId,part1,70617274-312e-46b6-9963-61645f706362,rev?*
G04 #@! TF.SameCoordinates,Original*
G04 #@! TF.FileFunction,Legend,Top*
G04 #@! TF.FilePolarity,Positive*
%FSLAX46Y46*%
G04 Gerber Fmt 4.6, Leading zero omitted, Abs format (unit mm)*
G04 Created by KiCad (PCBNEW 7.0.1-3b83917a11~172~ubuntu22.04.1) date 2023-04-18 09:55:19*
%MOMM*%
%LPD*%
G01*
G04 APERTURE LIST*
G04 Aperture macros list*
%AMRoundRect*
0 Rectangle with rounded corners*
0 $1 Rounding radius*
0 $2 $3 $4 $5 $6 $7 $8 $9 X,Y pos of 4 corners*
0 Add a 4 corners polygon primitive as box body*
4,1,4,$2,$3,$4,$5,$6,$7,$8,$9,$2,$3,0*
0 Add four circle primitives for the rounded corners*
1,1,$1+$1,$2,$3*
1,1,$1+$1,$4,$5*
1,1,$1+$1,$6,$7*
1,1,$1+$1,$8,$9*
0 Add four rect primitives between the rounded corners*
20,1,$1+$1,$2,$3,$4,$5,0*
20,1,$1+$1,$4,$5,$6,$7,0*
20,1,$1+$1,$6,$7,$8,$9,0*
20,1,$1+$1,$8,$9,$2,$3,0*%
G04 Aperture macros list end*
%ADD10C,0.180000*%
%ADD11C,0.150000*%
%ADD12C,0.120607*%
%ADD13C,0.127000*%
%ADD14C,0.100000*%
%ADD15C,0.120000*%
%ADD16C,0.912000*%
%ADD17R,1.800000X4.000000*%
%ADD18C,0.500000*%
%ADD19R,0.600000X0.522000*%
%ADD20RoundRect,0.237500X0.300000X0.237500X-0.300000X0.237500X-0.300000X-0.237500X0.300000X-0.237500X0*%
%ADD21RoundRect,0.237500X0.237500X-0.250000X0.237500X0.250000X-0.237500X0.250000X-0.237500X-0.250000X0*%
G04 APERTURE END LIST*
D10*
X126641285Y-112965428D02*
X126641285Y-112394000D01*
X126984142Y-113079714D02*
X125784142Y-112679714D01*
X125784142Y-112679714D02*
X126984142Y-112279714D01*
X126927000Y-111365429D02*
X126984142Y-111479714D01*
X126984142Y-111479714D02*
X126984142Y-111708286D01*
X126984142Y-111708286D02*
X126927000Y-111822571D01*
X126927000Y-111822571D02*
X126869857Y-111879714D01*
X126869857Y-111879714D02*
X126755571Y-111936857D01*
X126755571Y-111936857D02*
X126412714Y-111936857D01*
X126412714Y-111936857D02*
X126298428Y-111879714D01*
X126298428Y-111879714D02*
X126241285Y-111822571D01*
X126241285Y-111822571D02*
X126184142Y-111708286D01*
X126184142Y-111708286D02*
X126184142Y-111479714D01*
X126184142Y-111479714D02*
X126241285Y-111365429D01*
X126984142Y-110679715D02*
X126927000Y-110794000D01*
X126927000Y-110794000D02*
X126869857Y-110851143D01*
X126869857Y-110851143D02*
X126755571Y-110908286D01*
X126755571Y-110908286D02*
X126412714Y-110908286D01*
X126412714Y-110908286D02*
X126298428Y-110851143D01*
X126298428Y-110851143D02*
X126241285Y-110794000D01*
X126241285Y-110794000D02*
X126184142Y-110679715D01*
X126184142Y-110679715D02*
X126184142Y-110508286D01*
X126184142Y-110508286D02*
X126241285Y-110394000D01*
X126241285Y-110394000D02*
X126298428Y-110336858D01*
X126298428Y-110336858D02*
X126412714Y-110279715D01*
X126412714Y-110279715D02*
X126755571Y-110279715D01*
X126755571Y-110279715D02*
X126869857Y-110336858D01*
X126869857Y-110336858D02*
X126927000Y-110394000D01*
X126927000Y-110394000D02*
X126984142Y-110508286D01*
X126984142Y-110508286D02*
X126984142Y-110679715D01*
X126184142Y-109251144D02*
X126984142Y-109251144D01*
X126184142Y-109765429D02*
X126812714Y-109765429D01*
X126812714Y-109765429D02*
X126927000Y-109708286D01*
X126927000Y-109708286D02*
X126984142Y-109594001D01*
X126984142Y-109594001D02*
X126984142Y-109422572D01*
X126984142Y-109422572D02*
X126927000Y-109308286D01*
X126927000Y-109308286D02*
X126869857Y-109251144D01*
X126927000Y-108736858D02*
X126984142Y-108622572D01*
X126984142Y-108622572D02*
X126984142Y-108394001D01*
X126984142Y-108394001D02*
X126927000Y-108279715D01*
X126927000Y-108279715D02*
X126812714Y-108222572D01*
X126812714Y-108222572D02*
X126755571Y-108222572D01*
X126755571Y-108222572D02*
X126641285Y-108279715D01*
X126641285Y-108279715D02*
X126584142Y-108394001D01*
X126584142Y-108394001D02*
X126584142Y-108565430D01*
X126584142Y-108565430D02*
X126527000Y-108679715D01*
X126527000Y-108679715D02*
X126412714Y-108736858D01*
X126412714Y-108736858D02*
X126355571Y-108736858D01*
X126355571Y-108736858D02*
X126241285Y-108679715D01*
X126241285Y-108679715D02*
X126184142Y-108565430D01*
X126184142Y-108565430D02*
X126184142Y-108394001D01*
X126184142Y-108394001D02*
X126241285Y-108279715D01*
X126184142Y-107879715D02*
X126184142Y-107422572D01*
X125784142Y-107708286D02*
X126812714Y-107708286D01*
X126812714Y-107708286D02*
X126927000Y-107651143D01*
X126927000Y-107651143D02*
X126984142Y-107536858D01*
X126984142Y-107536858D02*
X126984142Y-107422572D01*
X126984142Y-107022572D02*
X126184142Y-107022572D01*
X125784142Y-107022572D02*
X125841285Y-107079715D01*
X125841285Y-107079715D02*
X125898428Y-107022572D01*
X125898428Y-107022572D02*
X125841285Y-106965429D01*
X125841285Y-106965429D02*
X125784142Y-107022572D01*
X125784142Y-107022572D02*
X125898428Y-107022572D01*
X126927000Y-105936858D02*
X126984142Y-106051143D01*
X126984142Y-106051143D02*
X126984142Y-106279715D01*
X126984142Y-106279715D02*
X126927000Y-106394000D01*
X126927000Y-106394000D02*
X126869857Y-106451143D01*
X126869857Y-106451143D02*
X126755571Y-106508286D01*
X126755571Y-106508286D02*
X126412714Y-106508286D01*
X126412714Y-106508286D02*
X126298428Y-106451143D01*
X126298428Y-106451143D02*
X126241285Y-106394000D01*
X126241285Y-106394000D02*
X126184142Y-106279715D01*
X126184142Y-106279715D02*
X126184142Y-106051143D01*
X126184142Y-106051143D02*
X126241285Y-105936858D01*
X126984142Y-104508286D02*
X125784142Y-104508286D01*
X125784142Y-104508286D02*
X125784142Y-104222572D01*
X125784142Y-104222572D02*
X125841285Y-104051143D01*
X125841285Y-104051143D02*
X125955571Y-103936858D01*
X125955571Y-103936858D02*
X126069857Y-103879715D01*
X126069857Y-103879715D02*
X126298428Y-103822572D01*
X126298428Y-103822572D02*
X126469857Y-103822572D01*
X126469857Y-103822572D02*
X126698428Y-103879715D01*
X126698428Y-103879715D02*
X126812714Y-103936858D01*
X126812714Y-103936858D02*
X126927000Y-104051143D01*
X126927000Y-104051143D02*
X126984142Y-104222572D01*
X126984142Y-104222572D02*
X126984142Y-104508286D01*
X126927000Y-102851143D02*
X126984142Y-102965429D01*
X126984142Y-102965429D02*
X126984142Y-103194001D01*
X126984142Y-103194001D02*
X126927000Y-103308286D01*
X126927000Y-103308286D02*
X126812714Y-103365429D01*
X126812714Y-103365429D02*
X126355571Y-103365429D01*
X126355571Y-103365429D02*
X126241285Y-103308286D01*
X126241285Y-103308286D02*
X126184142Y-103194001D01*
X126184142Y-103194001D02*
X126184142Y-102965429D01*
X126184142Y-102965429D02*
X126241285Y-102851143D01*
X126241285Y-102851143D02*
X126355571Y-102794001D01*
X126355571Y-102794001D02*
X126469857Y-102794001D01*
X126469857Y-102794001D02*
X126584142Y-103365429D01*
X126184142Y-102451144D02*
X126184142Y-101994001D01*
X125784142Y-102279715D02*
X126812714Y-102279715D01*
X126812714Y-102279715D02*
X126927000Y-102222572D01*
X126927000Y-102222572D02*
X126984142Y-102108287D01*
X126984142Y-102108287D02*
X126984142Y-101994001D01*
X126927000Y-101136858D02*
X126984142Y-101251144D01*
X126984142Y-101251144D02*
X126984142Y-101479716D01*
X126984142Y-101479716D02*
X126927000Y-101594001D01*
X126927000Y-101594001D02*
X126812714Y-101651144D01*
X126812714Y-101651144D02*
X126355571Y-101651144D01*
X126355571Y-101651144D02*
X126241285Y-101594001D01*
X126241285Y-101594001D02*
X126184142Y-101479716D01*
X126184142Y-101479716D02*
X126184142Y-101251144D01*
X126184142Y-101251144D02*
X126241285Y-101136858D01*
X126241285Y-101136858D02*
X126355571Y-101079716D01*
X126355571Y-101079716D02*
X126469857Y-101079716D01*
X126469857Y-101079716D02*
X126584142Y-101651144D01*
X126927000Y-100051145D02*
X126984142Y-100165430D01*
X126984142Y-100165430D02*
X126984142Y-100394002D01*
X126984142Y-100394002D02*
X126927000Y-100508287D01*
X126927000Y-100508287D02*
X126869857Y-100565430D01*
X126869857Y-100565430D02*
X126755571Y-100622573D01*
X126755571Y-100622573D02*
X126412714Y-100622573D01*
X126412714Y-100622573D02*
X126298428Y-100565430D01*
X126298428Y-100565430D02*
X126241285Y-100508287D01*
X126241285Y-100508287D02*
X126184142Y-100394002D01*
X126184142Y-100394002D02*
X126184142Y-100165430D01*
X126184142Y-100165430D02*
X126241285Y-100051145D01*
X126184142Y-99708288D02*
X126184142Y-99251145D01*
X125784142Y-99536859D02*
X126812714Y-99536859D01*
X126812714Y-99536859D02*
X126927000Y-99479716D01*
X126927000Y-99479716D02*
X126984142Y-99365431D01*
X126984142Y-99365431D02*
X126984142Y-99251145D01*
X126984142Y-98851145D02*
X126184142Y-98851145D01*
X125784142Y-98851145D02*
X125841285Y-98908288D01*
X125841285Y-98908288D02*
X125898428Y-98851145D01*
X125898428Y-98851145D02*
X125841285Y-98794002D01*
X125841285Y-98794002D02*
X125784142Y-98851145D01*
X125784142Y-98851145D02*
X125898428Y-98851145D01*
X126984142Y-98108288D02*
X126927000Y-98222573D01*
X126927000Y-98222573D02*
X126869857Y-98279716D01*
X126869857Y-98279716D02*
X126755571Y-98336859D01*
X126755571Y-98336859D02*
X126412714Y-98336859D01*
X126412714Y-98336859D02*
X126298428Y-98279716D01*
X126298428Y-98279716D02*
X126241285Y-98222573D01*
X126241285Y-98222573D02*
X126184142Y-98108288D01*
X126184142Y-98108288D02*
X126184142Y-97936859D01*
X126184142Y-97936859D02*
X126241285Y-97822573D01*
X126241285Y-97822573D02*
X126298428Y-97765431D01*
X126298428Y-97765431D02*
X126412714Y-97708288D01*
X126412714Y-97708288D02*
X126755571Y-97708288D01*
X126755571Y-97708288D02*
X126869857Y-97765431D01*
X126869857Y-97765431D02*
X126927000Y-97822573D01*
X126927000Y-97822573D02*
X126984142Y-97936859D01*
X126984142Y-97936859D02*
X126984142Y-98108288D01*
X126184142Y-97194002D02*
X126984142Y-97194002D01*
X126298428Y-97194002D02*
X126241285Y-97136859D01*
X126241285Y-97136859D02*
X126184142Y-97022574D01*
X126184142Y-97022574D02*
X126184142Y-96851145D01*
X126184142Y-96851145D02*
X126241285Y-96736859D01*
X126241285Y-96736859D02*
X126355571Y-96679717D01*
X126355571Y-96679717D02*
X126984142Y-96679717D01*
X126184142Y-95308288D02*
X126984142Y-95022574D01*
X126984142Y-95022574D02*
X126184142Y-94736859D01*
X126984142Y-93651145D02*
X126984142Y-94336859D01*
X126984142Y-93994002D02*
X125784142Y-93994002D01*
X125784142Y-93994002D02*
X125955571Y-94108288D01*
X125955571Y-94108288D02*
X126069857Y-94222573D01*
X126069857Y-94222573D02*
X126127000Y-94336859D01*
X126869857Y-93136859D02*
X126927000Y-93079716D01*
X126927000Y-93079716D02*
X126984142Y-93136859D01*
X126984142Y-93136859D02*
X126927000Y-93194002D01*
X126927000Y-93194002D02*
X126869857Y-93136859D01*
X126869857Y-93136859D02*
X126984142Y-93136859D01*
X125784142Y-92336859D02*
X125784142Y-92222573D01*
X125784142Y-92222573D02*
X125841285Y-92108287D01*
X125841285Y-92108287D02*
X125898428Y-92051145D01*
X125898428Y-92051145D02*
X126012714Y-91994002D01*
X126012714Y-91994002D02*
X126241285Y-91936859D01*
X126241285Y-91936859D02*
X126527000Y-91936859D01*
X126527000Y-91936859D02*
X126755571Y-91994002D01*
X126755571Y-91994002D02*
X126869857Y-92051145D01*
X126869857Y-92051145D02*
X126927000Y-92108287D01*
X126927000Y-92108287D02*
X126984142Y-92222573D01*
X126984142Y-92222573D02*
X126984142Y-92336859D01*
X126984142Y-92336859D02*
X126927000Y-92451145D01*
X126927000Y-92451145D02*
X126869857Y-92508287D01*
X126869857Y-92508287D02*
X126755571Y-92565430D01*
X126755571Y-92565430D02*
X126527000Y-92622573D01*
X126527000Y-92622573D02*
X126241285Y-92622573D01*
X126241285Y-92622573D02*
X126012714Y-92565430D01*
X126012714Y-92565430D02*
X125898428Y-92508287D01*
X125898428Y-92508287D02*
X125841285Y-92451145D01*
X125841285Y-92451145D02*
X125784142Y-92336859D01*
X126927000Y-91365430D02*
X126984142Y-91365430D01*
X126984142Y-91365430D02*
X127098428Y-91422573D01*
X127098428Y-91422573D02*
X127155571Y-91479716D01*
X126984142Y-89936858D02*
X125784142Y-89936858D01*
X125784142Y-89936858D02*
X126641285Y-89536858D01*
X126641285Y-89536858D02*
X125784142Y-89136858D01*
X125784142Y-89136858D02*
X126984142Y-89136858D01*
X126984142Y-88051144D02*
X126355571Y-88051144D01*
X126355571Y-88051144D02*
X126241285Y-88108286D01*
X126241285Y-88108286D02*
X126184142Y-88222572D01*
X126184142Y-88222572D02*
X126184142Y-88451144D01*
X126184142Y-88451144D02*
X126241285Y-88565429D01*
X126927000Y-88051144D02*
X126984142Y-88165429D01*
X126984142Y-88165429D02*
X126984142Y-88451144D01*
X126984142Y-88451144D02*
X126927000Y-88565429D01*
X126927000Y-88565429D02*
X126812714Y-88622572D01*
X126812714Y-88622572D02*
X126698428Y-88622572D01*
X126698428Y-88622572D02*
X126584142Y-88565429D01*
X126584142Y-88565429D02*
X126527000Y-88451144D01*
X126527000Y-88451144D02*
X126527000Y-88165429D01*
X126527000Y-88165429D02*
X126469857Y-88051144D01*
X126184142Y-87651144D02*
X126184142Y-87194001D01*
X125784142Y-87479715D02*
X126812714Y-87479715D01*
X126812714Y-87479715D02*
X126927000Y-87422572D01*
X126927000Y-87422572D02*
X126984142Y-87308287D01*
X126984142Y-87308287D02*
X126984142Y-87194001D01*
X126927000Y-86336858D02*
X126984142Y-86451144D01*
X126984142Y-86451144D02*
X126984142Y-86679716D01*
X126984142Y-86679716D02*
X126927000Y-86794001D01*
X126927000Y-86794001D02*
X126812714Y-86851144D01*
X126812714Y-86851144D02*
X126355571Y-86851144D01*
X126355571Y-86851144D02*
X126241285Y-86794001D01*
X126241285Y-86794001D02*
X126184142Y-86679716D01*
X126184142Y-86679716D02*
X126184142Y-86451144D01*
X126184142Y-86451144D02*
X126241285Y-86336858D01*
X126241285Y-86336858D02*
X126355571Y-86279716D01*
X126355571Y-86279716D02*
X126469857Y-86279716D01*
X126469857Y-86279716D02*
X126584142Y-86851144D01*
X125727000Y-86794001D02*
X125898428Y-86565430D01*
X125898428Y-86565430D02*
X125727000Y-86336858D01*
X126184142Y-85765430D02*
X127212714Y-85765430D01*
X127212714Y-85765430D02*
X127327000Y-85822573D01*
X127327000Y-85822573D02*
X127384142Y-85936859D01*
X127384142Y-85936859D02*
X127384142Y-85994002D01*
X125784142Y-85765430D02*
X125841285Y-85822573D01*
X125841285Y-85822573D02*
X125898428Y-85765430D01*
X125898428Y-85765430D02*
X125841285Y-85708287D01*
X125841285Y-85708287D02*
X125784142Y-85765430D01*
X125784142Y-85765430D02*
X125898428Y-85765430D01*
X125784142Y-84451144D02*
X125784142Y-83765430D01*
X126984142Y-84108287D02*
X125784142Y-84108287D01*
X126984142Y-83365429D02*
X126184142Y-83365429D01*
X126412714Y-83365429D02*
X126298428Y-83308286D01*
X126298428Y-83308286D02*
X126241285Y-83251144D01*
X126241285Y-83251144D02*
X126184142Y-83136858D01*
X126184142Y-83136858D02*
X126184142Y-83022572D01*
X126184142Y-82622572D02*
X126984142Y-82622572D01*
X126298428Y-82622572D02*
X126241285Y-82565429D01*
X126241285Y-82565429D02*
X126184142Y-82451144D01*
X126184142Y-82451144D02*
X126184142Y-82279715D01*
X126184142Y-82279715D02*
X126241285Y-82165429D01*
X126241285Y-82165429D02*
X126355571Y-82108287D01*
X126355571Y-82108287D02*
X126984142Y-82108287D01*
X126984142Y-81536858D02*
X125784142Y-81536858D01*
X126527000Y-81422573D02*
X126984142Y-81079715D01*
X126184142Y-81079715D02*
X126641285Y-81536858D01*
X126984142Y-80051144D02*
X126355571Y-80051144D01*
X126355571Y-80051144D02*
X126241285Y-80108286D01*
X126241285Y-80108286D02*
X126184142Y-80222572D01*
X126184142Y-80222572D02*
X126184142Y-80451144D01*
X126184142Y-80451144D02*
X126241285Y-80565429D01*
X126927000Y-80051144D02*
X126984142Y-80165429D01*
X126984142Y-80165429D02*
X126984142Y-80451144D01*
X126984142Y-80451144D02*
X126927000Y-80565429D01*
X126927000Y-80565429D02*
X126812714Y-80622572D01*
X126812714Y-80622572D02*
X126698428Y-80622572D01*
X126698428Y-80622572D02*
X126584142Y-80565429D01*
X126584142Y-80565429D02*
X126527000Y-80451144D01*
X126527000Y-80451144D02*
X126527000Y-80165429D01*
X126527000Y-80165429D02*
X126469857Y-80051144D01*
X126184142Y-78051144D02*
X126984142Y-78051144D01*
X125727000Y-78336858D02*
X126584142Y-78622572D01*
X126584142Y-78622572D02*
X126584142Y-77879715D01*
X125727000Y-76565429D02*
X127269857Y-77594001D01*
X125898428Y-76222572D02*
X125841285Y-76165429D01*
X125841285Y-76165429D02*
X125784142Y-76051144D01*
X125784142Y-76051144D02*
X125784142Y-75765429D01*
X125784142Y-75765429D02*
X125841285Y-75651144D01*
X125841285Y-75651144D02*
X125898428Y-75594001D01*
X125898428Y-75594001D02*
X126012714Y-75536858D01*
X126012714Y-75536858D02*
X126127000Y-75536858D01*
X126127000Y-75536858D02*
X126298428Y-75594001D01*
X126298428Y-75594001D02*
X126984142Y-76279715D01*
X126984142Y-76279715D02*
X126984142Y-75536858D01*
X125784142Y-74794001D02*
X125784142Y-74679715D01*
X125784142Y-74679715D02*
X125841285Y-74565429D01*
X125841285Y-74565429D02*
X125898428Y-74508287D01*
X125898428Y-74508287D02*
X126012714Y-74451144D01*
X126012714Y-74451144D02*
X126241285Y-74394001D01*
X126241285Y-74394001D02*
X126527000Y-74394001D01*
X126527000Y-74394001D02*
X126755571Y-74451144D01*
X126755571Y-74451144D02*
X126869857Y-74508287D01*
X126869857Y-74508287D02*
X126927000Y-74565429D01*
X126927000Y-74565429D02*
X126984142Y-74679715D01*
X126984142Y-74679715D02*
X126984142Y-74794001D01*
X126984142Y-74794001D02*
X126927000Y-74908287D01*
X126927000Y-74908287D02*
X126869857Y-74965429D01*
X126869857Y-74965429D02*
X126755571Y-75022572D01*
X126755571Y-75022572D02*
X126527000Y-75079715D01*
X126527000Y-75079715D02*
X126241285Y-75079715D01*
X126241285Y-75079715D02*
X126012714Y-75022572D01*
X126012714Y-75022572D02*
X125898428Y-74965429D01*
X125898428Y-74965429D02*
X125841285Y-74908287D01*
X125841285Y-74908287D02*
X125784142Y-74794001D01*
X125898428Y-73936858D02*
X125841285Y-73879715D01*
X125841285Y-73879715D02*
X125784142Y-73765430D01*
X125784142Y-73765430D02*
X125784142Y-73479715D01*
X125784142Y-73479715D02*
X125841285Y-73365430D01*
X125841285Y-73365430D02*
X125898428Y-73308287D01*
X125898428Y-73308287D02*
X126012714Y-73251144D01*
X126012714Y-73251144D02*
X126127000Y-73251144D01*
X126127000Y-73251144D02*
X126298428Y-73308287D01*
X126298428Y-73308287D02*
X126984142Y-73994001D01*
X126984142Y-73994001D02*
X126984142Y-73251144D01*
X125784142Y-72851144D02*
X125784142Y-72108287D01*
X125784142Y-72108287D02*
X126241285Y-72508287D01*
X126241285Y-72508287D02*
X126241285Y-72336858D01*
X126241285Y-72336858D02*
X126298428Y-72222573D01*
X126298428Y-72222573D02*
X126355571Y-72165430D01*
X126355571Y-72165430D02*
X126469857Y-72108287D01*
X126469857Y-72108287D02*
X126755571Y-72108287D01*
X126755571Y-72108287D02*
X126869857Y-72165430D01*
X126869857Y-72165430D02*
X126927000Y-72222573D01*
X126927000Y-72222573D02*
X126984142Y-72336858D01*
X126984142Y-72336858D02*
X126984142Y-72679715D01*
X126984142Y-72679715D02*
X126927000Y-72794001D01*
X126927000Y-72794001D02*
X126869857Y-72851144D01*
D11*
X126623619Y-57086571D02*
X125623619Y-57086571D01*
X125623619Y-57086571D02*
X125623619Y-56848476D01*
X125623619Y-56848476D02*
X125671238Y-56705619D01*
X125671238Y-56705619D02*
X125766476Y-56610381D01*
X125766476Y-56610381D02*
X125861714Y-56562762D01*
X125861714Y-56562762D02*
X126052190Y-56515143D01*
X126052190Y-56515143D02*
X126195047Y-56515143D01*
X126195047Y-56515143D02*
X126385523Y-56562762D01*
X126385523Y-56562762D02*
X126480761Y-56610381D01*
X126480761Y-56610381D02*
X126576000Y-56705619D01*
X126576000Y-56705619D02*
X126623619Y-56848476D01*
X126623619Y-56848476D02*
X126623619Y-57086571D01*
X126337904Y-56134190D02*
X126337904Y-55658000D01*
X126623619Y-56229428D02*
X125623619Y-55896095D01*
X125623619Y-55896095D02*
X126623619Y-55562762D01*
X125623619Y-55372285D02*
X125623619Y-54800857D01*
X126623619Y-55086571D02*
X125623619Y-55086571D01*
X126337904Y-54515142D02*
X126337904Y-54038952D01*
X126623619Y-54610380D02*
X125623619Y-54277047D01*
X125623619Y-54277047D02*
X126623619Y-53943714D01*
X128139809Y-57086571D02*
X128187428Y-56943714D01*
X128187428Y-56943714D02*
X128235047Y-56896095D01*
X128235047Y-56896095D02*
X128330285Y-56848476D01*
X128330285Y-56848476D02*
X128473142Y-56848476D01*
X128473142Y-56848476D02*
X128568380Y-56896095D01*
X128568380Y-56896095D02*
X128616000Y-56943714D01*
X128616000Y-56943714D02*
X128663619Y-57038952D01*
X128663619Y-57038952D02*
X128663619Y-57419904D01*
X128663619Y-57419904D02*
X127663619Y-57419904D01*
X127663619Y-57419904D02*
X127663619Y-57086571D01*
X127663619Y-57086571D02*
X127711238Y-56991333D01*
X127711238Y-56991333D02*
X127758857Y-56943714D01*
X127758857Y-56943714D02*
X127854095Y-56896095D01*
X127854095Y-56896095D02*
X127949333Y-56896095D01*
X127949333Y-56896095D02*
X128044571Y-56943714D01*
X128044571Y-56943714D02*
X128092190Y-56991333D01*
X128092190Y-56991333D02*
X128139809Y-57086571D01*
X128139809Y-57086571D02*
X128139809Y-57419904D01*
X128568380Y-55848476D02*
X128616000Y-55896095D01*
X128616000Y-55896095D02*
X128663619Y-56038952D01*
X128663619Y-56038952D02*
X128663619Y-56134190D01*
X128663619Y-56134190D02*
X128616000Y-56277047D01*
X128616000Y-56277047D02*
X128520761Y-56372285D01*
X128520761Y-56372285D02*
X128425523Y-56419904D01*
X128425523Y-56419904D02*
X128235047Y-56467523D01*
X128235047Y-56467523D02*
X128092190Y-56467523D01*
X128092190Y-56467523D02*
X127901714Y-56419904D01*
X127901714Y-56419904D02*
X127806476Y-56372285D01*
X127806476Y-56372285D02*
X127711238Y-56277047D01*
X127711238Y-56277047D02*
X127663619Y-56134190D01*
X127663619Y-56134190D02*
X127663619Y-56038952D01*
X127663619Y-56038952D02*
X127711238Y-55896095D01*
X127711238Y-55896095D02*
X127758857Y-55848476D01*
X128663619Y-54943714D02*
X128663619Y-55419904D01*
X128663619Y-55419904D02*
X127663619Y-55419904D01*
X128663619Y-54610380D02*
X127663619Y-54610380D01*
X128663619Y-54038952D02*
X128092190Y-54467523D01*
X127663619Y-54038952D02*
X128235047Y-54610380D01*
X123591619Y-55800856D02*
X124591619Y-55562761D01*
X124591619Y-55562761D02*
X123877333Y-55372285D01*
X123877333Y-55372285D02*
X124591619Y-55181809D01*
X124591619Y-55181809D02*
X123591619Y-54943714D01*
X124544000Y-54610380D02*
X124591619Y-54467523D01*
X124591619Y-54467523D02*
X124591619Y-54229428D01*
X124591619Y-54229428D02*
X124544000Y-54134190D01*
X124544000Y-54134190D02*
X124496380Y-54086571D01*
X124496380Y-54086571D02*
X124401142Y-54038952D01*
X124401142Y-54038952D02*
X124305904Y-54038952D01*
X124305904Y-54038952D02*
X124210666Y-54086571D01*
X124210666Y-54086571D02*
X124163047Y-54134190D01*
X124163047Y-54134190D02*
X124115428Y-54229428D01*
X124115428Y-54229428D02*
X124067809Y-54419904D01*
X124067809Y-54419904D02*
X124020190Y-54515142D01*
X124020190Y-54515142D02*
X123972571Y-54562761D01*
X123972571Y-54562761D02*
X123877333Y-54610380D01*
X123877333Y-54610380D02*
X123782095Y-54610380D01*
X123782095Y-54610380D02*
X123686857Y-54562761D01*
X123686857Y-54562761D02*
X123639238Y-54515142D01*
X123639238Y-54515142D02*
X123591619Y-54419904D01*
X123591619Y-54419904D02*
X123591619Y-54181809D01*
X123591619Y-54181809D02*
X123639238Y-54038952D01*
D12*
X124401181Y-133080633D02*
X123918752Y-133080633D01*
X123918752Y-133080633D02*
X124263344Y-132919824D01*
X124263344Y-132919824D02*
X123918752Y-132759014D01*
X123918752Y-132759014D02*
X124401181Y-132759014D01*
X124401181Y-132529286D02*
X123918752Y-132529286D01*
X124401181Y-132253613D02*
X124125508Y-132460368D01*
X123918752Y-132253613D02*
X124194426Y-132529286D01*
X123964698Y-132069830D02*
X123941725Y-132046857D01*
X123941725Y-132046857D02*
X123918752Y-132000912D01*
X123918752Y-132000912D02*
X123918752Y-131886048D01*
X123918752Y-131886048D02*
X123941725Y-131840102D01*
X123941725Y-131840102D02*
X123964698Y-131817129D01*
X123964698Y-131817129D02*
X124010644Y-131794157D01*
X124010644Y-131794157D02*
X124056589Y-131794157D01*
X124056589Y-131794157D02*
X124125508Y-131817129D01*
X124125508Y-131817129D02*
X124401181Y-132092803D01*
X124401181Y-132092803D02*
X124401181Y-131794157D01*
X124217399Y-131587401D02*
X124217399Y-131219837D01*
X124401181Y-130990108D02*
X124079562Y-130990108D01*
X124171453Y-130990108D02*
X124125508Y-130967136D01*
X124125508Y-130967136D02*
X124102535Y-130944163D01*
X124102535Y-130944163D02*
X124079562Y-130898217D01*
X124079562Y-130898217D02*
X124079562Y-130852272D01*
X124401181Y-130691461D02*
X124079562Y-130691461D01*
X123918752Y-130691461D02*
X123941725Y-130714434D01*
X123941725Y-130714434D02*
X123964698Y-130691461D01*
X123964698Y-130691461D02*
X123941725Y-130668489D01*
X123941725Y-130668489D02*
X123918752Y-130691461D01*
X123918752Y-130691461D02*
X123964698Y-130691461D01*
X124079562Y-130254978D02*
X124470100Y-130254978D01*
X124470100Y-130254978D02*
X124516045Y-130277951D01*
X124516045Y-130277951D02*
X124539018Y-130300924D01*
X124539018Y-130300924D02*
X124561991Y-130346869D01*
X124561991Y-130346869D02*
X124561991Y-130415788D01*
X124561991Y-130415788D02*
X124539018Y-130461733D01*
X124378209Y-130254978D02*
X124401181Y-130300924D01*
X124401181Y-130300924D02*
X124401181Y-130392815D01*
X124401181Y-130392815D02*
X124378209Y-130438761D01*
X124378209Y-130438761D02*
X124355236Y-130461733D01*
X124355236Y-130461733D02*
X124309290Y-130484706D01*
X124309290Y-130484706D02*
X124171453Y-130484706D01*
X124171453Y-130484706D02*
X124125508Y-130461733D01*
X124125508Y-130461733D02*
X124102535Y-130438761D01*
X124102535Y-130438761D02*
X124079562Y-130392815D01*
X124079562Y-130392815D02*
X124079562Y-130300924D01*
X124079562Y-130300924D02*
X124102535Y-130254978D01*
X124401181Y-130025250D02*
X123918752Y-130025250D01*
X124401181Y-129818495D02*
X124148480Y-129818495D01*
X124148480Y-129818495D02*
X124102535Y-129841468D01*
X124102535Y-129841468D02*
X124079562Y-129887414D01*
X124079562Y-129887414D02*
X124079562Y-129956332D01*
X124079562Y-129956332D02*
X124102535Y-130002278D01*
X124102535Y-130002278D02*
X124125508Y-130025250D01*
X124079562Y-129657686D02*
X124079562Y-129473903D01*
X123918752Y-129588767D02*
X124332263Y-129588767D01*
X124332263Y-129588767D02*
X124378209Y-129565795D01*
X124378209Y-129565795D02*
X124401181Y-129519849D01*
X124401181Y-129519849D02*
X124401181Y-129473903D01*
X124401181Y-129060393D02*
X124401181Y-129336066D01*
X124401181Y-129198229D02*
X123918752Y-129198229D01*
X123918752Y-129198229D02*
X123987671Y-129244175D01*
X123987671Y-129244175D02*
X124033616Y-129290121D01*
X124033616Y-129290121D02*
X124056589Y-129336066D01*
D11*
X128891380Y-129736666D02*
X128939000Y-129784285D01*
X128939000Y-129784285D02*
X128986619Y-129927142D01*
X128986619Y-129927142D02*
X128986619Y-130022380D01*
X128986619Y-130022380D02*
X128939000Y-130165237D01*
X128939000Y-130165237D02*
X128843761Y-130260475D01*
X128843761Y-130260475D02*
X128748523Y-130308094D01*
X128748523Y-130308094D02*
X128558047Y-130355713D01*
X128558047Y-130355713D02*
X128415190Y-130355713D01*
X128415190Y-130355713D02*
X128224714Y-130308094D01*
X128224714Y-130308094D02*
X128129476Y-130260475D01*
X128129476Y-130260475D02*
X128034238Y-130165237D01*
X128034238Y-130165237D02*
X127986619Y-130022380D01*
X127986619Y-130022380D02*
X127986619Y-129927142D01*
X127986619Y-129927142D02*
X128034238Y-129784285D01*
X128034238Y-129784285D02*
X128081857Y-129736666D01*
X128415190Y-129165237D02*
X128367571Y-129260475D01*
X128367571Y-129260475D02*
X128319952Y-129308094D01*
X128319952Y-129308094D02*
X128224714Y-129355713D01*
X128224714Y-129355713D02*
X128177095Y-129355713D01*
X128177095Y-129355713D02*
X128081857Y-129308094D01*
X128081857Y-129308094D02*
X128034238Y-129260475D01*
X128034238Y-129260475D02*
X127986619Y-129165237D01*
X127986619Y-129165237D02*
X127986619Y-128974761D01*
X127986619Y-128974761D02*
X128034238Y-128879523D01*
X128034238Y-128879523D02*
X128081857Y-128831904D01*
X128081857Y-128831904D02*
X128177095Y-128784285D01*
X128177095Y-128784285D02*
X128224714Y-128784285D01*
X128224714Y-128784285D02*
X128319952Y-128831904D01*
X128319952Y-128831904D02*
X128367571Y-128879523D01*
X128367571Y-128879523D02*
X128415190Y-128974761D01*
X128415190Y-128974761D02*
X128415190Y-129165237D01*
X128415190Y-129165237D02*
X128462809Y-129260475D01*
X128462809Y-129260475D02*
X128510428Y-129308094D01*
X128510428Y-129308094D02*
X128605666Y-129355713D01*
X128605666Y-129355713D02*
X128796142Y-129355713D01*
X128796142Y-129355713D02*
X128891380Y-129308094D01*
X128891380Y-129308094D02*
X128939000Y-129260475D01*
X128939000Y-129260475D02*
X128986619Y-129165237D01*
X128986619Y-129165237D02*
X128986619Y-128974761D01*
X128986619Y-128974761D02*
X128939000Y-128879523D01*
X128939000Y-128879523D02*
X128891380Y-128831904D01*
X128891380Y-128831904D02*
X128796142Y-128784285D01*
X128796142Y-128784285D02*
X128605666Y-128784285D01*
X128605666Y-128784285D02*
X128510428Y-128831904D01*
X128510428Y-128831904D02*
X128462809Y-128879523D01*
X128462809Y-128879523D02*
X128415190Y-128974761D01*
X125202619Y-124910666D02*
X124726428Y-125243999D01*
X125202619Y-125482094D02*
X124202619Y-125482094D01*
X124202619Y-125482094D02*
X124202619Y-125101142D01*
X124202619Y-125101142D02*
X124250238Y-125005904D01*
X124250238Y-125005904D02*
X124297857Y-124958285D01*
X124297857Y-124958285D02*
X124393095Y-124910666D01*
X124393095Y-124910666D02*
X124535952Y-124910666D01*
X124535952Y-124910666D02*
X124631190Y-124958285D01*
X124631190Y-124958285D02*
X124678809Y-125005904D01*
X124678809Y-125005904D02*
X124726428Y-125101142D01*
X124726428Y-125101142D02*
X124726428Y-125482094D01*
X125202619Y-124434475D02*
X125202619Y-124243999D01*
X125202619Y-124243999D02*
X125155000Y-124148761D01*
X125155000Y-124148761D02*
X125107380Y-124101142D01*
X125107380Y-124101142D02*
X124964523Y-124005904D01*
X124964523Y-124005904D02*
X124774047Y-123958285D01*
X124774047Y-123958285D02*
X124393095Y-123958285D01*
X124393095Y-123958285D02*
X124297857Y-124005904D01*
X124297857Y-124005904D02*
X124250238Y-124053523D01*
X124250238Y-124053523D02*
X124202619Y-124148761D01*
X124202619Y-124148761D02*
X124202619Y-124339237D01*
X124202619Y-124339237D02*
X124250238Y-124434475D01*
X124250238Y-124434475D02*
X124297857Y-124482094D01*
X124297857Y-124482094D02*
X124393095Y-124529713D01*
X124393095Y-124529713D02*
X124631190Y-124529713D01*
X124631190Y-124529713D02*
X124726428Y-124482094D01*
X124726428Y-124482094D02*
X124774047Y-124434475D01*
X124774047Y-124434475D02*
X124821666Y-124339237D01*
X124821666Y-124339237D02*
X124821666Y-124148761D01*
X124821666Y-124148761D02*
X124774047Y-124053523D01*
X124774047Y-124053523D02*
X124726428Y-124005904D01*
X124726428Y-124005904D02*
X124631190Y-123958285D01*
X126611142Y-125589380D02*
X126563523Y-125637000D01*
X126563523Y-125637000D02*
X126420666Y-125684619D01*
X126420666Y-125684619D02*
X126325428Y-125684619D01*
X126325428Y-125684619D02*
X126182571Y-125637000D01*
X126182571Y-125637000D02*
X126087333Y-125541761D01*
X126087333Y-125541761D02*
X126039714Y-125446523D01*
X126039714Y-125446523D02*
X125992095Y-125256047D01*
X125992095Y-125256047D02*
X125992095Y-125113190D01*
X125992095Y-125113190D02*
X126039714Y-124922714D01*
X126039714Y-124922714D02*
X126087333Y-124827476D01*
X126087333Y-124827476D02*
X126182571Y-124732238D01*
X126182571Y-124732238D02*
X126325428Y-124684619D01*
X126325428Y-124684619D02*
X126420666Y-124684619D01*
X126420666Y-124684619D02*
X126563523Y-124732238D01*
X126563523Y-124732238D02*
X126611142Y-124779857D01*
X127563523Y-125684619D02*
X126992095Y-125684619D01*
X127277809Y-125684619D02*
X127277809Y-124684619D01*
X127277809Y-124684619D02*
X127182571Y-124827476D01*
X127182571Y-124827476D02*
X127087333Y-124922714D01*
X127087333Y-124922714D02*
X126992095Y-124970333D01*
X128182571Y-124684619D02*
X128277809Y-124684619D01*
X128277809Y-124684619D02*
X128373047Y-124732238D01*
X128373047Y-124732238D02*
X128420666Y-124779857D01*
X128420666Y-124779857D02*
X128468285Y-124875095D01*
X128468285Y-124875095D02*
X128515904Y-125065571D01*
X128515904Y-125065571D02*
X128515904Y-125303666D01*
X128515904Y-125303666D02*
X128468285Y-125494142D01*
X128468285Y-125494142D02*
X128420666Y-125589380D01*
X128420666Y-125589380D02*
X128373047Y-125637000D01*
X128373047Y-125637000D02*
X128277809Y-125684619D01*
X128277809Y-125684619D02*
X128182571Y-125684619D01*
X128182571Y-125684619D02*
X128087333Y-125637000D01*
X128087333Y-125637000D02*
X128039714Y-125589380D01*
X128039714Y-125589380D02*
X127992095Y-125494142D01*
X127992095Y-125494142D02*
X127944476Y-125303666D01*
X127944476Y-125303666D02*
X127944476Y-125065571D01*
X127944476Y-125065571D02*
X127992095Y-124875095D01*
X127992095Y-124875095D02*
X128039714Y-124779857D01*
X128039714Y-124779857D02*
X128087333Y-124732238D01*
X128087333Y-124732238D02*
X128182571Y-124684619D01*
D13*
X124921000Y-132858000D02*
X124921000Y-131118000D01*
X127571000Y-131118000D02*
X127571000Y-132858000D01*
X127571000Y-132858000D02*
X124921000Y-132858000D01*
D14*
X124718000Y-129586000D02*
G75*
G03*
X124718000Y-129586000I-50000J0D01*
G01*
D15*
X127372267Y-128544000D02*
X127079733Y-128544000D01*
X127372267Y-127524000D02*
X127079733Y-127524000D01*
X124191500Y-127368724D02*
X124191500Y-126859276D01*
X125236500Y-127368724D02*
X125236500Y-126859276D01*
X127372267Y-127020000D02*
X127079733Y-127020000D01*
X127372267Y-126000000D02*
X127079733Y-126000000D01*
%LPC*%
D16*
X126702000Y-131818000D02*
G75*
G03*
X126702000Y-131818000I-456000J0D01*
G01*
D17*
X128346000Y-51818000D03*
X126246000Y-51818000D03*
X124146000Y-51818000D03*
D18*
X126246000Y-131818000D03*
D19*
X125346000Y-129744000D03*
X125346000Y-130566000D03*
X127146000Y-130566000D03*
X127146000Y-129744000D03*
X126246000Y-129744000D03*
D20*
X128088500Y-128034000D03*
X126363500Y-128034000D03*
D21*
X124714000Y-128026500D03*
X124714000Y-126201500D03*
D20*
X128088500Y-126510000D03*
X126363500Y-126510000D03*
M02*
