G04 #@! TF.GenerationSoftware,KiCad,Pcbnew,7.0.1-3b83917a11~172~ubuntu22.04.1*
G04 #@! TF.CreationDate,2023-04-18T09:55:19+02:00*
G04 #@! TF.ProjectId,part1,70617274-312e-46b6-9963-61645f706362,rev?*
G04 #@! TF.SameCoordinates,Original*
G04 #@! TF.FileFunction,Copper,L2,Bot*
G04 #@! TF.FilePolarity,Positive*
%FSLAX46Y46*%
G04 Gerber Fmt 4.6, Leading zero omitted, Abs format (unit mm)*
G04 Created by KiCad (PCBNEW 7.0.1-3b83917a11~172~ubuntu22.04.1) date 2023-04-18 09:55:19*
%MOMM*%
%LPD*%
G01*
G04 APERTURE LIST*
G04 #@! TA.AperFunction,SMDPad,CuDef*
%ADD10R,2.400000X4.000000*%
G04 #@! TD*
G04 #@! TA.AperFunction,ViaPad*
%ADD11C,0.600000*%
G04 #@! TD*
G04 #@! TA.AperFunction,Conductor*
%ADD12C,0.250000*%
G04 #@! TD*
G04 APERTURE END LIST*
D10*
X124446000Y-51818000D03*
X128046000Y-51818000D03*
D11*
X125730000Y-124206000D03*
X125730000Y-127254000D03*
X124206000Y-130302000D03*
X128270000Y-123952000D03*
D12*
X125222000Y-128778000D02*
X125730000Y-128270000D01*
X124206000Y-130302000D02*
X124206000Y-129794000D01*
X124206000Y-129794000D02*
X125222000Y-128778000D01*
X123698000Y-122174000D02*
X123698000Y-52566000D01*
X125730000Y-128270000D02*
X125730000Y-127254000D01*
X125730000Y-124206000D02*
X123698000Y-122174000D01*
X123698000Y-52566000D02*
X124446000Y-51818000D01*
X128270000Y-123952000D02*
X128778000Y-123444000D01*
X128778000Y-123444000D02*
X128778000Y-52550000D01*
X128778000Y-52550000D02*
X128046000Y-51818000D01*
G04 #@! TA.AperFunction,NonConductor*
G36*
X126333067Y-53914547D02*
G01*
X126366717Y-53963757D01*
X126402647Y-54060088D01*
X126488811Y-54175188D01*
X126603910Y-54261352D01*
X126738624Y-54311597D01*
X126798176Y-54318000D01*
X129121500Y-54318000D01*
X129183500Y-54334613D01*
X129228887Y-54380000D01*
X129245500Y-54442000D01*
X129245500Y-131814519D01*
X129245305Y-131821472D01*
X129232034Y-132057769D01*
X129232019Y-132058026D01*
X129226732Y-132148805D01*
X129225190Y-132162366D01*
X129193109Y-132351178D01*
X129192977Y-132351939D01*
X129169222Y-132486662D01*
X129166260Y-132499457D01*
X129115791Y-132674640D01*
X129115427Y-132675877D01*
X129073556Y-132815733D01*
X129069327Y-132827622D01*
X129001045Y-132992469D01*
X129000343Y-132994129D01*
X128941006Y-133131689D01*
X128935675Y-133142557D01*
X128850396Y-133296857D01*
X128849255Y-133298876D01*
X128773292Y-133430448D01*
X128767034Y-133440203D01*
X128665818Y-133582853D01*
X128664153Y-133585145D01*
X128572617Y-133708100D01*
X128565613Y-133716680D01*
X128449662Y-133846430D01*
X128447396Y-133848897D01*
X128341617Y-133961015D01*
X128334050Y-133968380D01*
X128204786Y-134083898D01*
X128201865Y-134086429D01*
X128083296Y-134185920D01*
X128075345Y-134192060D01*
X127934328Y-134292117D01*
X127930711Y-134294588D01*
X127801044Y-134379870D01*
X127792888Y-134384796D01*
X127641868Y-134468263D01*
X127637537Y-134470547D01*
X127498545Y-134540351D01*
X127490346Y-134544101D01*
X127331149Y-134610042D01*
X127326108Y-134612003D01*
X127179770Y-134665267D01*
X127171686Y-134667899D01*
X127006242Y-134715562D01*
X127000511Y-134717066D01*
X126848840Y-134753012D01*
X126841015Y-134754602D01*
X126671414Y-134783419D01*
X126665038Y-134784333D01*
X126510100Y-134802442D01*
X126502659Y-134803085D01*
X126334540Y-134812527D01*
X126330955Y-134812729D01*
X126324003Y-134812924D01*
X126167997Y-134812924D01*
X126161044Y-134812729D01*
X126157174Y-134812511D01*
X125989339Y-134803085D01*
X125981898Y-134802442D01*
X125826960Y-134784333D01*
X125820584Y-134783419D01*
X125650983Y-134754602D01*
X125643158Y-134753012D01*
X125491487Y-134717066D01*
X125485756Y-134715562D01*
X125320312Y-134667899D01*
X125312228Y-134665267D01*
X125165890Y-134612003D01*
X125160849Y-134610042D01*
X125001652Y-134544101D01*
X124993453Y-134540351D01*
X124854461Y-134470547D01*
X124850130Y-134468263D01*
X124699110Y-134384796D01*
X124690954Y-134379870D01*
X124561287Y-134294588D01*
X124557670Y-134292117D01*
X124416653Y-134192060D01*
X124408702Y-134185920D01*
X124290133Y-134086429D01*
X124287212Y-134083898D01*
X124157948Y-133968380D01*
X124150381Y-133961015D01*
X124103770Y-133911610D01*
X124044575Y-133848868D01*
X124042363Y-133846460D01*
X123926385Y-133716680D01*
X123919381Y-133708100D01*
X123827845Y-133585145D01*
X123826180Y-133582853D01*
X123724964Y-133440203D01*
X123718712Y-133430458D01*
X123642731Y-133298856D01*
X123641602Y-133296857D01*
X123556317Y-133142546D01*
X123550998Y-133131701D01*
X123491640Y-132994094D01*
X123490953Y-132992469D01*
X123422671Y-132827622D01*
X123418442Y-132815733D01*
X123376571Y-132675877D01*
X123376258Y-132674814D01*
X123325734Y-132499443D01*
X123322779Y-132486674D01*
X123298984Y-132351728D01*
X123298937Y-132351458D01*
X123266805Y-132162345D01*
X123265268Y-132148823D01*
X123259965Y-132057769D01*
X123250541Y-131889961D01*
X125745500Y-131889961D01*
X125786047Y-132028053D01*
X125863661Y-132148823D01*
X125863858Y-132149129D01*
X125972625Y-132243376D01*
X126103542Y-132303165D01*
X126210201Y-132318500D01*
X126281799Y-132318500D01*
X126388457Y-132303165D01*
X126388457Y-132303164D01*
X126519373Y-132243377D01*
X126628143Y-132149128D01*
X126705953Y-132028053D01*
X126746500Y-131889961D01*
X126746500Y-131746039D01*
X126705953Y-131607947D01*
X126628143Y-131486872D01*
X126628141Y-131486870D01*
X126519374Y-131392623D01*
X126388457Y-131332834D01*
X126281799Y-131317500D01*
X126210201Y-131317500D01*
X126103542Y-131332834D01*
X125972625Y-131392623D01*
X125863858Y-131486870D01*
X125863856Y-131486872D01*
X125863857Y-131486872D01*
X125786047Y-131607947D01*
X125745500Y-131746039D01*
X125745500Y-131889961D01*
X123250541Y-131889961D01*
X123246695Y-131821472D01*
X123246500Y-131814519D01*
X123246500Y-130725024D01*
X123262652Y-130663829D01*
X123306900Y-130618576D01*
X123367717Y-130601055D01*
X123429259Y-130615830D01*
X123475493Y-130659051D01*
X123569889Y-130809281D01*
X123698719Y-130938111D01*
X123852985Y-131035043D01*
X124024953Y-131095217D01*
X124206000Y-131115616D01*
X124387047Y-131095217D01*
X124559015Y-131035043D01*
X124713281Y-130938111D01*
X124842111Y-130809281D01*
X124939043Y-130655015D01*
X124999217Y-130483047D01*
X125019616Y-130302000D01*
X124999217Y-130120953D01*
X124966816Y-130028358D01*
X124962967Y-129959814D01*
X124996175Y-129899727D01*
X125698135Y-129197770D01*
X125698136Y-129197767D01*
X125708925Y-129186979D01*
X125708928Y-129186975D01*
X126118816Y-128777086D01*
X126135097Y-128764044D01*
X126137014Y-128762002D01*
X126137018Y-128762000D01*
X126183706Y-128712279D01*
X126186323Y-128709579D01*
X126206134Y-128689770D01*
X126208672Y-128686497D01*
X126216241Y-128677634D01*
X126246586Y-128645321D01*
X126256422Y-128627427D01*
X126267102Y-128611168D01*
X126279613Y-128595041D01*
X126297211Y-128554372D01*
X126302341Y-128543900D01*
X126323695Y-128505060D01*
X126328772Y-128485282D01*
X126335074Y-128466878D01*
X126343181Y-128448145D01*
X126350112Y-128404375D01*
X126352475Y-128392966D01*
X126363500Y-128350030D01*
X126363500Y-128329609D01*
X126365027Y-128310210D01*
X126368219Y-128290057D01*
X126364050Y-128245951D01*
X126363500Y-128234282D01*
X126363500Y-127801160D01*
X126382506Y-127735188D01*
X126463043Y-127607015D01*
X126523217Y-127435047D01*
X126543616Y-127254000D01*
X126523217Y-127072953D01*
X126463043Y-126900985D01*
X126366111Y-126746719D01*
X126237281Y-126617889D01*
X126083015Y-126520957D01*
X125911047Y-126460783D01*
X125911046Y-126460782D01*
X125911044Y-126460782D01*
X125730000Y-126440383D01*
X125548955Y-126460782D01*
X125376984Y-126520957D01*
X125222717Y-126617890D01*
X125093890Y-126746717D01*
X124996957Y-126900984D01*
X124936782Y-127072955D01*
X124916383Y-127253999D01*
X124936782Y-127435044D01*
X124996957Y-127607015D01*
X125077494Y-127735188D01*
X125096500Y-127801160D01*
X125096500Y-127956233D01*
X125087061Y-128003686D01*
X125060181Y-128043914D01*
X124745861Y-128358234D01*
X123817182Y-129286912D01*
X123800901Y-129299955D01*
X123752338Y-129351669D01*
X123749632Y-129354462D01*
X123729861Y-129374233D01*
X123727321Y-129377508D01*
X123719752Y-129386369D01*
X123689414Y-129418677D01*
X123679582Y-129436563D01*
X123668901Y-129452823D01*
X123656385Y-129468959D01*
X123638786Y-129509628D01*
X123633648Y-129520117D01*
X123612303Y-129558943D01*
X123607226Y-129578718D01*
X123600925Y-129597123D01*
X123592818Y-129615856D01*
X123585888Y-129659610D01*
X123583520Y-129671046D01*
X123572500Y-129713970D01*
X123572500Y-129734385D01*
X123570973Y-129753786D01*
X123566641Y-129781132D01*
X123549163Y-129827702D01*
X123475493Y-129944948D01*
X123429261Y-129988169D01*
X123367719Y-130002945D01*
X123306901Y-129985424D01*
X123262652Y-129940171D01*
X123246500Y-129878976D01*
X123246500Y-122917766D01*
X123260015Y-122861471D01*
X123297615Y-122817448D01*
X123351102Y-122795293D01*
X123408818Y-122799835D01*
X123458180Y-122830084D01*
X124197984Y-123569889D01*
X124896151Y-124268056D01*
X124920190Y-124301935D01*
X124931690Y-124341852D01*
X124936782Y-124387044D01*
X124936782Y-124387046D01*
X124936783Y-124387047D01*
X124996957Y-124559015D01*
X125093889Y-124713281D01*
X125222719Y-124842111D01*
X125376985Y-124939043D01*
X125548953Y-124999217D01*
X125730000Y-125019616D01*
X125911047Y-124999217D01*
X126083015Y-124939043D01*
X126237281Y-124842111D01*
X126366111Y-124713281D01*
X126463043Y-124559015D01*
X126523217Y-124387047D01*
X126543616Y-124206000D01*
X126523217Y-124024953D01*
X126463043Y-123852985D01*
X126366111Y-123698719D01*
X126237281Y-123569889D01*
X126083015Y-123472957D01*
X125911047Y-123412783D01*
X125911046Y-123412782D01*
X125911044Y-123412782D01*
X125865852Y-123407690D01*
X125825935Y-123396190D01*
X125792056Y-123372151D01*
X124367819Y-121947914D01*
X124340939Y-121907686D01*
X124331500Y-121860233D01*
X124331500Y-120971273D01*
X124346668Y-120911846D01*
X124388460Y-120866958D01*
X124446654Y-120847589D01*
X124507011Y-120858479D01*
X124554767Y-120896962D01*
X124558773Y-120902313D01*
X124558774Y-120902315D01*
X124730261Y-121131395D01*
X124932605Y-121333739D01*
X125104414Y-121462354D01*
X125161686Y-121505227D01*
X125301435Y-121581535D01*
X125412839Y-121642367D01*
X125680954Y-121742369D01*
X125680957Y-121742369D01*
X125680958Y-121742370D01*
X125733217Y-121753738D01*
X125960572Y-121803196D01*
X126246000Y-121823610D01*
X126531428Y-121803196D01*
X126811046Y-121742369D01*
X127079161Y-121642367D01*
X127330315Y-121505226D01*
X127559395Y-121333739D01*
X127761739Y-121131395D01*
X127933226Y-120902315D01*
X128070367Y-120651161D01*
X128170369Y-120383046D01*
X128231196Y-120103428D01*
X128251610Y-119818000D01*
X128231196Y-119532572D01*
X128170369Y-119252954D01*
X128070367Y-118984839D01*
X127963109Y-118788411D01*
X127933227Y-118733686D01*
X127881605Y-118664727D01*
X127761739Y-118504605D01*
X127559395Y-118302261D01*
X127444855Y-118216517D01*
X127330313Y-118130772D01*
X127079163Y-117993634D01*
X127079162Y-117993633D01*
X127079161Y-117993633D01*
X126904123Y-117928347D01*
X126811041Y-117893629D01*
X126531429Y-117832804D01*
X126246000Y-117812389D01*
X125960570Y-117832804D01*
X125680958Y-117893629D01*
X125412836Y-117993634D01*
X125161686Y-118130772D01*
X124932602Y-118302263D01*
X124730263Y-118504602D01*
X124554767Y-118739038D01*
X124507011Y-118777521D01*
X124446654Y-118788411D01*
X124388460Y-118769042D01*
X124346668Y-118724154D01*
X124331500Y-118664727D01*
X124331500Y-65971273D01*
X124346668Y-65911846D01*
X124388460Y-65866958D01*
X124446654Y-65847589D01*
X124507011Y-65858479D01*
X124554767Y-65896962D01*
X124558773Y-65902313D01*
X124558774Y-65902315D01*
X124730261Y-66131395D01*
X124932605Y-66333739D01*
X125104415Y-66462354D01*
X125161686Y-66505227D01*
X125301435Y-66581535D01*
X125412839Y-66642367D01*
X125680954Y-66742369D01*
X125680957Y-66742369D01*
X125680958Y-66742370D01*
X125733217Y-66753738D01*
X125960572Y-66803196D01*
X126224012Y-66822037D01*
X126245999Y-66823610D01*
X126245999Y-66823609D01*
X126246000Y-66823610D01*
X126531428Y-66803196D01*
X126811046Y-66742369D01*
X127079161Y-66642367D01*
X127330315Y-66505226D01*
X127559395Y-66333739D01*
X127761739Y-66131395D01*
X127933226Y-65902315D01*
X128070367Y-65651161D01*
X128170369Y-65383046D01*
X128231196Y-65103428D01*
X128251610Y-64818000D01*
X128231196Y-64532572D01*
X128170369Y-64252954D01*
X128070367Y-63984839D01*
X127963109Y-63788411D01*
X127933227Y-63733686D01*
X127881605Y-63664727D01*
X127761739Y-63504605D01*
X127559395Y-63302261D01*
X127444855Y-63216517D01*
X127330313Y-63130772D01*
X127079163Y-62993634D01*
X127079162Y-62993633D01*
X127079161Y-62993633D01*
X126904123Y-62928347D01*
X126811041Y-62893629D01*
X126531429Y-62832804D01*
X126245999Y-62812389D01*
X125960570Y-62832804D01*
X125680958Y-62893629D01*
X125412836Y-62993634D01*
X125161686Y-63130772D01*
X124932602Y-63302263D01*
X124730263Y-63504602D01*
X124554767Y-63739038D01*
X124507011Y-63777521D01*
X124446654Y-63788411D01*
X124388460Y-63769042D01*
X124346668Y-63724154D01*
X124331500Y-63664727D01*
X124331500Y-54450500D01*
X124348113Y-54388500D01*
X124393500Y-54343113D01*
X124455500Y-54326500D01*
X125694634Y-54326500D01*
X125694638Y-54326500D01*
X125755201Y-54319989D01*
X125755203Y-54319988D01*
X125755205Y-54319988D01*
X125833124Y-54290924D01*
X125892204Y-54268889D01*
X126009261Y-54181261D01*
X126096889Y-54064204D01*
X126134355Y-53963753D01*
X126168002Y-53914547D01*
X126220727Y-53886727D01*
X126280342Y-53886727D01*
X126333067Y-53914547D01*
G37*
G04 #@! TD.AperFunction*
M02*
