%TF.GenerationSoftware,KiCad,Pcbnew,7.0.1-3b83917a11~172~ubuntu22.04.1*%
%TF.CreationDate,2023-04-18T09:55:43+02:00*%
%TF.ProjectId,part1,70617274-312e-46b6-9963-61645f706362,rev?*%
%TF.SameCoordinates,Original*%
%TF.FileFunction,Drillmap*%
%TF.FilePolarity,Positive*%
%FSLAX45Y45*%
G04 Gerber Fmt 4.5, Leading zero omitted, Abs format (unit mm)*
G04 Created by KiCad (PCBNEW 7.0.1-3b83917a11~172~ubuntu22.04.1) date 2023-04-18 09:55:43*
%MOMM*%
%LPD*%
G01*
G04 APERTURE LIST*
%ADD10C,0.100000*%
%ADD11C,0.200000*%
%ADD12C,0.050000*%
G04 APERTURE END LIST*
D10*
X12324600Y-13181800D02*
G75*
G03*
X12924600Y-13181800I300000J0D01*
G01*
X12324600Y-13181800D02*
X12324600Y-4981800D01*
X12824600Y-6481800D02*
G75*
G03*
X12824600Y-6481800I-200000J0D01*
G01*
X12824600Y-11981800D02*
G75*
G03*
X12824600Y-11981800I-200000J0D01*
G01*
X12924600Y-4981800D02*
X12924600Y-13181800D01*
X12324600Y-4981800D02*
X12924600Y-4981800D01*
D11*
D12*
X12599600Y-13156800D02*
X12649600Y-13206800D01*
X12649600Y-13156800D02*
X12599600Y-13206800D01*
D11*
X12567219Y-13799324D02*
X12567219Y-13599324D01*
X12567219Y-13599324D02*
X12614838Y-13599324D01*
X12614838Y-13599324D02*
X12643409Y-13608848D01*
X12643409Y-13608848D02*
X12662457Y-13627895D01*
X12662457Y-13627895D02*
X12671981Y-13646943D01*
X12671981Y-13646943D02*
X12681505Y-13685038D01*
X12681505Y-13685038D02*
X12681505Y-13713609D01*
X12681505Y-13713609D02*
X12671981Y-13751705D01*
X12671981Y-13751705D02*
X12662457Y-13770752D01*
X12662457Y-13770752D02*
X12643409Y-13789800D01*
X12643409Y-13789800D02*
X12614838Y-13799324D01*
X12614838Y-13799324D02*
X12567219Y-13799324D01*
X12767219Y-13799324D02*
X12767219Y-13665990D01*
X12767219Y-13704086D02*
X12776743Y-13685038D01*
X12776743Y-13685038D02*
X12786267Y-13675514D01*
X12786267Y-13675514D02*
X12805314Y-13665990D01*
X12805314Y-13665990D02*
X12824362Y-13665990D01*
X12891028Y-13799324D02*
X12891028Y-13665990D01*
X12891028Y-13599324D02*
X12881505Y-13608848D01*
X12881505Y-13608848D02*
X12891028Y-13618371D01*
X12891028Y-13618371D02*
X12900552Y-13608848D01*
X12900552Y-13608848D02*
X12891028Y-13599324D01*
X12891028Y-13599324D02*
X12891028Y-13618371D01*
X13014838Y-13799324D02*
X12995790Y-13789800D01*
X12995790Y-13789800D02*
X12986267Y-13770752D01*
X12986267Y-13770752D02*
X12986267Y-13599324D01*
X13119600Y-13799324D02*
X13100552Y-13789800D01*
X13100552Y-13789800D02*
X13091028Y-13770752D01*
X13091028Y-13770752D02*
X13091028Y-13599324D01*
X13348171Y-13799324D02*
X13348171Y-13599324D01*
X13348171Y-13599324D02*
X13414838Y-13742181D01*
X13414838Y-13742181D02*
X13481505Y-13599324D01*
X13481505Y-13599324D02*
X13481505Y-13799324D01*
X13662457Y-13799324D02*
X13662457Y-13694562D01*
X13662457Y-13694562D02*
X13652933Y-13675514D01*
X13652933Y-13675514D02*
X13633886Y-13665990D01*
X13633886Y-13665990D02*
X13595790Y-13665990D01*
X13595790Y-13665990D02*
X13576743Y-13675514D01*
X13662457Y-13789800D02*
X13643409Y-13799324D01*
X13643409Y-13799324D02*
X13595790Y-13799324D01*
X13595790Y-13799324D02*
X13576743Y-13789800D01*
X13576743Y-13789800D02*
X13567219Y-13770752D01*
X13567219Y-13770752D02*
X13567219Y-13751705D01*
X13567219Y-13751705D02*
X13576743Y-13732657D01*
X13576743Y-13732657D02*
X13595790Y-13723133D01*
X13595790Y-13723133D02*
X13643409Y-13723133D01*
X13643409Y-13723133D02*
X13662457Y-13713609D01*
X13757695Y-13665990D02*
X13757695Y-13865990D01*
X13757695Y-13675514D02*
X13776743Y-13665990D01*
X13776743Y-13665990D02*
X13814838Y-13665990D01*
X13814838Y-13665990D02*
X13833886Y-13675514D01*
X13833886Y-13675514D02*
X13843409Y-13685038D01*
X13843409Y-13685038D02*
X13852933Y-13704086D01*
X13852933Y-13704086D02*
X13852933Y-13761228D01*
X13852933Y-13761228D02*
X13843409Y-13780276D01*
X13843409Y-13780276D02*
X13833886Y-13789800D01*
X13833886Y-13789800D02*
X13814838Y-13799324D01*
X13814838Y-13799324D02*
X13776743Y-13799324D01*
X13776743Y-13799324D02*
X13757695Y-13789800D01*
X13938648Y-13780276D02*
X13948171Y-13789800D01*
X13948171Y-13789800D02*
X13938648Y-13799324D01*
X13938648Y-13799324D02*
X13929124Y-13789800D01*
X13929124Y-13789800D02*
X13938648Y-13780276D01*
X13938648Y-13780276D02*
X13938648Y-13799324D01*
X13938648Y-13675514D02*
X13948171Y-13685038D01*
X13948171Y-13685038D02*
X13938648Y-13694562D01*
X13938648Y-13694562D02*
X13929124Y-13685038D01*
X13929124Y-13685038D02*
X13938648Y-13675514D01*
X13938648Y-13675514D02*
X13938648Y-13694562D01*
D12*
X12269600Y-14101800D02*
X12319600Y-14151800D01*
X12319600Y-14101800D02*
X12269600Y-14151800D01*
D11*
X12605314Y-14019324D02*
X12624362Y-14019324D01*
X12624362Y-14019324D02*
X12643409Y-14028848D01*
X12643409Y-14028848D02*
X12652933Y-14038371D01*
X12652933Y-14038371D02*
X12662457Y-14057419D01*
X12662457Y-14057419D02*
X12671981Y-14095514D01*
X12671981Y-14095514D02*
X12671981Y-14143133D01*
X12671981Y-14143133D02*
X12662457Y-14181228D01*
X12662457Y-14181228D02*
X12652933Y-14200276D01*
X12652933Y-14200276D02*
X12643409Y-14209800D01*
X12643409Y-14209800D02*
X12624362Y-14219324D01*
X12624362Y-14219324D02*
X12605314Y-14219324D01*
X12605314Y-14219324D02*
X12586267Y-14209800D01*
X12586267Y-14209800D02*
X12576743Y-14200276D01*
X12576743Y-14200276D02*
X12567219Y-14181228D01*
X12567219Y-14181228D02*
X12557695Y-14143133D01*
X12557695Y-14143133D02*
X12557695Y-14095514D01*
X12557695Y-14095514D02*
X12567219Y-14057419D01*
X12567219Y-14057419D02*
X12576743Y-14038371D01*
X12576743Y-14038371D02*
X12586267Y-14028848D01*
X12586267Y-14028848D02*
X12605314Y-14019324D01*
X12757695Y-14200276D02*
X12767219Y-14209800D01*
X12767219Y-14209800D02*
X12757695Y-14219324D01*
X12757695Y-14219324D02*
X12748171Y-14209800D01*
X12748171Y-14209800D02*
X12757695Y-14200276D01*
X12757695Y-14200276D02*
X12757695Y-14219324D01*
X12948171Y-14019324D02*
X12852933Y-14019324D01*
X12852933Y-14019324D02*
X12843409Y-14114562D01*
X12843409Y-14114562D02*
X12852933Y-14105038D01*
X12852933Y-14105038D02*
X12871981Y-14095514D01*
X12871981Y-14095514D02*
X12919600Y-14095514D01*
X12919600Y-14095514D02*
X12938648Y-14105038D01*
X12938648Y-14105038D02*
X12948171Y-14114562D01*
X12948171Y-14114562D02*
X12957695Y-14133609D01*
X12957695Y-14133609D02*
X12957695Y-14181228D01*
X12957695Y-14181228D02*
X12948171Y-14200276D01*
X12948171Y-14200276D02*
X12938648Y-14209800D01*
X12938648Y-14209800D02*
X12919600Y-14219324D01*
X12919600Y-14219324D02*
X12871981Y-14219324D01*
X12871981Y-14219324D02*
X12852933Y-14209800D01*
X12852933Y-14209800D02*
X12843409Y-14200276D01*
X13081505Y-14019324D02*
X13100552Y-14019324D01*
X13100552Y-14019324D02*
X13119600Y-14028848D01*
X13119600Y-14028848D02*
X13129124Y-14038371D01*
X13129124Y-14038371D02*
X13138648Y-14057419D01*
X13138648Y-14057419D02*
X13148171Y-14095514D01*
X13148171Y-14095514D02*
X13148171Y-14143133D01*
X13148171Y-14143133D02*
X13138648Y-14181228D01*
X13138648Y-14181228D02*
X13129124Y-14200276D01*
X13129124Y-14200276D02*
X13119600Y-14209800D01*
X13119600Y-14209800D02*
X13100552Y-14219324D01*
X13100552Y-14219324D02*
X13081505Y-14219324D01*
X13081505Y-14219324D02*
X13062457Y-14209800D01*
X13062457Y-14209800D02*
X13052933Y-14200276D01*
X13052933Y-14200276D02*
X13043409Y-14181228D01*
X13043409Y-14181228D02*
X13033886Y-14143133D01*
X13033886Y-14143133D02*
X13033886Y-14095514D01*
X13033886Y-14095514D02*
X13043409Y-14057419D01*
X13043409Y-14057419D02*
X13052933Y-14038371D01*
X13052933Y-14038371D02*
X13062457Y-14028848D01*
X13062457Y-14028848D02*
X13081505Y-14019324D01*
X13271981Y-14019324D02*
X13291029Y-14019324D01*
X13291029Y-14019324D02*
X13310076Y-14028848D01*
X13310076Y-14028848D02*
X13319600Y-14038371D01*
X13319600Y-14038371D02*
X13329124Y-14057419D01*
X13329124Y-14057419D02*
X13338648Y-14095514D01*
X13338648Y-14095514D02*
X13338648Y-14143133D01*
X13338648Y-14143133D02*
X13329124Y-14181228D01*
X13329124Y-14181228D02*
X13319600Y-14200276D01*
X13319600Y-14200276D02*
X13310076Y-14209800D01*
X13310076Y-14209800D02*
X13291029Y-14219324D01*
X13291029Y-14219324D02*
X13271981Y-14219324D01*
X13271981Y-14219324D02*
X13252933Y-14209800D01*
X13252933Y-14209800D02*
X13243409Y-14200276D01*
X13243409Y-14200276D02*
X13233886Y-14181228D01*
X13233886Y-14181228D02*
X13224362Y-14143133D01*
X13224362Y-14143133D02*
X13224362Y-14095514D01*
X13224362Y-14095514D02*
X13233886Y-14057419D01*
X13233886Y-14057419D02*
X13243409Y-14038371D01*
X13243409Y-14038371D02*
X13252933Y-14028848D01*
X13252933Y-14028848D02*
X13271981Y-14019324D01*
X13424362Y-14219324D02*
X13424362Y-14085990D01*
X13424362Y-14105038D02*
X13433886Y-14095514D01*
X13433886Y-14095514D02*
X13452933Y-14085990D01*
X13452933Y-14085990D02*
X13481505Y-14085990D01*
X13481505Y-14085990D02*
X13500552Y-14095514D01*
X13500552Y-14095514D02*
X13510076Y-14114562D01*
X13510076Y-14114562D02*
X13510076Y-14219324D01*
X13510076Y-14114562D02*
X13519600Y-14095514D01*
X13519600Y-14095514D02*
X13538648Y-14085990D01*
X13538648Y-14085990D02*
X13567219Y-14085990D01*
X13567219Y-14085990D02*
X13586267Y-14095514D01*
X13586267Y-14095514D02*
X13595790Y-14114562D01*
X13595790Y-14114562D02*
X13595790Y-14219324D01*
X13691029Y-14219324D02*
X13691029Y-14085990D01*
X13691029Y-14105038D02*
X13700552Y-14095514D01*
X13700552Y-14095514D02*
X13719600Y-14085990D01*
X13719600Y-14085990D02*
X13748171Y-14085990D01*
X13748171Y-14085990D02*
X13767219Y-14095514D01*
X13767219Y-14095514D02*
X13776743Y-14114562D01*
X13776743Y-14114562D02*
X13776743Y-14219324D01*
X13776743Y-14114562D02*
X13786267Y-14095514D01*
X13786267Y-14095514D02*
X13805314Y-14085990D01*
X13805314Y-14085990D02*
X13833886Y-14085990D01*
X13833886Y-14085990D02*
X13852933Y-14095514D01*
X13852933Y-14095514D02*
X13862457Y-14114562D01*
X13862457Y-14114562D02*
X13862457Y-14219324D01*
X14252933Y-14009800D02*
X14081505Y-14266943D01*
X14510076Y-14019324D02*
X14529124Y-14019324D01*
X14529124Y-14019324D02*
X14548172Y-14028848D01*
X14548172Y-14028848D02*
X14557695Y-14038371D01*
X14557695Y-14038371D02*
X14567219Y-14057419D01*
X14567219Y-14057419D02*
X14576743Y-14095514D01*
X14576743Y-14095514D02*
X14576743Y-14143133D01*
X14576743Y-14143133D02*
X14567219Y-14181228D01*
X14567219Y-14181228D02*
X14557695Y-14200276D01*
X14557695Y-14200276D02*
X14548172Y-14209800D01*
X14548172Y-14209800D02*
X14529124Y-14219324D01*
X14529124Y-14219324D02*
X14510076Y-14219324D01*
X14510076Y-14219324D02*
X14491029Y-14209800D01*
X14491029Y-14209800D02*
X14481505Y-14200276D01*
X14481505Y-14200276D02*
X14471981Y-14181228D01*
X14471981Y-14181228D02*
X14462457Y-14143133D01*
X14462457Y-14143133D02*
X14462457Y-14095514D01*
X14462457Y-14095514D02*
X14471981Y-14057419D01*
X14471981Y-14057419D02*
X14481505Y-14038371D01*
X14481505Y-14038371D02*
X14491029Y-14028848D01*
X14491029Y-14028848D02*
X14510076Y-14019324D01*
X14662457Y-14200276D02*
X14671981Y-14209800D01*
X14671981Y-14209800D02*
X14662457Y-14219324D01*
X14662457Y-14219324D02*
X14652933Y-14209800D01*
X14652933Y-14209800D02*
X14662457Y-14200276D01*
X14662457Y-14200276D02*
X14662457Y-14219324D01*
X14795791Y-14019324D02*
X14814838Y-14019324D01*
X14814838Y-14019324D02*
X14833886Y-14028848D01*
X14833886Y-14028848D02*
X14843410Y-14038371D01*
X14843410Y-14038371D02*
X14852933Y-14057419D01*
X14852933Y-14057419D02*
X14862457Y-14095514D01*
X14862457Y-14095514D02*
X14862457Y-14143133D01*
X14862457Y-14143133D02*
X14852933Y-14181228D01*
X14852933Y-14181228D02*
X14843410Y-14200276D01*
X14843410Y-14200276D02*
X14833886Y-14209800D01*
X14833886Y-14209800D02*
X14814838Y-14219324D01*
X14814838Y-14219324D02*
X14795791Y-14219324D01*
X14795791Y-14219324D02*
X14776743Y-14209800D01*
X14776743Y-14209800D02*
X14767219Y-14200276D01*
X14767219Y-14200276D02*
X14757695Y-14181228D01*
X14757695Y-14181228D02*
X14748172Y-14143133D01*
X14748172Y-14143133D02*
X14748172Y-14095514D01*
X14748172Y-14095514D02*
X14757695Y-14057419D01*
X14757695Y-14057419D02*
X14767219Y-14038371D01*
X14767219Y-14038371D02*
X14776743Y-14028848D01*
X14776743Y-14028848D02*
X14795791Y-14019324D01*
X15052933Y-14219324D02*
X14938648Y-14219324D01*
X14995791Y-14219324D02*
X14995791Y-14019324D01*
X14995791Y-14019324D02*
X14976743Y-14047895D01*
X14976743Y-14047895D02*
X14957695Y-14066943D01*
X14957695Y-14066943D02*
X14938648Y-14076467D01*
X15148172Y-14219324D02*
X15186267Y-14219324D01*
X15186267Y-14219324D02*
X15205314Y-14209800D01*
X15205314Y-14209800D02*
X15214838Y-14200276D01*
X15214838Y-14200276D02*
X15233886Y-14171705D01*
X15233886Y-14171705D02*
X15243410Y-14133609D01*
X15243410Y-14133609D02*
X15243410Y-14057419D01*
X15243410Y-14057419D02*
X15233886Y-14038371D01*
X15233886Y-14038371D02*
X15224362Y-14028848D01*
X15224362Y-14028848D02*
X15205314Y-14019324D01*
X15205314Y-14019324D02*
X15167219Y-14019324D01*
X15167219Y-14019324D02*
X15148172Y-14028848D01*
X15148172Y-14028848D02*
X15138648Y-14038371D01*
X15138648Y-14038371D02*
X15129124Y-14057419D01*
X15129124Y-14057419D02*
X15129124Y-14105038D01*
X15129124Y-14105038D02*
X15138648Y-14124086D01*
X15138648Y-14124086D02*
X15148172Y-14133609D01*
X15148172Y-14133609D02*
X15167219Y-14143133D01*
X15167219Y-14143133D02*
X15205314Y-14143133D01*
X15205314Y-14143133D02*
X15224362Y-14133609D01*
X15224362Y-14133609D02*
X15233886Y-14124086D01*
X15233886Y-14124086D02*
X15243410Y-14105038D01*
X15310076Y-14019324D02*
X15443410Y-14019324D01*
X15443410Y-14019324D02*
X15357695Y-14219324D01*
X15510076Y-14019324D02*
X15510076Y-14057419D01*
X15586267Y-14019324D02*
X15586267Y-14057419D01*
X15881505Y-14295514D02*
X15871981Y-14285990D01*
X15871981Y-14285990D02*
X15852934Y-14257419D01*
X15852934Y-14257419D02*
X15843410Y-14238371D01*
X15843410Y-14238371D02*
X15833886Y-14209800D01*
X15833886Y-14209800D02*
X15824362Y-14162181D01*
X15824362Y-14162181D02*
X15824362Y-14124086D01*
X15824362Y-14124086D02*
X15833886Y-14076467D01*
X15833886Y-14076467D02*
X15843410Y-14047895D01*
X15843410Y-14047895D02*
X15852934Y-14028848D01*
X15852934Y-14028848D02*
X15871981Y-14000276D01*
X15871981Y-14000276D02*
X15881505Y-13990752D01*
X16062457Y-14219324D02*
X15948172Y-14219324D01*
X16005314Y-14219324D02*
X16005314Y-14019324D01*
X16005314Y-14019324D02*
X15986267Y-14047895D01*
X15986267Y-14047895D02*
X15967219Y-14066943D01*
X15967219Y-14066943D02*
X15948172Y-14076467D01*
X16300553Y-14219324D02*
X16300553Y-14019324D01*
X16386267Y-14219324D02*
X16386267Y-14114562D01*
X16386267Y-14114562D02*
X16376743Y-14095514D01*
X16376743Y-14095514D02*
X16357696Y-14085990D01*
X16357696Y-14085990D02*
X16329124Y-14085990D01*
X16329124Y-14085990D02*
X16310076Y-14095514D01*
X16310076Y-14095514D02*
X16300553Y-14105038D01*
X16510076Y-14219324D02*
X16491029Y-14209800D01*
X16491029Y-14209800D02*
X16481505Y-14200276D01*
X16481505Y-14200276D02*
X16471981Y-14181228D01*
X16471981Y-14181228D02*
X16471981Y-14124086D01*
X16471981Y-14124086D02*
X16481505Y-14105038D01*
X16481505Y-14105038D02*
X16491029Y-14095514D01*
X16491029Y-14095514D02*
X16510076Y-14085990D01*
X16510076Y-14085990D02*
X16538648Y-14085990D01*
X16538648Y-14085990D02*
X16557696Y-14095514D01*
X16557696Y-14095514D02*
X16567219Y-14105038D01*
X16567219Y-14105038D02*
X16576743Y-14124086D01*
X16576743Y-14124086D02*
X16576743Y-14181228D01*
X16576743Y-14181228D02*
X16567219Y-14200276D01*
X16567219Y-14200276D02*
X16557696Y-14209800D01*
X16557696Y-14209800D02*
X16538648Y-14219324D01*
X16538648Y-14219324D02*
X16510076Y-14219324D01*
X16691029Y-14219324D02*
X16671981Y-14209800D01*
X16671981Y-14209800D02*
X16662457Y-14190752D01*
X16662457Y-14190752D02*
X16662457Y-14019324D01*
X16843410Y-14209800D02*
X16824362Y-14219324D01*
X16824362Y-14219324D02*
X16786267Y-14219324D01*
X16786267Y-14219324D02*
X16767219Y-14209800D01*
X16767219Y-14209800D02*
X16757696Y-14190752D01*
X16757696Y-14190752D02*
X16757696Y-14114562D01*
X16757696Y-14114562D02*
X16767219Y-14095514D01*
X16767219Y-14095514D02*
X16786267Y-14085990D01*
X16786267Y-14085990D02*
X16824362Y-14085990D01*
X16824362Y-14085990D02*
X16843410Y-14095514D01*
X16843410Y-14095514D02*
X16852934Y-14114562D01*
X16852934Y-14114562D02*
X16852934Y-14133609D01*
X16852934Y-14133609D02*
X16757696Y-14152657D01*
X16919600Y-14295514D02*
X16929124Y-14285990D01*
X16929124Y-14285990D02*
X16948172Y-14257419D01*
X16948172Y-14257419D02*
X16957696Y-14238371D01*
X16957696Y-14238371D02*
X16967219Y-14209800D01*
X16967219Y-14209800D02*
X16976743Y-14162181D01*
X16976743Y-14162181D02*
X16976743Y-14124086D01*
X16976743Y-14124086D02*
X16967219Y-14076467D01*
X16967219Y-14076467D02*
X16957696Y-14047895D01*
X16957696Y-14047895D02*
X16948172Y-14028848D01*
X16948172Y-14028848D02*
X16929124Y-14000276D01*
X16929124Y-14000276D02*
X16919600Y-13990752D01*
X17281505Y-14295514D02*
X17271981Y-14285990D01*
X17271981Y-14285990D02*
X17252934Y-14257419D01*
X17252934Y-14257419D02*
X17243410Y-14238371D01*
X17243410Y-14238371D02*
X17233886Y-14209800D01*
X17233886Y-14209800D02*
X17224362Y-14162181D01*
X17224362Y-14162181D02*
X17224362Y-14124086D01*
X17224362Y-14124086D02*
X17233886Y-14076467D01*
X17233886Y-14076467D02*
X17243410Y-14047895D01*
X17243410Y-14047895D02*
X17252934Y-14028848D01*
X17252934Y-14028848D02*
X17271981Y-14000276D01*
X17271981Y-14000276D02*
X17281505Y-13990752D01*
X17357696Y-14085990D02*
X17357696Y-14219324D01*
X17357696Y-14105038D02*
X17367219Y-14095514D01*
X17367219Y-14095514D02*
X17386267Y-14085990D01*
X17386267Y-14085990D02*
X17414839Y-14085990D01*
X17414839Y-14085990D02*
X17433886Y-14095514D01*
X17433886Y-14095514D02*
X17443410Y-14114562D01*
X17443410Y-14114562D02*
X17443410Y-14219324D01*
X17567219Y-14219324D02*
X17548172Y-14209800D01*
X17548172Y-14209800D02*
X17538648Y-14200276D01*
X17538648Y-14200276D02*
X17529124Y-14181228D01*
X17529124Y-14181228D02*
X17529124Y-14124086D01*
X17529124Y-14124086D02*
X17538648Y-14105038D01*
X17538648Y-14105038D02*
X17548172Y-14095514D01*
X17548172Y-14095514D02*
X17567219Y-14085990D01*
X17567219Y-14085990D02*
X17595791Y-14085990D01*
X17595791Y-14085990D02*
X17614839Y-14095514D01*
X17614839Y-14095514D02*
X17624362Y-14105038D01*
X17624362Y-14105038D02*
X17633886Y-14124086D01*
X17633886Y-14124086D02*
X17633886Y-14181228D01*
X17633886Y-14181228D02*
X17624362Y-14200276D01*
X17624362Y-14200276D02*
X17614839Y-14209800D01*
X17614839Y-14209800D02*
X17595791Y-14219324D01*
X17595791Y-14219324D02*
X17567219Y-14219324D01*
X17691029Y-14085990D02*
X17767219Y-14085990D01*
X17719600Y-14019324D02*
X17719600Y-14190752D01*
X17719600Y-14190752D02*
X17729124Y-14209800D01*
X17729124Y-14209800D02*
X17748172Y-14219324D01*
X17748172Y-14219324D02*
X17767219Y-14219324D01*
X17986267Y-14085990D02*
X17986267Y-14285990D01*
X17986267Y-14095514D02*
X18005315Y-14085990D01*
X18005315Y-14085990D02*
X18043410Y-14085990D01*
X18043410Y-14085990D02*
X18062458Y-14095514D01*
X18062458Y-14095514D02*
X18071981Y-14105038D01*
X18071981Y-14105038D02*
X18081505Y-14124086D01*
X18081505Y-14124086D02*
X18081505Y-14181228D01*
X18081505Y-14181228D02*
X18071981Y-14200276D01*
X18071981Y-14200276D02*
X18062458Y-14209800D01*
X18062458Y-14209800D02*
X18043410Y-14219324D01*
X18043410Y-14219324D02*
X18005315Y-14219324D01*
X18005315Y-14219324D02*
X17986267Y-14209800D01*
X18195791Y-14219324D02*
X18176743Y-14209800D01*
X18176743Y-14209800D02*
X18167220Y-14190752D01*
X18167220Y-14190752D02*
X18167220Y-14019324D01*
X18357696Y-14219324D02*
X18357696Y-14114562D01*
X18357696Y-14114562D02*
X18348172Y-14095514D01*
X18348172Y-14095514D02*
X18329124Y-14085990D01*
X18329124Y-14085990D02*
X18291029Y-14085990D01*
X18291029Y-14085990D02*
X18271981Y-14095514D01*
X18357696Y-14209800D02*
X18338648Y-14219324D01*
X18338648Y-14219324D02*
X18291029Y-14219324D01*
X18291029Y-14219324D02*
X18271981Y-14209800D01*
X18271981Y-14209800D02*
X18262458Y-14190752D01*
X18262458Y-14190752D02*
X18262458Y-14171705D01*
X18262458Y-14171705D02*
X18271981Y-14152657D01*
X18271981Y-14152657D02*
X18291029Y-14143133D01*
X18291029Y-14143133D02*
X18338648Y-14143133D01*
X18338648Y-14143133D02*
X18357696Y-14133609D01*
X18424362Y-14085990D02*
X18500553Y-14085990D01*
X18452934Y-14019324D02*
X18452934Y-14190752D01*
X18452934Y-14190752D02*
X18462458Y-14209800D01*
X18462458Y-14209800D02*
X18481505Y-14219324D01*
X18481505Y-14219324D02*
X18500553Y-14219324D01*
X18643410Y-14209800D02*
X18624362Y-14219324D01*
X18624362Y-14219324D02*
X18586267Y-14219324D01*
X18586267Y-14219324D02*
X18567220Y-14209800D01*
X18567220Y-14209800D02*
X18557696Y-14190752D01*
X18557696Y-14190752D02*
X18557696Y-14114562D01*
X18557696Y-14114562D02*
X18567220Y-14095514D01*
X18567220Y-14095514D02*
X18586267Y-14085990D01*
X18586267Y-14085990D02*
X18624362Y-14085990D01*
X18624362Y-14085990D02*
X18643410Y-14095514D01*
X18643410Y-14095514D02*
X18652934Y-14114562D01*
X18652934Y-14114562D02*
X18652934Y-14133609D01*
X18652934Y-14133609D02*
X18557696Y-14152657D01*
X18824362Y-14219324D02*
X18824362Y-14019324D01*
X18824362Y-14209800D02*
X18805315Y-14219324D01*
X18805315Y-14219324D02*
X18767220Y-14219324D01*
X18767220Y-14219324D02*
X18748172Y-14209800D01*
X18748172Y-14209800D02*
X18738648Y-14200276D01*
X18738648Y-14200276D02*
X18729124Y-14181228D01*
X18729124Y-14181228D02*
X18729124Y-14124086D01*
X18729124Y-14124086D02*
X18738648Y-14105038D01*
X18738648Y-14105038D02*
X18748172Y-14095514D01*
X18748172Y-14095514D02*
X18767220Y-14085990D01*
X18767220Y-14085990D02*
X18805315Y-14085990D01*
X18805315Y-14085990D02*
X18824362Y-14095514D01*
X18900553Y-14295514D02*
X18910077Y-14285990D01*
X18910077Y-14285990D02*
X18929124Y-14257419D01*
X18929124Y-14257419D02*
X18938648Y-14238371D01*
X18938648Y-14238371D02*
X18948172Y-14209800D01*
X18948172Y-14209800D02*
X18957696Y-14162181D01*
X18957696Y-14162181D02*
X18957696Y-14124086D01*
X18957696Y-14124086D02*
X18948172Y-14076467D01*
X18948172Y-14076467D02*
X18938648Y-14047895D01*
X18938648Y-14047895D02*
X18929124Y-14028848D01*
X18929124Y-14028848D02*
X18910077Y-14000276D01*
X18910077Y-14000276D02*
X18900553Y-13990752D01*
M02*
