G04 #@! TF.GenerationSoftware,KiCad,Pcbnew,7.0.1-3b83917a11~172~ubuntu22.04.1*
G04 #@! TF.CreationDate,2023-04-18T09:55:19+02:00*
G04 #@! TF.ProjectId,part1,70617274-312e-46b6-9963-61645f706362,rev?*
G04 #@! TF.SameCoordinates,Original*
G04 #@! TF.FileFunction,Paste,Top*
G04 #@! TF.FilePolarity,Positive*
%FSLAX46Y46*%
G04 Gerber Fmt 4.6, Leading zero omitted, Abs format (unit mm)*
G04 Created by KiCad (PCBNEW 7.0.1-3b83917a11~172~ubuntu22.04.1) date 2023-04-18 09:55:19*
%MOMM*%
%LPD*%
G01*
G04 APERTURE LIST*
G04 Aperture macros list*
%AMRoundRect*
0 Rectangle with rounded corners*
0 $1 Rounding radius*
0 $2 $3 $4 $5 $6 $7 $8 $9 X,Y pos of 4 corners*
0 Add a 4 corners polygon primitive as box body*
4,1,4,$2,$3,$4,$5,$6,$7,$8,$9,$2,$3,0*
0 Add four circle primitives for the rounded corners*
1,1,$1+$1,$2,$3*
1,1,$1+$1,$4,$5*
1,1,$1+$1,$6,$7*
1,1,$1+$1,$8,$9*
0 Add four rect primitives between the rounded corners*
20,1,$1+$1,$2,$3,$4,$5,0*
20,1,$1+$1,$4,$5,$6,$7,0*
20,1,$1+$1,$6,$7,$8,$9,0*
20,1,$1+$1,$8,$9,$2,$3,0*%
G04 Aperture macros list end*
%ADD10C,0.001000*%
%ADD11R,1.800000X4.000000*%
%ADD12R,0.600000X0.522000*%
%ADD13RoundRect,0.237500X0.300000X0.237500X-0.300000X0.237500X-0.300000X-0.237500X0.300000X-0.237500X0*%
%ADD14RoundRect,0.237500X0.237500X-0.250000X0.237500X0.250000X-0.237500X0.250000X-0.237500X-0.250000X0*%
G04 APERTURE END LIST*
D10*
X126626000Y-132348000D02*
X126740766Y-132463309D01*
X126671000Y-132508000D01*
X126556000Y-132568000D01*
X126406191Y-132614203D01*
X126246000Y-132628000D01*
X126106000Y-132618000D01*
X126026000Y-132598000D01*
X125936000Y-132568000D01*
X125841000Y-132523000D01*
X125746000Y-132458000D01*
X125861000Y-132343000D01*
X125958334Y-132244172D01*
X126021391Y-132279537D01*
X126126000Y-132318000D01*
X126246000Y-132331603D01*
X126366000Y-132318000D01*
X126476000Y-132278000D01*
X126526000Y-132243000D01*
X126626000Y-132348000D01*
G36*
X126626000Y-132348000D02*
G01*
X126740766Y-132463309D01*
X126671000Y-132508000D01*
X126556000Y-132568000D01*
X126406191Y-132614203D01*
X126246000Y-132628000D01*
X126106000Y-132618000D01*
X126026000Y-132598000D01*
X125936000Y-132568000D01*
X125841000Y-132523000D01*
X125746000Y-132458000D01*
X125861000Y-132343000D01*
X125958334Y-132244172D01*
X126021391Y-132279537D01*
X126126000Y-132318000D01*
X126246000Y-132331603D01*
X126366000Y-132318000D01*
X126476000Y-132278000D01*
X126526000Y-132243000D01*
X126626000Y-132348000D01*
G37*
X126386000Y-131018000D02*
X126476000Y-131038000D01*
X126556000Y-131068000D01*
X126656000Y-131118000D01*
X126746000Y-131178000D01*
X126631000Y-131293000D01*
X126528666Y-131391828D01*
X126470609Y-131356463D01*
X126366000Y-131318000D01*
X126246000Y-131304397D01*
X126186000Y-131308000D01*
X126126000Y-131318000D01*
X126071000Y-131333000D01*
X126016000Y-131358000D01*
X125966000Y-131383000D01*
X125871000Y-131288000D01*
X125756234Y-131172691D01*
X125831000Y-131118000D01*
X125936000Y-131068000D01*
X126085809Y-131021797D01*
X126246000Y-131008000D01*
X126386000Y-131018000D01*
G36*
X126386000Y-131018000D02*
G01*
X126476000Y-131038000D01*
X126556000Y-131068000D01*
X126656000Y-131118000D01*
X126746000Y-131178000D01*
X126631000Y-131293000D01*
X126528666Y-131391828D01*
X126470609Y-131356463D01*
X126366000Y-131318000D01*
X126246000Y-131304397D01*
X126186000Y-131308000D01*
X126126000Y-131318000D01*
X126071000Y-131333000D01*
X126016000Y-131358000D01*
X125966000Y-131383000D01*
X125871000Y-131288000D01*
X125756234Y-131172691D01*
X125831000Y-131118000D01*
X125936000Y-131068000D01*
X126085809Y-131021797D01*
X126246000Y-131008000D01*
X126386000Y-131018000D01*
G37*
X126951000Y-131413000D02*
X126996000Y-131508000D01*
X127026000Y-131583000D01*
X127042203Y-131657809D01*
X127056000Y-131753000D01*
X127056000Y-131878000D01*
X127046000Y-131958000D01*
X127026000Y-132048000D01*
X126996000Y-132128000D01*
X126951000Y-132223000D01*
X126886000Y-132318000D01*
X126766000Y-132198000D01*
X126667172Y-132100666D01*
X126707537Y-132042609D01*
X126746000Y-131938000D01*
X126759603Y-131818000D01*
X126746000Y-131698000D01*
X126706000Y-131588000D01*
X126671000Y-131538000D01*
X126776000Y-131433000D01*
X126886309Y-131318234D01*
X126951000Y-131413000D01*
G36*
X126951000Y-131413000D02*
G01*
X126996000Y-131508000D01*
X127026000Y-131583000D01*
X127042203Y-131657809D01*
X127056000Y-131753000D01*
X127056000Y-131878000D01*
X127046000Y-131958000D01*
X127026000Y-132048000D01*
X126996000Y-132128000D01*
X126951000Y-132223000D01*
X126886000Y-132318000D01*
X126766000Y-132198000D01*
X126667172Y-132100666D01*
X126707537Y-132042609D01*
X126746000Y-131938000D01*
X126759603Y-131818000D01*
X126746000Y-131698000D01*
X126706000Y-131588000D01*
X126671000Y-131538000D01*
X126776000Y-131433000D01*
X126886309Y-131318234D01*
X126951000Y-131413000D01*
G37*
X125721000Y-131428000D02*
X125819828Y-131525334D01*
X125784463Y-131593391D01*
X125741000Y-131693000D01*
X125726000Y-131813000D01*
X125722397Y-131813000D01*
X125726000Y-131823000D01*
X125741000Y-131928000D01*
X125736000Y-131938000D01*
X125741000Y-131938000D01*
X125781000Y-132048000D01*
X125816000Y-132103000D01*
X125716000Y-132203000D01*
X125605691Y-132317766D01*
X125541000Y-132218000D01*
X125496000Y-132128000D01*
X125449797Y-131978191D01*
X125436000Y-131818000D01*
X125446000Y-131678000D01*
X125466000Y-131598000D01*
X125496000Y-131508000D01*
X125546000Y-131408000D01*
X125611000Y-131313000D01*
X125721000Y-131428000D01*
G36*
X125721000Y-131428000D02*
G01*
X125819828Y-131525334D01*
X125784463Y-131593391D01*
X125741000Y-131693000D01*
X125726000Y-131813000D01*
X125722397Y-131813000D01*
X125726000Y-131823000D01*
X125741000Y-131928000D01*
X125736000Y-131938000D01*
X125741000Y-131938000D01*
X125781000Y-132048000D01*
X125816000Y-132103000D01*
X125716000Y-132203000D01*
X125605691Y-132317766D01*
X125541000Y-132218000D01*
X125496000Y-132128000D01*
X125449797Y-131978191D01*
X125436000Y-131818000D01*
X125446000Y-131678000D01*
X125466000Y-131598000D01*
X125496000Y-131508000D01*
X125546000Y-131408000D01*
X125611000Y-131313000D01*
X125721000Y-131428000D01*
G37*
D11*
X128346000Y-51818000D03*
X126246000Y-51818000D03*
X124146000Y-51818000D03*
D12*
X125346000Y-129744000D03*
X125346000Y-130566000D03*
X127146000Y-130566000D03*
X127146000Y-129744000D03*
X126246000Y-129744000D03*
D13*
X128088500Y-128034000D03*
X126363500Y-128034000D03*
D14*
X124714000Y-128026500D03*
X124714000Y-126201500D03*
D13*
X128088500Y-126510000D03*
X126363500Y-126510000D03*
M02*
