%TF.GenerationSoftware,KiCad,Pcbnew,7.0.1-3b83917a11~172~ubuntu22.04.1*%
%TF.CreationDate,2023-04-17T14:07:02+02:00*%
%TF.ProjectId,AcousticDetection_HW,41636f75-7374-4696-9344-657465637469,rev?*%
%TF.SameCoordinates,Original*%
%TF.FileFunction,Drillmap*%
%TF.FilePolarity,Positive*%
%FSLAX45Y45*%
G04 Gerber Fmt 4.5, Leading zero omitted, Abs format (unit mm)*
G04 Created by KiCad (PCBNEW 7.0.1-3b83917a11~172~ubuntu22.04.1) date 2023-04-17 14:07:02*
%MOMM*%
%LPD*%
G01*
G04 APERTURE LIST*
%ADD10C,0.100000*%
%ADD11C,0.200000*%
%ADD12C,0.050000*%
%ADD13C,0.065000*%
G04 APERTURE END LIST*
D10*
X17076800Y-9836000D02*
X17076800Y-5436000D01*
X14326800Y-5436000D02*
X14326800Y-5836000D01*
X13476800Y-5436000D02*
X14326800Y-5436000D01*
X17326800Y-13636000D02*
X17326800Y-5436000D01*
X13226800Y-5436000D02*
X13226800Y-13636000D01*
X17326800Y-5436000D02*
X17926800Y-5436000D01*
X13126800Y-6936000D02*
G75*
G03*
X13126800Y-6936000I-200000J0D01*
G01*
X12626800Y-13636000D02*
X12626800Y-5436000D01*
X13126800Y-12436000D02*
G75*
G03*
X13126800Y-12436000I-200000J0D01*
G01*
X17326800Y-13636000D02*
G75*
G03*
X17926800Y-13636000I300000J0D01*
G01*
X16226800Y-5436000D02*
X17076800Y-5436000D01*
X13476800Y-5436000D02*
X13476800Y-9836000D01*
X16226800Y-5836000D02*
X16226800Y-5436000D01*
X17826800Y-6936000D02*
G75*
G03*
X17826800Y-6936000I-200000J0D01*
G01*
X13476800Y-9836000D02*
X17076800Y-9836000D01*
X17826800Y-12436000D02*
G75*
G03*
X17826800Y-12436000I-200000J0D01*
G01*
X12626800Y-5436000D02*
X13226800Y-5436000D01*
X14326800Y-5836000D02*
X16226800Y-5836000D01*
X12626800Y-13636000D02*
G75*
G03*
X13226800Y-13636000I300000J0D01*
G01*
X17926800Y-13636000D02*
X17926800Y-5436000D01*
D11*
D12*
X12901800Y-13611000D02*
X12951800Y-13661000D01*
X12951800Y-13611000D02*
X12901800Y-13661000D01*
X17601800Y-13611000D02*
X17651800Y-13661000D01*
X17651800Y-13611000D02*
X17601800Y-13661000D01*
D13*
X16432650Y-8982200D02*
G75*
G03*
X16432650Y-8982200I-32500J0D01*
G01*
X16432650Y-9560200D02*
G75*
G03*
X16432650Y-9560200I-32500J0D01*
G01*
D11*
X12869419Y-14253524D02*
X12869419Y-14053524D01*
X12869419Y-14053524D02*
X12917038Y-14053524D01*
X12917038Y-14053524D02*
X12945609Y-14063048D01*
X12945609Y-14063048D02*
X12964657Y-14082095D01*
X12964657Y-14082095D02*
X12974181Y-14101143D01*
X12974181Y-14101143D02*
X12983705Y-14139238D01*
X12983705Y-14139238D02*
X12983705Y-14167809D01*
X12983705Y-14167809D02*
X12974181Y-14205905D01*
X12974181Y-14205905D02*
X12964657Y-14224952D01*
X12964657Y-14224952D02*
X12945609Y-14244000D01*
X12945609Y-14244000D02*
X12917038Y-14253524D01*
X12917038Y-14253524D02*
X12869419Y-14253524D01*
X13069419Y-14253524D02*
X13069419Y-14120190D01*
X13069419Y-14158286D02*
X13078943Y-14139238D01*
X13078943Y-14139238D02*
X13088467Y-14129714D01*
X13088467Y-14129714D02*
X13107514Y-14120190D01*
X13107514Y-14120190D02*
X13126562Y-14120190D01*
X13193228Y-14253524D02*
X13193228Y-14120190D01*
X13193228Y-14053524D02*
X13183705Y-14063048D01*
X13183705Y-14063048D02*
X13193228Y-14072571D01*
X13193228Y-14072571D02*
X13202752Y-14063048D01*
X13202752Y-14063048D02*
X13193228Y-14053524D01*
X13193228Y-14053524D02*
X13193228Y-14072571D01*
X13317038Y-14253524D02*
X13297990Y-14244000D01*
X13297990Y-14244000D02*
X13288467Y-14224952D01*
X13288467Y-14224952D02*
X13288467Y-14053524D01*
X13421800Y-14253524D02*
X13402752Y-14244000D01*
X13402752Y-14244000D02*
X13393228Y-14224952D01*
X13393228Y-14224952D02*
X13393228Y-14053524D01*
X13650371Y-14253524D02*
X13650371Y-14053524D01*
X13650371Y-14053524D02*
X13717038Y-14196381D01*
X13717038Y-14196381D02*
X13783705Y-14053524D01*
X13783705Y-14053524D02*
X13783705Y-14253524D01*
X13964657Y-14253524D02*
X13964657Y-14148762D01*
X13964657Y-14148762D02*
X13955133Y-14129714D01*
X13955133Y-14129714D02*
X13936086Y-14120190D01*
X13936086Y-14120190D02*
X13897990Y-14120190D01*
X13897990Y-14120190D02*
X13878943Y-14129714D01*
X13964657Y-14244000D02*
X13945609Y-14253524D01*
X13945609Y-14253524D02*
X13897990Y-14253524D01*
X13897990Y-14253524D02*
X13878943Y-14244000D01*
X13878943Y-14244000D02*
X13869419Y-14224952D01*
X13869419Y-14224952D02*
X13869419Y-14205905D01*
X13869419Y-14205905D02*
X13878943Y-14186857D01*
X13878943Y-14186857D02*
X13897990Y-14177333D01*
X13897990Y-14177333D02*
X13945609Y-14177333D01*
X13945609Y-14177333D02*
X13964657Y-14167809D01*
X14059895Y-14120190D02*
X14059895Y-14320190D01*
X14059895Y-14129714D02*
X14078943Y-14120190D01*
X14078943Y-14120190D02*
X14117038Y-14120190D01*
X14117038Y-14120190D02*
X14136086Y-14129714D01*
X14136086Y-14129714D02*
X14145609Y-14139238D01*
X14145609Y-14139238D02*
X14155133Y-14158286D01*
X14155133Y-14158286D02*
X14155133Y-14215428D01*
X14155133Y-14215428D02*
X14145609Y-14234476D01*
X14145609Y-14234476D02*
X14136086Y-14244000D01*
X14136086Y-14244000D02*
X14117038Y-14253524D01*
X14117038Y-14253524D02*
X14078943Y-14253524D01*
X14078943Y-14253524D02*
X14059895Y-14244000D01*
X14240848Y-14234476D02*
X14250371Y-14244000D01*
X14250371Y-14244000D02*
X14240848Y-14253524D01*
X14240848Y-14253524D02*
X14231324Y-14244000D01*
X14231324Y-14244000D02*
X14240848Y-14234476D01*
X14240848Y-14234476D02*
X14240848Y-14253524D01*
X14240848Y-14129714D02*
X14250371Y-14139238D01*
X14250371Y-14139238D02*
X14240848Y-14148762D01*
X14240848Y-14148762D02*
X14231324Y-14139238D01*
X14231324Y-14139238D02*
X14240848Y-14129714D01*
X14240848Y-14129714D02*
X14240848Y-14148762D01*
D12*
X12571800Y-14556000D02*
X12621800Y-14606000D01*
X12621800Y-14556000D02*
X12571800Y-14606000D01*
D11*
X12907514Y-14473524D02*
X12926562Y-14473524D01*
X12926562Y-14473524D02*
X12945609Y-14483048D01*
X12945609Y-14483048D02*
X12955133Y-14492571D01*
X12955133Y-14492571D02*
X12964657Y-14511619D01*
X12964657Y-14511619D02*
X12974181Y-14549714D01*
X12974181Y-14549714D02*
X12974181Y-14597333D01*
X12974181Y-14597333D02*
X12964657Y-14635428D01*
X12964657Y-14635428D02*
X12955133Y-14654476D01*
X12955133Y-14654476D02*
X12945609Y-14664000D01*
X12945609Y-14664000D02*
X12926562Y-14673524D01*
X12926562Y-14673524D02*
X12907514Y-14673524D01*
X12907514Y-14673524D02*
X12888467Y-14664000D01*
X12888467Y-14664000D02*
X12878943Y-14654476D01*
X12878943Y-14654476D02*
X12869419Y-14635428D01*
X12869419Y-14635428D02*
X12859895Y-14597333D01*
X12859895Y-14597333D02*
X12859895Y-14549714D01*
X12859895Y-14549714D02*
X12869419Y-14511619D01*
X12869419Y-14511619D02*
X12878943Y-14492571D01*
X12878943Y-14492571D02*
X12888467Y-14483048D01*
X12888467Y-14483048D02*
X12907514Y-14473524D01*
X13059895Y-14654476D02*
X13069419Y-14664000D01*
X13069419Y-14664000D02*
X13059895Y-14673524D01*
X13059895Y-14673524D02*
X13050371Y-14664000D01*
X13050371Y-14664000D02*
X13059895Y-14654476D01*
X13059895Y-14654476D02*
X13059895Y-14673524D01*
X13250371Y-14473524D02*
X13155133Y-14473524D01*
X13155133Y-14473524D02*
X13145609Y-14568762D01*
X13145609Y-14568762D02*
X13155133Y-14559238D01*
X13155133Y-14559238D02*
X13174181Y-14549714D01*
X13174181Y-14549714D02*
X13221800Y-14549714D01*
X13221800Y-14549714D02*
X13240848Y-14559238D01*
X13240848Y-14559238D02*
X13250371Y-14568762D01*
X13250371Y-14568762D02*
X13259895Y-14587809D01*
X13259895Y-14587809D02*
X13259895Y-14635428D01*
X13259895Y-14635428D02*
X13250371Y-14654476D01*
X13250371Y-14654476D02*
X13240848Y-14664000D01*
X13240848Y-14664000D02*
X13221800Y-14673524D01*
X13221800Y-14673524D02*
X13174181Y-14673524D01*
X13174181Y-14673524D02*
X13155133Y-14664000D01*
X13155133Y-14664000D02*
X13145609Y-14654476D01*
X13383705Y-14473524D02*
X13402752Y-14473524D01*
X13402752Y-14473524D02*
X13421800Y-14483048D01*
X13421800Y-14483048D02*
X13431324Y-14492571D01*
X13431324Y-14492571D02*
X13440848Y-14511619D01*
X13440848Y-14511619D02*
X13450371Y-14549714D01*
X13450371Y-14549714D02*
X13450371Y-14597333D01*
X13450371Y-14597333D02*
X13440848Y-14635428D01*
X13440848Y-14635428D02*
X13431324Y-14654476D01*
X13431324Y-14654476D02*
X13421800Y-14664000D01*
X13421800Y-14664000D02*
X13402752Y-14673524D01*
X13402752Y-14673524D02*
X13383705Y-14673524D01*
X13383705Y-14673524D02*
X13364657Y-14664000D01*
X13364657Y-14664000D02*
X13355133Y-14654476D01*
X13355133Y-14654476D02*
X13345609Y-14635428D01*
X13345609Y-14635428D02*
X13336086Y-14597333D01*
X13336086Y-14597333D02*
X13336086Y-14549714D01*
X13336086Y-14549714D02*
X13345609Y-14511619D01*
X13345609Y-14511619D02*
X13355133Y-14492571D01*
X13355133Y-14492571D02*
X13364657Y-14483048D01*
X13364657Y-14483048D02*
X13383705Y-14473524D01*
X13574181Y-14473524D02*
X13593229Y-14473524D01*
X13593229Y-14473524D02*
X13612276Y-14483048D01*
X13612276Y-14483048D02*
X13621800Y-14492571D01*
X13621800Y-14492571D02*
X13631324Y-14511619D01*
X13631324Y-14511619D02*
X13640848Y-14549714D01*
X13640848Y-14549714D02*
X13640848Y-14597333D01*
X13640848Y-14597333D02*
X13631324Y-14635428D01*
X13631324Y-14635428D02*
X13621800Y-14654476D01*
X13621800Y-14654476D02*
X13612276Y-14664000D01*
X13612276Y-14664000D02*
X13593229Y-14673524D01*
X13593229Y-14673524D02*
X13574181Y-14673524D01*
X13574181Y-14673524D02*
X13555133Y-14664000D01*
X13555133Y-14664000D02*
X13545609Y-14654476D01*
X13545609Y-14654476D02*
X13536086Y-14635428D01*
X13536086Y-14635428D02*
X13526562Y-14597333D01*
X13526562Y-14597333D02*
X13526562Y-14549714D01*
X13526562Y-14549714D02*
X13536086Y-14511619D01*
X13536086Y-14511619D02*
X13545609Y-14492571D01*
X13545609Y-14492571D02*
X13555133Y-14483048D01*
X13555133Y-14483048D02*
X13574181Y-14473524D01*
X13726562Y-14673524D02*
X13726562Y-14540190D01*
X13726562Y-14559238D02*
X13736086Y-14549714D01*
X13736086Y-14549714D02*
X13755133Y-14540190D01*
X13755133Y-14540190D02*
X13783705Y-14540190D01*
X13783705Y-14540190D02*
X13802752Y-14549714D01*
X13802752Y-14549714D02*
X13812276Y-14568762D01*
X13812276Y-14568762D02*
X13812276Y-14673524D01*
X13812276Y-14568762D02*
X13821800Y-14549714D01*
X13821800Y-14549714D02*
X13840848Y-14540190D01*
X13840848Y-14540190D02*
X13869419Y-14540190D01*
X13869419Y-14540190D02*
X13888467Y-14549714D01*
X13888467Y-14549714D02*
X13897990Y-14568762D01*
X13897990Y-14568762D02*
X13897990Y-14673524D01*
X13993229Y-14673524D02*
X13993229Y-14540190D01*
X13993229Y-14559238D02*
X14002752Y-14549714D01*
X14002752Y-14549714D02*
X14021800Y-14540190D01*
X14021800Y-14540190D02*
X14050371Y-14540190D01*
X14050371Y-14540190D02*
X14069419Y-14549714D01*
X14069419Y-14549714D02*
X14078943Y-14568762D01*
X14078943Y-14568762D02*
X14078943Y-14673524D01*
X14078943Y-14568762D02*
X14088467Y-14549714D01*
X14088467Y-14549714D02*
X14107514Y-14540190D01*
X14107514Y-14540190D02*
X14136086Y-14540190D01*
X14136086Y-14540190D02*
X14155133Y-14549714D01*
X14155133Y-14549714D02*
X14164657Y-14568762D01*
X14164657Y-14568762D02*
X14164657Y-14673524D01*
X14555133Y-14464000D02*
X14383705Y-14721143D01*
X14812276Y-14473524D02*
X14831324Y-14473524D01*
X14831324Y-14473524D02*
X14850372Y-14483048D01*
X14850372Y-14483048D02*
X14859895Y-14492571D01*
X14859895Y-14492571D02*
X14869419Y-14511619D01*
X14869419Y-14511619D02*
X14878943Y-14549714D01*
X14878943Y-14549714D02*
X14878943Y-14597333D01*
X14878943Y-14597333D02*
X14869419Y-14635428D01*
X14869419Y-14635428D02*
X14859895Y-14654476D01*
X14859895Y-14654476D02*
X14850372Y-14664000D01*
X14850372Y-14664000D02*
X14831324Y-14673524D01*
X14831324Y-14673524D02*
X14812276Y-14673524D01*
X14812276Y-14673524D02*
X14793229Y-14664000D01*
X14793229Y-14664000D02*
X14783705Y-14654476D01*
X14783705Y-14654476D02*
X14774181Y-14635428D01*
X14774181Y-14635428D02*
X14764657Y-14597333D01*
X14764657Y-14597333D02*
X14764657Y-14549714D01*
X14764657Y-14549714D02*
X14774181Y-14511619D01*
X14774181Y-14511619D02*
X14783705Y-14492571D01*
X14783705Y-14492571D02*
X14793229Y-14483048D01*
X14793229Y-14483048D02*
X14812276Y-14473524D01*
X14964657Y-14654476D02*
X14974181Y-14664000D01*
X14974181Y-14664000D02*
X14964657Y-14673524D01*
X14964657Y-14673524D02*
X14955133Y-14664000D01*
X14955133Y-14664000D02*
X14964657Y-14654476D01*
X14964657Y-14654476D02*
X14964657Y-14673524D01*
X15097991Y-14473524D02*
X15117038Y-14473524D01*
X15117038Y-14473524D02*
X15136086Y-14483048D01*
X15136086Y-14483048D02*
X15145610Y-14492571D01*
X15145610Y-14492571D02*
X15155133Y-14511619D01*
X15155133Y-14511619D02*
X15164657Y-14549714D01*
X15164657Y-14549714D02*
X15164657Y-14597333D01*
X15164657Y-14597333D02*
X15155133Y-14635428D01*
X15155133Y-14635428D02*
X15145610Y-14654476D01*
X15145610Y-14654476D02*
X15136086Y-14664000D01*
X15136086Y-14664000D02*
X15117038Y-14673524D01*
X15117038Y-14673524D02*
X15097991Y-14673524D01*
X15097991Y-14673524D02*
X15078943Y-14664000D01*
X15078943Y-14664000D02*
X15069419Y-14654476D01*
X15069419Y-14654476D02*
X15059895Y-14635428D01*
X15059895Y-14635428D02*
X15050372Y-14597333D01*
X15050372Y-14597333D02*
X15050372Y-14549714D01*
X15050372Y-14549714D02*
X15059895Y-14511619D01*
X15059895Y-14511619D02*
X15069419Y-14492571D01*
X15069419Y-14492571D02*
X15078943Y-14483048D01*
X15078943Y-14483048D02*
X15097991Y-14473524D01*
X15355133Y-14673524D02*
X15240848Y-14673524D01*
X15297991Y-14673524D02*
X15297991Y-14473524D01*
X15297991Y-14473524D02*
X15278943Y-14502095D01*
X15278943Y-14502095D02*
X15259895Y-14521143D01*
X15259895Y-14521143D02*
X15240848Y-14530667D01*
X15450372Y-14673524D02*
X15488467Y-14673524D01*
X15488467Y-14673524D02*
X15507514Y-14664000D01*
X15507514Y-14664000D02*
X15517038Y-14654476D01*
X15517038Y-14654476D02*
X15536086Y-14625905D01*
X15536086Y-14625905D02*
X15545610Y-14587809D01*
X15545610Y-14587809D02*
X15545610Y-14511619D01*
X15545610Y-14511619D02*
X15536086Y-14492571D01*
X15536086Y-14492571D02*
X15526562Y-14483048D01*
X15526562Y-14483048D02*
X15507514Y-14473524D01*
X15507514Y-14473524D02*
X15469419Y-14473524D01*
X15469419Y-14473524D02*
X15450372Y-14483048D01*
X15450372Y-14483048D02*
X15440848Y-14492571D01*
X15440848Y-14492571D02*
X15431324Y-14511619D01*
X15431324Y-14511619D02*
X15431324Y-14559238D01*
X15431324Y-14559238D02*
X15440848Y-14578286D01*
X15440848Y-14578286D02*
X15450372Y-14587809D01*
X15450372Y-14587809D02*
X15469419Y-14597333D01*
X15469419Y-14597333D02*
X15507514Y-14597333D01*
X15507514Y-14597333D02*
X15526562Y-14587809D01*
X15526562Y-14587809D02*
X15536086Y-14578286D01*
X15536086Y-14578286D02*
X15545610Y-14559238D01*
X15612276Y-14473524D02*
X15745610Y-14473524D01*
X15745610Y-14473524D02*
X15659895Y-14673524D01*
X15812276Y-14473524D02*
X15812276Y-14511619D01*
X15888467Y-14473524D02*
X15888467Y-14511619D01*
X16183705Y-14749714D02*
X16174181Y-14740190D01*
X16174181Y-14740190D02*
X16155134Y-14711619D01*
X16155134Y-14711619D02*
X16145610Y-14692571D01*
X16145610Y-14692571D02*
X16136086Y-14664000D01*
X16136086Y-14664000D02*
X16126562Y-14616381D01*
X16126562Y-14616381D02*
X16126562Y-14578286D01*
X16126562Y-14578286D02*
X16136086Y-14530667D01*
X16136086Y-14530667D02*
X16145610Y-14502095D01*
X16145610Y-14502095D02*
X16155134Y-14483048D01*
X16155134Y-14483048D02*
X16174181Y-14454476D01*
X16174181Y-14454476D02*
X16183705Y-14444952D01*
X16250372Y-14492571D02*
X16259895Y-14483048D01*
X16259895Y-14483048D02*
X16278943Y-14473524D01*
X16278943Y-14473524D02*
X16326562Y-14473524D01*
X16326562Y-14473524D02*
X16345610Y-14483048D01*
X16345610Y-14483048D02*
X16355134Y-14492571D01*
X16355134Y-14492571D02*
X16364657Y-14511619D01*
X16364657Y-14511619D02*
X16364657Y-14530667D01*
X16364657Y-14530667D02*
X16355134Y-14559238D01*
X16355134Y-14559238D02*
X16240848Y-14673524D01*
X16240848Y-14673524D02*
X16364657Y-14673524D01*
X16602753Y-14673524D02*
X16602753Y-14473524D01*
X16688467Y-14673524D02*
X16688467Y-14568762D01*
X16688467Y-14568762D02*
X16678943Y-14549714D01*
X16678943Y-14549714D02*
X16659896Y-14540190D01*
X16659896Y-14540190D02*
X16631324Y-14540190D01*
X16631324Y-14540190D02*
X16612276Y-14549714D01*
X16612276Y-14549714D02*
X16602753Y-14559238D01*
X16812277Y-14673524D02*
X16793229Y-14664000D01*
X16793229Y-14664000D02*
X16783705Y-14654476D01*
X16783705Y-14654476D02*
X16774181Y-14635428D01*
X16774181Y-14635428D02*
X16774181Y-14578286D01*
X16774181Y-14578286D02*
X16783705Y-14559238D01*
X16783705Y-14559238D02*
X16793229Y-14549714D01*
X16793229Y-14549714D02*
X16812277Y-14540190D01*
X16812277Y-14540190D02*
X16840848Y-14540190D01*
X16840848Y-14540190D02*
X16859896Y-14549714D01*
X16859896Y-14549714D02*
X16869419Y-14559238D01*
X16869419Y-14559238D02*
X16878943Y-14578286D01*
X16878943Y-14578286D02*
X16878943Y-14635428D01*
X16878943Y-14635428D02*
X16869419Y-14654476D01*
X16869419Y-14654476D02*
X16859896Y-14664000D01*
X16859896Y-14664000D02*
X16840848Y-14673524D01*
X16840848Y-14673524D02*
X16812277Y-14673524D01*
X16993229Y-14673524D02*
X16974181Y-14664000D01*
X16974181Y-14664000D02*
X16964658Y-14644952D01*
X16964658Y-14644952D02*
X16964658Y-14473524D01*
X17145610Y-14664000D02*
X17126562Y-14673524D01*
X17126562Y-14673524D02*
X17088467Y-14673524D01*
X17088467Y-14673524D02*
X17069419Y-14664000D01*
X17069419Y-14664000D02*
X17059896Y-14644952D01*
X17059896Y-14644952D02*
X17059896Y-14568762D01*
X17059896Y-14568762D02*
X17069419Y-14549714D01*
X17069419Y-14549714D02*
X17088467Y-14540190D01*
X17088467Y-14540190D02*
X17126562Y-14540190D01*
X17126562Y-14540190D02*
X17145610Y-14549714D01*
X17145610Y-14549714D02*
X17155134Y-14568762D01*
X17155134Y-14568762D02*
X17155134Y-14587809D01*
X17155134Y-14587809D02*
X17059896Y-14606857D01*
X17231324Y-14664000D02*
X17250372Y-14673524D01*
X17250372Y-14673524D02*
X17288467Y-14673524D01*
X17288467Y-14673524D02*
X17307515Y-14664000D01*
X17307515Y-14664000D02*
X17317039Y-14644952D01*
X17317039Y-14644952D02*
X17317039Y-14635428D01*
X17317039Y-14635428D02*
X17307515Y-14616381D01*
X17307515Y-14616381D02*
X17288467Y-14606857D01*
X17288467Y-14606857D02*
X17259896Y-14606857D01*
X17259896Y-14606857D02*
X17240848Y-14597333D01*
X17240848Y-14597333D02*
X17231324Y-14578286D01*
X17231324Y-14578286D02*
X17231324Y-14568762D01*
X17231324Y-14568762D02*
X17240848Y-14549714D01*
X17240848Y-14549714D02*
X17259896Y-14540190D01*
X17259896Y-14540190D02*
X17288467Y-14540190D01*
X17288467Y-14540190D02*
X17307515Y-14549714D01*
X17383705Y-14749714D02*
X17393229Y-14740190D01*
X17393229Y-14740190D02*
X17412277Y-14711619D01*
X17412277Y-14711619D02*
X17421800Y-14692571D01*
X17421800Y-14692571D02*
X17431324Y-14664000D01*
X17431324Y-14664000D02*
X17440848Y-14616381D01*
X17440848Y-14616381D02*
X17440848Y-14578286D01*
X17440848Y-14578286D02*
X17431324Y-14530667D01*
X17431324Y-14530667D02*
X17421800Y-14502095D01*
X17421800Y-14502095D02*
X17412277Y-14483048D01*
X17412277Y-14483048D02*
X17393229Y-14454476D01*
X17393229Y-14454476D02*
X17383705Y-14444952D01*
X17745610Y-14749714D02*
X17736086Y-14740190D01*
X17736086Y-14740190D02*
X17717039Y-14711619D01*
X17717039Y-14711619D02*
X17707515Y-14692571D01*
X17707515Y-14692571D02*
X17697991Y-14664000D01*
X17697991Y-14664000D02*
X17688467Y-14616381D01*
X17688467Y-14616381D02*
X17688467Y-14578286D01*
X17688467Y-14578286D02*
X17697991Y-14530667D01*
X17697991Y-14530667D02*
X17707515Y-14502095D01*
X17707515Y-14502095D02*
X17717039Y-14483048D01*
X17717039Y-14483048D02*
X17736086Y-14454476D01*
X17736086Y-14454476D02*
X17745610Y-14444952D01*
X17821800Y-14540190D02*
X17821800Y-14673524D01*
X17821800Y-14559238D02*
X17831324Y-14549714D01*
X17831324Y-14549714D02*
X17850372Y-14540190D01*
X17850372Y-14540190D02*
X17878943Y-14540190D01*
X17878943Y-14540190D02*
X17897991Y-14549714D01*
X17897991Y-14549714D02*
X17907515Y-14568762D01*
X17907515Y-14568762D02*
X17907515Y-14673524D01*
X18031324Y-14673524D02*
X18012277Y-14664000D01*
X18012277Y-14664000D02*
X18002753Y-14654476D01*
X18002753Y-14654476D02*
X17993229Y-14635428D01*
X17993229Y-14635428D02*
X17993229Y-14578286D01*
X17993229Y-14578286D02*
X18002753Y-14559238D01*
X18002753Y-14559238D02*
X18012277Y-14549714D01*
X18012277Y-14549714D02*
X18031324Y-14540190D01*
X18031324Y-14540190D02*
X18059896Y-14540190D01*
X18059896Y-14540190D02*
X18078943Y-14549714D01*
X18078943Y-14549714D02*
X18088467Y-14559238D01*
X18088467Y-14559238D02*
X18097991Y-14578286D01*
X18097991Y-14578286D02*
X18097991Y-14635428D01*
X18097991Y-14635428D02*
X18088467Y-14654476D01*
X18088467Y-14654476D02*
X18078943Y-14664000D01*
X18078943Y-14664000D02*
X18059896Y-14673524D01*
X18059896Y-14673524D02*
X18031324Y-14673524D01*
X18155134Y-14540190D02*
X18231324Y-14540190D01*
X18183705Y-14473524D02*
X18183705Y-14644952D01*
X18183705Y-14644952D02*
X18193229Y-14664000D01*
X18193229Y-14664000D02*
X18212277Y-14673524D01*
X18212277Y-14673524D02*
X18231324Y-14673524D01*
X18450372Y-14540190D02*
X18450372Y-14740190D01*
X18450372Y-14549714D02*
X18469420Y-14540190D01*
X18469420Y-14540190D02*
X18507515Y-14540190D01*
X18507515Y-14540190D02*
X18526562Y-14549714D01*
X18526562Y-14549714D02*
X18536086Y-14559238D01*
X18536086Y-14559238D02*
X18545610Y-14578286D01*
X18545610Y-14578286D02*
X18545610Y-14635428D01*
X18545610Y-14635428D02*
X18536086Y-14654476D01*
X18536086Y-14654476D02*
X18526562Y-14664000D01*
X18526562Y-14664000D02*
X18507515Y-14673524D01*
X18507515Y-14673524D02*
X18469420Y-14673524D01*
X18469420Y-14673524D02*
X18450372Y-14664000D01*
X18659896Y-14673524D02*
X18640848Y-14664000D01*
X18640848Y-14664000D02*
X18631324Y-14644952D01*
X18631324Y-14644952D02*
X18631324Y-14473524D01*
X18821801Y-14673524D02*
X18821801Y-14568762D01*
X18821801Y-14568762D02*
X18812277Y-14549714D01*
X18812277Y-14549714D02*
X18793229Y-14540190D01*
X18793229Y-14540190D02*
X18755134Y-14540190D01*
X18755134Y-14540190D02*
X18736086Y-14549714D01*
X18821801Y-14664000D02*
X18802753Y-14673524D01*
X18802753Y-14673524D02*
X18755134Y-14673524D01*
X18755134Y-14673524D02*
X18736086Y-14664000D01*
X18736086Y-14664000D02*
X18726562Y-14644952D01*
X18726562Y-14644952D02*
X18726562Y-14625905D01*
X18726562Y-14625905D02*
X18736086Y-14606857D01*
X18736086Y-14606857D02*
X18755134Y-14597333D01*
X18755134Y-14597333D02*
X18802753Y-14597333D01*
X18802753Y-14597333D02*
X18821801Y-14587809D01*
X18888467Y-14540190D02*
X18964658Y-14540190D01*
X18917039Y-14473524D02*
X18917039Y-14644952D01*
X18917039Y-14644952D02*
X18926562Y-14664000D01*
X18926562Y-14664000D02*
X18945610Y-14673524D01*
X18945610Y-14673524D02*
X18964658Y-14673524D01*
X19107515Y-14664000D02*
X19088467Y-14673524D01*
X19088467Y-14673524D02*
X19050372Y-14673524D01*
X19050372Y-14673524D02*
X19031324Y-14664000D01*
X19031324Y-14664000D02*
X19021801Y-14644952D01*
X19021801Y-14644952D02*
X19021801Y-14568762D01*
X19021801Y-14568762D02*
X19031324Y-14549714D01*
X19031324Y-14549714D02*
X19050372Y-14540190D01*
X19050372Y-14540190D02*
X19088467Y-14540190D01*
X19088467Y-14540190D02*
X19107515Y-14549714D01*
X19107515Y-14549714D02*
X19117039Y-14568762D01*
X19117039Y-14568762D02*
X19117039Y-14587809D01*
X19117039Y-14587809D02*
X19021801Y-14606857D01*
X19288467Y-14673524D02*
X19288467Y-14473524D01*
X19288467Y-14664000D02*
X19269420Y-14673524D01*
X19269420Y-14673524D02*
X19231324Y-14673524D01*
X19231324Y-14673524D02*
X19212277Y-14664000D01*
X19212277Y-14664000D02*
X19202753Y-14654476D01*
X19202753Y-14654476D02*
X19193229Y-14635428D01*
X19193229Y-14635428D02*
X19193229Y-14578286D01*
X19193229Y-14578286D02*
X19202753Y-14559238D01*
X19202753Y-14559238D02*
X19212277Y-14549714D01*
X19212277Y-14549714D02*
X19231324Y-14540190D01*
X19231324Y-14540190D02*
X19269420Y-14540190D01*
X19269420Y-14540190D02*
X19288467Y-14549714D01*
X19364658Y-14749714D02*
X19374182Y-14740190D01*
X19374182Y-14740190D02*
X19393229Y-14711619D01*
X19393229Y-14711619D02*
X19402753Y-14692571D01*
X19402753Y-14692571D02*
X19412277Y-14664000D01*
X19412277Y-14664000D02*
X19421801Y-14616381D01*
X19421801Y-14616381D02*
X19421801Y-14578286D01*
X19421801Y-14578286D02*
X19412277Y-14530667D01*
X19412277Y-14530667D02*
X19402753Y-14502095D01*
X19402753Y-14502095D02*
X19393229Y-14483048D01*
X19393229Y-14483048D02*
X19374182Y-14454476D01*
X19374182Y-14454476D02*
X19364658Y-14444952D01*
D13*
X12621800Y-14845000D02*
G75*
G03*
X12621800Y-14845000I-32500J0D01*
G01*
D11*
X12907514Y-14737524D02*
X12926562Y-14737524D01*
X12926562Y-14737524D02*
X12945609Y-14747048D01*
X12945609Y-14747048D02*
X12955133Y-14756571D01*
X12955133Y-14756571D02*
X12964657Y-14775619D01*
X12964657Y-14775619D02*
X12974181Y-14813714D01*
X12974181Y-14813714D02*
X12974181Y-14861333D01*
X12974181Y-14861333D02*
X12964657Y-14899428D01*
X12964657Y-14899428D02*
X12955133Y-14918476D01*
X12955133Y-14918476D02*
X12945609Y-14928000D01*
X12945609Y-14928000D02*
X12926562Y-14937524D01*
X12926562Y-14937524D02*
X12907514Y-14937524D01*
X12907514Y-14937524D02*
X12888467Y-14928000D01*
X12888467Y-14928000D02*
X12878943Y-14918476D01*
X12878943Y-14918476D02*
X12869419Y-14899428D01*
X12869419Y-14899428D02*
X12859895Y-14861333D01*
X12859895Y-14861333D02*
X12859895Y-14813714D01*
X12859895Y-14813714D02*
X12869419Y-14775619D01*
X12869419Y-14775619D02*
X12878943Y-14756571D01*
X12878943Y-14756571D02*
X12888467Y-14747048D01*
X12888467Y-14747048D02*
X12907514Y-14737524D01*
X13059895Y-14918476D02*
X13069419Y-14928000D01*
X13069419Y-14928000D02*
X13059895Y-14937524D01*
X13059895Y-14937524D02*
X13050371Y-14928000D01*
X13050371Y-14928000D02*
X13059895Y-14918476D01*
X13059895Y-14918476D02*
X13059895Y-14937524D01*
X13240848Y-14737524D02*
X13202752Y-14737524D01*
X13202752Y-14737524D02*
X13183705Y-14747048D01*
X13183705Y-14747048D02*
X13174181Y-14756571D01*
X13174181Y-14756571D02*
X13155133Y-14785143D01*
X13155133Y-14785143D02*
X13145609Y-14823238D01*
X13145609Y-14823238D02*
X13145609Y-14899428D01*
X13145609Y-14899428D02*
X13155133Y-14918476D01*
X13155133Y-14918476D02*
X13164657Y-14928000D01*
X13164657Y-14928000D02*
X13183705Y-14937524D01*
X13183705Y-14937524D02*
X13221800Y-14937524D01*
X13221800Y-14937524D02*
X13240848Y-14928000D01*
X13240848Y-14928000D02*
X13250371Y-14918476D01*
X13250371Y-14918476D02*
X13259895Y-14899428D01*
X13259895Y-14899428D02*
X13259895Y-14851809D01*
X13259895Y-14851809D02*
X13250371Y-14832762D01*
X13250371Y-14832762D02*
X13240848Y-14823238D01*
X13240848Y-14823238D02*
X13221800Y-14813714D01*
X13221800Y-14813714D02*
X13183705Y-14813714D01*
X13183705Y-14813714D02*
X13164657Y-14823238D01*
X13164657Y-14823238D02*
X13155133Y-14832762D01*
X13155133Y-14832762D02*
X13145609Y-14851809D01*
X13440848Y-14737524D02*
X13345609Y-14737524D01*
X13345609Y-14737524D02*
X13336086Y-14832762D01*
X13336086Y-14832762D02*
X13345609Y-14823238D01*
X13345609Y-14823238D02*
X13364657Y-14813714D01*
X13364657Y-14813714D02*
X13412276Y-14813714D01*
X13412276Y-14813714D02*
X13431324Y-14823238D01*
X13431324Y-14823238D02*
X13440848Y-14832762D01*
X13440848Y-14832762D02*
X13450371Y-14851809D01*
X13450371Y-14851809D02*
X13450371Y-14899428D01*
X13450371Y-14899428D02*
X13440848Y-14918476D01*
X13440848Y-14918476D02*
X13431324Y-14928000D01*
X13431324Y-14928000D02*
X13412276Y-14937524D01*
X13412276Y-14937524D02*
X13364657Y-14937524D01*
X13364657Y-14937524D02*
X13345609Y-14928000D01*
X13345609Y-14928000D02*
X13336086Y-14918476D01*
X13574181Y-14737524D02*
X13593229Y-14737524D01*
X13593229Y-14737524D02*
X13612276Y-14747048D01*
X13612276Y-14747048D02*
X13621800Y-14756571D01*
X13621800Y-14756571D02*
X13631324Y-14775619D01*
X13631324Y-14775619D02*
X13640848Y-14813714D01*
X13640848Y-14813714D02*
X13640848Y-14861333D01*
X13640848Y-14861333D02*
X13631324Y-14899428D01*
X13631324Y-14899428D02*
X13621800Y-14918476D01*
X13621800Y-14918476D02*
X13612276Y-14928000D01*
X13612276Y-14928000D02*
X13593229Y-14937524D01*
X13593229Y-14937524D02*
X13574181Y-14937524D01*
X13574181Y-14937524D02*
X13555133Y-14928000D01*
X13555133Y-14928000D02*
X13545609Y-14918476D01*
X13545609Y-14918476D02*
X13536086Y-14899428D01*
X13536086Y-14899428D02*
X13526562Y-14861333D01*
X13526562Y-14861333D02*
X13526562Y-14813714D01*
X13526562Y-14813714D02*
X13536086Y-14775619D01*
X13536086Y-14775619D02*
X13545609Y-14756571D01*
X13545609Y-14756571D02*
X13555133Y-14747048D01*
X13555133Y-14747048D02*
X13574181Y-14737524D01*
X13726562Y-14937524D02*
X13726562Y-14804190D01*
X13726562Y-14823238D02*
X13736086Y-14813714D01*
X13736086Y-14813714D02*
X13755133Y-14804190D01*
X13755133Y-14804190D02*
X13783705Y-14804190D01*
X13783705Y-14804190D02*
X13802752Y-14813714D01*
X13802752Y-14813714D02*
X13812276Y-14832762D01*
X13812276Y-14832762D02*
X13812276Y-14937524D01*
X13812276Y-14832762D02*
X13821800Y-14813714D01*
X13821800Y-14813714D02*
X13840848Y-14804190D01*
X13840848Y-14804190D02*
X13869419Y-14804190D01*
X13869419Y-14804190D02*
X13888467Y-14813714D01*
X13888467Y-14813714D02*
X13897990Y-14832762D01*
X13897990Y-14832762D02*
X13897990Y-14937524D01*
X13993229Y-14937524D02*
X13993229Y-14804190D01*
X13993229Y-14823238D02*
X14002752Y-14813714D01*
X14002752Y-14813714D02*
X14021800Y-14804190D01*
X14021800Y-14804190D02*
X14050371Y-14804190D01*
X14050371Y-14804190D02*
X14069419Y-14813714D01*
X14069419Y-14813714D02*
X14078943Y-14832762D01*
X14078943Y-14832762D02*
X14078943Y-14937524D01*
X14078943Y-14832762D02*
X14088467Y-14813714D01*
X14088467Y-14813714D02*
X14107514Y-14804190D01*
X14107514Y-14804190D02*
X14136086Y-14804190D01*
X14136086Y-14804190D02*
X14155133Y-14813714D01*
X14155133Y-14813714D02*
X14164657Y-14832762D01*
X14164657Y-14832762D02*
X14164657Y-14937524D01*
X14555133Y-14728000D02*
X14383705Y-14985143D01*
X14812276Y-14737524D02*
X14831324Y-14737524D01*
X14831324Y-14737524D02*
X14850372Y-14747048D01*
X14850372Y-14747048D02*
X14859895Y-14756571D01*
X14859895Y-14756571D02*
X14869419Y-14775619D01*
X14869419Y-14775619D02*
X14878943Y-14813714D01*
X14878943Y-14813714D02*
X14878943Y-14861333D01*
X14878943Y-14861333D02*
X14869419Y-14899428D01*
X14869419Y-14899428D02*
X14859895Y-14918476D01*
X14859895Y-14918476D02*
X14850372Y-14928000D01*
X14850372Y-14928000D02*
X14831324Y-14937524D01*
X14831324Y-14937524D02*
X14812276Y-14937524D01*
X14812276Y-14937524D02*
X14793229Y-14928000D01*
X14793229Y-14928000D02*
X14783705Y-14918476D01*
X14783705Y-14918476D02*
X14774181Y-14899428D01*
X14774181Y-14899428D02*
X14764657Y-14861333D01*
X14764657Y-14861333D02*
X14764657Y-14813714D01*
X14764657Y-14813714D02*
X14774181Y-14775619D01*
X14774181Y-14775619D02*
X14783705Y-14756571D01*
X14783705Y-14756571D02*
X14793229Y-14747048D01*
X14793229Y-14747048D02*
X14812276Y-14737524D01*
X14964657Y-14918476D02*
X14974181Y-14928000D01*
X14974181Y-14928000D02*
X14964657Y-14937524D01*
X14964657Y-14937524D02*
X14955133Y-14928000D01*
X14955133Y-14928000D02*
X14964657Y-14918476D01*
X14964657Y-14918476D02*
X14964657Y-14937524D01*
X15097991Y-14737524D02*
X15117038Y-14737524D01*
X15117038Y-14737524D02*
X15136086Y-14747048D01*
X15136086Y-14747048D02*
X15145610Y-14756571D01*
X15145610Y-14756571D02*
X15155133Y-14775619D01*
X15155133Y-14775619D02*
X15164657Y-14813714D01*
X15164657Y-14813714D02*
X15164657Y-14861333D01*
X15164657Y-14861333D02*
X15155133Y-14899428D01*
X15155133Y-14899428D02*
X15145610Y-14918476D01*
X15145610Y-14918476D02*
X15136086Y-14928000D01*
X15136086Y-14928000D02*
X15117038Y-14937524D01*
X15117038Y-14937524D02*
X15097991Y-14937524D01*
X15097991Y-14937524D02*
X15078943Y-14928000D01*
X15078943Y-14928000D02*
X15069419Y-14918476D01*
X15069419Y-14918476D02*
X15059895Y-14899428D01*
X15059895Y-14899428D02*
X15050372Y-14861333D01*
X15050372Y-14861333D02*
X15050372Y-14813714D01*
X15050372Y-14813714D02*
X15059895Y-14775619D01*
X15059895Y-14775619D02*
X15069419Y-14756571D01*
X15069419Y-14756571D02*
X15078943Y-14747048D01*
X15078943Y-14747048D02*
X15097991Y-14737524D01*
X15240848Y-14756571D02*
X15250372Y-14747048D01*
X15250372Y-14747048D02*
X15269419Y-14737524D01*
X15269419Y-14737524D02*
X15317038Y-14737524D01*
X15317038Y-14737524D02*
X15336086Y-14747048D01*
X15336086Y-14747048D02*
X15345610Y-14756571D01*
X15345610Y-14756571D02*
X15355133Y-14775619D01*
X15355133Y-14775619D02*
X15355133Y-14794667D01*
X15355133Y-14794667D02*
X15345610Y-14823238D01*
X15345610Y-14823238D02*
X15231324Y-14937524D01*
X15231324Y-14937524D02*
X15355133Y-14937524D01*
X15536086Y-14737524D02*
X15440848Y-14737524D01*
X15440848Y-14737524D02*
X15431324Y-14832762D01*
X15431324Y-14832762D02*
X15440848Y-14823238D01*
X15440848Y-14823238D02*
X15459895Y-14813714D01*
X15459895Y-14813714D02*
X15507514Y-14813714D01*
X15507514Y-14813714D02*
X15526562Y-14823238D01*
X15526562Y-14823238D02*
X15536086Y-14832762D01*
X15536086Y-14832762D02*
X15545610Y-14851809D01*
X15545610Y-14851809D02*
X15545610Y-14899428D01*
X15545610Y-14899428D02*
X15536086Y-14918476D01*
X15536086Y-14918476D02*
X15526562Y-14928000D01*
X15526562Y-14928000D02*
X15507514Y-14937524D01*
X15507514Y-14937524D02*
X15459895Y-14937524D01*
X15459895Y-14937524D02*
X15440848Y-14928000D01*
X15440848Y-14928000D02*
X15431324Y-14918476D01*
X15717038Y-14737524D02*
X15678943Y-14737524D01*
X15678943Y-14737524D02*
X15659895Y-14747048D01*
X15659895Y-14747048D02*
X15650372Y-14756571D01*
X15650372Y-14756571D02*
X15631324Y-14785143D01*
X15631324Y-14785143D02*
X15621800Y-14823238D01*
X15621800Y-14823238D02*
X15621800Y-14899428D01*
X15621800Y-14899428D02*
X15631324Y-14918476D01*
X15631324Y-14918476D02*
X15640848Y-14928000D01*
X15640848Y-14928000D02*
X15659895Y-14937524D01*
X15659895Y-14937524D02*
X15697991Y-14937524D01*
X15697991Y-14937524D02*
X15717038Y-14928000D01*
X15717038Y-14928000D02*
X15726562Y-14918476D01*
X15726562Y-14918476D02*
X15736086Y-14899428D01*
X15736086Y-14899428D02*
X15736086Y-14851809D01*
X15736086Y-14851809D02*
X15726562Y-14832762D01*
X15726562Y-14832762D02*
X15717038Y-14823238D01*
X15717038Y-14823238D02*
X15697991Y-14813714D01*
X15697991Y-14813714D02*
X15659895Y-14813714D01*
X15659895Y-14813714D02*
X15640848Y-14823238D01*
X15640848Y-14823238D02*
X15631324Y-14832762D01*
X15631324Y-14832762D02*
X15621800Y-14851809D01*
X15812276Y-14737524D02*
X15812276Y-14775619D01*
X15888467Y-14737524D02*
X15888467Y-14775619D01*
X16183705Y-15013714D02*
X16174181Y-15004190D01*
X16174181Y-15004190D02*
X16155134Y-14975619D01*
X16155134Y-14975619D02*
X16145610Y-14956571D01*
X16145610Y-14956571D02*
X16136086Y-14928000D01*
X16136086Y-14928000D02*
X16126562Y-14880381D01*
X16126562Y-14880381D02*
X16126562Y-14842286D01*
X16126562Y-14842286D02*
X16136086Y-14794667D01*
X16136086Y-14794667D02*
X16145610Y-14766095D01*
X16145610Y-14766095D02*
X16155134Y-14747048D01*
X16155134Y-14747048D02*
X16174181Y-14718476D01*
X16174181Y-14718476D02*
X16183705Y-14708952D01*
X16250372Y-14756571D02*
X16259895Y-14747048D01*
X16259895Y-14747048D02*
X16278943Y-14737524D01*
X16278943Y-14737524D02*
X16326562Y-14737524D01*
X16326562Y-14737524D02*
X16345610Y-14747048D01*
X16345610Y-14747048D02*
X16355134Y-14756571D01*
X16355134Y-14756571D02*
X16364657Y-14775619D01*
X16364657Y-14775619D02*
X16364657Y-14794667D01*
X16364657Y-14794667D02*
X16355134Y-14823238D01*
X16355134Y-14823238D02*
X16240848Y-14937524D01*
X16240848Y-14937524D02*
X16364657Y-14937524D01*
X16602753Y-14937524D02*
X16602753Y-14737524D01*
X16688467Y-14937524D02*
X16688467Y-14832762D01*
X16688467Y-14832762D02*
X16678943Y-14813714D01*
X16678943Y-14813714D02*
X16659896Y-14804190D01*
X16659896Y-14804190D02*
X16631324Y-14804190D01*
X16631324Y-14804190D02*
X16612276Y-14813714D01*
X16612276Y-14813714D02*
X16602753Y-14823238D01*
X16812277Y-14937524D02*
X16793229Y-14928000D01*
X16793229Y-14928000D02*
X16783705Y-14918476D01*
X16783705Y-14918476D02*
X16774181Y-14899428D01*
X16774181Y-14899428D02*
X16774181Y-14842286D01*
X16774181Y-14842286D02*
X16783705Y-14823238D01*
X16783705Y-14823238D02*
X16793229Y-14813714D01*
X16793229Y-14813714D02*
X16812277Y-14804190D01*
X16812277Y-14804190D02*
X16840848Y-14804190D01*
X16840848Y-14804190D02*
X16859896Y-14813714D01*
X16859896Y-14813714D02*
X16869419Y-14823238D01*
X16869419Y-14823238D02*
X16878943Y-14842286D01*
X16878943Y-14842286D02*
X16878943Y-14899428D01*
X16878943Y-14899428D02*
X16869419Y-14918476D01*
X16869419Y-14918476D02*
X16859896Y-14928000D01*
X16859896Y-14928000D02*
X16840848Y-14937524D01*
X16840848Y-14937524D02*
X16812277Y-14937524D01*
X16993229Y-14937524D02*
X16974181Y-14928000D01*
X16974181Y-14928000D02*
X16964658Y-14908952D01*
X16964658Y-14908952D02*
X16964658Y-14737524D01*
X17145610Y-14928000D02*
X17126562Y-14937524D01*
X17126562Y-14937524D02*
X17088467Y-14937524D01*
X17088467Y-14937524D02*
X17069419Y-14928000D01*
X17069419Y-14928000D02*
X17059896Y-14908952D01*
X17059896Y-14908952D02*
X17059896Y-14832762D01*
X17059896Y-14832762D02*
X17069419Y-14813714D01*
X17069419Y-14813714D02*
X17088467Y-14804190D01*
X17088467Y-14804190D02*
X17126562Y-14804190D01*
X17126562Y-14804190D02*
X17145610Y-14813714D01*
X17145610Y-14813714D02*
X17155134Y-14832762D01*
X17155134Y-14832762D02*
X17155134Y-14851809D01*
X17155134Y-14851809D02*
X17059896Y-14870857D01*
X17231324Y-14928000D02*
X17250372Y-14937524D01*
X17250372Y-14937524D02*
X17288467Y-14937524D01*
X17288467Y-14937524D02*
X17307515Y-14928000D01*
X17307515Y-14928000D02*
X17317039Y-14908952D01*
X17317039Y-14908952D02*
X17317039Y-14899428D01*
X17317039Y-14899428D02*
X17307515Y-14880381D01*
X17307515Y-14880381D02*
X17288467Y-14870857D01*
X17288467Y-14870857D02*
X17259896Y-14870857D01*
X17259896Y-14870857D02*
X17240848Y-14861333D01*
X17240848Y-14861333D02*
X17231324Y-14842286D01*
X17231324Y-14842286D02*
X17231324Y-14832762D01*
X17231324Y-14832762D02*
X17240848Y-14813714D01*
X17240848Y-14813714D02*
X17259896Y-14804190D01*
X17259896Y-14804190D02*
X17288467Y-14804190D01*
X17288467Y-14804190D02*
X17307515Y-14813714D01*
X17383705Y-15013714D02*
X17393229Y-15004190D01*
X17393229Y-15004190D02*
X17412277Y-14975619D01*
X17412277Y-14975619D02*
X17421800Y-14956571D01*
X17421800Y-14956571D02*
X17431324Y-14928000D01*
X17431324Y-14928000D02*
X17440848Y-14880381D01*
X17440848Y-14880381D02*
X17440848Y-14842286D01*
X17440848Y-14842286D02*
X17431324Y-14794667D01*
X17431324Y-14794667D02*
X17421800Y-14766095D01*
X17421800Y-14766095D02*
X17412277Y-14747048D01*
X17412277Y-14747048D02*
X17393229Y-14718476D01*
X17393229Y-14718476D02*
X17383705Y-14708952D01*
X17745610Y-15013714D02*
X17736086Y-15004190D01*
X17736086Y-15004190D02*
X17717039Y-14975619D01*
X17717039Y-14975619D02*
X17707515Y-14956571D01*
X17707515Y-14956571D02*
X17697991Y-14928000D01*
X17697991Y-14928000D02*
X17688467Y-14880381D01*
X17688467Y-14880381D02*
X17688467Y-14842286D01*
X17688467Y-14842286D02*
X17697991Y-14794667D01*
X17697991Y-14794667D02*
X17707515Y-14766095D01*
X17707515Y-14766095D02*
X17717039Y-14747048D01*
X17717039Y-14747048D02*
X17736086Y-14718476D01*
X17736086Y-14718476D02*
X17745610Y-14708952D01*
X17821800Y-14804190D02*
X17821800Y-14937524D01*
X17821800Y-14823238D02*
X17831324Y-14813714D01*
X17831324Y-14813714D02*
X17850372Y-14804190D01*
X17850372Y-14804190D02*
X17878943Y-14804190D01*
X17878943Y-14804190D02*
X17897991Y-14813714D01*
X17897991Y-14813714D02*
X17907515Y-14832762D01*
X17907515Y-14832762D02*
X17907515Y-14937524D01*
X18031324Y-14937524D02*
X18012277Y-14928000D01*
X18012277Y-14928000D02*
X18002753Y-14918476D01*
X18002753Y-14918476D02*
X17993229Y-14899428D01*
X17993229Y-14899428D02*
X17993229Y-14842286D01*
X17993229Y-14842286D02*
X18002753Y-14823238D01*
X18002753Y-14823238D02*
X18012277Y-14813714D01*
X18012277Y-14813714D02*
X18031324Y-14804190D01*
X18031324Y-14804190D02*
X18059896Y-14804190D01*
X18059896Y-14804190D02*
X18078943Y-14813714D01*
X18078943Y-14813714D02*
X18088467Y-14823238D01*
X18088467Y-14823238D02*
X18097991Y-14842286D01*
X18097991Y-14842286D02*
X18097991Y-14899428D01*
X18097991Y-14899428D02*
X18088467Y-14918476D01*
X18088467Y-14918476D02*
X18078943Y-14928000D01*
X18078943Y-14928000D02*
X18059896Y-14937524D01*
X18059896Y-14937524D02*
X18031324Y-14937524D01*
X18155134Y-14804190D02*
X18231324Y-14804190D01*
X18183705Y-14737524D02*
X18183705Y-14908952D01*
X18183705Y-14908952D02*
X18193229Y-14928000D01*
X18193229Y-14928000D02*
X18212277Y-14937524D01*
X18212277Y-14937524D02*
X18231324Y-14937524D01*
X18450372Y-14804190D02*
X18450372Y-15004190D01*
X18450372Y-14813714D02*
X18469420Y-14804190D01*
X18469420Y-14804190D02*
X18507515Y-14804190D01*
X18507515Y-14804190D02*
X18526562Y-14813714D01*
X18526562Y-14813714D02*
X18536086Y-14823238D01*
X18536086Y-14823238D02*
X18545610Y-14842286D01*
X18545610Y-14842286D02*
X18545610Y-14899428D01*
X18545610Y-14899428D02*
X18536086Y-14918476D01*
X18536086Y-14918476D02*
X18526562Y-14928000D01*
X18526562Y-14928000D02*
X18507515Y-14937524D01*
X18507515Y-14937524D02*
X18469420Y-14937524D01*
X18469420Y-14937524D02*
X18450372Y-14928000D01*
X18659896Y-14937524D02*
X18640848Y-14928000D01*
X18640848Y-14928000D02*
X18631324Y-14908952D01*
X18631324Y-14908952D02*
X18631324Y-14737524D01*
X18821801Y-14937524D02*
X18821801Y-14832762D01*
X18821801Y-14832762D02*
X18812277Y-14813714D01*
X18812277Y-14813714D02*
X18793229Y-14804190D01*
X18793229Y-14804190D02*
X18755134Y-14804190D01*
X18755134Y-14804190D02*
X18736086Y-14813714D01*
X18821801Y-14928000D02*
X18802753Y-14937524D01*
X18802753Y-14937524D02*
X18755134Y-14937524D01*
X18755134Y-14937524D02*
X18736086Y-14928000D01*
X18736086Y-14928000D02*
X18726562Y-14908952D01*
X18726562Y-14908952D02*
X18726562Y-14889905D01*
X18726562Y-14889905D02*
X18736086Y-14870857D01*
X18736086Y-14870857D02*
X18755134Y-14861333D01*
X18755134Y-14861333D02*
X18802753Y-14861333D01*
X18802753Y-14861333D02*
X18821801Y-14851809D01*
X18888467Y-14804190D02*
X18964658Y-14804190D01*
X18917039Y-14737524D02*
X18917039Y-14908952D01*
X18917039Y-14908952D02*
X18926562Y-14928000D01*
X18926562Y-14928000D02*
X18945610Y-14937524D01*
X18945610Y-14937524D02*
X18964658Y-14937524D01*
X19107515Y-14928000D02*
X19088467Y-14937524D01*
X19088467Y-14937524D02*
X19050372Y-14937524D01*
X19050372Y-14937524D02*
X19031324Y-14928000D01*
X19031324Y-14928000D02*
X19021801Y-14908952D01*
X19021801Y-14908952D02*
X19021801Y-14832762D01*
X19021801Y-14832762D02*
X19031324Y-14813714D01*
X19031324Y-14813714D02*
X19050372Y-14804190D01*
X19050372Y-14804190D02*
X19088467Y-14804190D01*
X19088467Y-14804190D02*
X19107515Y-14813714D01*
X19107515Y-14813714D02*
X19117039Y-14832762D01*
X19117039Y-14832762D02*
X19117039Y-14851809D01*
X19117039Y-14851809D02*
X19021801Y-14870857D01*
X19288467Y-14937524D02*
X19288467Y-14737524D01*
X19288467Y-14928000D02*
X19269420Y-14937524D01*
X19269420Y-14937524D02*
X19231324Y-14937524D01*
X19231324Y-14937524D02*
X19212277Y-14928000D01*
X19212277Y-14928000D02*
X19202753Y-14918476D01*
X19202753Y-14918476D02*
X19193229Y-14899428D01*
X19193229Y-14899428D02*
X19193229Y-14842286D01*
X19193229Y-14842286D02*
X19202753Y-14823238D01*
X19202753Y-14823238D02*
X19212277Y-14813714D01*
X19212277Y-14813714D02*
X19231324Y-14804190D01*
X19231324Y-14804190D02*
X19269420Y-14804190D01*
X19269420Y-14804190D02*
X19288467Y-14813714D01*
X19364658Y-15013714D02*
X19374182Y-15004190D01*
X19374182Y-15004190D02*
X19393229Y-14975619D01*
X19393229Y-14975619D02*
X19402753Y-14956571D01*
X19402753Y-14956571D02*
X19412277Y-14928000D01*
X19412277Y-14928000D02*
X19421801Y-14880381D01*
X19421801Y-14880381D02*
X19421801Y-14842286D01*
X19421801Y-14842286D02*
X19412277Y-14794667D01*
X19412277Y-14794667D02*
X19402753Y-14766095D01*
X19402753Y-14766095D02*
X19393229Y-14747048D01*
X19393229Y-14747048D02*
X19374182Y-14718476D01*
X19374182Y-14718476D02*
X19364658Y-14708952D01*
M02*
