G04 #@! TF.GenerationSoftware,KiCad,Pcbnew,7.0.1-3b83917a11~172~ubuntu22.04.1*
G04 #@! TF.CreationDate,2023-04-17T14:06:39+02:00*
G04 #@! TF.ProjectId,AcousticDetection_HW,41636f75-7374-4696-9344-657465637469,rev?*
G04 #@! TF.SameCoordinates,Original*
G04 #@! TF.FileFunction,Copper,L1,Top*
G04 #@! TF.FilePolarity,Positive*
%FSLAX46Y46*%
G04 Gerber Fmt 4.6, Leading zero omitted, Abs format (unit mm)*
G04 Created by KiCad (PCBNEW 7.0.1-3b83917a11~172~ubuntu22.04.1) date 2023-04-17 14:06:39*
%MOMM*%
%LPD*%
G01*
G04 APERTURE LIST*
G04 Aperture macros list*
%AMRoundRect*
0 Rectangle with rounded corners*
0 $1 Rounding radius*
0 $2 $3 $4 $5 $6 $7 $8 $9 X,Y pos of 4 corners*
0 Add a 4 corners polygon primitive as box body*
4,1,4,$2,$3,$4,$5,$6,$7,$8,$9,$2,$3,0*
0 Add four circle primitives for the rounded corners*
1,1,$1+$1,$2,$3*
1,1,$1+$1,$4,$5*
1,1,$1+$1,$6,$7*
1,1,$1+$1,$8,$9*
0 Add four rect primitives between the rounded corners*
20,1,$1+$1,$2,$3,$4,$5,0*
20,1,$1+$1,$4,$5,$6,$7,0*
20,1,$1+$1,$6,$7,$8,$9,0*
20,1,$1+$1,$8,$9,$2,$3,0*%
%AMFreePoly0*
4,1,512,-0.607988,0.789500,-0.607976,0.789495,-0.607965,0.789499,-0.564965,0.786499,-0.564947,0.786490,-0.564929,0.786495,-0.522930,0.780495,-0.522918,0.780488,-0.522904,0.780491,-0.481904,0.772491,-0.481894,0.772484,-0.481884,0.772486,-0.439884,0.762486,-0.439872,0.762477,-0.439856,0.762479,-0.399857,0.750479,-0.399847,0.750471,-0.399835,0.750472,-0.359835,0.736472,-0.359824,0.736462,
-0.359810,0.736463,-0.320811,0.720463,-0.320802,0.720454,-0.320790,0.720454,-0.281791,0.702454,-0.281776,0.702437,-0.281753,0.702435,-0.244753,0.681435,-0.244747,0.681428,-0.244739,0.681427,-0.208739,0.659427,-0.208730,0.659414,-0.208717,0.659412,-0.173717,0.635412,-0.173709,0.635400,-0.173696,0.635397,-0.139696,0.609397,-0.139689,0.609385,-0.139678,0.609382,-0.107677,0.582382,
-0.107670,0.582369,-0.107658,0.582365,-0.076658,0.553365,-0.076650,0.553349,-0.076635,0.553342,-0.047635,0.522342,-0.047629,0.522328,-0.047618,0.522322,-0.020618,0.490322,-0.020614,0.490310,-0.020603,0.490304,0.005397,0.456304,0.005400,0.456290,0.005412,0.456283,0.029412,0.421283,0.029414,0.421269,0.029427,0.421261,0.051427,0.385261,0.051428,0.385252,0.051435,0.385247,
0.072435,0.348247,0.072437,0.348225,0.072454,0.348210,0.090454,0.309210,0.090454,0.309198,0.090463,0.309190,0.106462,0.270190,0.106462,0.270176,0.106472,0.270165,0.120472,0.230165,0.120471,0.230153,0.120479,0.230144,0.132479,0.190144,0.132477,0.190127,0.132486,0.190116,0.142486,0.148116,0.142484,0.148105,0.142491,0.148096,0.150491,0.107096,0.150488,0.107082,
0.150495,0.107071,0.156495,0.065071,0.156490,0.065052,0.156499,0.065035,0.159499,0.022034,0.159495,0.022022,0.159500,0.022012,0.160500,-0.019988,0.160497,-0.019994,0.160500,-0.020000,0.160500,-0.050000,0.160497,-0.050005,0.160500,-0.050012,0.159500,-0.091012,0.159494,-0.091023,0.159499,-0.091036,0.156499,-0.132036,0.156489,-0.132055,0.156494,-0.132075,0.150494,-0.172074,
0.150491,-0.172078,0.150493,-0.172086,0.143493,-0.212086,0.143482,-0.212102,0.143485,-0.212121,0.133485,-0.252121,0.133480,-0.252127,0.133481,-0.252135,0.122481,-0.291136,0.122470,-0.291149,0.122471,-0.291169,0.108471,-0.330169,0.108462,-0.330177,0.108463,-0.330188,0.093463,-0.367188,0.093451,-0.367200,0.093450,-0.367219,0.075450,-0.404219,0.075438,-0.404229,0.075437,-0.404242,
0.055437,-0.440243,0.055430,-0.440248,0.055429,-0.440257,0.034429,-0.475257,0.034413,-0.475268,0.034410,-0.475286,0.011410,-0.508286,0.011400,-0.508292,0.011398,-0.508302,-0.013601,-0.541302,-0.013613,-0.541309,-0.013617,-0.541321,-0.039617,-0.572321,-0.039628,-0.572327,-0.039634,-0.572341,-0.067634,-0.602341,-0.067651,-0.602349,-0.067659,-0.602365,-0.097659,-0.630366,-0.097672,-0.630371,
-0.097679,-0.630383,-0.128679,-0.656383,-0.128690,-0.656386,-0.128698,-0.656399,-0.161698,-0.681399,-0.161708,-0.681401,-0.161714,-0.681410,-0.194714,-0.704410,-0.194730,-0.704413,-0.194742,-0.704429,-0.229743,-0.725429,-0.229751,-0.725430,-0.229757,-0.725437,-0.265757,-0.745437,-0.265770,-0.745438,-0.265781,-0.745450,-0.302781,-0.763450,-0.302799,-0.763451,-0.302812,-0.763463,-0.339812,-0.778463,
-0.339823,-0.778462,-0.339831,-0.778470,-0.378831,-0.792471,-0.378850,-0.792470,-0.378864,-0.792481,-0.417864,-0.803481,-0.417872,-0.803480,-0.417879,-0.803485,-0.457879,-0.813485,-0.457898,-0.813482,-0.457914,-0.813492,-0.497914,-0.820493,-0.497920,-0.820491,-0.497926,-0.820495,-0.537926,-0.826494,-0.537944,-0.826489,-0.537963,-0.826499,-0.578964,-0.829499,-0.578976,-0.829494,-0.578988,-0.829500,
-0.619988,-0.830500,-0.619994,-0.830497,-0.620000,-0.830500,-0.630000,-0.830500,-0.630005,-0.830497,-0.630011,-0.830500,-0.673012,-0.829500,-0.673028,-0.829492,-0.673046,-0.829498,-0.717045,-0.825498,-0.717050,-0.825495,-0.717057,-0.825497,-0.760058,-0.820497,-0.760073,-0.820488,-0.760091,-0.820492,-0.803091,-0.812492,-0.803103,-0.812483,-0.803116,-0.812486,-0.845116,-0.802486,-0.845130,-0.802475,
-0.845151,-0.802477,-0.886151,-0.789477,-0.886156,-0.789472,-0.886162,-0.789473,-0.927162,-0.775473,-0.927174,-0.775462,-0.927191,-0.775462,-0.968192,-0.758462,-0.968199,-0.758454,-0.968210,-0.758454,-1.007210,-0.740454,-1.007222,-0.740440,-1.007241,-0.740438,-1.045242,-0.719438,-1.045250,-0.719427,-1.045264,-0.719425,-1.082264,-0.696425,-1.082272,-0.696413,-1.082285,-0.696411,-1.118285,-0.671411,
-1.118291,-0.671400,-1.118304,-0.671397,-1.152304,-0.645397,-1.152310,-0.645385,-1.152324,-0.645381,-1.185323,-0.617381,-1.185329,-0.617368,-1.185342,-0.617364,-1.217342,-0.587365,-1.217349,-0.587349,-1.217365,-0.587342,-1.247365,-0.555342,-1.247370,-0.555328,-1.247381,-0.555323,-1.275381,-0.522323,-1.275384,-0.522311,-1.275397,-0.522304,-1.301397,-0.488304,-1.301400,-0.488291,-1.301411,-0.488285,
-1.326411,-0.452285,-1.326413,-0.452272,-1.326425,-0.452264,-1.349425,-0.415264,-1.349427,-0.415249,-1.349437,-0.415242,-1.370438,-0.377242,-1.370440,-0.377221,-1.370454,-0.377209,-1.388454,-0.338210,-1.388454,-0.338199,-1.388462,-0.338192,-1.405462,-0.297192,-1.405462,-0.297173,-1.405473,-0.297161,-1.419473,-0.256162,-1.419472,-0.256156,-1.419477,-0.256151,-1.432477,-0.215151,-1.432475,-0.215130,
-1.432486,-0.215116,-1.442486,-0.173116,-1.442484,-0.173104,-1.442492,-0.173092,-1.450492,-0.130091,-1.450488,-0.130073,-1.450497,-0.130058,-1.455497,-0.087058,-1.455494,-0.087050,-1.455498,-0.087045,-1.459498,-0.043045,-1.459492,-0.043028,-1.459500,-0.043012,-1.460500,-0.000012,-1.460495,0.000000,-1.460500,0.000014,-1.459500,0.037014,-1.459495,0.037024,-1.459499,0.037036,-1.456499,0.078037,
-1.456490,0.078053,-1.456495,0.078072,-1.450495,0.119073,-1.450491,0.119078,-1.450493,0.119084,-1.443493,0.160084,-1.443483,0.160099,-1.443486,0.160118,-1.433486,0.201119,-1.433477,0.201130,-1.433479,0.201144,-1.421479,0.241143,-1.421470,0.241153,-1.421471,0.241169,-1.407470,0.280169,-1.407461,0.280178,-1.407461,0.280194,-1.391461,0.318194,-1.391452,0.318202,-1.391452,0.318214,
-1.373452,0.356214,-1.373445,0.356219,-1.373445,0.356228,-1.354445,0.393228,-1.354426,0.393243,-1.354423,0.393266,-1.332423,0.428266,-1.332411,0.428274,-1.332408,0.428288,-1.308409,0.462288,-1.308401,0.462292,-1.308399,0.462302,-1.283399,0.495302,-1.283385,0.495309,-1.283382,0.495322,-1.256382,0.527323,-1.256365,0.527331,-1.256359,0.527348,-1.227360,0.557347,-1.227351,0.557350,
-1.227348,0.557359,-1.197348,0.586359,-1.197330,0.586365,-1.197322,0.586382,-1.165322,0.613382,-1.165309,0.613385,-1.165302,0.613399,-1.132302,0.638398,-1.132292,0.638400,-1.132288,0.638408,-1.098289,0.662408,-1.098274,0.662411,-1.098266,0.662423,-1.063266,0.684423,-1.063243,0.684426,-1.063228,0.684445,-1.026229,0.703445,-1.026219,0.703445,-1.026214,0.703452,-0.988214,0.721452,
-0.988202,0.721452,-0.988194,0.721461,-0.950194,0.737461,-0.950179,0.737461,-0.950169,0.737471,-0.911169,0.751471,-0.911154,0.751470,-0.911144,0.751479,-0.871144,0.763479,-0.871129,0.763477,-0.871118,0.763486,-0.830118,0.773486,-0.830099,0.773483,-0.830084,0.773493,-0.789084,0.780493,-0.789077,0.780491,-0.789072,0.780495,-0.748072,0.786495,-0.748053,0.786490,-0.748036,0.786499,
-0.707036,0.789499,-0.707023,0.789494,-0.707011,0.789500,-0.660010,0.790500,-0.660004,0.790497,-0.660000,0.790500,-0.659831,0.790430,-0.659653,0.790361,-0.659650,0.790355,-0.659646,0.790354,-0.659580,0.790194,-0.659500,0.790011,-0.659502,0.790005,-0.659500,0.790000,-0.659500,0.490000,-0.659573,0.489821,-0.659633,0.489660,-0.659641,0.489655,-0.659646,0.489646,-0.659815,0.489576,
-0.659981,0.489500,-0.685967,0.488500,-0.711954,0.486501,-0.737928,0.483504,-0.763895,0.478511,-0.788870,0.472517,-0.814848,0.465522,-0.838808,0.456538,-0.862808,0.446538,-0.886778,0.435551,-0.909731,0.422578,-0.953710,0.394591,-0.974687,0.378609,-0.994666,0.361627,-1.013646,0.343646,-1.031627,0.324666,-1.048609,0.304687,-1.064591,0.283710,-1.092572,0.239739,-1.105551,0.216778,
-1.116538,0.192808,-1.126538,0.168809,-1.135522,0.144848,-1.142517,0.118870,-1.148509,0.093905,-1.153504,0.067928,-1.156501,0.041962,-1.158500,0.015981,-1.159500,-0.010017,-1.159500,-0.039981,-1.158500,-0.065981,-1.156503,-0.090943,-1.153504,-0.116928,-1.148514,-0.141883,-1.142520,-0.166860,-1.135521,-0.190853,-1.126534,-0.215818,-1.117539,-0.238803,-1.106554,-0.261772,-1.093570,-0.284746,
-1.080580,-0.306726,-1.065593,-0.327709,-1.050610,-0.347686,-1.033635,-0.367656,-0.997662,-0.403630,-0.977685,-0.420610,-0.957709,-0.435593,-0.936718,-0.450586,-0.914754,-0.463565,-0.891773,-0.476554,-0.868803,-0.487539,-0.845816,-0.496535,-0.820848,-0.505523,-0.796869,-0.512517,-0.771887,-0.518512,-0.746928,-0.523504,-0.720941,-0.526503,-0.695981,-0.528500,-0.669981,-0.529500,-0.660019,-0.529500,
-0.633028,-0.528500,-0.606037,-0.526501,-0.579077,-0.523505,-0.552102,-0.518510,-0.525130,-0.511517,-0.499155,-0.504523,-0.474179,-0.494533,-0.448200,-0.484541,-0.424238,-0.472560,-0.400243,-0.459563,-0.377270,-0.445579,-0.354298,-0.430597,-0.333322,-0.413618,-0.312325,-0.395620,-0.292354,-0.377646,-0.274372,-0.357666,-0.256389,-0.336685,-0.239406,-0.315707,-0.224419,-0.292727,-0.210436,-0.269756,
-0.197447,-0.245776,-0.185458,-0.221799,-0.175467,-0.195820,-0.165476,-0.170844,-0.158482,-0.144869,-0.151489,-0.117894,-0.146494,-0.090922,-0.143499,-0.063963,-0.141499,-0.036963,-0.140500,-0.009998,-0.141499,0.019967,-0.144497,0.046945,-0.148494,0.072924,-0.153487,0.098889,-0.167473,0.148836,-0.177464,0.173814,-0.187457,0.197796,-0.199447,0.221776,-0.212422,0.244731,-0.226415,0.266722,
-0.242398,0.288697,-0.258382,0.309676,-0.294351,0.347643,-0.314324,0.365619,-0.334312,0.382609,-0.355289,0.398591,-0.377268,0.412578,-0.400246,0.426564,-0.424208,0.438545,-0.448200,0.449541,-0.472179,0.459532,-0.497130,0.467517,-0.523130,0.474517,-0.549093,0.480508,-0.575057,0.484503,-0.601042,0.487501,-0.627025,0.489500,-0.650000,0.489500,-0.650354,0.489646,-0.650500,0.490000,
-0.650500,0.790000,-0.650497,0.790005,-0.650500,0.790012,-0.650427,0.790174,-0.650354,0.790354,-0.650347,0.790356,-0.650345,0.790362,-0.650179,0.790426,-0.650000,0.790500,-0.649994,0.790497,-0.649988,0.790500,-0.607988,0.789500,-0.607988,0.789500,$1*%
G04 Aperture macros list end*
G04 #@! TA.AperFunction,SMDPad,CuDef*
%ADD10R,0.600000X0.522000*%
G04 #@! TD*
G04 #@! TA.AperFunction,SMDPad,CuDef*
%ADD11FreePoly0,0.000000*%
G04 #@! TD*
G04 #@! TA.AperFunction,SMDPad,CuDef*
%ADD12RoundRect,0.250000X0.350000X0.450000X-0.350000X0.450000X-0.350000X-0.450000X0.350000X-0.450000X0*%
G04 #@! TD*
G04 #@! TA.AperFunction,SMDPad,CuDef*
%ADD13R,1.800000X4.000000*%
G04 #@! TD*
G04 #@! TA.AperFunction,SMDPad,CuDef*
%ADD14RoundRect,0.250000X-0.350000X-0.450000X0.350000X-0.450000X0.350000X0.450000X-0.350000X0.450000X0*%
G04 #@! TD*
G04 #@! TA.AperFunction,SMDPad,CuDef*
%ADD15R,1.150000X0.600000*%
G04 #@! TD*
G04 #@! TA.AperFunction,SMDPad,CuDef*
%ADD16R,1.150000X0.300000*%
G04 #@! TD*
G04 #@! TA.AperFunction,ComponentPad*
%ADD17O,2.100000X1.000000*%
G04 #@! TD*
G04 #@! TA.AperFunction,ComponentPad*
%ADD18O,1.800000X1.000000*%
G04 #@! TD*
G04 #@! TA.AperFunction,SMDPad,CuDef*
%ADD19RoundRect,0.250000X-0.475000X0.337500X-0.475000X-0.337500X0.475000X-0.337500X0.475000X0.337500X0*%
G04 #@! TD*
G04 #@! TA.AperFunction,SMDPad,CuDef*
%ADD20R,4.000000X1.800000*%
G04 #@! TD*
G04 #@! TA.AperFunction,SMDPad,CuDef*
%ADD21RoundRect,0.250000X0.475000X-0.337500X0.475000X0.337500X-0.475000X0.337500X-0.475000X-0.337500X0*%
G04 #@! TD*
G04 #@! TA.AperFunction,SMDPad,CuDef*
%ADD22RoundRect,0.237500X0.237500X-0.250000X0.237500X0.250000X-0.237500X0.250000X-0.237500X-0.250000X0*%
G04 #@! TD*
G04 #@! TA.AperFunction,SMDPad,CuDef*
%ADD23RoundRect,0.237500X-0.300000X-0.237500X0.300000X-0.237500X0.300000X0.237500X-0.300000X0.237500X0*%
G04 #@! TD*
G04 #@! TA.AperFunction,ComponentPad*
%ADD24R,1.700000X1.700000*%
G04 #@! TD*
G04 #@! TA.AperFunction,ComponentPad*
%ADD25O,1.700000X1.700000*%
G04 #@! TD*
G04 #@! TA.AperFunction,SMDPad,CuDef*
%ADD26R,2.000000X1.500000*%
G04 #@! TD*
G04 #@! TA.AperFunction,SMDPad,CuDef*
%ADD27R,2.000000X3.800000*%
G04 #@! TD*
G04 #@! TA.AperFunction,SMDPad,CuDef*
%ADD28RoundRect,0.237500X0.300000X0.237500X-0.300000X0.237500X-0.300000X-0.237500X0.300000X-0.237500X0*%
G04 #@! TD*
G04 #@! TA.AperFunction,SMDPad,CuDef*
%ADD29R,1.000000X1.250000*%
G04 #@! TD*
G04 #@! TA.AperFunction,SMDPad,CuDef*
%ADD30RoundRect,0.250000X0.650000X-0.412500X0.650000X0.412500X-0.650000X0.412500X-0.650000X-0.412500X0*%
G04 #@! TD*
G04 #@! TA.AperFunction,SMDPad,CuDef*
%ADD31RoundRect,0.250000X-0.450000X0.350000X-0.450000X-0.350000X0.450000X-0.350000X0.450000X0.350000X0*%
G04 #@! TD*
G04 #@! TA.AperFunction,SMDPad,CuDef*
%ADD32R,1.500000X0.900000*%
G04 #@! TD*
G04 #@! TA.AperFunction,SMDPad,CuDef*
%ADD33R,0.900000X1.500000*%
G04 #@! TD*
G04 #@! TA.AperFunction,SMDPad,CuDef*
%ADD34R,1.050000X1.050000*%
G04 #@! TD*
G04 #@! TA.AperFunction,HeatsinkPad*
%ADD35C,0.600000*%
G04 #@! TD*
G04 #@! TA.AperFunction,SMDPad,CuDef*
%ADD36R,4.200000X4.200000*%
G04 #@! TD*
G04 #@! TA.AperFunction,SMDPad,CuDef*
%ADD37RoundRect,0.250000X0.412500X0.650000X-0.412500X0.650000X-0.412500X-0.650000X0.412500X-0.650000X0*%
G04 #@! TD*
G04 #@! TA.AperFunction,SMDPad,CuDef*
%ADD38RoundRect,0.250000X0.450000X-0.350000X0.450000X0.350000X-0.450000X0.350000X-0.450000X-0.350000X0*%
G04 #@! TD*
G04 #@! TA.AperFunction,SMDPad,CuDef*
%ADD39RoundRect,0.250000X-0.650000X0.412500X-0.650000X-0.412500X0.650000X-0.412500X0.650000X0.412500X0*%
G04 #@! TD*
G04 #@! TA.AperFunction,ViaPad*
%ADD40C,0.800000*%
G04 #@! TD*
G04 #@! TA.AperFunction,ViaPad*
%ADD41C,0.600000*%
G04 #@! TD*
G04 #@! TA.AperFunction,Conductor*
%ADD42C,0.600000*%
G04 #@! TD*
G04 #@! TA.AperFunction,Conductor*
%ADD43C,0.200000*%
G04 #@! TD*
G04 #@! TA.AperFunction,Conductor*
%ADD44C,0.250000*%
G04 #@! TD*
G04 APERTURE END LIST*
D10*
X128368000Y-134286000D03*
X128368000Y-135108000D03*
D11*
X129918000Y-136340000D03*
D10*
X130168000Y-135108000D03*
X130168000Y-134286000D03*
X129268000Y-134286000D03*
D12*
X160644000Y-91444000D03*
X158644000Y-91444000D03*
D13*
X131368000Y-56360000D03*
X129268000Y-56360000D03*
X127168000Y-56360000D03*
D14*
X163708000Y-76534000D03*
X165708000Y-76534000D03*
D15*
X162926500Y-95912000D03*
X162926500Y-95112000D03*
D16*
X162926500Y-93962000D03*
X162926500Y-92962000D03*
X162926500Y-92462000D03*
X162926500Y-91462000D03*
D15*
X162926500Y-90312000D03*
X162926500Y-89512000D03*
X162926500Y-89512000D03*
X162926500Y-90312000D03*
D16*
X162926500Y-90962000D03*
X162926500Y-91962000D03*
X162926500Y-93462000D03*
X162926500Y-94462000D03*
D15*
X162926500Y-95112000D03*
X162926500Y-95912000D03*
D17*
X163501500Y-97032000D03*
D18*
X167681500Y-97032000D03*
D17*
X163501500Y-88392000D03*
D18*
X167681500Y-88392000D03*
D19*
X141365500Y-65592000D03*
X141365500Y-67667000D03*
D20*
X168761500Y-55296000D03*
X168761500Y-57396000D03*
X168761500Y-59496000D03*
D21*
X139340000Y-72653500D03*
X139340000Y-70578500D03*
D10*
X175368000Y-134286000D03*
X175368000Y-135108000D03*
D11*
X176918000Y-136340000D03*
D10*
X177168000Y-135108000D03*
X177168000Y-134286000D03*
X176268000Y-134286000D03*
D22*
X127736000Y-132568500D03*
X127736000Y-130743500D03*
D23*
X174425500Y-132588000D03*
X176150500Y-132588000D03*
D24*
X167788000Y-71632000D03*
D25*
X167788000Y-69092000D03*
X167788000Y-66552000D03*
X167788000Y-64012000D03*
D21*
X141372000Y-72653500D03*
X141372000Y-70578500D03*
D26*
X137752500Y-91176000D03*
X137752500Y-93476000D03*
D27*
X144052500Y-93476000D03*
D26*
X137752500Y-95776000D03*
D28*
X131110500Y-131052000D03*
X129385500Y-131052000D03*
D29*
X138761500Y-86175000D03*
X138761500Y-78425000D03*
D30*
X147468000Y-96054500D03*
X147468000Y-92929500D03*
D31*
X152040000Y-91516000D03*
X152040000Y-93516000D03*
D32*
X144011500Y-66146000D03*
X144011500Y-67416000D03*
X144011500Y-68686000D03*
X144011500Y-69956000D03*
X144011500Y-71226000D03*
X144011500Y-72496000D03*
X144011500Y-73766000D03*
X144011500Y-75036000D03*
X144011500Y-76306000D03*
X144011500Y-77576000D03*
X144011500Y-78846000D03*
X144011500Y-80116000D03*
X144011500Y-81386000D03*
X144011500Y-82656000D03*
D33*
X147051500Y-83906000D03*
X148321500Y-83906000D03*
X149591500Y-83906000D03*
X150861500Y-83906000D03*
X152131500Y-83906000D03*
X153401500Y-83906000D03*
X154671500Y-83906000D03*
X155941500Y-83906000D03*
X157211500Y-83906000D03*
X158481500Y-83906000D03*
D32*
X161511500Y-82656000D03*
X161511500Y-81386000D03*
X161511500Y-80116000D03*
X161511500Y-78846000D03*
X161511500Y-77576000D03*
X161511500Y-76306000D03*
X161511500Y-75036000D03*
X161511500Y-73766000D03*
X161511500Y-72496000D03*
X161511500Y-71226000D03*
X161511500Y-69956000D03*
X161511500Y-68686000D03*
X161511500Y-67416000D03*
X161511500Y-66146000D03*
D34*
X150556500Y-71961000D03*
D35*
X150556500Y-72723500D03*
D34*
X150556500Y-73486000D03*
D35*
X150556500Y-74248500D03*
D34*
X150556500Y-75011000D03*
D35*
X151319000Y-71961000D03*
X151319000Y-73486000D03*
X151319000Y-75011000D03*
D34*
X152081500Y-71961000D03*
D35*
X152081500Y-72723500D03*
D34*
X152081500Y-73486000D03*
D36*
X152081500Y-73486000D03*
D35*
X152081500Y-74248500D03*
D34*
X152081500Y-75011000D03*
D35*
X152844000Y-71961000D03*
X152844000Y-73486000D03*
X152844000Y-75011000D03*
D34*
X153606500Y-71961000D03*
D35*
X153606500Y-72723500D03*
D34*
X153606500Y-73486000D03*
D35*
X153606500Y-74248500D03*
D34*
X153606500Y-75011000D03*
D31*
X154065500Y-91537500D03*
X154065500Y-93537500D03*
D37*
X144497000Y-88396000D03*
X141372000Y-88396000D03*
D20*
X136761500Y-59496000D03*
X136761500Y-57396000D03*
X136761500Y-55296000D03*
D28*
X131110500Y-132576000D03*
X129385500Y-132576000D03*
D38*
X137308000Y-72616000D03*
X137308000Y-70616000D03*
D13*
X178368000Y-56360000D03*
X176268000Y-56360000D03*
X174168000Y-56360000D03*
D12*
X160644000Y-93476000D03*
X158644000Y-93476000D03*
D24*
X148961500Y-86928000D03*
D25*
X151501500Y-86928000D03*
X154041500Y-86928000D03*
X156581500Y-86928000D03*
D39*
X137809500Y-65553500D03*
X137809500Y-68678500D03*
D23*
X174425500Y-131064000D03*
X176150500Y-131064000D03*
D29*
X166761500Y-86175000D03*
X166761500Y-78425000D03*
D14*
X163724000Y-74502000D03*
X165724000Y-74502000D03*
D22*
X177800000Y-132580500D03*
X177800000Y-130755500D03*
D40*
X140356000Y-74680000D03*
X146960000Y-88904000D03*
X159289569Y-90428500D03*
X154580000Y-80776000D03*
X137816000Y-63504000D03*
X140897500Y-58932000D03*
D41*
X176276000Y-133604000D03*
X178191500Y-133604000D03*
X156612000Y-60747500D03*
X167280000Y-61355500D03*
X157628000Y-72140000D03*
X157628000Y-61472000D03*
X165756000Y-60964000D03*
X163216000Y-61472000D03*
X174244000Y-129540000D03*
X127228000Y-134844000D03*
X128752000Y-131796000D03*
X128752000Y-128748000D03*
X131292000Y-128494000D03*
X152040000Y-90428000D03*
X154072000Y-90428000D03*
X176784000Y-129540000D03*
D42*
X136292000Y-97540000D02*
X158644000Y-97540000D01*
D43*
X168938000Y-66075654D02*
X168264346Y-65402000D01*
D42*
X140982500Y-88396000D02*
X138761500Y-86175000D01*
X168804000Y-80467500D02*
X168804000Y-87269500D01*
X147468000Y-89243840D02*
X147299840Y-89243840D01*
X137752500Y-91176000D02*
X136052000Y-91176000D01*
X135784000Y-91444000D02*
X135784000Y-97032000D01*
X135784000Y-97032000D02*
X136292000Y-97540000D01*
X160272000Y-95912000D02*
X162926500Y-95912000D01*
D43*
X168264346Y-65402000D02*
X162255500Y-65402000D01*
D42*
X141372000Y-73664000D02*
X140356000Y-74680000D01*
X158644000Y-91444000D02*
X158644000Y-91074069D01*
X162926500Y-96457000D02*
X163501500Y-97032000D01*
X167681500Y-97032000D02*
X163501500Y-97032000D01*
X136052000Y-91176000D02*
X135784000Y-91444000D01*
X141372000Y-88396000D02*
X140982500Y-88396000D01*
X141365500Y-65592000D02*
X137848000Y-65592000D01*
X167681500Y-88392000D02*
X163501500Y-88392000D01*
X137848000Y-65592000D02*
X137809500Y-65553500D01*
X148831500Y-80776000D02*
X152040000Y-80776000D01*
X152081500Y-73486000D02*
X152081500Y-80734500D01*
X166761500Y-78425000D02*
X168804000Y-80467500D01*
X147468000Y-92929500D02*
X147468000Y-89243840D01*
X152081500Y-80734500D02*
X152040000Y-80776000D01*
X152040000Y-80776000D02*
X154580000Y-80776000D01*
D43*
X162255500Y-65402000D02*
X161511500Y-66146000D01*
D42*
X144011500Y-66146000D02*
X141919500Y-66146000D01*
X162926500Y-95912000D02*
X162926500Y-96457000D01*
D43*
X168938000Y-70482000D02*
X168938000Y-66075654D01*
D42*
X163501500Y-88392000D02*
X163501500Y-88937000D01*
D43*
X167788000Y-71632000D02*
X168938000Y-70482000D01*
D42*
X147299840Y-89243840D02*
X146960000Y-88904000D01*
X141372000Y-72653500D02*
X139340000Y-72653500D01*
X147051500Y-82556000D02*
X148831500Y-80776000D01*
X167681500Y-88392000D02*
X167681500Y-97032000D01*
X163501500Y-88937000D02*
X162926500Y-89512000D01*
X147051500Y-83906000D02*
X147051500Y-82556000D01*
X158644000Y-91074069D02*
X159289569Y-90428500D01*
X137809500Y-63510500D02*
X137816000Y-63504000D01*
X168804000Y-87269500D02*
X167681500Y-88392000D01*
X137809500Y-65553500D02*
X135108000Y-68255000D01*
X135108000Y-82521500D02*
X138761500Y-86175000D01*
X141919500Y-66146000D02*
X141365500Y-65592000D01*
X158644000Y-97540000D02*
X160272000Y-95912000D01*
X137809500Y-65553500D02*
X137809500Y-63510500D01*
X141372000Y-88396000D02*
X140532500Y-88396000D01*
X140532500Y-88396000D02*
X137752500Y-91176000D01*
X141372000Y-72653500D02*
X141372000Y-73664000D01*
X158644000Y-91444000D02*
X158644000Y-93476000D01*
X135108000Y-68255000D02*
X135108000Y-82521500D01*
D44*
X141372000Y-70578500D02*
X143264500Y-68686000D01*
X141372000Y-70578500D02*
X141372000Y-71027827D01*
X141372000Y-70578500D02*
X139340000Y-70578500D01*
X143264500Y-68686000D02*
X144011500Y-68686000D01*
X142422000Y-72077827D02*
X142422000Y-74764500D01*
X137345500Y-70578500D02*
X137308000Y-70616000D01*
X139340000Y-70578500D02*
X137345500Y-70578500D01*
X142422000Y-74764500D02*
X138761500Y-78425000D01*
X141372000Y-71027827D02*
X142422000Y-72077827D01*
D42*
X141616500Y-67416000D02*
X141365500Y-67667000D01*
X140897500Y-62521500D02*
X142388000Y-64012000D01*
X144011500Y-67416000D02*
X141616500Y-67416000D01*
X137308000Y-81207000D02*
X137308000Y-72616000D01*
X135908000Y-71756000D02*
X136768000Y-72616000D01*
X152040000Y-93516000D02*
X151464000Y-94092000D01*
X144497000Y-88396000D02*
X144497000Y-93031500D01*
X137101997Y-68678500D02*
X135908000Y-69872497D01*
X137809500Y-68678500D02*
X137101997Y-68678500D01*
X135908000Y-69872497D02*
X135908000Y-71756000D01*
X144941500Y-67416000D02*
X144011500Y-67416000D01*
X140897500Y-58932000D02*
X140897500Y-62521500D01*
X144941500Y-67416000D02*
X148345500Y-64012000D01*
X151464000Y-94092000D02*
X144668500Y-94092000D01*
X136768000Y-72616000D02*
X137308000Y-72616000D01*
X144497000Y-93031500D02*
X144052500Y-93476000D01*
X144497000Y-88396000D02*
X137308000Y-81207000D01*
X167788000Y-64012000D02*
X148345500Y-64012000D01*
X142388000Y-64012000D02*
X148345500Y-64012000D01*
X144668500Y-94092000D02*
X144052500Y-93476000D01*
X141365500Y-67667000D02*
X138821000Y-67667000D01*
X144052500Y-93476000D02*
X137752500Y-93476000D01*
X138821000Y-67667000D02*
X137809500Y-68678500D01*
X157120000Y-90936000D02*
X157120000Y-95112000D01*
X157120000Y-95112000D02*
X148410500Y-95112000D01*
X138500500Y-96524000D02*
X146998500Y-96524000D01*
X162926500Y-90312000D02*
X161372660Y-90312000D01*
X161372660Y-90312000D02*
X160589660Y-89529000D01*
X160589660Y-89529000D02*
X158527000Y-89529000D01*
X146998500Y-96524000D02*
X147468000Y-96054500D01*
X148410500Y-95112000D02*
X147468000Y-96054500D01*
X158527000Y-89529000D02*
X157120000Y-90936000D01*
X162926500Y-95112000D02*
X157120000Y-95112000D01*
X137752500Y-95776000D02*
X138500500Y-96524000D01*
D44*
X162904500Y-93984000D02*
X162926500Y-93962000D01*
X160644000Y-93476000D02*
X161152000Y-93984000D01*
X161152000Y-93984000D02*
X162904500Y-93984000D01*
X160644000Y-91444000D02*
X161126000Y-90962000D01*
X161126000Y-90962000D02*
X162926500Y-90962000D01*
X161511500Y-76306000D02*
X163480000Y-76306000D01*
X163480000Y-76306000D02*
X163708000Y-76534000D01*
X163190000Y-75036000D02*
X163724000Y-74502000D01*
X161511500Y-75036000D02*
X163190000Y-75036000D01*
X142936500Y-83431000D02*
X142936500Y-81751500D01*
X142936500Y-81751500D02*
X143302000Y-81386000D01*
X143302000Y-81386000D02*
X144011500Y-81386000D01*
X148961500Y-86928000D02*
X146433500Y-86928000D01*
X146433500Y-86928000D02*
X142936500Y-83431000D01*
X176276000Y-134278000D02*
X176268000Y-134286000D01*
X176276000Y-133604000D02*
X176276000Y-134278000D01*
X177800000Y-132580500D02*
X177800000Y-133212500D01*
X177800000Y-133212500D02*
X178191500Y-133604000D01*
X129268000Y-134286000D02*
X129268000Y-133775000D01*
X128813000Y-133320000D02*
X128487500Y-133320000D01*
X129268000Y-133775000D02*
X128813000Y-133320000D01*
X128487500Y-133320000D02*
X127736000Y-132568500D01*
X151501500Y-86928000D02*
X150004500Y-85431000D01*
X146786500Y-85431000D02*
X144011500Y-82656000D01*
X150004500Y-85431000D02*
X146786500Y-85431000D01*
X148396500Y-84981000D02*
X148321500Y-84906000D01*
X152094500Y-84981000D02*
X148396500Y-84981000D01*
X148321500Y-84906000D02*
X148321500Y-83906000D01*
X154041500Y-86928000D02*
X152094500Y-84981000D01*
X157211500Y-86298000D02*
X157211500Y-83906000D01*
X156581500Y-86928000D02*
X157211500Y-86298000D01*
X169813000Y-60547500D02*
X168761500Y-59496000D01*
X169813000Y-73799396D02*
X169813000Y-60547500D01*
X156612000Y-60747500D02*
X145011097Y-60747500D01*
X167293500Y-60964000D02*
X167293500Y-61342000D01*
X167408396Y-76204000D02*
X169813000Y-73799396D01*
X168761500Y-59496000D02*
X167293500Y-60964000D01*
X139559597Y-55296000D02*
X136761500Y-55296000D01*
X145011097Y-60747500D02*
X139559597Y-55296000D01*
X167293500Y-61342000D02*
X167280000Y-61355500D01*
X165708000Y-76204000D02*
X167408396Y-76204000D01*
X168976000Y-62097000D02*
X169363000Y-62484000D01*
X168804000Y-74172000D02*
X169363000Y-73613000D01*
X166511500Y-55296000D02*
X168761500Y-55296000D01*
X164623000Y-62097000D02*
X168976000Y-62097000D01*
X164740000Y-57067500D02*
X166511500Y-55296000D01*
X141197805Y-58207000D02*
X145087805Y-62097000D01*
X145087805Y-62097000D02*
X164623000Y-62097000D01*
X169363000Y-73613000D02*
X169363000Y-62484000D01*
X136761500Y-59496000D02*
X139308195Y-59496000D01*
X139308195Y-59496000D02*
X140597195Y-58207000D01*
X164623000Y-62097000D02*
X164740000Y-61980000D01*
X140597195Y-58207000D02*
X141197805Y-58207000D01*
X165724000Y-74172000D02*
X168804000Y-74172000D01*
X164740000Y-61980000D02*
X164740000Y-57067500D01*
X161511500Y-72496000D02*
X157984000Y-72496000D01*
X141023201Y-57396000D02*
X145013601Y-61386400D01*
X167311500Y-57396000D02*
X165756000Y-58951500D01*
X157628000Y-61472000D02*
X163216000Y-61472000D01*
X145099201Y-61472000D02*
X157628000Y-61472000D01*
X136761500Y-57396000D02*
X141023201Y-57396000D01*
X157984000Y-72496000D02*
X157628000Y-72140000D01*
X145013601Y-61386400D02*
X145099201Y-61472000D01*
X168761500Y-57396000D02*
X167311500Y-57396000D01*
X165756000Y-58951500D02*
X165756000Y-60964000D01*
X174425500Y-129721500D02*
X174244000Y-129540000D01*
X176918000Y-136593883D02*
X176918000Y-136340000D01*
X174425500Y-136285269D02*
X174425500Y-134946500D01*
X174425500Y-134946500D02*
X174425500Y-132588000D01*
X174425500Y-131064000D02*
X174425500Y-129721500D01*
X174587000Y-135108000D02*
X174425500Y-134946500D01*
X175368000Y-135108000D02*
X174587000Y-135108000D01*
X175125231Y-136985000D02*
X176526883Y-136985000D01*
X176526883Y-136985000D02*
X176918000Y-136593883D01*
X174425500Y-136285269D02*
X175125231Y-136985000D01*
X174425500Y-131064000D02*
X174425500Y-132588000D01*
X129385500Y-131052000D02*
X129385500Y-129381500D01*
X128368000Y-135108000D02*
X127492000Y-135108000D01*
X129385500Y-132576000D02*
X129385500Y-131670500D01*
X128752000Y-131796000D02*
X129260000Y-131796000D01*
X129385500Y-129381500D02*
X128752000Y-128748000D01*
X130168000Y-133711396D02*
X130168000Y-134286000D01*
X129260000Y-131796000D02*
X129385500Y-131670500D01*
X129385500Y-131670500D02*
X129385500Y-131052000D01*
X129385500Y-132576000D02*
X129385500Y-132928896D01*
X127492000Y-135108000D02*
X127228000Y-134844000D01*
X129385500Y-132928896D02*
X130168000Y-133711396D01*
X130812000Y-136340000D02*
X129918000Y-136340000D01*
X131110500Y-132576000D02*
X131292000Y-132757500D01*
X131292000Y-132757500D02*
X131292000Y-135860000D01*
X131110500Y-131052000D02*
X131110500Y-128675500D01*
X131110500Y-128675500D02*
X131292000Y-128494000D01*
X131292000Y-135860000D02*
X130812000Y-136340000D01*
X131110500Y-132576000D02*
X131110500Y-131052000D01*
X152040000Y-91516000D02*
X152040000Y-90428000D01*
X154065500Y-91537500D02*
X154065500Y-90434500D01*
X154065500Y-90434500D02*
X154072000Y-90428000D01*
X177718000Y-135108000D02*
X178816000Y-134010000D01*
X179012000Y-57004000D02*
X178368000Y-56360000D01*
X178816000Y-134010000D02*
X178816000Y-129540000D01*
X179012000Y-129344000D02*
X179012000Y-57004000D01*
X178816000Y-129540000D02*
X179012000Y-129344000D01*
X177168000Y-135108000D02*
X177718000Y-135108000D01*
X176268000Y-58610000D02*
X176268000Y-56360000D01*
X178562000Y-127762000D02*
X178562000Y-60904000D01*
X177800000Y-128524000D02*
X178562000Y-127762000D01*
X177800000Y-130755500D02*
X177800000Y-128524000D01*
X178562000Y-60904000D02*
X176268000Y-58610000D01*
X175368000Y-134286000D02*
X175288000Y-134206000D01*
X175288000Y-127536000D02*
X173736000Y-125984000D01*
X175288000Y-134206000D02*
X175288000Y-127536000D01*
X173736000Y-125984000D02*
X173736000Y-56792000D01*
X173736000Y-56792000D02*
X174168000Y-56360000D01*
X130793000Y-133700000D02*
X130248000Y-133155000D01*
X131800000Y-126716000D02*
X131800000Y-56792000D01*
X130793000Y-135033000D02*
X130793000Y-133700000D01*
X130168000Y-135108000D02*
X130718000Y-135108000D01*
X131800000Y-56792000D02*
X131368000Y-56360000D01*
X130248000Y-128268000D02*
X131800000Y-126716000D01*
X130248000Y-133155000D02*
X130248000Y-128268000D01*
X130718000Y-135108000D02*
X130793000Y-135033000D01*
X129268000Y-57661000D02*
X129268000Y-56360000D01*
X126974000Y-127478000D02*
X126974000Y-59955000D01*
X127736000Y-130743500D02*
X127736000Y-128240000D01*
X127736000Y-128240000D02*
X126974000Y-127478000D01*
X126974000Y-59955000D02*
X129268000Y-57661000D01*
X126524000Y-128044000D02*
X126524000Y-57004000D01*
X126720000Y-128240000D02*
X126524000Y-128044000D01*
X126720000Y-133188000D02*
X126720000Y-128240000D01*
X126524000Y-57004000D02*
X127168000Y-56360000D01*
X127818000Y-134286000D02*
X126720000Y-133188000D01*
X128368000Y-134286000D02*
X127818000Y-134286000D01*
X155596000Y-88904000D02*
X158319000Y-88904000D01*
X158481500Y-88741500D02*
X158481500Y-83906000D01*
X154127000Y-93476000D02*
X155596000Y-93476000D01*
X154065500Y-93537500D02*
X154127000Y-93476000D01*
X155596000Y-93476000D02*
X155596000Y-88904000D01*
X158319000Y-88904000D02*
X158481500Y-88741500D01*
D43*
X164384000Y-69956000D02*
X167788000Y-66552000D01*
X161511500Y-69956000D02*
X164384000Y-69956000D01*
X167788000Y-69092000D02*
X165654000Y-71226000D01*
X165654000Y-71226000D02*
X161511500Y-71226000D01*
D44*
X166761500Y-86175000D02*
X165030500Y-86175000D01*
X165030500Y-86175000D02*
X161511500Y-82656000D01*
X177168000Y-133605500D02*
X176150500Y-132588000D01*
X177168000Y-134286000D02*
X177168000Y-133605500D01*
X176150500Y-131064000D02*
X176150500Y-130173500D01*
X176150500Y-132588000D02*
X176150500Y-131064000D01*
X176150500Y-130173500D02*
X176784000Y-129540000D01*
G04 #@! TA.AperFunction,Conductor*
G36*
X140037886Y-59810142D02*
G01*
X140075485Y-59854165D01*
X140089000Y-59910460D01*
X140089000Y-62612599D01*
X140097617Y-62650355D01*
X140099946Y-62664061D01*
X140104282Y-62702543D01*
X140117073Y-62739100D01*
X140120920Y-62752457D01*
X140129539Y-62790219D01*
X140146343Y-62825112D01*
X140151664Y-62837957D01*
X140164457Y-62874516D01*
X140185060Y-62907306D01*
X140191786Y-62919475D01*
X140208590Y-62954369D01*
X140232738Y-62984649D01*
X140240785Y-62995990D01*
X140261389Y-63028782D01*
X140293696Y-63061088D01*
X140293697Y-63061089D01*
X141588623Y-64356014D01*
X141620716Y-64411599D01*
X141620718Y-64475784D01*
X141615500Y-64484823D01*
X141615500Y-65718000D01*
X141598887Y-65780000D01*
X141553500Y-65825387D01*
X141491500Y-65842000D01*
X140140501Y-65842000D01*
X140140501Y-65979479D01*
X140150993Y-66082195D01*
X140206142Y-66248622D01*
X140298183Y-66397845D01*
X140432404Y-66532066D01*
X140431213Y-66533256D01*
X140460715Y-66564071D01*
X140476439Y-66624502D01*
X140460719Y-66684934D01*
X140427017Y-66720141D01*
X140427097Y-66720221D01*
X140423448Y-66723869D01*
X140417540Y-66730042D01*
X140416851Y-66730466D01*
X140378480Y-66768838D01*
X140325134Y-66822183D01*
X140284909Y-66849061D01*
X140237456Y-66858500D01*
X138878408Y-66858500D01*
X138817034Y-66842246D01*
X138771749Y-66797745D01*
X138754427Y-66736664D01*
X138769608Y-66675015D01*
X138813311Y-66628961D01*
X138927846Y-66558315D01*
X139051816Y-66434345D01*
X139143857Y-66285122D01*
X139199006Y-66118696D01*
X139209500Y-66015979D01*
X139209500Y-65803500D01*
X138059500Y-65803500D01*
X138059500Y-66715999D01*
X138384449Y-66715999D01*
X138445645Y-66732152D01*
X138490898Y-66776402D01*
X138508418Y-66837222D01*
X138493640Y-66898764D01*
X138450414Y-66944997D01*
X138435186Y-66954564D01*
X138423026Y-66961284D01*
X138388131Y-66978089D01*
X138357842Y-67002243D01*
X138346507Y-67010286D01*
X138313719Y-67030888D01*
X137873426Y-67471181D01*
X137833198Y-67498061D01*
X137785745Y-67507500D01*
X137108955Y-67507500D01*
X137005074Y-67518112D01*
X136836763Y-67573884D01*
X136685845Y-67666971D01*
X136560471Y-67792345D01*
X136467384Y-67943263D01*
X136411612Y-68111573D01*
X136403133Y-68194570D01*
X136391773Y-68235187D01*
X136367456Y-68269647D01*
X135383278Y-69253826D01*
X135383277Y-69253827D01*
X135383278Y-69253827D01*
X135271887Y-69365218D01*
X135251285Y-69398005D01*
X135243243Y-69409339D01*
X135219089Y-69439628D01*
X135202284Y-69474523D01*
X135195562Y-69486687D01*
X135174958Y-69519479D01*
X135174956Y-69519482D01*
X135174957Y-69519482D01*
X135162163Y-69556043D01*
X135156848Y-69568875D01*
X135140040Y-69603778D01*
X135131419Y-69641544D01*
X135127572Y-69654898D01*
X135114782Y-69691451D01*
X135110446Y-69729935D01*
X135108118Y-69743641D01*
X135099500Y-69781402D01*
X135099500Y-71847099D01*
X135108117Y-71884855D01*
X135110446Y-71898561D01*
X135114782Y-71937043D01*
X135127573Y-71973600D01*
X135131420Y-71986957D01*
X135140039Y-72024719D01*
X135156843Y-72059612D01*
X135162164Y-72072457D01*
X135174957Y-72109016D01*
X135195560Y-72141806D01*
X135202286Y-72153975D01*
X135219090Y-72188869D01*
X135243238Y-72219149D01*
X135251285Y-72230490D01*
X135271889Y-72263282D01*
X135304196Y-72295588D01*
X136079954Y-73071346D01*
X136109979Y-73120023D01*
X136158803Y-73267366D01*
X136165885Y-73288738D01*
X136179737Y-73311195D01*
X136258971Y-73439654D01*
X136384346Y-73565029D01*
X136384348Y-73565030D01*
X136440596Y-73599724D01*
X136483777Y-73644831D01*
X136499500Y-73705263D01*
X136499500Y-81298099D01*
X136508117Y-81335855D01*
X136510446Y-81349561D01*
X136514782Y-81388043D01*
X136514782Y-81388045D01*
X136514783Y-81388047D01*
X136527573Y-81424600D01*
X136531420Y-81437957D01*
X136540039Y-81475719D01*
X136556843Y-81510612D01*
X136562164Y-81523457D01*
X136574957Y-81560016D01*
X136595560Y-81592806D01*
X136602286Y-81604975D01*
X136619090Y-81639869D01*
X136643238Y-81670149D01*
X136651285Y-81681490D01*
X136671889Y-81714282D01*
X136704196Y-81746588D01*
X141741927Y-86784319D01*
X141772177Y-86833682D01*
X141776719Y-86891398D01*
X141754564Y-86944885D01*
X141710541Y-86982485D01*
X141654246Y-86996000D01*
X141622000Y-86996000D01*
X141622000Y-88146000D01*
X142534499Y-88146000D01*
X142534499Y-87876253D01*
X142548014Y-87819958D01*
X142585614Y-87775935D01*
X142639101Y-87753780D01*
X142696817Y-87758322D01*
X142746180Y-87788572D01*
X143289681Y-88332073D01*
X143316561Y-88372301D01*
X143326000Y-88419754D01*
X143326000Y-89096544D01*
X143336612Y-89200425D01*
X143392384Y-89368736D01*
X143392385Y-89368738D01*
X143397222Y-89376580D01*
X143485471Y-89519654D01*
X143610846Y-89645029D01*
X143629596Y-89656594D01*
X143672777Y-89701701D01*
X143688500Y-89762133D01*
X143688500Y-90943500D01*
X143671887Y-91005500D01*
X143626500Y-91050887D01*
X143564500Y-91067500D01*
X143003862Y-91067500D01*
X142976945Y-91070393D01*
X142943294Y-91074011D01*
X142806296Y-91125110D01*
X142689238Y-91212738D01*
X142601610Y-91329796D01*
X142550511Y-91466794D01*
X142544000Y-91527366D01*
X142544000Y-92543500D01*
X142527387Y-92605500D01*
X142482000Y-92650887D01*
X142420000Y-92667500D01*
X139359494Y-92667500D01*
X139310682Y-92657488D01*
X139269751Y-92629070D01*
X139243313Y-92586836D01*
X139203389Y-92479796D01*
X139138575Y-92393215D01*
X139116678Y-92345266D01*
X139116678Y-92292549D01*
X139138578Y-92244596D01*
X139195852Y-92168088D01*
X139246097Y-92033375D01*
X139252500Y-91973824D01*
X139252500Y-91426000D01*
X136252500Y-91426000D01*
X136252500Y-91973824D01*
X136258902Y-92033375D01*
X136309147Y-92168089D01*
X136366421Y-92244597D01*
X136388320Y-92292549D01*
X136388320Y-92345265D01*
X136366422Y-92393218D01*
X136301609Y-92479798D01*
X136250511Y-92616794D01*
X136246893Y-92650445D01*
X136244000Y-92677362D01*
X136244000Y-94274638D01*
X136245317Y-94286887D01*
X136250511Y-94335205D01*
X136301610Y-94472203D01*
X136361113Y-94551690D01*
X136383012Y-94599642D01*
X136383012Y-94652358D01*
X136361113Y-94700310D01*
X136301610Y-94779796D01*
X136250511Y-94916794D01*
X136250477Y-94917113D01*
X136244667Y-94971165D01*
X136244000Y-94977366D01*
X136244000Y-96574634D01*
X136250511Y-96635205D01*
X136301610Y-96772203D01*
X136389238Y-96889261D01*
X136506296Y-96976889D01*
X136643294Y-97027988D01*
X136643297Y-97027988D01*
X136643299Y-97027989D01*
X136703862Y-97034500D01*
X137816246Y-97034500D01*
X137863699Y-97043939D01*
X137903924Y-97070816D01*
X137993219Y-97160111D01*
X138026024Y-97180723D01*
X138037334Y-97188748D01*
X138067631Y-97212909D01*
X138102529Y-97229714D01*
X138114678Y-97236428D01*
X138147485Y-97257043D01*
X138161802Y-97262052D01*
X138184041Y-97269835D01*
X138196887Y-97275156D01*
X138229753Y-97290982D01*
X138231780Y-97291959D01*
X138269536Y-97300576D01*
X138282884Y-97304421D01*
X138319453Y-97317217D01*
X138333982Y-97318853D01*
X138357938Y-97321553D01*
X138371647Y-97323881D01*
X138409404Y-97332500D01*
X138455094Y-97332500D01*
X138591597Y-97332500D01*
X146907403Y-97332500D01*
X147043906Y-97332500D01*
X147089597Y-97332500D01*
X147127359Y-97323880D01*
X147141048Y-97321553D01*
X147179547Y-97317217D01*
X147216124Y-97304417D01*
X147229442Y-97300581D01*
X147267220Y-97291959D01*
X147287898Y-97282000D01*
X161978134Y-97282000D01*
X161978432Y-97283948D01*
X162049064Y-97474663D01*
X162156645Y-97647263D01*
X162296766Y-97794669D01*
X162463694Y-97910855D01*
X162650592Y-97991059D01*
X162849811Y-98032000D01*
X163251500Y-98032000D01*
X163251500Y-97282000D01*
X163751500Y-97282000D01*
X163751500Y-98032000D01*
X164102210Y-98032000D01*
X164253839Y-98016580D01*
X164447889Y-97955696D01*
X164625714Y-97856996D01*
X164780031Y-97724520D01*
X164904521Y-97563692D01*
X164994089Y-97381094D01*
X165019746Y-97282000D01*
X166308134Y-97282000D01*
X166308432Y-97283948D01*
X166379064Y-97474663D01*
X166486645Y-97647263D01*
X166626766Y-97794669D01*
X166793694Y-97910855D01*
X166980592Y-97991059D01*
X167179811Y-98032000D01*
X167431500Y-98032000D01*
X167431500Y-97282000D01*
X167931500Y-97282000D01*
X167931500Y-98032000D01*
X168132210Y-98032000D01*
X168283839Y-98016580D01*
X168477889Y-97955696D01*
X168655714Y-97856996D01*
X168810031Y-97724520D01*
X168934521Y-97563692D01*
X169024089Y-97381094D01*
X169049746Y-97282000D01*
X167931500Y-97282000D01*
X167431500Y-97282000D01*
X166308134Y-97282000D01*
X165019746Y-97282000D01*
X163751500Y-97282000D01*
X163251500Y-97282000D01*
X161978134Y-97282000D01*
X147287898Y-97282000D01*
X147302115Y-97275153D01*
X147314949Y-97269836D01*
X147351515Y-97257043D01*
X147371466Y-97244506D01*
X147437440Y-97225499D01*
X148168545Y-97225499D01*
X148220484Y-97220193D01*
X148272426Y-97214887D01*
X148440738Y-97159115D01*
X148591652Y-97066030D01*
X148717030Y-96940652D01*
X148810115Y-96789738D01*
X148865887Y-96621426D01*
X148876500Y-96517545D01*
X148876499Y-96044499D01*
X148893112Y-95982500D01*
X148938499Y-95937113D01*
X149000499Y-95920500D01*
X157067632Y-95920500D01*
X157081516Y-95921279D01*
X157120000Y-95925616D01*
X157158483Y-95921279D01*
X157172368Y-95920500D01*
X161793638Y-95920500D01*
X161849933Y-95934015D01*
X161893956Y-95971615D01*
X161916111Y-96025102D01*
X161911569Y-96082818D01*
X161881319Y-96132181D01*
X161851500Y-96162000D01*
X161851500Y-96259824D01*
X161857902Y-96319375D01*
X161908147Y-96454089D01*
X161991340Y-96565220D01*
X162015524Y-96627874D01*
X162007923Y-96669624D01*
X162012072Y-96670699D01*
X161983253Y-96781999D01*
X161983253Y-96782000D01*
X165024866Y-96782000D01*
X166313253Y-96782000D01*
X167431500Y-96782000D01*
X167431500Y-96032000D01*
X167931500Y-96032000D01*
X167931500Y-96782000D01*
X169054866Y-96782000D01*
X169054567Y-96780051D01*
X168983935Y-96589336D01*
X168876354Y-96416736D01*
X168736233Y-96269330D01*
X168569305Y-96153144D01*
X168382407Y-96072940D01*
X168183189Y-96032000D01*
X167931500Y-96032000D01*
X167431500Y-96032000D01*
X167230790Y-96032000D01*
X167079160Y-96047419D01*
X166885110Y-96108303D01*
X166707285Y-96207003D01*
X166552968Y-96339479D01*
X166428478Y-96500307D01*
X166338910Y-96682905D01*
X166313253Y-96781999D01*
X166313253Y-96782000D01*
X165024866Y-96782000D01*
X165024567Y-96780051D01*
X164953935Y-96589336D01*
X164846354Y-96416736D01*
X164706233Y-96269330D01*
X164539305Y-96153144D01*
X164508855Y-96140077D01*
X164463754Y-96106995D01*
X164437779Y-96057459D01*
X164436215Y-96001548D01*
X164459379Y-95950641D01*
X164504198Y-95892233D01*
X164562187Y-95752236D01*
X164581966Y-95602000D01*
X164566901Y-95487574D01*
X164562187Y-95451764D01*
X164507303Y-95319263D01*
X164504198Y-95311767D01*
X164411951Y-95191549D01*
X164291733Y-95099302D01*
X164151736Y-95041313D01*
X164131378Y-95038632D01*
X164117814Y-95036847D01*
X164062876Y-95015483D01*
X164024011Y-94971165D01*
X164010000Y-94913908D01*
X164010000Y-94763360D01*
X164005903Y-94725257D01*
X164005903Y-94698743D01*
X164010000Y-94660640D01*
X164010000Y-94263358D01*
X164005903Y-94225255D01*
X164005903Y-94198742D01*
X164010000Y-94160640D01*
X164010000Y-93763367D01*
X164010000Y-93763362D01*
X164005902Y-93725244D01*
X164005902Y-93698744D01*
X164010000Y-93660638D01*
X164010000Y-93263362D01*
X164005903Y-93225254D01*
X164005903Y-93198743D01*
X164010000Y-93160640D01*
X164010000Y-92763360D01*
X164005903Y-92725257D01*
X164005903Y-92698743D01*
X164010000Y-92660640D01*
X164010000Y-92263367D01*
X164010000Y-92263362D01*
X164005902Y-92225244D01*
X164005902Y-92198744D01*
X164010000Y-92160638D01*
X164010000Y-91763362D01*
X164005902Y-91725244D01*
X164005902Y-91698744D01*
X164010000Y-91660638D01*
X164010000Y-91263362D01*
X164005903Y-91225254D01*
X164005903Y-91198742D01*
X164010000Y-91160640D01*
X164010000Y-90763358D01*
X164005903Y-90725255D01*
X164005903Y-90698742D01*
X164010000Y-90660640D01*
X164010000Y-90510092D01*
X164024011Y-90452835D01*
X164062876Y-90408517D01*
X164117814Y-90387153D01*
X164120254Y-90386831D01*
X164151736Y-90382687D01*
X164291733Y-90324698D01*
X164411951Y-90232451D01*
X164504198Y-90112233D01*
X164562187Y-89972236D01*
X164581966Y-89822000D01*
X164577161Y-89785506D01*
X164562187Y-89671764D01*
X164551113Y-89645029D01*
X164504198Y-89531767D01*
X164482508Y-89503500D01*
X164458661Y-89472421D01*
X164436158Y-89424582D01*
X164435628Y-89371717D01*
X164457167Y-89323436D01*
X164496860Y-89288516D01*
X164625714Y-89216996D01*
X164780031Y-89084520D01*
X164904521Y-88923692D01*
X164994089Y-88741094D01*
X165019746Y-88642000D01*
X166308134Y-88642000D01*
X166308432Y-88643948D01*
X166379064Y-88834663D01*
X166486645Y-89007263D01*
X166626766Y-89154669D01*
X166793694Y-89270855D01*
X166980592Y-89351059D01*
X167179811Y-89392000D01*
X167431500Y-89392000D01*
X167431500Y-88642000D01*
X167931500Y-88642000D01*
X167931500Y-89392000D01*
X168132210Y-89392000D01*
X168283839Y-89376580D01*
X168477889Y-89315696D01*
X168655714Y-89216996D01*
X168810031Y-89084520D01*
X168934521Y-88923692D01*
X169024089Y-88741094D01*
X169049746Y-88642000D01*
X167931500Y-88642000D01*
X167431500Y-88642000D01*
X166308134Y-88642000D01*
X165019746Y-88642000D01*
X161978134Y-88642000D01*
X161978431Y-88643944D01*
X162012483Y-88735889D01*
X162018918Y-88796743D01*
X161995468Y-88853265D01*
X161908147Y-88969910D01*
X161857902Y-89104624D01*
X161851500Y-89164176D01*
X161851500Y-89262000D01*
X161881319Y-89291819D01*
X161911569Y-89341182D01*
X161916111Y-89398898D01*
X161893956Y-89452385D01*
X161849933Y-89489985D01*
X161793638Y-89503500D01*
X161758914Y-89503500D01*
X161711461Y-89494061D01*
X161671233Y-89467181D01*
X161129248Y-88925196D01*
X161096942Y-88892889D01*
X161064150Y-88872285D01*
X161052809Y-88864238D01*
X161022529Y-88840090D01*
X160987635Y-88823286D01*
X160975466Y-88816560D01*
X160942676Y-88795957D01*
X160906117Y-88783164D01*
X160893272Y-88777843D01*
X160858379Y-88761039D01*
X160820617Y-88752420D01*
X160807263Y-88748574D01*
X160770707Y-88735783D01*
X160770705Y-88735782D01*
X160770703Y-88735782D01*
X160732221Y-88731446D01*
X160718515Y-88729117D01*
X160680759Y-88720500D01*
X160680757Y-88720500D01*
X160635066Y-88720500D01*
X159239000Y-88720500D01*
X159177000Y-88703887D01*
X159131613Y-88658500D01*
X159115000Y-88596500D01*
X159115000Y-88142000D01*
X161983253Y-88142000D01*
X163251500Y-88142000D01*
X163251500Y-87392000D01*
X163751500Y-87392000D01*
X163751500Y-88142000D01*
X165024866Y-88142000D01*
X165024567Y-88140051D01*
X164953935Y-87949336D01*
X164846354Y-87776736D01*
X164706233Y-87629330D01*
X164539305Y-87513144D01*
X164352407Y-87432940D01*
X164153189Y-87392000D01*
X163751500Y-87392000D01*
X163251500Y-87392000D01*
X162900790Y-87392000D01*
X162749160Y-87407419D01*
X162555110Y-87468303D01*
X162377285Y-87567003D01*
X162222968Y-87699479D01*
X162098478Y-87860307D01*
X162008910Y-88042905D01*
X161983253Y-88141999D01*
X161983253Y-88142000D01*
X159115000Y-88142000D01*
X159115000Y-85215898D01*
X159128116Y-85160393D01*
X159164690Y-85116631D01*
X159188096Y-85099110D01*
X159294761Y-85019261D01*
X159382389Y-84902204D01*
X159433489Y-84765201D01*
X159440000Y-84704638D01*
X159440000Y-83107362D01*
X159433489Y-83046799D01*
X159433488Y-83046797D01*
X159433488Y-83046794D01*
X159382389Y-82909796D01*
X159294761Y-82792738D01*
X159177703Y-82705110D01*
X159040705Y-82654011D01*
X159010419Y-82650755D01*
X158980138Y-82647500D01*
X157982862Y-82647500D01*
X157952580Y-82650755D01*
X157922295Y-82654011D01*
X157889829Y-82666120D01*
X157846498Y-82673937D01*
X157803167Y-82666119D01*
X157770704Y-82654011D01*
X157744745Y-82651220D01*
X157710138Y-82647500D01*
X156712862Y-82647500D01*
X156682580Y-82650755D01*
X156652295Y-82654011D01*
X156619829Y-82666120D01*
X156576498Y-82673937D01*
X156533167Y-82666119D01*
X156500704Y-82654011D01*
X156474745Y-82651220D01*
X156440138Y-82647500D01*
X155442862Y-82647500D01*
X155412580Y-82650755D01*
X155382295Y-82654011D01*
X155349829Y-82666120D01*
X155306498Y-82673937D01*
X155263167Y-82666119D01*
X155230704Y-82654011D01*
X155204745Y-82651220D01*
X155170138Y-82647500D01*
X154172862Y-82647500D01*
X154142580Y-82650755D01*
X154112295Y-82654011D01*
X154079829Y-82666120D01*
X154036498Y-82673937D01*
X153993167Y-82666119D01*
X153960704Y-82654011D01*
X153934745Y-82651220D01*
X153900138Y-82647500D01*
X152902862Y-82647500D01*
X152872580Y-82650755D01*
X152842295Y-82654011D01*
X152809829Y-82666120D01*
X152766498Y-82673937D01*
X152723167Y-82666119D01*
X152690704Y-82654011D01*
X152664745Y-82651220D01*
X152630138Y-82647500D01*
X151632862Y-82647500D01*
X151602580Y-82650755D01*
X151572295Y-82654011D01*
X151539829Y-82666120D01*
X151496498Y-82673937D01*
X151453167Y-82666119D01*
X151420704Y-82654011D01*
X151394745Y-82651220D01*
X151360138Y-82647500D01*
X150362862Y-82647500D01*
X150332580Y-82650755D01*
X150302295Y-82654011D01*
X150269829Y-82666120D01*
X150226498Y-82673937D01*
X150183167Y-82666119D01*
X150150704Y-82654011D01*
X150124745Y-82651220D01*
X150090138Y-82647500D01*
X149092862Y-82647500D01*
X149062580Y-82650755D01*
X149032295Y-82654011D01*
X148999829Y-82666120D01*
X148956498Y-82673937D01*
X148913167Y-82666119D01*
X148880704Y-82654011D01*
X148854745Y-82651220D01*
X148820138Y-82647500D01*
X147822862Y-82647500D01*
X147782486Y-82651840D01*
X147762297Y-82654011D01*
X147717669Y-82670656D01*
X147674338Y-82678473D01*
X147631006Y-82670655D01*
X147608879Y-82662402D01*
X147549324Y-82656000D01*
X147301500Y-82656000D01*
X147301500Y-84032000D01*
X147284887Y-84094000D01*
X147239500Y-84139387D01*
X147177500Y-84156000D01*
X146925500Y-84156000D01*
X146863500Y-84139387D01*
X146818113Y-84094000D01*
X146801500Y-84032000D01*
X146801500Y-82656000D01*
X146553676Y-82656000D01*
X146494124Y-82662402D01*
X146359410Y-82712647D01*
X146244311Y-82798811D01*
X146158147Y-82913910D01*
X146107902Y-83048624D01*
X146101500Y-83108176D01*
X146101500Y-83550733D01*
X146087985Y-83607028D01*
X146050385Y-83651051D01*
X145996898Y-83673206D01*
X145939182Y-83668664D01*
X145889819Y-83638414D01*
X145306319Y-83054914D01*
X145279439Y-83014686D01*
X145270000Y-82967233D01*
X145270000Y-82157366D01*
X145270000Y-82157362D01*
X145263489Y-82096799D01*
X145251379Y-82064332D01*
X145243561Y-82020998D01*
X145251381Y-81977662D01*
X145263488Y-81945203D01*
X145263487Y-81945203D01*
X145263489Y-81945201D01*
X145270000Y-81884638D01*
X145270000Y-80887362D01*
X145263489Y-80826799D01*
X145263488Y-80826795D01*
X145251380Y-80794332D01*
X145243562Y-80750998D01*
X145251381Y-80707664D01*
X145263488Y-80675203D01*
X145263487Y-80675203D01*
X145263489Y-80675201D01*
X145270000Y-80614638D01*
X145270000Y-79617362D01*
X145263489Y-79556799D01*
X145251379Y-79524332D01*
X145243561Y-79480998D01*
X145251381Y-79437662D01*
X145260483Y-79413261D01*
X145263489Y-79405201D01*
X145270000Y-79344638D01*
X145270000Y-78347362D01*
X145263489Y-78286799D01*
X145251379Y-78254331D01*
X145243561Y-78211000D01*
X145251379Y-78167667D01*
X145263489Y-78135201D01*
X145270000Y-78074638D01*
X145270000Y-77077362D01*
X145263489Y-77016799D01*
X145251379Y-76984331D01*
X145243561Y-76940998D01*
X145251381Y-76897662D01*
X145263488Y-76865203D01*
X145263487Y-76865203D01*
X145263489Y-76865201D01*
X145270000Y-76804638D01*
X145270000Y-75807362D01*
X145263489Y-75746799D01*
X145251379Y-75714332D01*
X145243561Y-75670998D01*
X145251381Y-75627662D01*
X145263488Y-75595203D01*
X145263487Y-75595203D01*
X145263489Y-75595201D01*
X145270000Y-75534638D01*
X145270000Y-74537362D01*
X145263489Y-74476799D01*
X145251379Y-74444331D01*
X145243561Y-74400998D01*
X145251381Y-74357662D01*
X145253474Y-74352052D01*
X145263489Y-74325201D01*
X145270000Y-74264638D01*
X145270000Y-73736000D01*
X149481500Y-73736000D01*
X149481500Y-75633824D01*
X149487902Y-75693375D01*
X149538147Y-75828089D01*
X149624311Y-75943188D01*
X149739410Y-76029352D01*
X149874124Y-76079597D01*
X149933676Y-76086000D01*
X151831500Y-76086000D01*
X152331500Y-76086000D01*
X154229324Y-76086000D01*
X154288875Y-76079597D01*
X154423589Y-76029352D01*
X154538688Y-75943188D01*
X154624852Y-75828089D01*
X154675097Y-75693375D01*
X154681500Y-75633824D01*
X154681500Y-73736000D01*
X153856500Y-73736000D01*
X153856500Y-74144947D01*
X153872372Y-74160819D01*
X153904466Y-74216406D01*
X153904466Y-74280594D01*
X153872372Y-74336181D01*
X153856500Y-74352052D01*
X153856500Y-75137000D01*
X153839887Y-75199000D01*
X153794500Y-75244387D01*
X153732500Y-75261000D01*
X152947552Y-75261000D01*
X152931681Y-75276872D01*
X152876094Y-75308966D01*
X152811906Y-75308966D01*
X152756319Y-75276872D01*
X152740447Y-75261000D01*
X152331500Y-75261000D01*
X152331500Y-76086000D01*
X151831500Y-76086000D01*
X151831500Y-75261000D01*
X151422552Y-75261000D01*
X151406681Y-75276872D01*
X151351094Y-75308966D01*
X151286906Y-75308966D01*
X151231319Y-75276872D01*
X151215447Y-75261000D01*
X150430500Y-75261000D01*
X150368500Y-75244387D01*
X150323113Y-75199000D01*
X150306500Y-75137000D01*
X150306500Y-74352054D01*
X150306499Y-74352052D01*
X150290628Y-74336181D01*
X150258534Y-74280594D01*
X150258534Y-74248500D01*
X150910053Y-74248500D01*
X151319000Y-74657447D01*
X151727947Y-74248500D01*
X152435053Y-74248500D01*
X152844000Y-74657447D01*
X153252947Y-74248500D01*
X152844000Y-73839553D01*
X152435053Y-74248500D01*
X151727947Y-74248500D01*
X151319000Y-73839553D01*
X150910053Y-74248500D01*
X150258534Y-74248500D01*
X150258534Y-74216406D01*
X150290628Y-74160819D01*
X150306499Y-74144947D01*
X150306500Y-74144947D01*
X150306500Y-73736000D01*
X149481500Y-73736000D01*
X145270000Y-73736000D01*
X145270000Y-73267362D01*
X145266628Y-73236000D01*
X149481500Y-73236000D01*
X150306500Y-73236000D01*
X150306500Y-72827054D01*
X150306499Y-72827052D01*
X150290628Y-72811181D01*
X150258534Y-72755594D01*
X150258534Y-72723500D01*
X150910053Y-72723500D01*
X151319000Y-73132447D01*
X151727947Y-72723500D01*
X152435053Y-72723500D01*
X152844000Y-73132447D01*
X153252947Y-72723500D01*
X152844000Y-72314553D01*
X152435053Y-72723500D01*
X151727947Y-72723500D01*
X151319000Y-72314553D01*
X150910053Y-72723500D01*
X150258534Y-72723500D01*
X150258534Y-72691406D01*
X150290628Y-72635819D01*
X150306499Y-72619947D01*
X150306500Y-72619947D01*
X150306500Y-71835000D01*
X150323113Y-71773000D01*
X150368500Y-71727613D01*
X150430500Y-71711000D01*
X151215447Y-71711000D01*
X151215447Y-71710999D01*
X151231319Y-71695128D01*
X151286906Y-71663034D01*
X151351094Y-71663034D01*
X151406681Y-71695128D01*
X151422553Y-71711000D01*
X151831500Y-71711000D01*
X151831500Y-70886000D01*
X152331500Y-70886000D01*
X152331500Y-71711000D01*
X152740447Y-71711000D01*
X152740447Y-71710999D01*
X152756319Y-71695128D01*
X152811906Y-71663034D01*
X152876094Y-71663034D01*
X152931681Y-71695128D01*
X152947553Y-71711000D01*
X153732500Y-71711000D01*
X153794500Y-71727613D01*
X153839887Y-71773000D01*
X153856500Y-71835000D01*
X153856500Y-72619947D01*
X153872372Y-72635819D01*
X153904466Y-72691406D01*
X153904466Y-72755594D01*
X153872372Y-72811181D01*
X153856500Y-72827052D01*
X153856500Y-73236000D01*
X154681500Y-73236000D01*
X154681500Y-71338176D01*
X154675097Y-71278624D01*
X154624852Y-71143910D01*
X154538688Y-71028811D01*
X154423589Y-70942647D01*
X154288875Y-70892402D01*
X154229324Y-70886000D01*
X152331500Y-70886000D01*
X151831500Y-70886000D01*
X149933676Y-70886000D01*
X149874124Y-70892402D01*
X149739410Y-70942647D01*
X149624311Y-71028811D01*
X149538147Y-71143910D01*
X149487902Y-71278624D01*
X149481500Y-71338176D01*
X149481500Y-73236000D01*
X145266628Y-73236000D01*
X145263489Y-73206799D01*
X145251379Y-73174332D01*
X145243561Y-73130998D01*
X145251381Y-73087662D01*
X145259636Y-73065532D01*
X145263489Y-73055201D01*
X145270000Y-72994638D01*
X145270000Y-71997362D01*
X145263489Y-71936799D01*
X145251379Y-71904332D01*
X145243561Y-71861000D01*
X145251379Y-71817667D01*
X145263489Y-71785201D01*
X145270000Y-71724638D01*
X145270000Y-70727362D01*
X145263489Y-70666799D01*
X145251379Y-70634331D01*
X145243561Y-70591000D01*
X145251379Y-70547667D01*
X145263489Y-70515201D01*
X145270000Y-70454638D01*
X145270000Y-69457362D01*
X145263489Y-69396799D01*
X145251379Y-69364332D01*
X145243561Y-69320998D01*
X145251381Y-69277662D01*
X145260272Y-69253827D01*
X145263489Y-69245201D01*
X145270000Y-69184638D01*
X145270000Y-68233085D01*
X145289006Y-68167113D01*
X145340199Y-68121364D01*
X145374370Y-68104909D01*
X145404653Y-68080757D01*
X145415978Y-68072721D01*
X145448781Y-68052111D01*
X145577611Y-67923281D01*
X147604891Y-65896000D01*
X160261500Y-65896000D01*
X161261500Y-65896000D01*
X161261500Y-65196000D01*
X161761500Y-65196000D01*
X161761500Y-65896000D01*
X162761500Y-65896000D01*
X162761500Y-65648176D01*
X162755097Y-65588624D01*
X162704852Y-65453910D01*
X162618688Y-65338811D01*
X162503589Y-65252647D01*
X162368875Y-65202402D01*
X162309324Y-65196000D01*
X161761500Y-65196000D01*
X161261500Y-65196000D01*
X160713676Y-65196000D01*
X160654124Y-65202402D01*
X160519410Y-65252647D01*
X160404311Y-65338811D01*
X160318147Y-65453910D01*
X160267902Y-65588624D01*
X160261500Y-65648176D01*
X160261500Y-65896000D01*
X147604891Y-65896000D01*
X148644073Y-64856818D01*
X148684301Y-64829939D01*
X148731754Y-64820500D01*
X166631403Y-64820500D01*
X166681213Y-64830944D01*
X166722632Y-64860516D01*
X166779493Y-64922282D01*
X166864760Y-65014906D01*
X167042424Y-65153189D01*
X167078930Y-65172945D01*
X167126435Y-65218524D01*
X167143913Y-65281997D01*
X167126437Y-65345471D01*
X167078933Y-65391052D01*
X167042427Y-65410809D01*
X167042425Y-65410810D01*
X167042424Y-65410811D01*
X166864760Y-65549093D01*
X166864760Y-65549094D01*
X166712279Y-65714730D01*
X166589138Y-65903211D01*
X166498705Y-66109381D01*
X166443435Y-66327636D01*
X166424843Y-66552000D01*
X166443435Y-66776363D01*
X166443435Y-66776366D01*
X166443436Y-66776368D01*
X166461844Y-66849061D01*
X166478605Y-66915249D01*
X166477950Y-66978607D01*
X166446080Y-67033370D01*
X164168270Y-69311181D01*
X164128042Y-69338061D01*
X164080589Y-69347500D01*
X162890537Y-69347500D01*
X162824744Y-69328606D01*
X162779001Y-69277682D01*
X162767247Y-69210247D01*
X162770000Y-69184636D01*
X162770000Y-68187366D01*
X162770000Y-68187362D01*
X162763489Y-68126799D01*
X162751379Y-68094333D01*
X162743561Y-68050998D01*
X162751381Y-68007662D01*
X162763488Y-67975203D01*
X162763487Y-67975203D01*
X162763489Y-67975201D01*
X162770000Y-67914638D01*
X162770000Y-66917362D01*
X162763489Y-66856799D01*
X162746843Y-66812169D01*
X162739025Y-66768838D01*
X162746845Y-66725502D01*
X162755097Y-66703377D01*
X162761500Y-66643824D01*
X162761500Y-66396000D01*
X160261500Y-66396000D01*
X160261500Y-66643824D01*
X160267902Y-66703379D01*
X160276155Y-66725506D01*
X160283973Y-66768838D01*
X160276156Y-66812169D01*
X160259511Y-66856797D01*
X160259511Y-66856798D01*
X160259511Y-66856799D01*
X160253000Y-66917362D01*
X160253000Y-67914638D01*
X160256077Y-67943262D01*
X160259511Y-67975204D01*
X160271619Y-68007667D01*
X160279437Y-68050998D01*
X160271620Y-68094329D01*
X160259511Y-68126795D01*
X160256255Y-68157080D01*
X160256082Y-68158699D01*
X160253000Y-68187366D01*
X160253000Y-69184634D01*
X160259511Y-69245204D01*
X160271619Y-69277667D01*
X160279437Y-69320998D01*
X160271620Y-69364329D01*
X160259511Y-69396795D01*
X160259511Y-69396798D01*
X160259511Y-69396799D01*
X160253228Y-69455248D01*
X160253000Y-69457366D01*
X160253000Y-70454634D01*
X160259511Y-70515202D01*
X160271620Y-70547669D01*
X160279437Y-70591000D01*
X160271620Y-70634331D01*
X160259511Y-70666797D01*
X160253000Y-70727366D01*
X160253000Y-71724638D01*
X160253065Y-71725242D01*
X160253000Y-71725615D01*
X160253000Y-71731284D01*
X160252012Y-71731284D01*
X160241314Y-71792679D01*
X160195570Y-71843605D01*
X160129776Y-71862500D01*
X158475449Y-71862500D01*
X158425860Y-71852152D01*
X158384546Y-71822837D01*
X158369634Y-71798086D01*
X158368476Y-71798815D01*
X158359922Y-71785201D01*
X158264111Y-71632719D01*
X158135281Y-71503889D01*
X157981015Y-71406957D01*
X157809047Y-71346783D01*
X157809046Y-71346782D01*
X157809044Y-71346782D01*
X157628000Y-71326383D01*
X157446955Y-71346782D01*
X157274984Y-71406957D01*
X157120717Y-71503890D01*
X156991890Y-71632717D01*
X156894957Y-71786984D01*
X156834782Y-71958955D01*
X156814383Y-72140000D01*
X156834782Y-72321044D01*
X156834782Y-72321046D01*
X156834783Y-72321047D01*
X156894957Y-72493015D01*
X156991889Y-72647281D01*
X157120719Y-72776111D01*
X157274985Y-72873043D01*
X157446953Y-72933217D01*
X157478642Y-72936787D01*
X157492145Y-72938309D01*
X157532063Y-72949809D01*
X157557615Y-72967939D01*
X157558069Y-72967355D01*
X157564228Y-72972133D01*
X157564230Y-72972135D01*
X157567511Y-72974680D01*
X157576370Y-72982247D01*
X157608679Y-73012586D01*
X157615881Y-73016545D01*
X157626564Y-73022418D01*
X157642825Y-73033099D01*
X157658959Y-73045614D01*
X157699625Y-73063210D01*
X157710112Y-73068348D01*
X157748940Y-73089695D01*
X157768708Y-73094770D01*
X157787119Y-73101073D01*
X157805855Y-73109181D01*
X157849626Y-73116113D01*
X157861041Y-73118477D01*
X157903970Y-73129500D01*
X157924384Y-73129500D01*
X157943783Y-73131027D01*
X157963943Y-73134220D01*
X158008056Y-73130050D01*
X158019726Y-73129500D01*
X160129776Y-73129500D01*
X160195570Y-73148395D01*
X160241314Y-73199321D01*
X160252012Y-73260716D01*
X160253000Y-73260716D01*
X160253000Y-73266385D01*
X160253064Y-73266757D01*
X160253000Y-73267362D01*
X160253000Y-74264638D01*
X160256458Y-74296804D01*
X160259511Y-74325202D01*
X160271620Y-74357669D01*
X160279437Y-74401000D01*
X160271620Y-74444331D01*
X160259511Y-74476797D01*
X160253000Y-74537366D01*
X160253000Y-75534634D01*
X160259511Y-75595204D01*
X160271619Y-75627667D01*
X160279437Y-75670998D01*
X160271620Y-75714329D01*
X160259511Y-75746795D01*
X160259511Y-75746798D01*
X160259511Y-75746799D01*
X160253000Y-75807362D01*
X160253000Y-76804638D01*
X160256770Y-76839702D01*
X160259511Y-76865202D01*
X160271620Y-76897669D01*
X160279437Y-76941000D01*
X160271620Y-76984331D01*
X160259511Y-77016797D01*
X160253000Y-77077366D01*
X160253000Y-78074634D01*
X160259511Y-78135202D01*
X160271620Y-78167669D01*
X160279437Y-78211000D01*
X160271620Y-78254331D01*
X160259511Y-78286797D01*
X160253000Y-78347366D01*
X160253000Y-79344634D01*
X160259511Y-79405204D01*
X160271619Y-79437667D01*
X160279437Y-79480998D01*
X160271620Y-79524329D01*
X160259511Y-79556795D01*
X160253000Y-79617366D01*
X160253000Y-80614634D01*
X160259511Y-80675204D01*
X160271619Y-80707667D01*
X160279437Y-80750998D01*
X160271620Y-80794329D01*
X160259511Y-80826795D01*
X160253000Y-80887366D01*
X160253000Y-81884634D01*
X160259511Y-81945204D01*
X160271619Y-81977667D01*
X160279437Y-82020998D01*
X160271620Y-82064329D01*
X160259511Y-82096795D01*
X160253000Y-82157366D01*
X160253000Y-83154634D01*
X160259511Y-83215205D01*
X160310610Y-83352203D01*
X160398238Y-83469261D01*
X160515296Y-83556889D01*
X160652294Y-83607988D01*
X160652297Y-83607988D01*
X160652299Y-83607989D01*
X160712862Y-83614500D01*
X161522734Y-83614500D01*
X161570187Y-83623939D01*
X161610415Y-83650819D01*
X164523410Y-86563814D01*
X164536459Y-86580101D01*
X164538499Y-86582016D01*
X164538500Y-86582018D01*
X164588201Y-86628690D01*
X164590964Y-86631368D01*
X164610731Y-86651135D01*
X164613997Y-86653668D01*
X164622875Y-86661250D01*
X164655179Y-86691586D01*
X164673070Y-86701421D01*
X164689323Y-86712097D01*
X164701316Y-86721399D01*
X164705461Y-86724615D01*
X164746118Y-86742208D01*
X164756602Y-86747343D01*
X164795440Y-86768695D01*
X164815214Y-86773772D01*
X164833619Y-86780073D01*
X164852355Y-86788181D01*
X164896130Y-86795113D01*
X164907541Y-86797477D01*
X164950470Y-86808500D01*
X164970884Y-86808500D01*
X164990283Y-86810027D01*
X165010443Y-86813220D01*
X165054556Y-86809050D01*
X165066226Y-86808500D01*
X165637301Y-86808500D01*
X165695429Y-86822969D01*
X165739992Y-86862998D01*
X165751868Y-86895428D01*
X165754067Y-86894608D01*
X165810610Y-87046203D01*
X165898238Y-87163261D01*
X166015296Y-87250889D01*
X166152294Y-87301988D01*
X166152297Y-87301988D01*
X166152299Y-87301989D01*
X166212862Y-87308500D01*
X166212866Y-87308500D01*
X166694104Y-87308500D01*
X166756466Y-87325323D01*
X166801908Y-87371227D01*
X166818098Y-87433757D01*
X166800643Y-87495946D01*
X166754281Y-87540919D01*
X166707285Y-87567003D01*
X166552968Y-87699479D01*
X166428478Y-87860307D01*
X166338910Y-88042905D01*
X166313253Y-88141999D01*
X166313253Y-88142000D01*
X167431500Y-88142000D01*
X167431500Y-87392000D01*
X167931500Y-87392000D01*
X167931500Y-88142000D01*
X169054866Y-88142000D01*
X169054567Y-88140051D01*
X168983935Y-87949336D01*
X168876354Y-87776736D01*
X168736233Y-87629330D01*
X168569305Y-87513144D01*
X168382407Y-87432940D01*
X168183189Y-87392000D01*
X167931500Y-87392000D01*
X167431500Y-87392000D01*
X167431500Y-87365406D01*
X167441512Y-87316593D01*
X167469930Y-87275663D01*
X167498500Y-87257778D01*
X167507701Y-87250889D01*
X167507704Y-87250889D01*
X167624761Y-87163261D01*
X167712389Y-87046204D01*
X167747831Y-86951181D01*
X167763488Y-86909205D01*
X167763488Y-86909203D01*
X167763489Y-86909201D01*
X167770000Y-86848638D01*
X167770000Y-85501362D01*
X167763489Y-85440799D01*
X167763488Y-85440797D01*
X167763488Y-85440794D01*
X167712389Y-85303796D01*
X167624761Y-85186738D01*
X167507703Y-85099110D01*
X167370705Y-85048011D01*
X167340419Y-85044755D01*
X167310138Y-85041500D01*
X166212862Y-85041500D01*
X166185945Y-85044393D01*
X166152294Y-85048011D01*
X166015296Y-85099110D01*
X165898238Y-85186738D01*
X165810610Y-85303796D01*
X165754067Y-85455392D01*
X165751868Y-85454571D01*
X165739992Y-85487002D01*
X165695429Y-85527031D01*
X165637301Y-85541500D01*
X165344266Y-85541500D01*
X165296813Y-85532061D01*
X165256585Y-85505181D01*
X162806319Y-83054914D01*
X162779439Y-83014686D01*
X162770000Y-82967233D01*
X162770000Y-82157366D01*
X162770000Y-82157362D01*
X162763489Y-82096799D01*
X162751379Y-82064332D01*
X162743561Y-82020998D01*
X162751381Y-81977662D01*
X162763488Y-81945203D01*
X162763487Y-81945203D01*
X162763489Y-81945201D01*
X162770000Y-81884638D01*
X162770000Y-80887362D01*
X162763489Y-80826799D01*
X162763488Y-80826795D01*
X162751380Y-80794332D01*
X162743562Y-80750998D01*
X162751381Y-80707664D01*
X162763488Y-80675203D01*
X162763487Y-80675203D01*
X162763489Y-80675201D01*
X162770000Y-80614638D01*
X162770000Y-79617362D01*
X162763489Y-79556799D01*
X162751379Y-79524332D01*
X162743561Y-79480998D01*
X162751381Y-79437662D01*
X162760483Y-79413261D01*
X162763489Y-79405201D01*
X162770000Y-79344638D01*
X162770000Y-78675000D01*
X165761500Y-78675000D01*
X165761500Y-79097824D01*
X165767902Y-79157375D01*
X165818147Y-79292089D01*
X165904311Y-79407188D01*
X166019410Y-79493352D01*
X166154124Y-79543597D01*
X166213676Y-79550000D01*
X166511500Y-79550000D01*
X166511500Y-78675000D01*
X167011500Y-78675000D01*
X167011500Y-79550000D01*
X167309324Y-79550000D01*
X167368875Y-79543597D01*
X167503589Y-79493352D01*
X167618688Y-79407188D01*
X167704852Y-79292089D01*
X167755097Y-79157375D01*
X167761500Y-79097824D01*
X167761500Y-78675000D01*
X167011500Y-78675000D01*
X166511500Y-78675000D01*
X165761500Y-78675000D01*
X162770000Y-78675000D01*
X162770000Y-78347362D01*
X162763489Y-78286799D01*
X162751379Y-78254331D01*
X162743561Y-78211000D01*
X162751379Y-78167667D01*
X162763489Y-78135201D01*
X162770000Y-78074638D01*
X162770000Y-77734674D01*
X162787067Y-77671895D01*
X162833568Y-77626397D01*
X162896705Y-77610704D01*
X162959094Y-77629134D01*
X163035262Y-77676115D01*
X163085084Y-77692624D01*
X163203573Y-77731887D01*
X163213202Y-77732870D01*
X163307455Y-77742500D01*
X164108544Y-77742499D01*
X164212426Y-77731887D01*
X164380738Y-77676115D01*
X164531652Y-77583030D01*
X164556772Y-77557910D01*
X164620319Y-77494364D01*
X164675906Y-77462270D01*
X164740094Y-77462270D01*
X164795681Y-77494364D01*
X164884345Y-77583028D01*
X164884347Y-77583029D01*
X164884348Y-77583030D01*
X165035262Y-77676115D01*
X165085084Y-77692624D01*
X165203573Y-77731887D01*
X165213202Y-77732870D01*
X165307455Y-77742500D01*
X165637502Y-77742499D01*
X165699500Y-77759112D01*
X165744887Y-77804499D01*
X165761500Y-77866499D01*
X165761500Y-78175000D01*
X167761500Y-78175000D01*
X167761500Y-77752176D01*
X167755097Y-77692624D01*
X167704852Y-77557910D01*
X167618688Y-77442811D01*
X167503589Y-77356647D01*
X167368875Y-77306402D01*
X167309324Y-77300000D01*
X166924067Y-77300000D01*
X166867612Y-77286403D01*
X166823538Y-77248594D01*
X166801510Y-77194864D01*
X166805103Y-77151995D01*
X166804507Y-77151935D01*
X166816500Y-77034544D01*
X166816500Y-76961500D01*
X166833113Y-76899500D01*
X166878500Y-76854113D01*
X166940500Y-76837500D01*
X167324763Y-76837500D01*
X167345504Y-76839789D01*
X167348301Y-76839701D01*
X167348305Y-76839702D01*
X167416413Y-76837560D01*
X167420309Y-76837500D01*
X167448250Y-76837500D01*
X167448252Y-76837500D01*
X167452352Y-76836981D01*
X167464002Y-76836064D01*
X167508285Y-76834673D01*
X167527894Y-76828975D01*
X167546927Y-76825033D01*
X167567193Y-76822474D01*
X167608402Y-76806157D01*
X167619433Y-76802380D01*
X167661989Y-76790018D01*
X167679556Y-76779628D01*
X167697028Y-76771068D01*
X167716013Y-76763552D01*
X167751871Y-76737498D01*
X167761619Y-76731096D01*
X167799758Y-76708542D01*
X167814196Y-76694103D01*
X167828984Y-76681472D01*
X167845503Y-76669472D01*
X167873755Y-76635319D01*
X167881599Y-76626699D01*
X170201816Y-74306482D01*
X170218097Y-74293440D01*
X170220014Y-74291398D01*
X170220018Y-74291396D01*
X170266707Y-74241675D01*
X170269355Y-74238943D01*
X170289135Y-74219165D01*
X170291661Y-74215907D01*
X170299252Y-74207017D01*
X170329586Y-74174717D01*
X170339424Y-74156820D01*
X170350100Y-74140567D01*
X170362614Y-74124436D01*
X170380216Y-74083756D01*
X170385334Y-74073309D01*
X170406695Y-74034456D01*
X170411772Y-74014678D01*
X170418072Y-73996278D01*
X170426181Y-73977541D01*
X170433112Y-73933772D01*
X170435478Y-73922349D01*
X170446500Y-73879426D01*
X170446500Y-73859012D01*
X170448027Y-73839613D01*
X170448102Y-73839136D01*
X170451220Y-73819453D01*
X170447050Y-73775339D01*
X170446500Y-73763670D01*
X170446500Y-61028500D01*
X170463113Y-60966500D01*
X170508500Y-60921113D01*
X170570500Y-60904500D01*
X170643500Y-60904500D01*
X170705500Y-60921113D01*
X170750887Y-60966500D01*
X170767500Y-61028500D01*
X170767500Y-98228800D01*
X170750887Y-98290800D01*
X170705500Y-98336187D01*
X170643500Y-98352800D01*
X134892500Y-98352800D01*
X134830500Y-98336187D01*
X134785113Y-98290800D01*
X134768500Y-98228800D01*
X134768500Y-90926000D01*
X136252500Y-90926000D01*
X137502500Y-90926000D01*
X137502500Y-89926000D01*
X138002500Y-89926000D01*
X138002500Y-90926000D01*
X139252500Y-90926000D01*
X139252500Y-90378176D01*
X139246097Y-90318624D01*
X139195852Y-90183910D01*
X139109688Y-90068811D01*
X138994589Y-89982647D01*
X138859875Y-89932402D01*
X138800324Y-89926000D01*
X138002500Y-89926000D01*
X137502500Y-89926000D01*
X136704676Y-89926000D01*
X136645124Y-89932402D01*
X136510410Y-89982647D01*
X136395311Y-90068811D01*
X136309147Y-90183910D01*
X136258902Y-90318624D01*
X136252500Y-90378176D01*
X136252500Y-90926000D01*
X134768500Y-90926000D01*
X134768500Y-88646000D01*
X140209501Y-88646000D01*
X140209501Y-89095979D01*
X140219993Y-89198695D01*
X140275142Y-89365122D01*
X140367183Y-89514345D01*
X140491154Y-89638316D01*
X140640377Y-89730357D01*
X140806803Y-89785506D01*
X140909521Y-89796000D01*
X141122000Y-89796000D01*
X141122000Y-88646000D01*
X141622000Y-88646000D01*
X141622000Y-89795999D01*
X141834479Y-89795999D01*
X141937195Y-89785506D01*
X142103622Y-89730357D01*
X142252845Y-89638316D01*
X142376816Y-89514345D01*
X142468857Y-89365122D01*
X142524006Y-89198696D01*
X142534500Y-89095979D01*
X142534500Y-88646000D01*
X141622000Y-88646000D01*
X141122000Y-88646000D01*
X140209501Y-88646000D01*
X134768500Y-88646000D01*
X134768500Y-88146000D01*
X140209500Y-88146000D01*
X141122000Y-88146000D01*
X141122000Y-86996001D01*
X140909521Y-86996001D01*
X140806804Y-87006493D01*
X140640377Y-87061642D01*
X140491154Y-87153683D01*
X140367183Y-87277654D01*
X140275142Y-87426877D01*
X140219993Y-87593303D01*
X140209500Y-87696021D01*
X140209500Y-88146000D01*
X134768500Y-88146000D01*
X134768500Y-86425000D01*
X137761500Y-86425000D01*
X137761500Y-86847824D01*
X137767902Y-86907375D01*
X137818147Y-87042089D01*
X137904311Y-87157188D01*
X138019410Y-87243352D01*
X138154124Y-87293597D01*
X138213676Y-87300000D01*
X138511500Y-87300000D01*
X138511500Y-86425000D01*
X139011500Y-86425000D01*
X139011500Y-87300000D01*
X139309324Y-87300000D01*
X139368875Y-87293597D01*
X139503589Y-87243352D01*
X139618688Y-87157188D01*
X139704852Y-87042089D01*
X139755097Y-86907375D01*
X139761500Y-86847824D01*
X139761500Y-86425000D01*
X139011500Y-86425000D01*
X138511500Y-86425000D01*
X137761500Y-86425000D01*
X134768500Y-86425000D01*
X134768500Y-85925000D01*
X137761500Y-85925000D01*
X138511500Y-85925000D01*
X138511500Y-85050000D01*
X139011500Y-85050000D01*
X139011500Y-85925000D01*
X139761500Y-85925000D01*
X139761500Y-85502176D01*
X139755097Y-85442624D01*
X139704852Y-85307910D01*
X139618688Y-85192811D01*
X139503589Y-85106647D01*
X139368875Y-85056402D01*
X139309324Y-85050000D01*
X139011500Y-85050000D01*
X138511500Y-85050000D01*
X138213676Y-85050000D01*
X138154124Y-85056402D01*
X138019410Y-85106647D01*
X137904311Y-85192811D01*
X137818147Y-85307910D01*
X137767902Y-85442624D01*
X137761500Y-85502176D01*
X137761500Y-85925000D01*
X134768500Y-85925000D01*
X134768500Y-65803500D01*
X136409501Y-65803500D01*
X136409501Y-66015979D01*
X136419993Y-66118695D01*
X136475142Y-66285122D01*
X136567183Y-66434345D01*
X136691154Y-66558316D01*
X136840377Y-66650357D01*
X137006803Y-66705506D01*
X137109521Y-66716000D01*
X137559500Y-66716000D01*
X137559500Y-65803500D01*
X136409501Y-65803500D01*
X134768500Y-65803500D01*
X134768500Y-65342000D01*
X140140500Y-65342000D01*
X141115500Y-65342000D01*
X141115500Y-64504501D01*
X140840521Y-64504501D01*
X140737804Y-64514993D01*
X140571377Y-64570142D01*
X140422154Y-64662183D01*
X140298183Y-64786154D01*
X140206142Y-64935377D01*
X140150993Y-65101803D01*
X140140500Y-65204521D01*
X140140500Y-65342000D01*
X134768500Y-65342000D01*
X134768500Y-65303500D01*
X136409500Y-65303500D01*
X137559500Y-65303500D01*
X137559500Y-64391001D01*
X137109521Y-64391001D01*
X137006804Y-64401493D01*
X136840377Y-64456642D01*
X136691154Y-64548683D01*
X136567183Y-64672654D01*
X136475142Y-64821877D01*
X136419993Y-64988303D01*
X136409500Y-65091021D01*
X136409500Y-65303500D01*
X134768500Y-65303500D01*
X134768500Y-64391000D01*
X138059500Y-64391000D01*
X138059500Y-65303500D01*
X139209499Y-65303500D01*
X139209499Y-65091021D01*
X139199006Y-64988304D01*
X139143857Y-64821877D01*
X139051816Y-64672654D01*
X138927845Y-64548683D01*
X138778622Y-64456642D01*
X138612196Y-64401493D01*
X138509479Y-64391000D01*
X138059500Y-64391000D01*
X134768500Y-64391000D01*
X134768500Y-61028500D01*
X134785113Y-60966500D01*
X134830500Y-60921113D01*
X134892500Y-60904500D01*
X138810134Y-60904500D01*
X138810138Y-60904500D01*
X138870701Y-60897989D01*
X138870703Y-60897988D01*
X138870705Y-60897988D01*
X138964777Y-60862900D01*
X139007704Y-60846889D01*
X139124761Y-60759261D01*
X139212389Y-60642204D01*
X139263489Y-60505201D01*
X139270000Y-60444638D01*
X139270000Y-60251177D01*
X139285970Y-60190305D01*
X139329765Y-60145112D01*
X139390105Y-60127238D01*
X139399250Y-60126950D01*
X139408084Y-60126673D01*
X139427693Y-60120975D01*
X139446726Y-60117033D01*
X139466992Y-60114474D01*
X139508201Y-60098157D01*
X139519232Y-60094380D01*
X139561788Y-60082018D01*
X139579355Y-60071628D01*
X139596827Y-60063068D01*
X139615812Y-60055552D01*
X139651670Y-60029498D01*
X139661418Y-60023096D01*
X139699557Y-60000542D01*
X139713995Y-59986103D01*
X139728783Y-59973472D01*
X139745302Y-59961472D01*
X139773554Y-59927319D01*
X139781388Y-59918709D01*
X139877322Y-59822775D01*
X139926682Y-59792529D01*
X139984398Y-59787987D01*
X140037886Y-59810142D01*
G37*
G04 #@! TD.AperFunction*
G04 #@! TA.AperFunction,Conductor*
G36*
X158832000Y-91210613D02*
G01*
X158877387Y-91256000D01*
X158894000Y-91318000D01*
X158894000Y-93602000D01*
X158877387Y-93664000D01*
X158832000Y-93709387D01*
X158770000Y-93726000D01*
X158518000Y-93726000D01*
X158456000Y-93709387D01*
X158410613Y-93664000D01*
X158394000Y-93602000D01*
X158394000Y-91318000D01*
X158410613Y-91256000D01*
X158456000Y-91210613D01*
X158518000Y-91194000D01*
X158770000Y-91194000D01*
X158832000Y-91210613D01*
G37*
G04 #@! TD.AperFunction*
G04 #@! TA.AperFunction,Conductor*
G36*
X142678730Y-75503333D02*
G01*
X142734720Y-75543317D01*
X142750522Y-75581931D01*
X142754068Y-75580609D01*
X142771619Y-75627667D01*
X142779437Y-75670998D01*
X142771620Y-75714329D01*
X142759511Y-75746795D01*
X142759511Y-75746798D01*
X142759511Y-75746799D01*
X142753000Y-75807362D01*
X142753000Y-76804638D01*
X142756770Y-76839702D01*
X142759511Y-76865202D01*
X142771620Y-76897669D01*
X142779437Y-76941000D01*
X142771620Y-76984331D01*
X142759511Y-77016797D01*
X142753000Y-77077366D01*
X142753000Y-78074634D01*
X142759511Y-78135202D01*
X142771620Y-78167669D01*
X142779437Y-78211000D01*
X142771620Y-78254331D01*
X142759511Y-78286797D01*
X142753000Y-78347366D01*
X142753000Y-79344634D01*
X142759511Y-79405204D01*
X142771619Y-79437667D01*
X142779437Y-79480998D01*
X142771620Y-79524329D01*
X142759511Y-79556795D01*
X142753000Y-79617366D01*
X142753000Y-80614634D01*
X142759511Y-80675204D01*
X142771619Y-80707667D01*
X142779437Y-80750998D01*
X142771620Y-80794329D01*
X142759511Y-80826795D01*
X142753000Y-80887366D01*
X142753000Y-80987733D01*
X142743561Y-81035186D01*
X142716680Y-81075415D01*
X142547675Y-81244417D01*
X142531399Y-81257457D01*
X142482837Y-81309170D01*
X142480132Y-81311962D01*
X142460361Y-81331733D01*
X142457821Y-81335008D01*
X142450252Y-81343869D01*
X142419914Y-81376177D01*
X142410082Y-81394063D01*
X142399401Y-81410323D01*
X142386885Y-81426459D01*
X142369286Y-81467128D01*
X142364148Y-81477617D01*
X142342803Y-81516443D01*
X142337726Y-81536218D01*
X142331426Y-81554619D01*
X142329091Y-81560016D01*
X142323318Y-81573356D01*
X142316388Y-81617110D01*
X142314020Y-81628546D01*
X142303000Y-81671470D01*
X142303000Y-81691884D01*
X142301473Y-81711283D01*
X142298280Y-81731441D01*
X142302450Y-81775557D01*
X142303000Y-81787226D01*
X142303000Y-83347367D01*
X142300710Y-83368108D01*
X142302939Y-83439017D01*
X142303000Y-83442913D01*
X142303000Y-83470855D01*
X142303518Y-83474956D01*
X142304434Y-83486597D01*
X142305826Y-83530888D01*
X142311522Y-83550492D01*
X142315467Y-83569544D01*
X142318025Y-83589798D01*
X142334338Y-83631001D01*
X142338121Y-83642049D01*
X142350482Y-83684593D01*
X142360874Y-83702166D01*
X142369431Y-83719633D01*
X142376948Y-83738618D01*
X142402991Y-83774463D01*
X142409405Y-83784227D01*
X142431958Y-83822362D01*
X142446390Y-83836794D01*
X142459026Y-83851589D01*
X142471026Y-83868105D01*
X142505167Y-83896349D01*
X142513808Y-83904212D01*
X145926412Y-87316817D01*
X145939456Y-87333098D01*
X145941499Y-87335016D01*
X145941500Y-87335018D01*
X145991184Y-87381674D01*
X145993947Y-87384352D01*
X146013730Y-87404135D01*
X146017011Y-87406680D01*
X146025870Y-87414247D01*
X146058179Y-87444586D01*
X146076064Y-87454418D01*
X146092325Y-87465099D01*
X146108459Y-87477614D01*
X146149125Y-87495210D01*
X146159612Y-87500348D01*
X146198440Y-87521695D01*
X146218208Y-87526770D01*
X146236619Y-87533073D01*
X146255355Y-87541181D01*
X146299126Y-87548113D01*
X146310541Y-87550477D01*
X146353470Y-87561500D01*
X146373884Y-87561500D01*
X146393283Y-87563027D01*
X146413443Y-87566220D01*
X146457556Y-87562050D01*
X146469226Y-87561500D01*
X147479000Y-87561500D01*
X147541000Y-87578113D01*
X147586387Y-87623500D01*
X147603000Y-87685500D01*
X147603000Y-87826634D01*
X147609511Y-87887205D01*
X147660610Y-88024203D01*
X147748238Y-88141261D01*
X147865296Y-88228889D01*
X148002294Y-88279988D01*
X148002297Y-88279988D01*
X148002299Y-88279989D01*
X148062862Y-88286500D01*
X149860134Y-88286500D01*
X149860138Y-88286500D01*
X149920701Y-88279989D01*
X149920703Y-88279988D01*
X149920705Y-88279988D01*
X150002597Y-88249443D01*
X150057704Y-88228889D01*
X150174761Y-88141261D01*
X150262389Y-88024204D01*
X150307637Y-87902889D01*
X150343589Y-87851677D01*
X150399971Y-87824539D01*
X150462425Y-87828387D01*
X150515048Y-87862241D01*
X150552469Y-87902890D01*
X150578260Y-87930906D01*
X150755924Y-88069189D01*
X150953926Y-88176342D01*
X151166865Y-88249444D01*
X151388931Y-88286500D01*
X151614069Y-88286500D01*
X151836135Y-88249444D01*
X152049074Y-88176342D01*
X152247076Y-88069189D01*
X152424740Y-87930906D01*
X152577222Y-87765268D01*
X152667690Y-87626795D01*
X152712482Y-87585561D01*
X152771500Y-87570616D01*
X152830518Y-87585561D01*
X152875309Y-87626795D01*
X152958272Y-87753780D01*
X152965778Y-87765268D01*
X153118260Y-87930906D01*
X153295924Y-88069189D01*
X153493926Y-88176342D01*
X153706865Y-88249444D01*
X153928931Y-88286500D01*
X154154069Y-88286500D01*
X154376135Y-88249444D01*
X154589074Y-88176342D01*
X154787076Y-88069189D01*
X154964740Y-87930906D01*
X155117222Y-87765268D01*
X155207690Y-87626795D01*
X155252482Y-87585561D01*
X155311500Y-87570616D01*
X155370518Y-87585561D01*
X155415309Y-87626795D01*
X155498272Y-87753780D01*
X155505778Y-87765268D01*
X155658260Y-87930906D01*
X155809534Y-88048649D01*
X155846926Y-88096690D01*
X155856946Y-88156740D01*
X155837179Y-88214322D01*
X155792387Y-88255555D01*
X155733370Y-88270500D01*
X155667607Y-88270500D01*
X155644373Y-88268304D01*
X155636093Y-88266724D01*
X155582418Y-88270101D01*
X155579984Y-88270255D01*
X155572199Y-88270500D01*
X155556138Y-88270500D01*
X155540210Y-88272511D01*
X155532466Y-88273243D01*
X155476347Y-88276774D01*
X155468327Y-88279380D01*
X155445564Y-88284468D01*
X155437204Y-88285524D01*
X155384938Y-88306217D01*
X155377614Y-88308854D01*
X155324124Y-88326235D01*
X155317002Y-88330755D01*
X155296221Y-88341343D01*
X155288385Y-88344445D01*
X155242905Y-88377488D01*
X155236467Y-88381863D01*
X155188980Y-88412000D01*
X155183205Y-88418150D01*
X155165710Y-88433574D01*
X155158893Y-88438527D01*
X155123051Y-88481851D01*
X155117903Y-88487690D01*
X155079413Y-88528679D01*
X155075354Y-88536063D01*
X155062241Y-88555358D01*
X155056867Y-88561853D01*
X155032925Y-88612731D01*
X155029392Y-88619665D01*
X155002303Y-88668942D01*
X155000206Y-88677109D01*
X154992307Y-88699049D01*
X154988716Y-88706681D01*
X154978182Y-88761901D01*
X154976484Y-88769500D01*
X154962500Y-88823969D01*
X154962500Y-88832393D01*
X154960304Y-88855627D01*
X154958724Y-88863906D01*
X154962255Y-88920014D01*
X154962500Y-88927801D01*
X154962500Y-89895164D01*
X154946348Y-89956359D01*
X154902100Y-90001612D01*
X154841282Y-90019133D01*
X154779740Y-90004358D01*
X154733507Y-89961137D01*
X154708111Y-89920719D01*
X154579281Y-89791889D01*
X154425015Y-89694957D01*
X154253047Y-89634783D01*
X154253046Y-89634782D01*
X154253044Y-89634782D01*
X154072000Y-89614383D01*
X153890955Y-89634782D01*
X153718984Y-89694957D01*
X153564717Y-89791890D01*
X153435890Y-89920717D01*
X153338957Y-90074984D01*
X153278782Y-90246955D01*
X153258383Y-90427999D01*
X153258912Y-90432691D01*
X153247188Y-90500839D01*
X153200791Y-90552112D01*
X153129514Y-90596078D01*
X153127500Y-90592813D01*
X153095550Y-90611241D01*
X153031385Y-90611224D01*
X152975819Y-90579136D01*
X152963652Y-90566969D01*
X152913053Y-90535759D01*
X152866644Y-90484465D01*
X152859252Y-90441426D01*
X152855181Y-90441885D01*
X152833217Y-90246955D01*
X152833217Y-90246953D01*
X152773043Y-90074985D01*
X152676111Y-89920719D01*
X152547281Y-89791889D01*
X152393015Y-89694957D01*
X152221047Y-89634783D01*
X152221046Y-89634782D01*
X152221044Y-89634782D01*
X152040000Y-89614383D01*
X151858955Y-89634782D01*
X151686984Y-89694957D01*
X151532717Y-89791890D01*
X151403890Y-89920717D01*
X151306957Y-90074984D01*
X151246782Y-90246955D01*
X151224819Y-90441884D01*
X151220754Y-90441426D01*
X151213342Y-90484491D01*
X151166948Y-90535758D01*
X151116350Y-90566968D01*
X150990970Y-90692347D01*
X150897884Y-90843263D01*
X150842112Y-91011573D01*
X150831500Y-91115455D01*
X150831500Y-91916544D01*
X150842112Y-92020425D01*
X150897884Y-92188736D01*
X150897885Y-92188738D01*
X150912233Y-92211999D01*
X150990971Y-92339654D01*
X151079636Y-92428319D01*
X151111730Y-92483906D01*
X151111730Y-92548094D01*
X151079636Y-92603681D01*
X150990971Y-92692345D01*
X150897884Y-92843263D01*
X150842112Y-93011573D01*
X150831500Y-93115456D01*
X150831500Y-93159500D01*
X150814887Y-93221500D01*
X150769500Y-93266887D01*
X150707500Y-93283500D01*
X148992000Y-93283500D01*
X148930000Y-93266887D01*
X148884613Y-93221500D01*
X148875320Y-93186820D01*
X148868000Y-93179500D01*
X146068001Y-93179500D01*
X146060680Y-93186820D01*
X146051388Y-93221500D01*
X146006001Y-93266887D01*
X145944001Y-93283500D01*
X145685000Y-93283500D01*
X145623000Y-93266887D01*
X145577613Y-93221500D01*
X145561000Y-93159500D01*
X145561000Y-92679500D01*
X146068000Y-92679500D01*
X147218000Y-92679500D01*
X147218000Y-91767001D01*
X146768021Y-91767001D01*
X146665304Y-91777493D01*
X146498877Y-91832642D01*
X146349654Y-91924683D01*
X146225683Y-92048654D01*
X146133642Y-92197877D01*
X146078493Y-92364303D01*
X146068000Y-92467021D01*
X146068000Y-92679500D01*
X145561000Y-92679500D01*
X145561000Y-91767000D01*
X147718000Y-91767000D01*
X147718000Y-92679500D01*
X148867999Y-92679500D01*
X148867999Y-92467021D01*
X148857506Y-92364304D01*
X148802357Y-92197877D01*
X148710316Y-92048654D01*
X148586345Y-91924683D01*
X148437122Y-91832642D01*
X148270696Y-91777493D01*
X148167979Y-91767000D01*
X147718000Y-91767000D01*
X145561000Y-91767000D01*
X145561000Y-91527366D01*
X145554488Y-91466794D01*
X145503389Y-91329796D01*
X145415762Y-91212740D01*
X145415759Y-91212738D01*
X145355189Y-91167395D01*
X145318616Y-91123632D01*
X145305500Y-91068128D01*
X145305500Y-89762133D01*
X145321223Y-89701701D01*
X145364404Y-89656594D01*
X145370261Y-89652980D01*
X145383152Y-89645030D01*
X145508530Y-89519652D01*
X145601615Y-89368738D01*
X145657387Y-89200426D01*
X145668000Y-89096545D01*
X145667999Y-87695456D01*
X145657387Y-87591574D01*
X145601615Y-87423262D01*
X145508530Y-87272348D01*
X145508529Y-87272347D01*
X145508528Y-87272345D01*
X145383154Y-87146971D01*
X145232236Y-87053884D01*
X145063926Y-86998112D01*
X144969673Y-86988483D01*
X144960045Y-86987500D01*
X144960044Y-86987500D01*
X144283254Y-86987500D01*
X144235801Y-86978061D01*
X144195573Y-86951181D01*
X138152819Y-80908427D01*
X138125939Y-80868199D01*
X138116500Y-80820746D01*
X138116500Y-79682500D01*
X138133113Y-79620500D01*
X138178500Y-79575113D01*
X138240500Y-79558500D01*
X139310134Y-79558500D01*
X139310138Y-79558500D01*
X139370701Y-79551989D01*
X139370703Y-79551988D01*
X139370705Y-79551988D01*
X139448624Y-79522924D01*
X139507704Y-79500889D01*
X139624761Y-79413261D01*
X139712389Y-79296204D01*
X139763489Y-79159201D01*
X139770000Y-79098638D01*
X139770000Y-78363766D01*
X139779439Y-78316313D01*
X139806319Y-78276085D01*
X141259931Y-76822473D01*
X142549812Y-75532592D01*
X142610046Y-75499350D01*
X142678730Y-75503333D01*
G37*
G04 #@! TD.AperFunction*
G04 #@! TA.AperFunction,Conductor*
G36*
X163114500Y-88688613D02*
G01*
X163159887Y-88734000D01*
X163176500Y-88796000D01*
X163176500Y-89379500D01*
X163159887Y-89441500D01*
X163114500Y-89486887D01*
X163052500Y-89503500D01*
X162971906Y-89503500D01*
X162734362Y-89503500D01*
X162678067Y-89489985D01*
X162634044Y-89452385D01*
X162611889Y-89398898D01*
X162616431Y-89341182D01*
X162646681Y-89291819D01*
X162676500Y-89262000D01*
X162676500Y-88796000D01*
X162693113Y-88734000D01*
X162738500Y-88688613D01*
X162800500Y-88672000D01*
X163052500Y-88672000D01*
X163114500Y-88688613D01*
G37*
G04 #@! TD.AperFunction*
G04 #@! TA.AperFunction,Conductor*
G36*
X141560000Y-72420113D02*
G01*
X141605387Y-72465500D01*
X141622000Y-72527500D01*
X141622000Y-73740999D01*
X141664500Y-73740999D01*
X141726500Y-73757612D01*
X141771887Y-73802999D01*
X141788500Y-73864999D01*
X141788500Y-74450734D01*
X141779061Y-74498187D01*
X141752181Y-74538415D01*
X139035414Y-77255181D01*
X138995186Y-77282061D01*
X138947733Y-77291500D01*
X138240500Y-77291500D01*
X138178500Y-77274887D01*
X138133113Y-77229500D01*
X138116500Y-77167500D01*
X138116500Y-73705263D01*
X138132222Y-73644832D01*
X138175400Y-73599726D01*
X138231652Y-73565030D01*
X138231654Y-73565027D01*
X138238946Y-73560530D01*
X138290843Y-73542773D01*
X138345322Y-73549140D01*
X138391725Y-73578387D01*
X138396654Y-73583316D01*
X138545877Y-73675357D01*
X138712303Y-73730506D01*
X138815021Y-73741000D01*
X139090000Y-73741000D01*
X139090000Y-72903500D01*
X139590000Y-72903500D01*
X139590000Y-73740999D01*
X139864979Y-73740999D01*
X139967695Y-73730506D01*
X140134120Y-73675358D01*
X140290903Y-73578654D01*
X140356000Y-73560193D01*
X140421097Y-73578654D01*
X140577879Y-73675358D01*
X140744303Y-73730506D01*
X140847021Y-73741000D01*
X141122000Y-73741000D01*
X141122000Y-72903500D01*
X139590000Y-72903500D01*
X139090000Y-72903500D01*
X139090000Y-72527500D01*
X139106613Y-72465500D01*
X139152000Y-72420113D01*
X139214000Y-72403500D01*
X141498000Y-72403500D01*
X141560000Y-72420113D01*
G37*
G04 #@! TD.AperFunction*
G04 #@! TA.AperFunction,Conductor*
G36*
X167976000Y-71398613D02*
G01*
X168021387Y-71444000D01*
X168038000Y-71506000D01*
X168038000Y-72982000D01*
X168605500Y-72982000D01*
X168667500Y-72998613D01*
X168712887Y-73044000D01*
X168729500Y-73106000D01*
X168729500Y-73299233D01*
X168720061Y-73346686D01*
X168693181Y-73386914D01*
X168577914Y-73502181D01*
X168537686Y-73529061D01*
X168490233Y-73538500D01*
X166684544Y-73538500D01*
X166637091Y-73529061D01*
X166596865Y-73502183D01*
X166547652Y-73452970D01*
X166396738Y-73359885D01*
X166396737Y-73359884D01*
X166396736Y-73359884D01*
X166228426Y-73304112D01*
X166134173Y-73294483D01*
X166124544Y-73293500D01*
X165323455Y-73293500D01*
X165219574Y-73304112D01*
X165051263Y-73359884D01*
X164900345Y-73452971D01*
X164811681Y-73541636D01*
X164756094Y-73573730D01*
X164691906Y-73573730D01*
X164636319Y-73541636D01*
X164547654Y-73452971D01*
X164396736Y-73359884D01*
X164228426Y-73304112D01*
X164134173Y-73294483D01*
X164124544Y-73293500D01*
X163323455Y-73293500D01*
X163219574Y-73304112D01*
X163051263Y-73359884D01*
X163028420Y-73373974D01*
X162959094Y-73416734D01*
X162896705Y-73435165D01*
X162833568Y-73419472D01*
X162787067Y-73373974D01*
X162770000Y-73311195D01*
X162770000Y-73267366D01*
X162769895Y-73266385D01*
X162763489Y-73206799D01*
X162751379Y-73174332D01*
X162743561Y-73130998D01*
X162751381Y-73087662D01*
X162759636Y-73065532D01*
X162763489Y-73055201D01*
X162770000Y-72994638D01*
X162770000Y-71997362D01*
X162768152Y-71980174D01*
X162767247Y-71971753D01*
X162779001Y-71904318D01*
X162799048Y-71882000D01*
X166438000Y-71882000D01*
X166438000Y-72529824D01*
X166444402Y-72589375D01*
X166494647Y-72724089D01*
X166580811Y-72839188D01*
X166695910Y-72925352D01*
X166830624Y-72975597D01*
X166890176Y-72982000D01*
X167538000Y-72982000D01*
X167538000Y-71882000D01*
X166438000Y-71882000D01*
X162799048Y-71882000D01*
X162824744Y-71853394D01*
X162890537Y-71834500D01*
X165605995Y-71834500D01*
X165622179Y-71835560D01*
X165654000Y-71839750D01*
X165685821Y-71835560D01*
X165685833Y-71835560D01*
X165693884Y-71834500D01*
X165693885Y-71834500D01*
X165793456Y-71821391D01*
X165812851Y-71818838D01*
X165960876Y-71757524D01*
X166056072Y-71684477D01*
X166056072Y-71684476D01*
X166072366Y-71671974D01*
X166072368Y-71671971D01*
X166087987Y-71659987D01*
X166107536Y-71634509D01*
X166118216Y-71622331D01*
X166322229Y-71418318D01*
X166362457Y-71391439D01*
X166409910Y-71382000D01*
X167914000Y-71382000D01*
X167976000Y-71398613D01*
G37*
G04 #@! TD.AperFunction*
G04 #@! TA.AperFunction,Conductor*
G36*
X142700745Y-66195543D02*
G01*
X142745246Y-66240828D01*
X142761500Y-66302202D01*
X142761500Y-66483500D01*
X142744887Y-66545500D01*
X142699500Y-66590887D01*
X142637500Y-66607500D01*
X142522524Y-66607500D01*
X142466229Y-66593985D01*
X142422206Y-66556385D01*
X142400051Y-66502898D01*
X142404593Y-66445182D01*
X142425813Y-66410553D01*
X142425208Y-66410180D01*
X142531961Y-66237105D01*
X142578015Y-66193401D01*
X142639664Y-66178221D01*
X142700745Y-66195543D01*
G37*
G04 #@! TD.AperFunction*
G04 #@! TA.AperFunction,Conductor*
G36*
X146150541Y-64834015D02*
G01*
X146194564Y-64871615D01*
X146216719Y-64925102D01*
X146212177Y-64982818D01*
X146181927Y-65032181D01*
X145473181Y-65740927D01*
X145423818Y-65771177D01*
X145366102Y-65775719D01*
X145312615Y-65753564D01*
X145275015Y-65709541D01*
X145261500Y-65653246D01*
X145261500Y-65648176D01*
X145255097Y-65588624D01*
X145204852Y-65453910D01*
X145118688Y-65338811D01*
X145003589Y-65252647D01*
X144868875Y-65202402D01*
X144809324Y-65196000D01*
X144261500Y-65196000D01*
X144261500Y-66272000D01*
X144244887Y-66334000D01*
X144199500Y-66379387D01*
X144137500Y-66396000D01*
X143885500Y-66396000D01*
X143823500Y-66379387D01*
X143778113Y-66334000D01*
X143761500Y-66272000D01*
X143761500Y-65196000D01*
X143213676Y-65196000D01*
X143154124Y-65202402D01*
X143019410Y-65252647D01*
X142904310Y-65338811D01*
X142813766Y-65459763D01*
X142766010Y-65498247D01*
X142705652Y-65509136D01*
X142647459Y-65489767D01*
X142605667Y-65444879D01*
X142590499Y-65385452D01*
X142590499Y-65204521D01*
X142580006Y-65101804D01*
X142540805Y-64983504D01*
X142535954Y-64925637D01*
X142557981Y-64871907D01*
X142602055Y-64834097D01*
X142658511Y-64820500D01*
X146094246Y-64820500D01*
X146150541Y-64834015D01*
G37*
G04 #@! TD.AperFunction*
G04 #@! TA.AperFunction,Conductor*
G36*
X132206745Y-133159495D02*
G01*
X132251246Y-133204779D01*
X132267500Y-133266153D01*
X132267500Y-136356519D01*
X132267305Y-136363472D01*
X132254034Y-136599769D01*
X132254019Y-136600026D01*
X132248732Y-136690805D01*
X132247190Y-136704366D01*
X132215109Y-136893178D01*
X132214977Y-136893939D01*
X132191222Y-137028662D01*
X132188260Y-137041457D01*
X132137791Y-137216640D01*
X132137427Y-137217877D01*
X132095556Y-137357733D01*
X132091327Y-137369622D01*
X132023045Y-137534469D01*
X132022343Y-137536129D01*
X131963006Y-137673689D01*
X131957675Y-137684557D01*
X131872396Y-137838857D01*
X131871255Y-137840876D01*
X131795292Y-137972448D01*
X131789034Y-137982203D01*
X131687818Y-138124853D01*
X131686153Y-138127145D01*
X131594617Y-138250100D01*
X131587613Y-138258680D01*
X131471662Y-138388430D01*
X131469396Y-138390897D01*
X131363617Y-138503015D01*
X131356050Y-138510380D01*
X131226786Y-138625898D01*
X131223865Y-138628429D01*
X131105296Y-138727920D01*
X131097345Y-138734060D01*
X130956328Y-138834117D01*
X130952711Y-138836588D01*
X130823044Y-138921870D01*
X130814888Y-138926796D01*
X130663868Y-139010263D01*
X130659537Y-139012547D01*
X130520545Y-139082351D01*
X130512346Y-139086101D01*
X130353149Y-139152042D01*
X130348108Y-139154003D01*
X130201770Y-139207267D01*
X130193686Y-139209899D01*
X130028242Y-139257562D01*
X130022511Y-139259066D01*
X129870840Y-139295012D01*
X129863015Y-139296602D01*
X129693414Y-139325419D01*
X129687038Y-139326333D01*
X129532100Y-139344442D01*
X129524659Y-139345085D01*
X129356540Y-139354527D01*
X129352955Y-139354729D01*
X129346003Y-139354924D01*
X129189997Y-139354924D01*
X129183044Y-139354729D01*
X129179174Y-139354511D01*
X129011339Y-139345085D01*
X129003898Y-139344442D01*
X128848960Y-139326333D01*
X128842584Y-139325419D01*
X128672983Y-139296602D01*
X128665158Y-139295012D01*
X128513487Y-139259066D01*
X128507756Y-139257562D01*
X128342312Y-139209899D01*
X128334228Y-139207267D01*
X128187890Y-139154003D01*
X128182849Y-139152042D01*
X128023652Y-139086101D01*
X128015453Y-139082351D01*
X127876461Y-139012547D01*
X127872130Y-139010263D01*
X127721110Y-138926796D01*
X127712954Y-138921870D01*
X127583287Y-138836588D01*
X127579670Y-138834117D01*
X127438653Y-138734060D01*
X127430702Y-138727920D01*
X127312133Y-138628429D01*
X127309212Y-138625898D01*
X127179948Y-138510380D01*
X127172381Y-138503015D01*
X127125770Y-138453610D01*
X127066575Y-138390868D01*
X127064363Y-138388460D01*
X126948385Y-138258680D01*
X126941381Y-138250100D01*
X126849845Y-138127145D01*
X126848180Y-138124853D01*
X126746964Y-137982203D01*
X126740712Y-137972458D01*
X126664731Y-137840856D01*
X126663602Y-137838857D01*
X126578317Y-137684546D01*
X126572998Y-137673701D01*
X126513640Y-137536094D01*
X126512953Y-137534469D01*
X126509495Y-137526120D01*
X126444668Y-137369615D01*
X126440442Y-137357733D01*
X126398571Y-137217877D01*
X126398258Y-137216814D01*
X126347734Y-137041443D01*
X126344779Y-137028674D01*
X126320984Y-136893728D01*
X126320937Y-136893458D01*
X126288805Y-136704345D01*
X126287268Y-136690823D01*
X126281965Y-136599769D01*
X126268695Y-136363472D01*
X126268500Y-136356519D01*
X126268500Y-135267024D01*
X126284652Y-135205829D01*
X126328900Y-135160576D01*
X126389717Y-135143055D01*
X126451259Y-135157830D01*
X126497493Y-135201051D01*
X126591889Y-135351281D01*
X126720719Y-135480111D01*
X126874985Y-135577043D01*
X127046953Y-135637217D01*
X127127094Y-135646246D01*
X127162455Y-135655664D01*
X127207615Y-135675206D01*
X127218098Y-135680341D01*
X127256940Y-135701695D01*
X127276710Y-135706771D01*
X127295115Y-135713071D01*
X127313855Y-135721181D01*
X127357618Y-135728111D01*
X127369045Y-135730478D01*
X127411970Y-135741500D01*
X127432391Y-135741500D01*
X127451788Y-135743026D01*
X127460555Y-135744415D01*
X127471942Y-135746219D01*
X127471942Y-135746218D01*
X127471943Y-135746219D01*
X127516049Y-135742049D01*
X127527718Y-135741500D01*
X127675810Y-135741500D01*
X127714969Y-135747846D01*
X127750118Y-135766231D01*
X127821796Y-135819889D01*
X127913105Y-135853946D01*
X127962217Y-135887486D01*
X127990064Y-135940037D01*
X127990239Y-135999510D01*
X127989849Y-136001109D01*
X127988153Y-136007350D01*
X127981602Y-136029191D01*
X127981185Y-136036629D01*
X127977989Y-136049732D01*
X127974894Y-136056700D01*
X127972370Y-136071484D01*
X127970609Y-136079991D01*
X127966729Y-136095897D01*
X127966790Y-136098078D01*
X127961100Y-136136964D01*
X127961078Y-136137027D01*
X127960702Y-136139603D01*
X127960238Y-136142536D01*
X127953113Y-136184259D01*
X127952456Y-136186109D01*
X127951328Y-136201521D01*
X127950353Y-136210415D01*
X127948303Y-136224425D01*
X127949100Y-136231966D01*
X127948361Y-136242067D01*
X127946549Y-136248958D01*
X127945860Y-136274451D01*
X127945574Y-136280151D01*
X127945390Y-136282665D01*
X127945352Y-136282807D01*
X127945301Y-136283873D01*
X127943428Y-136309465D01*
X127944043Y-136335909D01*
X127944031Y-136342137D01*
X127943389Y-136365895D01*
X127944901Y-136373100D01*
X127945170Y-136384818D01*
X127944001Y-136392282D01*
X127945436Y-136408065D01*
X127945911Y-136416404D01*
X127946384Y-136436761D01*
X127947290Y-136439673D01*
X127951785Y-136478335D01*
X127952105Y-136481425D01*
X127955972Y-136523948D01*
X127955826Y-136525722D01*
X127958966Y-136542597D01*
X127960228Y-136550955D01*
X127962052Y-136566646D01*
X127964773Y-136573803D01*
X127967069Y-136586144D01*
X127967076Y-136593472D01*
X127972574Y-136616563D01*
X127973853Y-136622601D01*
X127978245Y-136646205D01*
X127981234Y-136652934D01*
X127984689Y-136667447D01*
X127985111Y-136674976D01*
X127989239Y-136687995D01*
X127991665Y-136696747D01*
X127995702Y-136713704D01*
X127996278Y-136713508D01*
X128010564Y-136755347D01*
X128011417Y-136757938D01*
X128023132Y-136794886D01*
X128023510Y-136797728D01*
X128030626Y-136814890D01*
X128033428Y-136822310D01*
X128039114Y-136838962D01*
X128043284Y-136845417D01*
X128044812Y-136849101D01*
X128046178Y-136855617D01*
X128058298Y-136881876D01*
X128060255Y-136886346D01*
X128071388Y-136913197D01*
X128075258Y-136918626D01*
X128078536Y-136925730D01*
X128080437Y-136933036D01*
X128087183Y-136945243D01*
X128091241Y-136953258D01*
X128097150Y-136966062D01*
X128101939Y-136971944D01*
X128109522Y-136985665D01*
X128111865Y-136992689D01*
X128124063Y-137012313D01*
X128127280Y-137017798D01*
X128138580Y-137038245D01*
X128143590Y-137043729D01*
X128144751Y-137045596D01*
X128147447Y-137052487D01*
X128160795Y-137071708D01*
X128164259Y-137076977D01*
X128179807Y-137101990D01*
X128200041Y-137128451D01*
X128203387Y-137133042D01*
X128222045Y-137159908D01*
X128240790Y-137182002D01*
X128244735Y-137186899D01*
X128259048Y-137205615D01*
X128264797Y-137210296D01*
X128265396Y-137211002D01*
X128269036Y-137217360D01*
X128285407Y-137234821D01*
X128289499Y-137239409D01*
X128305116Y-137257816D01*
X128311044Y-137262168D01*
X128317829Y-137269405D01*
X128321993Y-137275856D01*
X128334637Y-137287710D01*
X128340289Y-137293362D01*
X128352195Y-137306061D01*
X128358654Y-137310227D01*
X128365915Y-137317034D01*
X128370267Y-137322956D01*
X128388601Y-137338512D01*
X128393184Y-137342600D01*
X128410755Y-137359072D01*
X128417151Y-137362734D01*
X128417835Y-137363315D01*
X128422487Y-137369029D01*
X128441086Y-137383251D01*
X128445990Y-137387203D01*
X128468073Y-137405940D01*
X128494963Y-137424615D01*
X128499553Y-137427961D01*
X128526016Y-137448196D01*
X128551006Y-137463731D01*
X128556274Y-137467194D01*
X128575568Y-137480593D01*
X128582456Y-137483281D01*
X128584454Y-137484522D01*
X128589943Y-137489524D01*
X128610194Y-137500716D01*
X128615678Y-137503933D01*
X128635545Y-137516282D01*
X128642607Y-137518628D01*
X128656164Y-137526120D01*
X128662025Y-137530886D01*
X128674709Y-137536741D01*
X128682725Y-137540799D01*
X128695130Y-137547654D01*
X128702489Y-137549563D01*
X128709496Y-137552797D01*
X128714922Y-137556661D01*
X128741655Y-137567746D01*
X128746125Y-137569703D01*
X128772445Y-137581851D01*
X128778962Y-137583214D01*
X128782619Y-137584730D01*
X128789077Y-137588898D01*
X128805685Y-137594569D01*
X128813114Y-137597374D01*
X128830341Y-137604517D01*
X128833210Y-137604898D01*
X128870086Y-137616590D01*
X128872678Y-137617443D01*
X128914569Y-137631747D01*
X128914374Y-137632315D01*
X128931244Y-137636332D01*
X128940003Y-137638760D01*
X128953153Y-137642929D01*
X128960715Y-137643349D01*
X128975349Y-137646833D01*
X128982051Y-137649801D01*
X129005389Y-137654144D01*
X129011429Y-137655424D01*
X129034771Y-137660982D01*
X129042127Y-137660981D01*
X129054200Y-137663227D01*
X129061359Y-137665948D01*
X129077050Y-137667772D01*
X129085418Y-137669036D01*
X129104361Y-137672561D01*
X129104392Y-137672216D01*
X129147061Y-137675961D01*
X129150536Y-137676315D01*
X129192854Y-137681234D01*
X129192756Y-137682069D01*
X129212598Y-137682324D01*
X129222502Y-137682848D01*
X129237324Y-137684227D01*
X129240164Y-137683724D01*
X129261216Y-137683724D01*
X129266054Y-137684655D01*
X129290449Y-137684060D01*
X129296358Y-137684057D01*
X129320856Y-137684626D01*
X129325536Y-137683724D01*
X129333212Y-137683724D01*
X129336361Y-137684290D01*
X129339582Y-137684055D01*
X129340154Y-137684034D01*
X129340274Y-137684003D01*
X129361040Y-137682484D01*
X129367062Y-137682191D01*
X129391548Y-137681593D01*
X129398602Y-137679736D01*
X129412288Y-137678734D01*
X129419722Y-137679512D01*
X129432278Y-137677629D01*
X129441628Y-137676587D01*
X129458480Y-137675354D01*
X129458389Y-137674830D01*
X129498552Y-137667788D01*
X129498694Y-137667775D01*
X129501147Y-137667342D01*
X129504342Y-137666820D01*
X129545191Y-137660693D01*
X129547178Y-137660739D01*
X129562397Y-137656935D01*
X129571099Y-137655088D01*
X129590292Y-137651729D01*
X129590180Y-137651332D01*
X129630270Y-137640024D01*
X129633861Y-137639069D01*
X129674336Y-137628951D01*
X129674402Y-137629215D01*
X129691634Y-137623029D01*
X129699878Y-137620390D01*
X129714456Y-137616278D01*
X129721063Y-137612464D01*
X129726152Y-137610637D01*
X129732827Y-137609568D01*
X129759072Y-137598928D01*
X129763766Y-137597134D01*
X129790511Y-137587532D01*
X129796190Y-137583879D01*
X129798432Y-137582970D01*
X129805937Y-137581403D01*
X129820359Y-137574386D01*
X129828025Y-137570972D01*
X129842959Y-137564917D01*
X129849064Y-137560439D01*
X129859922Y-137555149D01*
X129867164Y-137553141D01*
X129886340Y-137542489D01*
X129892312Y-137539380D01*
X129912889Y-137529369D01*
X129913651Y-137528708D01*
X129941716Y-137511869D01*
X129942153Y-137511616D01*
X129942187Y-137511587D01*
X129943157Y-137511005D01*
X129946720Y-137508947D01*
X129949214Y-137507561D01*
X129949512Y-137507462D01*
X129952205Y-137505899D01*
X129982371Y-137489142D01*
X129982480Y-137489339D01*
X129998885Y-137477905D01*
X130005997Y-137473301D01*
X130019952Y-137464928D01*
X130025404Y-137459488D01*
X130027721Y-137457890D01*
X130033346Y-137455386D01*
X130051603Y-137441555D01*
X130052543Y-137440875D01*
X130052635Y-137440774D01*
X130056133Y-137438124D01*
X130060109Y-137435234D01*
X130087443Y-137416182D01*
X130107021Y-137399762D01*
X130111828Y-137395929D01*
X130136944Y-137376901D01*
X130158182Y-137357079D01*
X130163107Y-137352721D01*
X130180500Y-137338132D01*
X130184909Y-137332190D01*
X130193833Y-137323894D01*
X130199935Y-137319980D01*
X130210552Y-137308604D01*
X130216601Y-137302555D01*
X130227935Y-137291976D01*
X130232077Y-137285540D01*
X130253488Y-137262601D01*
X130253870Y-137262193D01*
X130283743Y-137230475D01*
X130303926Y-137203833D01*
X130307764Y-137199021D01*
X130324167Y-137179464D01*
X130343232Y-137152109D01*
X130346126Y-137148127D01*
X130363518Y-137125169D01*
X130366261Y-137119066D01*
X130367734Y-137116953D01*
X130373171Y-137111547D01*
X130381207Y-137098153D01*
X130385855Y-137090978D01*
X130397402Y-137074433D01*
X130397174Y-137074307D01*
X130416922Y-137038760D01*
X130418989Y-137035182D01*
X130436690Y-137005680D01*
X130437359Y-137004908D01*
X130447372Y-136984328D01*
X130450483Y-136978352D01*
X130461072Y-136959292D01*
X130463081Y-136952039D01*
X130468411Y-136941082D01*
X130472945Y-136934893D01*
X130478980Y-136920008D01*
X130482391Y-136912347D01*
X130489390Y-136897959D01*
X130490954Y-136890471D01*
X130491902Y-136888132D01*
X130495556Y-136882449D01*
X130505132Y-136855771D01*
X130506927Y-136851071D01*
X130517589Y-136824772D01*
X130518657Y-136818097D01*
X130520456Y-136813086D01*
X130524271Y-136806478D01*
X130528394Y-136791863D01*
X130531030Y-136783628D01*
X130537209Y-136766415D01*
X130536947Y-136766350D01*
X130547069Y-136725858D01*
X130548024Y-136722266D01*
X130559341Y-136682146D01*
X130559733Y-136682256D01*
X130563085Y-136663106D01*
X130564932Y-136654405D01*
X130568722Y-136639245D01*
X130568677Y-136637295D01*
X130574887Y-136595893D01*
X130575372Y-136592907D01*
X130582837Y-136550257D01*
X130583364Y-136550349D01*
X130584589Y-136533601D01*
X130585631Y-136524249D01*
X130587500Y-136511785D01*
X130586728Y-136504381D01*
X130587740Y-136490555D01*
X130589594Y-136483507D01*
X130590190Y-136459077D01*
X130590484Y-136453047D01*
X130592005Y-136432267D01*
X130592034Y-136432153D01*
X130592055Y-136431591D01*
X130592288Y-136428403D01*
X130591724Y-136425265D01*
X130591724Y-136397749D01*
X130591758Y-136394866D01*
X130591771Y-136394307D01*
X130592591Y-136390418D01*
X130592304Y-136378337D01*
X130592306Y-136372353D01*
X130592606Y-136360041D01*
X130591776Y-136356099D01*
X130591758Y-136355325D01*
X130591724Y-136352442D01*
X130591724Y-136325954D01*
X130592303Y-136322750D01*
X130592025Y-136318757D01*
X130591980Y-136317494D01*
X130591920Y-136317254D01*
X130590497Y-136296855D01*
X130590231Y-136291174D01*
X130589621Y-136265533D01*
X130587830Y-136258633D01*
X130587000Y-136246732D01*
X130587823Y-136239191D01*
X130585821Y-136225175D01*
X130584874Y-136216262D01*
X130583892Y-136202181D01*
X130581509Y-136194991D01*
X130579518Y-136181055D01*
X130579830Y-136173647D01*
X130575319Y-136150525D01*
X130574270Y-136144311D01*
X130570582Y-136118494D01*
X130562788Y-136085759D01*
X130561711Y-136080784D01*
X130556383Y-136053482D01*
X130553621Y-136047259D01*
X130553570Y-136047044D01*
X130553183Y-136039471D01*
X130547347Y-136020016D01*
X130545490Y-136013107D01*
X130542381Y-136000049D01*
X130542826Y-135940797D01*
X130570714Y-135888517D01*
X130619674Y-135855147D01*
X130714204Y-135819889D01*
X130805071Y-135751865D01*
X130863841Y-135728110D01*
X130876797Y-135726474D01*
X130918006Y-135710157D01*
X130929037Y-135706380D01*
X130971593Y-135694018D01*
X130989160Y-135683628D01*
X131006632Y-135675068D01*
X131025617Y-135667552D01*
X131061475Y-135641498D01*
X131071223Y-135635096D01*
X131109362Y-135612542D01*
X131123798Y-135598105D01*
X131138586Y-135585474D01*
X131155107Y-135573472D01*
X131177363Y-135546567D01*
X131191308Y-135534275D01*
X131200016Y-135525001D01*
X131200018Y-135525000D01*
X131246694Y-135475292D01*
X131249342Y-135472560D01*
X131269135Y-135452770D01*
X131271681Y-135449487D01*
X131279249Y-135440625D01*
X131309586Y-135408321D01*
X131319419Y-135390432D01*
X131330100Y-135374172D01*
X131342614Y-135358041D01*
X131360207Y-135317381D01*
X131365343Y-135306895D01*
X131386695Y-135268060D01*
X131391773Y-135248277D01*
X131398070Y-135229885D01*
X131406181Y-135211145D01*
X131413112Y-135167376D01*
X131415478Y-135155953D01*
X131426500Y-135113030D01*
X131426500Y-135092616D01*
X131428027Y-135073217D01*
X131428102Y-135072740D01*
X131431220Y-135053057D01*
X131427050Y-135008943D01*
X131426500Y-134997274D01*
X131426500Y-133783628D01*
X131428788Y-133762892D01*
X131428700Y-133760094D01*
X131428701Y-133760091D01*
X131426560Y-133692000D01*
X131426500Y-133688106D01*
X131426500Y-133666363D01*
X131441071Y-133608042D01*
X131481361Y-133563427D01*
X131537900Y-133543005D01*
X131560650Y-133540681D01*
X131724301Y-133486453D01*
X131871040Y-133395943D01*
X131992945Y-133274038D01*
X132037962Y-133201056D01*
X132084016Y-133157352D01*
X132145664Y-133142172D01*
X132206745Y-133159495D01*
G37*
G04 #@! TD.AperFunction*
G04 #@! TA.AperFunction,Conductor*
G36*
X132216385Y-127343447D02*
G01*
X132253985Y-127387470D01*
X132267500Y-127443765D01*
X132267500Y-130361847D01*
X132251246Y-130423221D01*
X132206745Y-130468505D01*
X132145664Y-130485828D01*
X132084016Y-130470648D01*
X132037962Y-130426944D01*
X131992945Y-130353961D01*
X131871040Y-130232056D01*
X131724301Y-130141546D01*
X131560651Y-130087318D01*
X131459647Y-130077000D01*
X131360500Y-130077000D01*
X131360500Y-132702000D01*
X131343887Y-132764000D01*
X131298500Y-132809387D01*
X131236500Y-132826000D01*
X131005500Y-132826000D01*
X130943500Y-132809387D01*
X130898113Y-132764000D01*
X130881500Y-132702000D01*
X130881500Y-128581766D01*
X130890939Y-128534313D01*
X130917819Y-128494085D01*
X131485081Y-127926823D01*
X132055819Y-127356083D01*
X132105182Y-127325834D01*
X132162898Y-127321292D01*
X132216385Y-127343447D01*
G37*
G04 #@! TD.AperFunction*
G04 #@! TA.AperFunction,Conductor*
G36*
X173430818Y-126593835D02*
G01*
X173480181Y-126624085D01*
X174618181Y-127762085D01*
X174645061Y-127802313D01*
X174654500Y-127849766D01*
X174654500Y-133687579D01*
X174648155Y-133726738D01*
X174629769Y-133761886D01*
X174617111Y-133778796D01*
X174617109Y-133778799D01*
X174566011Y-133915794D01*
X174559500Y-133976366D01*
X174559500Y-134595634D01*
X174566011Y-134656203D01*
X174569601Y-134665828D01*
X174577419Y-134709141D01*
X174574742Y-134723995D01*
X174576067Y-134724138D01*
X174568000Y-134799176D01*
X174568000Y-134858000D01*
X174603547Y-134858000D01*
X174659052Y-134871116D01*
X174702815Y-134907691D01*
X174704739Y-134910262D01*
X174821796Y-134997889D01*
X174958794Y-135048988D01*
X174958797Y-135048988D01*
X174958799Y-135048989D01*
X175019362Y-135055500D01*
X175019366Y-135055500D01*
X175494000Y-135055500D01*
X175556000Y-135072113D01*
X175601387Y-135117500D01*
X175618000Y-135179500D01*
X175618000Y-135234000D01*
X175601387Y-135296000D01*
X175556000Y-135341387D01*
X175494000Y-135358000D01*
X174568000Y-135358000D01*
X174568000Y-135416824D01*
X174574402Y-135476375D01*
X174624647Y-135611089D01*
X174710811Y-135726188D01*
X174825911Y-135812352D01*
X174915132Y-135845630D01*
X174964248Y-135879173D01*
X174992094Y-135931729D01*
X174992265Y-135991205D01*
X174989846Y-136001119D01*
X174988153Y-136007350D01*
X174981602Y-136029191D01*
X174981185Y-136036629D01*
X174977989Y-136049732D01*
X174974894Y-136056700D01*
X174972370Y-136071484D01*
X174970609Y-136079991D01*
X174966729Y-136095897D01*
X174966790Y-136098078D01*
X174961100Y-136136964D01*
X174961078Y-136137027D01*
X174960702Y-136139603D01*
X174960238Y-136142536D01*
X174953113Y-136184259D01*
X174952456Y-136186109D01*
X174951328Y-136201521D01*
X174950353Y-136210415D01*
X174948303Y-136224425D01*
X174949100Y-136231966D01*
X174948361Y-136242067D01*
X174946549Y-136248958D01*
X174945860Y-136274451D01*
X174945574Y-136280151D01*
X174945390Y-136282665D01*
X174945352Y-136282807D01*
X174945301Y-136283873D01*
X174943428Y-136309465D01*
X174944043Y-136335909D01*
X174944031Y-136342137D01*
X174943389Y-136365895D01*
X174944901Y-136373100D01*
X174945170Y-136384818D01*
X174944001Y-136392282D01*
X174945436Y-136408065D01*
X174945911Y-136416404D01*
X174946384Y-136436761D01*
X174947290Y-136439673D01*
X174951785Y-136478335D01*
X174952105Y-136481425D01*
X174955972Y-136523948D01*
X174955826Y-136525722D01*
X174958966Y-136542597D01*
X174960228Y-136550955D01*
X174962052Y-136566646D01*
X174964773Y-136573803D01*
X174967069Y-136586144D01*
X174967076Y-136593472D01*
X174972574Y-136616563D01*
X174973853Y-136622601D01*
X174978245Y-136646205D01*
X174981234Y-136652934D01*
X174984689Y-136667447D01*
X174985111Y-136674976D01*
X174989239Y-136687995D01*
X174991665Y-136696747D01*
X174995702Y-136713704D01*
X174996278Y-136713508D01*
X175010564Y-136755347D01*
X175011417Y-136757938D01*
X175023132Y-136794886D01*
X175023510Y-136797728D01*
X175030626Y-136814890D01*
X175033428Y-136822310D01*
X175039114Y-136838962D01*
X175043284Y-136845417D01*
X175044812Y-136849101D01*
X175046178Y-136855617D01*
X175058298Y-136881876D01*
X175060255Y-136886346D01*
X175071388Y-136913197D01*
X175075258Y-136918626D01*
X175078536Y-136925730D01*
X175080437Y-136933036D01*
X175087183Y-136945243D01*
X175091241Y-136953258D01*
X175097150Y-136966062D01*
X175101939Y-136971944D01*
X175109522Y-136985665D01*
X175111865Y-136992689D01*
X175124063Y-137012313D01*
X175127280Y-137017798D01*
X175138580Y-137038245D01*
X175143590Y-137043729D01*
X175144751Y-137045596D01*
X175147447Y-137052487D01*
X175160795Y-137071708D01*
X175164259Y-137076977D01*
X175179807Y-137101990D01*
X175200041Y-137128451D01*
X175203387Y-137133042D01*
X175222045Y-137159908D01*
X175240790Y-137182002D01*
X175244735Y-137186899D01*
X175259048Y-137205615D01*
X175264797Y-137210296D01*
X175265396Y-137211002D01*
X175269036Y-137217360D01*
X175285407Y-137234821D01*
X175289499Y-137239409D01*
X175305116Y-137257816D01*
X175311044Y-137262168D01*
X175317829Y-137269405D01*
X175321993Y-137275856D01*
X175334637Y-137287710D01*
X175340289Y-137293362D01*
X175352195Y-137306061D01*
X175358654Y-137310227D01*
X175365915Y-137317034D01*
X175370267Y-137322956D01*
X175388601Y-137338512D01*
X175393184Y-137342600D01*
X175410755Y-137359072D01*
X175417151Y-137362734D01*
X175417835Y-137363315D01*
X175422487Y-137369029D01*
X175441086Y-137383251D01*
X175445990Y-137387203D01*
X175468073Y-137405940D01*
X175494963Y-137424615D01*
X175499553Y-137427961D01*
X175526016Y-137448196D01*
X175551006Y-137463731D01*
X175556274Y-137467194D01*
X175575568Y-137480593D01*
X175582456Y-137483281D01*
X175584454Y-137484522D01*
X175589943Y-137489524D01*
X175610194Y-137500716D01*
X175615678Y-137503933D01*
X175635545Y-137516282D01*
X175642607Y-137518628D01*
X175656164Y-137526120D01*
X175662025Y-137530886D01*
X175674709Y-137536741D01*
X175682725Y-137540799D01*
X175695130Y-137547654D01*
X175702489Y-137549563D01*
X175709496Y-137552797D01*
X175714922Y-137556661D01*
X175741655Y-137567746D01*
X175746125Y-137569703D01*
X175772445Y-137581851D01*
X175778962Y-137583214D01*
X175782619Y-137584730D01*
X175789077Y-137588898D01*
X175805685Y-137594569D01*
X175813114Y-137597374D01*
X175830341Y-137604517D01*
X175833210Y-137604898D01*
X175870086Y-137616590D01*
X175872678Y-137617443D01*
X175914569Y-137631747D01*
X175914374Y-137632315D01*
X175931244Y-137636332D01*
X175940003Y-137638760D01*
X175953153Y-137642929D01*
X175960715Y-137643349D01*
X175975349Y-137646833D01*
X175982051Y-137649801D01*
X176005389Y-137654144D01*
X176011429Y-137655424D01*
X176034771Y-137660982D01*
X176042127Y-137660981D01*
X176054200Y-137663227D01*
X176061359Y-137665948D01*
X176077050Y-137667772D01*
X176085418Y-137669036D01*
X176104361Y-137672561D01*
X176104392Y-137672216D01*
X176147061Y-137675961D01*
X176150536Y-137676315D01*
X176192854Y-137681234D01*
X176192756Y-137682069D01*
X176212598Y-137682324D01*
X176222502Y-137682848D01*
X176237324Y-137684227D01*
X176240164Y-137683724D01*
X176261216Y-137683724D01*
X176266054Y-137684655D01*
X176290449Y-137684060D01*
X176296358Y-137684057D01*
X176320856Y-137684626D01*
X176325536Y-137683724D01*
X176333212Y-137683724D01*
X176336361Y-137684290D01*
X176339582Y-137684055D01*
X176340154Y-137684034D01*
X176340274Y-137684003D01*
X176361040Y-137682484D01*
X176367062Y-137682191D01*
X176391548Y-137681593D01*
X176398602Y-137679736D01*
X176412288Y-137678734D01*
X176419722Y-137679512D01*
X176432278Y-137677629D01*
X176441628Y-137676587D01*
X176458480Y-137675354D01*
X176458389Y-137674830D01*
X176498552Y-137667788D01*
X176498694Y-137667775D01*
X176501147Y-137667342D01*
X176504342Y-137666820D01*
X176545191Y-137660693D01*
X176547178Y-137660739D01*
X176562397Y-137656935D01*
X176571099Y-137655088D01*
X176590292Y-137651729D01*
X176590180Y-137651332D01*
X176630270Y-137640024D01*
X176633861Y-137639069D01*
X176674336Y-137628951D01*
X176674402Y-137629215D01*
X176691634Y-137623029D01*
X176699878Y-137620390D01*
X176714456Y-137616278D01*
X176721063Y-137612464D01*
X176726152Y-137610637D01*
X176732827Y-137609568D01*
X176759072Y-137598928D01*
X176763766Y-137597134D01*
X176790511Y-137587532D01*
X176796190Y-137583879D01*
X176798432Y-137582970D01*
X176805937Y-137581403D01*
X176820359Y-137574386D01*
X176828025Y-137570972D01*
X176842959Y-137564917D01*
X176849064Y-137560439D01*
X176859922Y-137555149D01*
X176867164Y-137553141D01*
X176886340Y-137542489D01*
X176892312Y-137539380D01*
X176912889Y-137529369D01*
X176913651Y-137528708D01*
X176941716Y-137511869D01*
X176942153Y-137511616D01*
X176942187Y-137511587D01*
X176943157Y-137511005D01*
X176946720Y-137508947D01*
X176949214Y-137507561D01*
X176949512Y-137507462D01*
X176952205Y-137505899D01*
X176982371Y-137489142D01*
X176982480Y-137489339D01*
X176998885Y-137477905D01*
X177005997Y-137473301D01*
X177019952Y-137464928D01*
X177025404Y-137459488D01*
X177027721Y-137457890D01*
X177033346Y-137455386D01*
X177051603Y-137441555D01*
X177052543Y-137440875D01*
X177052635Y-137440774D01*
X177056133Y-137438124D01*
X177060109Y-137435234D01*
X177087443Y-137416182D01*
X177107021Y-137399762D01*
X177111828Y-137395929D01*
X177136944Y-137376901D01*
X177158182Y-137357079D01*
X177163107Y-137352721D01*
X177180500Y-137338132D01*
X177184909Y-137332190D01*
X177193833Y-137323894D01*
X177199935Y-137319980D01*
X177210552Y-137308604D01*
X177216601Y-137302555D01*
X177227935Y-137291976D01*
X177232077Y-137285540D01*
X177253488Y-137262601D01*
X177253870Y-137262193D01*
X177283743Y-137230475D01*
X177303926Y-137203833D01*
X177307764Y-137199021D01*
X177324167Y-137179464D01*
X177343232Y-137152109D01*
X177346126Y-137148127D01*
X177363518Y-137125169D01*
X177366261Y-137119066D01*
X177367734Y-137116953D01*
X177373171Y-137111547D01*
X177381207Y-137098153D01*
X177385855Y-137090978D01*
X177397402Y-137074433D01*
X177397174Y-137074307D01*
X177416922Y-137038760D01*
X177418989Y-137035182D01*
X177436690Y-137005680D01*
X177437359Y-137004908D01*
X177447372Y-136984328D01*
X177450483Y-136978352D01*
X177461072Y-136959292D01*
X177463081Y-136952039D01*
X177468411Y-136941082D01*
X177472945Y-136934893D01*
X177478980Y-136920008D01*
X177482391Y-136912347D01*
X177489390Y-136897959D01*
X177490954Y-136890471D01*
X177491902Y-136888132D01*
X177495556Y-136882449D01*
X177505132Y-136855771D01*
X177506927Y-136851071D01*
X177517589Y-136824772D01*
X177518657Y-136818097D01*
X177520456Y-136813086D01*
X177524271Y-136806478D01*
X177528394Y-136791863D01*
X177531030Y-136783628D01*
X177537209Y-136766415D01*
X177536947Y-136766350D01*
X177547069Y-136725858D01*
X177548024Y-136722266D01*
X177559341Y-136682146D01*
X177559733Y-136682256D01*
X177563085Y-136663106D01*
X177564932Y-136654405D01*
X177568722Y-136639245D01*
X177568677Y-136637295D01*
X177574887Y-136595893D01*
X177575372Y-136592907D01*
X177582837Y-136550257D01*
X177583364Y-136550349D01*
X177584589Y-136533601D01*
X177585631Y-136524249D01*
X177587500Y-136511785D01*
X177586728Y-136504381D01*
X177587740Y-136490555D01*
X177589594Y-136483507D01*
X177590190Y-136459077D01*
X177590484Y-136453047D01*
X177592005Y-136432267D01*
X177592034Y-136432153D01*
X177592055Y-136431591D01*
X177592288Y-136428403D01*
X177591724Y-136425265D01*
X177591724Y-136397749D01*
X177591758Y-136394866D01*
X177591771Y-136394307D01*
X177592591Y-136390418D01*
X177592304Y-136378337D01*
X177592306Y-136372353D01*
X177592606Y-136360041D01*
X177591776Y-136356099D01*
X177591758Y-136355325D01*
X177591724Y-136352442D01*
X177591724Y-136325954D01*
X177592303Y-136322750D01*
X177592025Y-136318757D01*
X177591980Y-136317494D01*
X177591920Y-136317254D01*
X177590497Y-136296855D01*
X177590231Y-136291174D01*
X177589621Y-136265533D01*
X177587830Y-136258633D01*
X177587000Y-136246732D01*
X177587823Y-136239191D01*
X177585821Y-136225175D01*
X177584874Y-136216262D01*
X177583892Y-136202181D01*
X177581509Y-136194991D01*
X177579518Y-136181055D01*
X177579830Y-136173647D01*
X177575319Y-136150525D01*
X177574270Y-136144311D01*
X177570582Y-136118494D01*
X177562788Y-136085759D01*
X177561711Y-136080784D01*
X177556383Y-136053482D01*
X177553621Y-136047259D01*
X177553570Y-136047044D01*
X177553183Y-136039471D01*
X177547347Y-136020016D01*
X177545490Y-136013107D01*
X177542381Y-136000049D01*
X177542826Y-135940797D01*
X177570714Y-135888517D01*
X177619674Y-135855147D01*
X177714204Y-135819889D01*
X177805071Y-135751865D01*
X177863841Y-135728110D01*
X177876797Y-135726474D01*
X177918006Y-135710157D01*
X177929037Y-135706380D01*
X177971593Y-135694018D01*
X177989160Y-135683628D01*
X178006632Y-135675068D01*
X178025617Y-135667552D01*
X178061475Y-135641498D01*
X178071223Y-135635096D01*
X178109362Y-135612542D01*
X178123800Y-135598103D01*
X178138588Y-135585472D01*
X178155107Y-135573472D01*
X178183359Y-135539319D01*
X178191203Y-135530699D01*
X179055819Y-134666084D01*
X179105182Y-134635834D01*
X179162898Y-134631292D01*
X179216385Y-134653447D01*
X179253985Y-134697470D01*
X179267500Y-134753765D01*
X179267500Y-136356519D01*
X179267305Y-136363472D01*
X179254034Y-136599769D01*
X179254019Y-136600026D01*
X179248732Y-136690805D01*
X179247190Y-136704366D01*
X179215109Y-136893178D01*
X179214977Y-136893939D01*
X179191222Y-137028662D01*
X179188260Y-137041457D01*
X179137791Y-137216640D01*
X179137427Y-137217877D01*
X179095556Y-137357733D01*
X179091327Y-137369622D01*
X179023045Y-137534469D01*
X179022343Y-137536129D01*
X178963006Y-137673689D01*
X178957675Y-137684557D01*
X178872396Y-137838857D01*
X178871255Y-137840876D01*
X178795292Y-137972448D01*
X178789034Y-137982203D01*
X178687818Y-138124853D01*
X178686153Y-138127145D01*
X178594617Y-138250100D01*
X178587613Y-138258680D01*
X178471662Y-138388430D01*
X178469396Y-138390897D01*
X178363617Y-138503015D01*
X178356050Y-138510380D01*
X178226786Y-138625898D01*
X178223865Y-138628429D01*
X178105296Y-138727920D01*
X178097345Y-138734060D01*
X177956328Y-138834117D01*
X177952711Y-138836588D01*
X177823044Y-138921870D01*
X177814888Y-138926796D01*
X177663868Y-139010263D01*
X177659537Y-139012547D01*
X177520545Y-139082351D01*
X177512346Y-139086101D01*
X177353149Y-139152042D01*
X177348108Y-139154003D01*
X177201770Y-139207267D01*
X177193686Y-139209899D01*
X177028242Y-139257562D01*
X177022511Y-139259066D01*
X176870840Y-139295012D01*
X176863015Y-139296602D01*
X176693414Y-139325419D01*
X176687038Y-139326333D01*
X176532100Y-139344442D01*
X176524659Y-139345085D01*
X176356540Y-139354527D01*
X176352955Y-139354729D01*
X176346003Y-139354924D01*
X176189997Y-139354924D01*
X176183044Y-139354729D01*
X176179174Y-139354511D01*
X176011339Y-139345085D01*
X176003898Y-139344442D01*
X175848960Y-139326333D01*
X175842584Y-139325419D01*
X175672983Y-139296602D01*
X175665158Y-139295012D01*
X175513487Y-139259066D01*
X175507756Y-139257562D01*
X175342312Y-139209899D01*
X175334228Y-139207267D01*
X175187890Y-139154003D01*
X175182849Y-139152042D01*
X175023652Y-139086101D01*
X175015453Y-139082351D01*
X174876461Y-139012547D01*
X174872130Y-139010263D01*
X174721110Y-138926796D01*
X174712954Y-138921870D01*
X174583287Y-138836588D01*
X174579670Y-138834117D01*
X174438653Y-138734060D01*
X174430702Y-138727920D01*
X174312133Y-138628429D01*
X174309212Y-138625898D01*
X174179948Y-138510380D01*
X174172381Y-138503015D01*
X174125770Y-138453610D01*
X174066575Y-138390868D01*
X174064363Y-138388460D01*
X173948385Y-138258680D01*
X173941381Y-138250100D01*
X173849845Y-138127145D01*
X173848180Y-138124853D01*
X173746964Y-137982203D01*
X173740712Y-137972458D01*
X173664731Y-137840856D01*
X173663602Y-137838857D01*
X173578317Y-137684546D01*
X173572998Y-137673701D01*
X173513640Y-137536094D01*
X173512953Y-137534469D01*
X173509495Y-137526120D01*
X173444668Y-137369615D01*
X173440442Y-137357733D01*
X173398571Y-137217877D01*
X173398258Y-137216814D01*
X173347734Y-137041443D01*
X173344779Y-137028674D01*
X173320984Y-136893728D01*
X173320937Y-136893458D01*
X173288805Y-136704345D01*
X173287268Y-136690823D01*
X173281965Y-136599769D01*
X173268695Y-136363472D01*
X173268500Y-136356519D01*
X173268500Y-133278153D01*
X173284754Y-133216779D01*
X173329255Y-133171495D01*
X173390336Y-133154172D01*
X173451984Y-133169352D01*
X173498038Y-133213056D01*
X173543054Y-133286038D01*
X173664959Y-133407943D01*
X173811698Y-133498453D01*
X173975348Y-133552681D01*
X174076353Y-133563000D01*
X174175500Y-133563000D01*
X174175500Y-130089001D01*
X174076353Y-130089001D01*
X173975349Y-130099318D01*
X173811698Y-130153546D01*
X173664959Y-130244056D01*
X173543054Y-130365961D01*
X173498038Y-130438944D01*
X173451984Y-130482648D01*
X173390336Y-130497828D01*
X173329255Y-130480505D01*
X173284754Y-130435221D01*
X173268500Y-130373847D01*
X173268500Y-126711766D01*
X173282015Y-126655471D01*
X173319615Y-126611448D01*
X173373102Y-126589293D01*
X173430818Y-126593835D01*
G37*
G04 #@! TD.AperFunction*
M02*
