G04 #@! TF.GenerationSoftware,KiCad,Pcbnew,7.0.1-3b83917a11~172~ubuntu22.04.1*
G04 #@! TF.CreationDate,2023-04-17T14:06:39+02:00*
G04 #@! TF.ProjectId,AcousticDetection_HW,41636f75-7374-4696-9344-657465637469,rev?*
G04 #@! TF.SameCoordinates,Original*
G04 #@! TF.FileFunction,Soldermask,Top*
G04 #@! TF.FilePolarity,Negative*
%FSLAX46Y46*%
G04 Gerber Fmt 4.6, Leading zero omitted, Abs format (unit mm)*
G04 Created by KiCad (PCBNEW 7.0.1-3b83917a11~172~ubuntu22.04.1) date 2023-04-17 14:06:39*
%MOMM*%
%LPD*%
G01*
G04 APERTURE LIST*
G04 Aperture macros list*
%AMRoundRect*
0 Rectangle with rounded corners*
0 $1 Rounding radius*
0 $2 $3 $4 $5 $6 $7 $8 $9 X,Y pos of 4 corners*
0 Add a 4 corners polygon primitive as box body*
4,1,4,$2,$3,$4,$5,$6,$7,$8,$9,$2,$3,0*
0 Add four circle primitives for the rounded corners*
1,1,$1+$1,$2,$3*
1,1,$1+$1,$4,$5*
1,1,$1+$1,$6,$7*
1,1,$1+$1,$8,$9*
0 Add four rect primitives between the rounded corners*
20,1,$1+$1,$2,$3,$4,$5,0*
20,1,$1+$1,$4,$5,$6,$7,0*
20,1,$1+$1,$6,$7,$8,$9,0*
20,1,$1+$1,$8,$9,$2,$3,0*%
G04 Aperture macros list end*
%ADD10C,0.912000*%
%ADD11C,0.500000*%
%ADD12R,0.600000X0.522000*%
%ADD13RoundRect,0.250000X0.350000X0.450000X-0.350000X0.450000X-0.350000X-0.450000X0.350000X-0.450000X0*%
%ADD14R,1.800000X4.000000*%
%ADD15RoundRect,0.250000X-0.350000X-0.450000X0.350000X-0.450000X0.350000X0.450000X-0.350000X0.450000X0*%
%ADD16C,0.650000*%
%ADD17R,1.150000X0.600000*%
%ADD18R,1.150000X0.300000*%
%ADD19O,2.100000X1.000000*%
%ADD20O,1.800000X1.000000*%
%ADD21RoundRect,0.250000X-0.475000X0.337500X-0.475000X-0.337500X0.475000X-0.337500X0.475000X0.337500X0*%
%ADD22R,4.000000X1.800000*%
%ADD23RoundRect,0.250000X0.475000X-0.337500X0.475000X0.337500X-0.475000X0.337500X-0.475000X-0.337500X0*%
%ADD24RoundRect,0.237500X0.237500X-0.250000X0.237500X0.250000X-0.237500X0.250000X-0.237500X-0.250000X0*%
%ADD25RoundRect,0.237500X-0.300000X-0.237500X0.300000X-0.237500X0.300000X0.237500X-0.300000X0.237500X0*%
%ADD26R,1.700000X1.700000*%
%ADD27O,1.700000X1.700000*%
%ADD28R,2.000000X1.500000*%
%ADD29R,2.000000X3.800000*%
%ADD30RoundRect,0.237500X0.300000X0.237500X-0.300000X0.237500X-0.300000X-0.237500X0.300000X-0.237500X0*%
%ADD31R,1.000000X1.250000*%
%ADD32RoundRect,0.250000X0.650000X-0.412500X0.650000X0.412500X-0.650000X0.412500X-0.650000X-0.412500X0*%
%ADD33RoundRect,0.250000X-0.450000X0.350000X-0.450000X-0.350000X0.450000X-0.350000X0.450000X0.350000X0*%
%ADD34R,1.500000X0.900000*%
%ADD35R,0.900000X1.500000*%
%ADD36C,0.600000*%
%ADD37R,4.200000X4.200000*%
%ADD38RoundRect,0.250000X0.412500X0.650000X-0.412500X0.650000X-0.412500X-0.650000X0.412500X-0.650000X0*%
%ADD39RoundRect,0.250000X0.450000X-0.350000X0.450000X0.350000X-0.450000X0.350000X-0.450000X-0.350000X0*%
%ADD40RoundRect,0.250000X-0.650000X0.412500X-0.650000X-0.412500X0.650000X-0.412500X0.650000X0.412500X0*%
G04 APERTURE END LIST*
D10*
X129724000Y-136360000D02*
G75*
G03*
X129724000Y-136360000I-456000J0D01*
G01*
X176724000Y-136360000D02*
G75*
G03*
X176724000Y-136360000I-456000J0D01*
G01*
D11*
X129268000Y-136360000D03*
D12*
X128368000Y-134286000D03*
X128368000Y-135108000D03*
X130168000Y-135108000D03*
X130168000Y-134286000D03*
X129268000Y-134286000D03*
D13*
X160644000Y-91444000D03*
X158644000Y-91444000D03*
D14*
X131368000Y-56360000D03*
X129268000Y-56360000D03*
X127168000Y-56360000D03*
D15*
X163708000Y-76534000D03*
X165708000Y-76534000D03*
D16*
X164001500Y-95602000D03*
X164001500Y-89822000D03*
D17*
X162926500Y-95912000D03*
X162926500Y-95112000D03*
D18*
X162926500Y-93962000D03*
X162926500Y-92962000D03*
X162926500Y-92462000D03*
X162926500Y-91462000D03*
D17*
X162926500Y-90312000D03*
X162926500Y-89512000D03*
X162926500Y-89512000D03*
X162926500Y-90312000D03*
D18*
X162926500Y-90962000D03*
X162926500Y-91962000D03*
X162926500Y-93462000D03*
X162926500Y-94462000D03*
D17*
X162926500Y-95112000D03*
X162926500Y-95912000D03*
D19*
X163501500Y-97032000D03*
D20*
X167681500Y-97032000D03*
D19*
X163501500Y-88392000D03*
D20*
X167681500Y-88392000D03*
D21*
X141365500Y-65592000D03*
X141365500Y-67667000D03*
D22*
X168761500Y-55296000D03*
X168761500Y-57396000D03*
X168761500Y-59496000D03*
D23*
X139340000Y-72653500D03*
X139340000Y-70578500D03*
D11*
X176268000Y-136360000D03*
D12*
X175368000Y-134286000D03*
X175368000Y-135108000D03*
X177168000Y-135108000D03*
X177168000Y-134286000D03*
X176268000Y-134286000D03*
D24*
X127736000Y-132568500D03*
X127736000Y-130743500D03*
D25*
X174425500Y-132588000D03*
X176150500Y-132588000D03*
D26*
X167788000Y-71632000D03*
D27*
X167788000Y-69092000D03*
X167788000Y-66552000D03*
X167788000Y-64012000D03*
D23*
X141372000Y-72653500D03*
X141372000Y-70578500D03*
D28*
X137752500Y-91176000D03*
X137752500Y-93476000D03*
D29*
X144052500Y-93476000D03*
D28*
X137752500Y-95776000D03*
D30*
X131110500Y-131052000D03*
X129385500Y-131052000D03*
D31*
X138761500Y-86175000D03*
X138761500Y-78425000D03*
D32*
X147468000Y-96054500D03*
X147468000Y-92929500D03*
D33*
X152040000Y-91516000D03*
X152040000Y-93516000D03*
D34*
X144011500Y-66146000D03*
X144011500Y-67416000D03*
X144011500Y-68686000D03*
X144011500Y-69956000D03*
X144011500Y-71226000D03*
X144011500Y-72496000D03*
X144011500Y-73766000D03*
X144011500Y-75036000D03*
X144011500Y-76306000D03*
X144011500Y-77576000D03*
X144011500Y-78846000D03*
X144011500Y-80116000D03*
X144011500Y-81386000D03*
X144011500Y-82656000D03*
D35*
X147051500Y-83906000D03*
X148321500Y-83906000D03*
X149591500Y-83906000D03*
X150861500Y-83906000D03*
X152131500Y-83906000D03*
X153401500Y-83906000D03*
X154671500Y-83906000D03*
X155941500Y-83906000D03*
X157211500Y-83906000D03*
X158481500Y-83906000D03*
D34*
X161511500Y-82656000D03*
X161511500Y-81386000D03*
X161511500Y-80116000D03*
X161511500Y-78846000D03*
X161511500Y-77576000D03*
X161511500Y-76306000D03*
X161511500Y-75036000D03*
X161511500Y-73766000D03*
X161511500Y-72496000D03*
X161511500Y-71226000D03*
X161511500Y-69956000D03*
X161511500Y-68686000D03*
X161511500Y-67416000D03*
X161511500Y-66146000D03*
D36*
X150556500Y-72723500D03*
X150556500Y-74248500D03*
X151319000Y-71961000D03*
X151319000Y-73486000D03*
X151319000Y-75011000D03*
X152081500Y-72723500D03*
D37*
X152081500Y-73486000D03*
D36*
X152081500Y-74248500D03*
X152844000Y-71961000D03*
X152844000Y-73486000D03*
X152844000Y-75011000D03*
X153606500Y-72723500D03*
X153606500Y-74248500D03*
D33*
X154065500Y-91537500D03*
X154065500Y-93537500D03*
D38*
X144497000Y-88396000D03*
X141372000Y-88396000D03*
D22*
X136761500Y-59496000D03*
X136761500Y-57396000D03*
X136761500Y-55296000D03*
D30*
X131110500Y-132576000D03*
X129385500Y-132576000D03*
D39*
X137308000Y-72616000D03*
X137308000Y-70616000D03*
D14*
X178368000Y-56360000D03*
X176268000Y-56360000D03*
X174168000Y-56360000D03*
D13*
X160644000Y-93476000D03*
X158644000Y-93476000D03*
D26*
X148961500Y-86928000D03*
D27*
X151501500Y-86928000D03*
X154041500Y-86928000D03*
X156581500Y-86928000D03*
D40*
X137809500Y-65553500D03*
X137809500Y-68678500D03*
D25*
X174425500Y-131064000D03*
X176150500Y-131064000D03*
D31*
X166761500Y-86175000D03*
X166761500Y-78425000D03*
D15*
X163724000Y-74502000D03*
X165724000Y-74502000D03*
D24*
X177800000Y-132580500D03*
X177800000Y-130755500D03*
M02*
