G04 #@! TF.GenerationSoftware,KiCad,Pcbnew,7.0.1-3b83917a11~172~ubuntu22.04.1*
G04 #@! TF.CreationDate,2023-04-17T14:06:39+02:00*
G04 #@! TF.ProjectId,AcousticDetection_HW,41636f75-7374-4696-9344-657465637469,rev?*
G04 #@! TF.SameCoordinates,Original*
G04 #@! TF.FileFunction,Copper,L2,Bot*
G04 #@! TF.FilePolarity,Positive*
%FSLAX46Y46*%
G04 Gerber Fmt 4.6, Leading zero omitted, Abs format (unit mm)*
G04 Created by KiCad (PCBNEW 7.0.1-3b83917a11~172~ubuntu22.04.1) date 2023-04-17 14:06:39*
%MOMM*%
%LPD*%
G01*
G04 APERTURE LIST*
G04 Aperture macros list*
%AMRoundRect*
0 Rectangle with rounded corners*
0 $1 Rounding radius*
0 $2 $3 $4 $5 $6 $7 $8 $9 X,Y pos of 4 corners*
0 Add a 4 corners polygon primitive as box body*
4,1,4,$2,$3,$4,$5,$6,$7,$8,$9,$2,$3,0*
0 Add four circle primitives for the rounded corners*
1,1,$1+$1,$2,$3*
1,1,$1+$1,$4,$5*
1,1,$1+$1,$6,$7*
1,1,$1+$1,$8,$9*
0 Add four rect primitives between the rounded corners*
20,1,$1+$1,$2,$3,$4,$5,0*
20,1,$1+$1,$4,$5,$6,$7,0*
20,1,$1+$1,$6,$7,$8,$9,0*
20,1,$1+$1,$8,$9,$2,$3,0*%
G04 Aperture macros list end*
G04 #@! TA.AperFunction,ComponentPad*
%ADD10O,2.100000X1.000000*%
G04 #@! TD*
G04 #@! TA.AperFunction,ComponentPad*
%ADD11O,1.800000X1.000000*%
G04 #@! TD*
G04 #@! TA.AperFunction,ComponentPad*
%ADD12R,1.700000X1.700000*%
G04 #@! TD*
G04 #@! TA.AperFunction,ComponentPad*
%ADD13O,1.700000X1.700000*%
G04 #@! TD*
G04 #@! TA.AperFunction,HeatsinkPad*
%ADD14C,0.600000*%
G04 #@! TD*
G04 #@! TA.AperFunction,SMDPad,CuDef*
%ADD15R,2.400000X4.000000*%
G04 #@! TD*
G04 #@! TA.AperFunction,SMDPad,CuDef*
%ADD16R,4.000000X2.400000*%
G04 #@! TD*
G04 #@! TA.AperFunction,SMDPad,CuDef*
%ADD17RoundRect,0.250001X0.462499X0.624999X-0.462499X0.624999X-0.462499X-0.624999X0.462499X-0.624999X0*%
G04 #@! TD*
G04 #@! TA.AperFunction,ViaPad*
%ADD18C,0.800000*%
G04 #@! TD*
G04 #@! TA.AperFunction,ViaPad*
%ADD19C,0.600000*%
G04 #@! TD*
G04 #@! TA.AperFunction,Conductor*
%ADD20C,0.600000*%
G04 #@! TD*
G04 #@! TA.AperFunction,Conductor*
%ADD21C,0.250000*%
G04 #@! TD*
G04 APERTURE END LIST*
D10*
X163501500Y-97032000D03*
D11*
X167681500Y-97032000D03*
D10*
X163501500Y-88392000D03*
D11*
X167681500Y-88392000D03*
D12*
X167788000Y-71632000D03*
D13*
X167788000Y-69092000D03*
X167788000Y-66552000D03*
X167788000Y-64012000D03*
D14*
X150556500Y-72723500D03*
X150556500Y-74248500D03*
X151319000Y-71961000D03*
X151319000Y-73486000D03*
X151319000Y-75011000D03*
X152081500Y-72723500D03*
X152081500Y-74248500D03*
X152844000Y-71961000D03*
X152844000Y-73486000D03*
X152844000Y-75011000D03*
X153606500Y-72723500D03*
X153606500Y-74248500D03*
D12*
X148961500Y-86928000D03*
D13*
X151501500Y-86928000D03*
X154041500Y-86928000D03*
X156581500Y-86928000D03*
D15*
X127468000Y-56360000D03*
X131068000Y-56360000D03*
D16*
X136761500Y-55596000D03*
X136761500Y-59196000D03*
D17*
X154226500Y-76966000D03*
X151251500Y-76966000D03*
D16*
X168761500Y-55596000D03*
X168761500Y-59196000D03*
D17*
X154226500Y-68076000D03*
X151251500Y-68076000D03*
D15*
X178068000Y-56360000D03*
X174468000Y-56360000D03*
D18*
X140356000Y-74680000D03*
X146960000Y-88904000D03*
X159289569Y-90428500D03*
X154580000Y-80776000D03*
X137816000Y-63504000D03*
X140897500Y-58932000D03*
D19*
X176276000Y-133604000D03*
X178191500Y-133604000D03*
X156612000Y-60747500D03*
X167280000Y-61355500D03*
X157628000Y-72140000D03*
X157628000Y-61472000D03*
X165756000Y-60964000D03*
X163216000Y-61472000D03*
X174244000Y-129540000D03*
X127228000Y-134844000D03*
X128752000Y-131796000D03*
X128752000Y-128748000D03*
X131292000Y-128494000D03*
X152040000Y-90428000D03*
X154072000Y-90428000D03*
X176784000Y-129540000D03*
D20*
X140356000Y-82300000D02*
X140356000Y-74680000D01*
X154580000Y-59948000D02*
X154072000Y-59948000D01*
X137816000Y-63504000D02*
X137816000Y-60250500D01*
X137816000Y-60250500D02*
X136761500Y-59196000D01*
X166000000Y-59196000D02*
X168761500Y-59196000D01*
X155596000Y-73664000D02*
X155596000Y-75596500D01*
X154072000Y-59948000D02*
X154072000Y-67921500D01*
X165248000Y-59948000D02*
X166000000Y-59196000D01*
X150008000Y-59948000D02*
X137513500Y-59948000D01*
X137513500Y-59948000D02*
X136761500Y-59196000D01*
X161465000Y-90428500D02*
X163501500Y-88392000D01*
X155596000Y-69445500D02*
X155596000Y-73664000D01*
X165756000Y-73664000D02*
X167788000Y-71632000D01*
X154072000Y-67921500D02*
X154226500Y-68076000D01*
X155596000Y-75596500D02*
X154226500Y-76966000D01*
X154072000Y-59948000D02*
X150008000Y-59948000D01*
X146960000Y-88904000D02*
X140356000Y-82300000D01*
X155596000Y-73664000D02*
X165756000Y-73664000D01*
X154580000Y-77319500D02*
X154226500Y-76966000D01*
X154580000Y-80776000D02*
X154580000Y-77319500D01*
X159289569Y-90428500D02*
X161465000Y-90428500D01*
X140356000Y-74680000D02*
X150008000Y-65028000D01*
X165248000Y-59948000D02*
X154580000Y-59948000D01*
X150008000Y-65028000D02*
X150008000Y-59948000D01*
X154226500Y-68076000D02*
X155596000Y-69445500D01*
X137561500Y-55596000D02*
X136761500Y-55596000D01*
X168761500Y-55596000D02*
X167961500Y-55596000D01*
X167961500Y-55596000D02*
X164625500Y-58932000D01*
X140897500Y-58932000D02*
X137561500Y-55596000D01*
X164625500Y-58932000D02*
X140897500Y-58932000D01*
D21*
X178191500Y-133604000D02*
X176276000Y-133604000D01*
X167280000Y-61355500D02*
X166538500Y-62097000D01*
X157802500Y-60747500D02*
X156612000Y-60747500D01*
X159152000Y-62097000D02*
X157802500Y-60747500D01*
X166538500Y-62097000D02*
X159152000Y-62097000D01*
X157628000Y-72140000D02*
X157628000Y-61472000D01*
X165756000Y-60964000D02*
X163724000Y-60964000D01*
X163724000Y-60964000D02*
X163216000Y-61472000D01*
X173736000Y-57092000D02*
X174468000Y-56360000D01*
X173736000Y-129032000D02*
X173736000Y-57092000D01*
X174244000Y-129540000D02*
X173736000Y-129032000D01*
X128244000Y-133320000D02*
X128752000Y-132812000D01*
X126720000Y-57108000D02*
X127468000Y-56360000D01*
X128752000Y-128748000D02*
X126720000Y-126716000D01*
X128752000Y-132812000D02*
X128752000Y-131796000D01*
X126720000Y-126716000D02*
X126720000Y-57108000D01*
X127228000Y-134336000D02*
X128244000Y-133320000D01*
X127228000Y-134844000D02*
X127228000Y-134336000D01*
X131292000Y-128494000D02*
X131800000Y-127986000D01*
X131800000Y-57092000D02*
X131068000Y-56360000D01*
X131800000Y-127986000D02*
X131800000Y-57092000D01*
X150214000Y-78442000D02*
X147468000Y-75696000D01*
X147468000Y-71632000D02*
X151024000Y-68076000D01*
X147468000Y-75696000D02*
X147468000Y-71632000D01*
X151024000Y-68076000D02*
X151251500Y-68076000D01*
X150214000Y-88602000D02*
X150214000Y-78442000D01*
X152040000Y-90428000D02*
X150214000Y-88602000D01*
X152866500Y-78581000D02*
X151251500Y-76966000D01*
X152866500Y-89222500D02*
X152866500Y-78581000D01*
X154072000Y-90428000D02*
X152866500Y-89222500D01*
X178816000Y-127508000D02*
X178816000Y-57108000D01*
X176784000Y-129540000D02*
X178816000Y-127508000D01*
X178816000Y-57108000D02*
X178068000Y-56360000D01*
G04 #@! TA.AperFunction,Conductor*
G36*
X139423818Y-58620822D02*
G01*
X139473181Y-58651072D01*
X140011747Y-59189638D01*
X140041997Y-59238999D01*
X140062974Y-59303559D01*
X140158457Y-59468941D01*
X140158460Y-59468944D01*
X140286247Y-59610866D01*
X140420731Y-59708575D01*
X140440748Y-59723118D01*
X140615214Y-59800795D01*
X140802011Y-59840500D01*
X140802013Y-59840500D01*
X140992987Y-59840500D01*
X140992989Y-59840500D01*
X141179785Y-59800795D01*
X141179786Y-59800794D01*
X141179788Y-59800794D01*
X141291133Y-59751219D01*
X141341568Y-59740500D01*
X156312098Y-59740500D01*
X156378070Y-59759506D01*
X156423818Y-59810698D01*
X156435318Y-59878384D01*
X156409045Y-59941813D01*
X156353052Y-59981541D01*
X156305721Y-59998103D01*
X156258984Y-60014457D01*
X156104717Y-60111390D01*
X155975890Y-60240217D01*
X155878957Y-60394484D01*
X155818782Y-60566455D01*
X155798383Y-60747499D01*
X155818782Y-60928544D01*
X155818782Y-60928546D01*
X155818783Y-60928547D01*
X155878957Y-61100515D01*
X155975889Y-61254781D01*
X156104719Y-61383611D01*
X156258985Y-61480543D01*
X156430953Y-61540717D01*
X156551651Y-61554316D01*
X156611999Y-61561116D01*
X156611999Y-61561115D01*
X156612000Y-61561116D01*
X156698541Y-61551365D01*
X156762010Y-61560931D01*
X156812194Y-61600949D01*
X156827792Y-61640691D01*
X156830169Y-61639860D01*
X156894957Y-61825015D01*
X156975494Y-61953188D01*
X156994500Y-62019160D01*
X156994500Y-71592840D01*
X156975494Y-71658812D01*
X156894957Y-71786984D01*
X156834782Y-71958955D01*
X156814383Y-72140000D01*
X156834782Y-72321044D01*
X156834782Y-72321046D01*
X156834783Y-72321047D01*
X156894957Y-72493015D01*
X156991889Y-72647281D01*
X157120719Y-72776111D01*
X157274985Y-72873043D01*
X157446953Y-72933217D01*
X157628000Y-72953616D01*
X157809047Y-72933217D01*
X157981015Y-72873043D01*
X158135281Y-72776111D01*
X158264111Y-72647281D01*
X158361043Y-72493015D01*
X158421217Y-72321047D01*
X158441616Y-72140000D01*
X158421217Y-71958953D01*
X158394290Y-71882000D01*
X166438000Y-71882000D01*
X166438000Y-72529824D01*
X166444402Y-72589375D01*
X166494647Y-72724089D01*
X166580811Y-72839188D01*
X166695910Y-72925352D01*
X166830624Y-72975597D01*
X166890176Y-72982000D01*
X167538000Y-72982000D01*
X167538000Y-71882000D01*
X168038000Y-71882000D01*
X168038000Y-72982000D01*
X168685824Y-72982000D01*
X168745375Y-72975597D01*
X168880089Y-72925352D01*
X168995188Y-72839188D01*
X169081352Y-72724089D01*
X169131597Y-72589375D01*
X169138000Y-72529824D01*
X169138000Y-71882000D01*
X168038000Y-71882000D01*
X167538000Y-71882000D01*
X166438000Y-71882000D01*
X158394290Y-71882000D01*
X158361043Y-71786985D01*
X158280505Y-71658810D01*
X158261500Y-71592840D01*
X158261500Y-69091999D01*
X166424843Y-69091999D01*
X166443435Y-69316363D01*
X166443435Y-69316366D01*
X166443436Y-69316368D01*
X166485171Y-69481177D01*
X166498705Y-69534618D01*
X166589138Y-69740788D01*
X166712279Y-69929269D01*
X166863706Y-70093761D01*
X166892480Y-70146514D01*
X166893073Y-70206601D01*
X166865346Y-70259912D01*
X166815811Y-70293927D01*
X166695911Y-70338647D01*
X166580811Y-70424811D01*
X166494647Y-70539910D01*
X166444402Y-70674624D01*
X166438000Y-70734176D01*
X166438000Y-71382000D01*
X169138000Y-71382000D01*
X169138000Y-70734176D01*
X169131597Y-70674624D01*
X169081352Y-70539910D01*
X168995188Y-70424811D01*
X168880089Y-70338647D01*
X168760188Y-70293927D01*
X168710653Y-70259912D01*
X168682926Y-70206601D01*
X168683519Y-70146514D01*
X168712291Y-70093763D01*
X168863722Y-69929268D01*
X168986860Y-69740791D01*
X169077296Y-69534616D01*
X169132564Y-69316368D01*
X169151156Y-69092000D01*
X169132564Y-68867632D01*
X169077296Y-68649384D01*
X168986860Y-68443209D01*
X168863722Y-68254732D01*
X168711240Y-68089094D01*
X168533576Y-67950811D01*
X168497067Y-67931053D01*
X168449563Y-67885474D01*
X168432086Y-67822000D01*
X168449563Y-67758526D01*
X168497067Y-67712946D01*
X168533576Y-67693189D01*
X168711240Y-67554906D01*
X168863722Y-67389268D01*
X168986860Y-67200791D01*
X169077296Y-66994616D01*
X169132564Y-66776368D01*
X169151156Y-66552000D01*
X169132564Y-66327632D01*
X169077296Y-66109384D01*
X168986860Y-65903209D01*
X168863722Y-65714732D01*
X168711240Y-65549094D01*
X168533576Y-65410811D01*
X168533575Y-65410810D01*
X168497067Y-65391053D01*
X168449562Y-65345471D01*
X168432086Y-65281997D01*
X168449564Y-65218523D01*
X168497067Y-65172946D01*
X168533576Y-65153189D01*
X168711240Y-65014906D01*
X168863722Y-64849268D01*
X168986860Y-64660791D01*
X169077296Y-64454616D01*
X169132564Y-64236368D01*
X169151156Y-64012000D01*
X169132564Y-63787632D01*
X169077296Y-63569384D01*
X168986860Y-63363209D01*
X168863722Y-63174732D01*
X168711240Y-63009094D01*
X168533576Y-62870811D01*
X168335574Y-62763658D01*
X168335573Y-62763657D01*
X168335572Y-62763657D01*
X168122636Y-62690556D01*
X167900569Y-62653500D01*
X167675431Y-62653500D01*
X167453363Y-62690556D01*
X167240427Y-62763657D01*
X167042424Y-62870811D01*
X166864760Y-63009094D01*
X166712279Y-63174730D01*
X166589138Y-63363211D01*
X166498705Y-63569381D01*
X166443435Y-63787636D01*
X166424843Y-64012000D01*
X166443435Y-64236363D01*
X166498705Y-64454618D01*
X166589138Y-64660788D01*
X166589140Y-64660791D01*
X166712278Y-64849268D01*
X166864760Y-65014906D01*
X167042424Y-65153189D01*
X167078930Y-65172945D01*
X167126435Y-65218524D01*
X167143913Y-65281997D01*
X167126437Y-65345471D01*
X167078933Y-65391052D01*
X167042427Y-65410809D01*
X166864760Y-65549094D01*
X166712279Y-65714730D01*
X166589138Y-65903211D01*
X166498705Y-66109381D01*
X166443435Y-66327636D01*
X166424843Y-66552000D01*
X166443435Y-66776363D01*
X166443435Y-66776366D01*
X166443436Y-66776368D01*
X166495675Y-66982655D01*
X166498705Y-66994618D01*
X166589138Y-67200788D01*
X166589140Y-67200791D01*
X166712278Y-67389268D01*
X166864760Y-67554906D01*
X167042424Y-67693189D01*
X167042426Y-67693190D01*
X167078931Y-67712946D01*
X167126436Y-67758527D01*
X167143913Y-67822000D01*
X167126436Y-67885473D01*
X167078931Y-67931054D01*
X167042426Y-67950809D01*
X166864760Y-68089094D01*
X166712279Y-68254730D01*
X166589138Y-68443211D01*
X166498705Y-68649381D01*
X166443435Y-68867636D01*
X166424843Y-69091999D01*
X158261500Y-69091999D01*
X158261500Y-62401766D01*
X158275015Y-62345471D01*
X158312615Y-62301448D01*
X158366102Y-62279293D01*
X158423818Y-62283835D01*
X158473181Y-62314085D01*
X158644910Y-62485814D01*
X158657959Y-62502101D01*
X158659999Y-62504016D01*
X158660000Y-62504018D01*
X158709701Y-62550690D01*
X158712434Y-62553338D01*
X158732230Y-62573134D01*
X158735493Y-62575665D01*
X158744369Y-62583245D01*
X158776679Y-62613586D01*
X158794572Y-62623422D01*
X158810831Y-62634103D01*
X158826959Y-62646613D01*
X158867625Y-62664210D01*
X158878106Y-62669346D01*
X158884082Y-62672631D01*
X158916940Y-62690695D01*
X158936710Y-62695771D01*
X158955115Y-62702071D01*
X158973855Y-62710181D01*
X159017630Y-62717113D01*
X159029041Y-62719477D01*
X159071970Y-62730500D01*
X159092384Y-62730500D01*
X159111783Y-62732027D01*
X159131943Y-62735220D01*
X159176056Y-62731050D01*
X159187726Y-62730500D01*
X166454867Y-62730500D01*
X166475608Y-62732789D01*
X166478405Y-62732701D01*
X166478409Y-62732702D01*
X166546517Y-62730560D01*
X166550413Y-62730500D01*
X166578354Y-62730500D01*
X166578356Y-62730500D01*
X166582456Y-62729981D01*
X166594106Y-62729064D01*
X166638389Y-62727673D01*
X166657998Y-62721975D01*
X166677031Y-62718033D01*
X166697297Y-62715474D01*
X166738506Y-62699157D01*
X166749537Y-62695380D01*
X166792093Y-62683018D01*
X166809660Y-62672628D01*
X166827132Y-62664068D01*
X166846117Y-62656552D01*
X166881975Y-62630498D01*
X166891723Y-62624096D01*
X166929862Y-62601542D01*
X166944300Y-62587103D01*
X166959088Y-62574472D01*
X166975607Y-62562472D01*
X167003859Y-62528319D01*
X167011703Y-62519699D01*
X167342057Y-62189345D01*
X167375934Y-62165309D01*
X167415853Y-62153809D01*
X167461047Y-62148717D01*
X167633015Y-62088543D01*
X167787281Y-61991611D01*
X167916111Y-61862781D01*
X168013043Y-61708515D01*
X168073217Y-61536547D01*
X168093616Y-61355500D01*
X168093377Y-61353383D01*
X168073217Y-61174455D01*
X168073217Y-61174453D01*
X168033501Y-61060953D01*
X168027762Y-61002666D01*
X168049415Y-60948245D01*
X168093630Y-60909833D01*
X168150544Y-60896000D01*
X170107947Y-60896000D01*
X170107947Y-60895999D01*
X168495628Y-59283680D01*
X168463534Y-59228092D01*
X168463534Y-59163905D01*
X168495628Y-59108318D01*
X168673819Y-58930128D01*
X168729407Y-58898034D01*
X168793594Y-58898034D01*
X168849181Y-58930128D01*
X170731181Y-60812128D01*
X170758061Y-60852356D01*
X170767500Y-60899809D01*
X170767500Y-98228800D01*
X170750887Y-98290800D01*
X170705500Y-98336187D01*
X170643500Y-98352800D01*
X134892500Y-98352800D01*
X134830500Y-98336187D01*
X134785113Y-98290800D01*
X134768500Y-98228800D01*
X134768500Y-97282000D01*
X161978134Y-97282000D01*
X161978432Y-97283948D01*
X162049064Y-97474663D01*
X162156645Y-97647263D01*
X162296766Y-97794669D01*
X162463694Y-97910855D01*
X162650592Y-97991059D01*
X162849811Y-98032000D01*
X163251500Y-98032000D01*
X163251500Y-97282000D01*
X163751500Y-97282000D01*
X163751500Y-98032000D01*
X164102210Y-98032000D01*
X164253839Y-98016580D01*
X164447889Y-97955696D01*
X164625714Y-97856996D01*
X164780031Y-97724520D01*
X164904521Y-97563692D01*
X164994089Y-97381094D01*
X165019746Y-97282000D01*
X166308134Y-97282000D01*
X166308432Y-97283948D01*
X166379064Y-97474663D01*
X166486645Y-97647263D01*
X166626766Y-97794669D01*
X166793694Y-97910855D01*
X166980592Y-97991059D01*
X167179811Y-98032000D01*
X167431500Y-98032000D01*
X167431500Y-97282000D01*
X167931500Y-97282000D01*
X167931500Y-98032000D01*
X168132210Y-98032000D01*
X168283839Y-98016580D01*
X168477889Y-97955696D01*
X168655714Y-97856996D01*
X168810031Y-97724520D01*
X168934521Y-97563692D01*
X169024089Y-97381094D01*
X169049746Y-97282000D01*
X167931500Y-97282000D01*
X167431500Y-97282000D01*
X166308134Y-97282000D01*
X165019746Y-97282000D01*
X163751500Y-97282000D01*
X163251500Y-97282000D01*
X161978134Y-97282000D01*
X134768500Y-97282000D01*
X134768500Y-96782000D01*
X161983253Y-96782000D01*
X165024866Y-96782000D01*
X166313253Y-96782000D01*
X167431500Y-96782000D01*
X167431500Y-96032000D01*
X167931500Y-96032000D01*
X167931500Y-96782000D01*
X169054866Y-96782000D01*
X169054567Y-96780051D01*
X168983935Y-96589336D01*
X168876354Y-96416736D01*
X168736233Y-96269330D01*
X168569305Y-96153144D01*
X168382407Y-96072940D01*
X168183189Y-96032000D01*
X167931500Y-96032000D01*
X167431500Y-96032000D01*
X167230790Y-96032000D01*
X167079160Y-96047419D01*
X166885110Y-96108303D01*
X166707285Y-96207003D01*
X166552968Y-96339479D01*
X166428478Y-96500307D01*
X166338910Y-96682905D01*
X166313253Y-96781999D01*
X166313253Y-96782000D01*
X165024866Y-96782000D01*
X165024567Y-96780051D01*
X164953935Y-96589336D01*
X164846354Y-96416736D01*
X164706233Y-96269330D01*
X164539305Y-96153144D01*
X164508855Y-96140077D01*
X164463754Y-96106995D01*
X164437779Y-96057459D01*
X164436215Y-96001548D01*
X164459379Y-95950641D01*
X164504198Y-95892233D01*
X164562187Y-95752236D01*
X164581966Y-95602000D01*
X164562187Y-95451764D01*
X164504198Y-95311767D01*
X164411951Y-95191549D01*
X164291733Y-95099302D01*
X164291731Y-95099301D01*
X164151735Y-95041312D01*
X164039221Y-95026500D01*
X164039220Y-95026500D01*
X163963780Y-95026500D01*
X163963779Y-95026500D01*
X163851264Y-95041312D01*
X163711268Y-95099301D01*
X163591049Y-95191549D01*
X163498801Y-95311768D01*
X163440812Y-95451764D01*
X163421033Y-95601999D01*
X163440812Y-95752235D01*
X163485677Y-95860547D01*
X163494519Y-95920154D01*
X163474218Y-95976891D01*
X163429569Y-96017358D01*
X163371116Y-96032000D01*
X162900790Y-96032000D01*
X162749160Y-96047419D01*
X162555110Y-96108303D01*
X162377285Y-96207003D01*
X162222968Y-96339479D01*
X162098478Y-96500307D01*
X162008910Y-96682905D01*
X161983253Y-96781999D01*
X161983253Y-96782000D01*
X134768500Y-96782000D01*
X134768500Y-71611941D01*
X146829780Y-71611941D01*
X146833950Y-71656057D01*
X146834500Y-71667726D01*
X146834500Y-75612367D01*
X146832210Y-75633108D01*
X146834439Y-75704017D01*
X146834500Y-75707913D01*
X146834500Y-75735855D01*
X146835018Y-75739956D01*
X146835934Y-75751597D01*
X146837326Y-75795888D01*
X146843022Y-75815492D01*
X146846967Y-75834544D01*
X146849525Y-75854798D01*
X146865838Y-75896001D01*
X146869621Y-75907049D01*
X146881982Y-75949593D01*
X146892374Y-75967166D01*
X146900931Y-75984633D01*
X146908448Y-76003618D01*
X146934491Y-76039463D01*
X146940905Y-76049227D01*
X146963458Y-76087362D01*
X146977890Y-76101794D01*
X146990526Y-76116589D01*
X147002526Y-76133105D01*
X147036667Y-76161349D01*
X147045308Y-76169212D01*
X149544181Y-78668085D01*
X149571061Y-78708313D01*
X149580500Y-78755766D01*
X149580500Y-85445500D01*
X149563887Y-85507500D01*
X149518500Y-85552887D01*
X149456500Y-85569500D01*
X148062862Y-85569500D01*
X148035945Y-85572393D01*
X148002294Y-85576011D01*
X147865296Y-85627110D01*
X147748238Y-85714738D01*
X147660610Y-85831796D01*
X147609511Y-85968794D01*
X147603000Y-86029366D01*
X147603000Y-87826634D01*
X147609511Y-87887205D01*
X147660610Y-88024203D01*
X147748238Y-88141261D01*
X147865296Y-88228889D01*
X148002294Y-88279988D01*
X148002297Y-88279988D01*
X148002299Y-88279989D01*
X148062862Y-88286500D01*
X149456500Y-88286500D01*
X149518500Y-88303113D01*
X149563887Y-88348500D01*
X149580500Y-88410500D01*
X149580500Y-88518367D01*
X149578210Y-88539108D01*
X149580439Y-88610017D01*
X149580500Y-88613913D01*
X149580500Y-88641855D01*
X149581018Y-88645956D01*
X149581934Y-88657597D01*
X149583326Y-88701888D01*
X149589022Y-88721492D01*
X149592967Y-88740544D01*
X149595525Y-88760798D01*
X149611838Y-88802001D01*
X149615621Y-88813049D01*
X149627982Y-88855593D01*
X149638374Y-88873166D01*
X149646931Y-88890633D01*
X149654448Y-88909618D01*
X149680491Y-88945463D01*
X149686905Y-88955227D01*
X149709458Y-88993362D01*
X149723890Y-89007794D01*
X149736526Y-89022589D01*
X149748526Y-89039105D01*
X149782667Y-89067349D01*
X149791308Y-89075212D01*
X151206151Y-90490056D01*
X151230190Y-90523935D01*
X151241690Y-90563852D01*
X151246782Y-90609044D01*
X151246782Y-90609046D01*
X151246783Y-90609047D01*
X151306957Y-90781015D01*
X151403889Y-90935281D01*
X151532719Y-91064111D01*
X151686985Y-91161043D01*
X151858953Y-91221217D01*
X151979650Y-91234816D01*
X152039999Y-91241616D01*
X152039999Y-91241615D01*
X152040000Y-91241616D01*
X152221047Y-91221217D01*
X152393015Y-91161043D01*
X152547281Y-91064111D01*
X152676111Y-90935281D01*
X152773043Y-90781015D01*
X152833217Y-90609047D01*
X152853616Y-90428000D01*
X152853615Y-90427999D01*
X152852345Y-90416715D01*
X152860479Y-90356667D01*
X152896096Y-90307643D01*
X152950692Y-90281351D01*
X153011227Y-90284070D01*
X153063246Y-90315150D01*
X153238151Y-90490055D01*
X153262190Y-90523934D01*
X153273690Y-90563852D01*
X153278782Y-90609043D01*
X153278782Y-90609045D01*
X153278783Y-90609047D01*
X153338957Y-90781015D01*
X153435889Y-90935281D01*
X153564719Y-91064111D01*
X153718985Y-91161043D01*
X153890953Y-91221217D01*
X154011650Y-91234816D01*
X154071999Y-91241616D01*
X154071999Y-91241615D01*
X154072000Y-91241616D01*
X154253047Y-91221217D01*
X154425015Y-91161043D01*
X154579281Y-91064111D01*
X154708111Y-90935281D01*
X154805043Y-90781015D01*
X154865217Y-90609047D01*
X154885616Y-90428000D01*
X154865217Y-90246953D01*
X154805043Y-90074985D01*
X154708111Y-89920719D01*
X154579281Y-89791889D01*
X154425015Y-89694957D01*
X154253047Y-89634783D01*
X154253046Y-89634782D01*
X154253044Y-89634782D01*
X154207852Y-89629690D01*
X154167935Y-89618190D01*
X154134056Y-89594151D01*
X153536319Y-88996414D01*
X153509439Y-88956186D01*
X153500000Y-88908733D01*
X153500000Y-88642000D01*
X161978134Y-88642000D01*
X161978432Y-88643948D01*
X162049064Y-88834663D01*
X162156645Y-89007263D01*
X162296766Y-89154669D01*
X162463694Y-89270855D01*
X162650592Y-89351059D01*
X162849811Y-89392000D01*
X163371116Y-89392000D01*
X163429569Y-89406642D01*
X163474218Y-89447109D01*
X163494519Y-89503846D01*
X163485677Y-89563453D01*
X163440812Y-89671764D01*
X163421033Y-89821999D01*
X163440812Y-89972235D01*
X163483373Y-90074984D01*
X163498802Y-90112233D01*
X163591049Y-90232451D01*
X163711267Y-90324698D01*
X163788447Y-90356667D01*
X163851264Y-90382687D01*
X163963779Y-90397500D01*
X163963780Y-90397500D01*
X164039220Y-90397500D01*
X164039221Y-90397500D01*
X164095478Y-90390093D01*
X164151736Y-90382687D01*
X164291733Y-90324698D01*
X164411951Y-90232451D01*
X164504198Y-90112233D01*
X164562187Y-89972236D01*
X164581966Y-89822000D01*
X164562187Y-89671764D01*
X164504198Y-89531767D01*
X164495782Y-89520799D01*
X164458661Y-89472421D01*
X164436158Y-89424582D01*
X164435628Y-89371717D01*
X164457167Y-89323436D01*
X164496860Y-89288516D01*
X164625714Y-89216996D01*
X164780031Y-89084520D01*
X164904521Y-88923692D01*
X164994089Y-88741094D01*
X165019746Y-88642000D01*
X166308134Y-88642000D01*
X166308432Y-88643948D01*
X166379064Y-88834663D01*
X166486645Y-89007263D01*
X166626766Y-89154669D01*
X166793694Y-89270855D01*
X166980592Y-89351059D01*
X167179811Y-89392000D01*
X167431500Y-89392000D01*
X167431500Y-88642000D01*
X167931500Y-88642000D01*
X167931500Y-89392000D01*
X168132210Y-89392000D01*
X168283839Y-89376580D01*
X168477889Y-89315696D01*
X168655714Y-89216996D01*
X168810031Y-89084520D01*
X168934521Y-88923692D01*
X169024089Y-88741094D01*
X169049746Y-88642000D01*
X167931500Y-88642000D01*
X167431500Y-88642000D01*
X166308134Y-88642000D01*
X165019746Y-88642000D01*
X161978134Y-88642000D01*
X153500000Y-88642000D01*
X153500000Y-88352100D01*
X153513749Y-88295349D01*
X153551947Y-88251183D01*
X153606123Y-88229395D01*
X153664263Y-88234819D01*
X153685690Y-88242174D01*
X153706865Y-88249444D01*
X153928931Y-88286500D01*
X154154069Y-88286500D01*
X154376135Y-88249444D01*
X154589074Y-88176342D01*
X154787076Y-88069189D01*
X154964740Y-87930906D01*
X155117222Y-87765268D01*
X155207690Y-87626795D01*
X155252482Y-87585561D01*
X155311500Y-87570616D01*
X155370518Y-87585561D01*
X155415309Y-87626795D01*
X155505778Y-87765268D01*
X155658260Y-87930906D01*
X155835924Y-88069189D01*
X156033926Y-88176342D01*
X156246865Y-88249444D01*
X156468931Y-88286500D01*
X156694069Y-88286500D01*
X156916135Y-88249444D01*
X157129074Y-88176342D01*
X157192533Y-88142000D01*
X161983253Y-88142000D01*
X163251500Y-88142000D01*
X163251500Y-87392000D01*
X163751500Y-87392000D01*
X163751500Y-88142000D01*
X165024866Y-88142000D01*
X166313253Y-88142000D01*
X167431500Y-88142000D01*
X167431500Y-87392000D01*
X167931500Y-87392000D01*
X167931500Y-88142000D01*
X169054866Y-88142000D01*
X169054567Y-88140051D01*
X168983935Y-87949336D01*
X168876354Y-87776736D01*
X168736233Y-87629330D01*
X168569305Y-87513144D01*
X168382407Y-87432940D01*
X168183189Y-87392000D01*
X167931500Y-87392000D01*
X167431500Y-87392000D01*
X167230790Y-87392000D01*
X167079160Y-87407419D01*
X166885110Y-87468303D01*
X166707285Y-87567003D01*
X166552968Y-87699479D01*
X166428478Y-87860307D01*
X166338910Y-88042905D01*
X166313253Y-88141999D01*
X166313253Y-88142000D01*
X165024866Y-88142000D01*
X165024567Y-88140051D01*
X164953935Y-87949336D01*
X164846354Y-87776736D01*
X164706233Y-87629330D01*
X164539305Y-87513144D01*
X164352407Y-87432940D01*
X164153189Y-87392000D01*
X163751500Y-87392000D01*
X163251500Y-87392000D01*
X162900790Y-87392000D01*
X162749160Y-87407419D01*
X162555110Y-87468303D01*
X162377285Y-87567003D01*
X162222968Y-87699479D01*
X162098478Y-87860307D01*
X162008910Y-88042905D01*
X161983253Y-88141999D01*
X161983253Y-88142000D01*
X157192533Y-88142000D01*
X157327076Y-88069189D01*
X157504740Y-87930906D01*
X157657222Y-87765268D01*
X157780360Y-87576791D01*
X157870796Y-87370616D01*
X157926064Y-87152368D01*
X157944656Y-86928000D01*
X157926064Y-86703632D01*
X157870796Y-86485384D01*
X157780360Y-86279209D01*
X157657222Y-86090732D01*
X157504740Y-85925094D01*
X157327076Y-85786811D01*
X157129074Y-85679658D01*
X157129073Y-85679657D01*
X157129072Y-85679657D01*
X156916136Y-85606556D01*
X156694069Y-85569500D01*
X156468931Y-85569500D01*
X156246863Y-85606556D01*
X156033927Y-85679657D01*
X155835924Y-85786811D01*
X155658260Y-85925094D01*
X155505779Y-86090730D01*
X155415309Y-86229205D01*
X155370517Y-86270438D01*
X155311500Y-86285383D01*
X155252483Y-86270438D01*
X155207691Y-86229205D01*
X155187543Y-86198367D01*
X155117222Y-86090732D01*
X154964740Y-85925094D01*
X154787076Y-85786811D01*
X154589074Y-85679658D01*
X154589073Y-85679657D01*
X154589072Y-85679657D01*
X154376136Y-85606556D01*
X154154069Y-85569500D01*
X153928931Y-85569500D01*
X153706863Y-85606556D01*
X153664263Y-85621181D01*
X153606123Y-85626605D01*
X153551947Y-85604817D01*
X153513749Y-85560651D01*
X153500000Y-85503900D01*
X153500000Y-78664633D01*
X153502289Y-78643890D01*
X153502201Y-78641094D01*
X153502202Y-78641091D01*
X153500060Y-78572968D01*
X153500000Y-78569074D01*
X153500000Y-78541147D01*
X153500000Y-78541144D01*
X153499482Y-78537047D01*
X153498565Y-78525398D01*
X153496682Y-78465452D01*
X153498946Y-78465380D01*
X153497610Y-78430566D01*
X153523741Y-78376537D01*
X153572183Y-78341108D01*
X153631590Y-78332578D01*
X153714023Y-78341000D01*
X153976500Y-78341000D01*
X153976500Y-77216000D01*
X154476500Y-77216000D01*
X154476500Y-78341000D01*
X154738978Y-78341000D01*
X154841695Y-78330506D01*
X155008121Y-78275357D01*
X155157344Y-78183316D01*
X155281316Y-78059344D01*
X155373357Y-77910121D01*
X155428506Y-77743695D01*
X155439000Y-77640978D01*
X155439000Y-77216000D01*
X154476500Y-77216000D01*
X153976500Y-77216000D01*
X153014000Y-77216000D01*
X153014000Y-77533234D01*
X153000485Y-77589529D01*
X152962885Y-77633552D01*
X152909398Y-77655707D01*
X152851682Y-77651165D01*
X152802320Y-77620915D01*
X152508819Y-77327414D01*
X152481939Y-77287186D01*
X152472500Y-77239733D01*
X152472500Y-76290457D01*
X152472500Y-76290456D01*
X152461887Y-76186575D01*
X152406115Y-76018262D01*
X152343563Y-75916850D01*
X152325329Y-75859272D01*
X152336459Y-75799910D01*
X152374311Y-75752846D01*
X152429907Y-75729248D01*
X152490055Y-75734711D01*
X152664859Y-75795877D01*
X152843999Y-75816062D01*
X152980500Y-75800682D01*
X153047953Y-75812070D01*
X153099102Y-75857493D01*
X153118382Y-75923128D01*
X153099923Y-75988998D01*
X153079642Y-76021878D01*
X153024493Y-76188304D01*
X153014000Y-76291022D01*
X153014000Y-76716000D01*
X153976500Y-76716000D01*
X153976500Y-75591000D01*
X154476500Y-75591000D01*
X154476500Y-76716000D01*
X155439000Y-76716000D01*
X155439000Y-76291022D01*
X155428506Y-76188304D01*
X155373357Y-76021878D01*
X155281316Y-75872655D01*
X155157344Y-75748683D01*
X155008121Y-75656642D01*
X154841695Y-75601493D01*
X154738978Y-75591000D01*
X154476500Y-75591000D01*
X153976500Y-75591000D01*
X153714020Y-75591000D01*
X153657297Y-75596794D01*
X153590024Y-75584733D01*
X153539360Y-75538860D01*
X153520696Y-75473113D01*
X153539703Y-75407463D01*
X153569335Y-75360304D01*
X153628876Y-75190144D01*
X153633678Y-75147518D01*
X153651905Y-75095428D01*
X153690928Y-75056405D01*
X153743018Y-75038178D01*
X153785644Y-75033376D01*
X153955803Y-74973835D01*
X153969607Y-74965161D01*
X153969607Y-74965160D01*
X153606500Y-74602053D01*
X152931681Y-75276872D01*
X152876094Y-75308966D01*
X152811906Y-75308966D01*
X152756319Y-75276872D01*
X152081500Y-74602053D01*
X151406681Y-75276872D01*
X151351094Y-75308966D01*
X151286906Y-75308966D01*
X151231319Y-75276872D01*
X150973693Y-75019246D01*
X150556501Y-74602053D01*
X150556500Y-74602053D01*
X150193391Y-74965160D01*
X150207196Y-74973835D01*
X150377355Y-75033376D01*
X150419980Y-75038178D01*
X150472069Y-75056404D01*
X150511092Y-75095425D01*
X150529319Y-75147514D01*
X150534122Y-75190140D01*
X150593664Y-75360303D01*
X150637637Y-75430286D01*
X150655920Y-75482887D01*
X150649340Y-75538184D01*
X150619225Y-75585025D01*
X150571647Y-75613964D01*
X150466264Y-75648884D01*
X150315346Y-75741971D01*
X150189971Y-75867346D01*
X150096884Y-76018264D01*
X150041113Y-76186573D01*
X150030500Y-76290457D01*
X150030500Y-77063233D01*
X150016985Y-77119528D01*
X149979385Y-77163551D01*
X149925898Y-77185706D01*
X149868182Y-77181164D01*
X149818819Y-77150914D01*
X148137819Y-75469914D01*
X148110939Y-75429686D01*
X148101500Y-75382233D01*
X148101500Y-74248499D01*
X149751437Y-74248499D01*
X149771622Y-74427640D01*
X149831165Y-74597804D01*
X149839838Y-74611608D01*
X150202947Y-74248501D01*
X150202947Y-74248500D01*
X150910053Y-74248500D01*
X151319000Y-74657447D01*
X151727947Y-74248500D01*
X152435053Y-74248500D01*
X152844000Y-74657447D01*
X153252946Y-74248501D01*
X153960053Y-74248501D01*
X154323160Y-74611607D01*
X154323161Y-74611607D01*
X154331835Y-74597803D01*
X154391377Y-74427640D01*
X154411562Y-74248499D01*
X154391377Y-74069359D01*
X154331835Y-73899196D01*
X154323160Y-73885391D01*
X153960053Y-74248500D01*
X153960053Y-74248501D01*
X153252946Y-74248501D01*
X153252947Y-74248500D01*
X152844000Y-73839553D01*
X152435053Y-74248500D01*
X151727947Y-74248500D01*
X151319000Y-73839553D01*
X150910053Y-74248500D01*
X150202947Y-74248500D01*
X149839838Y-73885390D01*
X149839838Y-73885391D01*
X149831164Y-73899196D01*
X149771622Y-74069359D01*
X149751437Y-74248499D01*
X148101500Y-74248499D01*
X148101500Y-73531838D01*
X150193390Y-73531838D01*
X150556499Y-73894947D01*
X150965447Y-73486000D01*
X151672553Y-73486000D01*
X152081500Y-73894947D01*
X152490447Y-73486000D01*
X153197553Y-73486000D01*
X153606500Y-73894947D01*
X153606501Y-73894947D01*
X153969608Y-73531838D01*
X153966008Y-73499884D01*
X153966007Y-73472119D01*
X153969607Y-73440160D01*
X153606500Y-73077053D01*
X153197553Y-73486000D01*
X152490447Y-73486000D01*
X152081500Y-73077053D01*
X151672553Y-73486000D01*
X150965447Y-73486000D01*
X150556501Y-73077053D01*
X150556500Y-73077053D01*
X150193390Y-73440161D01*
X150196991Y-73472123D01*
X150196991Y-73499892D01*
X150193390Y-73531838D01*
X148101500Y-73531838D01*
X148101500Y-72723500D01*
X149751437Y-72723500D01*
X149771622Y-72902640D01*
X149831165Y-73072804D01*
X149839838Y-73086608D01*
X150202947Y-72723501D01*
X150202947Y-72723500D01*
X150910053Y-72723500D01*
X151319000Y-73132447D01*
X151727947Y-72723500D01*
X152435053Y-72723500D01*
X152844000Y-73132447D01*
X153252946Y-72723501D01*
X153960053Y-72723501D01*
X154323160Y-73086607D01*
X154323161Y-73086607D01*
X154331835Y-73072803D01*
X154391377Y-72902640D01*
X154411562Y-72723500D01*
X154391377Y-72544359D01*
X154331835Y-72374196D01*
X154323160Y-72360391D01*
X153960053Y-72723500D01*
X153960053Y-72723501D01*
X153252946Y-72723501D01*
X153252947Y-72723500D01*
X152844000Y-72314553D01*
X152435053Y-72723500D01*
X151727947Y-72723500D01*
X151319000Y-72314553D01*
X150910053Y-72723500D01*
X150202947Y-72723500D01*
X149839838Y-72360390D01*
X149839838Y-72360391D01*
X149831164Y-72374196D01*
X149771622Y-72544359D01*
X149751437Y-72723500D01*
X148101500Y-72723500D01*
X148101500Y-72006838D01*
X150193390Y-72006838D01*
X150556499Y-72369947D01*
X150965446Y-71961001D01*
X151672553Y-71961001D01*
X152081499Y-72369947D01*
X152490447Y-71960999D01*
X153197552Y-71960999D01*
X153606500Y-72369947D01*
X153606501Y-72369947D01*
X153969608Y-72006838D01*
X153955804Y-71998165D01*
X153785640Y-71938622D01*
X153743014Y-71933819D01*
X153690925Y-71915592D01*
X153651904Y-71876569D01*
X153633678Y-71824480D01*
X153628876Y-71781855D01*
X153569335Y-71611696D01*
X153560660Y-71597891D01*
X153197552Y-71960999D01*
X152490447Y-71960999D01*
X152127338Y-71597890D01*
X152095392Y-71601491D01*
X152067623Y-71601491D01*
X152035661Y-71597890D01*
X151672553Y-71961000D01*
X151672553Y-71961001D01*
X150965446Y-71961001D01*
X150965447Y-71961000D01*
X150602338Y-71597890D01*
X150602338Y-71597891D01*
X150593664Y-71611696D01*
X150534122Y-71781859D01*
X150529319Y-71824485D01*
X150511092Y-71876572D01*
X150472072Y-71915592D01*
X150419985Y-71933819D01*
X150377359Y-71938622D01*
X150207196Y-71998164D01*
X150193391Y-72006838D01*
X150193390Y-72006838D01*
X148101500Y-72006838D01*
X148101500Y-71945766D01*
X148110939Y-71898313D01*
X148137819Y-71858085D01*
X148721341Y-71274563D01*
X148751566Y-71244338D01*
X150955890Y-71244338D01*
X151319000Y-71607447D01*
X151319001Y-71607447D01*
X151682108Y-71244338D01*
X152480890Y-71244338D01*
X152844000Y-71607447D01*
X152844001Y-71607447D01*
X153207108Y-71244338D01*
X153193304Y-71235665D01*
X153023140Y-71176122D01*
X152844000Y-71155937D01*
X152664859Y-71176122D01*
X152494696Y-71235664D01*
X152480891Y-71244338D01*
X152480890Y-71244338D01*
X151682108Y-71244338D01*
X151668304Y-71235665D01*
X151498140Y-71176122D01*
X151319000Y-71155937D01*
X151139859Y-71176122D01*
X150969696Y-71235664D01*
X150955891Y-71244338D01*
X150955890Y-71244338D01*
X148751566Y-71244338D01*
X150514727Y-69481175D01*
X150573812Y-69448200D01*
X150620784Y-69450251D01*
X150621065Y-69447507D01*
X150704288Y-69456009D01*
X150738456Y-69459500D01*
X151764543Y-69459500D01*
X151764544Y-69459500D01*
X151868425Y-69448887D01*
X152036738Y-69393115D01*
X152187651Y-69300030D01*
X152313030Y-69174651D01*
X152406115Y-69023738D01*
X152461887Y-68855425D01*
X152472500Y-68751544D01*
X152472500Y-68326000D01*
X153014000Y-68326000D01*
X153014000Y-68750978D01*
X153024493Y-68853695D01*
X153079642Y-69020121D01*
X153171683Y-69169344D01*
X153295655Y-69293316D01*
X153444878Y-69385357D01*
X153611304Y-69440506D01*
X153714022Y-69451000D01*
X153976500Y-69451000D01*
X153976500Y-68326000D01*
X154476500Y-68326000D01*
X154476500Y-69451000D01*
X154738978Y-69451000D01*
X154841695Y-69440506D01*
X155008121Y-69385357D01*
X155157344Y-69293316D01*
X155281316Y-69169344D01*
X155373357Y-69020121D01*
X155428506Y-68853695D01*
X155439000Y-68750978D01*
X155439000Y-68326000D01*
X154476500Y-68326000D01*
X153976500Y-68326000D01*
X153014000Y-68326000D01*
X152472500Y-68326000D01*
X152472500Y-67826000D01*
X153014000Y-67826000D01*
X153976500Y-67826000D01*
X153976500Y-66701000D01*
X154476500Y-66701000D01*
X154476500Y-67826000D01*
X155439000Y-67826000D01*
X155439000Y-67401022D01*
X155428506Y-67298304D01*
X155373357Y-67131878D01*
X155281316Y-66982655D01*
X155157344Y-66858683D01*
X155008121Y-66766642D01*
X154841695Y-66711493D01*
X154738978Y-66701000D01*
X154476500Y-66701000D01*
X153976500Y-66701000D01*
X153714022Y-66701000D01*
X153611304Y-66711493D01*
X153444878Y-66766642D01*
X153295655Y-66858683D01*
X153171683Y-66982655D01*
X153079642Y-67131878D01*
X153024493Y-67298304D01*
X153014000Y-67401022D01*
X153014000Y-67826000D01*
X152472500Y-67826000D01*
X152472500Y-67400456D01*
X152461887Y-67296575D01*
X152406115Y-67128262D01*
X152313030Y-66977349D01*
X152313029Y-66977348D01*
X152313028Y-66977346D01*
X152187653Y-66851971D01*
X152155128Y-66831909D01*
X152036738Y-66758885D01*
X152036735Y-66758884D01*
X151868426Y-66703113D01*
X151816484Y-66697806D01*
X151764544Y-66692500D01*
X150738456Y-66692500D01*
X150703829Y-66696037D01*
X150634573Y-66703113D01*
X150466264Y-66758884D01*
X150315346Y-66851971D01*
X150189971Y-66977346D01*
X150096884Y-67128264D01*
X150041113Y-67296573D01*
X150030500Y-67400457D01*
X150030500Y-68122233D01*
X150021061Y-68169686D01*
X149994181Y-68209914D01*
X147079180Y-71124913D01*
X147062896Y-71137961D01*
X147014339Y-71189668D01*
X147011633Y-71192461D01*
X146991861Y-71212233D01*
X146989321Y-71215508D01*
X146981752Y-71224369D01*
X146951414Y-71256677D01*
X146941582Y-71274563D01*
X146930901Y-71290823D01*
X146918385Y-71306959D01*
X146900786Y-71347628D01*
X146895648Y-71358117D01*
X146874303Y-71396943D01*
X146869226Y-71416718D01*
X146862925Y-71435123D01*
X146854818Y-71453856D01*
X146847888Y-71497610D01*
X146845520Y-71509046D01*
X146834500Y-71551970D01*
X146834500Y-71572384D01*
X146832973Y-71591783D01*
X146829780Y-71611941D01*
X134768500Y-71611941D01*
X134768500Y-60895999D01*
X135415052Y-60895999D01*
X135415053Y-60896000D01*
X138107947Y-60896000D01*
X138107947Y-60895999D01*
X136761500Y-59549553D01*
X135415052Y-60895999D01*
X134768500Y-60895999D01*
X134768500Y-60886809D01*
X134777939Y-60839356D01*
X134804819Y-60799128D01*
X136673819Y-58930128D01*
X136729406Y-58898034D01*
X136793594Y-58898034D01*
X136849181Y-58930128D01*
X138814496Y-60895443D01*
X138868875Y-60889597D01*
X139003589Y-60839352D01*
X139118688Y-60753188D01*
X139204852Y-60638089D01*
X139255097Y-60503375D01*
X139261500Y-60443824D01*
X139261500Y-58738753D01*
X139275015Y-58682458D01*
X139312615Y-58638435D01*
X139366102Y-58616280D01*
X139423818Y-58620822D01*
G37*
G04 #@! TD.AperFunction*
G04 #@! TA.AperFunction,Conductor*
G36*
X166210385Y-58638435D02*
G01*
X166247985Y-58682458D01*
X166261500Y-58738753D01*
X166261500Y-60109552D01*
X166247667Y-60166466D01*
X166209255Y-60210681D01*
X166154834Y-60232334D01*
X166096546Y-60226594D01*
X165937044Y-60170782D01*
X165756000Y-60150383D01*
X165574955Y-60170782D01*
X165402984Y-60230957D01*
X165342720Y-60268824D01*
X165274810Y-60311494D01*
X165208840Y-60330500D01*
X163807628Y-60330500D01*
X163786892Y-60328211D01*
X163784091Y-60328299D01*
X163716001Y-60330439D01*
X163712106Y-60330500D01*
X163684144Y-60330500D01*
X163680032Y-60331019D01*
X163668401Y-60331934D01*
X163624110Y-60333326D01*
X163604507Y-60339022D01*
X163585456Y-60342967D01*
X163565203Y-60345525D01*
X163524008Y-60361835D01*
X163512962Y-60365616D01*
X163470405Y-60377981D01*
X163452827Y-60388376D01*
X163435360Y-60396933D01*
X163416384Y-60404446D01*
X163380544Y-60430485D01*
X163370786Y-60436895D01*
X163332637Y-60459457D01*
X163318196Y-60473898D01*
X163303409Y-60486527D01*
X163286892Y-60498528D01*
X163258652Y-60532663D01*
X163250792Y-60541301D01*
X163153942Y-60638151D01*
X163120063Y-60662190D01*
X163080146Y-60673690D01*
X163034955Y-60678782D01*
X162862984Y-60738957D01*
X162708717Y-60835890D01*
X162579890Y-60964717D01*
X162482957Y-61118984D01*
X162422782Y-61290955D01*
X162415749Y-61353383D01*
X162394983Y-61409351D01*
X162350471Y-61449130D01*
X162292529Y-61463500D01*
X159465767Y-61463500D01*
X159418314Y-61454061D01*
X159378086Y-61427181D01*
X158309588Y-60358683D01*
X158296544Y-60342401D01*
X158244848Y-60293856D01*
X158242051Y-60291145D01*
X158222273Y-60271367D01*
X158218995Y-60268824D01*
X158210122Y-60261245D01*
X158177821Y-60230914D01*
X158159933Y-60221080D01*
X158143669Y-60210396D01*
X158127540Y-60197885D01*
X158086877Y-60180289D01*
X158076383Y-60175148D01*
X158037562Y-60153805D01*
X158024232Y-60150383D01*
X158017784Y-60148727D01*
X157999379Y-60142426D01*
X157980645Y-60134319D01*
X157980643Y-60134318D01*
X157980642Y-60134318D01*
X157936883Y-60127387D01*
X157925443Y-60125018D01*
X157882531Y-60114000D01*
X157882530Y-60114000D01*
X157862116Y-60114000D01*
X157842717Y-60112473D01*
X157822558Y-60109280D01*
X157822557Y-60109280D01*
X157800236Y-60111390D01*
X157778443Y-60113450D01*
X157766774Y-60114000D01*
X157159160Y-60114000D01*
X157093189Y-60094994D01*
X156965015Y-60014457D01*
X156870947Y-59981541D01*
X156814955Y-59941813D01*
X156788682Y-59878384D01*
X156800182Y-59810698D01*
X156845930Y-59759506D01*
X156911902Y-59740500D01*
X164716597Y-59740500D01*
X164754359Y-59731880D01*
X164768048Y-59729553D01*
X164806547Y-59725217D01*
X164843124Y-59712417D01*
X164856442Y-59708581D01*
X164894220Y-59699959D01*
X164929115Y-59683153D01*
X164941949Y-59677836D01*
X164978515Y-59665043D01*
X165011317Y-59644430D01*
X165023461Y-59637719D01*
X165058370Y-59620909D01*
X165088653Y-59596757D01*
X165099978Y-59588721D01*
X165132781Y-59568111D01*
X165261611Y-59439281D01*
X165261611Y-59439280D01*
X166049819Y-58651072D01*
X166099182Y-58620822D01*
X166156898Y-58616280D01*
X166210385Y-58638435D01*
G37*
G04 #@! TD.AperFunction*
G04 #@! TA.AperFunction,Conductor*
G36*
X129355067Y-58456547D02*
G01*
X129388717Y-58505757D01*
X129424647Y-58602088D01*
X129510811Y-58717188D01*
X129625910Y-58803352D01*
X129760624Y-58853597D01*
X129820176Y-58860000D01*
X132143500Y-58860000D01*
X132205500Y-58876613D01*
X132250887Y-58922000D01*
X132267500Y-58984000D01*
X132267500Y-136356519D01*
X132267305Y-136363472D01*
X132254034Y-136599769D01*
X132254019Y-136600026D01*
X132248732Y-136690805D01*
X132247190Y-136704366D01*
X132215109Y-136893178D01*
X132214977Y-136893939D01*
X132191222Y-137028662D01*
X132188260Y-137041457D01*
X132137791Y-137216640D01*
X132137427Y-137217877D01*
X132095556Y-137357733D01*
X132091327Y-137369622D01*
X132023045Y-137534469D01*
X132022343Y-137536129D01*
X131963006Y-137673689D01*
X131957675Y-137684557D01*
X131872396Y-137838857D01*
X131871255Y-137840876D01*
X131795292Y-137972448D01*
X131789034Y-137982203D01*
X131687818Y-138124853D01*
X131686153Y-138127145D01*
X131594617Y-138250100D01*
X131587613Y-138258680D01*
X131471662Y-138388430D01*
X131469396Y-138390897D01*
X131363617Y-138503015D01*
X131356050Y-138510380D01*
X131226786Y-138625898D01*
X131223865Y-138628429D01*
X131105296Y-138727920D01*
X131097345Y-138734060D01*
X130956328Y-138834117D01*
X130952711Y-138836588D01*
X130823044Y-138921870D01*
X130814888Y-138926796D01*
X130663868Y-139010263D01*
X130659537Y-139012547D01*
X130520545Y-139082351D01*
X130512346Y-139086101D01*
X130353149Y-139152042D01*
X130348108Y-139154003D01*
X130201770Y-139207267D01*
X130193686Y-139209899D01*
X130028242Y-139257562D01*
X130022511Y-139259066D01*
X129870840Y-139295012D01*
X129863015Y-139296602D01*
X129693414Y-139325419D01*
X129687038Y-139326333D01*
X129532100Y-139344442D01*
X129524659Y-139345085D01*
X129356540Y-139354527D01*
X129352955Y-139354729D01*
X129346003Y-139354924D01*
X129189997Y-139354924D01*
X129183044Y-139354729D01*
X129179174Y-139354511D01*
X129011339Y-139345085D01*
X129003898Y-139344442D01*
X128848960Y-139326333D01*
X128842584Y-139325419D01*
X128672983Y-139296602D01*
X128665158Y-139295012D01*
X128513487Y-139259066D01*
X128507756Y-139257562D01*
X128342312Y-139209899D01*
X128334228Y-139207267D01*
X128187890Y-139154003D01*
X128182849Y-139152042D01*
X128023652Y-139086101D01*
X128015453Y-139082351D01*
X127876461Y-139012547D01*
X127872130Y-139010263D01*
X127721110Y-138926796D01*
X127712954Y-138921870D01*
X127583287Y-138836588D01*
X127579670Y-138834117D01*
X127438653Y-138734060D01*
X127430702Y-138727920D01*
X127312133Y-138628429D01*
X127309212Y-138625898D01*
X127179948Y-138510380D01*
X127172381Y-138503015D01*
X127125770Y-138453610D01*
X127066575Y-138390868D01*
X127064363Y-138388460D01*
X126948385Y-138258680D01*
X126941381Y-138250100D01*
X126849845Y-138127145D01*
X126848180Y-138124853D01*
X126746964Y-137982203D01*
X126740712Y-137972458D01*
X126664731Y-137840856D01*
X126663602Y-137838857D01*
X126578317Y-137684546D01*
X126572998Y-137673701D01*
X126513640Y-137536094D01*
X126512953Y-137534469D01*
X126444671Y-137369622D01*
X126440442Y-137357733D01*
X126398571Y-137217877D01*
X126398258Y-137216814D01*
X126347734Y-137041443D01*
X126344779Y-137028674D01*
X126320984Y-136893728D01*
X126320937Y-136893458D01*
X126288805Y-136704345D01*
X126287268Y-136690823D01*
X126281965Y-136599769D01*
X126272541Y-136431961D01*
X128767500Y-136431961D01*
X128808047Y-136570053D01*
X128885661Y-136690823D01*
X128885858Y-136691129D01*
X128994625Y-136785376D01*
X129125542Y-136845165D01*
X129232201Y-136860500D01*
X129303799Y-136860500D01*
X129410457Y-136845165D01*
X129410457Y-136845164D01*
X129541373Y-136785377D01*
X129650143Y-136691128D01*
X129727953Y-136570053D01*
X129768500Y-136431961D01*
X129768500Y-136288039D01*
X129727953Y-136149947D01*
X129650143Y-136028872D01*
X129650141Y-136028870D01*
X129541374Y-135934623D01*
X129410457Y-135874834D01*
X129303799Y-135859500D01*
X129232201Y-135859500D01*
X129125542Y-135874834D01*
X128994625Y-135934623D01*
X128885858Y-136028870D01*
X128885856Y-136028872D01*
X128885857Y-136028872D01*
X128808047Y-136149947D01*
X128767500Y-136288039D01*
X128767500Y-136431961D01*
X126272541Y-136431961D01*
X126268695Y-136363472D01*
X126268500Y-136356519D01*
X126268500Y-135267024D01*
X126284652Y-135205829D01*
X126328900Y-135160576D01*
X126389717Y-135143055D01*
X126451259Y-135157830D01*
X126497493Y-135201051D01*
X126591889Y-135351281D01*
X126720719Y-135480111D01*
X126874985Y-135577043D01*
X127046953Y-135637217D01*
X127228000Y-135657616D01*
X127409047Y-135637217D01*
X127581015Y-135577043D01*
X127735281Y-135480111D01*
X127864111Y-135351281D01*
X127961043Y-135197015D01*
X128021217Y-135025047D01*
X128041616Y-134844000D01*
X128021217Y-134662953D01*
X127988816Y-134570358D01*
X127984967Y-134501814D01*
X128018175Y-134441727D01*
X128720135Y-133739770D01*
X128720136Y-133739767D01*
X128730925Y-133728979D01*
X128730928Y-133728975D01*
X129140816Y-133319086D01*
X129157097Y-133306044D01*
X129159014Y-133304002D01*
X129159018Y-133304000D01*
X129205706Y-133254279D01*
X129208323Y-133251579D01*
X129228134Y-133231770D01*
X129230672Y-133228497D01*
X129238241Y-133219634D01*
X129268586Y-133187321D01*
X129278422Y-133169427D01*
X129289102Y-133153168D01*
X129301613Y-133137041D01*
X129319211Y-133096372D01*
X129324341Y-133085900D01*
X129345695Y-133047060D01*
X129350772Y-133027282D01*
X129357074Y-133008878D01*
X129365181Y-132990145D01*
X129372112Y-132946375D01*
X129374475Y-132934966D01*
X129385500Y-132892030D01*
X129385500Y-132871609D01*
X129387027Y-132852210D01*
X129390219Y-132832057D01*
X129386050Y-132787951D01*
X129385500Y-132776282D01*
X129385500Y-132343160D01*
X129404506Y-132277188D01*
X129485043Y-132149015D01*
X129545217Y-131977047D01*
X129565616Y-131796000D01*
X129545217Y-131614953D01*
X129485043Y-131442985D01*
X129388111Y-131288719D01*
X129259281Y-131159889D01*
X129105015Y-131062957D01*
X128933047Y-131002783D01*
X128933046Y-131002782D01*
X128933044Y-131002782D01*
X128752000Y-130982383D01*
X128570955Y-131002782D01*
X128398984Y-131062957D01*
X128244717Y-131159890D01*
X128115890Y-131288717D01*
X128018957Y-131442984D01*
X127958782Y-131614955D01*
X127938383Y-131795999D01*
X127958782Y-131977044D01*
X128018957Y-132149015D01*
X128099494Y-132277188D01*
X128118500Y-132343160D01*
X128118500Y-132498233D01*
X128109061Y-132545686D01*
X128082181Y-132585914D01*
X127767861Y-132900234D01*
X126839182Y-133828912D01*
X126822901Y-133841955D01*
X126774338Y-133893669D01*
X126771632Y-133896462D01*
X126751861Y-133916233D01*
X126749321Y-133919508D01*
X126741752Y-133928369D01*
X126711414Y-133960677D01*
X126701582Y-133978563D01*
X126690901Y-133994823D01*
X126678385Y-134010959D01*
X126660786Y-134051628D01*
X126655648Y-134062117D01*
X126634303Y-134100943D01*
X126629226Y-134120718D01*
X126622925Y-134139123D01*
X126614818Y-134157856D01*
X126607888Y-134201610D01*
X126605520Y-134213046D01*
X126594500Y-134255970D01*
X126594500Y-134276385D01*
X126592973Y-134295786D01*
X126588641Y-134323132D01*
X126571163Y-134369702D01*
X126497493Y-134486948D01*
X126451261Y-134530169D01*
X126389719Y-134544945D01*
X126328901Y-134527424D01*
X126284652Y-134482171D01*
X126268500Y-134420976D01*
X126268500Y-127459766D01*
X126282015Y-127403471D01*
X126319615Y-127359448D01*
X126373102Y-127337293D01*
X126430818Y-127341835D01*
X126480180Y-127372084D01*
X127219984Y-128111889D01*
X127918151Y-128810056D01*
X127942190Y-128843935D01*
X127953690Y-128883852D01*
X127958782Y-128929044D01*
X127958782Y-128929046D01*
X127958783Y-128929047D01*
X128018957Y-129101015D01*
X128115889Y-129255281D01*
X128244719Y-129384111D01*
X128398985Y-129481043D01*
X128570953Y-129541217D01*
X128752000Y-129561616D01*
X128933047Y-129541217D01*
X129105015Y-129481043D01*
X129259281Y-129384111D01*
X129388111Y-129255281D01*
X129485043Y-129101015D01*
X129545217Y-128929047D01*
X129565616Y-128748000D01*
X129545217Y-128566953D01*
X129485043Y-128394985D01*
X129388111Y-128240719D01*
X129259281Y-128111889D01*
X129105015Y-128014957D01*
X128933047Y-127954783D01*
X128933046Y-127954782D01*
X128933044Y-127954782D01*
X128887852Y-127949690D01*
X128847935Y-127938190D01*
X128814056Y-127914151D01*
X127389819Y-126489914D01*
X127362939Y-126449686D01*
X127353500Y-126402233D01*
X127353500Y-125513273D01*
X127368668Y-125453846D01*
X127410460Y-125408958D01*
X127468654Y-125389589D01*
X127529011Y-125400479D01*
X127576767Y-125438962D01*
X127580773Y-125444313D01*
X127580774Y-125444315D01*
X127752261Y-125673395D01*
X127954605Y-125875739D01*
X128126414Y-126004354D01*
X128183686Y-126047227D01*
X128323435Y-126123535D01*
X128434839Y-126184367D01*
X128702954Y-126284369D01*
X128702957Y-126284369D01*
X128702958Y-126284370D01*
X128755217Y-126295738D01*
X128982572Y-126345196D01*
X129268000Y-126365610D01*
X129553428Y-126345196D01*
X129833046Y-126284369D01*
X130101161Y-126184367D01*
X130352315Y-126047226D01*
X130581395Y-125875739D01*
X130783739Y-125673395D01*
X130955226Y-125444315D01*
X131092367Y-125193161D01*
X131192369Y-124925046D01*
X131253196Y-124645428D01*
X131273610Y-124360000D01*
X131253196Y-124074572D01*
X131192369Y-123794954D01*
X131092367Y-123526839D01*
X130985109Y-123330411D01*
X130955227Y-123275686D01*
X130903605Y-123206727D01*
X130783739Y-123046605D01*
X130581395Y-122844261D01*
X130466855Y-122758517D01*
X130352313Y-122672772D01*
X130101163Y-122535634D01*
X130101162Y-122535633D01*
X130101161Y-122535633D01*
X129926123Y-122470347D01*
X129833041Y-122435629D01*
X129553429Y-122374804D01*
X129268000Y-122354389D01*
X128982570Y-122374804D01*
X128702958Y-122435629D01*
X128434836Y-122535634D01*
X128183686Y-122672772D01*
X127954602Y-122844263D01*
X127752263Y-123046602D01*
X127576767Y-123281038D01*
X127529011Y-123319521D01*
X127468654Y-123330411D01*
X127410460Y-123311042D01*
X127368668Y-123266154D01*
X127353500Y-123206727D01*
X127353500Y-70513273D01*
X127368668Y-70453846D01*
X127410460Y-70408958D01*
X127468654Y-70389589D01*
X127529011Y-70400479D01*
X127576767Y-70438962D01*
X127580773Y-70444313D01*
X127580774Y-70444315D01*
X127752261Y-70673395D01*
X127954605Y-70875739D01*
X128126415Y-71004354D01*
X128183686Y-71047227D01*
X128323435Y-71123535D01*
X128434839Y-71184367D01*
X128702954Y-71284369D01*
X128702957Y-71284369D01*
X128702958Y-71284370D01*
X128755217Y-71295738D01*
X128982572Y-71345196D01*
X129246012Y-71364037D01*
X129267999Y-71365610D01*
X129267999Y-71365609D01*
X129268000Y-71365610D01*
X129553428Y-71345196D01*
X129833046Y-71284369D01*
X130101161Y-71184367D01*
X130352315Y-71047226D01*
X130581395Y-70875739D01*
X130783739Y-70673395D01*
X130955226Y-70444315D01*
X131092367Y-70193161D01*
X131192369Y-69925046D01*
X131253196Y-69645428D01*
X131273610Y-69360000D01*
X131253196Y-69074572D01*
X131192369Y-68794954D01*
X131092367Y-68526839D01*
X130985109Y-68330411D01*
X130955227Y-68275686D01*
X130903605Y-68206727D01*
X130783739Y-68046605D01*
X130581395Y-67844261D01*
X130466855Y-67758517D01*
X130352313Y-67672772D01*
X130101163Y-67535634D01*
X130101162Y-67535633D01*
X130101161Y-67535633D01*
X129926123Y-67470347D01*
X129833041Y-67435629D01*
X129553429Y-67374804D01*
X129267999Y-67354389D01*
X128982570Y-67374804D01*
X128702958Y-67435629D01*
X128434836Y-67535634D01*
X128183686Y-67672772D01*
X127954602Y-67844263D01*
X127752263Y-68046602D01*
X127576767Y-68281038D01*
X127529011Y-68319521D01*
X127468654Y-68330411D01*
X127410460Y-68311042D01*
X127368668Y-68266154D01*
X127353500Y-68206727D01*
X127353500Y-58992500D01*
X127370113Y-58930500D01*
X127415500Y-58885113D01*
X127477500Y-58868500D01*
X128716634Y-58868500D01*
X128716638Y-58868500D01*
X128777201Y-58861989D01*
X128777203Y-58861988D01*
X128777205Y-58861988D01*
X128855124Y-58832924D01*
X128914204Y-58810889D01*
X129031261Y-58723261D01*
X129118889Y-58606204D01*
X129156355Y-58505753D01*
X129190002Y-58456547D01*
X129242727Y-58428727D01*
X129302342Y-58428727D01*
X129355067Y-58456547D01*
G37*
G04 #@! TD.AperFunction*
G04 #@! TA.AperFunction,Conductor*
G36*
X176345996Y-58456547D02*
G01*
X176379645Y-58505757D01*
X176417110Y-58606203D01*
X176504738Y-58723261D01*
X176621796Y-58810889D01*
X176758794Y-58861988D01*
X176758797Y-58861988D01*
X176758799Y-58861989D01*
X176819362Y-58868500D01*
X178058500Y-58868500D01*
X178120500Y-58885113D01*
X178165887Y-58930500D01*
X178182500Y-58992500D01*
X178182500Y-68206727D01*
X178167332Y-68266154D01*
X178125540Y-68311042D01*
X178067346Y-68330411D01*
X178006989Y-68319521D01*
X177959233Y-68281038D01*
X177948091Y-68266154D01*
X177783739Y-68046605D01*
X177581395Y-67844261D01*
X177466855Y-67758517D01*
X177352313Y-67672772D01*
X177101163Y-67535634D01*
X177101162Y-67535633D01*
X177101161Y-67535633D01*
X176926123Y-67470347D01*
X176833041Y-67435629D01*
X176553429Y-67374804D01*
X176267999Y-67354389D01*
X175982570Y-67374804D01*
X175702958Y-67435629D01*
X175434836Y-67535634D01*
X175183686Y-67672772D01*
X174954602Y-67844263D01*
X174752263Y-68046602D01*
X174580772Y-68275686D01*
X174443634Y-68526836D01*
X174343629Y-68794958D01*
X174282804Y-69074570D01*
X174262389Y-69359999D01*
X174282804Y-69645429D01*
X174343629Y-69925041D01*
X174443634Y-70193163D01*
X174580772Y-70444313D01*
X174632395Y-70513273D01*
X174752261Y-70673395D01*
X174954605Y-70875739D01*
X175126415Y-71004354D01*
X175183686Y-71047227D01*
X175323435Y-71123535D01*
X175434839Y-71184367D01*
X175702954Y-71284369D01*
X175702957Y-71284369D01*
X175702958Y-71284370D01*
X175755217Y-71295738D01*
X175982572Y-71345196D01*
X176246012Y-71364037D01*
X176267999Y-71365610D01*
X176267999Y-71365609D01*
X176268000Y-71365610D01*
X176553428Y-71345196D01*
X176833046Y-71284369D01*
X177101161Y-71184367D01*
X177352315Y-71047226D01*
X177581395Y-70875739D01*
X177783739Y-70673395D01*
X177955226Y-70444315D01*
X177955226Y-70444313D01*
X177959233Y-70438962D01*
X178006989Y-70400479D01*
X178067346Y-70389589D01*
X178125540Y-70408958D01*
X178167332Y-70453846D01*
X178182500Y-70513273D01*
X178182500Y-123206727D01*
X178167332Y-123266154D01*
X178125540Y-123311042D01*
X178067346Y-123330411D01*
X178006989Y-123319521D01*
X177959233Y-123281038D01*
X177948091Y-123266154D01*
X177783739Y-123046605D01*
X177581395Y-122844261D01*
X177466855Y-122758517D01*
X177352313Y-122672772D01*
X177101163Y-122535634D01*
X177101162Y-122535633D01*
X177101161Y-122535633D01*
X176926123Y-122470347D01*
X176833041Y-122435629D01*
X176553429Y-122374804D01*
X176268000Y-122354389D01*
X175982570Y-122374804D01*
X175702958Y-122435629D01*
X175434836Y-122535634D01*
X175183686Y-122672772D01*
X174954602Y-122844263D01*
X174752263Y-123046602D01*
X174580772Y-123275686D01*
X174443634Y-123526836D01*
X174343629Y-123794958D01*
X174282804Y-124074570D01*
X174262389Y-124359999D01*
X174282804Y-124645429D01*
X174343629Y-124925041D01*
X174443634Y-125193163D01*
X174580772Y-125444313D01*
X174632395Y-125513273D01*
X174752261Y-125673395D01*
X174954605Y-125875739D01*
X175126414Y-126004354D01*
X175183686Y-126047227D01*
X175323435Y-126123535D01*
X175434839Y-126184367D01*
X175702954Y-126284369D01*
X175702957Y-126284369D01*
X175702958Y-126284370D01*
X175755217Y-126295738D01*
X175982572Y-126345196D01*
X176268000Y-126365610D01*
X176553428Y-126345196D01*
X176833046Y-126284369D01*
X177101161Y-126184367D01*
X177352315Y-126047226D01*
X177581395Y-125875739D01*
X177783739Y-125673395D01*
X177955226Y-125444315D01*
X177955226Y-125444313D01*
X177959233Y-125438962D01*
X178006989Y-125400479D01*
X178067346Y-125389589D01*
X178125540Y-125408958D01*
X178167332Y-125453846D01*
X178182500Y-125513273D01*
X178182500Y-127194234D01*
X178173061Y-127241687D01*
X178146181Y-127281915D01*
X176721942Y-128706151D01*
X176688063Y-128730190D01*
X176648146Y-128741690D01*
X176602956Y-128746782D01*
X176602953Y-128746782D01*
X176602953Y-128746783D01*
X176430985Y-128806957D01*
X176430983Y-128806957D01*
X176430983Y-128806958D01*
X176276717Y-128903890D01*
X176147890Y-129032717D01*
X176050957Y-129186984D01*
X175990782Y-129358955D01*
X175970383Y-129539999D01*
X175990782Y-129721044D01*
X175990782Y-129721046D01*
X175990783Y-129721047D01*
X176050957Y-129893015D01*
X176147889Y-130047281D01*
X176276719Y-130176111D01*
X176430985Y-130273043D01*
X176602953Y-130333217D01*
X176784000Y-130353616D01*
X176965047Y-130333217D01*
X177137015Y-130273043D01*
X177291281Y-130176111D01*
X177420111Y-130047281D01*
X177517043Y-129893015D01*
X177577217Y-129721047D01*
X177582309Y-129675852D01*
X177593809Y-129635935D01*
X177617845Y-129602058D01*
X179055818Y-128164085D01*
X179105182Y-128133835D01*
X179162898Y-128129293D01*
X179216385Y-128151448D01*
X179253985Y-128195471D01*
X179267500Y-128251766D01*
X179267500Y-136356519D01*
X179267305Y-136363472D01*
X179254034Y-136599769D01*
X179254019Y-136600026D01*
X179248732Y-136690805D01*
X179247190Y-136704366D01*
X179215109Y-136893178D01*
X179214977Y-136893939D01*
X179191222Y-137028662D01*
X179188260Y-137041457D01*
X179137791Y-137216640D01*
X179137427Y-137217877D01*
X179095556Y-137357733D01*
X179091327Y-137369622D01*
X179023045Y-137534469D01*
X179022343Y-137536129D01*
X178963006Y-137673689D01*
X178957675Y-137684557D01*
X178872396Y-137838857D01*
X178871255Y-137840876D01*
X178795292Y-137972448D01*
X178789034Y-137982203D01*
X178687818Y-138124853D01*
X178686153Y-138127145D01*
X178594617Y-138250100D01*
X178587613Y-138258680D01*
X178471662Y-138388430D01*
X178469396Y-138390897D01*
X178363617Y-138503015D01*
X178356050Y-138510380D01*
X178226786Y-138625898D01*
X178223865Y-138628429D01*
X178105296Y-138727920D01*
X178097345Y-138734060D01*
X177956328Y-138834117D01*
X177952711Y-138836588D01*
X177823044Y-138921870D01*
X177814888Y-138926796D01*
X177663868Y-139010263D01*
X177659537Y-139012547D01*
X177520545Y-139082351D01*
X177512346Y-139086101D01*
X177353149Y-139152042D01*
X177348108Y-139154003D01*
X177201770Y-139207267D01*
X177193686Y-139209899D01*
X177028242Y-139257562D01*
X177022511Y-139259066D01*
X176870840Y-139295012D01*
X176863015Y-139296602D01*
X176693414Y-139325419D01*
X176687038Y-139326333D01*
X176532100Y-139344442D01*
X176524659Y-139345085D01*
X176356540Y-139354527D01*
X176352955Y-139354729D01*
X176346003Y-139354924D01*
X176189997Y-139354924D01*
X176183044Y-139354729D01*
X176179174Y-139354511D01*
X176011339Y-139345085D01*
X176003898Y-139344442D01*
X175848960Y-139326333D01*
X175842584Y-139325419D01*
X175672983Y-139296602D01*
X175665158Y-139295012D01*
X175513487Y-139259066D01*
X175507756Y-139257562D01*
X175342312Y-139209899D01*
X175334228Y-139207267D01*
X175187890Y-139154003D01*
X175182849Y-139152042D01*
X175023652Y-139086101D01*
X175015453Y-139082351D01*
X174876461Y-139012547D01*
X174872130Y-139010263D01*
X174721110Y-138926796D01*
X174712954Y-138921870D01*
X174583287Y-138836588D01*
X174579670Y-138834117D01*
X174438653Y-138734060D01*
X174430702Y-138727920D01*
X174312133Y-138628429D01*
X174309212Y-138625898D01*
X174179948Y-138510380D01*
X174172381Y-138503015D01*
X174125770Y-138453610D01*
X174066575Y-138390868D01*
X174064363Y-138388460D01*
X173948385Y-138258680D01*
X173941381Y-138250100D01*
X173849845Y-138127145D01*
X173848180Y-138124853D01*
X173746964Y-137982203D01*
X173740712Y-137972458D01*
X173664731Y-137840856D01*
X173663602Y-137838857D01*
X173578317Y-137684546D01*
X173572998Y-137673701D01*
X173513640Y-137536094D01*
X173512953Y-137534469D01*
X173444671Y-137369622D01*
X173440442Y-137357733D01*
X173398571Y-137217877D01*
X173398258Y-137216814D01*
X173347734Y-137041443D01*
X173344779Y-137028674D01*
X173320984Y-136893728D01*
X173320937Y-136893458D01*
X173288805Y-136704345D01*
X173287268Y-136690823D01*
X173281965Y-136599769D01*
X173272541Y-136431961D01*
X175767500Y-136431961D01*
X175808047Y-136570053D01*
X175885661Y-136690823D01*
X175885858Y-136691129D01*
X175994625Y-136785376D01*
X176125542Y-136845165D01*
X176232201Y-136860500D01*
X176303799Y-136860500D01*
X176410457Y-136845165D01*
X176410457Y-136845164D01*
X176541373Y-136785377D01*
X176650143Y-136691128D01*
X176727953Y-136570053D01*
X176768500Y-136431961D01*
X176768500Y-136288039D01*
X176727953Y-136149947D01*
X176650143Y-136028872D01*
X176650141Y-136028870D01*
X176541374Y-135934623D01*
X176410457Y-135874834D01*
X176303799Y-135859500D01*
X176232201Y-135859500D01*
X176125542Y-135874834D01*
X175994625Y-135934623D01*
X175885858Y-136028870D01*
X175885856Y-136028872D01*
X175885857Y-136028872D01*
X175808047Y-136149947D01*
X175767500Y-136288039D01*
X175767500Y-136431961D01*
X173272541Y-136431961D01*
X173268695Y-136363472D01*
X173268500Y-136356519D01*
X173268500Y-133603999D01*
X175462383Y-133603999D01*
X175482782Y-133785044D01*
X175482782Y-133785046D01*
X175482783Y-133785047D01*
X175542957Y-133957015D01*
X175639889Y-134111281D01*
X175768719Y-134240111D01*
X175922985Y-134337043D01*
X176094953Y-134397217D01*
X176276000Y-134417616D01*
X176457047Y-134397217D01*
X176629015Y-134337043D01*
X176757189Y-134256505D01*
X176823160Y-134237500D01*
X177644340Y-134237500D01*
X177710310Y-134256505D01*
X177838485Y-134337043D01*
X178010453Y-134397217D01*
X178191500Y-134417616D01*
X178372547Y-134397217D01*
X178544515Y-134337043D01*
X178698781Y-134240111D01*
X178827611Y-134111281D01*
X178924543Y-133957015D01*
X178984717Y-133785047D01*
X179005116Y-133604000D01*
X178984717Y-133422953D01*
X178924543Y-133250985D01*
X178827611Y-133096719D01*
X178698781Y-132967889D01*
X178544515Y-132870957D01*
X178372547Y-132810783D01*
X178372546Y-132810782D01*
X178372544Y-132810782D01*
X178191500Y-132790383D01*
X178010455Y-132810782D01*
X177838484Y-132870957D01*
X177757035Y-132922135D01*
X177710310Y-132951494D01*
X177644340Y-132970500D01*
X176823160Y-132970500D01*
X176757189Y-132951494D01*
X176629015Y-132870957D01*
X176457047Y-132810783D01*
X176457046Y-132810782D01*
X176457044Y-132810782D01*
X176276000Y-132790383D01*
X176094955Y-132810782D01*
X175922984Y-132870957D01*
X175768717Y-132967890D01*
X175639890Y-133096717D01*
X175542957Y-133250984D01*
X175482782Y-133422955D01*
X175462383Y-133603999D01*
X173268500Y-133603999D01*
X173268500Y-58984000D01*
X173285113Y-58922000D01*
X173330500Y-58876613D01*
X173392500Y-58860000D01*
X175715824Y-58860000D01*
X175775375Y-58853597D01*
X175910089Y-58803352D01*
X176025188Y-58717188D01*
X176111352Y-58602088D01*
X176147282Y-58505758D01*
X176180931Y-58456547D01*
X176233656Y-58428727D01*
X176293271Y-58428727D01*
X176345996Y-58456547D01*
G37*
G04 #@! TD.AperFunction*
M02*
