%TF.GenerationSoftware,KiCad,Pcbnew,7.0.1-3b83917a11~172~ubuntu22.04.1*%
%TF.CreationDate,2023-04-17T14:07:02+02:00*%
%TF.ProjectId,AcousticDetection_HW,41636f75-7374-4696-9344-657465637469,rev?*%
%TF.SameCoordinates,Original*%
%TF.FileFunction,Drillmap*%
%TF.FilePolarity,Positive*%
%FSLAX45Y45*%
G04 Gerber Fmt 4.5, Leading zero omitted, Abs format (unit mm)*
G04 Created by KiCad (PCBNEW 7.0.1-3b83917a11~172~ubuntu22.04.1) date 2023-04-17 14:07:02*
%MOMM*%
%LPD*%
G01*
G04 APERTURE LIST*
%ADD10C,0.100000*%
%ADD11C,0.200000*%
%ADD12C,0.020000*%
%ADD13C,0.060000*%
G04 APERTURE END LIST*
D10*
X17076800Y-9836000D02*
X17076800Y-5436000D01*
X14326800Y-5436000D02*
X14326800Y-5836000D01*
X13476800Y-5436000D02*
X14326800Y-5436000D01*
X17326800Y-13636000D02*
X17326800Y-5436000D01*
X13226800Y-5436000D02*
X13226800Y-13636000D01*
X17326800Y-5436000D02*
X17926800Y-5436000D01*
X13126800Y-6936000D02*
G75*
G03*
X13126800Y-6936000I-200000J0D01*
G01*
X12626800Y-13636000D02*
X12626800Y-5436000D01*
X13126800Y-12436000D02*
G75*
G03*
X13126800Y-12436000I-200000J0D01*
G01*
X17326800Y-13636000D02*
G75*
G03*
X17926800Y-13636000I300000J0D01*
G01*
X16226800Y-5436000D02*
X17076800Y-5436000D01*
X13476800Y-5436000D02*
X13476800Y-9836000D01*
X16226800Y-5836000D02*
X16226800Y-5436000D01*
X17826800Y-6936000D02*
G75*
G03*
X17826800Y-6936000I-200000J0D01*
G01*
X13476800Y-9836000D02*
X17076800Y-9836000D01*
X17826800Y-12436000D02*
G75*
G03*
X17826800Y-12436000I-200000J0D01*
G01*
X12626800Y-5436000D02*
X13226800Y-5436000D01*
X14326800Y-5836000D02*
X16226800Y-5836000D01*
X12626800Y-13636000D02*
G75*
G03*
X13226800Y-13636000I300000J0D01*
G01*
X17926800Y-13636000D02*
X17926800Y-5436000D01*
D11*
D12*
X12712800Y-13474400D02*
X12732800Y-13494400D01*
X12732800Y-13474400D02*
X12712800Y-13494400D01*
X12865200Y-12864800D02*
X12885200Y-12884800D01*
X12885200Y-12864800D02*
X12865200Y-12884800D01*
X12865200Y-13169600D02*
X12885200Y-13189600D01*
X12885200Y-13169600D02*
X12865200Y-13189600D01*
X13119200Y-12839400D02*
X13139200Y-12859400D01*
X13139200Y-12839400D02*
X13119200Y-12859400D01*
X13771600Y-6340400D02*
X13791600Y-6360400D01*
X13791600Y-6340400D02*
X13771600Y-6360400D01*
X14025600Y-7458000D02*
X14045600Y-7478000D01*
X14045600Y-7458000D02*
X14025600Y-7478000D01*
X14079750Y-5883200D02*
X14099750Y-5903200D01*
X14099750Y-5883200D02*
X14079750Y-5903200D01*
X14686000Y-8880400D02*
X14706000Y-8900400D01*
X14706000Y-8880400D02*
X14686000Y-8900400D01*
X15194000Y-9032800D02*
X15214000Y-9052800D01*
X15214000Y-9032800D02*
X15194000Y-9052800D01*
X15397200Y-9032800D02*
X15417200Y-9052800D01*
X15417200Y-9032800D02*
X15397200Y-9052800D01*
X15448000Y-8067600D02*
X15468000Y-8087600D01*
X15468000Y-8067600D02*
X15448000Y-8087600D01*
X15651200Y-6064750D02*
X15671200Y-6084750D01*
X15671200Y-6064750D02*
X15651200Y-6084750D01*
X15752800Y-6137200D02*
X15772800Y-6157200D01*
X15772800Y-6137200D02*
X15752800Y-6157200D01*
X15752800Y-7204000D02*
X15772800Y-7224000D01*
X15772800Y-7204000D02*
X15752800Y-7224000D01*
X15918957Y-9032850D02*
X15938957Y-9052850D01*
X15938957Y-9032850D02*
X15918957Y-9052850D01*
X16311600Y-6137200D02*
X16331600Y-6157200D01*
X16331600Y-6137200D02*
X16311600Y-6157200D01*
X16565600Y-6086400D02*
X16585600Y-6106400D01*
X16585600Y-6086400D02*
X16565600Y-6106400D01*
X16718000Y-6125550D02*
X16738000Y-6145550D01*
X16738000Y-6125550D02*
X16718000Y-6145550D01*
X17414400Y-12944000D02*
X17434400Y-12964000D01*
X17434400Y-12944000D02*
X17414400Y-12964000D01*
X17617600Y-13350400D02*
X17637600Y-13370400D01*
X17637600Y-13350400D02*
X17617600Y-13370400D01*
X17668400Y-12944000D02*
X17688400Y-12964000D01*
X17688400Y-12944000D02*
X17668400Y-12964000D01*
X17809150Y-13350400D02*
X17829150Y-13370400D01*
X17829150Y-13350400D02*
X17809150Y-13370400D01*
X15065650Y-7272350D02*
G75*
G03*
X15065650Y-7272350I-10000J0D01*
G01*
X15065650Y-7424850D02*
G75*
G03*
X15065650Y-7424850I-10000J0D01*
G01*
X15141900Y-7196100D02*
G75*
G03*
X15141900Y-7196100I-10000J0D01*
G01*
X15141900Y-7348600D02*
G75*
G03*
X15141900Y-7348600I-10000J0D01*
G01*
X15141900Y-7501100D02*
G75*
G03*
X15141900Y-7501100I-10000J0D01*
G01*
X15218150Y-7272350D02*
G75*
G03*
X15218150Y-7272350I-10000J0D01*
G01*
X15218150Y-7424850D02*
G75*
G03*
X15218150Y-7424850I-10000J0D01*
G01*
X15294400Y-7196100D02*
G75*
G03*
X15294400Y-7196100I-10000J0D01*
G01*
X15294400Y-7348600D02*
G75*
G03*
X15294400Y-7348600I-10000J0D01*
G01*
X15294400Y-7501100D02*
G75*
G03*
X15294400Y-7501100I-10000J0D01*
G01*
X15370650Y-7272350D02*
G75*
G03*
X15370650Y-7272350I-10000J0D01*
G01*
X15370650Y-7424850D02*
G75*
G03*
X15370650Y-7424850I-10000J0D01*
G01*
D13*
X16350150Y-8809200D02*
X16350150Y-8869200D01*
X16320150Y-8839200D02*
X16380150Y-8839200D01*
D11*
X16295150Y-8869200D02*
X16405150Y-8869200D01*
X16405150Y-8869200D02*
G75*
G03*
X16405150Y-8809200I0J30000D01*
G01*
X16405150Y-8809200D02*
X16295150Y-8809200D01*
X16295150Y-8809200D02*
G75*
G03*
X16295150Y-8869200I0J-30000D01*
G01*
D13*
X16350150Y-9673200D02*
X16350150Y-9733200D01*
X16320150Y-9703200D02*
X16380150Y-9703200D01*
D11*
X16295150Y-9733200D02*
X16405150Y-9733200D01*
X16405150Y-9733200D02*
G75*
G03*
X16405150Y-9673200I0J30000D01*
G01*
X16405150Y-9673200D02*
X16295150Y-9673200D01*
X16295150Y-9673200D02*
G75*
G03*
X16295150Y-9733200I0J-30000D01*
G01*
D13*
X16768150Y-8809200D02*
X16768150Y-8869200D01*
X16738150Y-8839200D02*
X16798150Y-8839200D01*
D11*
X16728150Y-8869200D02*
X16808150Y-8869200D01*
X16808150Y-8869200D02*
G75*
G03*
X16808150Y-8809200I0J30000D01*
G01*
X16808150Y-8809200D02*
X16728150Y-8809200D01*
X16728150Y-8809200D02*
G75*
G03*
X16728150Y-8869200I0J-30000D01*
G01*
D13*
X16768150Y-9673200D02*
X16768150Y-9733200D01*
X16738150Y-9703200D02*
X16798150Y-9703200D01*
D11*
X16728150Y-9733200D02*
X16808150Y-9733200D01*
X16808150Y-9733200D02*
G75*
G03*
X16808150Y-9673200I0J30000D01*
G01*
X16808150Y-9673200D02*
X16728150Y-9673200D01*
X16728150Y-9673200D02*
G75*
G03*
X16728150Y-9733200I0J-30000D01*
G01*
D10*
X14931506Y-8728156D02*
X14931506Y-8657444D01*
X14860794Y-8657444D01*
X14860794Y-8728156D01*
X14931506Y-8728156D01*
X15185506Y-8728156D02*
X15185506Y-8657444D01*
X15114794Y-8657444D01*
X15114794Y-8728156D01*
X15185506Y-8728156D01*
X15439506Y-8728156D02*
X15439506Y-8657444D01*
X15368794Y-8657444D01*
X15368794Y-8728156D01*
X15439506Y-8728156D01*
X15693506Y-8728156D02*
X15693506Y-8657444D01*
X15622794Y-8657444D01*
X15622794Y-8728156D01*
X15693506Y-8728156D01*
X16814156Y-6436556D02*
X16814156Y-6365844D01*
X16743444Y-6365844D01*
X16743444Y-6436556D01*
X16814156Y-6436556D01*
X16814156Y-6690556D02*
X16814156Y-6619844D01*
X16743444Y-6619844D01*
X16743444Y-6690556D01*
X16814156Y-6690556D01*
X16814156Y-6944556D02*
X16814156Y-6873844D01*
X16743444Y-6873844D01*
X16743444Y-6944556D01*
X16814156Y-6944556D01*
X16814156Y-7198556D02*
X16814156Y-7127844D01*
X16743444Y-7127844D01*
X16743444Y-7198556D01*
X16814156Y-7198556D01*
D11*
X12869419Y-14253524D02*
X12869419Y-14053524D01*
X12869419Y-14053524D02*
X12917038Y-14053524D01*
X12917038Y-14053524D02*
X12945609Y-14063048D01*
X12945609Y-14063048D02*
X12964657Y-14082095D01*
X12964657Y-14082095D02*
X12974181Y-14101143D01*
X12974181Y-14101143D02*
X12983705Y-14139238D01*
X12983705Y-14139238D02*
X12983705Y-14167809D01*
X12983705Y-14167809D02*
X12974181Y-14205905D01*
X12974181Y-14205905D02*
X12964657Y-14224952D01*
X12964657Y-14224952D02*
X12945609Y-14244000D01*
X12945609Y-14244000D02*
X12917038Y-14253524D01*
X12917038Y-14253524D02*
X12869419Y-14253524D01*
X13069419Y-14253524D02*
X13069419Y-14120190D01*
X13069419Y-14158286D02*
X13078943Y-14139238D01*
X13078943Y-14139238D02*
X13088467Y-14129714D01*
X13088467Y-14129714D02*
X13107514Y-14120190D01*
X13107514Y-14120190D02*
X13126562Y-14120190D01*
X13193228Y-14253524D02*
X13193228Y-14120190D01*
X13193228Y-14053524D02*
X13183705Y-14063048D01*
X13183705Y-14063048D02*
X13193228Y-14072571D01*
X13193228Y-14072571D02*
X13202752Y-14063048D01*
X13202752Y-14063048D02*
X13193228Y-14053524D01*
X13193228Y-14053524D02*
X13193228Y-14072571D01*
X13317038Y-14253524D02*
X13297990Y-14244000D01*
X13297990Y-14244000D02*
X13288467Y-14224952D01*
X13288467Y-14224952D02*
X13288467Y-14053524D01*
X13421800Y-14253524D02*
X13402752Y-14244000D01*
X13402752Y-14244000D02*
X13393228Y-14224952D01*
X13393228Y-14224952D02*
X13393228Y-14053524D01*
X13650371Y-14253524D02*
X13650371Y-14053524D01*
X13650371Y-14053524D02*
X13717038Y-14196381D01*
X13717038Y-14196381D02*
X13783705Y-14053524D01*
X13783705Y-14053524D02*
X13783705Y-14253524D01*
X13964657Y-14253524D02*
X13964657Y-14148762D01*
X13964657Y-14148762D02*
X13955133Y-14129714D01*
X13955133Y-14129714D02*
X13936086Y-14120190D01*
X13936086Y-14120190D02*
X13897990Y-14120190D01*
X13897990Y-14120190D02*
X13878943Y-14129714D01*
X13964657Y-14244000D02*
X13945609Y-14253524D01*
X13945609Y-14253524D02*
X13897990Y-14253524D01*
X13897990Y-14253524D02*
X13878943Y-14244000D01*
X13878943Y-14244000D02*
X13869419Y-14224952D01*
X13869419Y-14224952D02*
X13869419Y-14205905D01*
X13869419Y-14205905D02*
X13878943Y-14186857D01*
X13878943Y-14186857D02*
X13897990Y-14177333D01*
X13897990Y-14177333D02*
X13945609Y-14177333D01*
X13945609Y-14177333D02*
X13964657Y-14167809D01*
X14059895Y-14120190D02*
X14059895Y-14320190D01*
X14059895Y-14129714D02*
X14078943Y-14120190D01*
X14078943Y-14120190D02*
X14117038Y-14120190D01*
X14117038Y-14120190D02*
X14136086Y-14129714D01*
X14136086Y-14129714D02*
X14145609Y-14139238D01*
X14145609Y-14139238D02*
X14155133Y-14158286D01*
X14155133Y-14158286D02*
X14155133Y-14215428D01*
X14155133Y-14215428D02*
X14145609Y-14234476D01*
X14145609Y-14234476D02*
X14136086Y-14244000D01*
X14136086Y-14244000D02*
X14117038Y-14253524D01*
X14117038Y-14253524D02*
X14078943Y-14253524D01*
X14078943Y-14253524D02*
X14059895Y-14244000D01*
X14240848Y-14234476D02*
X14250371Y-14244000D01*
X14250371Y-14244000D02*
X14240848Y-14253524D01*
X14240848Y-14253524D02*
X14231324Y-14244000D01*
X14231324Y-14244000D02*
X14240848Y-14234476D01*
X14240848Y-14234476D02*
X14240848Y-14253524D01*
X14240848Y-14129714D02*
X14250371Y-14139238D01*
X14250371Y-14139238D02*
X14240848Y-14148762D01*
X14240848Y-14148762D02*
X14231324Y-14139238D01*
X14231324Y-14139238D02*
X14240848Y-14129714D01*
X14240848Y-14129714D02*
X14240848Y-14148762D01*
D12*
X12601800Y-14571000D02*
X12621800Y-14591000D01*
X12621800Y-14571000D02*
X12601800Y-14591000D01*
D11*
X12907514Y-14473524D02*
X12926562Y-14473524D01*
X12926562Y-14473524D02*
X12945609Y-14483048D01*
X12945609Y-14483048D02*
X12955133Y-14492571D01*
X12955133Y-14492571D02*
X12964657Y-14511619D01*
X12964657Y-14511619D02*
X12974181Y-14549714D01*
X12974181Y-14549714D02*
X12974181Y-14597333D01*
X12974181Y-14597333D02*
X12964657Y-14635428D01*
X12964657Y-14635428D02*
X12955133Y-14654476D01*
X12955133Y-14654476D02*
X12945609Y-14664000D01*
X12945609Y-14664000D02*
X12926562Y-14673524D01*
X12926562Y-14673524D02*
X12907514Y-14673524D01*
X12907514Y-14673524D02*
X12888467Y-14664000D01*
X12888467Y-14664000D02*
X12878943Y-14654476D01*
X12878943Y-14654476D02*
X12869419Y-14635428D01*
X12869419Y-14635428D02*
X12859895Y-14597333D01*
X12859895Y-14597333D02*
X12859895Y-14549714D01*
X12859895Y-14549714D02*
X12869419Y-14511619D01*
X12869419Y-14511619D02*
X12878943Y-14492571D01*
X12878943Y-14492571D02*
X12888467Y-14483048D01*
X12888467Y-14483048D02*
X12907514Y-14473524D01*
X13059895Y-14654476D02*
X13069419Y-14664000D01*
X13069419Y-14664000D02*
X13059895Y-14673524D01*
X13059895Y-14673524D02*
X13050371Y-14664000D01*
X13050371Y-14664000D02*
X13059895Y-14654476D01*
X13059895Y-14654476D02*
X13059895Y-14673524D01*
X13145609Y-14492571D02*
X13155133Y-14483048D01*
X13155133Y-14483048D02*
X13174181Y-14473524D01*
X13174181Y-14473524D02*
X13221800Y-14473524D01*
X13221800Y-14473524D02*
X13240848Y-14483048D01*
X13240848Y-14483048D02*
X13250371Y-14492571D01*
X13250371Y-14492571D02*
X13259895Y-14511619D01*
X13259895Y-14511619D02*
X13259895Y-14530667D01*
X13259895Y-14530667D02*
X13250371Y-14559238D01*
X13250371Y-14559238D02*
X13136086Y-14673524D01*
X13136086Y-14673524D02*
X13259895Y-14673524D01*
X13383705Y-14473524D02*
X13402752Y-14473524D01*
X13402752Y-14473524D02*
X13421800Y-14483048D01*
X13421800Y-14483048D02*
X13431324Y-14492571D01*
X13431324Y-14492571D02*
X13440848Y-14511619D01*
X13440848Y-14511619D02*
X13450371Y-14549714D01*
X13450371Y-14549714D02*
X13450371Y-14597333D01*
X13450371Y-14597333D02*
X13440848Y-14635428D01*
X13440848Y-14635428D02*
X13431324Y-14654476D01*
X13431324Y-14654476D02*
X13421800Y-14664000D01*
X13421800Y-14664000D02*
X13402752Y-14673524D01*
X13402752Y-14673524D02*
X13383705Y-14673524D01*
X13383705Y-14673524D02*
X13364657Y-14664000D01*
X13364657Y-14664000D02*
X13355133Y-14654476D01*
X13355133Y-14654476D02*
X13345609Y-14635428D01*
X13345609Y-14635428D02*
X13336086Y-14597333D01*
X13336086Y-14597333D02*
X13336086Y-14549714D01*
X13336086Y-14549714D02*
X13345609Y-14511619D01*
X13345609Y-14511619D02*
X13355133Y-14492571D01*
X13355133Y-14492571D02*
X13364657Y-14483048D01*
X13364657Y-14483048D02*
X13383705Y-14473524D01*
X13574181Y-14473524D02*
X13593229Y-14473524D01*
X13593229Y-14473524D02*
X13612276Y-14483048D01*
X13612276Y-14483048D02*
X13621800Y-14492571D01*
X13621800Y-14492571D02*
X13631324Y-14511619D01*
X13631324Y-14511619D02*
X13640848Y-14549714D01*
X13640848Y-14549714D02*
X13640848Y-14597333D01*
X13640848Y-14597333D02*
X13631324Y-14635428D01*
X13631324Y-14635428D02*
X13621800Y-14654476D01*
X13621800Y-14654476D02*
X13612276Y-14664000D01*
X13612276Y-14664000D02*
X13593229Y-14673524D01*
X13593229Y-14673524D02*
X13574181Y-14673524D01*
X13574181Y-14673524D02*
X13555133Y-14664000D01*
X13555133Y-14664000D02*
X13545609Y-14654476D01*
X13545609Y-14654476D02*
X13536086Y-14635428D01*
X13536086Y-14635428D02*
X13526562Y-14597333D01*
X13526562Y-14597333D02*
X13526562Y-14549714D01*
X13526562Y-14549714D02*
X13536086Y-14511619D01*
X13536086Y-14511619D02*
X13545609Y-14492571D01*
X13545609Y-14492571D02*
X13555133Y-14483048D01*
X13555133Y-14483048D02*
X13574181Y-14473524D01*
X13726562Y-14673524D02*
X13726562Y-14540190D01*
X13726562Y-14559238D02*
X13736086Y-14549714D01*
X13736086Y-14549714D02*
X13755133Y-14540190D01*
X13755133Y-14540190D02*
X13783705Y-14540190D01*
X13783705Y-14540190D02*
X13802752Y-14549714D01*
X13802752Y-14549714D02*
X13812276Y-14568762D01*
X13812276Y-14568762D02*
X13812276Y-14673524D01*
X13812276Y-14568762D02*
X13821800Y-14549714D01*
X13821800Y-14549714D02*
X13840848Y-14540190D01*
X13840848Y-14540190D02*
X13869419Y-14540190D01*
X13869419Y-14540190D02*
X13888467Y-14549714D01*
X13888467Y-14549714D02*
X13897990Y-14568762D01*
X13897990Y-14568762D02*
X13897990Y-14673524D01*
X13993229Y-14673524D02*
X13993229Y-14540190D01*
X13993229Y-14559238D02*
X14002752Y-14549714D01*
X14002752Y-14549714D02*
X14021800Y-14540190D01*
X14021800Y-14540190D02*
X14050371Y-14540190D01*
X14050371Y-14540190D02*
X14069419Y-14549714D01*
X14069419Y-14549714D02*
X14078943Y-14568762D01*
X14078943Y-14568762D02*
X14078943Y-14673524D01*
X14078943Y-14568762D02*
X14088467Y-14549714D01*
X14088467Y-14549714D02*
X14107514Y-14540190D01*
X14107514Y-14540190D02*
X14136086Y-14540190D01*
X14136086Y-14540190D02*
X14155133Y-14549714D01*
X14155133Y-14549714D02*
X14164657Y-14568762D01*
X14164657Y-14568762D02*
X14164657Y-14673524D01*
X14555133Y-14464000D02*
X14383705Y-14721143D01*
X14812276Y-14473524D02*
X14831324Y-14473524D01*
X14831324Y-14473524D02*
X14850372Y-14483048D01*
X14850372Y-14483048D02*
X14859895Y-14492571D01*
X14859895Y-14492571D02*
X14869419Y-14511619D01*
X14869419Y-14511619D02*
X14878943Y-14549714D01*
X14878943Y-14549714D02*
X14878943Y-14597333D01*
X14878943Y-14597333D02*
X14869419Y-14635428D01*
X14869419Y-14635428D02*
X14859895Y-14654476D01*
X14859895Y-14654476D02*
X14850372Y-14664000D01*
X14850372Y-14664000D02*
X14831324Y-14673524D01*
X14831324Y-14673524D02*
X14812276Y-14673524D01*
X14812276Y-14673524D02*
X14793229Y-14664000D01*
X14793229Y-14664000D02*
X14783705Y-14654476D01*
X14783705Y-14654476D02*
X14774181Y-14635428D01*
X14774181Y-14635428D02*
X14764657Y-14597333D01*
X14764657Y-14597333D02*
X14764657Y-14549714D01*
X14764657Y-14549714D02*
X14774181Y-14511619D01*
X14774181Y-14511619D02*
X14783705Y-14492571D01*
X14783705Y-14492571D02*
X14793229Y-14483048D01*
X14793229Y-14483048D02*
X14812276Y-14473524D01*
X14964657Y-14654476D02*
X14974181Y-14664000D01*
X14974181Y-14664000D02*
X14964657Y-14673524D01*
X14964657Y-14673524D02*
X14955133Y-14664000D01*
X14955133Y-14664000D02*
X14964657Y-14654476D01*
X14964657Y-14654476D02*
X14964657Y-14673524D01*
X15097991Y-14473524D02*
X15117038Y-14473524D01*
X15117038Y-14473524D02*
X15136086Y-14483048D01*
X15136086Y-14483048D02*
X15145610Y-14492571D01*
X15145610Y-14492571D02*
X15155133Y-14511619D01*
X15155133Y-14511619D02*
X15164657Y-14549714D01*
X15164657Y-14549714D02*
X15164657Y-14597333D01*
X15164657Y-14597333D02*
X15155133Y-14635428D01*
X15155133Y-14635428D02*
X15145610Y-14654476D01*
X15145610Y-14654476D02*
X15136086Y-14664000D01*
X15136086Y-14664000D02*
X15117038Y-14673524D01*
X15117038Y-14673524D02*
X15097991Y-14673524D01*
X15097991Y-14673524D02*
X15078943Y-14664000D01*
X15078943Y-14664000D02*
X15069419Y-14654476D01*
X15069419Y-14654476D02*
X15059895Y-14635428D01*
X15059895Y-14635428D02*
X15050372Y-14597333D01*
X15050372Y-14597333D02*
X15050372Y-14549714D01*
X15050372Y-14549714D02*
X15059895Y-14511619D01*
X15059895Y-14511619D02*
X15069419Y-14492571D01*
X15069419Y-14492571D02*
X15078943Y-14483048D01*
X15078943Y-14483048D02*
X15097991Y-14473524D01*
X15288467Y-14473524D02*
X15307514Y-14473524D01*
X15307514Y-14473524D02*
X15326562Y-14483048D01*
X15326562Y-14483048D02*
X15336086Y-14492571D01*
X15336086Y-14492571D02*
X15345610Y-14511619D01*
X15345610Y-14511619D02*
X15355133Y-14549714D01*
X15355133Y-14549714D02*
X15355133Y-14597333D01*
X15355133Y-14597333D02*
X15345610Y-14635428D01*
X15345610Y-14635428D02*
X15336086Y-14654476D01*
X15336086Y-14654476D02*
X15326562Y-14664000D01*
X15326562Y-14664000D02*
X15307514Y-14673524D01*
X15307514Y-14673524D02*
X15288467Y-14673524D01*
X15288467Y-14673524D02*
X15269419Y-14664000D01*
X15269419Y-14664000D02*
X15259895Y-14654476D01*
X15259895Y-14654476D02*
X15250372Y-14635428D01*
X15250372Y-14635428D02*
X15240848Y-14597333D01*
X15240848Y-14597333D02*
X15240848Y-14549714D01*
X15240848Y-14549714D02*
X15250372Y-14511619D01*
X15250372Y-14511619D02*
X15259895Y-14492571D01*
X15259895Y-14492571D02*
X15269419Y-14483048D01*
X15269419Y-14483048D02*
X15288467Y-14473524D01*
X15421800Y-14473524D02*
X15555133Y-14473524D01*
X15555133Y-14473524D02*
X15469419Y-14673524D01*
X15640848Y-14673524D02*
X15678943Y-14673524D01*
X15678943Y-14673524D02*
X15697991Y-14664000D01*
X15697991Y-14664000D02*
X15707514Y-14654476D01*
X15707514Y-14654476D02*
X15726562Y-14625905D01*
X15726562Y-14625905D02*
X15736086Y-14587809D01*
X15736086Y-14587809D02*
X15736086Y-14511619D01*
X15736086Y-14511619D02*
X15726562Y-14492571D01*
X15726562Y-14492571D02*
X15717038Y-14483048D01*
X15717038Y-14483048D02*
X15697991Y-14473524D01*
X15697991Y-14473524D02*
X15659895Y-14473524D01*
X15659895Y-14473524D02*
X15640848Y-14483048D01*
X15640848Y-14483048D02*
X15631324Y-14492571D01*
X15631324Y-14492571D02*
X15621800Y-14511619D01*
X15621800Y-14511619D02*
X15621800Y-14559238D01*
X15621800Y-14559238D02*
X15631324Y-14578286D01*
X15631324Y-14578286D02*
X15640848Y-14587809D01*
X15640848Y-14587809D02*
X15659895Y-14597333D01*
X15659895Y-14597333D02*
X15697991Y-14597333D01*
X15697991Y-14597333D02*
X15717038Y-14587809D01*
X15717038Y-14587809D02*
X15726562Y-14578286D01*
X15726562Y-14578286D02*
X15736086Y-14559238D01*
X15812276Y-14473524D02*
X15812276Y-14511619D01*
X15888467Y-14473524D02*
X15888467Y-14511619D01*
X16183705Y-14749714D02*
X16174181Y-14740190D01*
X16174181Y-14740190D02*
X16155134Y-14711619D01*
X16155134Y-14711619D02*
X16145610Y-14692571D01*
X16145610Y-14692571D02*
X16136086Y-14664000D01*
X16136086Y-14664000D02*
X16126562Y-14616381D01*
X16126562Y-14616381D02*
X16126562Y-14578286D01*
X16126562Y-14578286D02*
X16136086Y-14530667D01*
X16136086Y-14530667D02*
X16145610Y-14502095D01*
X16145610Y-14502095D02*
X16155134Y-14483048D01*
X16155134Y-14483048D02*
X16174181Y-14454476D01*
X16174181Y-14454476D02*
X16183705Y-14444952D01*
X16250372Y-14492571D02*
X16259895Y-14483048D01*
X16259895Y-14483048D02*
X16278943Y-14473524D01*
X16278943Y-14473524D02*
X16326562Y-14473524D01*
X16326562Y-14473524D02*
X16345610Y-14483048D01*
X16345610Y-14483048D02*
X16355134Y-14492571D01*
X16355134Y-14492571D02*
X16364657Y-14511619D01*
X16364657Y-14511619D02*
X16364657Y-14530667D01*
X16364657Y-14530667D02*
X16355134Y-14559238D01*
X16355134Y-14559238D02*
X16240848Y-14673524D01*
X16240848Y-14673524D02*
X16364657Y-14673524D01*
X16440848Y-14492571D02*
X16450372Y-14483048D01*
X16450372Y-14483048D02*
X16469419Y-14473524D01*
X16469419Y-14473524D02*
X16517038Y-14473524D01*
X16517038Y-14473524D02*
X16536086Y-14483048D01*
X16536086Y-14483048D02*
X16545610Y-14492571D01*
X16545610Y-14492571D02*
X16555134Y-14511619D01*
X16555134Y-14511619D02*
X16555134Y-14530667D01*
X16555134Y-14530667D02*
X16545610Y-14559238D01*
X16545610Y-14559238D02*
X16431324Y-14673524D01*
X16431324Y-14673524D02*
X16555134Y-14673524D01*
X16793229Y-14673524D02*
X16793229Y-14473524D01*
X16878943Y-14673524D02*
X16878943Y-14568762D01*
X16878943Y-14568762D02*
X16869419Y-14549714D01*
X16869419Y-14549714D02*
X16850372Y-14540190D01*
X16850372Y-14540190D02*
X16821800Y-14540190D01*
X16821800Y-14540190D02*
X16802753Y-14549714D01*
X16802753Y-14549714D02*
X16793229Y-14559238D01*
X17002753Y-14673524D02*
X16983705Y-14664000D01*
X16983705Y-14664000D02*
X16974181Y-14654476D01*
X16974181Y-14654476D02*
X16964658Y-14635428D01*
X16964658Y-14635428D02*
X16964658Y-14578286D01*
X16964658Y-14578286D02*
X16974181Y-14559238D01*
X16974181Y-14559238D02*
X16983705Y-14549714D01*
X16983705Y-14549714D02*
X17002753Y-14540190D01*
X17002753Y-14540190D02*
X17031324Y-14540190D01*
X17031324Y-14540190D02*
X17050372Y-14549714D01*
X17050372Y-14549714D02*
X17059896Y-14559238D01*
X17059896Y-14559238D02*
X17069419Y-14578286D01*
X17069419Y-14578286D02*
X17069419Y-14635428D01*
X17069419Y-14635428D02*
X17059896Y-14654476D01*
X17059896Y-14654476D02*
X17050372Y-14664000D01*
X17050372Y-14664000D02*
X17031324Y-14673524D01*
X17031324Y-14673524D02*
X17002753Y-14673524D01*
X17183705Y-14673524D02*
X17164658Y-14664000D01*
X17164658Y-14664000D02*
X17155134Y-14644952D01*
X17155134Y-14644952D02*
X17155134Y-14473524D01*
X17336086Y-14664000D02*
X17317039Y-14673524D01*
X17317039Y-14673524D02*
X17278943Y-14673524D01*
X17278943Y-14673524D02*
X17259896Y-14664000D01*
X17259896Y-14664000D02*
X17250372Y-14644952D01*
X17250372Y-14644952D02*
X17250372Y-14568762D01*
X17250372Y-14568762D02*
X17259896Y-14549714D01*
X17259896Y-14549714D02*
X17278943Y-14540190D01*
X17278943Y-14540190D02*
X17317039Y-14540190D01*
X17317039Y-14540190D02*
X17336086Y-14549714D01*
X17336086Y-14549714D02*
X17345610Y-14568762D01*
X17345610Y-14568762D02*
X17345610Y-14587809D01*
X17345610Y-14587809D02*
X17250372Y-14606857D01*
X17421800Y-14664000D02*
X17440848Y-14673524D01*
X17440848Y-14673524D02*
X17478943Y-14673524D01*
X17478943Y-14673524D02*
X17497991Y-14664000D01*
X17497991Y-14664000D02*
X17507515Y-14644952D01*
X17507515Y-14644952D02*
X17507515Y-14635428D01*
X17507515Y-14635428D02*
X17497991Y-14616381D01*
X17497991Y-14616381D02*
X17478943Y-14606857D01*
X17478943Y-14606857D02*
X17450372Y-14606857D01*
X17450372Y-14606857D02*
X17431324Y-14597333D01*
X17431324Y-14597333D02*
X17421800Y-14578286D01*
X17421800Y-14578286D02*
X17421800Y-14568762D01*
X17421800Y-14568762D02*
X17431324Y-14549714D01*
X17431324Y-14549714D02*
X17450372Y-14540190D01*
X17450372Y-14540190D02*
X17478943Y-14540190D01*
X17478943Y-14540190D02*
X17497991Y-14549714D01*
X17574181Y-14749714D02*
X17583705Y-14740190D01*
X17583705Y-14740190D02*
X17602753Y-14711619D01*
X17602753Y-14711619D02*
X17612277Y-14692571D01*
X17612277Y-14692571D02*
X17621800Y-14664000D01*
X17621800Y-14664000D02*
X17631324Y-14616381D01*
X17631324Y-14616381D02*
X17631324Y-14578286D01*
X17631324Y-14578286D02*
X17621800Y-14530667D01*
X17621800Y-14530667D02*
X17612277Y-14502095D01*
X17612277Y-14502095D02*
X17602753Y-14483048D01*
X17602753Y-14483048D02*
X17583705Y-14454476D01*
X17583705Y-14454476D02*
X17574181Y-14444952D01*
D12*
X12621800Y-14845000D02*
G75*
G03*
X12621800Y-14845000I-10000J0D01*
G01*
D11*
X12907514Y-14737524D02*
X12926562Y-14737524D01*
X12926562Y-14737524D02*
X12945609Y-14747048D01*
X12945609Y-14747048D02*
X12955133Y-14756571D01*
X12955133Y-14756571D02*
X12964657Y-14775619D01*
X12964657Y-14775619D02*
X12974181Y-14813714D01*
X12974181Y-14813714D02*
X12974181Y-14861333D01*
X12974181Y-14861333D02*
X12964657Y-14899428D01*
X12964657Y-14899428D02*
X12955133Y-14918476D01*
X12955133Y-14918476D02*
X12945609Y-14928000D01*
X12945609Y-14928000D02*
X12926562Y-14937524D01*
X12926562Y-14937524D02*
X12907514Y-14937524D01*
X12907514Y-14937524D02*
X12888467Y-14928000D01*
X12888467Y-14928000D02*
X12878943Y-14918476D01*
X12878943Y-14918476D02*
X12869419Y-14899428D01*
X12869419Y-14899428D02*
X12859895Y-14861333D01*
X12859895Y-14861333D02*
X12859895Y-14813714D01*
X12859895Y-14813714D02*
X12869419Y-14775619D01*
X12869419Y-14775619D02*
X12878943Y-14756571D01*
X12878943Y-14756571D02*
X12888467Y-14747048D01*
X12888467Y-14747048D02*
X12907514Y-14737524D01*
X13059895Y-14918476D02*
X13069419Y-14928000D01*
X13069419Y-14928000D02*
X13059895Y-14937524D01*
X13059895Y-14937524D02*
X13050371Y-14928000D01*
X13050371Y-14928000D02*
X13059895Y-14918476D01*
X13059895Y-14918476D02*
X13059895Y-14937524D01*
X13145609Y-14756571D02*
X13155133Y-14747048D01*
X13155133Y-14747048D02*
X13174181Y-14737524D01*
X13174181Y-14737524D02*
X13221800Y-14737524D01*
X13221800Y-14737524D02*
X13240848Y-14747048D01*
X13240848Y-14747048D02*
X13250371Y-14756571D01*
X13250371Y-14756571D02*
X13259895Y-14775619D01*
X13259895Y-14775619D02*
X13259895Y-14794667D01*
X13259895Y-14794667D02*
X13250371Y-14823238D01*
X13250371Y-14823238D02*
X13136086Y-14937524D01*
X13136086Y-14937524D02*
X13259895Y-14937524D01*
X13383705Y-14737524D02*
X13402752Y-14737524D01*
X13402752Y-14737524D02*
X13421800Y-14747048D01*
X13421800Y-14747048D02*
X13431324Y-14756571D01*
X13431324Y-14756571D02*
X13440848Y-14775619D01*
X13440848Y-14775619D02*
X13450371Y-14813714D01*
X13450371Y-14813714D02*
X13450371Y-14861333D01*
X13450371Y-14861333D02*
X13440848Y-14899428D01*
X13440848Y-14899428D02*
X13431324Y-14918476D01*
X13431324Y-14918476D02*
X13421800Y-14928000D01*
X13421800Y-14928000D02*
X13402752Y-14937524D01*
X13402752Y-14937524D02*
X13383705Y-14937524D01*
X13383705Y-14937524D02*
X13364657Y-14928000D01*
X13364657Y-14928000D02*
X13355133Y-14918476D01*
X13355133Y-14918476D02*
X13345609Y-14899428D01*
X13345609Y-14899428D02*
X13336086Y-14861333D01*
X13336086Y-14861333D02*
X13336086Y-14813714D01*
X13336086Y-14813714D02*
X13345609Y-14775619D01*
X13345609Y-14775619D02*
X13355133Y-14756571D01*
X13355133Y-14756571D02*
X13364657Y-14747048D01*
X13364657Y-14747048D02*
X13383705Y-14737524D01*
X13574181Y-14737524D02*
X13593229Y-14737524D01*
X13593229Y-14737524D02*
X13612276Y-14747048D01*
X13612276Y-14747048D02*
X13621800Y-14756571D01*
X13621800Y-14756571D02*
X13631324Y-14775619D01*
X13631324Y-14775619D02*
X13640848Y-14813714D01*
X13640848Y-14813714D02*
X13640848Y-14861333D01*
X13640848Y-14861333D02*
X13631324Y-14899428D01*
X13631324Y-14899428D02*
X13621800Y-14918476D01*
X13621800Y-14918476D02*
X13612276Y-14928000D01*
X13612276Y-14928000D02*
X13593229Y-14937524D01*
X13593229Y-14937524D02*
X13574181Y-14937524D01*
X13574181Y-14937524D02*
X13555133Y-14928000D01*
X13555133Y-14928000D02*
X13545609Y-14918476D01*
X13545609Y-14918476D02*
X13536086Y-14899428D01*
X13536086Y-14899428D02*
X13526562Y-14861333D01*
X13526562Y-14861333D02*
X13526562Y-14813714D01*
X13526562Y-14813714D02*
X13536086Y-14775619D01*
X13536086Y-14775619D02*
X13545609Y-14756571D01*
X13545609Y-14756571D02*
X13555133Y-14747048D01*
X13555133Y-14747048D02*
X13574181Y-14737524D01*
X13726562Y-14937524D02*
X13726562Y-14804190D01*
X13726562Y-14823238D02*
X13736086Y-14813714D01*
X13736086Y-14813714D02*
X13755133Y-14804190D01*
X13755133Y-14804190D02*
X13783705Y-14804190D01*
X13783705Y-14804190D02*
X13802752Y-14813714D01*
X13802752Y-14813714D02*
X13812276Y-14832762D01*
X13812276Y-14832762D02*
X13812276Y-14937524D01*
X13812276Y-14832762D02*
X13821800Y-14813714D01*
X13821800Y-14813714D02*
X13840848Y-14804190D01*
X13840848Y-14804190D02*
X13869419Y-14804190D01*
X13869419Y-14804190D02*
X13888467Y-14813714D01*
X13888467Y-14813714D02*
X13897990Y-14832762D01*
X13897990Y-14832762D02*
X13897990Y-14937524D01*
X13993229Y-14937524D02*
X13993229Y-14804190D01*
X13993229Y-14823238D02*
X14002752Y-14813714D01*
X14002752Y-14813714D02*
X14021800Y-14804190D01*
X14021800Y-14804190D02*
X14050371Y-14804190D01*
X14050371Y-14804190D02*
X14069419Y-14813714D01*
X14069419Y-14813714D02*
X14078943Y-14832762D01*
X14078943Y-14832762D02*
X14078943Y-14937524D01*
X14078943Y-14832762D02*
X14088467Y-14813714D01*
X14088467Y-14813714D02*
X14107514Y-14804190D01*
X14107514Y-14804190D02*
X14136086Y-14804190D01*
X14136086Y-14804190D02*
X14155133Y-14813714D01*
X14155133Y-14813714D02*
X14164657Y-14832762D01*
X14164657Y-14832762D02*
X14164657Y-14937524D01*
X14555133Y-14728000D02*
X14383705Y-14985143D01*
X14812276Y-14737524D02*
X14831324Y-14737524D01*
X14831324Y-14737524D02*
X14850372Y-14747048D01*
X14850372Y-14747048D02*
X14859895Y-14756571D01*
X14859895Y-14756571D02*
X14869419Y-14775619D01*
X14869419Y-14775619D02*
X14878943Y-14813714D01*
X14878943Y-14813714D02*
X14878943Y-14861333D01*
X14878943Y-14861333D02*
X14869419Y-14899428D01*
X14869419Y-14899428D02*
X14859895Y-14918476D01*
X14859895Y-14918476D02*
X14850372Y-14928000D01*
X14850372Y-14928000D02*
X14831324Y-14937524D01*
X14831324Y-14937524D02*
X14812276Y-14937524D01*
X14812276Y-14937524D02*
X14793229Y-14928000D01*
X14793229Y-14928000D02*
X14783705Y-14918476D01*
X14783705Y-14918476D02*
X14774181Y-14899428D01*
X14774181Y-14899428D02*
X14764657Y-14861333D01*
X14764657Y-14861333D02*
X14764657Y-14813714D01*
X14764657Y-14813714D02*
X14774181Y-14775619D01*
X14774181Y-14775619D02*
X14783705Y-14756571D01*
X14783705Y-14756571D02*
X14793229Y-14747048D01*
X14793229Y-14747048D02*
X14812276Y-14737524D01*
X14964657Y-14918476D02*
X14974181Y-14928000D01*
X14974181Y-14928000D02*
X14964657Y-14937524D01*
X14964657Y-14937524D02*
X14955133Y-14928000D01*
X14955133Y-14928000D02*
X14964657Y-14918476D01*
X14964657Y-14918476D02*
X14964657Y-14937524D01*
X15097991Y-14737524D02*
X15117038Y-14737524D01*
X15117038Y-14737524D02*
X15136086Y-14747048D01*
X15136086Y-14747048D02*
X15145610Y-14756571D01*
X15145610Y-14756571D02*
X15155133Y-14775619D01*
X15155133Y-14775619D02*
X15164657Y-14813714D01*
X15164657Y-14813714D02*
X15164657Y-14861333D01*
X15164657Y-14861333D02*
X15155133Y-14899428D01*
X15155133Y-14899428D02*
X15145610Y-14918476D01*
X15145610Y-14918476D02*
X15136086Y-14928000D01*
X15136086Y-14928000D02*
X15117038Y-14937524D01*
X15117038Y-14937524D02*
X15097991Y-14937524D01*
X15097991Y-14937524D02*
X15078943Y-14928000D01*
X15078943Y-14928000D02*
X15069419Y-14918476D01*
X15069419Y-14918476D02*
X15059895Y-14899428D01*
X15059895Y-14899428D02*
X15050372Y-14861333D01*
X15050372Y-14861333D02*
X15050372Y-14813714D01*
X15050372Y-14813714D02*
X15059895Y-14775619D01*
X15059895Y-14775619D02*
X15069419Y-14756571D01*
X15069419Y-14756571D02*
X15078943Y-14747048D01*
X15078943Y-14747048D02*
X15097991Y-14737524D01*
X15288467Y-14737524D02*
X15307514Y-14737524D01*
X15307514Y-14737524D02*
X15326562Y-14747048D01*
X15326562Y-14747048D02*
X15336086Y-14756571D01*
X15336086Y-14756571D02*
X15345610Y-14775619D01*
X15345610Y-14775619D02*
X15355133Y-14813714D01*
X15355133Y-14813714D02*
X15355133Y-14861333D01*
X15355133Y-14861333D02*
X15345610Y-14899428D01*
X15345610Y-14899428D02*
X15336086Y-14918476D01*
X15336086Y-14918476D02*
X15326562Y-14928000D01*
X15326562Y-14928000D02*
X15307514Y-14937524D01*
X15307514Y-14937524D02*
X15288467Y-14937524D01*
X15288467Y-14937524D02*
X15269419Y-14928000D01*
X15269419Y-14928000D02*
X15259895Y-14918476D01*
X15259895Y-14918476D02*
X15250372Y-14899428D01*
X15250372Y-14899428D02*
X15240848Y-14861333D01*
X15240848Y-14861333D02*
X15240848Y-14813714D01*
X15240848Y-14813714D02*
X15250372Y-14775619D01*
X15250372Y-14775619D02*
X15259895Y-14756571D01*
X15259895Y-14756571D02*
X15269419Y-14747048D01*
X15269419Y-14747048D02*
X15288467Y-14737524D01*
X15421800Y-14737524D02*
X15555133Y-14737524D01*
X15555133Y-14737524D02*
X15469419Y-14937524D01*
X15640848Y-14937524D02*
X15678943Y-14937524D01*
X15678943Y-14937524D02*
X15697991Y-14928000D01*
X15697991Y-14928000D02*
X15707514Y-14918476D01*
X15707514Y-14918476D02*
X15726562Y-14889905D01*
X15726562Y-14889905D02*
X15736086Y-14851809D01*
X15736086Y-14851809D02*
X15736086Y-14775619D01*
X15736086Y-14775619D02*
X15726562Y-14756571D01*
X15726562Y-14756571D02*
X15717038Y-14747048D01*
X15717038Y-14747048D02*
X15697991Y-14737524D01*
X15697991Y-14737524D02*
X15659895Y-14737524D01*
X15659895Y-14737524D02*
X15640848Y-14747048D01*
X15640848Y-14747048D02*
X15631324Y-14756571D01*
X15631324Y-14756571D02*
X15621800Y-14775619D01*
X15621800Y-14775619D02*
X15621800Y-14823238D01*
X15621800Y-14823238D02*
X15631324Y-14842286D01*
X15631324Y-14842286D02*
X15640848Y-14851809D01*
X15640848Y-14851809D02*
X15659895Y-14861333D01*
X15659895Y-14861333D02*
X15697991Y-14861333D01*
X15697991Y-14861333D02*
X15717038Y-14851809D01*
X15717038Y-14851809D02*
X15726562Y-14842286D01*
X15726562Y-14842286D02*
X15736086Y-14823238D01*
X15812276Y-14737524D02*
X15812276Y-14775619D01*
X15888467Y-14737524D02*
X15888467Y-14775619D01*
X16183705Y-15013714D02*
X16174181Y-15004190D01*
X16174181Y-15004190D02*
X16155134Y-14975619D01*
X16155134Y-14975619D02*
X16145610Y-14956571D01*
X16145610Y-14956571D02*
X16136086Y-14928000D01*
X16136086Y-14928000D02*
X16126562Y-14880381D01*
X16126562Y-14880381D02*
X16126562Y-14842286D01*
X16126562Y-14842286D02*
X16136086Y-14794667D01*
X16136086Y-14794667D02*
X16145610Y-14766095D01*
X16145610Y-14766095D02*
X16155134Y-14747048D01*
X16155134Y-14747048D02*
X16174181Y-14718476D01*
X16174181Y-14718476D02*
X16183705Y-14708952D01*
X16364657Y-14937524D02*
X16250372Y-14937524D01*
X16307514Y-14937524D02*
X16307514Y-14737524D01*
X16307514Y-14737524D02*
X16288467Y-14766095D01*
X16288467Y-14766095D02*
X16269419Y-14785143D01*
X16269419Y-14785143D02*
X16250372Y-14794667D01*
X16440848Y-14756571D02*
X16450372Y-14747048D01*
X16450372Y-14747048D02*
X16469419Y-14737524D01*
X16469419Y-14737524D02*
X16517038Y-14737524D01*
X16517038Y-14737524D02*
X16536086Y-14747048D01*
X16536086Y-14747048D02*
X16545610Y-14756571D01*
X16545610Y-14756571D02*
X16555134Y-14775619D01*
X16555134Y-14775619D02*
X16555134Y-14794667D01*
X16555134Y-14794667D02*
X16545610Y-14823238D01*
X16545610Y-14823238D02*
X16431324Y-14937524D01*
X16431324Y-14937524D02*
X16555134Y-14937524D01*
X16793229Y-14937524D02*
X16793229Y-14737524D01*
X16878943Y-14937524D02*
X16878943Y-14832762D01*
X16878943Y-14832762D02*
X16869419Y-14813714D01*
X16869419Y-14813714D02*
X16850372Y-14804190D01*
X16850372Y-14804190D02*
X16821800Y-14804190D01*
X16821800Y-14804190D02*
X16802753Y-14813714D01*
X16802753Y-14813714D02*
X16793229Y-14823238D01*
X17002753Y-14937524D02*
X16983705Y-14928000D01*
X16983705Y-14928000D02*
X16974181Y-14918476D01*
X16974181Y-14918476D02*
X16964658Y-14899428D01*
X16964658Y-14899428D02*
X16964658Y-14842286D01*
X16964658Y-14842286D02*
X16974181Y-14823238D01*
X16974181Y-14823238D02*
X16983705Y-14813714D01*
X16983705Y-14813714D02*
X17002753Y-14804190D01*
X17002753Y-14804190D02*
X17031324Y-14804190D01*
X17031324Y-14804190D02*
X17050372Y-14813714D01*
X17050372Y-14813714D02*
X17059896Y-14823238D01*
X17059896Y-14823238D02*
X17069419Y-14842286D01*
X17069419Y-14842286D02*
X17069419Y-14899428D01*
X17069419Y-14899428D02*
X17059896Y-14918476D01*
X17059896Y-14918476D02*
X17050372Y-14928000D01*
X17050372Y-14928000D02*
X17031324Y-14937524D01*
X17031324Y-14937524D02*
X17002753Y-14937524D01*
X17183705Y-14937524D02*
X17164658Y-14928000D01*
X17164658Y-14928000D02*
X17155134Y-14908952D01*
X17155134Y-14908952D02*
X17155134Y-14737524D01*
X17336086Y-14928000D02*
X17317039Y-14937524D01*
X17317039Y-14937524D02*
X17278943Y-14937524D01*
X17278943Y-14937524D02*
X17259896Y-14928000D01*
X17259896Y-14928000D02*
X17250372Y-14908952D01*
X17250372Y-14908952D02*
X17250372Y-14832762D01*
X17250372Y-14832762D02*
X17259896Y-14813714D01*
X17259896Y-14813714D02*
X17278943Y-14804190D01*
X17278943Y-14804190D02*
X17317039Y-14804190D01*
X17317039Y-14804190D02*
X17336086Y-14813714D01*
X17336086Y-14813714D02*
X17345610Y-14832762D01*
X17345610Y-14832762D02*
X17345610Y-14851809D01*
X17345610Y-14851809D02*
X17250372Y-14870857D01*
X17421800Y-14928000D02*
X17440848Y-14937524D01*
X17440848Y-14937524D02*
X17478943Y-14937524D01*
X17478943Y-14937524D02*
X17497991Y-14928000D01*
X17497991Y-14928000D02*
X17507515Y-14908952D01*
X17507515Y-14908952D02*
X17507515Y-14899428D01*
X17507515Y-14899428D02*
X17497991Y-14880381D01*
X17497991Y-14880381D02*
X17478943Y-14870857D01*
X17478943Y-14870857D02*
X17450372Y-14870857D01*
X17450372Y-14870857D02*
X17431324Y-14861333D01*
X17431324Y-14861333D02*
X17421800Y-14842286D01*
X17421800Y-14842286D02*
X17421800Y-14832762D01*
X17421800Y-14832762D02*
X17431324Y-14813714D01*
X17431324Y-14813714D02*
X17450372Y-14804190D01*
X17450372Y-14804190D02*
X17478943Y-14804190D01*
X17478943Y-14804190D02*
X17497991Y-14813714D01*
X17574181Y-15013714D02*
X17583705Y-15004190D01*
X17583705Y-15004190D02*
X17602753Y-14975619D01*
X17602753Y-14975619D02*
X17612277Y-14956571D01*
X17612277Y-14956571D02*
X17621800Y-14928000D01*
X17621800Y-14928000D02*
X17631324Y-14880381D01*
X17631324Y-14880381D02*
X17631324Y-14842286D01*
X17631324Y-14842286D02*
X17621800Y-14794667D01*
X17621800Y-14794667D02*
X17612277Y-14766095D01*
X17612277Y-14766095D02*
X17602753Y-14747048D01*
X17602753Y-14747048D02*
X17583705Y-14718476D01*
X17583705Y-14718476D02*
X17574181Y-14708952D01*
D13*
X12591800Y-15079000D02*
X12591800Y-15139000D01*
X12561800Y-15109000D02*
X12621800Y-15109000D01*
D11*
X12907514Y-15001524D02*
X12926562Y-15001524D01*
X12926562Y-15001524D02*
X12945609Y-15011048D01*
X12945609Y-15011048D02*
X12955133Y-15020571D01*
X12955133Y-15020571D02*
X12964657Y-15039619D01*
X12964657Y-15039619D02*
X12974181Y-15077714D01*
X12974181Y-15077714D02*
X12974181Y-15125333D01*
X12974181Y-15125333D02*
X12964657Y-15163428D01*
X12964657Y-15163428D02*
X12955133Y-15182476D01*
X12955133Y-15182476D02*
X12945609Y-15192000D01*
X12945609Y-15192000D02*
X12926562Y-15201524D01*
X12926562Y-15201524D02*
X12907514Y-15201524D01*
X12907514Y-15201524D02*
X12888467Y-15192000D01*
X12888467Y-15192000D02*
X12878943Y-15182476D01*
X12878943Y-15182476D02*
X12869419Y-15163428D01*
X12869419Y-15163428D02*
X12859895Y-15125333D01*
X12859895Y-15125333D02*
X12859895Y-15077714D01*
X12859895Y-15077714D02*
X12869419Y-15039619D01*
X12869419Y-15039619D02*
X12878943Y-15020571D01*
X12878943Y-15020571D02*
X12888467Y-15011048D01*
X12888467Y-15011048D02*
X12907514Y-15001524D01*
X13059895Y-15182476D02*
X13069419Y-15192000D01*
X13069419Y-15192000D02*
X13059895Y-15201524D01*
X13059895Y-15201524D02*
X13050371Y-15192000D01*
X13050371Y-15192000D02*
X13059895Y-15182476D01*
X13059895Y-15182476D02*
X13059895Y-15201524D01*
X13240848Y-15001524D02*
X13202752Y-15001524D01*
X13202752Y-15001524D02*
X13183705Y-15011048D01*
X13183705Y-15011048D02*
X13174181Y-15020571D01*
X13174181Y-15020571D02*
X13155133Y-15049143D01*
X13155133Y-15049143D02*
X13145609Y-15087238D01*
X13145609Y-15087238D02*
X13145609Y-15163428D01*
X13145609Y-15163428D02*
X13155133Y-15182476D01*
X13155133Y-15182476D02*
X13164657Y-15192000D01*
X13164657Y-15192000D02*
X13183705Y-15201524D01*
X13183705Y-15201524D02*
X13221800Y-15201524D01*
X13221800Y-15201524D02*
X13240848Y-15192000D01*
X13240848Y-15192000D02*
X13250371Y-15182476D01*
X13250371Y-15182476D02*
X13259895Y-15163428D01*
X13259895Y-15163428D02*
X13259895Y-15115809D01*
X13259895Y-15115809D02*
X13250371Y-15096762D01*
X13250371Y-15096762D02*
X13240848Y-15087238D01*
X13240848Y-15087238D02*
X13221800Y-15077714D01*
X13221800Y-15077714D02*
X13183705Y-15077714D01*
X13183705Y-15077714D02*
X13164657Y-15087238D01*
X13164657Y-15087238D02*
X13155133Y-15096762D01*
X13155133Y-15096762D02*
X13145609Y-15115809D01*
X13383705Y-15001524D02*
X13402752Y-15001524D01*
X13402752Y-15001524D02*
X13421800Y-15011048D01*
X13421800Y-15011048D02*
X13431324Y-15020571D01*
X13431324Y-15020571D02*
X13440848Y-15039619D01*
X13440848Y-15039619D02*
X13450371Y-15077714D01*
X13450371Y-15077714D02*
X13450371Y-15125333D01*
X13450371Y-15125333D02*
X13440848Y-15163428D01*
X13440848Y-15163428D02*
X13431324Y-15182476D01*
X13431324Y-15182476D02*
X13421800Y-15192000D01*
X13421800Y-15192000D02*
X13402752Y-15201524D01*
X13402752Y-15201524D02*
X13383705Y-15201524D01*
X13383705Y-15201524D02*
X13364657Y-15192000D01*
X13364657Y-15192000D02*
X13355133Y-15182476D01*
X13355133Y-15182476D02*
X13345609Y-15163428D01*
X13345609Y-15163428D02*
X13336086Y-15125333D01*
X13336086Y-15125333D02*
X13336086Y-15077714D01*
X13336086Y-15077714D02*
X13345609Y-15039619D01*
X13345609Y-15039619D02*
X13355133Y-15020571D01*
X13355133Y-15020571D02*
X13364657Y-15011048D01*
X13364657Y-15011048D02*
X13383705Y-15001524D01*
X13574181Y-15001524D02*
X13593229Y-15001524D01*
X13593229Y-15001524D02*
X13612276Y-15011048D01*
X13612276Y-15011048D02*
X13621800Y-15020571D01*
X13621800Y-15020571D02*
X13631324Y-15039619D01*
X13631324Y-15039619D02*
X13640848Y-15077714D01*
X13640848Y-15077714D02*
X13640848Y-15125333D01*
X13640848Y-15125333D02*
X13631324Y-15163428D01*
X13631324Y-15163428D02*
X13621800Y-15182476D01*
X13621800Y-15182476D02*
X13612276Y-15192000D01*
X13612276Y-15192000D02*
X13593229Y-15201524D01*
X13593229Y-15201524D02*
X13574181Y-15201524D01*
X13574181Y-15201524D02*
X13555133Y-15192000D01*
X13555133Y-15192000D02*
X13545609Y-15182476D01*
X13545609Y-15182476D02*
X13536086Y-15163428D01*
X13536086Y-15163428D02*
X13526562Y-15125333D01*
X13526562Y-15125333D02*
X13526562Y-15077714D01*
X13526562Y-15077714D02*
X13536086Y-15039619D01*
X13536086Y-15039619D02*
X13545609Y-15020571D01*
X13545609Y-15020571D02*
X13555133Y-15011048D01*
X13555133Y-15011048D02*
X13574181Y-15001524D01*
X13726562Y-15201524D02*
X13726562Y-15068190D01*
X13726562Y-15087238D02*
X13736086Y-15077714D01*
X13736086Y-15077714D02*
X13755133Y-15068190D01*
X13755133Y-15068190D02*
X13783705Y-15068190D01*
X13783705Y-15068190D02*
X13802752Y-15077714D01*
X13802752Y-15077714D02*
X13812276Y-15096762D01*
X13812276Y-15096762D02*
X13812276Y-15201524D01*
X13812276Y-15096762D02*
X13821800Y-15077714D01*
X13821800Y-15077714D02*
X13840848Y-15068190D01*
X13840848Y-15068190D02*
X13869419Y-15068190D01*
X13869419Y-15068190D02*
X13888467Y-15077714D01*
X13888467Y-15077714D02*
X13897990Y-15096762D01*
X13897990Y-15096762D02*
X13897990Y-15201524D01*
X13993229Y-15201524D02*
X13993229Y-15068190D01*
X13993229Y-15087238D02*
X14002752Y-15077714D01*
X14002752Y-15077714D02*
X14021800Y-15068190D01*
X14021800Y-15068190D02*
X14050371Y-15068190D01*
X14050371Y-15068190D02*
X14069419Y-15077714D01*
X14069419Y-15077714D02*
X14078943Y-15096762D01*
X14078943Y-15096762D02*
X14078943Y-15201524D01*
X14078943Y-15096762D02*
X14088467Y-15077714D01*
X14088467Y-15077714D02*
X14107514Y-15068190D01*
X14107514Y-15068190D02*
X14136086Y-15068190D01*
X14136086Y-15068190D02*
X14155133Y-15077714D01*
X14155133Y-15077714D02*
X14164657Y-15096762D01*
X14164657Y-15096762D02*
X14164657Y-15201524D01*
X14555133Y-14992000D02*
X14383705Y-15249143D01*
X14812276Y-15001524D02*
X14831324Y-15001524D01*
X14831324Y-15001524D02*
X14850372Y-15011048D01*
X14850372Y-15011048D02*
X14859895Y-15020571D01*
X14859895Y-15020571D02*
X14869419Y-15039619D01*
X14869419Y-15039619D02*
X14878943Y-15077714D01*
X14878943Y-15077714D02*
X14878943Y-15125333D01*
X14878943Y-15125333D02*
X14869419Y-15163428D01*
X14869419Y-15163428D02*
X14859895Y-15182476D01*
X14859895Y-15182476D02*
X14850372Y-15192000D01*
X14850372Y-15192000D02*
X14831324Y-15201524D01*
X14831324Y-15201524D02*
X14812276Y-15201524D01*
X14812276Y-15201524D02*
X14793229Y-15192000D01*
X14793229Y-15192000D02*
X14783705Y-15182476D01*
X14783705Y-15182476D02*
X14774181Y-15163428D01*
X14774181Y-15163428D02*
X14764657Y-15125333D01*
X14764657Y-15125333D02*
X14764657Y-15077714D01*
X14764657Y-15077714D02*
X14774181Y-15039619D01*
X14774181Y-15039619D02*
X14783705Y-15020571D01*
X14783705Y-15020571D02*
X14793229Y-15011048D01*
X14793229Y-15011048D02*
X14812276Y-15001524D01*
X14964657Y-15182476D02*
X14974181Y-15192000D01*
X14974181Y-15192000D02*
X14964657Y-15201524D01*
X14964657Y-15201524D02*
X14955133Y-15192000D01*
X14955133Y-15192000D02*
X14964657Y-15182476D01*
X14964657Y-15182476D02*
X14964657Y-15201524D01*
X15097991Y-15001524D02*
X15117038Y-15001524D01*
X15117038Y-15001524D02*
X15136086Y-15011048D01*
X15136086Y-15011048D02*
X15145610Y-15020571D01*
X15145610Y-15020571D02*
X15155133Y-15039619D01*
X15155133Y-15039619D02*
X15164657Y-15077714D01*
X15164657Y-15077714D02*
X15164657Y-15125333D01*
X15164657Y-15125333D02*
X15155133Y-15163428D01*
X15155133Y-15163428D02*
X15145610Y-15182476D01*
X15145610Y-15182476D02*
X15136086Y-15192000D01*
X15136086Y-15192000D02*
X15117038Y-15201524D01*
X15117038Y-15201524D02*
X15097991Y-15201524D01*
X15097991Y-15201524D02*
X15078943Y-15192000D01*
X15078943Y-15192000D02*
X15069419Y-15182476D01*
X15069419Y-15182476D02*
X15059895Y-15163428D01*
X15059895Y-15163428D02*
X15050372Y-15125333D01*
X15050372Y-15125333D02*
X15050372Y-15077714D01*
X15050372Y-15077714D02*
X15059895Y-15039619D01*
X15059895Y-15039619D02*
X15069419Y-15020571D01*
X15069419Y-15020571D02*
X15078943Y-15011048D01*
X15078943Y-15011048D02*
X15097991Y-15001524D01*
X15240848Y-15020571D02*
X15250372Y-15011048D01*
X15250372Y-15011048D02*
X15269419Y-15001524D01*
X15269419Y-15001524D02*
X15317038Y-15001524D01*
X15317038Y-15001524D02*
X15336086Y-15011048D01*
X15336086Y-15011048D02*
X15345610Y-15020571D01*
X15345610Y-15020571D02*
X15355133Y-15039619D01*
X15355133Y-15039619D02*
X15355133Y-15058667D01*
X15355133Y-15058667D02*
X15345610Y-15087238D01*
X15345610Y-15087238D02*
X15231324Y-15201524D01*
X15231324Y-15201524D02*
X15355133Y-15201524D01*
X15421800Y-15001524D02*
X15545610Y-15001524D01*
X15545610Y-15001524D02*
X15478943Y-15077714D01*
X15478943Y-15077714D02*
X15507514Y-15077714D01*
X15507514Y-15077714D02*
X15526562Y-15087238D01*
X15526562Y-15087238D02*
X15536086Y-15096762D01*
X15536086Y-15096762D02*
X15545610Y-15115809D01*
X15545610Y-15115809D02*
X15545610Y-15163428D01*
X15545610Y-15163428D02*
X15536086Y-15182476D01*
X15536086Y-15182476D02*
X15526562Y-15192000D01*
X15526562Y-15192000D02*
X15507514Y-15201524D01*
X15507514Y-15201524D02*
X15450372Y-15201524D01*
X15450372Y-15201524D02*
X15431324Y-15192000D01*
X15431324Y-15192000D02*
X15421800Y-15182476D01*
X15717038Y-15001524D02*
X15678943Y-15001524D01*
X15678943Y-15001524D02*
X15659895Y-15011048D01*
X15659895Y-15011048D02*
X15650372Y-15020571D01*
X15650372Y-15020571D02*
X15631324Y-15049143D01*
X15631324Y-15049143D02*
X15621800Y-15087238D01*
X15621800Y-15087238D02*
X15621800Y-15163428D01*
X15621800Y-15163428D02*
X15631324Y-15182476D01*
X15631324Y-15182476D02*
X15640848Y-15192000D01*
X15640848Y-15192000D02*
X15659895Y-15201524D01*
X15659895Y-15201524D02*
X15697991Y-15201524D01*
X15697991Y-15201524D02*
X15717038Y-15192000D01*
X15717038Y-15192000D02*
X15726562Y-15182476D01*
X15726562Y-15182476D02*
X15736086Y-15163428D01*
X15736086Y-15163428D02*
X15736086Y-15115809D01*
X15736086Y-15115809D02*
X15726562Y-15096762D01*
X15726562Y-15096762D02*
X15717038Y-15087238D01*
X15717038Y-15087238D02*
X15697991Y-15077714D01*
X15697991Y-15077714D02*
X15659895Y-15077714D01*
X15659895Y-15077714D02*
X15640848Y-15087238D01*
X15640848Y-15087238D02*
X15631324Y-15096762D01*
X15631324Y-15096762D02*
X15621800Y-15115809D01*
X15812276Y-15001524D02*
X15812276Y-15039619D01*
X15888467Y-15001524D02*
X15888467Y-15039619D01*
X16183705Y-15277714D02*
X16174181Y-15268190D01*
X16174181Y-15268190D02*
X16155134Y-15239619D01*
X16155134Y-15239619D02*
X16145610Y-15220571D01*
X16145610Y-15220571D02*
X16136086Y-15192000D01*
X16136086Y-15192000D02*
X16126562Y-15144381D01*
X16126562Y-15144381D02*
X16126562Y-15106286D01*
X16126562Y-15106286D02*
X16136086Y-15058667D01*
X16136086Y-15058667D02*
X16145610Y-15030095D01*
X16145610Y-15030095D02*
X16155134Y-15011048D01*
X16155134Y-15011048D02*
X16174181Y-14982476D01*
X16174181Y-14982476D02*
X16183705Y-14972952D01*
X16297991Y-15001524D02*
X16317038Y-15001524D01*
X16317038Y-15001524D02*
X16336086Y-15011048D01*
X16336086Y-15011048D02*
X16345610Y-15020571D01*
X16345610Y-15020571D02*
X16355134Y-15039619D01*
X16355134Y-15039619D02*
X16364657Y-15077714D01*
X16364657Y-15077714D02*
X16364657Y-15125333D01*
X16364657Y-15125333D02*
X16355134Y-15163428D01*
X16355134Y-15163428D02*
X16345610Y-15182476D01*
X16345610Y-15182476D02*
X16336086Y-15192000D01*
X16336086Y-15192000D02*
X16317038Y-15201524D01*
X16317038Y-15201524D02*
X16297991Y-15201524D01*
X16297991Y-15201524D02*
X16278943Y-15192000D01*
X16278943Y-15192000D02*
X16269419Y-15182476D01*
X16269419Y-15182476D02*
X16259895Y-15163428D01*
X16259895Y-15163428D02*
X16250372Y-15125333D01*
X16250372Y-15125333D02*
X16250372Y-15077714D01*
X16250372Y-15077714D02*
X16259895Y-15039619D01*
X16259895Y-15039619D02*
X16269419Y-15020571D01*
X16269419Y-15020571D02*
X16278943Y-15011048D01*
X16278943Y-15011048D02*
X16297991Y-15001524D01*
X16602753Y-15201524D02*
X16602753Y-15001524D01*
X16688467Y-15201524D02*
X16688467Y-15096762D01*
X16688467Y-15096762D02*
X16678943Y-15077714D01*
X16678943Y-15077714D02*
X16659896Y-15068190D01*
X16659896Y-15068190D02*
X16631324Y-15068190D01*
X16631324Y-15068190D02*
X16612276Y-15077714D01*
X16612276Y-15077714D02*
X16602753Y-15087238D01*
X16812277Y-15201524D02*
X16793229Y-15192000D01*
X16793229Y-15192000D02*
X16783705Y-15182476D01*
X16783705Y-15182476D02*
X16774181Y-15163428D01*
X16774181Y-15163428D02*
X16774181Y-15106286D01*
X16774181Y-15106286D02*
X16783705Y-15087238D01*
X16783705Y-15087238D02*
X16793229Y-15077714D01*
X16793229Y-15077714D02*
X16812277Y-15068190D01*
X16812277Y-15068190D02*
X16840848Y-15068190D01*
X16840848Y-15068190D02*
X16859896Y-15077714D01*
X16859896Y-15077714D02*
X16869419Y-15087238D01*
X16869419Y-15087238D02*
X16878943Y-15106286D01*
X16878943Y-15106286D02*
X16878943Y-15163428D01*
X16878943Y-15163428D02*
X16869419Y-15182476D01*
X16869419Y-15182476D02*
X16859896Y-15192000D01*
X16859896Y-15192000D02*
X16840848Y-15201524D01*
X16840848Y-15201524D02*
X16812277Y-15201524D01*
X16993229Y-15201524D02*
X16974181Y-15192000D01*
X16974181Y-15192000D02*
X16964658Y-15172952D01*
X16964658Y-15172952D02*
X16964658Y-15001524D01*
X17145610Y-15192000D02*
X17126562Y-15201524D01*
X17126562Y-15201524D02*
X17088467Y-15201524D01*
X17088467Y-15201524D02*
X17069419Y-15192000D01*
X17069419Y-15192000D02*
X17059896Y-15172952D01*
X17059896Y-15172952D02*
X17059896Y-15096762D01*
X17059896Y-15096762D02*
X17069419Y-15077714D01*
X17069419Y-15077714D02*
X17088467Y-15068190D01*
X17088467Y-15068190D02*
X17126562Y-15068190D01*
X17126562Y-15068190D02*
X17145610Y-15077714D01*
X17145610Y-15077714D02*
X17155134Y-15096762D01*
X17155134Y-15096762D02*
X17155134Y-15115809D01*
X17155134Y-15115809D02*
X17059896Y-15134857D01*
X17231324Y-15192000D02*
X17250372Y-15201524D01*
X17250372Y-15201524D02*
X17288467Y-15201524D01*
X17288467Y-15201524D02*
X17307515Y-15192000D01*
X17307515Y-15192000D02*
X17317039Y-15172952D01*
X17317039Y-15172952D02*
X17317039Y-15163428D01*
X17317039Y-15163428D02*
X17307515Y-15144381D01*
X17307515Y-15144381D02*
X17288467Y-15134857D01*
X17288467Y-15134857D02*
X17259896Y-15134857D01*
X17259896Y-15134857D02*
X17240848Y-15125333D01*
X17240848Y-15125333D02*
X17231324Y-15106286D01*
X17231324Y-15106286D02*
X17231324Y-15096762D01*
X17231324Y-15096762D02*
X17240848Y-15077714D01*
X17240848Y-15077714D02*
X17259896Y-15068190D01*
X17259896Y-15068190D02*
X17288467Y-15068190D01*
X17288467Y-15068190D02*
X17307515Y-15077714D01*
X17555134Y-15125333D02*
X17707515Y-15125333D01*
X17631324Y-15201524D02*
X17631324Y-15049143D01*
X18040848Y-15068190D02*
X18040848Y-15201524D01*
X17993229Y-14992000D02*
X17945610Y-15134857D01*
X17945610Y-15134857D02*
X18069420Y-15134857D01*
X18288467Y-15192000D02*
X18307515Y-15201524D01*
X18307515Y-15201524D02*
X18345610Y-15201524D01*
X18345610Y-15201524D02*
X18364658Y-15192000D01*
X18364658Y-15192000D02*
X18374182Y-15172952D01*
X18374182Y-15172952D02*
X18374182Y-15163428D01*
X18374182Y-15163428D02*
X18364658Y-15144381D01*
X18364658Y-15144381D02*
X18345610Y-15134857D01*
X18345610Y-15134857D02*
X18317039Y-15134857D01*
X18317039Y-15134857D02*
X18297991Y-15125333D01*
X18297991Y-15125333D02*
X18288467Y-15106286D01*
X18288467Y-15106286D02*
X18288467Y-15096762D01*
X18288467Y-15096762D02*
X18297991Y-15077714D01*
X18297991Y-15077714D02*
X18317039Y-15068190D01*
X18317039Y-15068190D02*
X18345610Y-15068190D01*
X18345610Y-15068190D02*
X18364658Y-15077714D01*
X18488467Y-15201524D02*
X18469420Y-15192000D01*
X18469420Y-15192000D02*
X18459896Y-15172952D01*
X18459896Y-15172952D02*
X18459896Y-15001524D01*
X18593229Y-15201524D02*
X18574182Y-15192000D01*
X18574182Y-15192000D02*
X18564658Y-15182476D01*
X18564658Y-15182476D02*
X18555134Y-15163428D01*
X18555134Y-15163428D02*
X18555134Y-15106286D01*
X18555134Y-15106286D02*
X18564658Y-15087238D01*
X18564658Y-15087238D02*
X18574182Y-15077714D01*
X18574182Y-15077714D02*
X18593229Y-15068190D01*
X18593229Y-15068190D02*
X18621801Y-15068190D01*
X18621801Y-15068190D02*
X18640848Y-15077714D01*
X18640848Y-15077714D02*
X18650372Y-15087238D01*
X18650372Y-15087238D02*
X18659896Y-15106286D01*
X18659896Y-15106286D02*
X18659896Y-15163428D01*
X18659896Y-15163428D02*
X18650372Y-15182476D01*
X18650372Y-15182476D02*
X18640848Y-15192000D01*
X18640848Y-15192000D02*
X18621801Y-15201524D01*
X18621801Y-15201524D02*
X18593229Y-15201524D01*
X18717039Y-15068190D02*
X18793229Y-15068190D01*
X18745610Y-15001524D02*
X18745610Y-15172952D01*
X18745610Y-15172952D02*
X18755134Y-15192000D01*
X18755134Y-15192000D02*
X18774182Y-15201524D01*
X18774182Y-15201524D02*
X18793229Y-15201524D01*
X18850372Y-15192000D02*
X18869420Y-15201524D01*
X18869420Y-15201524D02*
X18907515Y-15201524D01*
X18907515Y-15201524D02*
X18926563Y-15192000D01*
X18926563Y-15192000D02*
X18936086Y-15172952D01*
X18936086Y-15172952D02*
X18936086Y-15163428D01*
X18936086Y-15163428D02*
X18926563Y-15144381D01*
X18926563Y-15144381D02*
X18907515Y-15134857D01*
X18907515Y-15134857D02*
X18878943Y-15134857D01*
X18878943Y-15134857D02*
X18859896Y-15125333D01*
X18859896Y-15125333D02*
X18850372Y-15106286D01*
X18850372Y-15106286D02*
X18850372Y-15096762D01*
X18850372Y-15096762D02*
X18859896Y-15077714D01*
X18859896Y-15077714D02*
X18878943Y-15068190D01*
X18878943Y-15068190D02*
X18907515Y-15068190D01*
X18907515Y-15068190D02*
X18926563Y-15077714D01*
X19002753Y-15277714D02*
X19012277Y-15268190D01*
X19012277Y-15268190D02*
X19031324Y-15239619D01*
X19031324Y-15239619D02*
X19040848Y-15220571D01*
X19040848Y-15220571D02*
X19050372Y-15192000D01*
X19050372Y-15192000D02*
X19059896Y-15144381D01*
X19059896Y-15144381D02*
X19059896Y-15106286D01*
X19059896Y-15106286D02*
X19050372Y-15058667D01*
X19050372Y-15058667D02*
X19040848Y-15030095D01*
X19040848Y-15030095D02*
X19031324Y-15011048D01*
X19031324Y-15011048D02*
X19012277Y-14982476D01*
X19012277Y-14982476D02*
X19002753Y-14972952D01*
D10*
X12607156Y-15408356D02*
X12607156Y-15337644D01*
X12536444Y-15337644D01*
X12536444Y-15408356D01*
X12607156Y-15408356D01*
D11*
X12974181Y-15465524D02*
X12859895Y-15465524D01*
X12917038Y-15465524D02*
X12917038Y-15265524D01*
X12917038Y-15265524D02*
X12897990Y-15294095D01*
X12897990Y-15294095D02*
X12878943Y-15313143D01*
X12878943Y-15313143D02*
X12859895Y-15322667D01*
X13059895Y-15446476D02*
X13069419Y-15456000D01*
X13069419Y-15456000D02*
X13059895Y-15465524D01*
X13059895Y-15465524D02*
X13050371Y-15456000D01*
X13050371Y-15456000D02*
X13059895Y-15446476D01*
X13059895Y-15446476D02*
X13059895Y-15465524D01*
X13193228Y-15265524D02*
X13212276Y-15265524D01*
X13212276Y-15265524D02*
X13231324Y-15275048D01*
X13231324Y-15275048D02*
X13240848Y-15284571D01*
X13240848Y-15284571D02*
X13250371Y-15303619D01*
X13250371Y-15303619D02*
X13259895Y-15341714D01*
X13259895Y-15341714D02*
X13259895Y-15389333D01*
X13259895Y-15389333D02*
X13250371Y-15427428D01*
X13250371Y-15427428D02*
X13240848Y-15446476D01*
X13240848Y-15446476D02*
X13231324Y-15456000D01*
X13231324Y-15456000D02*
X13212276Y-15465524D01*
X13212276Y-15465524D02*
X13193228Y-15465524D01*
X13193228Y-15465524D02*
X13174181Y-15456000D01*
X13174181Y-15456000D02*
X13164657Y-15446476D01*
X13164657Y-15446476D02*
X13155133Y-15427428D01*
X13155133Y-15427428D02*
X13145609Y-15389333D01*
X13145609Y-15389333D02*
X13145609Y-15341714D01*
X13145609Y-15341714D02*
X13155133Y-15303619D01*
X13155133Y-15303619D02*
X13164657Y-15284571D01*
X13164657Y-15284571D02*
X13174181Y-15275048D01*
X13174181Y-15275048D02*
X13193228Y-15265524D01*
X13383705Y-15265524D02*
X13402752Y-15265524D01*
X13402752Y-15265524D02*
X13421800Y-15275048D01*
X13421800Y-15275048D02*
X13431324Y-15284571D01*
X13431324Y-15284571D02*
X13440848Y-15303619D01*
X13440848Y-15303619D02*
X13450371Y-15341714D01*
X13450371Y-15341714D02*
X13450371Y-15389333D01*
X13450371Y-15389333D02*
X13440848Y-15427428D01*
X13440848Y-15427428D02*
X13431324Y-15446476D01*
X13431324Y-15446476D02*
X13421800Y-15456000D01*
X13421800Y-15456000D02*
X13402752Y-15465524D01*
X13402752Y-15465524D02*
X13383705Y-15465524D01*
X13383705Y-15465524D02*
X13364657Y-15456000D01*
X13364657Y-15456000D02*
X13355133Y-15446476D01*
X13355133Y-15446476D02*
X13345609Y-15427428D01*
X13345609Y-15427428D02*
X13336086Y-15389333D01*
X13336086Y-15389333D02*
X13336086Y-15341714D01*
X13336086Y-15341714D02*
X13345609Y-15303619D01*
X13345609Y-15303619D02*
X13355133Y-15284571D01*
X13355133Y-15284571D02*
X13364657Y-15275048D01*
X13364657Y-15275048D02*
X13383705Y-15265524D01*
X13574181Y-15265524D02*
X13593229Y-15265524D01*
X13593229Y-15265524D02*
X13612276Y-15275048D01*
X13612276Y-15275048D02*
X13621800Y-15284571D01*
X13621800Y-15284571D02*
X13631324Y-15303619D01*
X13631324Y-15303619D02*
X13640848Y-15341714D01*
X13640848Y-15341714D02*
X13640848Y-15389333D01*
X13640848Y-15389333D02*
X13631324Y-15427428D01*
X13631324Y-15427428D02*
X13621800Y-15446476D01*
X13621800Y-15446476D02*
X13612276Y-15456000D01*
X13612276Y-15456000D02*
X13593229Y-15465524D01*
X13593229Y-15465524D02*
X13574181Y-15465524D01*
X13574181Y-15465524D02*
X13555133Y-15456000D01*
X13555133Y-15456000D02*
X13545609Y-15446476D01*
X13545609Y-15446476D02*
X13536086Y-15427428D01*
X13536086Y-15427428D02*
X13526562Y-15389333D01*
X13526562Y-15389333D02*
X13526562Y-15341714D01*
X13526562Y-15341714D02*
X13536086Y-15303619D01*
X13536086Y-15303619D02*
X13545609Y-15284571D01*
X13545609Y-15284571D02*
X13555133Y-15275048D01*
X13555133Y-15275048D02*
X13574181Y-15265524D01*
X13726562Y-15465524D02*
X13726562Y-15332190D01*
X13726562Y-15351238D02*
X13736086Y-15341714D01*
X13736086Y-15341714D02*
X13755133Y-15332190D01*
X13755133Y-15332190D02*
X13783705Y-15332190D01*
X13783705Y-15332190D02*
X13802752Y-15341714D01*
X13802752Y-15341714D02*
X13812276Y-15360762D01*
X13812276Y-15360762D02*
X13812276Y-15465524D01*
X13812276Y-15360762D02*
X13821800Y-15341714D01*
X13821800Y-15341714D02*
X13840848Y-15332190D01*
X13840848Y-15332190D02*
X13869419Y-15332190D01*
X13869419Y-15332190D02*
X13888467Y-15341714D01*
X13888467Y-15341714D02*
X13897990Y-15360762D01*
X13897990Y-15360762D02*
X13897990Y-15465524D01*
X13993229Y-15465524D02*
X13993229Y-15332190D01*
X13993229Y-15351238D02*
X14002752Y-15341714D01*
X14002752Y-15341714D02*
X14021800Y-15332190D01*
X14021800Y-15332190D02*
X14050371Y-15332190D01*
X14050371Y-15332190D02*
X14069419Y-15341714D01*
X14069419Y-15341714D02*
X14078943Y-15360762D01*
X14078943Y-15360762D02*
X14078943Y-15465524D01*
X14078943Y-15360762D02*
X14088467Y-15341714D01*
X14088467Y-15341714D02*
X14107514Y-15332190D01*
X14107514Y-15332190D02*
X14136086Y-15332190D01*
X14136086Y-15332190D02*
X14155133Y-15341714D01*
X14155133Y-15341714D02*
X14164657Y-15360762D01*
X14164657Y-15360762D02*
X14164657Y-15465524D01*
X14555133Y-15256000D02*
X14383705Y-15513143D01*
X14812276Y-15265524D02*
X14831324Y-15265524D01*
X14831324Y-15265524D02*
X14850372Y-15275048D01*
X14850372Y-15275048D02*
X14859895Y-15284571D01*
X14859895Y-15284571D02*
X14869419Y-15303619D01*
X14869419Y-15303619D02*
X14878943Y-15341714D01*
X14878943Y-15341714D02*
X14878943Y-15389333D01*
X14878943Y-15389333D02*
X14869419Y-15427428D01*
X14869419Y-15427428D02*
X14859895Y-15446476D01*
X14859895Y-15446476D02*
X14850372Y-15456000D01*
X14850372Y-15456000D02*
X14831324Y-15465524D01*
X14831324Y-15465524D02*
X14812276Y-15465524D01*
X14812276Y-15465524D02*
X14793229Y-15456000D01*
X14793229Y-15456000D02*
X14783705Y-15446476D01*
X14783705Y-15446476D02*
X14774181Y-15427428D01*
X14774181Y-15427428D02*
X14764657Y-15389333D01*
X14764657Y-15389333D02*
X14764657Y-15341714D01*
X14764657Y-15341714D02*
X14774181Y-15303619D01*
X14774181Y-15303619D02*
X14783705Y-15284571D01*
X14783705Y-15284571D02*
X14793229Y-15275048D01*
X14793229Y-15275048D02*
X14812276Y-15265524D01*
X14964657Y-15446476D02*
X14974181Y-15456000D01*
X14974181Y-15456000D02*
X14964657Y-15465524D01*
X14964657Y-15465524D02*
X14955133Y-15456000D01*
X14955133Y-15456000D02*
X14964657Y-15446476D01*
X14964657Y-15446476D02*
X14964657Y-15465524D01*
X15097991Y-15265524D02*
X15117038Y-15265524D01*
X15117038Y-15265524D02*
X15136086Y-15275048D01*
X15136086Y-15275048D02*
X15145610Y-15284571D01*
X15145610Y-15284571D02*
X15155133Y-15303619D01*
X15155133Y-15303619D02*
X15164657Y-15341714D01*
X15164657Y-15341714D02*
X15164657Y-15389333D01*
X15164657Y-15389333D02*
X15155133Y-15427428D01*
X15155133Y-15427428D02*
X15145610Y-15446476D01*
X15145610Y-15446476D02*
X15136086Y-15456000D01*
X15136086Y-15456000D02*
X15117038Y-15465524D01*
X15117038Y-15465524D02*
X15097991Y-15465524D01*
X15097991Y-15465524D02*
X15078943Y-15456000D01*
X15078943Y-15456000D02*
X15069419Y-15446476D01*
X15069419Y-15446476D02*
X15059895Y-15427428D01*
X15059895Y-15427428D02*
X15050372Y-15389333D01*
X15050372Y-15389333D02*
X15050372Y-15341714D01*
X15050372Y-15341714D02*
X15059895Y-15303619D01*
X15059895Y-15303619D02*
X15069419Y-15284571D01*
X15069419Y-15284571D02*
X15078943Y-15275048D01*
X15078943Y-15275048D02*
X15097991Y-15265524D01*
X15231324Y-15265524D02*
X15355133Y-15265524D01*
X15355133Y-15265524D02*
X15288467Y-15341714D01*
X15288467Y-15341714D02*
X15317038Y-15341714D01*
X15317038Y-15341714D02*
X15336086Y-15351238D01*
X15336086Y-15351238D02*
X15345610Y-15360762D01*
X15345610Y-15360762D02*
X15355133Y-15379809D01*
X15355133Y-15379809D02*
X15355133Y-15427428D01*
X15355133Y-15427428D02*
X15345610Y-15446476D01*
X15345610Y-15446476D02*
X15336086Y-15456000D01*
X15336086Y-15456000D02*
X15317038Y-15465524D01*
X15317038Y-15465524D02*
X15259895Y-15465524D01*
X15259895Y-15465524D02*
X15240848Y-15456000D01*
X15240848Y-15456000D02*
X15231324Y-15446476D01*
X15450372Y-15465524D02*
X15488467Y-15465524D01*
X15488467Y-15465524D02*
X15507514Y-15456000D01*
X15507514Y-15456000D02*
X15517038Y-15446476D01*
X15517038Y-15446476D02*
X15536086Y-15417905D01*
X15536086Y-15417905D02*
X15545610Y-15379809D01*
X15545610Y-15379809D02*
X15545610Y-15303619D01*
X15545610Y-15303619D02*
X15536086Y-15284571D01*
X15536086Y-15284571D02*
X15526562Y-15275048D01*
X15526562Y-15275048D02*
X15507514Y-15265524D01*
X15507514Y-15265524D02*
X15469419Y-15265524D01*
X15469419Y-15265524D02*
X15450372Y-15275048D01*
X15450372Y-15275048D02*
X15440848Y-15284571D01*
X15440848Y-15284571D02*
X15431324Y-15303619D01*
X15431324Y-15303619D02*
X15431324Y-15351238D01*
X15431324Y-15351238D02*
X15440848Y-15370286D01*
X15440848Y-15370286D02*
X15450372Y-15379809D01*
X15450372Y-15379809D02*
X15469419Y-15389333D01*
X15469419Y-15389333D02*
X15507514Y-15389333D01*
X15507514Y-15389333D02*
X15526562Y-15379809D01*
X15526562Y-15379809D02*
X15536086Y-15370286D01*
X15536086Y-15370286D02*
X15545610Y-15351238D01*
X15717038Y-15332190D02*
X15717038Y-15465524D01*
X15669419Y-15256000D02*
X15621800Y-15398857D01*
X15621800Y-15398857D02*
X15745610Y-15398857D01*
X15812276Y-15265524D02*
X15812276Y-15303619D01*
X15888467Y-15265524D02*
X15888467Y-15303619D01*
X16183705Y-15541714D02*
X16174181Y-15532190D01*
X16174181Y-15532190D02*
X16155134Y-15503619D01*
X16155134Y-15503619D02*
X16145610Y-15484571D01*
X16145610Y-15484571D02*
X16136086Y-15456000D01*
X16136086Y-15456000D02*
X16126562Y-15408381D01*
X16126562Y-15408381D02*
X16126562Y-15370286D01*
X16126562Y-15370286D02*
X16136086Y-15322667D01*
X16136086Y-15322667D02*
X16145610Y-15294095D01*
X16145610Y-15294095D02*
X16155134Y-15275048D01*
X16155134Y-15275048D02*
X16174181Y-15246476D01*
X16174181Y-15246476D02*
X16183705Y-15236952D01*
X16288467Y-15351238D02*
X16269419Y-15341714D01*
X16269419Y-15341714D02*
X16259895Y-15332190D01*
X16259895Y-15332190D02*
X16250372Y-15313143D01*
X16250372Y-15313143D02*
X16250372Y-15303619D01*
X16250372Y-15303619D02*
X16259895Y-15284571D01*
X16259895Y-15284571D02*
X16269419Y-15275048D01*
X16269419Y-15275048D02*
X16288467Y-15265524D01*
X16288467Y-15265524D02*
X16326562Y-15265524D01*
X16326562Y-15265524D02*
X16345610Y-15275048D01*
X16345610Y-15275048D02*
X16355134Y-15284571D01*
X16355134Y-15284571D02*
X16364657Y-15303619D01*
X16364657Y-15303619D02*
X16364657Y-15313143D01*
X16364657Y-15313143D02*
X16355134Y-15332190D01*
X16355134Y-15332190D02*
X16345610Y-15341714D01*
X16345610Y-15341714D02*
X16326562Y-15351238D01*
X16326562Y-15351238D02*
X16288467Y-15351238D01*
X16288467Y-15351238D02*
X16269419Y-15360762D01*
X16269419Y-15360762D02*
X16259895Y-15370286D01*
X16259895Y-15370286D02*
X16250372Y-15389333D01*
X16250372Y-15389333D02*
X16250372Y-15427428D01*
X16250372Y-15427428D02*
X16259895Y-15446476D01*
X16259895Y-15446476D02*
X16269419Y-15456000D01*
X16269419Y-15456000D02*
X16288467Y-15465524D01*
X16288467Y-15465524D02*
X16326562Y-15465524D01*
X16326562Y-15465524D02*
X16345610Y-15456000D01*
X16345610Y-15456000D02*
X16355134Y-15446476D01*
X16355134Y-15446476D02*
X16364657Y-15427428D01*
X16364657Y-15427428D02*
X16364657Y-15389333D01*
X16364657Y-15389333D02*
X16355134Y-15370286D01*
X16355134Y-15370286D02*
X16345610Y-15360762D01*
X16345610Y-15360762D02*
X16326562Y-15351238D01*
X16602753Y-15465524D02*
X16602753Y-15265524D01*
X16688467Y-15465524D02*
X16688467Y-15360762D01*
X16688467Y-15360762D02*
X16678943Y-15341714D01*
X16678943Y-15341714D02*
X16659896Y-15332190D01*
X16659896Y-15332190D02*
X16631324Y-15332190D01*
X16631324Y-15332190D02*
X16612276Y-15341714D01*
X16612276Y-15341714D02*
X16602753Y-15351238D01*
X16812277Y-15465524D02*
X16793229Y-15456000D01*
X16793229Y-15456000D02*
X16783705Y-15446476D01*
X16783705Y-15446476D02*
X16774181Y-15427428D01*
X16774181Y-15427428D02*
X16774181Y-15370286D01*
X16774181Y-15370286D02*
X16783705Y-15351238D01*
X16783705Y-15351238D02*
X16793229Y-15341714D01*
X16793229Y-15341714D02*
X16812277Y-15332190D01*
X16812277Y-15332190D02*
X16840848Y-15332190D01*
X16840848Y-15332190D02*
X16859896Y-15341714D01*
X16859896Y-15341714D02*
X16869419Y-15351238D01*
X16869419Y-15351238D02*
X16878943Y-15370286D01*
X16878943Y-15370286D02*
X16878943Y-15427428D01*
X16878943Y-15427428D02*
X16869419Y-15446476D01*
X16869419Y-15446476D02*
X16859896Y-15456000D01*
X16859896Y-15456000D02*
X16840848Y-15465524D01*
X16840848Y-15465524D02*
X16812277Y-15465524D01*
X16993229Y-15465524D02*
X16974181Y-15456000D01*
X16974181Y-15456000D02*
X16964658Y-15436952D01*
X16964658Y-15436952D02*
X16964658Y-15265524D01*
X17145610Y-15456000D02*
X17126562Y-15465524D01*
X17126562Y-15465524D02*
X17088467Y-15465524D01*
X17088467Y-15465524D02*
X17069419Y-15456000D01*
X17069419Y-15456000D02*
X17059896Y-15436952D01*
X17059896Y-15436952D02*
X17059896Y-15360762D01*
X17059896Y-15360762D02*
X17069419Y-15341714D01*
X17069419Y-15341714D02*
X17088467Y-15332190D01*
X17088467Y-15332190D02*
X17126562Y-15332190D01*
X17126562Y-15332190D02*
X17145610Y-15341714D01*
X17145610Y-15341714D02*
X17155134Y-15360762D01*
X17155134Y-15360762D02*
X17155134Y-15379809D01*
X17155134Y-15379809D02*
X17059896Y-15398857D01*
X17231324Y-15456000D02*
X17250372Y-15465524D01*
X17250372Y-15465524D02*
X17288467Y-15465524D01*
X17288467Y-15465524D02*
X17307515Y-15456000D01*
X17307515Y-15456000D02*
X17317039Y-15436952D01*
X17317039Y-15436952D02*
X17317039Y-15427428D01*
X17317039Y-15427428D02*
X17307515Y-15408381D01*
X17307515Y-15408381D02*
X17288467Y-15398857D01*
X17288467Y-15398857D02*
X17259896Y-15398857D01*
X17259896Y-15398857D02*
X17240848Y-15389333D01*
X17240848Y-15389333D02*
X17231324Y-15370286D01*
X17231324Y-15370286D02*
X17231324Y-15360762D01*
X17231324Y-15360762D02*
X17240848Y-15341714D01*
X17240848Y-15341714D02*
X17259896Y-15332190D01*
X17259896Y-15332190D02*
X17288467Y-15332190D01*
X17288467Y-15332190D02*
X17307515Y-15341714D01*
X17383705Y-15541714D02*
X17393229Y-15532190D01*
X17393229Y-15532190D02*
X17412277Y-15503619D01*
X17412277Y-15503619D02*
X17421800Y-15484571D01*
X17421800Y-15484571D02*
X17431324Y-15456000D01*
X17431324Y-15456000D02*
X17440848Y-15408381D01*
X17440848Y-15408381D02*
X17440848Y-15370286D01*
X17440848Y-15370286D02*
X17431324Y-15322667D01*
X17431324Y-15322667D02*
X17421800Y-15294095D01*
X17421800Y-15294095D02*
X17412277Y-15275048D01*
X17412277Y-15275048D02*
X17393229Y-15246476D01*
X17393229Y-15246476D02*
X17383705Y-15236952D01*
M02*
