G04 #@! TF.GenerationSoftware,KiCad,Pcbnew,7.0.1-3b83917a11~172~ubuntu22.04.1*
G04 #@! TF.CreationDate,2023-04-17T14:06:39+02:00*
G04 #@! TF.ProjectId,AcousticDetection_HW,41636f75-7374-4696-9344-657465637469,rev?*
G04 #@! TF.SameCoordinates,Original*
G04 #@! TF.FileFunction,Paste,Top*
G04 #@! TF.FilePolarity,Positive*
%FSLAX46Y46*%
G04 Gerber Fmt 4.6, Leading zero omitted, Abs format (unit mm)*
G04 Created by KiCad (PCBNEW 7.0.1-3b83917a11~172~ubuntu22.04.1) date 2023-04-17 14:06:39*
%MOMM*%
%LPD*%
G01*
G04 APERTURE LIST*
G04 Aperture macros list*
%AMRoundRect*
0 Rectangle with rounded corners*
0 $1 Rounding radius*
0 $2 $3 $4 $5 $6 $7 $8 $9 X,Y pos of 4 corners*
0 Add a 4 corners polygon primitive as box body*
4,1,4,$2,$3,$4,$5,$6,$7,$8,$9,$2,$3,0*
0 Add four circle primitives for the rounded corners*
1,1,$1+$1,$2,$3*
1,1,$1+$1,$4,$5*
1,1,$1+$1,$6,$7*
1,1,$1+$1,$8,$9*
0 Add four rect primitives between the rounded corners*
20,1,$1+$1,$2,$3,$4,$5,0*
20,1,$1+$1,$4,$5,$6,$7,0*
20,1,$1+$1,$6,$7,$8,$9,0*
20,1,$1+$1,$8,$9,$2,$3,0*%
G04 Aperture macros list end*
%ADD10C,0.001000*%
%ADD11R,0.600000X0.522000*%
%ADD12RoundRect,0.250000X0.350000X0.450000X-0.350000X0.450000X-0.350000X-0.450000X0.350000X-0.450000X0*%
%ADD13R,1.800000X4.000000*%
%ADD14RoundRect,0.250000X-0.350000X-0.450000X0.350000X-0.450000X0.350000X0.450000X-0.350000X0.450000X0*%
%ADD15R,1.150000X0.600000*%
%ADD16R,1.150000X0.300000*%
%ADD17RoundRect,0.250000X-0.475000X0.337500X-0.475000X-0.337500X0.475000X-0.337500X0.475000X0.337500X0*%
%ADD18R,4.000000X1.800000*%
%ADD19RoundRect,0.250000X0.475000X-0.337500X0.475000X0.337500X-0.475000X0.337500X-0.475000X-0.337500X0*%
%ADD20RoundRect,0.237500X0.237500X-0.250000X0.237500X0.250000X-0.237500X0.250000X-0.237500X-0.250000X0*%
%ADD21RoundRect,0.237500X-0.300000X-0.237500X0.300000X-0.237500X0.300000X0.237500X-0.300000X0.237500X0*%
%ADD22R,2.000000X1.500000*%
%ADD23R,2.000000X3.800000*%
%ADD24RoundRect,0.237500X0.300000X0.237500X-0.300000X0.237500X-0.300000X-0.237500X0.300000X-0.237500X0*%
%ADD25R,1.000000X1.250000*%
%ADD26RoundRect,0.250000X0.650000X-0.412500X0.650000X0.412500X-0.650000X0.412500X-0.650000X-0.412500X0*%
%ADD27RoundRect,0.250000X-0.450000X0.350000X-0.450000X-0.350000X0.450000X-0.350000X0.450000X0.350000X0*%
%ADD28R,1.500000X0.900000*%
%ADD29R,0.900000X1.500000*%
%ADD30R,1.050000X1.050000*%
%ADD31RoundRect,0.250000X0.412500X0.650000X-0.412500X0.650000X-0.412500X-0.650000X0.412500X-0.650000X0*%
%ADD32RoundRect,0.250000X0.450000X-0.350000X0.450000X0.350000X-0.450000X0.350000X-0.450000X-0.350000X0*%
%ADD33RoundRect,0.250000X-0.650000X0.412500X-0.650000X-0.412500X0.650000X-0.412500X0.650000X0.412500X0*%
G04 APERTURE END LIST*
D10*
X129648000Y-136890000D02*
X129762766Y-137005309D01*
X129693000Y-137050000D01*
X129578000Y-137110000D01*
X129428191Y-137156203D01*
X129268000Y-137170000D01*
X129128000Y-137160000D01*
X129048000Y-137140000D01*
X128958000Y-137110000D01*
X128863000Y-137065000D01*
X128768000Y-137000000D01*
X128883000Y-136885000D01*
X128980334Y-136786172D01*
X129043391Y-136821537D01*
X129148000Y-136860000D01*
X129268000Y-136873603D01*
X129388000Y-136860000D01*
X129498000Y-136820000D01*
X129548000Y-136785000D01*
X129648000Y-136890000D01*
G36*
X129648000Y-136890000D02*
G01*
X129762766Y-137005309D01*
X129693000Y-137050000D01*
X129578000Y-137110000D01*
X129428191Y-137156203D01*
X129268000Y-137170000D01*
X129128000Y-137160000D01*
X129048000Y-137140000D01*
X128958000Y-137110000D01*
X128863000Y-137065000D01*
X128768000Y-137000000D01*
X128883000Y-136885000D01*
X128980334Y-136786172D01*
X129043391Y-136821537D01*
X129148000Y-136860000D01*
X129268000Y-136873603D01*
X129388000Y-136860000D01*
X129498000Y-136820000D01*
X129548000Y-136785000D01*
X129648000Y-136890000D01*
G37*
X129408000Y-135560000D02*
X129498000Y-135580000D01*
X129578000Y-135610000D01*
X129678000Y-135660000D01*
X129768000Y-135720000D01*
X129653000Y-135835000D01*
X129550666Y-135933828D01*
X129492609Y-135898463D01*
X129388000Y-135860000D01*
X129268000Y-135846397D01*
X129208000Y-135850000D01*
X129148000Y-135860000D01*
X129093000Y-135875000D01*
X129038000Y-135900000D01*
X128988000Y-135925000D01*
X128893000Y-135830000D01*
X128778234Y-135714691D01*
X128853000Y-135660000D01*
X128958000Y-135610000D01*
X129107809Y-135563797D01*
X129268000Y-135550000D01*
X129408000Y-135560000D01*
G36*
X129408000Y-135560000D02*
G01*
X129498000Y-135580000D01*
X129578000Y-135610000D01*
X129678000Y-135660000D01*
X129768000Y-135720000D01*
X129653000Y-135835000D01*
X129550666Y-135933828D01*
X129492609Y-135898463D01*
X129388000Y-135860000D01*
X129268000Y-135846397D01*
X129208000Y-135850000D01*
X129148000Y-135860000D01*
X129093000Y-135875000D01*
X129038000Y-135900000D01*
X128988000Y-135925000D01*
X128893000Y-135830000D01*
X128778234Y-135714691D01*
X128853000Y-135660000D01*
X128958000Y-135610000D01*
X129107809Y-135563797D01*
X129268000Y-135550000D01*
X129408000Y-135560000D01*
G37*
X129973000Y-135955000D02*
X130018000Y-136050000D01*
X130048000Y-136125000D01*
X130064203Y-136199809D01*
X130078000Y-136295000D01*
X130078000Y-136420000D01*
X130068000Y-136500000D01*
X130048000Y-136590000D01*
X130018000Y-136670000D01*
X129973000Y-136765000D01*
X129908000Y-136860000D01*
X129788000Y-136740000D01*
X129689172Y-136642666D01*
X129729537Y-136584609D01*
X129768000Y-136480000D01*
X129781603Y-136360000D01*
X129768000Y-136240000D01*
X129728000Y-136130000D01*
X129693000Y-136080000D01*
X129798000Y-135975000D01*
X129908309Y-135860234D01*
X129973000Y-135955000D01*
G36*
X129973000Y-135955000D02*
G01*
X130018000Y-136050000D01*
X130048000Y-136125000D01*
X130064203Y-136199809D01*
X130078000Y-136295000D01*
X130078000Y-136420000D01*
X130068000Y-136500000D01*
X130048000Y-136590000D01*
X130018000Y-136670000D01*
X129973000Y-136765000D01*
X129908000Y-136860000D01*
X129788000Y-136740000D01*
X129689172Y-136642666D01*
X129729537Y-136584609D01*
X129768000Y-136480000D01*
X129781603Y-136360000D01*
X129768000Y-136240000D01*
X129728000Y-136130000D01*
X129693000Y-136080000D01*
X129798000Y-135975000D01*
X129908309Y-135860234D01*
X129973000Y-135955000D01*
G37*
X128743000Y-135970000D02*
X128841828Y-136067334D01*
X128806463Y-136135391D01*
X128763000Y-136235000D01*
X128748000Y-136355000D01*
X128744397Y-136355000D01*
X128748000Y-136365000D01*
X128763000Y-136470000D01*
X128758000Y-136480000D01*
X128763000Y-136480000D01*
X128803000Y-136590000D01*
X128838000Y-136645000D01*
X128738000Y-136745000D01*
X128627691Y-136859766D01*
X128563000Y-136760000D01*
X128518000Y-136670000D01*
X128471797Y-136520191D01*
X128458000Y-136360000D01*
X128468000Y-136220000D01*
X128488000Y-136140000D01*
X128518000Y-136050000D01*
X128568000Y-135950000D01*
X128633000Y-135855000D01*
X128743000Y-135970000D01*
G36*
X128743000Y-135970000D02*
G01*
X128841828Y-136067334D01*
X128806463Y-136135391D01*
X128763000Y-136235000D01*
X128748000Y-136355000D01*
X128744397Y-136355000D01*
X128748000Y-136365000D01*
X128763000Y-136470000D01*
X128758000Y-136480000D01*
X128763000Y-136480000D01*
X128803000Y-136590000D01*
X128838000Y-136645000D01*
X128738000Y-136745000D01*
X128627691Y-136859766D01*
X128563000Y-136760000D01*
X128518000Y-136670000D01*
X128471797Y-136520191D01*
X128458000Y-136360000D01*
X128468000Y-136220000D01*
X128488000Y-136140000D01*
X128518000Y-136050000D01*
X128568000Y-135950000D01*
X128633000Y-135855000D01*
X128743000Y-135970000D01*
G37*
X176648000Y-136890000D02*
X176762766Y-137005309D01*
X176693000Y-137050000D01*
X176578000Y-137110000D01*
X176428191Y-137156203D01*
X176268000Y-137170000D01*
X176128000Y-137160000D01*
X176048000Y-137140000D01*
X175958000Y-137110000D01*
X175863000Y-137065000D01*
X175768000Y-137000000D01*
X175883000Y-136885000D01*
X175980334Y-136786172D01*
X176043391Y-136821537D01*
X176148000Y-136860000D01*
X176268000Y-136873603D01*
X176388000Y-136860000D01*
X176498000Y-136820000D01*
X176548000Y-136785000D01*
X176648000Y-136890000D01*
G36*
X176648000Y-136890000D02*
G01*
X176762766Y-137005309D01*
X176693000Y-137050000D01*
X176578000Y-137110000D01*
X176428191Y-137156203D01*
X176268000Y-137170000D01*
X176128000Y-137160000D01*
X176048000Y-137140000D01*
X175958000Y-137110000D01*
X175863000Y-137065000D01*
X175768000Y-137000000D01*
X175883000Y-136885000D01*
X175980334Y-136786172D01*
X176043391Y-136821537D01*
X176148000Y-136860000D01*
X176268000Y-136873603D01*
X176388000Y-136860000D01*
X176498000Y-136820000D01*
X176548000Y-136785000D01*
X176648000Y-136890000D01*
G37*
X176408000Y-135560000D02*
X176498000Y-135580000D01*
X176578000Y-135610000D01*
X176678000Y-135660000D01*
X176768000Y-135720000D01*
X176653000Y-135835000D01*
X176550666Y-135933828D01*
X176492609Y-135898463D01*
X176388000Y-135860000D01*
X176268000Y-135846397D01*
X176208000Y-135850000D01*
X176148000Y-135860000D01*
X176093000Y-135875000D01*
X176038000Y-135900000D01*
X175988000Y-135925000D01*
X175893000Y-135830000D01*
X175778234Y-135714691D01*
X175853000Y-135660000D01*
X175958000Y-135610000D01*
X176107809Y-135563797D01*
X176268000Y-135550000D01*
X176408000Y-135560000D01*
G36*
X176408000Y-135560000D02*
G01*
X176498000Y-135580000D01*
X176578000Y-135610000D01*
X176678000Y-135660000D01*
X176768000Y-135720000D01*
X176653000Y-135835000D01*
X176550666Y-135933828D01*
X176492609Y-135898463D01*
X176388000Y-135860000D01*
X176268000Y-135846397D01*
X176208000Y-135850000D01*
X176148000Y-135860000D01*
X176093000Y-135875000D01*
X176038000Y-135900000D01*
X175988000Y-135925000D01*
X175893000Y-135830000D01*
X175778234Y-135714691D01*
X175853000Y-135660000D01*
X175958000Y-135610000D01*
X176107809Y-135563797D01*
X176268000Y-135550000D01*
X176408000Y-135560000D01*
G37*
X176973000Y-135955000D02*
X177018000Y-136050000D01*
X177048000Y-136125000D01*
X177064203Y-136199809D01*
X177078000Y-136295000D01*
X177078000Y-136420000D01*
X177068000Y-136500000D01*
X177048000Y-136590000D01*
X177018000Y-136670000D01*
X176973000Y-136765000D01*
X176908000Y-136860000D01*
X176788000Y-136740000D01*
X176689172Y-136642666D01*
X176729537Y-136584609D01*
X176768000Y-136480000D01*
X176781603Y-136360000D01*
X176768000Y-136240000D01*
X176728000Y-136130000D01*
X176693000Y-136080000D01*
X176798000Y-135975000D01*
X176908309Y-135860234D01*
X176973000Y-135955000D01*
G36*
X176973000Y-135955000D02*
G01*
X177018000Y-136050000D01*
X177048000Y-136125000D01*
X177064203Y-136199809D01*
X177078000Y-136295000D01*
X177078000Y-136420000D01*
X177068000Y-136500000D01*
X177048000Y-136590000D01*
X177018000Y-136670000D01*
X176973000Y-136765000D01*
X176908000Y-136860000D01*
X176788000Y-136740000D01*
X176689172Y-136642666D01*
X176729537Y-136584609D01*
X176768000Y-136480000D01*
X176781603Y-136360000D01*
X176768000Y-136240000D01*
X176728000Y-136130000D01*
X176693000Y-136080000D01*
X176798000Y-135975000D01*
X176908309Y-135860234D01*
X176973000Y-135955000D01*
G37*
X175743000Y-135970000D02*
X175841828Y-136067334D01*
X175806463Y-136135391D01*
X175763000Y-136235000D01*
X175748000Y-136355000D01*
X175744397Y-136355000D01*
X175748000Y-136365000D01*
X175763000Y-136470000D01*
X175758000Y-136480000D01*
X175763000Y-136480000D01*
X175803000Y-136590000D01*
X175838000Y-136645000D01*
X175738000Y-136745000D01*
X175627691Y-136859766D01*
X175563000Y-136760000D01*
X175518000Y-136670000D01*
X175471797Y-136520191D01*
X175458000Y-136360000D01*
X175468000Y-136220000D01*
X175488000Y-136140000D01*
X175518000Y-136050000D01*
X175568000Y-135950000D01*
X175633000Y-135855000D01*
X175743000Y-135970000D01*
G36*
X175743000Y-135970000D02*
G01*
X175841828Y-136067334D01*
X175806463Y-136135391D01*
X175763000Y-136235000D01*
X175748000Y-136355000D01*
X175744397Y-136355000D01*
X175748000Y-136365000D01*
X175763000Y-136470000D01*
X175758000Y-136480000D01*
X175763000Y-136480000D01*
X175803000Y-136590000D01*
X175838000Y-136645000D01*
X175738000Y-136745000D01*
X175627691Y-136859766D01*
X175563000Y-136760000D01*
X175518000Y-136670000D01*
X175471797Y-136520191D01*
X175458000Y-136360000D01*
X175468000Y-136220000D01*
X175488000Y-136140000D01*
X175518000Y-136050000D01*
X175568000Y-135950000D01*
X175633000Y-135855000D01*
X175743000Y-135970000D01*
G37*
D11*
X128368000Y-134286000D03*
X128368000Y-135108000D03*
X130168000Y-135108000D03*
X130168000Y-134286000D03*
X129268000Y-134286000D03*
D12*
X160644000Y-91444000D03*
X158644000Y-91444000D03*
D13*
X131368000Y-56360000D03*
X129268000Y-56360000D03*
X127168000Y-56360000D03*
D14*
X163708000Y-76534000D03*
X165708000Y-76534000D03*
D15*
X162926500Y-95912000D03*
X162926500Y-95112000D03*
D16*
X162926500Y-93962000D03*
X162926500Y-92962000D03*
X162926500Y-92462000D03*
X162926500Y-91462000D03*
D15*
X162926500Y-90312000D03*
X162926500Y-89512000D03*
X162926500Y-89512000D03*
X162926500Y-90312000D03*
D16*
X162926500Y-90962000D03*
X162926500Y-91962000D03*
X162926500Y-93462000D03*
X162926500Y-94462000D03*
D15*
X162926500Y-95112000D03*
X162926500Y-95912000D03*
D17*
X141365500Y-65592000D03*
X141365500Y-67667000D03*
D18*
X168761500Y-55296000D03*
X168761500Y-57396000D03*
X168761500Y-59496000D03*
D19*
X139340000Y-72653500D03*
X139340000Y-70578500D03*
D11*
X175368000Y-134286000D03*
X175368000Y-135108000D03*
X177168000Y-135108000D03*
X177168000Y-134286000D03*
X176268000Y-134286000D03*
D20*
X127736000Y-132568500D03*
X127736000Y-130743500D03*
D21*
X174425500Y-132588000D03*
X176150500Y-132588000D03*
D19*
X141372000Y-72653500D03*
X141372000Y-70578500D03*
D22*
X137752500Y-91176000D03*
X137752500Y-93476000D03*
D23*
X144052500Y-93476000D03*
D22*
X137752500Y-95776000D03*
D24*
X131110500Y-131052000D03*
X129385500Y-131052000D03*
D25*
X138761500Y-86175000D03*
X138761500Y-78425000D03*
D26*
X147468000Y-96054500D03*
X147468000Y-92929500D03*
D27*
X152040000Y-91516000D03*
X152040000Y-93516000D03*
D28*
X144011500Y-66146000D03*
X144011500Y-67416000D03*
X144011500Y-68686000D03*
X144011500Y-69956000D03*
X144011500Y-71226000D03*
X144011500Y-72496000D03*
X144011500Y-73766000D03*
X144011500Y-75036000D03*
X144011500Y-76306000D03*
X144011500Y-77576000D03*
X144011500Y-78846000D03*
X144011500Y-80116000D03*
X144011500Y-81386000D03*
X144011500Y-82656000D03*
D29*
X147051500Y-83906000D03*
X148321500Y-83906000D03*
X149591500Y-83906000D03*
X150861500Y-83906000D03*
X152131500Y-83906000D03*
X153401500Y-83906000D03*
X154671500Y-83906000D03*
X155941500Y-83906000D03*
X157211500Y-83906000D03*
X158481500Y-83906000D03*
D28*
X161511500Y-82656000D03*
X161511500Y-81386000D03*
X161511500Y-80116000D03*
X161511500Y-78846000D03*
X161511500Y-77576000D03*
X161511500Y-76306000D03*
X161511500Y-75036000D03*
X161511500Y-73766000D03*
X161511500Y-72496000D03*
X161511500Y-71226000D03*
X161511500Y-69956000D03*
X161511500Y-68686000D03*
X161511500Y-67416000D03*
X161511500Y-66146000D03*
D30*
X150556500Y-71961000D03*
X150556500Y-73486000D03*
X150556500Y-75011000D03*
X152081500Y-71961000D03*
X152081500Y-73486000D03*
X152081500Y-75011000D03*
X153606500Y-71961000D03*
X153606500Y-73486000D03*
X153606500Y-75011000D03*
D27*
X154065500Y-91537500D03*
X154065500Y-93537500D03*
D31*
X144497000Y-88396000D03*
X141372000Y-88396000D03*
D18*
X136761500Y-59496000D03*
X136761500Y-57396000D03*
X136761500Y-55296000D03*
D24*
X131110500Y-132576000D03*
X129385500Y-132576000D03*
D32*
X137308000Y-72616000D03*
X137308000Y-70616000D03*
D13*
X178368000Y-56360000D03*
X176268000Y-56360000D03*
X174168000Y-56360000D03*
D12*
X160644000Y-93476000D03*
X158644000Y-93476000D03*
D33*
X137809500Y-65553500D03*
X137809500Y-68678500D03*
D21*
X174425500Y-131064000D03*
X176150500Y-131064000D03*
D25*
X166761500Y-86175000D03*
X166761500Y-78425000D03*
D14*
X163724000Y-74502000D03*
X165724000Y-74502000D03*
D20*
X177800000Y-132580500D03*
X177800000Y-130755500D03*
M02*
