G04 #@! TF.GenerationSoftware,KiCad,Pcbnew,7.0.1-3b83917a11~172~ubuntu22.04.1*
G04 #@! TF.CreationDate,2023-04-18T10:06:07+02:00*
G04 #@! TF.ProjectId,part3,70617274-332e-46b6-9963-61645f706362,rev?*
G04 #@! TF.SameCoordinates,Original*
G04 #@! TF.FileFunction,Paste,Top*
G04 #@! TF.FilePolarity,Positive*
%FSLAX46Y46*%
G04 Gerber Fmt 4.6, Leading zero omitted, Abs format (unit mm)*
G04 Created by KiCad (PCBNEW 7.0.1-3b83917a11~172~ubuntu22.04.1) date 2023-04-18 10:06:07*
%MOMM*%
%LPD*%
G01*
G04 APERTURE LIST*
G04 Aperture macros list*
%AMRoundRect*
0 Rectangle with rounded corners*
0 $1 Rounding radius*
0 $2 $3 $4 $5 $6 $7 $8 $9 X,Y pos of 4 corners*
0 Add a 4 corners polygon primitive as box body*
4,1,4,$2,$3,$4,$5,$6,$7,$8,$9,$2,$3,0*
0 Add four circle primitives for the rounded corners*
1,1,$1+$1,$2,$3*
1,1,$1+$1,$4,$5*
1,1,$1+$1,$6,$7*
1,1,$1+$1,$8,$9*
0 Add four rect primitives between the rounded corners*
20,1,$1+$1,$2,$3,$4,$5,0*
20,1,$1+$1,$4,$5,$6,$7,0*
20,1,$1+$1,$6,$7,$8,$9,0*
20,1,$1+$1,$8,$9,$2,$3,0*%
G04 Aperture macros list end*
%ADD10C,0.001000*%
%ADD11R,0.600000X0.522000*%
%ADD12RoundRect,0.237500X-0.300000X-0.237500X0.300000X-0.237500X0.300000X0.237500X-0.300000X0.237500X0*%
%ADD13RoundRect,0.237500X0.237500X-0.250000X0.237500X0.250000X-0.237500X0.250000X-0.237500X-0.250000X0*%
%ADD14R,1.800000X4.000000*%
G04 APERTURE END LIST*
D10*
X144390000Y-132064000D02*
X144504766Y-132179309D01*
X144435000Y-132224000D01*
X144320000Y-132284000D01*
X144170191Y-132330203D01*
X144010000Y-132344000D01*
X143870000Y-132334000D01*
X143790000Y-132314000D01*
X143700000Y-132284000D01*
X143605000Y-132239000D01*
X143510000Y-132174000D01*
X143625000Y-132059000D01*
X143722334Y-131960172D01*
X143785391Y-131995537D01*
X143890000Y-132034000D01*
X144010000Y-132047603D01*
X144130000Y-132034000D01*
X144240000Y-131994000D01*
X144290000Y-131959000D01*
X144390000Y-132064000D01*
G36*
X144390000Y-132064000D02*
G01*
X144504766Y-132179309D01*
X144435000Y-132224000D01*
X144320000Y-132284000D01*
X144170191Y-132330203D01*
X144010000Y-132344000D01*
X143870000Y-132334000D01*
X143790000Y-132314000D01*
X143700000Y-132284000D01*
X143605000Y-132239000D01*
X143510000Y-132174000D01*
X143625000Y-132059000D01*
X143722334Y-131960172D01*
X143785391Y-131995537D01*
X143890000Y-132034000D01*
X144010000Y-132047603D01*
X144130000Y-132034000D01*
X144240000Y-131994000D01*
X144290000Y-131959000D01*
X144390000Y-132064000D01*
G37*
X144150000Y-130734000D02*
X144240000Y-130754000D01*
X144320000Y-130784000D01*
X144420000Y-130834000D01*
X144510000Y-130894000D01*
X144395000Y-131009000D01*
X144292666Y-131107828D01*
X144234609Y-131072463D01*
X144130000Y-131034000D01*
X144010000Y-131020397D01*
X143950000Y-131024000D01*
X143890000Y-131034000D01*
X143835000Y-131049000D01*
X143780000Y-131074000D01*
X143730000Y-131099000D01*
X143635000Y-131004000D01*
X143520234Y-130888691D01*
X143595000Y-130834000D01*
X143700000Y-130784000D01*
X143849809Y-130737797D01*
X144010000Y-130724000D01*
X144150000Y-130734000D01*
G36*
X144150000Y-130734000D02*
G01*
X144240000Y-130754000D01*
X144320000Y-130784000D01*
X144420000Y-130834000D01*
X144510000Y-130894000D01*
X144395000Y-131009000D01*
X144292666Y-131107828D01*
X144234609Y-131072463D01*
X144130000Y-131034000D01*
X144010000Y-131020397D01*
X143950000Y-131024000D01*
X143890000Y-131034000D01*
X143835000Y-131049000D01*
X143780000Y-131074000D01*
X143730000Y-131099000D01*
X143635000Y-131004000D01*
X143520234Y-130888691D01*
X143595000Y-130834000D01*
X143700000Y-130784000D01*
X143849809Y-130737797D01*
X144010000Y-130724000D01*
X144150000Y-130734000D01*
G37*
X144715000Y-131129000D02*
X144760000Y-131224000D01*
X144790000Y-131299000D01*
X144806203Y-131373809D01*
X144820000Y-131469000D01*
X144820000Y-131594000D01*
X144810000Y-131674000D01*
X144790000Y-131764000D01*
X144760000Y-131844000D01*
X144715000Y-131939000D01*
X144650000Y-132034000D01*
X144530000Y-131914000D01*
X144431172Y-131816666D01*
X144471537Y-131758609D01*
X144510000Y-131654000D01*
X144523603Y-131534000D01*
X144510000Y-131414000D01*
X144470000Y-131304000D01*
X144435000Y-131254000D01*
X144540000Y-131149000D01*
X144650309Y-131034234D01*
X144715000Y-131129000D01*
G36*
X144715000Y-131129000D02*
G01*
X144760000Y-131224000D01*
X144790000Y-131299000D01*
X144806203Y-131373809D01*
X144820000Y-131469000D01*
X144820000Y-131594000D01*
X144810000Y-131674000D01*
X144790000Y-131764000D01*
X144760000Y-131844000D01*
X144715000Y-131939000D01*
X144650000Y-132034000D01*
X144530000Y-131914000D01*
X144431172Y-131816666D01*
X144471537Y-131758609D01*
X144510000Y-131654000D01*
X144523603Y-131534000D01*
X144510000Y-131414000D01*
X144470000Y-131304000D01*
X144435000Y-131254000D01*
X144540000Y-131149000D01*
X144650309Y-131034234D01*
X144715000Y-131129000D01*
G37*
X143485000Y-131144000D02*
X143583828Y-131241334D01*
X143548463Y-131309391D01*
X143505000Y-131409000D01*
X143490000Y-131529000D01*
X143486397Y-131529000D01*
X143490000Y-131539000D01*
X143505000Y-131644000D01*
X143500000Y-131654000D01*
X143505000Y-131654000D01*
X143545000Y-131764000D01*
X143580000Y-131819000D01*
X143480000Y-131919000D01*
X143369691Y-132033766D01*
X143305000Y-131934000D01*
X143260000Y-131844000D01*
X143213797Y-131694191D01*
X143200000Y-131534000D01*
X143210000Y-131394000D01*
X143230000Y-131314000D01*
X143260000Y-131224000D01*
X143310000Y-131124000D01*
X143375000Y-131029000D01*
X143485000Y-131144000D01*
G36*
X143485000Y-131144000D02*
G01*
X143583828Y-131241334D01*
X143548463Y-131309391D01*
X143505000Y-131409000D01*
X143490000Y-131529000D01*
X143486397Y-131529000D01*
X143490000Y-131539000D01*
X143505000Y-131644000D01*
X143500000Y-131654000D01*
X143505000Y-131654000D01*
X143545000Y-131764000D01*
X143580000Y-131819000D01*
X143480000Y-131919000D01*
X143369691Y-132033766D01*
X143305000Y-131934000D01*
X143260000Y-131844000D01*
X143213797Y-131694191D01*
X143200000Y-131534000D01*
X143210000Y-131394000D01*
X143230000Y-131314000D01*
X143260000Y-131224000D01*
X143310000Y-131124000D01*
X143375000Y-131029000D01*
X143485000Y-131144000D01*
G37*
D11*
X143110000Y-129460000D03*
X143110000Y-130282000D03*
X144910000Y-130282000D03*
X144910000Y-129460000D03*
X144010000Y-129460000D03*
D12*
X142167500Y-127762000D03*
X143892500Y-127762000D03*
D13*
X145542000Y-127754500D03*
X145542000Y-125929500D03*
D12*
X142167500Y-126238000D03*
X143892500Y-126238000D03*
D14*
X146110000Y-51534000D03*
X144010000Y-51534000D03*
X141910000Y-51534000D03*
M02*
