G04 #@! TF.GenerationSoftware,KiCad,Pcbnew,7.0.1-3b83917a11~172~ubuntu22.04.1*
G04 #@! TF.CreationDate,2023-04-18T10:06:07+02:00*
G04 #@! TF.ProjectId,part3,70617274-332e-46b6-9963-61645f706362,rev?*
G04 #@! TF.SameCoordinates,Original*
G04 #@! TF.FileFunction,Legend,Bot*
G04 #@! TF.FilePolarity,Positive*
%FSLAX46Y46*%
G04 Gerber Fmt 4.6, Leading zero omitted, Abs format (unit mm)*
G04 Created by KiCad (PCBNEW 7.0.1-3b83917a11~172~ubuntu22.04.1) date 2023-04-18 10:06:07*
%MOMM*%
%LPD*%
G01*
G04 APERTURE LIST*
%ADD10C,0.150000*%
%ADD11C,0.500000*%
%ADD12R,2.400000X4.000000*%
G04 APERTURE END LIST*
D10*
X142798761Y-55880095D02*
X142846380Y-55975333D01*
X142846380Y-55975333D02*
X142846380Y-56118190D01*
X142846380Y-56118190D02*
X142798761Y-56261047D01*
X142798761Y-56261047D02*
X142703523Y-56356285D01*
X142703523Y-56356285D02*
X142608285Y-56403904D01*
X142608285Y-56403904D02*
X142417809Y-56451523D01*
X142417809Y-56451523D02*
X142274952Y-56451523D01*
X142274952Y-56451523D02*
X142084476Y-56403904D01*
X142084476Y-56403904D02*
X141989238Y-56356285D01*
X141989238Y-56356285D02*
X141894000Y-56261047D01*
X141894000Y-56261047D02*
X141846380Y-56118190D01*
X141846380Y-56118190D02*
X141846380Y-56022952D01*
X141846380Y-56022952D02*
X141894000Y-55880095D01*
X141894000Y-55880095D02*
X141941619Y-55832476D01*
X141941619Y-55832476D02*
X142274952Y-55832476D01*
X142274952Y-55832476D02*
X142274952Y-56022952D01*
X141846380Y-55403904D02*
X142846380Y-55403904D01*
X142846380Y-55403904D02*
X141846380Y-54832476D01*
X141846380Y-54832476D02*
X142846380Y-54832476D01*
X141846380Y-54356285D02*
X142846380Y-54356285D01*
X142846380Y-54356285D02*
X142846380Y-54118190D01*
X142846380Y-54118190D02*
X142798761Y-53975333D01*
X142798761Y-53975333D02*
X142703523Y-53880095D01*
X142703523Y-53880095D02*
X142608285Y-53832476D01*
X142608285Y-53832476D02*
X142417809Y-53784857D01*
X142417809Y-53784857D02*
X142274952Y-53784857D01*
X142274952Y-53784857D02*
X142084476Y-53832476D01*
X142084476Y-53832476D02*
X141989238Y-53880095D01*
X141989238Y-53880095D02*
X141894000Y-53975333D01*
X141894000Y-53975333D02*
X141846380Y-54118190D01*
X141846380Y-54118190D02*
X141846380Y-54356285D01*
X146156380Y-56213428D02*
X146156380Y-55594381D01*
X146156380Y-55594381D02*
X145775428Y-55927714D01*
X145775428Y-55927714D02*
X145775428Y-55784857D01*
X145775428Y-55784857D02*
X145727809Y-55689619D01*
X145727809Y-55689619D02*
X145680190Y-55642000D01*
X145680190Y-55642000D02*
X145584952Y-55594381D01*
X145584952Y-55594381D02*
X145346857Y-55594381D01*
X145346857Y-55594381D02*
X145251619Y-55642000D01*
X145251619Y-55642000D02*
X145204000Y-55689619D01*
X145204000Y-55689619D02*
X145156380Y-55784857D01*
X145156380Y-55784857D02*
X145156380Y-56070571D01*
X145156380Y-56070571D02*
X145204000Y-56165809D01*
X145204000Y-56165809D02*
X145251619Y-56213428D01*
X146156380Y-55308666D02*
X145156380Y-54975333D01*
X145156380Y-54975333D02*
X146156380Y-54642000D01*
X146156380Y-54403904D02*
X146156380Y-53784857D01*
X146156380Y-53784857D02*
X145775428Y-54118190D01*
X145775428Y-54118190D02*
X145775428Y-53975333D01*
X145775428Y-53975333D02*
X145727809Y-53880095D01*
X145727809Y-53880095D02*
X145680190Y-53832476D01*
X145680190Y-53832476D02*
X145584952Y-53784857D01*
X145584952Y-53784857D02*
X145346857Y-53784857D01*
X145346857Y-53784857D02*
X145251619Y-53832476D01*
X145251619Y-53832476D02*
X145204000Y-53880095D01*
X145204000Y-53880095D02*
X145156380Y-53975333D01*
X145156380Y-53975333D02*
X145156380Y-54261047D01*
X145156380Y-54261047D02*
X145204000Y-54356285D01*
X145204000Y-54356285D02*
X145251619Y-54403904D01*
G36*
X143934560Y-131378255D02*
G01*
X143932747Y-131380068D01*
X143930934Y-131378255D01*
X143932747Y-131376442D01*
X143934560Y-131378255D01*
G37*
G36*
X145202264Y-130206626D02*
G01*
X145202831Y-130207716D01*
X145199847Y-130209043D01*
X145197927Y-130208781D01*
X145197430Y-130206626D01*
X145197961Y-130206192D01*
X145202264Y-130206626D01*
G37*
G36*
X145381441Y-130194282D02*
G01*
X145415785Y-130197032D01*
X145445793Y-130201133D01*
X145450183Y-130201915D01*
X145517839Y-130216252D01*
X145588709Y-130235241D01*
X145661157Y-130258287D01*
X145733547Y-130284791D01*
X145804242Y-130314158D01*
X145871606Y-130345791D01*
X145934003Y-130379094D01*
X145967448Y-130398770D01*
X146054870Y-130455836D01*
X146137371Y-130518205D01*
X146214844Y-130585767D01*
X146287185Y-130658411D01*
X146354288Y-130736025D01*
X146416047Y-130818499D01*
X146472356Y-130905721D01*
X146523109Y-130997581D01*
X146540683Y-131033320D01*
X146580985Y-131126584D01*
X146614876Y-131222814D01*
X146642271Y-131321553D01*
X146663086Y-131422344D01*
X146677236Y-131524728D01*
X146684636Y-131628250D01*
X146685201Y-131732452D01*
X146678846Y-131836876D01*
X146667256Y-131925606D01*
X146648166Y-132019309D01*
X146622051Y-132113572D01*
X146588996Y-132208196D01*
X146549083Y-132302984D01*
X146502397Y-132397736D01*
X146449021Y-132492254D01*
X146389040Y-132586340D01*
X146322537Y-132679796D01*
X146301815Y-132707007D01*
X146246726Y-132775563D01*
X146188037Y-132843646D01*
X146126550Y-132910482D01*
X146063064Y-132975291D01*
X145998380Y-133037299D01*
X145933298Y-133095726D01*
X145868618Y-133149798D01*
X145805140Y-133198736D01*
X145743666Y-133241764D01*
X145688793Y-133276511D01*
X145601958Y-133326049D01*
X145510261Y-133372375D01*
X145414890Y-133415000D01*
X145317030Y-133453437D01*
X145217869Y-133487201D01*
X145118592Y-133515803D01*
X145020386Y-133538756D01*
X144988677Y-133545015D01*
X144866464Y-133564553D01*
X144743762Y-133577018D01*
X144620889Y-133582496D01*
X144498167Y-133581067D01*
X144375916Y-133572815D01*
X144254456Y-133557824D01*
X144134108Y-133536175D01*
X144015191Y-133507952D01*
X143898026Y-133473239D01*
X143782934Y-133432117D01*
X143670234Y-133384669D01*
X143560247Y-133330979D01*
X143453293Y-133271130D01*
X143349693Y-133205205D01*
X143249766Y-133133285D01*
X143153834Y-133055456D01*
X143141033Y-133044412D01*
X143098834Y-133007693D01*
X143052446Y-132966913D01*
X143002661Y-132922787D01*
X142950273Y-132876028D01*
X142896075Y-132827351D01*
X142840860Y-132777468D01*
X142785423Y-132727094D01*
X142730555Y-132676943D01*
X142677050Y-132627729D01*
X142625701Y-132580165D01*
X142598947Y-132555334D01*
X142562109Y-132521346D01*
X142529300Y-132491372D01*
X142499813Y-132464786D01*
X142472940Y-132440962D01*
X142447972Y-132419274D01*
X142424202Y-132399096D01*
X142400922Y-132379804D01*
X142377423Y-132360772D01*
X142374771Y-132358649D01*
X142356722Y-132344322D01*
X142339403Y-132330852D01*
X142322131Y-132317761D01*
X142304224Y-132304571D01*
X142284999Y-132290805D01*
X142263771Y-132275985D01*
X142239859Y-132259634D01*
X142212579Y-132241273D01*
X142181247Y-132220425D01*
X142145182Y-132196613D01*
X142103700Y-132169359D01*
X142092768Y-132162182D01*
X142021148Y-132114804D01*
X141955417Y-132070621D01*
X141895198Y-132029324D01*
X141840113Y-131990603D01*
X141789784Y-131954149D01*
X141743833Y-131919653D01*
X141701882Y-131886804D01*
X141663553Y-131855293D01*
X141628468Y-131824812D01*
X141596250Y-131795049D01*
X141566521Y-131765696D01*
X141538902Y-131736443D01*
X141513016Y-131706982D01*
X141488484Y-131677001D01*
X141464930Y-131646192D01*
X141429972Y-131594906D01*
X141392304Y-131528003D01*
X141360235Y-131456518D01*
X141333773Y-131380475D01*
X141312927Y-131299896D01*
X141297704Y-131214805D01*
X141288111Y-131125224D01*
X141286300Y-131089087D01*
X141285840Y-131044656D01*
X141286920Y-130997711D01*
X141289435Y-130950190D01*
X141293280Y-130904031D01*
X141298347Y-130861175D01*
X141304534Y-130823559D01*
X141304915Y-130821615D01*
X141320423Y-130754479D01*
X141339801Y-130690055D01*
X141362657Y-130629384D01*
X141388602Y-130573505D01*
X141417244Y-130523461D01*
X141420319Y-130518679D01*
X141449797Y-130476584D01*
X141479729Y-130440960D01*
X141510923Y-130411114D01*
X141544188Y-130386354D01*
X141580331Y-130365984D01*
X141620161Y-130349311D01*
X141622077Y-130348629D01*
X141640839Y-130342457D01*
X141660033Y-130337214D01*
X141680510Y-130332796D01*
X141703122Y-130329098D01*
X141728723Y-130326016D01*
X141758165Y-130323446D01*
X141792299Y-130321283D01*
X141831979Y-130319424D01*
X141878057Y-130317763D01*
X141912016Y-130316555D01*
X141950848Y-130314772D01*
X141984152Y-130312664D01*
X142012902Y-130310126D01*
X142038075Y-130307052D01*
X142060646Y-130303336D01*
X142081592Y-130298874D01*
X142101888Y-130293559D01*
X142102832Y-130293738D01*
X142100088Y-130296918D01*
X142092832Y-130302988D01*
X142081948Y-130311167D01*
X142079416Y-130313004D01*
X142062419Y-130325554D01*
X142043944Y-130339470D01*
X142027566Y-130352063D01*
X142011728Y-130363731D01*
X141994268Y-130374785D01*
X141975566Y-130384522D01*
X141954629Y-130393310D01*
X141930465Y-130401523D01*
X141902084Y-130409529D01*
X141868492Y-130417701D01*
X141828698Y-130426409D01*
X141818545Y-130428578D01*
X141775518Y-130438692D01*
X141738568Y-130449180D01*
X141706731Y-130460468D01*
X141679042Y-130472978D01*
X141654537Y-130487136D01*
X141632252Y-130503366D01*
X141611221Y-130522092D01*
X141599643Y-130533881D01*
X141582235Y-130554309D01*
X141566618Y-130576662D01*
X141552360Y-130601822D01*
X141539030Y-130630668D01*
X141526194Y-130664080D01*
X141513422Y-130702939D01*
X141500280Y-130748124D01*
X141490893Y-130783504D01*
X141468752Y-130884185D01*
X141453731Y-130983604D01*
X141445823Y-131081811D01*
X141445023Y-131178854D01*
X141448718Y-131247758D01*
X141457557Y-131325034D01*
X141471326Y-131397339D01*
X141490136Y-131464961D01*
X141514100Y-131528188D01*
X141543328Y-131587308D01*
X141577933Y-131642608D01*
X141618026Y-131694377D01*
X141663718Y-131742902D01*
X141673229Y-131751958D01*
X141705893Y-131780599D01*
X141739402Y-131805912D01*
X141774672Y-131828347D01*
X141812616Y-131848355D01*
X141854150Y-131866385D01*
X141900189Y-131882889D01*
X141951647Y-131898317D01*
X142009438Y-131913119D01*
X142016560Y-131914823D01*
X142066447Y-131926897D01*
X142110047Y-131937773D01*
X142148073Y-131947705D01*
X142181242Y-131956945D01*
X142210267Y-131965747D01*
X142235864Y-131974363D01*
X142258748Y-131983047D01*
X142279633Y-131992051D01*
X142299234Y-132001629D01*
X142318266Y-132012034D01*
X142337444Y-132023519D01*
X142357483Y-132036337D01*
X142385441Y-132055444D01*
X142416936Y-132079140D01*
X142448476Y-132105404D01*
X142481415Y-132135374D01*
X142517108Y-132170183D01*
X142518590Y-132171670D01*
X142539155Y-132192565D01*
X142558257Y-132212578D01*
X142576609Y-132232552D01*
X142594929Y-132253330D01*
X142613931Y-132275757D01*
X142634332Y-132300677D01*
X142656847Y-132328932D01*
X142682192Y-132361366D01*
X142711083Y-132398823D01*
X142727492Y-132420133D01*
X142794568Y-132505831D01*
X142858810Y-132585507D01*
X142920565Y-132659528D01*
X142980180Y-132728260D01*
X143038000Y-132792070D01*
X143094372Y-132851324D01*
X143149643Y-132906389D01*
X143204160Y-132957631D01*
X143258269Y-133005417D01*
X143312316Y-133050113D01*
X143366648Y-133092085D01*
X143401871Y-133117824D01*
X143436320Y-133141745D01*
X143470766Y-133164243D01*
X143506556Y-133186140D01*
X143545037Y-133208262D01*
X143587556Y-133231431D01*
X143635459Y-133256471D01*
X143663754Y-133270846D01*
X143767575Y-133320456D01*
X143868899Y-133363772D01*
X143968265Y-133400971D01*
X144066212Y-133432228D01*
X144163278Y-133457721D01*
X144260004Y-133477624D01*
X144356926Y-133492114D01*
X144369262Y-133493517D01*
X144416390Y-133497400D01*
X144468306Y-133499699D01*
X144523236Y-133500432D01*
X144579405Y-133499618D01*
X144635038Y-133497276D01*
X144688362Y-133493425D01*
X144737600Y-133488083D01*
X144816730Y-133475960D01*
X144928234Y-133452876D01*
X145039477Y-133422959D01*
X145149993Y-133386443D01*
X145259312Y-133343559D01*
X145366966Y-133294540D01*
X145472488Y-133239620D01*
X145575408Y-133179030D01*
X145675259Y-133113004D01*
X145771573Y-133041775D01*
X145863880Y-132965574D01*
X145951714Y-132884635D01*
X145982411Y-132854270D01*
X146039111Y-132795240D01*
X146090918Y-132736867D01*
X146139005Y-132677673D01*
X146184544Y-132616182D01*
X146228709Y-132550915D01*
X146272674Y-132480396D01*
X146278877Y-132470024D01*
X146332377Y-132375742D01*
X146379537Y-132283179D01*
X146420719Y-132191477D01*
X146456285Y-132099776D01*
X146486597Y-132007220D01*
X146512017Y-131912948D01*
X146516246Y-131895083D01*
X146536158Y-131796202D01*
X146549889Y-131698680D01*
X146557415Y-131602965D01*
X146558712Y-131509503D01*
X146553759Y-131418741D01*
X146542530Y-131331124D01*
X146542153Y-131328884D01*
X146525888Y-131248526D01*
X146504576Y-131168956D01*
X146478593Y-131091038D01*
X146448317Y-131015636D01*
X146414125Y-130943616D01*
X146376395Y-130875841D01*
X146335503Y-130813177D01*
X146291827Y-130756488D01*
X146273826Y-130735782D01*
X146241659Y-130701195D01*
X146205290Y-130664479D01*
X146165879Y-130626712D01*
X146124588Y-130588970D01*
X146082576Y-130552331D01*
X146041004Y-130517870D01*
X146001034Y-130486666D01*
X145990976Y-130479142D01*
X145909651Y-130422141D01*
X145827612Y-130371362D01*
X145745231Y-130326994D01*
X145662879Y-130289222D01*
X145580930Y-130258235D01*
X145499755Y-130234221D01*
X145489444Y-130231635D01*
X145455237Y-130223638D01*
X145424067Y-130217494D01*
X145393880Y-130212927D01*
X145362621Y-130209663D01*
X145328236Y-130207426D01*
X145288670Y-130205942D01*
X145205285Y-130203605D01*
X145239727Y-130198166D01*
X145244716Y-130197426D01*
X145274397Y-130194456D01*
X145308545Y-130192962D01*
X145344960Y-130192915D01*
X145381441Y-130194282D01*
G37*
G36*
X143004015Y-130438006D02*
G01*
X143042693Y-130445762D01*
X143078200Y-130460012D01*
X143110610Y-130480796D01*
X143139999Y-130508157D01*
X143166440Y-130542134D01*
X143168995Y-130546106D01*
X143177111Y-130559865D01*
X143187268Y-130578225D01*
X143198718Y-130599793D01*
X143210719Y-130623177D01*
X143222525Y-130646985D01*
X143224984Y-130652029D01*
X143241481Y-130685263D01*
X143255812Y-130712811D01*
X143268522Y-130735562D01*
X143280154Y-130754405D01*
X143291252Y-130770228D01*
X143302360Y-130783918D01*
X143314023Y-130796365D01*
X143316184Y-130798480D01*
X143340894Y-130817923D01*
X143369658Y-130833489D01*
X143399918Y-130843766D01*
X143414212Y-130846263D01*
X143438721Y-130847944D01*
X143465013Y-130847400D01*
X143490165Y-130844729D01*
X143511251Y-130840031D01*
X143516858Y-130838199D01*
X143535201Y-130830888D01*
X143551724Y-130821699D01*
X143567493Y-130809739D01*
X143583577Y-130794115D01*
X143601042Y-130773936D01*
X143620957Y-130748308D01*
X143631916Y-130733875D01*
X143645796Y-130716045D01*
X143658591Y-130700078D01*
X143669232Y-130687302D01*
X143676652Y-130679045D01*
X143677875Y-130677813D01*
X143699694Y-130659939D01*
X143723157Y-130647664D01*
X143746812Y-130641760D01*
X143765976Y-130639732D01*
X143742410Y-130653698D01*
X143728900Y-130662250D01*
X143709505Y-130677125D01*
X143691968Y-130694472D01*
X143675328Y-130715417D01*
X143658625Y-130741084D01*
X143640897Y-130772600D01*
X143621104Y-130808743D01*
X143600642Y-130843505D01*
X143581622Y-130872640D01*
X143563555Y-130896797D01*
X143545951Y-130916625D01*
X143528321Y-130932773D01*
X143510174Y-130945891D01*
X143493924Y-130955376D01*
X143475240Y-130963149D01*
X143455765Y-130967030D01*
X143432433Y-130967885D01*
X143418988Y-130967208D01*
X143382893Y-130960513D01*
X143347906Y-130946914D01*
X143314571Y-130926658D01*
X143283426Y-130899990D01*
X143274204Y-130890372D01*
X143263612Y-130877714D01*
X143254275Y-130864068D01*
X143245706Y-130848423D01*
X143237422Y-130829767D01*
X143228936Y-130807088D01*
X143219764Y-130779373D01*
X143209420Y-130745611D01*
X143196905Y-130705707D01*
X143184352Y-130670428D01*
X143171925Y-130641008D01*
X143159220Y-130616770D01*
X143145830Y-130597032D01*
X143131349Y-130581114D01*
X143115371Y-130568337D01*
X143097492Y-130558020D01*
X143095105Y-130556862D01*
X143084261Y-130552264D01*
X143073937Y-130549583D01*
X143061548Y-130548333D01*
X143044508Y-130548026D01*
X143027072Y-130548379D01*
X143014222Y-130549747D01*
X143003382Y-130552595D01*
X142991939Y-130557388D01*
X142989763Y-130558430D01*
X142961133Y-130576135D01*
X142934316Y-130599842D01*
X142909863Y-130628489D01*
X142888324Y-130661009D01*
X142870250Y-130696339D01*
X142856190Y-130733412D01*
X142846695Y-130771166D01*
X142842315Y-130808534D01*
X142843600Y-130844453D01*
X142846799Y-130863786D01*
X142856359Y-130894871D01*
X142870914Y-130920922D01*
X142890673Y-130942269D01*
X142915840Y-130959240D01*
X142927283Y-130964470D01*
X142947627Y-130971721D01*
X142974766Y-130979770D01*
X143008899Y-130988678D01*
X143026629Y-130993190D01*
X143058518Y-131002128D01*
X143085271Y-131011082D01*
X143108272Y-131020666D01*
X143128909Y-131031492D01*
X143148568Y-131044173D01*
X143168636Y-131059323D01*
X143201460Y-131089091D01*
X143234700Y-131127935D01*
X143262956Y-131171137D01*
X143285612Y-131217738D01*
X143302050Y-131266780D01*
X143303102Y-131270857D01*
X143307091Y-131288139D01*
X143310442Y-131306325D01*
X143313236Y-131326322D01*
X143315556Y-131349037D01*
X143317482Y-131375376D01*
X143319096Y-131406247D01*
X143320481Y-131442554D01*
X143321717Y-131485206D01*
X143322534Y-131514487D01*
X143323930Y-131554345D01*
X143325569Y-131588447D01*
X143327543Y-131617702D01*
X143329942Y-131643015D01*
X143332859Y-131665295D01*
X143336383Y-131685449D01*
X143340607Y-131704385D01*
X143345621Y-131723010D01*
X143347286Y-131728641D01*
X143366915Y-131782662D01*
X143391795Y-131832197D01*
X143421685Y-131876756D01*
X143421731Y-131876816D01*
X143435576Y-131893154D01*
X143453278Y-131911735D01*
X143472803Y-131930594D01*
X143492117Y-131947766D01*
X143509186Y-131961286D01*
X143519484Y-131968265D01*
X143542436Y-131981802D01*
X143568346Y-131995124D01*
X143594581Y-132006919D01*
X143618509Y-132015872D01*
X143627330Y-132018644D01*
X143687136Y-132033119D01*
X143748446Y-132040701D01*
X143810902Y-132041477D01*
X143874143Y-132035533D01*
X143937812Y-132022956D01*
X144001547Y-132003832D01*
X144064990Y-131978248D01*
X144127782Y-131946291D01*
X144189564Y-131908048D01*
X144249975Y-131863604D01*
X144262730Y-131853017D01*
X144285368Y-131832784D01*
X144310054Y-131809326D01*
X144335298Y-131784141D01*
X144359607Y-131758731D01*
X144381490Y-131734595D01*
X144399456Y-131713233D01*
X144403389Y-131708261D01*
X144445934Y-131649639D01*
X144484083Y-131587981D01*
X144517434Y-131524207D01*
X144545583Y-131459239D01*
X144568130Y-131393997D01*
X144584670Y-131329401D01*
X144594803Y-131266373D01*
X144595254Y-131262058D01*
X144597064Y-131219260D01*
X144593599Y-131181298D01*
X144584987Y-131148296D01*
X144571354Y-131120381D01*
X144552830Y-131097676D01*
X144529540Y-131080308D01*
X144501613Y-131068400D01*
X144469176Y-131062079D01*
X144432357Y-131061470D01*
X144391283Y-131066697D01*
X144351538Y-131076369D01*
X144303991Y-131092695D01*
X144254850Y-131114059D01*
X144205167Y-131139784D01*
X144155991Y-131169195D01*
X144108375Y-131201614D01*
X144063368Y-131236365D01*
X144022022Y-131272771D01*
X143985389Y-131310157D01*
X143954517Y-131347845D01*
X143949342Y-131354875D01*
X143941266Y-131365668D01*
X143936926Y-131370968D01*
X143935971Y-131371035D01*
X143938052Y-131366126D01*
X143942819Y-131356502D01*
X143944296Y-131353605D01*
X143963080Y-131320953D01*
X143986485Y-131286283D01*
X144013174Y-131251356D01*
X144041808Y-131217933D01*
X144071049Y-131187774D01*
X144082540Y-131176950D01*
X144110123Y-131152144D01*
X144141831Y-131124882D01*
X144176366Y-131096204D01*
X144212432Y-131067145D01*
X144248731Y-131038745D01*
X144283965Y-131012039D01*
X144316838Y-130988067D01*
X144346050Y-130967865D01*
X144372933Y-130950376D01*
X144456770Y-130901053D01*
X144543858Y-130857289D01*
X144633461Y-130819349D01*
X144724840Y-130787500D01*
X144817258Y-130762008D01*
X144909977Y-130743139D01*
X145002259Y-130731159D01*
X145004334Y-130730971D01*
X145052130Y-130728044D01*
X145103586Y-130727272D01*
X145156559Y-130728565D01*
X145208909Y-130731831D01*
X145258494Y-130736979D01*
X145303172Y-130743920D01*
X145357035Y-130755787D01*
X145432325Y-130778566D01*
X145504838Y-130808039D01*
X145574566Y-130844202D01*
X145641500Y-130887047D01*
X145705632Y-130936570D01*
X145766952Y-130992764D01*
X145825452Y-131055625D01*
X145881123Y-131125146D01*
X145893661Y-131142328D01*
X145939831Y-131212723D01*
X145979012Y-131284880D01*
X146011178Y-131358666D01*
X146036303Y-131433947D01*
X146054358Y-131510587D01*
X146065318Y-131588453D01*
X146069155Y-131667409D01*
X146065843Y-131747323D01*
X146055355Y-131828059D01*
X146037664Y-131909483D01*
X146019489Y-131971314D01*
X145989352Y-132052688D01*
X145952505Y-132133343D01*
X145909255Y-132212801D01*
X145859909Y-132290588D01*
X145804774Y-132366227D01*
X145744159Y-132439243D01*
X145678368Y-132509160D01*
X145607711Y-132575502D01*
X145595773Y-132585936D01*
X145513521Y-132652665D01*
X145428524Y-132712837D01*
X145340923Y-132766373D01*
X145250857Y-132813192D01*
X145158467Y-132853215D01*
X145063892Y-132886361D01*
X145016286Y-132900555D01*
X144911945Y-132927960D01*
X144802552Y-132951928D01*
X144689115Y-132972247D01*
X144572641Y-132988707D01*
X144559874Y-132990070D01*
X144531874Y-132992156D01*
X144498760Y-132993746D01*
X144461899Y-132994842D01*
X144422657Y-132995443D01*
X144382400Y-132995550D01*
X144342495Y-132995163D01*
X144304309Y-132994281D01*
X144269206Y-132992905D01*
X144238555Y-132991036D01*
X144213720Y-132988672D01*
X144149618Y-132979807D01*
X144039620Y-132959327D01*
X143933332Y-132932626D01*
X143830710Y-132899686D01*
X143731713Y-132860486D01*
X143636298Y-132815009D01*
X143544422Y-132763234D01*
X143456043Y-132705143D01*
X143371118Y-132640715D01*
X143289605Y-132569933D01*
X143263106Y-132544730D01*
X143237599Y-132519029D01*
X143212461Y-132492083D01*
X143186995Y-132463072D01*
X143160501Y-132431178D01*
X143132280Y-132395581D01*
X143101634Y-132355461D01*
X143067864Y-132309999D01*
X143062188Y-132302284D01*
X143041736Y-132274690D01*
X143024139Y-132251376D01*
X143008352Y-132231013D01*
X142993333Y-132212271D01*
X142978040Y-132193821D01*
X142961430Y-132174335D01*
X142961164Y-132174005D01*
X142962596Y-132174773D01*
X142968720Y-132179788D01*
X142978939Y-132188534D01*
X142992655Y-132200496D01*
X143009272Y-132215158D01*
X143028194Y-132232005D01*
X143031935Y-132235349D01*
X143101511Y-132296932D01*
X143166723Y-132353448D01*
X143228011Y-132405224D01*
X143285818Y-132452587D01*
X143340583Y-132495862D01*
X143392748Y-132535376D01*
X143442753Y-132571456D01*
X143491039Y-132604428D01*
X143538046Y-132634619D01*
X143584216Y-132662356D01*
X143629989Y-132687964D01*
X143675807Y-132711771D01*
X143690983Y-132719281D01*
X143764822Y-132753159D01*
X143837081Y-132781597D01*
X143909396Y-132805079D01*
X143983401Y-132824091D01*
X144060732Y-132839120D01*
X144143024Y-132850652D01*
X144149165Y-132851324D01*
X144178162Y-132853678D01*
X144212510Y-132855422D01*
X144250706Y-132856558D01*
X144291244Y-132857086D01*
X144332621Y-132857006D01*
X144373332Y-132856317D01*
X144411874Y-132855021D01*
X144446742Y-132853117D01*
X144476433Y-132850606D01*
X144584681Y-132836858D01*
X144705167Y-132815872D01*
X144821730Y-132789351D01*
X144934195Y-132757356D01*
X145042386Y-132719949D01*
X145146129Y-132677190D01*
X145245249Y-132629142D01*
X145339571Y-132575865D01*
X145428921Y-132517420D01*
X145448723Y-132503283D01*
X145524654Y-132444591D01*
X145594237Y-132383290D01*
X145657389Y-132319499D01*
X145714030Y-132253339D01*
X145764075Y-132184929D01*
X145807445Y-132114388D01*
X145844056Y-132041837D01*
X145873826Y-131967393D01*
X145896673Y-131891178D01*
X145912515Y-131813311D01*
X145912910Y-131810708D01*
X145915883Y-131785286D01*
X145918190Y-131754980D01*
X145919779Y-131721801D01*
X145920599Y-131687762D01*
X145920599Y-131654874D01*
X145919727Y-131625148D01*
X145917933Y-131600596D01*
X145912358Y-131559465D01*
X145897089Y-131488676D01*
X145874972Y-131419789D01*
X145846210Y-131353312D01*
X145811006Y-131289751D01*
X145769561Y-131229611D01*
X145767819Y-131227357D01*
X145752352Y-131208824D01*
X145733100Y-131187657D01*
X145711711Y-131165524D01*
X145689835Y-131144090D01*
X145669120Y-131125024D01*
X145651217Y-131109992D01*
X145634834Y-131097540D01*
X145578515Y-131059919D01*
X145520669Y-131029230D01*
X145460901Y-131005281D01*
X145398814Y-130987880D01*
X145376340Y-130983942D01*
X145347374Y-130980906D01*
X145315743Y-130979215D01*
X145283401Y-130978888D01*
X145252303Y-130979940D01*
X145224404Y-130982386D01*
X145201659Y-130986244D01*
X145196448Y-130987487D01*
X145142172Y-131003435D01*
X145092284Y-131024100D01*
X145045632Y-131050114D01*
X145001069Y-131082111D01*
X144957445Y-131120724D01*
X144952258Y-131125784D01*
X144927855Y-131150793D01*
X144904762Y-131176707D01*
X144882613Y-131204122D01*
X144861045Y-131233634D01*
X144839694Y-131265840D01*
X144818195Y-131301335D01*
X144796184Y-131340715D01*
X144773296Y-131384577D01*
X144749169Y-131433516D01*
X144723437Y-131488128D01*
X144695736Y-131549009D01*
X144681933Y-131579630D01*
X144657152Y-131633698D01*
X144634402Y-131681947D01*
X144613334Y-131725015D01*
X144593598Y-131763536D01*
X144574845Y-131798146D01*
X144556725Y-131829480D01*
X144538890Y-131858173D01*
X144520989Y-131884861D01*
X144502673Y-131910180D01*
X144483592Y-131934764D01*
X144475178Y-131945047D01*
X144429416Y-131994815D01*
X144377755Y-132041865D01*
X144321108Y-132085541D01*
X144260382Y-132125185D01*
X144196488Y-132160143D01*
X144130335Y-132189756D01*
X144087562Y-132205713D01*
X144017222Y-132227110D01*
X143947978Y-132242187D01*
X143880138Y-132250983D01*
X143814010Y-132253538D01*
X143749901Y-132249890D01*
X143688121Y-132240079D01*
X143628976Y-132224144D01*
X143572774Y-132202125D01*
X143519824Y-132174059D01*
X143470434Y-132139988D01*
X143424912Y-132099949D01*
X143409795Y-132084500D01*
X143372948Y-132041746D01*
X143340390Y-131995651D01*
X143311310Y-131944993D01*
X143284899Y-131888549D01*
X143275107Y-131864497D01*
X143260872Y-131824952D01*
X143248677Y-131784321D01*
X143238368Y-131741731D01*
X143229786Y-131696310D01*
X143222776Y-131647188D01*
X143217182Y-131593492D01*
X143212847Y-131534350D01*
X143209614Y-131468891D01*
X143209468Y-131465244D01*
X143207194Y-131418832D01*
X143204328Y-131378684D01*
X143200708Y-131343893D01*
X143196177Y-131313549D01*
X143190574Y-131286746D01*
X143183742Y-131262574D01*
X143175520Y-131240125D01*
X143165750Y-131218493D01*
X143160084Y-131207523D01*
X143148654Y-131188547D01*
X143135571Y-131171128D01*
X143120183Y-131154777D01*
X143101839Y-131139008D01*
X143079889Y-131123333D01*
X143053680Y-131107265D01*
X143022563Y-131090318D01*
X142985885Y-131072004D01*
X142942995Y-131051836D01*
X142934075Y-131047726D01*
X142903872Y-131033660D01*
X142878893Y-131021708D01*
X142857999Y-131011274D01*
X142840055Y-131001758D01*
X142823921Y-130992562D01*
X142808462Y-130983090D01*
X142792539Y-130972742D01*
X142766234Y-130953221D01*
X142737283Y-130925690D01*
X142713861Y-130895802D01*
X142696541Y-130864317D01*
X142685898Y-130831991D01*
X142683743Y-130819457D01*
X142681535Y-130795937D01*
X142680643Y-130769341D01*
X142681070Y-130742119D01*
X142682814Y-130716725D01*
X142685878Y-130695608D01*
X142691151Y-130673744D01*
X142707000Y-130629151D01*
X142728768Y-130587306D01*
X142755864Y-130548982D01*
X142787701Y-130514951D01*
X142823687Y-130485988D01*
X142863235Y-130462865D01*
X142882146Y-130454317D01*
X142911928Y-130444021D01*
X142941555Y-130438277D01*
X142973812Y-130436421D01*
X143004015Y-130438006D01*
G37*
%LPC*%
D11*
X144010000Y-131534000D03*
D12*
X145810000Y-51534000D03*
X142210000Y-51534000D03*
M02*
