%TF.GenerationSoftware,KiCad,Pcbnew,7.0.1-3b83917a11~172~ubuntu22.04.1*%
%TF.CreationDate,2023-04-18T10:06:11+02:00*%
%TF.ProjectId,part3,70617274-332e-46b6-9963-61645f706362,rev?*%
%TF.SameCoordinates,Original*%
%TF.FileFunction,Drillmap*%
%TF.FilePolarity,Positive*%
%FSLAX45Y45*%
G04 Gerber Fmt 4.5, Leading zero omitted, Abs format (unit mm)*
G04 Created by KiCad (PCBNEW 7.0.1-3b83917a11~172~ubuntu22.04.1) date 2023-04-18 10:06:11*
%MOMM*%
%LPD*%
G01*
G04 APERTURE LIST*
%ADD10C,0.100000*%
%ADD11C,0.200000*%
%ADD12C,0.050000*%
G04 APERTURE END LIST*
D10*
X14701000Y-13153400D02*
X14701000Y-4953400D01*
X14101000Y-13153400D02*
G75*
G03*
X14701000Y-13153400I300000J0D01*
G01*
X14101000Y-13153400D02*
X14101000Y-4953400D01*
X14101000Y-4953400D02*
X14701000Y-4953400D01*
X14601000Y-6453400D02*
G75*
G03*
X14601000Y-6453400I-200000J0D01*
G01*
X14601000Y-11953400D02*
G75*
G03*
X14601000Y-11953400I-200000J0D01*
G01*
D11*
D12*
X14376000Y-13128400D02*
X14426000Y-13178400D01*
X14426000Y-13128400D02*
X14376000Y-13178400D01*
D11*
X14343619Y-13770924D02*
X14343619Y-13570924D01*
X14343619Y-13570924D02*
X14391238Y-13570924D01*
X14391238Y-13570924D02*
X14419809Y-13580448D01*
X14419809Y-13580448D02*
X14438857Y-13599495D01*
X14438857Y-13599495D02*
X14448381Y-13618543D01*
X14448381Y-13618543D02*
X14457905Y-13656638D01*
X14457905Y-13656638D02*
X14457905Y-13685209D01*
X14457905Y-13685209D02*
X14448381Y-13723305D01*
X14448381Y-13723305D02*
X14438857Y-13742352D01*
X14438857Y-13742352D02*
X14419809Y-13761400D01*
X14419809Y-13761400D02*
X14391238Y-13770924D01*
X14391238Y-13770924D02*
X14343619Y-13770924D01*
X14543619Y-13770924D02*
X14543619Y-13637590D01*
X14543619Y-13675686D02*
X14553143Y-13656638D01*
X14553143Y-13656638D02*
X14562667Y-13647114D01*
X14562667Y-13647114D02*
X14581714Y-13637590D01*
X14581714Y-13637590D02*
X14600762Y-13637590D01*
X14667428Y-13770924D02*
X14667428Y-13637590D01*
X14667428Y-13570924D02*
X14657905Y-13580448D01*
X14657905Y-13580448D02*
X14667428Y-13589971D01*
X14667428Y-13589971D02*
X14676952Y-13580448D01*
X14676952Y-13580448D02*
X14667428Y-13570924D01*
X14667428Y-13570924D02*
X14667428Y-13589971D01*
X14791238Y-13770924D02*
X14772190Y-13761400D01*
X14772190Y-13761400D02*
X14762667Y-13742352D01*
X14762667Y-13742352D02*
X14762667Y-13570924D01*
X14896000Y-13770924D02*
X14876952Y-13761400D01*
X14876952Y-13761400D02*
X14867428Y-13742352D01*
X14867428Y-13742352D02*
X14867428Y-13570924D01*
X15124571Y-13770924D02*
X15124571Y-13570924D01*
X15124571Y-13570924D02*
X15191238Y-13713781D01*
X15191238Y-13713781D02*
X15257905Y-13570924D01*
X15257905Y-13570924D02*
X15257905Y-13770924D01*
X15438857Y-13770924D02*
X15438857Y-13666162D01*
X15438857Y-13666162D02*
X15429333Y-13647114D01*
X15429333Y-13647114D02*
X15410286Y-13637590D01*
X15410286Y-13637590D02*
X15372190Y-13637590D01*
X15372190Y-13637590D02*
X15353143Y-13647114D01*
X15438857Y-13761400D02*
X15419809Y-13770924D01*
X15419809Y-13770924D02*
X15372190Y-13770924D01*
X15372190Y-13770924D02*
X15353143Y-13761400D01*
X15353143Y-13761400D02*
X15343619Y-13742352D01*
X15343619Y-13742352D02*
X15343619Y-13723305D01*
X15343619Y-13723305D02*
X15353143Y-13704257D01*
X15353143Y-13704257D02*
X15372190Y-13694733D01*
X15372190Y-13694733D02*
X15419809Y-13694733D01*
X15419809Y-13694733D02*
X15438857Y-13685209D01*
X15534095Y-13637590D02*
X15534095Y-13837590D01*
X15534095Y-13647114D02*
X15553143Y-13637590D01*
X15553143Y-13637590D02*
X15591238Y-13637590D01*
X15591238Y-13637590D02*
X15610286Y-13647114D01*
X15610286Y-13647114D02*
X15619809Y-13656638D01*
X15619809Y-13656638D02*
X15629333Y-13675686D01*
X15629333Y-13675686D02*
X15629333Y-13732828D01*
X15629333Y-13732828D02*
X15619809Y-13751876D01*
X15619809Y-13751876D02*
X15610286Y-13761400D01*
X15610286Y-13761400D02*
X15591238Y-13770924D01*
X15591238Y-13770924D02*
X15553143Y-13770924D01*
X15553143Y-13770924D02*
X15534095Y-13761400D01*
X15715048Y-13751876D02*
X15724571Y-13761400D01*
X15724571Y-13761400D02*
X15715048Y-13770924D01*
X15715048Y-13770924D02*
X15705524Y-13761400D01*
X15705524Y-13761400D02*
X15715048Y-13751876D01*
X15715048Y-13751876D02*
X15715048Y-13770924D01*
X15715048Y-13647114D02*
X15724571Y-13656638D01*
X15724571Y-13656638D02*
X15715048Y-13666162D01*
X15715048Y-13666162D02*
X15705524Y-13656638D01*
X15705524Y-13656638D02*
X15715048Y-13647114D01*
X15715048Y-13647114D02*
X15715048Y-13666162D01*
D12*
X14046000Y-14073400D02*
X14096000Y-14123400D01*
X14096000Y-14073400D02*
X14046000Y-14123400D01*
D11*
X14381714Y-13990924D02*
X14400762Y-13990924D01*
X14400762Y-13990924D02*
X14419809Y-14000448D01*
X14419809Y-14000448D02*
X14429333Y-14009971D01*
X14429333Y-14009971D02*
X14438857Y-14029019D01*
X14438857Y-14029019D02*
X14448381Y-14067114D01*
X14448381Y-14067114D02*
X14448381Y-14114733D01*
X14448381Y-14114733D02*
X14438857Y-14152828D01*
X14438857Y-14152828D02*
X14429333Y-14171876D01*
X14429333Y-14171876D02*
X14419809Y-14181400D01*
X14419809Y-14181400D02*
X14400762Y-14190924D01*
X14400762Y-14190924D02*
X14381714Y-14190924D01*
X14381714Y-14190924D02*
X14362667Y-14181400D01*
X14362667Y-14181400D02*
X14353143Y-14171876D01*
X14353143Y-14171876D02*
X14343619Y-14152828D01*
X14343619Y-14152828D02*
X14334095Y-14114733D01*
X14334095Y-14114733D02*
X14334095Y-14067114D01*
X14334095Y-14067114D02*
X14343619Y-14029019D01*
X14343619Y-14029019D02*
X14353143Y-14009971D01*
X14353143Y-14009971D02*
X14362667Y-14000448D01*
X14362667Y-14000448D02*
X14381714Y-13990924D01*
X14534095Y-14171876D02*
X14543619Y-14181400D01*
X14543619Y-14181400D02*
X14534095Y-14190924D01*
X14534095Y-14190924D02*
X14524571Y-14181400D01*
X14524571Y-14181400D02*
X14534095Y-14171876D01*
X14534095Y-14171876D02*
X14534095Y-14190924D01*
X14724571Y-13990924D02*
X14629333Y-13990924D01*
X14629333Y-13990924D02*
X14619809Y-14086162D01*
X14619809Y-14086162D02*
X14629333Y-14076638D01*
X14629333Y-14076638D02*
X14648381Y-14067114D01*
X14648381Y-14067114D02*
X14696000Y-14067114D01*
X14696000Y-14067114D02*
X14715048Y-14076638D01*
X14715048Y-14076638D02*
X14724571Y-14086162D01*
X14724571Y-14086162D02*
X14734095Y-14105209D01*
X14734095Y-14105209D02*
X14734095Y-14152828D01*
X14734095Y-14152828D02*
X14724571Y-14171876D01*
X14724571Y-14171876D02*
X14715048Y-14181400D01*
X14715048Y-14181400D02*
X14696000Y-14190924D01*
X14696000Y-14190924D02*
X14648381Y-14190924D01*
X14648381Y-14190924D02*
X14629333Y-14181400D01*
X14629333Y-14181400D02*
X14619809Y-14171876D01*
X14857905Y-13990924D02*
X14876952Y-13990924D01*
X14876952Y-13990924D02*
X14896000Y-14000448D01*
X14896000Y-14000448D02*
X14905524Y-14009971D01*
X14905524Y-14009971D02*
X14915048Y-14029019D01*
X14915048Y-14029019D02*
X14924571Y-14067114D01*
X14924571Y-14067114D02*
X14924571Y-14114733D01*
X14924571Y-14114733D02*
X14915048Y-14152828D01*
X14915048Y-14152828D02*
X14905524Y-14171876D01*
X14905524Y-14171876D02*
X14896000Y-14181400D01*
X14896000Y-14181400D02*
X14876952Y-14190924D01*
X14876952Y-14190924D02*
X14857905Y-14190924D01*
X14857905Y-14190924D02*
X14838857Y-14181400D01*
X14838857Y-14181400D02*
X14829333Y-14171876D01*
X14829333Y-14171876D02*
X14819809Y-14152828D01*
X14819809Y-14152828D02*
X14810286Y-14114733D01*
X14810286Y-14114733D02*
X14810286Y-14067114D01*
X14810286Y-14067114D02*
X14819809Y-14029019D01*
X14819809Y-14029019D02*
X14829333Y-14009971D01*
X14829333Y-14009971D02*
X14838857Y-14000448D01*
X14838857Y-14000448D02*
X14857905Y-13990924D01*
X15048381Y-13990924D02*
X15067429Y-13990924D01*
X15067429Y-13990924D02*
X15086476Y-14000448D01*
X15086476Y-14000448D02*
X15096000Y-14009971D01*
X15096000Y-14009971D02*
X15105524Y-14029019D01*
X15105524Y-14029019D02*
X15115048Y-14067114D01*
X15115048Y-14067114D02*
X15115048Y-14114733D01*
X15115048Y-14114733D02*
X15105524Y-14152828D01*
X15105524Y-14152828D02*
X15096000Y-14171876D01*
X15096000Y-14171876D02*
X15086476Y-14181400D01*
X15086476Y-14181400D02*
X15067429Y-14190924D01*
X15067429Y-14190924D02*
X15048381Y-14190924D01*
X15048381Y-14190924D02*
X15029333Y-14181400D01*
X15029333Y-14181400D02*
X15019809Y-14171876D01*
X15019809Y-14171876D02*
X15010286Y-14152828D01*
X15010286Y-14152828D02*
X15000762Y-14114733D01*
X15000762Y-14114733D02*
X15000762Y-14067114D01*
X15000762Y-14067114D02*
X15010286Y-14029019D01*
X15010286Y-14029019D02*
X15019809Y-14009971D01*
X15019809Y-14009971D02*
X15029333Y-14000448D01*
X15029333Y-14000448D02*
X15048381Y-13990924D01*
X15200762Y-14190924D02*
X15200762Y-14057590D01*
X15200762Y-14076638D02*
X15210286Y-14067114D01*
X15210286Y-14067114D02*
X15229333Y-14057590D01*
X15229333Y-14057590D02*
X15257905Y-14057590D01*
X15257905Y-14057590D02*
X15276952Y-14067114D01*
X15276952Y-14067114D02*
X15286476Y-14086162D01*
X15286476Y-14086162D02*
X15286476Y-14190924D01*
X15286476Y-14086162D02*
X15296000Y-14067114D01*
X15296000Y-14067114D02*
X15315048Y-14057590D01*
X15315048Y-14057590D02*
X15343619Y-14057590D01*
X15343619Y-14057590D02*
X15362667Y-14067114D01*
X15362667Y-14067114D02*
X15372190Y-14086162D01*
X15372190Y-14086162D02*
X15372190Y-14190924D01*
X15467429Y-14190924D02*
X15467429Y-14057590D01*
X15467429Y-14076638D02*
X15476952Y-14067114D01*
X15476952Y-14067114D02*
X15496000Y-14057590D01*
X15496000Y-14057590D02*
X15524571Y-14057590D01*
X15524571Y-14057590D02*
X15543619Y-14067114D01*
X15543619Y-14067114D02*
X15553143Y-14086162D01*
X15553143Y-14086162D02*
X15553143Y-14190924D01*
X15553143Y-14086162D02*
X15562667Y-14067114D01*
X15562667Y-14067114D02*
X15581714Y-14057590D01*
X15581714Y-14057590D02*
X15610286Y-14057590D01*
X15610286Y-14057590D02*
X15629333Y-14067114D01*
X15629333Y-14067114D02*
X15638857Y-14086162D01*
X15638857Y-14086162D02*
X15638857Y-14190924D01*
X16029333Y-13981400D02*
X15857905Y-14238543D01*
X16286476Y-13990924D02*
X16305524Y-13990924D01*
X16305524Y-13990924D02*
X16324572Y-14000448D01*
X16324572Y-14000448D02*
X16334095Y-14009971D01*
X16334095Y-14009971D02*
X16343619Y-14029019D01*
X16343619Y-14029019D02*
X16353143Y-14067114D01*
X16353143Y-14067114D02*
X16353143Y-14114733D01*
X16353143Y-14114733D02*
X16343619Y-14152828D01*
X16343619Y-14152828D02*
X16334095Y-14171876D01*
X16334095Y-14171876D02*
X16324572Y-14181400D01*
X16324572Y-14181400D02*
X16305524Y-14190924D01*
X16305524Y-14190924D02*
X16286476Y-14190924D01*
X16286476Y-14190924D02*
X16267429Y-14181400D01*
X16267429Y-14181400D02*
X16257905Y-14171876D01*
X16257905Y-14171876D02*
X16248381Y-14152828D01*
X16248381Y-14152828D02*
X16238857Y-14114733D01*
X16238857Y-14114733D02*
X16238857Y-14067114D01*
X16238857Y-14067114D02*
X16248381Y-14029019D01*
X16248381Y-14029019D02*
X16257905Y-14009971D01*
X16257905Y-14009971D02*
X16267429Y-14000448D01*
X16267429Y-14000448D02*
X16286476Y-13990924D01*
X16438857Y-14171876D02*
X16448381Y-14181400D01*
X16448381Y-14181400D02*
X16438857Y-14190924D01*
X16438857Y-14190924D02*
X16429333Y-14181400D01*
X16429333Y-14181400D02*
X16438857Y-14171876D01*
X16438857Y-14171876D02*
X16438857Y-14190924D01*
X16572191Y-13990924D02*
X16591238Y-13990924D01*
X16591238Y-13990924D02*
X16610286Y-14000448D01*
X16610286Y-14000448D02*
X16619810Y-14009971D01*
X16619810Y-14009971D02*
X16629333Y-14029019D01*
X16629333Y-14029019D02*
X16638857Y-14067114D01*
X16638857Y-14067114D02*
X16638857Y-14114733D01*
X16638857Y-14114733D02*
X16629333Y-14152828D01*
X16629333Y-14152828D02*
X16619810Y-14171876D01*
X16619810Y-14171876D02*
X16610286Y-14181400D01*
X16610286Y-14181400D02*
X16591238Y-14190924D01*
X16591238Y-14190924D02*
X16572191Y-14190924D01*
X16572191Y-14190924D02*
X16553143Y-14181400D01*
X16553143Y-14181400D02*
X16543619Y-14171876D01*
X16543619Y-14171876D02*
X16534095Y-14152828D01*
X16534095Y-14152828D02*
X16524572Y-14114733D01*
X16524572Y-14114733D02*
X16524572Y-14067114D01*
X16524572Y-14067114D02*
X16534095Y-14029019D01*
X16534095Y-14029019D02*
X16543619Y-14009971D01*
X16543619Y-14009971D02*
X16553143Y-14000448D01*
X16553143Y-14000448D02*
X16572191Y-13990924D01*
X16829334Y-14190924D02*
X16715048Y-14190924D01*
X16772191Y-14190924D02*
X16772191Y-13990924D01*
X16772191Y-13990924D02*
X16753143Y-14019495D01*
X16753143Y-14019495D02*
X16734095Y-14038543D01*
X16734095Y-14038543D02*
X16715048Y-14048067D01*
X16924572Y-14190924D02*
X16962667Y-14190924D01*
X16962667Y-14190924D02*
X16981715Y-14181400D01*
X16981715Y-14181400D02*
X16991238Y-14171876D01*
X16991238Y-14171876D02*
X17010286Y-14143305D01*
X17010286Y-14143305D02*
X17019810Y-14105209D01*
X17019810Y-14105209D02*
X17019810Y-14029019D01*
X17019810Y-14029019D02*
X17010286Y-14009971D01*
X17010286Y-14009971D02*
X17000762Y-14000448D01*
X17000762Y-14000448D02*
X16981715Y-13990924D01*
X16981715Y-13990924D02*
X16943619Y-13990924D01*
X16943619Y-13990924D02*
X16924572Y-14000448D01*
X16924572Y-14000448D02*
X16915048Y-14009971D01*
X16915048Y-14009971D02*
X16905524Y-14029019D01*
X16905524Y-14029019D02*
X16905524Y-14076638D01*
X16905524Y-14076638D02*
X16915048Y-14095686D01*
X16915048Y-14095686D02*
X16924572Y-14105209D01*
X16924572Y-14105209D02*
X16943619Y-14114733D01*
X16943619Y-14114733D02*
X16981715Y-14114733D01*
X16981715Y-14114733D02*
X17000762Y-14105209D01*
X17000762Y-14105209D02*
X17010286Y-14095686D01*
X17010286Y-14095686D02*
X17019810Y-14076638D01*
X17086476Y-13990924D02*
X17219810Y-13990924D01*
X17219810Y-13990924D02*
X17134095Y-14190924D01*
X17286476Y-13990924D02*
X17286476Y-14029019D01*
X17362667Y-13990924D02*
X17362667Y-14029019D01*
X17657905Y-14267114D02*
X17648381Y-14257590D01*
X17648381Y-14257590D02*
X17629334Y-14229019D01*
X17629334Y-14229019D02*
X17619810Y-14209971D01*
X17619810Y-14209971D02*
X17610286Y-14181400D01*
X17610286Y-14181400D02*
X17600762Y-14133781D01*
X17600762Y-14133781D02*
X17600762Y-14095686D01*
X17600762Y-14095686D02*
X17610286Y-14048067D01*
X17610286Y-14048067D02*
X17619810Y-14019495D01*
X17619810Y-14019495D02*
X17629334Y-14000448D01*
X17629334Y-14000448D02*
X17648381Y-13971876D01*
X17648381Y-13971876D02*
X17657905Y-13962352D01*
X17838857Y-14190924D02*
X17724572Y-14190924D01*
X17781715Y-14190924D02*
X17781715Y-13990924D01*
X17781715Y-13990924D02*
X17762667Y-14019495D01*
X17762667Y-14019495D02*
X17743619Y-14038543D01*
X17743619Y-14038543D02*
X17724572Y-14048067D01*
X18076953Y-14190924D02*
X18076953Y-13990924D01*
X18162667Y-14190924D02*
X18162667Y-14086162D01*
X18162667Y-14086162D02*
X18153143Y-14067114D01*
X18153143Y-14067114D02*
X18134096Y-14057590D01*
X18134096Y-14057590D02*
X18105524Y-14057590D01*
X18105524Y-14057590D02*
X18086477Y-14067114D01*
X18086477Y-14067114D02*
X18076953Y-14076638D01*
X18286477Y-14190924D02*
X18267429Y-14181400D01*
X18267429Y-14181400D02*
X18257905Y-14171876D01*
X18257905Y-14171876D02*
X18248381Y-14152828D01*
X18248381Y-14152828D02*
X18248381Y-14095686D01*
X18248381Y-14095686D02*
X18257905Y-14076638D01*
X18257905Y-14076638D02*
X18267429Y-14067114D01*
X18267429Y-14067114D02*
X18286477Y-14057590D01*
X18286477Y-14057590D02*
X18315048Y-14057590D01*
X18315048Y-14057590D02*
X18334096Y-14067114D01*
X18334096Y-14067114D02*
X18343619Y-14076638D01*
X18343619Y-14076638D02*
X18353143Y-14095686D01*
X18353143Y-14095686D02*
X18353143Y-14152828D01*
X18353143Y-14152828D02*
X18343619Y-14171876D01*
X18343619Y-14171876D02*
X18334096Y-14181400D01*
X18334096Y-14181400D02*
X18315048Y-14190924D01*
X18315048Y-14190924D02*
X18286477Y-14190924D01*
X18467429Y-14190924D02*
X18448381Y-14181400D01*
X18448381Y-14181400D02*
X18438858Y-14162352D01*
X18438858Y-14162352D02*
X18438858Y-13990924D01*
X18619810Y-14181400D02*
X18600762Y-14190924D01*
X18600762Y-14190924D02*
X18562667Y-14190924D01*
X18562667Y-14190924D02*
X18543619Y-14181400D01*
X18543619Y-14181400D02*
X18534096Y-14162352D01*
X18534096Y-14162352D02*
X18534096Y-14086162D01*
X18534096Y-14086162D02*
X18543619Y-14067114D01*
X18543619Y-14067114D02*
X18562667Y-14057590D01*
X18562667Y-14057590D02*
X18600762Y-14057590D01*
X18600762Y-14057590D02*
X18619810Y-14067114D01*
X18619810Y-14067114D02*
X18629334Y-14086162D01*
X18629334Y-14086162D02*
X18629334Y-14105209D01*
X18629334Y-14105209D02*
X18534096Y-14124257D01*
X18696000Y-14267114D02*
X18705524Y-14257590D01*
X18705524Y-14257590D02*
X18724572Y-14229019D01*
X18724572Y-14229019D02*
X18734096Y-14209971D01*
X18734096Y-14209971D02*
X18743619Y-14181400D01*
X18743619Y-14181400D02*
X18753143Y-14133781D01*
X18753143Y-14133781D02*
X18753143Y-14095686D01*
X18753143Y-14095686D02*
X18743619Y-14048067D01*
X18743619Y-14048067D02*
X18734096Y-14019495D01*
X18734096Y-14019495D02*
X18724572Y-14000448D01*
X18724572Y-14000448D02*
X18705524Y-13971876D01*
X18705524Y-13971876D02*
X18696000Y-13962352D01*
X19057905Y-14267114D02*
X19048381Y-14257590D01*
X19048381Y-14257590D02*
X19029334Y-14229019D01*
X19029334Y-14229019D02*
X19019810Y-14209971D01*
X19019810Y-14209971D02*
X19010286Y-14181400D01*
X19010286Y-14181400D02*
X19000762Y-14133781D01*
X19000762Y-14133781D02*
X19000762Y-14095686D01*
X19000762Y-14095686D02*
X19010286Y-14048067D01*
X19010286Y-14048067D02*
X19019810Y-14019495D01*
X19019810Y-14019495D02*
X19029334Y-14000448D01*
X19029334Y-14000448D02*
X19048381Y-13971876D01*
X19048381Y-13971876D02*
X19057905Y-13962352D01*
X19134096Y-14057590D02*
X19134096Y-14190924D01*
X19134096Y-14076638D02*
X19143619Y-14067114D01*
X19143619Y-14067114D02*
X19162667Y-14057590D01*
X19162667Y-14057590D02*
X19191239Y-14057590D01*
X19191239Y-14057590D02*
X19210286Y-14067114D01*
X19210286Y-14067114D02*
X19219810Y-14086162D01*
X19219810Y-14086162D02*
X19219810Y-14190924D01*
X19343619Y-14190924D02*
X19324572Y-14181400D01*
X19324572Y-14181400D02*
X19315048Y-14171876D01*
X19315048Y-14171876D02*
X19305524Y-14152828D01*
X19305524Y-14152828D02*
X19305524Y-14095686D01*
X19305524Y-14095686D02*
X19315048Y-14076638D01*
X19315048Y-14076638D02*
X19324572Y-14067114D01*
X19324572Y-14067114D02*
X19343619Y-14057590D01*
X19343619Y-14057590D02*
X19372191Y-14057590D01*
X19372191Y-14057590D02*
X19391239Y-14067114D01*
X19391239Y-14067114D02*
X19400762Y-14076638D01*
X19400762Y-14076638D02*
X19410286Y-14095686D01*
X19410286Y-14095686D02*
X19410286Y-14152828D01*
X19410286Y-14152828D02*
X19400762Y-14171876D01*
X19400762Y-14171876D02*
X19391239Y-14181400D01*
X19391239Y-14181400D02*
X19372191Y-14190924D01*
X19372191Y-14190924D02*
X19343619Y-14190924D01*
X19467429Y-14057590D02*
X19543619Y-14057590D01*
X19496000Y-13990924D02*
X19496000Y-14162352D01*
X19496000Y-14162352D02*
X19505524Y-14181400D01*
X19505524Y-14181400D02*
X19524572Y-14190924D01*
X19524572Y-14190924D02*
X19543619Y-14190924D01*
X19762667Y-14057590D02*
X19762667Y-14257590D01*
X19762667Y-14067114D02*
X19781715Y-14057590D01*
X19781715Y-14057590D02*
X19819810Y-14057590D01*
X19819810Y-14057590D02*
X19838858Y-14067114D01*
X19838858Y-14067114D02*
X19848381Y-14076638D01*
X19848381Y-14076638D02*
X19857905Y-14095686D01*
X19857905Y-14095686D02*
X19857905Y-14152828D01*
X19857905Y-14152828D02*
X19848381Y-14171876D01*
X19848381Y-14171876D02*
X19838858Y-14181400D01*
X19838858Y-14181400D02*
X19819810Y-14190924D01*
X19819810Y-14190924D02*
X19781715Y-14190924D01*
X19781715Y-14190924D02*
X19762667Y-14181400D01*
X19972191Y-14190924D02*
X19953143Y-14181400D01*
X19953143Y-14181400D02*
X19943620Y-14162352D01*
X19943620Y-14162352D02*
X19943620Y-13990924D01*
X20134096Y-14190924D02*
X20134096Y-14086162D01*
X20134096Y-14086162D02*
X20124572Y-14067114D01*
X20124572Y-14067114D02*
X20105524Y-14057590D01*
X20105524Y-14057590D02*
X20067429Y-14057590D01*
X20067429Y-14057590D02*
X20048381Y-14067114D01*
X20134096Y-14181400D02*
X20115048Y-14190924D01*
X20115048Y-14190924D02*
X20067429Y-14190924D01*
X20067429Y-14190924D02*
X20048381Y-14181400D01*
X20048381Y-14181400D02*
X20038858Y-14162352D01*
X20038858Y-14162352D02*
X20038858Y-14143305D01*
X20038858Y-14143305D02*
X20048381Y-14124257D01*
X20048381Y-14124257D02*
X20067429Y-14114733D01*
X20067429Y-14114733D02*
X20115048Y-14114733D01*
X20115048Y-14114733D02*
X20134096Y-14105209D01*
X20200762Y-14057590D02*
X20276953Y-14057590D01*
X20229334Y-13990924D02*
X20229334Y-14162352D01*
X20229334Y-14162352D02*
X20238858Y-14181400D01*
X20238858Y-14181400D02*
X20257905Y-14190924D01*
X20257905Y-14190924D02*
X20276953Y-14190924D01*
X20419810Y-14181400D02*
X20400762Y-14190924D01*
X20400762Y-14190924D02*
X20362667Y-14190924D01*
X20362667Y-14190924D02*
X20343620Y-14181400D01*
X20343620Y-14181400D02*
X20334096Y-14162352D01*
X20334096Y-14162352D02*
X20334096Y-14086162D01*
X20334096Y-14086162D02*
X20343620Y-14067114D01*
X20343620Y-14067114D02*
X20362667Y-14057590D01*
X20362667Y-14057590D02*
X20400762Y-14057590D01*
X20400762Y-14057590D02*
X20419810Y-14067114D01*
X20419810Y-14067114D02*
X20429334Y-14086162D01*
X20429334Y-14086162D02*
X20429334Y-14105209D01*
X20429334Y-14105209D02*
X20334096Y-14124257D01*
X20600762Y-14190924D02*
X20600762Y-13990924D01*
X20600762Y-14181400D02*
X20581715Y-14190924D01*
X20581715Y-14190924D02*
X20543620Y-14190924D01*
X20543620Y-14190924D02*
X20524572Y-14181400D01*
X20524572Y-14181400D02*
X20515048Y-14171876D01*
X20515048Y-14171876D02*
X20505524Y-14152828D01*
X20505524Y-14152828D02*
X20505524Y-14095686D01*
X20505524Y-14095686D02*
X20515048Y-14076638D01*
X20515048Y-14076638D02*
X20524572Y-14067114D01*
X20524572Y-14067114D02*
X20543620Y-14057590D01*
X20543620Y-14057590D02*
X20581715Y-14057590D01*
X20581715Y-14057590D02*
X20600762Y-14067114D01*
X20676953Y-14267114D02*
X20686477Y-14257590D01*
X20686477Y-14257590D02*
X20705524Y-14229019D01*
X20705524Y-14229019D02*
X20715048Y-14209971D01*
X20715048Y-14209971D02*
X20724572Y-14181400D01*
X20724572Y-14181400D02*
X20734096Y-14133781D01*
X20734096Y-14133781D02*
X20734096Y-14095686D01*
X20734096Y-14095686D02*
X20724572Y-14048067D01*
X20724572Y-14048067D02*
X20715048Y-14019495D01*
X20715048Y-14019495D02*
X20705524Y-14000448D01*
X20705524Y-14000448D02*
X20686477Y-13971876D01*
X20686477Y-13971876D02*
X20676953Y-13962352D01*
M02*
