M48
; DRILL file {KiCad 7.0.1-3b83917a11~172~ubuntu22.04.1} date Po 17. dubna 2023, 14:06:57
; FORMAT={-:-/ absolute / metric / decimal}
; #@! TF.CreationDate,2023-04-17T14:06:57+02:00
; #@! TF.GenerationSoftware,Kicad,Pcbnew,7.0.1-3b83917a11~172~ubuntu22.04.1
; #@! TF.FileFunction,Plated,1,2,PTH
FMAT,2
METRIC
; #@! TA.AperFunction,Plated,PTH,ViaDrill
T1C0.200
; #@! TA.AperFunction,Plated,PTH,ComponentDrill
T2C0.200
; #@! TA.AperFunction,Plated,PTH,ComponentDrill
T3C0.600
; #@! TA.AperFunction,Plated,PTH,ComponentDrill
T4C1.000
%
G90
G05
T1
X127.228Y-134.844
X128.752Y-128.748
X128.752Y-131.796
X131.292Y-128.494
X137.816Y-63.504
X140.356Y-74.68
X140.897Y-58.932
X146.96Y-88.904
X152.04Y-90.428
X154.072Y-90.428
X154.58Y-80.776
X156.612Y-60.747
X157.628Y-61.472
X157.628Y-72.14
X159.29Y-90.428
X163.216Y-61.472
X165.756Y-60.964
X167.28Y-61.355
X174.244Y-129.54
X176.276Y-133.604
X176.784Y-129.54
X178.191Y-133.604
T2
X150.556Y-72.724
X150.556Y-74.248
X151.319Y-71.961
X151.319Y-73.486
X151.319Y-75.011
X152.082Y-72.724
X152.082Y-74.248
X152.844Y-71.961
X152.844Y-73.486
X152.844Y-75.011
X153.606Y-72.724
X153.606Y-74.248
T4
X148.962Y-86.928
X151.501Y-86.928
X154.041Y-86.928
X156.582Y-86.928
X167.788Y-64.012
X167.788Y-66.552
X167.788Y-69.092
X167.788Y-71.632
T3
X162.951Y-88.392G85X164.052Y-88.392
G05
X162.951Y-97.032G85X164.052Y-97.032
G05
X167.281Y-88.392G85X168.082Y-88.392
G05
X167.281Y-97.032G85X168.082Y-97.032
G05
T0
M30
