%TF.GenerationSoftware,KiCad,Pcbnew,7.0.1-3b83917a11~172~ubuntu22.04.1*%
%TF.CreationDate,2023-04-18T10:02:11+02:00*%
%TF.ProjectId,part2,70617274-322e-46b6-9963-61645f706362,rev?*%
%TF.SameCoordinates,Original*%
%TF.FileFunction,Drillmap*%
%TF.FilePolarity,Positive*%
%FSLAX45Y45*%
G04 Gerber Fmt 4.5, Leading zero omitted, Abs format (unit mm)*
G04 Created by KiCad (PCBNEW 7.0.1-3b83917a11~172~ubuntu22.04.1) date 2023-04-18 10:02:11*
%MOMM*%
%LPD*%
G01*
G04 APERTURE LIST*
%ADD10C,0.100000*%
%ADD11C,0.200000*%
%ADD12C,0.020000*%
%ADD13C,0.060000*%
G04 APERTURE END LIST*
D10*
X12478200Y-7817400D02*
X13328200Y-7817400D01*
X13328200Y-7817400D02*
X13328200Y-8217400D01*
X16078200Y-12217400D02*
X16078200Y-7817400D01*
X13328200Y-8217400D02*
X15228200Y-8217400D01*
X12478200Y-7817400D02*
X12478200Y-12217400D01*
X15228200Y-7817400D02*
X16078200Y-7817400D01*
X15228200Y-8217400D02*
X15228200Y-7817400D01*
X12478200Y-12217400D02*
X16078200Y-12217400D01*
D11*
D12*
X12773000Y-8721800D02*
X12793000Y-8741800D01*
X12793000Y-8721800D02*
X12773000Y-8741800D01*
X13027000Y-9839400D02*
X13047000Y-9859400D01*
X13047000Y-9839400D02*
X13027000Y-9859400D01*
X13081150Y-8264600D02*
X13101150Y-8284600D01*
X13101150Y-8264600D02*
X13081150Y-8284600D01*
X13687400Y-11261800D02*
X13707400Y-11281800D01*
X13707400Y-11261800D02*
X13687400Y-11281800D01*
X14195400Y-11414200D02*
X14215400Y-11434200D01*
X14215400Y-11414200D02*
X14195400Y-11434200D01*
X14398600Y-11414200D02*
X14418600Y-11434200D01*
X14418600Y-11414200D02*
X14398600Y-11434200D01*
X14449400Y-10449000D02*
X14469400Y-10469000D01*
X14469400Y-10449000D02*
X14449400Y-10469000D01*
X14652600Y-8446150D02*
X14672600Y-8466150D01*
X14672600Y-8446150D02*
X14652600Y-8466150D01*
X14754200Y-8518600D02*
X14774200Y-8538600D01*
X14774200Y-8518600D02*
X14754200Y-8538600D01*
X14754200Y-9585400D02*
X14774200Y-9605400D01*
X14774200Y-9585400D02*
X14754200Y-9605400D01*
X14920357Y-11414250D02*
X14940357Y-11434250D01*
X14940357Y-11414250D02*
X14920357Y-11434250D01*
X15313000Y-8518600D02*
X15333000Y-8538600D01*
X15333000Y-8518600D02*
X15313000Y-8538600D01*
X15567000Y-8467800D02*
X15587000Y-8487800D01*
X15587000Y-8467800D02*
X15567000Y-8487800D01*
X15719400Y-8506950D02*
X15739400Y-8526950D01*
X15739400Y-8506950D02*
X15719400Y-8526950D01*
X14067050Y-9653750D02*
G75*
G03*
X14067050Y-9653750I-10000J0D01*
G01*
X14067050Y-9806250D02*
G75*
G03*
X14067050Y-9806250I-10000J0D01*
G01*
X14143300Y-9577500D02*
G75*
G03*
X14143300Y-9577500I-10000J0D01*
G01*
X14143300Y-9730000D02*
G75*
G03*
X14143300Y-9730000I-10000J0D01*
G01*
X14143300Y-9882500D02*
G75*
G03*
X14143300Y-9882500I-10000J0D01*
G01*
X14219550Y-9653750D02*
G75*
G03*
X14219550Y-9653750I-10000J0D01*
G01*
X14219550Y-9806250D02*
G75*
G03*
X14219550Y-9806250I-10000J0D01*
G01*
X14295800Y-9577500D02*
G75*
G03*
X14295800Y-9577500I-10000J0D01*
G01*
X14295800Y-9730000D02*
G75*
G03*
X14295800Y-9730000I-10000J0D01*
G01*
X14295800Y-9882500D02*
G75*
G03*
X14295800Y-9882500I-10000J0D01*
G01*
X14372050Y-9653750D02*
G75*
G03*
X14372050Y-9653750I-10000J0D01*
G01*
X14372050Y-9806250D02*
G75*
G03*
X14372050Y-9806250I-10000J0D01*
G01*
D13*
X15351550Y-11190600D02*
X15351550Y-11250600D01*
X15321550Y-11220600D02*
X15381550Y-11220600D01*
D11*
X15296550Y-11250600D02*
X15406550Y-11250600D01*
X15406550Y-11250600D02*
G75*
G03*
X15406550Y-11190600I0J30000D01*
G01*
X15406550Y-11190600D02*
X15296550Y-11190600D01*
X15296550Y-11190600D02*
G75*
G03*
X15296550Y-11250600I0J-30000D01*
G01*
D13*
X15351550Y-12054600D02*
X15351550Y-12114600D01*
X15321550Y-12084600D02*
X15381550Y-12084600D01*
D11*
X15296550Y-12114600D02*
X15406550Y-12114600D01*
X15406550Y-12114600D02*
G75*
G03*
X15406550Y-12054600I0J30000D01*
G01*
X15406550Y-12054600D02*
X15296550Y-12054600D01*
X15296550Y-12054600D02*
G75*
G03*
X15296550Y-12114600I0J-30000D01*
G01*
D13*
X15769550Y-11190600D02*
X15769550Y-11250600D01*
X15739550Y-11220600D02*
X15799550Y-11220600D01*
D11*
X15729550Y-11250600D02*
X15809550Y-11250600D01*
X15809550Y-11250600D02*
G75*
G03*
X15809550Y-11190600I0J30000D01*
G01*
X15809550Y-11190600D02*
X15729550Y-11190600D01*
X15729550Y-11190600D02*
G75*
G03*
X15729550Y-11250600I0J-30000D01*
G01*
D13*
X15769550Y-12054600D02*
X15769550Y-12114600D01*
X15739550Y-12084600D02*
X15799550Y-12084600D01*
D11*
X15729550Y-12114600D02*
X15809550Y-12114600D01*
X15809550Y-12114600D02*
G75*
G03*
X15809550Y-12054600I0J30000D01*
G01*
X15809550Y-12054600D02*
X15729550Y-12054600D01*
X15729550Y-12054600D02*
G75*
G03*
X15729550Y-12114600I0J-30000D01*
G01*
D10*
X13932906Y-11109556D02*
X13932906Y-11038844D01*
X13862194Y-11038844D01*
X13862194Y-11109556D01*
X13932906Y-11109556D01*
X14186906Y-11109556D02*
X14186906Y-11038844D01*
X14116194Y-11038844D01*
X14116194Y-11109556D01*
X14186906Y-11109556D01*
X14440906Y-11109556D02*
X14440906Y-11038844D01*
X14370194Y-11038844D01*
X14370194Y-11109556D01*
X14440906Y-11109556D01*
X14694906Y-11109556D02*
X14694906Y-11038844D01*
X14624194Y-11038844D01*
X14624194Y-11109556D01*
X14694906Y-11109556D01*
X15815556Y-8817956D02*
X15815556Y-8747244D01*
X15744844Y-8747244D01*
X15744844Y-8817956D01*
X15815556Y-8817956D01*
X15815556Y-9071956D02*
X15815556Y-9001244D01*
X15744844Y-9001244D01*
X15744844Y-9071956D01*
X15815556Y-9071956D01*
X15815556Y-9325956D02*
X15815556Y-9255244D01*
X15744844Y-9255244D01*
X15744844Y-9325956D01*
X15815556Y-9325956D01*
X15815556Y-9579956D02*
X15815556Y-9509244D01*
X15744844Y-9509244D01*
X15744844Y-9579956D01*
X15815556Y-9579956D01*
D11*
X12720819Y-12534924D02*
X12720819Y-12334924D01*
X12720819Y-12334924D02*
X12768438Y-12334924D01*
X12768438Y-12334924D02*
X12797009Y-12344448D01*
X12797009Y-12344448D02*
X12816057Y-12363495D01*
X12816057Y-12363495D02*
X12825581Y-12382543D01*
X12825581Y-12382543D02*
X12835105Y-12420638D01*
X12835105Y-12420638D02*
X12835105Y-12449209D01*
X12835105Y-12449209D02*
X12825581Y-12487305D01*
X12825581Y-12487305D02*
X12816057Y-12506352D01*
X12816057Y-12506352D02*
X12797009Y-12525400D01*
X12797009Y-12525400D02*
X12768438Y-12534924D01*
X12768438Y-12534924D02*
X12720819Y-12534924D01*
X12920819Y-12534924D02*
X12920819Y-12401590D01*
X12920819Y-12439686D02*
X12930343Y-12420638D01*
X12930343Y-12420638D02*
X12939867Y-12411114D01*
X12939867Y-12411114D02*
X12958914Y-12401590D01*
X12958914Y-12401590D02*
X12977962Y-12401590D01*
X13044628Y-12534924D02*
X13044628Y-12401590D01*
X13044628Y-12334924D02*
X13035105Y-12344448D01*
X13035105Y-12344448D02*
X13044628Y-12353971D01*
X13044628Y-12353971D02*
X13054152Y-12344448D01*
X13054152Y-12344448D02*
X13044628Y-12334924D01*
X13044628Y-12334924D02*
X13044628Y-12353971D01*
X13168438Y-12534924D02*
X13149390Y-12525400D01*
X13149390Y-12525400D02*
X13139867Y-12506352D01*
X13139867Y-12506352D02*
X13139867Y-12334924D01*
X13273200Y-12534924D02*
X13254152Y-12525400D01*
X13254152Y-12525400D02*
X13244628Y-12506352D01*
X13244628Y-12506352D02*
X13244628Y-12334924D01*
X13501771Y-12534924D02*
X13501771Y-12334924D01*
X13501771Y-12334924D02*
X13568438Y-12477781D01*
X13568438Y-12477781D02*
X13635105Y-12334924D01*
X13635105Y-12334924D02*
X13635105Y-12534924D01*
X13816057Y-12534924D02*
X13816057Y-12430162D01*
X13816057Y-12430162D02*
X13806533Y-12411114D01*
X13806533Y-12411114D02*
X13787486Y-12401590D01*
X13787486Y-12401590D02*
X13749390Y-12401590D01*
X13749390Y-12401590D02*
X13730343Y-12411114D01*
X13816057Y-12525400D02*
X13797009Y-12534924D01*
X13797009Y-12534924D02*
X13749390Y-12534924D01*
X13749390Y-12534924D02*
X13730343Y-12525400D01*
X13730343Y-12525400D02*
X13720819Y-12506352D01*
X13720819Y-12506352D02*
X13720819Y-12487305D01*
X13720819Y-12487305D02*
X13730343Y-12468257D01*
X13730343Y-12468257D02*
X13749390Y-12458733D01*
X13749390Y-12458733D02*
X13797009Y-12458733D01*
X13797009Y-12458733D02*
X13816057Y-12449209D01*
X13911295Y-12401590D02*
X13911295Y-12601590D01*
X13911295Y-12411114D02*
X13930343Y-12401590D01*
X13930343Y-12401590D02*
X13968438Y-12401590D01*
X13968438Y-12401590D02*
X13987486Y-12411114D01*
X13987486Y-12411114D02*
X13997009Y-12420638D01*
X13997009Y-12420638D02*
X14006533Y-12439686D01*
X14006533Y-12439686D02*
X14006533Y-12496828D01*
X14006533Y-12496828D02*
X13997009Y-12515876D01*
X13997009Y-12515876D02*
X13987486Y-12525400D01*
X13987486Y-12525400D02*
X13968438Y-12534924D01*
X13968438Y-12534924D02*
X13930343Y-12534924D01*
X13930343Y-12534924D02*
X13911295Y-12525400D01*
X14092248Y-12515876D02*
X14101771Y-12525400D01*
X14101771Y-12525400D02*
X14092248Y-12534924D01*
X14092248Y-12534924D02*
X14082724Y-12525400D01*
X14082724Y-12525400D02*
X14092248Y-12515876D01*
X14092248Y-12515876D02*
X14092248Y-12534924D01*
X14092248Y-12411114D02*
X14101771Y-12420638D01*
X14101771Y-12420638D02*
X14092248Y-12430162D01*
X14092248Y-12430162D02*
X14082724Y-12420638D01*
X14082724Y-12420638D02*
X14092248Y-12411114D01*
X14092248Y-12411114D02*
X14092248Y-12430162D01*
D12*
X12453200Y-12852400D02*
X12473200Y-12872400D01*
X12473200Y-12852400D02*
X12453200Y-12872400D01*
D11*
X12758914Y-12754924D02*
X12777962Y-12754924D01*
X12777962Y-12754924D02*
X12797009Y-12764448D01*
X12797009Y-12764448D02*
X12806533Y-12773971D01*
X12806533Y-12773971D02*
X12816057Y-12793019D01*
X12816057Y-12793019D02*
X12825581Y-12831114D01*
X12825581Y-12831114D02*
X12825581Y-12878733D01*
X12825581Y-12878733D02*
X12816057Y-12916828D01*
X12816057Y-12916828D02*
X12806533Y-12935876D01*
X12806533Y-12935876D02*
X12797009Y-12945400D01*
X12797009Y-12945400D02*
X12777962Y-12954924D01*
X12777962Y-12954924D02*
X12758914Y-12954924D01*
X12758914Y-12954924D02*
X12739867Y-12945400D01*
X12739867Y-12945400D02*
X12730343Y-12935876D01*
X12730343Y-12935876D02*
X12720819Y-12916828D01*
X12720819Y-12916828D02*
X12711295Y-12878733D01*
X12711295Y-12878733D02*
X12711295Y-12831114D01*
X12711295Y-12831114D02*
X12720819Y-12793019D01*
X12720819Y-12793019D02*
X12730343Y-12773971D01*
X12730343Y-12773971D02*
X12739867Y-12764448D01*
X12739867Y-12764448D02*
X12758914Y-12754924D01*
X12911295Y-12935876D02*
X12920819Y-12945400D01*
X12920819Y-12945400D02*
X12911295Y-12954924D01*
X12911295Y-12954924D02*
X12901771Y-12945400D01*
X12901771Y-12945400D02*
X12911295Y-12935876D01*
X12911295Y-12935876D02*
X12911295Y-12954924D01*
X12997009Y-12773971D02*
X13006533Y-12764448D01*
X13006533Y-12764448D02*
X13025581Y-12754924D01*
X13025581Y-12754924D02*
X13073200Y-12754924D01*
X13073200Y-12754924D02*
X13092248Y-12764448D01*
X13092248Y-12764448D02*
X13101771Y-12773971D01*
X13101771Y-12773971D02*
X13111295Y-12793019D01*
X13111295Y-12793019D02*
X13111295Y-12812067D01*
X13111295Y-12812067D02*
X13101771Y-12840638D01*
X13101771Y-12840638D02*
X12987486Y-12954924D01*
X12987486Y-12954924D02*
X13111295Y-12954924D01*
X13235105Y-12754924D02*
X13254152Y-12754924D01*
X13254152Y-12754924D02*
X13273200Y-12764448D01*
X13273200Y-12764448D02*
X13282724Y-12773971D01*
X13282724Y-12773971D02*
X13292248Y-12793019D01*
X13292248Y-12793019D02*
X13301771Y-12831114D01*
X13301771Y-12831114D02*
X13301771Y-12878733D01*
X13301771Y-12878733D02*
X13292248Y-12916828D01*
X13292248Y-12916828D02*
X13282724Y-12935876D01*
X13282724Y-12935876D02*
X13273200Y-12945400D01*
X13273200Y-12945400D02*
X13254152Y-12954924D01*
X13254152Y-12954924D02*
X13235105Y-12954924D01*
X13235105Y-12954924D02*
X13216057Y-12945400D01*
X13216057Y-12945400D02*
X13206533Y-12935876D01*
X13206533Y-12935876D02*
X13197009Y-12916828D01*
X13197009Y-12916828D02*
X13187486Y-12878733D01*
X13187486Y-12878733D02*
X13187486Y-12831114D01*
X13187486Y-12831114D02*
X13197009Y-12793019D01*
X13197009Y-12793019D02*
X13206533Y-12773971D01*
X13206533Y-12773971D02*
X13216057Y-12764448D01*
X13216057Y-12764448D02*
X13235105Y-12754924D01*
X13425581Y-12754924D02*
X13444629Y-12754924D01*
X13444629Y-12754924D02*
X13463676Y-12764448D01*
X13463676Y-12764448D02*
X13473200Y-12773971D01*
X13473200Y-12773971D02*
X13482724Y-12793019D01*
X13482724Y-12793019D02*
X13492248Y-12831114D01*
X13492248Y-12831114D02*
X13492248Y-12878733D01*
X13492248Y-12878733D02*
X13482724Y-12916828D01*
X13482724Y-12916828D02*
X13473200Y-12935876D01*
X13473200Y-12935876D02*
X13463676Y-12945400D01*
X13463676Y-12945400D02*
X13444629Y-12954924D01*
X13444629Y-12954924D02*
X13425581Y-12954924D01*
X13425581Y-12954924D02*
X13406533Y-12945400D01*
X13406533Y-12945400D02*
X13397009Y-12935876D01*
X13397009Y-12935876D02*
X13387486Y-12916828D01*
X13387486Y-12916828D02*
X13377962Y-12878733D01*
X13377962Y-12878733D02*
X13377962Y-12831114D01*
X13377962Y-12831114D02*
X13387486Y-12793019D01*
X13387486Y-12793019D02*
X13397009Y-12773971D01*
X13397009Y-12773971D02*
X13406533Y-12764448D01*
X13406533Y-12764448D02*
X13425581Y-12754924D01*
X13577962Y-12954924D02*
X13577962Y-12821590D01*
X13577962Y-12840638D02*
X13587486Y-12831114D01*
X13587486Y-12831114D02*
X13606533Y-12821590D01*
X13606533Y-12821590D02*
X13635105Y-12821590D01*
X13635105Y-12821590D02*
X13654152Y-12831114D01*
X13654152Y-12831114D02*
X13663676Y-12850162D01*
X13663676Y-12850162D02*
X13663676Y-12954924D01*
X13663676Y-12850162D02*
X13673200Y-12831114D01*
X13673200Y-12831114D02*
X13692248Y-12821590D01*
X13692248Y-12821590D02*
X13720819Y-12821590D01*
X13720819Y-12821590D02*
X13739867Y-12831114D01*
X13739867Y-12831114D02*
X13749390Y-12850162D01*
X13749390Y-12850162D02*
X13749390Y-12954924D01*
X13844629Y-12954924D02*
X13844629Y-12821590D01*
X13844629Y-12840638D02*
X13854152Y-12831114D01*
X13854152Y-12831114D02*
X13873200Y-12821590D01*
X13873200Y-12821590D02*
X13901771Y-12821590D01*
X13901771Y-12821590D02*
X13920819Y-12831114D01*
X13920819Y-12831114D02*
X13930343Y-12850162D01*
X13930343Y-12850162D02*
X13930343Y-12954924D01*
X13930343Y-12850162D02*
X13939867Y-12831114D01*
X13939867Y-12831114D02*
X13958914Y-12821590D01*
X13958914Y-12821590D02*
X13987486Y-12821590D01*
X13987486Y-12821590D02*
X14006533Y-12831114D01*
X14006533Y-12831114D02*
X14016057Y-12850162D01*
X14016057Y-12850162D02*
X14016057Y-12954924D01*
X14406533Y-12745400D02*
X14235105Y-13002543D01*
X14663676Y-12754924D02*
X14682724Y-12754924D01*
X14682724Y-12754924D02*
X14701772Y-12764448D01*
X14701772Y-12764448D02*
X14711295Y-12773971D01*
X14711295Y-12773971D02*
X14720819Y-12793019D01*
X14720819Y-12793019D02*
X14730343Y-12831114D01*
X14730343Y-12831114D02*
X14730343Y-12878733D01*
X14730343Y-12878733D02*
X14720819Y-12916828D01*
X14720819Y-12916828D02*
X14711295Y-12935876D01*
X14711295Y-12935876D02*
X14701772Y-12945400D01*
X14701772Y-12945400D02*
X14682724Y-12954924D01*
X14682724Y-12954924D02*
X14663676Y-12954924D01*
X14663676Y-12954924D02*
X14644629Y-12945400D01*
X14644629Y-12945400D02*
X14635105Y-12935876D01*
X14635105Y-12935876D02*
X14625581Y-12916828D01*
X14625581Y-12916828D02*
X14616057Y-12878733D01*
X14616057Y-12878733D02*
X14616057Y-12831114D01*
X14616057Y-12831114D02*
X14625581Y-12793019D01*
X14625581Y-12793019D02*
X14635105Y-12773971D01*
X14635105Y-12773971D02*
X14644629Y-12764448D01*
X14644629Y-12764448D02*
X14663676Y-12754924D01*
X14816057Y-12935876D02*
X14825581Y-12945400D01*
X14825581Y-12945400D02*
X14816057Y-12954924D01*
X14816057Y-12954924D02*
X14806533Y-12945400D01*
X14806533Y-12945400D02*
X14816057Y-12935876D01*
X14816057Y-12935876D02*
X14816057Y-12954924D01*
X14949391Y-12754924D02*
X14968438Y-12754924D01*
X14968438Y-12754924D02*
X14987486Y-12764448D01*
X14987486Y-12764448D02*
X14997010Y-12773971D01*
X14997010Y-12773971D02*
X15006533Y-12793019D01*
X15006533Y-12793019D02*
X15016057Y-12831114D01*
X15016057Y-12831114D02*
X15016057Y-12878733D01*
X15016057Y-12878733D02*
X15006533Y-12916828D01*
X15006533Y-12916828D02*
X14997010Y-12935876D01*
X14997010Y-12935876D02*
X14987486Y-12945400D01*
X14987486Y-12945400D02*
X14968438Y-12954924D01*
X14968438Y-12954924D02*
X14949391Y-12954924D01*
X14949391Y-12954924D02*
X14930343Y-12945400D01*
X14930343Y-12945400D02*
X14920819Y-12935876D01*
X14920819Y-12935876D02*
X14911295Y-12916828D01*
X14911295Y-12916828D02*
X14901772Y-12878733D01*
X14901772Y-12878733D02*
X14901772Y-12831114D01*
X14901772Y-12831114D02*
X14911295Y-12793019D01*
X14911295Y-12793019D02*
X14920819Y-12773971D01*
X14920819Y-12773971D02*
X14930343Y-12764448D01*
X14930343Y-12764448D02*
X14949391Y-12754924D01*
X15139867Y-12754924D02*
X15158914Y-12754924D01*
X15158914Y-12754924D02*
X15177962Y-12764448D01*
X15177962Y-12764448D02*
X15187486Y-12773971D01*
X15187486Y-12773971D02*
X15197010Y-12793019D01*
X15197010Y-12793019D02*
X15206533Y-12831114D01*
X15206533Y-12831114D02*
X15206533Y-12878733D01*
X15206533Y-12878733D02*
X15197010Y-12916828D01*
X15197010Y-12916828D02*
X15187486Y-12935876D01*
X15187486Y-12935876D02*
X15177962Y-12945400D01*
X15177962Y-12945400D02*
X15158914Y-12954924D01*
X15158914Y-12954924D02*
X15139867Y-12954924D01*
X15139867Y-12954924D02*
X15120819Y-12945400D01*
X15120819Y-12945400D02*
X15111295Y-12935876D01*
X15111295Y-12935876D02*
X15101772Y-12916828D01*
X15101772Y-12916828D02*
X15092248Y-12878733D01*
X15092248Y-12878733D02*
X15092248Y-12831114D01*
X15092248Y-12831114D02*
X15101772Y-12793019D01*
X15101772Y-12793019D02*
X15111295Y-12773971D01*
X15111295Y-12773971D02*
X15120819Y-12764448D01*
X15120819Y-12764448D02*
X15139867Y-12754924D01*
X15273200Y-12754924D02*
X15406533Y-12754924D01*
X15406533Y-12754924D02*
X15320819Y-12954924D01*
X15492248Y-12954924D02*
X15530343Y-12954924D01*
X15530343Y-12954924D02*
X15549391Y-12945400D01*
X15549391Y-12945400D02*
X15558914Y-12935876D01*
X15558914Y-12935876D02*
X15577962Y-12907305D01*
X15577962Y-12907305D02*
X15587486Y-12869209D01*
X15587486Y-12869209D02*
X15587486Y-12793019D01*
X15587486Y-12793019D02*
X15577962Y-12773971D01*
X15577962Y-12773971D02*
X15568438Y-12764448D01*
X15568438Y-12764448D02*
X15549391Y-12754924D01*
X15549391Y-12754924D02*
X15511295Y-12754924D01*
X15511295Y-12754924D02*
X15492248Y-12764448D01*
X15492248Y-12764448D02*
X15482724Y-12773971D01*
X15482724Y-12773971D02*
X15473200Y-12793019D01*
X15473200Y-12793019D02*
X15473200Y-12840638D01*
X15473200Y-12840638D02*
X15482724Y-12859686D01*
X15482724Y-12859686D02*
X15492248Y-12869209D01*
X15492248Y-12869209D02*
X15511295Y-12878733D01*
X15511295Y-12878733D02*
X15549391Y-12878733D01*
X15549391Y-12878733D02*
X15568438Y-12869209D01*
X15568438Y-12869209D02*
X15577962Y-12859686D01*
X15577962Y-12859686D02*
X15587486Y-12840638D01*
X15663676Y-12754924D02*
X15663676Y-12793019D01*
X15739867Y-12754924D02*
X15739867Y-12793019D01*
X16035105Y-13031114D02*
X16025581Y-13021590D01*
X16025581Y-13021590D02*
X16006534Y-12993019D01*
X16006534Y-12993019D02*
X15997010Y-12973971D01*
X15997010Y-12973971D02*
X15987486Y-12945400D01*
X15987486Y-12945400D02*
X15977962Y-12897781D01*
X15977962Y-12897781D02*
X15977962Y-12859686D01*
X15977962Y-12859686D02*
X15987486Y-12812067D01*
X15987486Y-12812067D02*
X15997010Y-12783495D01*
X15997010Y-12783495D02*
X16006534Y-12764448D01*
X16006534Y-12764448D02*
X16025581Y-12735876D01*
X16025581Y-12735876D02*
X16035105Y-12726352D01*
X16216057Y-12954924D02*
X16101772Y-12954924D01*
X16158914Y-12954924D02*
X16158914Y-12754924D01*
X16158914Y-12754924D02*
X16139867Y-12783495D01*
X16139867Y-12783495D02*
X16120819Y-12802543D01*
X16120819Y-12802543D02*
X16101772Y-12812067D01*
X16387486Y-12821590D02*
X16387486Y-12954924D01*
X16339867Y-12745400D02*
X16292248Y-12888257D01*
X16292248Y-12888257D02*
X16416057Y-12888257D01*
X16644629Y-12954924D02*
X16644629Y-12754924D01*
X16730343Y-12954924D02*
X16730343Y-12850162D01*
X16730343Y-12850162D02*
X16720819Y-12831114D01*
X16720819Y-12831114D02*
X16701772Y-12821590D01*
X16701772Y-12821590D02*
X16673200Y-12821590D01*
X16673200Y-12821590D02*
X16654153Y-12831114D01*
X16654153Y-12831114D02*
X16644629Y-12840638D01*
X16854153Y-12954924D02*
X16835105Y-12945400D01*
X16835105Y-12945400D02*
X16825581Y-12935876D01*
X16825581Y-12935876D02*
X16816058Y-12916828D01*
X16816058Y-12916828D02*
X16816058Y-12859686D01*
X16816058Y-12859686D02*
X16825581Y-12840638D01*
X16825581Y-12840638D02*
X16835105Y-12831114D01*
X16835105Y-12831114D02*
X16854153Y-12821590D01*
X16854153Y-12821590D02*
X16882724Y-12821590D01*
X16882724Y-12821590D02*
X16901772Y-12831114D01*
X16901772Y-12831114D02*
X16911296Y-12840638D01*
X16911296Y-12840638D02*
X16920819Y-12859686D01*
X16920819Y-12859686D02*
X16920819Y-12916828D01*
X16920819Y-12916828D02*
X16911296Y-12935876D01*
X16911296Y-12935876D02*
X16901772Y-12945400D01*
X16901772Y-12945400D02*
X16882724Y-12954924D01*
X16882724Y-12954924D02*
X16854153Y-12954924D01*
X17035105Y-12954924D02*
X17016058Y-12945400D01*
X17016058Y-12945400D02*
X17006534Y-12926352D01*
X17006534Y-12926352D02*
X17006534Y-12754924D01*
X17187486Y-12945400D02*
X17168439Y-12954924D01*
X17168439Y-12954924D02*
X17130343Y-12954924D01*
X17130343Y-12954924D02*
X17111296Y-12945400D01*
X17111296Y-12945400D02*
X17101772Y-12926352D01*
X17101772Y-12926352D02*
X17101772Y-12850162D01*
X17101772Y-12850162D02*
X17111296Y-12831114D01*
X17111296Y-12831114D02*
X17130343Y-12821590D01*
X17130343Y-12821590D02*
X17168439Y-12821590D01*
X17168439Y-12821590D02*
X17187486Y-12831114D01*
X17187486Y-12831114D02*
X17197010Y-12850162D01*
X17197010Y-12850162D02*
X17197010Y-12869209D01*
X17197010Y-12869209D02*
X17101772Y-12888257D01*
X17273200Y-12945400D02*
X17292248Y-12954924D01*
X17292248Y-12954924D02*
X17330343Y-12954924D01*
X17330343Y-12954924D02*
X17349391Y-12945400D01*
X17349391Y-12945400D02*
X17358915Y-12926352D01*
X17358915Y-12926352D02*
X17358915Y-12916828D01*
X17358915Y-12916828D02*
X17349391Y-12897781D01*
X17349391Y-12897781D02*
X17330343Y-12888257D01*
X17330343Y-12888257D02*
X17301772Y-12888257D01*
X17301772Y-12888257D02*
X17282724Y-12878733D01*
X17282724Y-12878733D02*
X17273200Y-12859686D01*
X17273200Y-12859686D02*
X17273200Y-12850162D01*
X17273200Y-12850162D02*
X17282724Y-12831114D01*
X17282724Y-12831114D02*
X17301772Y-12821590D01*
X17301772Y-12821590D02*
X17330343Y-12821590D01*
X17330343Y-12821590D02*
X17349391Y-12831114D01*
X17425581Y-13031114D02*
X17435105Y-13021590D01*
X17435105Y-13021590D02*
X17454153Y-12993019D01*
X17454153Y-12993019D02*
X17463677Y-12973971D01*
X17463677Y-12973971D02*
X17473200Y-12945400D01*
X17473200Y-12945400D02*
X17482724Y-12897781D01*
X17482724Y-12897781D02*
X17482724Y-12859686D01*
X17482724Y-12859686D02*
X17473200Y-12812067D01*
X17473200Y-12812067D02*
X17463677Y-12783495D01*
X17463677Y-12783495D02*
X17454153Y-12764448D01*
X17454153Y-12764448D02*
X17435105Y-12735876D01*
X17435105Y-12735876D02*
X17425581Y-12726352D01*
D12*
X12473200Y-13126400D02*
G75*
G03*
X12473200Y-13126400I-10000J0D01*
G01*
D11*
X12758914Y-13018924D02*
X12777962Y-13018924D01*
X12777962Y-13018924D02*
X12797009Y-13028448D01*
X12797009Y-13028448D02*
X12806533Y-13037971D01*
X12806533Y-13037971D02*
X12816057Y-13057019D01*
X12816057Y-13057019D02*
X12825581Y-13095114D01*
X12825581Y-13095114D02*
X12825581Y-13142733D01*
X12825581Y-13142733D02*
X12816057Y-13180828D01*
X12816057Y-13180828D02*
X12806533Y-13199876D01*
X12806533Y-13199876D02*
X12797009Y-13209400D01*
X12797009Y-13209400D02*
X12777962Y-13218924D01*
X12777962Y-13218924D02*
X12758914Y-13218924D01*
X12758914Y-13218924D02*
X12739867Y-13209400D01*
X12739867Y-13209400D02*
X12730343Y-13199876D01*
X12730343Y-13199876D02*
X12720819Y-13180828D01*
X12720819Y-13180828D02*
X12711295Y-13142733D01*
X12711295Y-13142733D02*
X12711295Y-13095114D01*
X12711295Y-13095114D02*
X12720819Y-13057019D01*
X12720819Y-13057019D02*
X12730343Y-13037971D01*
X12730343Y-13037971D02*
X12739867Y-13028448D01*
X12739867Y-13028448D02*
X12758914Y-13018924D01*
X12911295Y-13199876D02*
X12920819Y-13209400D01*
X12920819Y-13209400D02*
X12911295Y-13218924D01*
X12911295Y-13218924D02*
X12901771Y-13209400D01*
X12901771Y-13209400D02*
X12911295Y-13199876D01*
X12911295Y-13199876D02*
X12911295Y-13218924D01*
X12997009Y-13037971D02*
X13006533Y-13028448D01*
X13006533Y-13028448D02*
X13025581Y-13018924D01*
X13025581Y-13018924D02*
X13073200Y-13018924D01*
X13073200Y-13018924D02*
X13092248Y-13028448D01*
X13092248Y-13028448D02*
X13101771Y-13037971D01*
X13101771Y-13037971D02*
X13111295Y-13057019D01*
X13111295Y-13057019D02*
X13111295Y-13076067D01*
X13111295Y-13076067D02*
X13101771Y-13104638D01*
X13101771Y-13104638D02*
X12987486Y-13218924D01*
X12987486Y-13218924D02*
X13111295Y-13218924D01*
X13235105Y-13018924D02*
X13254152Y-13018924D01*
X13254152Y-13018924D02*
X13273200Y-13028448D01*
X13273200Y-13028448D02*
X13282724Y-13037971D01*
X13282724Y-13037971D02*
X13292248Y-13057019D01*
X13292248Y-13057019D02*
X13301771Y-13095114D01*
X13301771Y-13095114D02*
X13301771Y-13142733D01*
X13301771Y-13142733D02*
X13292248Y-13180828D01*
X13292248Y-13180828D02*
X13282724Y-13199876D01*
X13282724Y-13199876D02*
X13273200Y-13209400D01*
X13273200Y-13209400D02*
X13254152Y-13218924D01*
X13254152Y-13218924D02*
X13235105Y-13218924D01*
X13235105Y-13218924D02*
X13216057Y-13209400D01*
X13216057Y-13209400D02*
X13206533Y-13199876D01*
X13206533Y-13199876D02*
X13197009Y-13180828D01*
X13197009Y-13180828D02*
X13187486Y-13142733D01*
X13187486Y-13142733D02*
X13187486Y-13095114D01*
X13187486Y-13095114D02*
X13197009Y-13057019D01*
X13197009Y-13057019D02*
X13206533Y-13037971D01*
X13206533Y-13037971D02*
X13216057Y-13028448D01*
X13216057Y-13028448D02*
X13235105Y-13018924D01*
X13425581Y-13018924D02*
X13444629Y-13018924D01*
X13444629Y-13018924D02*
X13463676Y-13028448D01*
X13463676Y-13028448D02*
X13473200Y-13037971D01*
X13473200Y-13037971D02*
X13482724Y-13057019D01*
X13482724Y-13057019D02*
X13492248Y-13095114D01*
X13492248Y-13095114D02*
X13492248Y-13142733D01*
X13492248Y-13142733D02*
X13482724Y-13180828D01*
X13482724Y-13180828D02*
X13473200Y-13199876D01*
X13473200Y-13199876D02*
X13463676Y-13209400D01*
X13463676Y-13209400D02*
X13444629Y-13218924D01*
X13444629Y-13218924D02*
X13425581Y-13218924D01*
X13425581Y-13218924D02*
X13406533Y-13209400D01*
X13406533Y-13209400D02*
X13397009Y-13199876D01*
X13397009Y-13199876D02*
X13387486Y-13180828D01*
X13387486Y-13180828D02*
X13377962Y-13142733D01*
X13377962Y-13142733D02*
X13377962Y-13095114D01*
X13377962Y-13095114D02*
X13387486Y-13057019D01*
X13387486Y-13057019D02*
X13397009Y-13037971D01*
X13397009Y-13037971D02*
X13406533Y-13028448D01*
X13406533Y-13028448D02*
X13425581Y-13018924D01*
X13577962Y-13218924D02*
X13577962Y-13085590D01*
X13577962Y-13104638D02*
X13587486Y-13095114D01*
X13587486Y-13095114D02*
X13606533Y-13085590D01*
X13606533Y-13085590D02*
X13635105Y-13085590D01*
X13635105Y-13085590D02*
X13654152Y-13095114D01*
X13654152Y-13095114D02*
X13663676Y-13114162D01*
X13663676Y-13114162D02*
X13663676Y-13218924D01*
X13663676Y-13114162D02*
X13673200Y-13095114D01*
X13673200Y-13095114D02*
X13692248Y-13085590D01*
X13692248Y-13085590D02*
X13720819Y-13085590D01*
X13720819Y-13085590D02*
X13739867Y-13095114D01*
X13739867Y-13095114D02*
X13749390Y-13114162D01*
X13749390Y-13114162D02*
X13749390Y-13218924D01*
X13844629Y-13218924D02*
X13844629Y-13085590D01*
X13844629Y-13104638D02*
X13854152Y-13095114D01*
X13854152Y-13095114D02*
X13873200Y-13085590D01*
X13873200Y-13085590D02*
X13901771Y-13085590D01*
X13901771Y-13085590D02*
X13920819Y-13095114D01*
X13920819Y-13095114D02*
X13930343Y-13114162D01*
X13930343Y-13114162D02*
X13930343Y-13218924D01*
X13930343Y-13114162D02*
X13939867Y-13095114D01*
X13939867Y-13095114D02*
X13958914Y-13085590D01*
X13958914Y-13085590D02*
X13987486Y-13085590D01*
X13987486Y-13085590D02*
X14006533Y-13095114D01*
X14006533Y-13095114D02*
X14016057Y-13114162D01*
X14016057Y-13114162D02*
X14016057Y-13218924D01*
X14406533Y-13009400D02*
X14235105Y-13266543D01*
X14663676Y-13018924D02*
X14682724Y-13018924D01*
X14682724Y-13018924D02*
X14701772Y-13028448D01*
X14701772Y-13028448D02*
X14711295Y-13037971D01*
X14711295Y-13037971D02*
X14720819Y-13057019D01*
X14720819Y-13057019D02*
X14730343Y-13095114D01*
X14730343Y-13095114D02*
X14730343Y-13142733D01*
X14730343Y-13142733D02*
X14720819Y-13180828D01*
X14720819Y-13180828D02*
X14711295Y-13199876D01*
X14711295Y-13199876D02*
X14701772Y-13209400D01*
X14701772Y-13209400D02*
X14682724Y-13218924D01*
X14682724Y-13218924D02*
X14663676Y-13218924D01*
X14663676Y-13218924D02*
X14644629Y-13209400D01*
X14644629Y-13209400D02*
X14635105Y-13199876D01*
X14635105Y-13199876D02*
X14625581Y-13180828D01*
X14625581Y-13180828D02*
X14616057Y-13142733D01*
X14616057Y-13142733D02*
X14616057Y-13095114D01*
X14616057Y-13095114D02*
X14625581Y-13057019D01*
X14625581Y-13057019D02*
X14635105Y-13037971D01*
X14635105Y-13037971D02*
X14644629Y-13028448D01*
X14644629Y-13028448D02*
X14663676Y-13018924D01*
X14816057Y-13199876D02*
X14825581Y-13209400D01*
X14825581Y-13209400D02*
X14816057Y-13218924D01*
X14816057Y-13218924D02*
X14806533Y-13209400D01*
X14806533Y-13209400D02*
X14816057Y-13199876D01*
X14816057Y-13199876D02*
X14816057Y-13218924D01*
X14949391Y-13018924D02*
X14968438Y-13018924D01*
X14968438Y-13018924D02*
X14987486Y-13028448D01*
X14987486Y-13028448D02*
X14997010Y-13037971D01*
X14997010Y-13037971D02*
X15006533Y-13057019D01*
X15006533Y-13057019D02*
X15016057Y-13095114D01*
X15016057Y-13095114D02*
X15016057Y-13142733D01*
X15016057Y-13142733D02*
X15006533Y-13180828D01*
X15006533Y-13180828D02*
X14997010Y-13199876D01*
X14997010Y-13199876D02*
X14987486Y-13209400D01*
X14987486Y-13209400D02*
X14968438Y-13218924D01*
X14968438Y-13218924D02*
X14949391Y-13218924D01*
X14949391Y-13218924D02*
X14930343Y-13209400D01*
X14930343Y-13209400D02*
X14920819Y-13199876D01*
X14920819Y-13199876D02*
X14911295Y-13180828D01*
X14911295Y-13180828D02*
X14901772Y-13142733D01*
X14901772Y-13142733D02*
X14901772Y-13095114D01*
X14901772Y-13095114D02*
X14911295Y-13057019D01*
X14911295Y-13057019D02*
X14920819Y-13037971D01*
X14920819Y-13037971D02*
X14930343Y-13028448D01*
X14930343Y-13028448D02*
X14949391Y-13018924D01*
X15139867Y-13018924D02*
X15158914Y-13018924D01*
X15158914Y-13018924D02*
X15177962Y-13028448D01*
X15177962Y-13028448D02*
X15187486Y-13037971D01*
X15187486Y-13037971D02*
X15197010Y-13057019D01*
X15197010Y-13057019D02*
X15206533Y-13095114D01*
X15206533Y-13095114D02*
X15206533Y-13142733D01*
X15206533Y-13142733D02*
X15197010Y-13180828D01*
X15197010Y-13180828D02*
X15187486Y-13199876D01*
X15187486Y-13199876D02*
X15177962Y-13209400D01*
X15177962Y-13209400D02*
X15158914Y-13218924D01*
X15158914Y-13218924D02*
X15139867Y-13218924D01*
X15139867Y-13218924D02*
X15120819Y-13209400D01*
X15120819Y-13209400D02*
X15111295Y-13199876D01*
X15111295Y-13199876D02*
X15101772Y-13180828D01*
X15101772Y-13180828D02*
X15092248Y-13142733D01*
X15092248Y-13142733D02*
X15092248Y-13095114D01*
X15092248Y-13095114D02*
X15101772Y-13057019D01*
X15101772Y-13057019D02*
X15111295Y-13037971D01*
X15111295Y-13037971D02*
X15120819Y-13028448D01*
X15120819Y-13028448D02*
X15139867Y-13018924D01*
X15273200Y-13018924D02*
X15406533Y-13018924D01*
X15406533Y-13018924D02*
X15320819Y-13218924D01*
X15492248Y-13218924D02*
X15530343Y-13218924D01*
X15530343Y-13218924D02*
X15549391Y-13209400D01*
X15549391Y-13209400D02*
X15558914Y-13199876D01*
X15558914Y-13199876D02*
X15577962Y-13171305D01*
X15577962Y-13171305D02*
X15587486Y-13133209D01*
X15587486Y-13133209D02*
X15587486Y-13057019D01*
X15587486Y-13057019D02*
X15577962Y-13037971D01*
X15577962Y-13037971D02*
X15568438Y-13028448D01*
X15568438Y-13028448D02*
X15549391Y-13018924D01*
X15549391Y-13018924D02*
X15511295Y-13018924D01*
X15511295Y-13018924D02*
X15492248Y-13028448D01*
X15492248Y-13028448D02*
X15482724Y-13037971D01*
X15482724Y-13037971D02*
X15473200Y-13057019D01*
X15473200Y-13057019D02*
X15473200Y-13104638D01*
X15473200Y-13104638D02*
X15482724Y-13123686D01*
X15482724Y-13123686D02*
X15492248Y-13133209D01*
X15492248Y-13133209D02*
X15511295Y-13142733D01*
X15511295Y-13142733D02*
X15549391Y-13142733D01*
X15549391Y-13142733D02*
X15568438Y-13133209D01*
X15568438Y-13133209D02*
X15577962Y-13123686D01*
X15577962Y-13123686D02*
X15587486Y-13104638D01*
X15663676Y-13018924D02*
X15663676Y-13057019D01*
X15739867Y-13018924D02*
X15739867Y-13057019D01*
X16035105Y-13295114D02*
X16025581Y-13285590D01*
X16025581Y-13285590D02*
X16006534Y-13257019D01*
X16006534Y-13257019D02*
X15997010Y-13237971D01*
X15997010Y-13237971D02*
X15987486Y-13209400D01*
X15987486Y-13209400D02*
X15977962Y-13161781D01*
X15977962Y-13161781D02*
X15977962Y-13123686D01*
X15977962Y-13123686D02*
X15987486Y-13076067D01*
X15987486Y-13076067D02*
X15997010Y-13047495D01*
X15997010Y-13047495D02*
X16006534Y-13028448D01*
X16006534Y-13028448D02*
X16025581Y-12999876D01*
X16025581Y-12999876D02*
X16035105Y-12990352D01*
X16216057Y-13218924D02*
X16101772Y-13218924D01*
X16158914Y-13218924D02*
X16158914Y-13018924D01*
X16158914Y-13018924D02*
X16139867Y-13047495D01*
X16139867Y-13047495D02*
X16120819Y-13066543D01*
X16120819Y-13066543D02*
X16101772Y-13076067D01*
X16292248Y-13037971D02*
X16301772Y-13028448D01*
X16301772Y-13028448D02*
X16320819Y-13018924D01*
X16320819Y-13018924D02*
X16368438Y-13018924D01*
X16368438Y-13018924D02*
X16387486Y-13028448D01*
X16387486Y-13028448D02*
X16397010Y-13037971D01*
X16397010Y-13037971D02*
X16406534Y-13057019D01*
X16406534Y-13057019D02*
X16406534Y-13076067D01*
X16406534Y-13076067D02*
X16397010Y-13104638D01*
X16397010Y-13104638D02*
X16282724Y-13218924D01*
X16282724Y-13218924D02*
X16406534Y-13218924D01*
X16644629Y-13218924D02*
X16644629Y-13018924D01*
X16730343Y-13218924D02*
X16730343Y-13114162D01*
X16730343Y-13114162D02*
X16720819Y-13095114D01*
X16720819Y-13095114D02*
X16701772Y-13085590D01*
X16701772Y-13085590D02*
X16673200Y-13085590D01*
X16673200Y-13085590D02*
X16654153Y-13095114D01*
X16654153Y-13095114D02*
X16644629Y-13104638D01*
X16854153Y-13218924D02*
X16835105Y-13209400D01*
X16835105Y-13209400D02*
X16825581Y-13199876D01*
X16825581Y-13199876D02*
X16816058Y-13180828D01*
X16816058Y-13180828D02*
X16816058Y-13123686D01*
X16816058Y-13123686D02*
X16825581Y-13104638D01*
X16825581Y-13104638D02*
X16835105Y-13095114D01*
X16835105Y-13095114D02*
X16854153Y-13085590D01*
X16854153Y-13085590D02*
X16882724Y-13085590D01*
X16882724Y-13085590D02*
X16901772Y-13095114D01*
X16901772Y-13095114D02*
X16911296Y-13104638D01*
X16911296Y-13104638D02*
X16920819Y-13123686D01*
X16920819Y-13123686D02*
X16920819Y-13180828D01*
X16920819Y-13180828D02*
X16911296Y-13199876D01*
X16911296Y-13199876D02*
X16901772Y-13209400D01*
X16901772Y-13209400D02*
X16882724Y-13218924D01*
X16882724Y-13218924D02*
X16854153Y-13218924D01*
X17035105Y-13218924D02*
X17016058Y-13209400D01*
X17016058Y-13209400D02*
X17006534Y-13190352D01*
X17006534Y-13190352D02*
X17006534Y-13018924D01*
X17187486Y-13209400D02*
X17168439Y-13218924D01*
X17168439Y-13218924D02*
X17130343Y-13218924D01*
X17130343Y-13218924D02*
X17111296Y-13209400D01*
X17111296Y-13209400D02*
X17101772Y-13190352D01*
X17101772Y-13190352D02*
X17101772Y-13114162D01*
X17101772Y-13114162D02*
X17111296Y-13095114D01*
X17111296Y-13095114D02*
X17130343Y-13085590D01*
X17130343Y-13085590D02*
X17168439Y-13085590D01*
X17168439Y-13085590D02*
X17187486Y-13095114D01*
X17187486Y-13095114D02*
X17197010Y-13114162D01*
X17197010Y-13114162D02*
X17197010Y-13133209D01*
X17197010Y-13133209D02*
X17101772Y-13152257D01*
X17273200Y-13209400D02*
X17292248Y-13218924D01*
X17292248Y-13218924D02*
X17330343Y-13218924D01*
X17330343Y-13218924D02*
X17349391Y-13209400D01*
X17349391Y-13209400D02*
X17358915Y-13190352D01*
X17358915Y-13190352D02*
X17358915Y-13180828D01*
X17358915Y-13180828D02*
X17349391Y-13161781D01*
X17349391Y-13161781D02*
X17330343Y-13152257D01*
X17330343Y-13152257D02*
X17301772Y-13152257D01*
X17301772Y-13152257D02*
X17282724Y-13142733D01*
X17282724Y-13142733D02*
X17273200Y-13123686D01*
X17273200Y-13123686D02*
X17273200Y-13114162D01*
X17273200Y-13114162D02*
X17282724Y-13095114D01*
X17282724Y-13095114D02*
X17301772Y-13085590D01*
X17301772Y-13085590D02*
X17330343Y-13085590D01*
X17330343Y-13085590D02*
X17349391Y-13095114D01*
X17425581Y-13295114D02*
X17435105Y-13285590D01*
X17435105Y-13285590D02*
X17454153Y-13257019D01*
X17454153Y-13257019D02*
X17463677Y-13237971D01*
X17463677Y-13237971D02*
X17473200Y-13209400D01*
X17473200Y-13209400D02*
X17482724Y-13161781D01*
X17482724Y-13161781D02*
X17482724Y-13123686D01*
X17482724Y-13123686D02*
X17473200Y-13076067D01*
X17473200Y-13076067D02*
X17463677Y-13047495D01*
X17463677Y-13047495D02*
X17454153Y-13028448D01*
X17454153Y-13028448D02*
X17435105Y-12999876D01*
X17435105Y-12999876D02*
X17425581Y-12990352D01*
D13*
X12443200Y-13360400D02*
X12443200Y-13420400D01*
X12413200Y-13390400D02*
X12473200Y-13390400D01*
D11*
X12758914Y-13282924D02*
X12777962Y-13282924D01*
X12777962Y-13282924D02*
X12797009Y-13292448D01*
X12797009Y-13292448D02*
X12806533Y-13301971D01*
X12806533Y-13301971D02*
X12816057Y-13321019D01*
X12816057Y-13321019D02*
X12825581Y-13359114D01*
X12825581Y-13359114D02*
X12825581Y-13406733D01*
X12825581Y-13406733D02*
X12816057Y-13444828D01*
X12816057Y-13444828D02*
X12806533Y-13463876D01*
X12806533Y-13463876D02*
X12797009Y-13473400D01*
X12797009Y-13473400D02*
X12777962Y-13482924D01*
X12777962Y-13482924D02*
X12758914Y-13482924D01*
X12758914Y-13482924D02*
X12739867Y-13473400D01*
X12739867Y-13473400D02*
X12730343Y-13463876D01*
X12730343Y-13463876D02*
X12720819Y-13444828D01*
X12720819Y-13444828D02*
X12711295Y-13406733D01*
X12711295Y-13406733D02*
X12711295Y-13359114D01*
X12711295Y-13359114D02*
X12720819Y-13321019D01*
X12720819Y-13321019D02*
X12730343Y-13301971D01*
X12730343Y-13301971D02*
X12739867Y-13292448D01*
X12739867Y-13292448D02*
X12758914Y-13282924D01*
X12911295Y-13463876D02*
X12920819Y-13473400D01*
X12920819Y-13473400D02*
X12911295Y-13482924D01*
X12911295Y-13482924D02*
X12901771Y-13473400D01*
X12901771Y-13473400D02*
X12911295Y-13463876D01*
X12911295Y-13463876D02*
X12911295Y-13482924D01*
X13092248Y-13282924D02*
X13054152Y-13282924D01*
X13054152Y-13282924D02*
X13035105Y-13292448D01*
X13035105Y-13292448D02*
X13025581Y-13301971D01*
X13025581Y-13301971D02*
X13006533Y-13330543D01*
X13006533Y-13330543D02*
X12997009Y-13368638D01*
X12997009Y-13368638D02*
X12997009Y-13444828D01*
X12997009Y-13444828D02*
X13006533Y-13463876D01*
X13006533Y-13463876D02*
X13016057Y-13473400D01*
X13016057Y-13473400D02*
X13035105Y-13482924D01*
X13035105Y-13482924D02*
X13073200Y-13482924D01*
X13073200Y-13482924D02*
X13092248Y-13473400D01*
X13092248Y-13473400D02*
X13101771Y-13463876D01*
X13101771Y-13463876D02*
X13111295Y-13444828D01*
X13111295Y-13444828D02*
X13111295Y-13397209D01*
X13111295Y-13397209D02*
X13101771Y-13378162D01*
X13101771Y-13378162D02*
X13092248Y-13368638D01*
X13092248Y-13368638D02*
X13073200Y-13359114D01*
X13073200Y-13359114D02*
X13035105Y-13359114D01*
X13035105Y-13359114D02*
X13016057Y-13368638D01*
X13016057Y-13368638D02*
X13006533Y-13378162D01*
X13006533Y-13378162D02*
X12997009Y-13397209D01*
X13235105Y-13282924D02*
X13254152Y-13282924D01*
X13254152Y-13282924D02*
X13273200Y-13292448D01*
X13273200Y-13292448D02*
X13282724Y-13301971D01*
X13282724Y-13301971D02*
X13292248Y-13321019D01*
X13292248Y-13321019D02*
X13301771Y-13359114D01*
X13301771Y-13359114D02*
X13301771Y-13406733D01*
X13301771Y-13406733D02*
X13292248Y-13444828D01*
X13292248Y-13444828D02*
X13282724Y-13463876D01*
X13282724Y-13463876D02*
X13273200Y-13473400D01*
X13273200Y-13473400D02*
X13254152Y-13482924D01*
X13254152Y-13482924D02*
X13235105Y-13482924D01*
X13235105Y-13482924D02*
X13216057Y-13473400D01*
X13216057Y-13473400D02*
X13206533Y-13463876D01*
X13206533Y-13463876D02*
X13197009Y-13444828D01*
X13197009Y-13444828D02*
X13187486Y-13406733D01*
X13187486Y-13406733D02*
X13187486Y-13359114D01*
X13187486Y-13359114D02*
X13197009Y-13321019D01*
X13197009Y-13321019D02*
X13206533Y-13301971D01*
X13206533Y-13301971D02*
X13216057Y-13292448D01*
X13216057Y-13292448D02*
X13235105Y-13282924D01*
X13425581Y-13282924D02*
X13444629Y-13282924D01*
X13444629Y-13282924D02*
X13463676Y-13292448D01*
X13463676Y-13292448D02*
X13473200Y-13301971D01*
X13473200Y-13301971D02*
X13482724Y-13321019D01*
X13482724Y-13321019D02*
X13492248Y-13359114D01*
X13492248Y-13359114D02*
X13492248Y-13406733D01*
X13492248Y-13406733D02*
X13482724Y-13444828D01*
X13482724Y-13444828D02*
X13473200Y-13463876D01*
X13473200Y-13463876D02*
X13463676Y-13473400D01*
X13463676Y-13473400D02*
X13444629Y-13482924D01*
X13444629Y-13482924D02*
X13425581Y-13482924D01*
X13425581Y-13482924D02*
X13406533Y-13473400D01*
X13406533Y-13473400D02*
X13397009Y-13463876D01*
X13397009Y-13463876D02*
X13387486Y-13444828D01*
X13387486Y-13444828D02*
X13377962Y-13406733D01*
X13377962Y-13406733D02*
X13377962Y-13359114D01*
X13377962Y-13359114D02*
X13387486Y-13321019D01*
X13387486Y-13321019D02*
X13397009Y-13301971D01*
X13397009Y-13301971D02*
X13406533Y-13292448D01*
X13406533Y-13292448D02*
X13425581Y-13282924D01*
X13577962Y-13482924D02*
X13577962Y-13349590D01*
X13577962Y-13368638D02*
X13587486Y-13359114D01*
X13587486Y-13359114D02*
X13606533Y-13349590D01*
X13606533Y-13349590D02*
X13635105Y-13349590D01*
X13635105Y-13349590D02*
X13654152Y-13359114D01*
X13654152Y-13359114D02*
X13663676Y-13378162D01*
X13663676Y-13378162D02*
X13663676Y-13482924D01*
X13663676Y-13378162D02*
X13673200Y-13359114D01*
X13673200Y-13359114D02*
X13692248Y-13349590D01*
X13692248Y-13349590D02*
X13720819Y-13349590D01*
X13720819Y-13349590D02*
X13739867Y-13359114D01*
X13739867Y-13359114D02*
X13749390Y-13378162D01*
X13749390Y-13378162D02*
X13749390Y-13482924D01*
X13844629Y-13482924D02*
X13844629Y-13349590D01*
X13844629Y-13368638D02*
X13854152Y-13359114D01*
X13854152Y-13359114D02*
X13873200Y-13349590D01*
X13873200Y-13349590D02*
X13901771Y-13349590D01*
X13901771Y-13349590D02*
X13920819Y-13359114D01*
X13920819Y-13359114D02*
X13930343Y-13378162D01*
X13930343Y-13378162D02*
X13930343Y-13482924D01*
X13930343Y-13378162D02*
X13939867Y-13359114D01*
X13939867Y-13359114D02*
X13958914Y-13349590D01*
X13958914Y-13349590D02*
X13987486Y-13349590D01*
X13987486Y-13349590D02*
X14006533Y-13359114D01*
X14006533Y-13359114D02*
X14016057Y-13378162D01*
X14016057Y-13378162D02*
X14016057Y-13482924D01*
X14406533Y-13273400D02*
X14235105Y-13530543D01*
X14663676Y-13282924D02*
X14682724Y-13282924D01*
X14682724Y-13282924D02*
X14701772Y-13292448D01*
X14701772Y-13292448D02*
X14711295Y-13301971D01*
X14711295Y-13301971D02*
X14720819Y-13321019D01*
X14720819Y-13321019D02*
X14730343Y-13359114D01*
X14730343Y-13359114D02*
X14730343Y-13406733D01*
X14730343Y-13406733D02*
X14720819Y-13444828D01*
X14720819Y-13444828D02*
X14711295Y-13463876D01*
X14711295Y-13463876D02*
X14701772Y-13473400D01*
X14701772Y-13473400D02*
X14682724Y-13482924D01*
X14682724Y-13482924D02*
X14663676Y-13482924D01*
X14663676Y-13482924D02*
X14644629Y-13473400D01*
X14644629Y-13473400D02*
X14635105Y-13463876D01*
X14635105Y-13463876D02*
X14625581Y-13444828D01*
X14625581Y-13444828D02*
X14616057Y-13406733D01*
X14616057Y-13406733D02*
X14616057Y-13359114D01*
X14616057Y-13359114D02*
X14625581Y-13321019D01*
X14625581Y-13321019D02*
X14635105Y-13301971D01*
X14635105Y-13301971D02*
X14644629Y-13292448D01*
X14644629Y-13292448D02*
X14663676Y-13282924D01*
X14816057Y-13463876D02*
X14825581Y-13473400D01*
X14825581Y-13473400D02*
X14816057Y-13482924D01*
X14816057Y-13482924D02*
X14806533Y-13473400D01*
X14806533Y-13473400D02*
X14816057Y-13463876D01*
X14816057Y-13463876D02*
X14816057Y-13482924D01*
X14949391Y-13282924D02*
X14968438Y-13282924D01*
X14968438Y-13282924D02*
X14987486Y-13292448D01*
X14987486Y-13292448D02*
X14997010Y-13301971D01*
X14997010Y-13301971D02*
X15006533Y-13321019D01*
X15006533Y-13321019D02*
X15016057Y-13359114D01*
X15016057Y-13359114D02*
X15016057Y-13406733D01*
X15016057Y-13406733D02*
X15006533Y-13444828D01*
X15006533Y-13444828D02*
X14997010Y-13463876D01*
X14997010Y-13463876D02*
X14987486Y-13473400D01*
X14987486Y-13473400D02*
X14968438Y-13482924D01*
X14968438Y-13482924D02*
X14949391Y-13482924D01*
X14949391Y-13482924D02*
X14930343Y-13473400D01*
X14930343Y-13473400D02*
X14920819Y-13463876D01*
X14920819Y-13463876D02*
X14911295Y-13444828D01*
X14911295Y-13444828D02*
X14901772Y-13406733D01*
X14901772Y-13406733D02*
X14901772Y-13359114D01*
X14901772Y-13359114D02*
X14911295Y-13321019D01*
X14911295Y-13321019D02*
X14920819Y-13301971D01*
X14920819Y-13301971D02*
X14930343Y-13292448D01*
X14930343Y-13292448D02*
X14949391Y-13282924D01*
X15092248Y-13301971D02*
X15101772Y-13292448D01*
X15101772Y-13292448D02*
X15120819Y-13282924D01*
X15120819Y-13282924D02*
X15168438Y-13282924D01*
X15168438Y-13282924D02*
X15187486Y-13292448D01*
X15187486Y-13292448D02*
X15197010Y-13301971D01*
X15197010Y-13301971D02*
X15206533Y-13321019D01*
X15206533Y-13321019D02*
X15206533Y-13340067D01*
X15206533Y-13340067D02*
X15197010Y-13368638D01*
X15197010Y-13368638D02*
X15082724Y-13482924D01*
X15082724Y-13482924D02*
X15206533Y-13482924D01*
X15273200Y-13282924D02*
X15397010Y-13282924D01*
X15397010Y-13282924D02*
X15330343Y-13359114D01*
X15330343Y-13359114D02*
X15358914Y-13359114D01*
X15358914Y-13359114D02*
X15377962Y-13368638D01*
X15377962Y-13368638D02*
X15387486Y-13378162D01*
X15387486Y-13378162D02*
X15397010Y-13397209D01*
X15397010Y-13397209D02*
X15397010Y-13444828D01*
X15397010Y-13444828D02*
X15387486Y-13463876D01*
X15387486Y-13463876D02*
X15377962Y-13473400D01*
X15377962Y-13473400D02*
X15358914Y-13482924D01*
X15358914Y-13482924D02*
X15301772Y-13482924D01*
X15301772Y-13482924D02*
X15282724Y-13473400D01*
X15282724Y-13473400D02*
X15273200Y-13463876D01*
X15568438Y-13282924D02*
X15530343Y-13282924D01*
X15530343Y-13282924D02*
X15511295Y-13292448D01*
X15511295Y-13292448D02*
X15501772Y-13301971D01*
X15501772Y-13301971D02*
X15482724Y-13330543D01*
X15482724Y-13330543D02*
X15473200Y-13368638D01*
X15473200Y-13368638D02*
X15473200Y-13444828D01*
X15473200Y-13444828D02*
X15482724Y-13463876D01*
X15482724Y-13463876D02*
X15492248Y-13473400D01*
X15492248Y-13473400D02*
X15511295Y-13482924D01*
X15511295Y-13482924D02*
X15549391Y-13482924D01*
X15549391Y-13482924D02*
X15568438Y-13473400D01*
X15568438Y-13473400D02*
X15577962Y-13463876D01*
X15577962Y-13463876D02*
X15587486Y-13444828D01*
X15587486Y-13444828D02*
X15587486Y-13397209D01*
X15587486Y-13397209D02*
X15577962Y-13378162D01*
X15577962Y-13378162D02*
X15568438Y-13368638D01*
X15568438Y-13368638D02*
X15549391Y-13359114D01*
X15549391Y-13359114D02*
X15511295Y-13359114D01*
X15511295Y-13359114D02*
X15492248Y-13368638D01*
X15492248Y-13368638D02*
X15482724Y-13378162D01*
X15482724Y-13378162D02*
X15473200Y-13397209D01*
X15663676Y-13282924D02*
X15663676Y-13321019D01*
X15739867Y-13282924D02*
X15739867Y-13321019D01*
X16035105Y-13559114D02*
X16025581Y-13549590D01*
X16025581Y-13549590D02*
X16006534Y-13521019D01*
X16006534Y-13521019D02*
X15997010Y-13501971D01*
X15997010Y-13501971D02*
X15987486Y-13473400D01*
X15987486Y-13473400D02*
X15977962Y-13425781D01*
X15977962Y-13425781D02*
X15977962Y-13387686D01*
X15977962Y-13387686D02*
X15987486Y-13340067D01*
X15987486Y-13340067D02*
X15997010Y-13311495D01*
X15997010Y-13311495D02*
X16006534Y-13292448D01*
X16006534Y-13292448D02*
X16025581Y-13263876D01*
X16025581Y-13263876D02*
X16035105Y-13254352D01*
X16149391Y-13282924D02*
X16168438Y-13282924D01*
X16168438Y-13282924D02*
X16187486Y-13292448D01*
X16187486Y-13292448D02*
X16197010Y-13301971D01*
X16197010Y-13301971D02*
X16206534Y-13321019D01*
X16206534Y-13321019D02*
X16216057Y-13359114D01*
X16216057Y-13359114D02*
X16216057Y-13406733D01*
X16216057Y-13406733D02*
X16206534Y-13444828D01*
X16206534Y-13444828D02*
X16197010Y-13463876D01*
X16197010Y-13463876D02*
X16187486Y-13473400D01*
X16187486Y-13473400D02*
X16168438Y-13482924D01*
X16168438Y-13482924D02*
X16149391Y-13482924D01*
X16149391Y-13482924D02*
X16130343Y-13473400D01*
X16130343Y-13473400D02*
X16120819Y-13463876D01*
X16120819Y-13463876D02*
X16111295Y-13444828D01*
X16111295Y-13444828D02*
X16101772Y-13406733D01*
X16101772Y-13406733D02*
X16101772Y-13359114D01*
X16101772Y-13359114D02*
X16111295Y-13321019D01*
X16111295Y-13321019D02*
X16120819Y-13301971D01*
X16120819Y-13301971D02*
X16130343Y-13292448D01*
X16130343Y-13292448D02*
X16149391Y-13282924D01*
X16454153Y-13482924D02*
X16454153Y-13282924D01*
X16539867Y-13482924D02*
X16539867Y-13378162D01*
X16539867Y-13378162D02*
X16530343Y-13359114D01*
X16530343Y-13359114D02*
X16511296Y-13349590D01*
X16511296Y-13349590D02*
X16482724Y-13349590D01*
X16482724Y-13349590D02*
X16463676Y-13359114D01*
X16463676Y-13359114D02*
X16454153Y-13368638D01*
X16663676Y-13482924D02*
X16644629Y-13473400D01*
X16644629Y-13473400D02*
X16635105Y-13463876D01*
X16635105Y-13463876D02*
X16625581Y-13444828D01*
X16625581Y-13444828D02*
X16625581Y-13387686D01*
X16625581Y-13387686D02*
X16635105Y-13368638D01*
X16635105Y-13368638D02*
X16644629Y-13359114D01*
X16644629Y-13359114D02*
X16663676Y-13349590D01*
X16663676Y-13349590D02*
X16692248Y-13349590D01*
X16692248Y-13349590D02*
X16711296Y-13359114D01*
X16711296Y-13359114D02*
X16720819Y-13368638D01*
X16720819Y-13368638D02*
X16730343Y-13387686D01*
X16730343Y-13387686D02*
X16730343Y-13444828D01*
X16730343Y-13444828D02*
X16720819Y-13463876D01*
X16720819Y-13463876D02*
X16711296Y-13473400D01*
X16711296Y-13473400D02*
X16692248Y-13482924D01*
X16692248Y-13482924D02*
X16663676Y-13482924D01*
X16844629Y-13482924D02*
X16825581Y-13473400D01*
X16825581Y-13473400D02*
X16816058Y-13454352D01*
X16816058Y-13454352D02*
X16816058Y-13282924D01*
X16997010Y-13473400D02*
X16977962Y-13482924D01*
X16977962Y-13482924D02*
X16939867Y-13482924D01*
X16939867Y-13482924D02*
X16920819Y-13473400D01*
X16920819Y-13473400D02*
X16911296Y-13454352D01*
X16911296Y-13454352D02*
X16911296Y-13378162D01*
X16911296Y-13378162D02*
X16920819Y-13359114D01*
X16920819Y-13359114D02*
X16939867Y-13349590D01*
X16939867Y-13349590D02*
X16977962Y-13349590D01*
X16977962Y-13349590D02*
X16997010Y-13359114D01*
X16997010Y-13359114D02*
X17006534Y-13378162D01*
X17006534Y-13378162D02*
X17006534Y-13397209D01*
X17006534Y-13397209D02*
X16911296Y-13416257D01*
X17082724Y-13473400D02*
X17101772Y-13482924D01*
X17101772Y-13482924D02*
X17139867Y-13482924D01*
X17139867Y-13482924D02*
X17158915Y-13473400D01*
X17158915Y-13473400D02*
X17168439Y-13454352D01*
X17168439Y-13454352D02*
X17168439Y-13444828D01*
X17168439Y-13444828D02*
X17158915Y-13425781D01*
X17158915Y-13425781D02*
X17139867Y-13416257D01*
X17139867Y-13416257D02*
X17111296Y-13416257D01*
X17111296Y-13416257D02*
X17092248Y-13406733D01*
X17092248Y-13406733D02*
X17082724Y-13387686D01*
X17082724Y-13387686D02*
X17082724Y-13378162D01*
X17082724Y-13378162D02*
X17092248Y-13359114D01*
X17092248Y-13359114D02*
X17111296Y-13349590D01*
X17111296Y-13349590D02*
X17139867Y-13349590D01*
X17139867Y-13349590D02*
X17158915Y-13359114D01*
X17406534Y-13406733D02*
X17558915Y-13406733D01*
X17482724Y-13482924D02*
X17482724Y-13330543D01*
X17892248Y-13349590D02*
X17892248Y-13482924D01*
X17844629Y-13273400D02*
X17797010Y-13416257D01*
X17797010Y-13416257D02*
X17920820Y-13416257D01*
X18139867Y-13473400D02*
X18158915Y-13482924D01*
X18158915Y-13482924D02*
X18197010Y-13482924D01*
X18197010Y-13482924D02*
X18216058Y-13473400D01*
X18216058Y-13473400D02*
X18225582Y-13454352D01*
X18225582Y-13454352D02*
X18225582Y-13444828D01*
X18225582Y-13444828D02*
X18216058Y-13425781D01*
X18216058Y-13425781D02*
X18197010Y-13416257D01*
X18197010Y-13416257D02*
X18168439Y-13416257D01*
X18168439Y-13416257D02*
X18149391Y-13406733D01*
X18149391Y-13406733D02*
X18139867Y-13387686D01*
X18139867Y-13387686D02*
X18139867Y-13378162D01*
X18139867Y-13378162D02*
X18149391Y-13359114D01*
X18149391Y-13359114D02*
X18168439Y-13349590D01*
X18168439Y-13349590D02*
X18197010Y-13349590D01*
X18197010Y-13349590D02*
X18216058Y-13359114D01*
X18339867Y-13482924D02*
X18320820Y-13473400D01*
X18320820Y-13473400D02*
X18311296Y-13454352D01*
X18311296Y-13454352D02*
X18311296Y-13282924D01*
X18444629Y-13482924D02*
X18425582Y-13473400D01*
X18425582Y-13473400D02*
X18416058Y-13463876D01*
X18416058Y-13463876D02*
X18406534Y-13444828D01*
X18406534Y-13444828D02*
X18406534Y-13387686D01*
X18406534Y-13387686D02*
X18416058Y-13368638D01*
X18416058Y-13368638D02*
X18425582Y-13359114D01*
X18425582Y-13359114D02*
X18444629Y-13349590D01*
X18444629Y-13349590D02*
X18473201Y-13349590D01*
X18473201Y-13349590D02*
X18492248Y-13359114D01*
X18492248Y-13359114D02*
X18501772Y-13368638D01*
X18501772Y-13368638D02*
X18511296Y-13387686D01*
X18511296Y-13387686D02*
X18511296Y-13444828D01*
X18511296Y-13444828D02*
X18501772Y-13463876D01*
X18501772Y-13463876D02*
X18492248Y-13473400D01*
X18492248Y-13473400D02*
X18473201Y-13482924D01*
X18473201Y-13482924D02*
X18444629Y-13482924D01*
X18568439Y-13349590D02*
X18644629Y-13349590D01*
X18597010Y-13282924D02*
X18597010Y-13454352D01*
X18597010Y-13454352D02*
X18606534Y-13473400D01*
X18606534Y-13473400D02*
X18625582Y-13482924D01*
X18625582Y-13482924D02*
X18644629Y-13482924D01*
X18701772Y-13473400D02*
X18720820Y-13482924D01*
X18720820Y-13482924D02*
X18758915Y-13482924D01*
X18758915Y-13482924D02*
X18777963Y-13473400D01*
X18777963Y-13473400D02*
X18787486Y-13454352D01*
X18787486Y-13454352D02*
X18787486Y-13444828D01*
X18787486Y-13444828D02*
X18777963Y-13425781D01*
X18777963Y-13425781D02*
X18758915Y-13416257D01*
X18758915Y-13416257D02*
X18730343Y-13416257D01*
X18730343Y-13416257D02*
X18711296Y-13406733D01*
X18711296Y-13406733D02*
X18701772Y-13387686D01*
X18701772Y-13387686D02*
X18701772Y-13378162D01*
X18701772Y-13378162D02*
X18711296Y-13359114D01*
X18711296Y-13359114D02*
X18730343Y-13349590D01*
X18730343Y-13349590D02*
X18758915Y-13349590D01*
X18758915Y-13349590D02*
X18777963Y-13359114D01*
X18854153Y-13559114D02*
X18863677Y-13549590D01*
X18863677Y-13549590D02*
X18882724Y-13521019D01*
X18882724Y-13521019D02*
X18892248Y-13501971D01*
X18892248Y-13501971D02*
X18901772Y-13473400D01*
X18901772Y-13473400D02*
X18911296Y-13425781D01*
X18911296Y-13425781D02*
X18911296Y-13387686D01*
X18911296Y-13387686D02*
X18901772Y-13340067D01*
X18901772Y-13340067D02*
X18892248Y-13311495D01*
X18892248Y-13311495D02*
X18882724Y-13292448D01*
X18882724Y-13292448D02*
X18863677Y-13263876D01*
X18863677Y-13263876D02*
X18854153Y-13254352D01*
D10*
X12458556Y-13689756D02*
X12458556Y-13619044D01*
X12387844Y-13619044D01*
X12387844Y-13689756D01*
X12458556Y-13689756D01*
D11*
X12825581Y-13746924D02*
X12711295Y-13746924D01*
X12768438Y-13746924D02*
X12768438Y-13546924D01*
X12768438Y-13546924D02*
X12749390Y-13575495D01*
X12749390Y-13575495D02*
X12730343Y-13594543D01*
X12730343Y-13594543D02*
X12711295Y-13604067D01*
X12911295Y-13727876D02*
X12920819Y-13737400D01*
X12920819Y-13737400D02*
X12911295Y-13746924D01*
X12911295Y-13746924D02*
X12901771Y-13737400D01*
X12901771Y-13737400D02*
X12911295Y-13727876D01*
X12911295Y-13727876D02*
X12911295Y-13746924D01*
X13044628Y-13546924D02*
X13063676Y-13546924D01*
X13063676Y-13546924D02*
X13082724Y-13556448D01*
X13082724Y-13556448D02*
X13092248Y-13565971D01*
X13092248Y-13565971D02*
X13101771Y-13585019D01*
X13101771Y-13585019D02*
X13111295Y-13623114D01*
X13111295Y-13623114D02*
X13111295Y-13670733D01*
X13111295Y-13670733D02*
X13101771Y-13708828D01*
X13101771Y-13708828D02*
X13092248Y-13727876D01*
X13092248Y-13727876D02*
X13082724Y-13737400D01*
X13082724Y-13737400D02*
X13063676Y-13746924D01*
X13063676Y-13746924D02*
X13044628Y-13746924D01*
X13044628Y-13746924D02*
X13025581Y-13737400D01*
X13025581Y-13737400D02*
X13016057Y-13727876D01*
X13016057Y-13727876D02*
X13006533Y-13708828D01*
X13006533Y-13708828D02*
X12997009Y-13670733D01*
X12997009Y-13670733D02*
X12997009Y-13623114D01*
X12997009Y-13623114D02*
X13006533Y-13585019D01*
X13006533Y-13585019D02*
X13016057Y-13565971D01*
X13016057Y-13565971D02*
X13025581Y-13556448D01*
X13025581Y-13556448D02*
X13044628Y-13546924D01*
X13235105Y-13546924D02*
X13254152Y-13546924D01*
X13254152Y-13546924D02*
X13273200Y-13556448D01*
X13273200Y-13556448D02*
X13282724Y-13565971D01*
X13282724Y-13565971D02*
X13292248Y-13585019D01*
X13292248Y-13585019D02*
X13301771Y-13623114D01*
X13301771Y-13623114D02*
X13301771Y-13670733D01*
X13301771Y-13670733D02*
X13292248Y-13708828D01*
X13292248Y-13708828D02*
X13282724Y-13727876D01*
X13282724Y-13727876D02*
X13273200Y-13737400D01*
X13273200Y-13737400D02*
X13254152Y-13746924D01*
X13254152Y-13746924D02*
X13235105Y-13746924D01*
X13235105Y-13746924D02*
X13216057Y-13737400D01*
X13216057Y-13737400D02*
X13206533Y-13727876D01*
X13206533Y-13727876D02*
X13197009Y-13708828D01*
X13197009Y-13708828D02*
X13187486Y-13670733D01*
X13187486Y-13670733D02*
X13187486Y-13623114D01*
X13187486Y-13623114D02*
X13197009Y-13585019D01*
X13197009Y-13585019D02*
X13206533Y-13565971D01*
X13206533Y-13565971D02*
X13216057Y-13556448D01*
X13216057Y-13556448D02*
X13235105Y-13546924D01*
X13425581Y-13546924D02*
X13444629Y-13546924D01*
X13444629Y-13546924D02*
X13463676Y-13556448D01*
X13463676Y-13556448D02*
X13473200Y-13565971D01*
X13473200Y-13565971D02*
X13482724Y-13585019D01*
X13482724Y-13585019D02*
X13492248Y-13623114D01*
X13492248Y-13623114D02*
X13492248Y-13670733D01*
X13492248Y-13670733D02*
X13482724Y-13708828D01*
X13482724Y-13708828D02*
X13473200Y-13727876D01*
X13473200Y-13727876D02*
X13463676Y-13737400D01*
X13463676Y-13737400D02*
X13444629Y-13746924D01*
X13444629Y-13746924D02*
X13425581Y-13746924D01*
X13425581Y-13746924D02*
X13406533Y-13737400D01*
X13406533Y-13737400D02*
X13397009Y-13727876D01*
X13397009Y-13727876D02*
X13387486Y-13708828D01*
X13387486Y-13708828D02*
X13377962Y-13670733D01*
X13377962Y-13670733D02*
X13377962Y-13623114D01*
X13377962Y-13623114D02*
X13387486Y-13585019D01*
X13387486Y-13585019D02*
X13397009Y-13565971D01*
X13397009Y-13565971D02*
X13406533Y-13556448D01*
X13406533Y-13556448D02*
X13425581Y-13546924D01*
X13577962Y-13746924D02*
X13577962Y-13613590D01*
X13577962Y-13632638D02*
X13587486Y-13623114D01*
X13587486Y-13623114D02*
X13606533Y-13613590D01*
X13606533Y-13613590D02*
X13635105Y-13613590D01*
X13635105Y-13613590D02*
X13654152Y-13623114D01*
X13654152Y-13623114D02*
X13663676Y-13642162D01*
X13663676Y-13642162D02*
X13663676Y-13746924D01*
X13663676Y-13642162D02*
X13673200Y-13623114D01*
X13673200Y-13623114D02*
X13692248Y-13613590D01*
X13692248Y-13613590D02*
X13720819Y-13613590D01*
X13720819Y-13613590D02*
X13739867Y-13623114D01*
X13739867Y-13623114D02*
X13749390Y-13642162D01*
X13749390Y-13642162D02*
X13749390Y-13746924D01*
X13844629Y-13746924D02*
X13844629Y-13613590D01*
X13844629Y-13632638D02*
X13854152Y-13623114D01*
X13854152Y-13623114D02*
X13873200Y-13613590D01*
X13873200Y-13613590D02*
X13901771Y-13613590D01*
X13901771Y-13613590D02*
X13920819Y-13623114D01*
X13920819Y-13623114D02*
X13930343Y-13642162D01*
X13930343Y-13642162D02*
X13930343Y-13746924D01*
X13930343Y-13642162D02*
X13939867Y-13623114D01*
X13939867Y-13623114D02*
X13958914Y-13613590D01*
X13958914Y-13613590D02*
X13987486Y-13613590D01*
X13987486Y-13613590D02*
X14006533Y-13623114D01*
X14006533Y-13623114D02*
X14016057Y-13642162D01*
X14016057Y-13642162D02*
X14016057Y-13746924D01*
X14406533Y-13537400D02*
X14235105Y-13794543D01*
X14663676Y-13546924D02*
X14682724Y-13546924D01*
X14682724Y-13546924D02*
X14701772Y-13556448D01*
X14701772Y-13556448D02*
X14711295Y-13565971D01*
X14711295Y-13565971D02*
X14720819Y-13585019D01*
X14720819Y-13585019D02*
X14730343Y-13623114D01*
X14730343Y-13623114D02*
X14730343Y-13670733D01*
X14730343Y-13670733D02*
X14720819Y-13708828D01*
X14720819Y-13708828D02*
X14711295Y-13727876D01*
X14711295Y-13727876D02*
X14701772Y-13737400D01*
X14701772Y-13737400D02*
X14682724Y-13746924D01*
X14682724Y-13746924D02*
X14663676Y-13746924D01*
X14663676Y-13746924D02*
X14644629Y-13737400D01*
X14644629Y-13737400D02*
X14635105Y-13727876D01*
X14635105Y-13727876D02*
X14625581Y-13708828D01*
X14625581Y-13708828D02*
X14616057Y-13670733D01*
X14616057Y-13670733D02*
X14616057Y-13623114D01*
X14616057Y-13623114D02*
X14625581Y-13585019D01*
X14625581Y-13585019D02*
X14635105Y-13565971D01*
X14635105Y-13565971D02*
X14644629Y-13556448D01*
X14644629Y-13556448D02*
X14663676Y-13546924D01*
X14816057Y-13727876D02*
X14825581Y-13737400D01*
X14825581Y-13737400D02*
X14816057Y-13746924D01*
X14816057Y-13746924D02*
X14806533Y-13737400D01*
X14806533Y-13737400D02*
X14816057Y-13727876D01*
X14816057Y-13727876D02*
X14816057Y-13746924D01*
X14949391Y-13546924D02*
X14968438Y-13546924D01*
X14968438Y-13546924D02*
X14987486Y-13556448D01*
X14987486Y-13556448D02*
X14997010Y-13565971D01*
X14997010Y-13565971D02*
X15006533Y-13585019D01*
X15006533Y-13585019D02*
X15016057Y-13623114D01*
X15016057Y-13623114D02*
X15016057Y-13670733D01*
X15016057Y-13670733D02*
X15006533Y-13708828D01*
X15006533Y-13708828D02*
X14997010Y-13727876D01*
X14997010Y-13727876D02*
X14987486Y-13737400D01*
X14987486Y-13737400D02*
X14968438Y-13746924D01*
X14968438Y-13746924D02*
X14949391Y-13746924D01*
X14949391Y-13746924D02*
X14930343Y-13737400D01*
X14930343Y-13737400D02*
X14920819Y-13727876D01*
X14920819Y-13727876D02*
X14911295Y-13708828D01*
X14911295Y-13708828D02*
X14901772Y-13670733D01*
X14901772Y-13670733D02*
X14901772Y-13623114D01*
X14901772Y-13623114D02*
X14911295Y-13585019D01*
X14911295Y-13585019D02*
X14920819Y-13565971D01*
X14920819Y-13565971D02*
X14930343Y-13556448D01*
X14930343Y-13556448D02*
X14949391Y-13546924D01*
X15082724Y-13546924D02*
X15206533Y-13546924D01*
X15206533Y-13546924D02*
X15139867Y-13623114D01*
X15139867Y-13623114D02*
X15168438Y-13623114D01*
X15168438Y-13623114D02*
X15187486Y-13632638D01*
X15187486Y-13632638D02*
X15197010Y-13642162D01*
X15197010Y-13642162D02*
X15206533Y-13661209D01*
X15206533Y-13661209D02*
X15206533Y-13708828D01*
X15206533Y-13708828D02*
X15197010Y-13727876D01*
X15197010Y-13727876D02*
X15187486Y-13737400D01*
X15187486Y-13737400D02*
X15168438Y-13746924D01*
X15168438Y-13746924D02*
X15111295Y-13746924D01*
X15111295Y-13746924D02*
X15092248Y-13737400D01*
X15092248Y-13737400D02*
X15082724Y-13727876D01*
X15301772Y-13746924D02*
X15339867Y-13746924D01*
X15339867Y-13746924D02*
X15358914Y-13737400D01*
X15358914Y-13737400D02*
X15368438Y-13727876D01*
X15368438Y-13727876D02*
X15387486Y-13699305D01*
X15387486Y-13699305D02*
X15397010Y-13661209D01*
X15397010Y-13661209D02*
X15397010Y-13585019D01*
X15397010Y-13585019D02*
X15387486Y-13565971D01*
X15387486Y-13565971D02*
X15377962Y-13556448D01*
X15377962Y-13556448D02*
X15358914Y-13546924D01*
X15358914Y-13546924D02*
X15320819Y-13546924D01*
X15320819Y-13546924D02*
X15301772Y-13556448D01*
X15301772Y-13556448D02*
X15292248Y-13565971D01*
X15292248Y-13565971D02*
X15282724Y-13585019D01*
X15282724Y-13585019D02*
X15282724Y-13632638D01*
X15282724Y-13632638D02*
X15292248Y-13651686D01*
X15292248Y-13651686D02*
X15301772Y-13661209D01*
X15301772Y-13661209D02*
X15320819Y-13670733D01*
X15320819Y-13670733D02*
X15358914Y-13670733D01*
X15358914Y-13670733D02*
X15377962Y-13661209D01*
X15377962Y-13661209D02*
X15387486Y-13651686D01*
X15387486Y-13651686D02*
X15397010Y-13632638D01*
X15568438Y-13613590D02*
X15568438Y-13746924D01*
X15520819Y-13537400D02*
X15473200Y-13680257D01*
X15473200Y-13680257D02*
X15597010Y-13680257D01*
X15663676Y-13546924D02*
X15663676Y-13585019D01*
X15739867Y-13546924D02*
X15739867Y-13585019D01*
X16035105Y-13823114D02*
X16025581Y-13813590D01*
X16025581Y-13813590D02*
X16006534Y-13785019D01*
X16006534Y-13785019D02*
X15997010Y-13765971D01*
X15997010Y-13765971D02*
X15987486Y-13737400D01*
X15987486Y-13737400D02*
X15977962Y-13689781D01*
X15977962Y-13689781D02*
X15977962Y-13651686D01*
X15977962Y-13651686D02*
X15987486Y-13604067D01*
X15987486Y-13604067D02*
X15997010Y-13575495D01*
X15997010Y-13575495D02*
X16006534Y-13556448D01*
X16006534Y-13556448D02*
X16025581Y-13527876D01*
X16025581Y-13527876D02*
X16035105Y-13518352D01*
X16139867Y-13632638D02*
X16120819Y-13623114D01*
X16120819Y-13623114D02*
X16111295Y-13613590D01*
X16111295Y-13613590D02*
X16101772Y-13594543D01*
X16101772Y-13594543D02*
X16101772Y-13585019D01*
X16101772Y-13585019D02*
X16111295Y-13565971D01*
X16111295Y-13565971D02*
X16120819Y-13556448D01*
X16120819Y-13556448D02*
X16139867Y-13546924D01*
X16139867Y-13546924D02*
X16177962Y-13546924D01*
X16177962Y-13546924D02*
X16197010Y-13556448D01*
X16197010Y-13556448D02*
X16206534Y-13565971D01*
X16206534Y-13565971D02*
X16216057Y-13585019D01*
X16216057Y-13585019D02*
X16216057Y-13594543D01*
X16216057Y-13594543D02*
X16206534Y-13613590D01*
X16206534Y-13613590D02*
X16197010Y-13623114D01*
X16197010Y-13623114D02*
X16177962Y-13632638D01*
X16177962Y-13632638D02*
X16139867Y-13632638D01*
X16139867Y-13632638D02*
X16120819Y-13642162D01*
X16120819Y-13642162D02*
X16111295Y-13651686D01*
X16111295Y-13651686D02*
X16101772Y-13670733D01*
X16101772Y-13670733D02*
X16101772Y-13708828D01*
X16101772Y-13708828D02*
X16111295Y-13727876D01*
X16111295Y-13727876D02*
X16120819Y-13737400D01*
X16120819Y-13737400D02*
X16139867Y-13746924D01*
X16139867Y-13746924D02*
X16177962Y-13746924D01*
X16177962Y-13746924D02*
X16197010Y-13737400D01*
X16197010Y-13737400D02*
X16206534Y-13727876D01*
X16206534Y-13727876D02*
X16216057Y-13708828D01*
X16216057Y-13708828D02*
X16216057Y-13670733D01*
X16216057Y-13670733D02*
X16206534Y-13651686D01*
X16206534Y-13651686D02*
X16197010Y-13642162D01*
X16197010Y-13642162D02*
X16177962Y-13632638D01*
X16454153Y-13746924D02*
X16454153Y-13546924D01*
X16539867Y-13746924D02*
X16539867Y-13642162D01*
X16539867Y-13642162D02*
X16530343Y-13623114D01*
X16530343Y-13623114D02*
X16511296Y-13613590D01*
X16511296Y-13613590D02*
X16482724Y-13613590D01*
X16482724Y-13613590D02*
X16463676Y-13623114D01*
X16463676Y-13623114D02*
X16454153Y-13632638D01*
X16663676Y-13746924D02*
X16644629Y-13737400D01*
X16644629Y-13737400D02*
X16635105Y-13727876D01*
X16635105Y-13727876D02*
X16625581Y-13708828D01*
X16625581Y-13708828D02*
X16625581Y-13651686D01*
X16625581Y-13651686D02*
X16635105Y-13632638D01*
X16635105Y-13632638D02*
X16644629Y-13623114D01*
X16644629Y-13623114D02*
X16663676Y-13613590D01*
X16663676Y-13613590D02*
X16692248Y-13613590D01*
X16692248Y-13613590D02*
X16711296Y-13623114D01*
X16711296Y-13623114D02*
X16720819Y-13632638D01*
X16720819Y-13632638D02*
X16730343Y-13651686D01*
X16730343Y-13651686D02*
X16730343Y-13708828D01*
X16730343Y-13708828D02*
X16720819Y-13727876D01*
X16720819Y-13727876D02*
X16711296Y-13737400D01*
X16711296Y-13737400D02*
X16692248Y-13746924D01*
X16692248Y-13746924D02*
X16663676Y-13746924D01*
X16844629Y-13746924D02*
X16825581Y-13737400D01*
X16825581Y-13737400D02*
X16816058Y-13718352D01*
X16816058Y-13718352D02*
X16816058Y-13546924D01*
X16997010Y-13737400D02*
X16977962Y-13746924D01*
X16977962Y-13746924D02*
X16939867Y-13746924D01*
X16939867Y-13746924D02*
X16920819Y-13737400D01*
X16920819Y-13737400D02*
X16911296Y-13718352D01*
X16911296Y-13718352D02*
X16911296Y-13642162D01*
X16911296Y-13642162D02*
X16920819Y-13623114D01*
X16920819Y-13623114D02*
X16939867Y-13613590D01*
X16939867Y-13613590D02*
X16977962Y-13613590D01*
X16977962Y-13613590D02*
X16997010Y-13623114D01*
X16997010Y-13623114D02*
X17006534Y-13642162D01*
X17006534Y-13642162D02*
X17006534Y-13661209D01*
X17006534Y-13661209D02*
X16911296Y-13680257D01*
X17082724Y-13737400D02*
X17101772Y-13746924D01*
X17101772Y-13746924D02*
X17139867Y-13746924D01*
X17139867Y-13746924D02*
X17158915Y-13737400D01*
X17158915Y-13737400D02*
X17168439Y-13718352D01*
X17168439Y-13718352D02*
X17168439Y-13708828D01*
X17168439Y-13708828D02*
X17158915Y-13689781D01*
X17158915Y-13689781D02*
X17139867Y-13680257D01*
X17139867Y-13680257D02*
X17111296Y-13680257D01*
X17111296Y-13680257D02*
X17092248Y-13670733D01*
X17092248Y-13670733D02*
X17082724Y-13651686D01*
X17082724Y-13651686D02*
X17082724Y-13642162D01*
X17082724Y-13642162D02*
X17092248Y-13623114D01*
X17092248Y-13623114D02*
X17111296Y-13613590D01*
X17111296Y-13613590D02*
X17139867Y-13613590D01*
X17139867Y-13613590D02*
X17158915Y-13623114D01*
X17235105Y-13823114D02*
X17244629Y-13813590D01*
X17244629Y-13813590D02*
X17263677Y-13785019D01*
X17263677Y-13785019D02*
X17273200Y-13765971D01*
X17273200Y-13765971D02*
X17282724Y-13737400D01*
X17282724Y-13737400D02*
X17292248Y-13689781D01*
X17292248Y-13689781D02*
X17292248Y-13651686D01*
X17292248Y-13651686D02*
X17282724Y-13604067D01*
X17282724Y-13604067D02*
X17273200Y-13575495D01*
X17273200Y-13575495D02*
X17263677Y-13556448D01*
X17263677Y-13556448D02*
X17244629Y-13527876D01*
X17244629Y-13527876D02*
X17235105Y-13518352D01*
M02*
