%TF.GenerationSoftware,KiCad,Pcbnew,7.0.1-3b83917a11~172~ubuntu22.04.1*%
%TF.CreationDate,2023-04-18T10:01:55+02:00*%
%TF.ProjectId,part2,70617274-322e-46b6-9963-61645f706362,rev?*%
%TF.SameCoordinates,Original*%
%TF.FileFunction,Copper,L2,Bot*%
%TF.FilePolarity,Positive*%
%FSLAX46Y46*%
G04 Gerber Fmt 4.6, Leading zero omitted, Abs format (unit mm)*
G04 Created by KiCad (PCBNEW 7.0.1-3b83917a11~172~ubuntu22.04.1) date 2023-04-18 10:01:55*
%MOMM*%
%LPD*%
G01*
G04 APERTURE LIST*
G04 Aperture macros list*
%AMRoundRect*
0 Rectangle with rounded corners*
0 $1 Rounding radius*
0 $2 $3 $4 $5 $6 $7 $8 $9 X,Y pos of 4 corners*
0 Add a 4 corners polygon primitive as box body*
4,1,4,$2,$3,$4,$5,$6,$7,$8,$9,$2,$3,0*
0 Add four circle primitives for the rounded corners*
1,1,$1+$1,$2,$3*
1,1,$1+$1,$4,$5*
1,1,$1+$1,$6,$7*
1,1,$1+$1,$8,$9*
0 Add four rect primitives between the rounded corners*
20,1,$1+$1,$2,$3,$4,$5,0*
20,1,$1+$1,$4,$5,$6,$7,0*
20,1,$1+$1,$6,$7,$8,$9,0*
20,1,$1+$1,$8,$9,$2,$3,0*%
G04 Aperture macros list end*
%TA.AperFunction,SMDPad,CuDef*%
%ADD10R,4.000000X2.400000*%
%TD*%
%TA.AperFunction,ComponentPad*%
%ADD11R,1.700000X1.700000*%
%TD*%
%TA.AperFunction,ComponentPad*%
%ADD12O,1.700000X1.700000*%
%TD*%
%TA.AperFunction,SMDPad,CuDef*%
%ADD13RoundRect,0.250001X0.462499X0.624999X-0.462499X0.624999X-0.462499X-0.624999X0.462499X-0.624999X0*%
%TD*%
%TA.AperFunction,HeatsinkPad*%
%ADD14C,0.600000*%
%TD*%
%TA.AperFunction,ComponentPad*%
%ADD15O,2.100000X1.000000*%
%TD*%
%TA.AperFunction,ComponentPad*%
%ADD16O,1.800000X1.000000*%
%TD*%
%TA.AperFunction,ViaPad*%
%ADD17C,0.800000*%
%TD*%
%TA.AperFunction,ViaPad*%
%ADD18C,0.600000*%
%TD*%
%TA.AperFunction,Conductor*%
%ADD19C,0.600000*%
%TD*%
%TA.AperFunction,Conductor*%
%ADD20C,0.250000*%
%TD*%
G04 APERTURE END LIST*
D10*
%TO.P,J5,1,3V3*%
%TO.N,N/C*%
X158775500Y-79410000D03*
%TO.P,J5,2,GND*%
X158775500Y-83010000D03*
%TD*%
D11*
%TO.P,J4,1,Pin_1*%
%TO.N,N/C*%
X138975500Y-110742000D03*
D12*
%TO.P,J4,2,Pin_2*%
X141515500Y-110742000D03*
%TO.P,J4,3,Pin_3*%
X144055500Y-110742000D03*
%TO.P,J4,4,Pin_4*%
X146595500Y-110742000D03*
%TD*%
D11*
%TO.P,J3,1,Pin_1*%
%TO.N,N/C*%
X157802000Y-95446000D03*
D12*
%TO.P,J3,2,Pin_2*%
X157802000Y-92906000D03*
%TO.P,J3,3,Pin_3*%
X157802000Y-90366000D03*
%TO.P,J3,4,Pin_4*%
X157802000Y-87826000D03*
%TD*%
D13*
%TO.P,D1,1,K*%
%TO.N,N/C*%
X144240500Y-91890000D03*
%TO.P,D1,2,A*%
X141265500Y-91890000D03*
%TD*%
D10*
%TO.P,J9,1,3V3*%
%TO.N,N/C*%
X126775500Y-79410000D03*
%TO.P,J9,2,GND*%
X126775500Y-83010000D03*
%TD*%
D13*
%TO.P,D2,1,K*%
%TO.N,N/C*%
X144240500Y-100780000D03*
%TO.P,D2,2,A*%
X141265500Y-100780000D03*
%TD*%
D14*
%TO.P,U1,39,GND*%
%TO.N,N/C*%
X140570500Y-96537500D03*
X140570500Y-98062500D03*
X141333000Y-95775000D03*
X141333000Y-97300000D03*
X141333000Y-98825000D03*
X142095500Y-96537500D03*
X142095500Y-98062500D03*
X142858000Y-95775000D03*
X142858000Y-97300000D03*
X142858000Y-98825000D03*
X143620500Y-96537500D03*
X143620500Y-98062500D03*
%TD*%
D15*
%TO.P,J1,S1,SHIELD*%
%TO.N,N/C*%
X153515500Y-120846000D03*
D16*
X157695500Y-120846000D03*
D15*
X153515500Y-112206000D03*
D16*
X157695500Y-112206000D03*
%TD*%
D17*
%TO.N,*%
X127830000Y-87318000D03*
X144594000Y-104590000D03*
X149303569Y-114242500D03*
X136974000Y-112718000D03*
D18*
X142054000Y-114242000D03*
X144086000Y-114242000D03*
D17*
X130911500Y-82746000D03*
X130370000Y-98494000D03*
D18*
X157294000Y-85169500D03*
X146626000Y-84561500D03*
X155770000Y-84778000D03*
X147642000Y-85286000D03*
X147642000Y-95954000D03*
X153230000Y-85286000D03*
%TD*%
D19*
%TO.N,*%
X130370000Y-106114000D02*
X130370000Y-98494000D01*
X127527500Y-83762000D02*
X126775500Y-83010000D01*
X140022000Y-83762000D02*
X127527500Y-83762000D01*
X155262000Y-83762000D02*
X156014000Y-83010000D01*
X144086000Y-83762000D02*
X144086000Y-91735500D01*
X145610000Y-97478000D02*
X145610000Y-99410500D01*
X156014000Y-83010000D02*
X158775500Y-83010000D01*
X127830000Y-84064500D02*
X126775500Y-83010000D01*
X127830000Y-87318000D02*
X127830000Y-84064500D01*
X145610000Y-97478000D02*
X155770000Y-97478000D01*
X136974000Y-112718000D02*
X130370000Y-106114000D01*
X144086000Y-83762000D02*
X140022000Y-83762000D01*
X145610000Y-99410500D02*
X144240500Y-100780000D01*
X144086000Y-91735500D02*
X144240500Y-91890000D01*
X155770000Y-97478000D02*
X157802000Y-95446000D01*
X145610000Y-93259500D02*
X145610000Y-97478000D01*
X151479000Y-114242500D02*
X153515500Y-112206000D01*
X144240500Y-91890000D02*
X145610000Y-93259500D01*
X140022000Y-88842000D02*
X140022000Y-83762000D01*
X155262000Y-83762000D02*
X144594000Y-83762000D01*
X130370000Y-98494000D02*
X140022000Y-88842000D01*
X149303569Y-114242500D02*
X151479000Y-114242500D01*
X144594000Y-104590000D02*
X144594000Y-101133500D01*
X144594000Y-101133500D02*
X144240500Y-100780000D01*
X144594000Y-83762000D02*
X144086000Y-83762000D01*
D20*
X142054000Y-114242000D02*
X140228000Y-112416000D01*
X140228000Y-112416000D02*
X140228000Y-102256000D01*
X141038000Y-91890000D02*
X141265500Y-91890000D01*
X137482000Y-99510000D02*
X137482000Y-95446000D01*
X137482000Y-95446000D02*
X141038000Y-91890000D01*
X140228000Y-102256000D02*
X137482000Y-99510000D01*
X144086000Y-114242000D02*
X142880500Y-113036500D01*
X142880500Y-113036500D02*
X142880500Y-102395000D01*
X142880500Y-102395000D02*
X141265500Y-100780000D01*
D19*
X154639500Y-82746000D02*
X130911500Y-82746000D01*
X130911500Y-82746000D02*
X127575500Y-79410000D01*
X157975500Y-79410000D02*
X154639500Y-82746000D01*
X158775500Y-79410000D02*
X157975500Y-79410000D01*
X127575500Y-79410000D02*
X126775500Y-79410000D01*
D20*
X149166000Y-85911000D02*
X147816500Y-84561500D01*
X147816500Y-84561500D02*
X146626000Y-84561500D01*
X157294000Y-85169500D02*
X156552500Y-85911000D01*
X156552500Y-85911000D02*
X149166000Y-85911000D01*
X153738000Y-84778000D02*
X153230000Y-85286000D01*
X155770000Y-84778000D02*
X153738000Y-84778000D01*
X147642000Y-95954000D02*
X147642000Y-85286000D01*
%TD*%
%TA.AperFunction,NonConductor*%
G36*
X156224385Y-82452435D02*
G01*
X156261985Y-82496458D01*
X156275500Y-82552753D01*
X156275500Y-83923552D01*
X156261667Y-83980466D01*
X156223255Y-84024681D01*
X156168834Y-84046334D01*
X156110546Y-84040594D01*
X155951044Y-83984782D01*
X155770000Y-83964383D01*
X155588955Y-83984782D01*
X155416984Y-84044957D01*
X155356720Y-84082824D01*
X155288810Y-84125494D01*
X155222840Y-84144500D01*
X153821628Y-84144500D01*
X153800892Y-84142211D01*
X153798091Y-84142299D01*
X153730001Y-84144439D01*
X153726106Y-84144500D01*
X153698144Y-84144500D01*
X153694032Y-84145019D01*
X153682401Y-84145934D01*
X153638110Y-84147326D01*
X153618507Y-84153022D01*
X153599456Y-84156967D01*
X153579203Y-84159525D01*
X153538008Y-84175835D01*
X153526962Y-84179616D01*
X153484405Y-84191981D01*
X153466827Y-84202376D01*
X153449360Y-84210933D01*
X153430384Y-84218446D01*
X153394544Y-84244485D01*
X153384786Y-84250895D01*
X153346637Y-84273457D01*
X153332196Y-84287898D01*
X153317409Y-84300527D01*
X153300892Y-84312528D01*
X153272652Y-84346663D01*
X153264792Y-84355301D01*
X153167942Y-84452151D01*
X153134063Y-84476190D01*
X153094146Y-84487690D01*
X153048955Y-84492782D01*
X152876984Y-84552957D01*
X152722717Y-84649890D01*
X152593890Y-84778717D01*
X152496957Y-84932984D01*
X152436782Y-85104955D01*
X152429749Y-85167383D01*
X152408983Y-85223351D01*
X152364471Y-85263130D01*
X152306529Y-85277500D01*
X149479767Y-85277500D01*
X149432314Y-85268061D01*
X149392086Y-85241181D01*
X148323588Y-84172683D01*
X148310544Y-84156401D01*
X148258848Y-84107856D01*
X148256051Y-84105145D01*
X148236273Y-84085367D01*
X148232995Y-84082824D01*
X148224122Y-84075245D01*
X148191821Y-84044914D01*
X148173933Y-84035080D01*
X148157669Y-84024396D01*
X148141540Y-84011885D01*
X148100877Y-83994289D01*
X148090383Y-83989148D01*
X148051562Y-83967805D01*
X148038232Y-83964383D01*
X148031784Y-83962727D01*
X148013379Y-83956426D01*
X147994645Y-83948319D01*
X147994643Y-83948318D01*
X147994642Y-83948318D01*
X147950883Y-83941387D01*
X147939443Y-83939018D01*
X147896531Y-83928000D01*
X147896530Y-83928000D01*
X147876116Y-83928000D01*
X147856717Y-83926473D01*
X147836558Y-83923280D01*
X147836557Y-83923280D01*
X147814236Y-83925390D01*
X147792443Y-83927450D01*
X147780774Y-83928000D01*
X147173160Y-83928000D01*
X147107189Y-83908994D01*
X146979015Y-83828457D01*
X146884947Y-83795541D01*
X146828955Y-83755813D01*
X146802682Y-83692384D01*
X146814182Y-83624698D01*
X146859930Y-83573506D01*
X146925902Y-83554500D01*
X154730597Y-83554500D01*
X154768359Y-83545880D01*
X154782048Y-83543553D01*
X154820547Y-83539217D01*
X154857124Y-83526417D01*
X154870442Y-83522581D01*
X154908220Y-83513959D01*
X154943115Y-83497153D01*
X154955949Y-83491836D01*
X154992515Y-83479043D01*
X155025317Y-83458430D01*
X155037461Y-83451719D01*
X155072370Y-83434909D01*
X155102653Y-83410757D01*
X155113978Y-83402721D01*
X155146781Y-83382111D01*
X155275611Y-83253281D01*
X155275611Y-83253280D01*
X156063819Y-82465072D01*
X156113182Y-82434822D01*
X156170898Y-82430280D01*
X156224385Y-82452435D01*
G37*
%TD.AperFunction*%
%TA.AperFunction,NonConductor*%
G36*
X129437818Y-82434822D02*
G01*
X129487181Y-82465072D01*
X130025747Y-83003638D01*
X130055997Y-83052999D01*
X130076974Y-83117559D01*
X130172457Y-83282941D01*
X130172460Y-83282944D01*
X130300247Y-83424866D01*
X130434731Y-83522575D01*
X130454748Y-83537118D01*
X130629214Y-83614795D01*
X130816011Y-83654500D01*
X130816013Y-83654500D01*
X131006987Y-83654500D01*
X131006989Y-83654500D01*
X131193785Y-83614795D01*
X131193786Y-83614794D01*
X131193788Y-83614794D01*
X131305133Y-83565219D01*
X131355568Y-83554500D01*
X146326098Y-83554500D01*
X146392070Y-83573506D01*
X146437818Y-83624698D01*
X146449318Y-83692384D01*
X146423045Y-83755813D01*
X146367052Y-83795541D01*
X146319721Y-83812103D01*
X146272984Y-83828457D01*
X146118717Y-83925390D01*
X145989890Y-84054217D01*
X145892957Y-84208484D01*
X145832782Y-84380455D01*
X145812383Y-84561499D01*
X145832782Y-84742544D01*
X145832782Y-84742546D01*
X145832783Y-84742547D01*
X145892957Y-84914515D01*
X145989889Y-85068781D01*
X146118719Y-85197611D01*
X146272985Y-85294543D01*
X146444953Y-85354717D01*
X146565651Y-85368316D01*
X146625999Y-85375116D01*
X146625999Y-85375115D01*
X146626000Y-85375116D01*
X146712541Y-85365365D01*
X146776010Y-85374931D01*
X146826194Y-85414949D01*
X146841792Y-85454691D01*
X146844169Y-85453860D01*
X146908957Y-85639015D01*
X146989494Y-85767188D01*
X147008500Y-85833160D01*
X147008500Y-95406840D01*
X146989494Y-95472812D01*
X146908957Y-95600984D01*
X146848782Y-95772955D01*
X146828383Y-95954000D01*
X146848782Y-96135044D01*
X146848782Y-96135046D01*
X146848783Y-96135047D01*
X146908957Y-96307015D01*
X147005889Y-96461281D01*
X147134719Y-96590111D01*
X147288985Y-96687043D01*
X147460953Y-96747217D01*
X147642000Y-96767616D01*
X147823047Y-96747217D01*
X147995015Y-96687043D01*
X148149281Y-96590111D01*
X148278111Y-96461281D01*
X148375043Y-96307015D01*
X148435217Y-96135047D01*
X148455616Y-95954000D01*
X148435217Y-95772953D01*
X148408290Y-95696000D01*
X156452000Y-95696000D01*
X156452000Y-96343824D01*
X156458402Y-96403375D01*
X156508647Y-96538089D01*
X156594811Y-96653188D01*
X156709910Y-96739352D01*
X156844624Y-96789597D01*
X156904176Y-96796000D01*
X157552000Y-96796000D01*
X157552000Y-95696000D01*
X158052000Y-95696000D01*
X158052000Y-96796000D01*
X158699824Y-96796000D01*
X158759375Y-96789597D01*
X158894089Y-96739352D01*
X159009188Y-96653188D01*
X159095352Y-96538089D01*
X159145597Y-96403375D01*
X159152000Y-96343824D01*
X159152000Y-95696000D01*
X158052000Y-95696000D01*
X157552000Y-95696000D01*
X156452000Y-95696000D01*
X148408290Y-95696000D01*
X148375043Y-95600985D01*
X148294505Y-95472810D01*
X148275500Y-95406840D01*
X148275500Y-92905999D01*
X156438843Y-92905999D01*
X156457435Y-93130363D01*
X156457435Y-93130366D01*
X156457436Y-93130368D01*
X156499171Y-93295177D01*
X156512705Y-93348618D01*
X156603138Y-93554788D01*
X156726279Y-93743269D01*
X156877706Y-93907761D01*
X156906480Y-93960514D01*
X156907073Y-94020601D01*
X156879346Y-94073912D01*
X156829811Y-94107927D01*
X156709911Y-94152647D01*
X156594811Y-94238811D01*
X156508647Y-94353910D01*
X156458402Y-94488624D01*
X156452000Y-94548176D01*
X156452000Y-95196000D01*
X159152000Y-95196000D01*
X159152000Y-94548176D01*
X159145597Y-94488624D01*
X159095352Y-94353910D01*
X159009188Y-94238811D01*
X158894089Y-94152647D01*
X158774188Y-94107927D01*
X158724653Y-94073912D01*
X158696926Y-94020601D01*
X158697519Y-93960514D01*
X158726291Y-93907763D01*
X158877722Y-93743268D01*
X159000860Y-93554791D01*
X159091296Y-93348616D01*
X159146564Y-93130368D01*
X159165156Y-92906000D01*
X159146564Y-92681632D01*
X159091296Y-92463384D01*
X159000860Y-92257209D01*
X158877722Y-92068732D01*
X158725240Y-91903094D01*
X158547576Y-91764811D01*
X158511067Y-91745053D01*
X158463563Y-91699474D01*
X158446086Y-91636000D01*
X158463563Y-91572526D01*
X158511067Y-91526946D01*
X158547576Y-91507189D01*
X158725240Y-91368906D01*
X158877722Y-91203268D01*
X159000860Y-91014791D01*
X159091296Y-90808616D01*
X159146564Y-90590368D01*
X159165156Y-90366000D01*
X159146564Y-90141632D01*
X159091296Y-89923384D01*
X159000860Y-89717209D01*
X158877722Y-89528732D01*
X158725240Y-89363094D01*
X158547576Y-89224811D01*
X158547575Y-89224810D01*
X158511067Y-89205053D01*
X158463562Y-89159471D01*
X158446086Y-89095997D01*
X158463564Y-89032523D01*
X158511067Y-88986946D01*
X158547576Y-88967189D01*
X158725240Y-88828906D01*
X158877722Y-88663268D01*
X159000860Y-88474791D01*
X159091296Y-88268616D01*
X159146564Y-88050368D01*
X159165156Y-87826000D01*
X159146564Y-87601632D01*
X159091296Y-87383384D01*
X159000860Y-87177209D01*
X158877722Y-86988732D01*
X158725240Y-86823094D01*
X158547576Y-86684811D01*
X158349574Y-86577658D01*
X158349573Y-86577657D01*
X158349572Y-86577657D01*
X158136636Y-86504556D01*
X157914569Y-86467500D01*
X157689431Y-86467500D01*
X157467363Y-86504556D01*
X157254427Y-86577657D01*
X157056424Y-86684811D01*
X156878760Y-86823094D01*
X156726279Y-86988730D01*
X156603138Y-87177211D01*
X156512705Y-87383381D01*
X156457435Y-87601636D01*
X156438843Y-87826000D01*
X156457435Y-88050363D01*
X156512705Y-88268618D01*
X156603138Y-88474788D01*
X156603140Y-88474791D01*
X156726278Y-88663268D01*
X156878760Y-88828906D01*
X157056424Y-88967189D01*
X157092930Y-88986945D01*
X157140435Y-89032524D01*
X157157913Y-89095997D01*
X157140437Y-89159471D01*
X157092933Y-89205052D01*
X157056427Y-89224809D01*
X156878760Y-89363094D01*
X156726279Y-89528730D01*
X156603138Y-89717211D01*
X156512705Y-89923381D01*
X156457435Y-90141636D01*
X156438843Y-90366000D01*
X156457435Y-90590363D01*
X156457435Y-90590366D01*
X156457436Y-90590368D01*
X156509675Y-90796655D01*
X156512705Y-90808618D01*
X156603138Y-91014788D01*
X156603140Y-91014791D01*
X156726278Y-91203268D01*
X156878760Y-91368906D01*
X157056424Y-91507189D01*
X157056426Y-91507190D01*
X157092931Y-91526946D01*
X157140436Y-91572527D01*
X157157913Y-91636000D01*
X157140436Y-91699473D01*
X157092931Y-91745054D01*
X157056426Y-91764809D01*
X156878760Y-91903094D01*
X156726279Y-92068730D01*
X156603138Y-92257211D01*
X156512705Y-92463381D01*
X156457435Y-92681636D01*
X156438843Y-92905999D01*
X148275500Y-92905999D01*
X148275500Y-86215766D01*
X148289015Y-86159471D01*
X148326615Y-86115448D01*
X148380102Y-86093293D01*
X148437818Y-86097835D01*
X148487181Y-86128085D01*
X148658910Y-86299814D01*
X148671959Y-86316101D01*
X148673999Y-86318016D01*
X148674000Y-86318018D01*
X148723701Y-86364690D01*
X148726434Y-86367338D01*
X148746230Y-86387134D01*
X148749493Y-86389665D01*
X148758369Y-86397245D01*
X148790679Y-86427586D01*
X148808572Y-86437422D01*
X148824831Y-86448103D01*
X148840959Y-86460613D01*
X148881625Y-86478210D01*
X148892106Y-86483346D01*
X148898082Y-86486631D01*
X148930940Y-86504695D01*
X148950710Y-86509771D01*
X148969115Y-86516071D01*
X148987855Y-86524181D01*
X149031630Y-86531113D01*
X149043041Y-86533477D01*
X149085970Y-86544500D01*
X149106384Y-86544500D01*
X149125783Y-86546027D01*
X149145943Y-86549220D01*
X149190056Y-86545050D01*
X149201726Y-86544500D01*
X156468867Y-86544500D01*
X156489608Y-86546789D01*
X156492405Y-86546701D01*
X156492409Y-86546702D01*
X156560517Y-86544560D01*
X156564413Y-86544500D01*
X156592354Y-86544500D01*
X156592356Y-86544500D01*
X156596456Y-86543981D01*
X156608106Y-86543064D01*
X156652389Y-86541673D01*
X156671998Y-86535975D01*
X156691031Y-86532033D01*
X156711297Y-86529474D01*
X156752506Y-86513157D01*
X156763537Y-86509380D01*
X156806093Y-86497018D01*
X156823660Y-86486628D01*
X156841132Y-86478068D01*
X156860117Y-86470552D01*
X156895975Y-86444498D01*
X156905723Y-86438096D01*
X156943862Y-86415542D01*
X156958300Y-86401103D01*
X156973088Y-86388472D01*
X156989607Y-86376472D01*
X157017859Y-86342319D01*
X157025703Y-86333699D01*
X157356057Y-86003345D01*
X157389934Y-85979309D01*
X157429853Y-85967809D01*
X157475047Y-85962717D01*
X157647015Y-85902543D01*
X157801281Y-85805611D01*
X157930111Y-85676781D01*
X158027043Y-85522515D01*
X158087217Y-85350547D01*
X158107616Y-85169500D01*
X158107377Y-85167383D01*
X158087217Y-84988455D01*
X158087217Y-84988453D01*
X158047501Y-84874953D01*
X158041762Y-84816666D01*
X158063415Y-84762245D01*
X158107630Y-84723833D01*
X158164544Y-84710000D01*
X160121947Y-84710000D01*
X160121947Y-84709999D01*
X158509628Y-83097680D01*
X158477534Y-83042092D01*
X158477534Y-82977905D01*
X158509628Y-82922318D01*
X158687819Y-82744128D01*
X158743407Y-82712034D01*
X158807594Y-82712034D01*
X158863181Y-82744128D01*
X160745181Y-84626128D01*
X160772061Y-84666356D01*
X160781500Y-84713809D01*
X160781500Y-122042800D01*
X160764887Y-122104800D01*
X160719500Y-122150187D01*
X160657500Y-122166800D01*
X124906500Y-122166800D01*
X124844500Y-122150187D01*
X124799113Y-122104800D01*
X124782500Y-122042800D01*
X124782500Y-121096000D01*
X151992134Y-121096000D01*
X151992432Y-121097948D01*
X152063064Y-121288663D01*
X152170645Y-121461263D01*
X152310766Y-121608669D01*
X152477694Y-121724855D01*
X152664592Y-121805059D01*
X152863811Y-121846000D01*
X153265500Y-121846000D01*
X153265500Y-121096000D01*
X153765500Y-121096000D01*
X153765500Y-121846000D01*
X154116210Y-121846000D01*
X154267839Y-121830580D01*
X154461889Y-121769696D01*
X154639714Y-121670996D01*
X154794031Y-121538520D01*
X154918521Y-121377692D01*
X155008089Y-121195094D01*
X155033746Y-121096000D01*
X156322134Y-121096000D01*
X156322432Y-121097948D01*
X156393064Y-121288663D01*
X156500645Y-121461263D01*
X156640766Y-121608669D01*
X156807694Y-121724855D01*
X156994592Y-121805059D01*
X157193811Y-121846000D01*
X157445500Y-121846000D01*
X157445500Y-121096000D01*
X157945500Y-121096000D01*
X157945500Y-121846000D01*
X158146210Y-121846000D01*
X158297839Y-121830580D01*
X158491889Y-121769696D01*
X158669714Y-121670996D01*
X158824031Y-121538520D01*
X158948521Y-121377692D01*
X159038089Y-121195094D01*
X159063746Y-121096000D01*
X157945500Y-121096000D01*
X157445500Y-121096000D01*
X156322134Y-121096000D01*
X155033746Y-121096000D01*
X153765500Y-121096000D01*
X153265500Y-121096000D01*
X151992134Y-121096000D01*
X124782500Y-121096000D01*
X124782500Y-120596000D01*
X151997253Y-120596000D01*
X155038866Y-120596000D01*
X156327253Y-120596000D01*
X157445500Y-120596000D01*
X157445500Y-119846000D01*
X157945500Y-119846000D01*
X157945500Y-120596000D01*
X159068866Y-120596000D01*
X159068567Y-120594051D01*
X158997935Y-120403336D01*
X158890354Y-120230736D01*
X158750233Y-120083330D01*
X158583305Y-119967144D01*
X158396407Y-119886940D01*
X158197189Y-119846000D01*
X157945500Y-119846000D01*
X157445500Y-119846000D01*
X157244790Y-119846000D01*
X157093160Y-119861419D01*
X156899110Y-119922303D01*
X156721285Y-120021003D01*
X156566968Y-120153479D01*
X156442478Y-120314307D01*
X156352910Y-120496905D01*
X156327253Y-120595999D01*
X156327253Y-120596000D01*
X155038866Y-120596000D01*
X155038567Y-120594051D01*
X154967935Y-120403336D01*
X154860354Y-120230736D01*
X154720233Y-120083330D01*
X154553305Y-119967144D01*
X154522855Y-119954077D01*
X154477754Y-119920995D01*
X154451779Y-119871459D01*
X154450215Y-119815548D01*
X154473379Y-119764641D01*
X154518198Y-119706233D01*
X154576187Y-119566236D01*
X154595966Y-119416000D01*
X154576187Y-119265764D01*
X154518198Y-119125767D01*
X154425951Y-119005549D01*
X154305733Y-118913302D01*
X154305731Y-118913301D01*
X154165735Y-118855312D01*
X154053221Y-118840500D01*
X154053220Y-118840500D01*
X153977780Y-118840500D01*
X153977779Y-118840500D01*
X153865264Y-118855312D01*
X153725268Y-118913301D01*
X153605049Y-119005549D01*
X153512801Y-119125768D01*
X153454812Y-119265764D01*
X153435033Y-119415999D01*
X153454812Y-119566235D01*
X153499677Y-119674547D01*
X153508519Y-119734154D01*
X153488218Y-119790891D01*
X153443569Y-119831358D01*
X153385116Y-119846000D01*
X152914790Y-119846000D01*
X152763160Y-119861419D01*
X152569110Y-119922303D01*
X152391285Y-120021003D01*
X152236968Y-120153479D01*
X152112478Y-120314307D01*
X152022910Y-120496905D01*
X151997253Y-120595999D01*
X151997253Y-120596000D01*
X124782500Y-120596000D01*
X124782500Y-95425941D01*
X136843780Y-95425941D01*
X136847950Y-95470057D01*
X136848500Y-95481726D01*
X136848500Y-99426367D01*
X136846210Y-99447108D01*
X136848439Y-99518017D01*
X136848500Y-99521913D01*
X136848500Y-99549855D01*
X136849018Y-99553956D01*
X136849934Y-99565597D01*
X136851326Y-99609888D01*
X136857022Y-99629492D01*
X136860967Y-99648544D01*
X136863525Y-99668798D01*
X136879838Y-99710001D01*
X136883621Y-99721049D01*
X136895982Y-99763593D01*
X136906374Y-99781166D01*
X136914931Y-99798633D01*
X136922448Y-99817618D01*
X136948491Y-99853463D01*
X136954905Y-99863227D01*
X136977458Y-99901362D01*
X136991890Y-99915794D01*
X137004526Y-99930589D01*
X137016526Y-99947105D01*
X137050667Y-99975349D01*
X137059308Y-99983212D01*
X139558181Y-102482085D01*
X139585061Y-102522313D01*
X139594500Y-102569766D01*
X139594500Y-109259500D01*
X139577887Y-109321500D01*
X139532500Y-109366887D01*
X139470500Y-109383500D01*
X138076862Y-109383500D01*
X138049945Y-109386393D01*
X138016294Y-109390011D01*
X137879296Y-109441110D01*
X137762238Y-109528738D01*
X137674610Y-109645796D01*
X137623511Y-109782794D01*
X137617000Y-109843366D01*
X137617000Y-111640634D01*
X137623511Y-111701205D01*
X137674610Y-111838203D01*
X137762238Y-111955261D01*
X137879296Y-112042889D01*
X138016294Y-112093988D01*
X138016297Y-112093988D01*
X138016299Y-112093989D01*
X138076862Y-112100500D01*
X139470500Y-112100500D01*
X139532500Y-112117113D01*
X139577887Y-112162500D01*
X139594500Y-112224500D01*
X139594500Y-112332367D01*
X139592210Y-112353108D01*
X139594439Y-112424017D01*
X139594500Y-112427913D01*
X139594500Y-112455855D01*
X139595018Y-112459956D01*
X139595934Y-112471597D01*
X139597326Y-112515888D01*
X139603022Y-112535492D01*
X139606967Y-112554544D01*
X139609525Y-112574798D01*
X139625838Y-112616001D01*
X139629621Y-112627049D01*
X139641982Y-112669593D01*
X139652374Y-112687166D01*
X139660931Y-112704633D01*
X139668448Y-112723618D01*
X139694491Y-112759463D01*
X139700905Y-112769227D01*
X139723458Y-112807362D01*
X139737890Y-112821794D01*
X139750526Y-112836589D01*
X139762526Y-112853105D01*
X139796667Y-112881349D01*
X139805308Y-112889212D01*
X141220151Y-114304056D01*
X141244190Y-114337935D01*
X141255690Y-114377852D01*
X141260782Y-114423044D01*
X141260782Y-114423046D01*
X141260783Y-114423047D01*
X141320957Y-114595015D01*
X141417889Y-114749281D01*
X141546719Y-114878111D01*
X141700985Y-114975043D01*
X141872953Y-115035217D01*
X141993650Y-115048816D01*
X142053999Y-115055616D01*
X142053999Y-115055615D01*
X142054000Y-115055616D01*
X142235047Y-115035217D01*
X142407015Y-114975043D01*
X142561281Y-114878111D01*
X142690111Y-114749281D01*
X142787043Y-114595015D01*
X142847217Y-114423047D01*
X142867616Y-114242000D01*
X142867615Y-114241999D01*
X142866345Y-114230715D01*
X142874479Y-114170667D01*
X142910096Y-114121643D01*
X142964692Y-114095351D01*
X143025227Y-114098070D01*
X143077246Y-114129150D01*
X143252151Y-114304055D01*
X143276190Y-114337934D01*
X143287690Y-114377852D01*
X143292782Y-114423043D01*
X143292782Y-114423045D01*
X143292783Y-114423047D01*
X143352957Y-114595015D01*
X143449889Y-114749281D01*
X143578719Y-114878111D01*
X143732985Y-114975043D01*
X143904953Y-115035217D01*
X144025650Y-115048816D01*
X144085999Y-115055616D01*
X144085999Y-115055615D01*
X144086000Y-115055616D01*
X144267047Y-115035217D01*
X144439015Y-114975043D01*
X144593281Y-114878111D01*
X144722111Y-114749281D01*
X144819043Y-114595015D01*
X144879217Y-114423047D01*
X144899616Y-114242000D01*
X144879217Y-114060953D01*
X144819043Y-113888985D01*
X144722111Y-113734719D01*
X144593281Y-113605889D01*
X144439015Y-113508957D01*
X144267047Y-113448783D01*
X144267046Y-113448782D01*
X144267044Y-113448782D01*
X144221852Y-113443690D01*
X144181935Y-113432190D01*
X144148056Y-113408151D01*
X143550319Y-112810414D01*
X143523439Y-112770186D01*
X143514000Y-112722733D01*
X143514000Y-112456000D01*
X151992134Y-112456000D01*
X151992432Y-112457948D01*
X152063064Y-112648663D01*
X152170645Y-112821263D01*
X152310766Y-112968669D01*
X152477694Y-113084855D01*
X152664592Y-113165059D01*
X152863811Y-113206000D01*
X153385116Y-113206000D01*
X153443569Y-113220642D01*
X153488218Y-113261109D01*
X153508519Y-113317846D01*
X153499677Y-113377453D01*
X153454812Y-113485764D01*
X153435033Y-113635999D01*
X153454812Y-113786235D01*
X153497373Y-113888984D01*
X153512802Y-113926233D01*
X153605049Y-114046451D01*
X153725267Y-114138698D01*
X153802447Y-114170667D01*
X153865264Y-114196687D01*
X153977779Y-114211500D01*
X153977780Y-114211500D01*
X154053220Y-114211500D01*
X154053221Y-114211500D01*
X154109478Y-114204093D01*
X154165736Y-114196687D01*
X154305733Y-114138698D01*
X154425951Y-114046451D01*
X154518198Y-113926233D01*
X154576187Y-113786236D01*
X154595966Y-113636000D01*
X154576187Y-113485764D01*
X154518198Y-113345767D01*
X154509782Y-113334799D01*
X154472661Y-113286421D01*
X154450158Y-113238582D01*
X154449628Y-113185717D01*
X154471167Y-113137436D01*
X154510860Y-113102516D01*
X154639714Y-113030996D01*
X154794031Y-112898520D01*
X154918521Y-112737692D01*
X155008089Y-112555094D01*
X155033746Y-112456000D01*
X156322134Y-112456000D01*
X156322432Y-112457948D01*
X156393064Y-112648663D01*
X156500645Y-112821263D01*
X156640766Y-112968669D01*
X156807694Y-113084855D01*
X156994592Y-113165059D01*
X157193811Y-113206000D01*
X157445500Y-113206000D01*
X157445500Y-112456000D01*
X157945500Y-112456000D01*
X157945500Y-113206000D01*
X158146210Y-113206000D01*
X158297839Y-113190580D01*
X158491889Y-113129696D01*
X158669714Y-113030996D01*
X158824031Y-112898520D01*
X158948521Y-112737692D01*
X159038089Y-112555094D01*
X159063746Y-112456000D01*
X157945500Y-112456000D01*
X157445500Y-112456000D01*
X156322134Y-112456000D01*
X155033746Y-112456000D01*
X151992134Y-112456000D01*
X143514000Y-112456000D01*
X143514000Y-112166100D01*
X143527749Y-112109349D01*
X143565947Y-112065183D01*
X143620123Y-112043395D01*
X143678263Y-112048819D01*
X143699690Y-112056174D01*
X143720865Y-112063444D01*
X143942931Y-112100500D01*
X144168069Y-112100500D01*
X144390135Y-112063444D01*
X144603074Y-111990342D01*
X144801076Y-111883189D01*
X144978740Y-111744906D01*
X145131222Y-111579268D01*
X145221690Y-111440795D01*
X145266482Y-111399561D01*
X145325500Y-111384616D01*
X145384518Y-111399561D01*
X145429309Y-111440795D01*
X145519778Y-111579268D01*
X145672260Y-111744906D01*
X145849924Y-111883189D01*
X146047926Y-111990342D01*
X146260865Y-112063444D01*
X146482931Y-112100500D01*
X146708069Y-112100500D01*
X146930135Y-112063444D01*
X147143074Y-111990342D01*
X147206533Y-111956000D01*
X151997253Y-111956000D01*
X153265500Y-111956000D01*
X153265500Y-111206000D01*
X153765500Y-111206000D01*
X153765500Y-111956000D01*
X155038866Y-111956000D01*
X156327253Y-111956000D01*
X157445500Y-111956000D01*
X157445500Y-111206000D01*
X157945500Y-111206000D01*
X157945500Y-111956000D01*
X159068866Y-111956000D01*
X159068567Y-111954051D01*
X158997935Y-111763336D01*
X158890354Y-111590736D01*
X158750233Y-111443330D01*
X158583305Y-111327144D01*
X158396407Y-111246940D01*
X158197189Y-111206000D01*
X157945500Y-111206000D01*
X157445500Y-111206000D01*
X157244790Y-111206000D01*
X157093160Y-111221419D01*
X156899110Y-111282303D01*
X156721285Y-111381003D01*
X156566968Y-111513479D01*
X156442478Y-111674307D01*
X156352910Y-111856905D01*
X156327253Y-111955999D01*
X156327253Y-111956000D01*
X155038866Y-111956000D01*
X155038567Y-111954051D01*
X154967935Y-111763336D01*
X154860354Y-111590736D01*
X154720233Y-111443330D01*
X154553305Y-111327144D01*
X154366407Y-111246940D01*
X154167189Y-111206000D01*
X153765500Y-111206000D01*
X153265500Y-111206000D01*
X152914790Y-111206000D01*
X152763160Y-111221419D01*
X152569110Y-111282303D01*
X152391285Y-111381003D01*
X152236968Y-111513479D01*
X152112478Y-111674307D01*
X152022910Y-111856905D01*
X151997253Y-111955999D01*
X151997253Y-111956000D01*
X147206533Y-111956000D01*
X147341076Y-111883189D01*
X147518740Y-111744906D01*
X147671222Y-111579268D01*
X147794360Y-111390791D01*
X147884796Y-111184616D01*
X147940064Y-110966368D01*
X147958656Y-110742000D01*
X147940064Y-110517632D01*
X147884796Y-110299384D01*
X147794360Y-110093209D01*
X147671222Y-109904732D01*
X147518740Y-109739094D01*
X147341076Y-109600811D01*
X147143074Y-109493658D01*
X147143073Y-109493657D01*
X147143072Y-109493657D01*
X146930136Y-109420556D01*
X146708069Y-109383500D01*
X146482931Y-109383500D01*
X146260863Y-109420556D01*
X146047927Y-109493657D01*
X145849924Y-109600811D01*
X145672260Y-109739094D01*
X145519779Y-109904730D01*
X145429309Y-110043205D01*
X145384517Y-110084438D01*
X145325500Y-110099383D01*
X145266483Y-110084438D01*
X145221691Y-110043205D01*
X145201543Y-110012367D01*
X145131222Y-109904732D01*
X144978740Y-109739094D01*
X144801076Y-109600811D01*
X144603074Y-109493658D01*
X144603073Y-109493657D01*
X144603072Y-109493657D01*
X144390136Y-109420556D01*
X144168069Y-109383500D01*
X143942931Y-109383500D01*
X143720863Y-109420556D01*
X143678263Y-109435181D01*
X143620123Y-109440605D01*
X143565947Y-109418817D01*
X143527749Y-109374651D01*
X143514000Y-109317900D01*
X143514000Y-102478633D01*
X143516289Y-102457890D01*
X143516201Y-102455094D01*
X143516202Y-102455091D01*
X143514060Y-102386968D01*
X143514000Y-102383074D01*
X143514000Y-102355147D01*
X143514000Y-102355144D01*
X143513482Y-102351047D01*
X143512565Y-102339398D01*
X143510682Y-102279452D01*
X143512946Y-102279380D01*
X143511610Y-102244566D01*
X143537741Y-102190537D01*
X143586183Y-102155108D01*
X143645590Y-102146578D01*
X143728023Y-102155000D01*
X143990500Y-102155000D01*
X143990500Y-101030000D01*
X144490500Y-101030000D01*
X144490500Y-102155000D01*
X144752978Y-102155000D01*
X144855695Y-102144506D01*
X145022121Y-102089357D01*
X145171344Y-101997316D01*
X145295316Y-101873344D01*
X145387357Y-101724121D01*
X145442506Y-101557695D01*
X145453000Y-101454978D01*
X145453000Y-101030000D01*
X144490500Y-101030000D01*
X143990500Y-101030000D01*
X143028000Y-101030000D01*
X143028000Y-101347234D01*
X143014485Y-101403529D01*
X142976885Y-101447552D01*
X142923398Y-101469707D01*
X142865682Y-101465165D01*
X142816320Y-101434915D01*
X142522819Y-101141414D01*
X142495939Y-101101186D01*
X142486500Y-101053733D01*
X142486500Y-100104457D01*
X142486500Y-100104456D01*
X142475887Y-100000575D01*
X142420115Y-99832262D01*
X142357563Y-99730850D01*
X142339329Y-99673272D01*
X142350459Y-99613910D01*
X142388311Y-99566846D01*
X142443907Y-99543248D01*
X142504055Y-99548711D01*
X142678859Y-99609877D01*
X142857999Y-99630062D01*
X142994500Y-99614682D01*
X143061953Y-99626070D01*
X143113102Y-99671493D01*
X143132382Y-99737128D01*
X143113923Y-99802998D01*
X143093642Y-99835878D01*
X143038493Y-100002304D01*
X143028000Y-100105022D01*
X143028000Y-100530000D01*
X143990500Y-100530000D01*
X143990500Y-99405000D01*
X144490500Y-99405000D01*
X144490500Y-100530000D01*
X145453000Y-100530000D01*
X145453000Y-100105022D01*
X145442506Y-100002304D01*
X145387357Y-99835878D01*
X145295316Y-99686655D01*
X145171344Y-99562683D01*
X145022121Y-99470642D01*
X144855695Y-99415493D01*
X144752978Y-99405000D01*
X144490500Y-99405000D01*
X143990500Y-99405000D01*
X143728020Y-99405000D01*
X143671297Y-99410794D01*
X143604024Y-99398733D01*
X143553360Y-99352860D01*
X143534696Y-99287113D01*
X143553703Y-99221463D01*
X143583335Y-99174304D01*
X143642876Y-99004144D01*
X143647678Y-98961518D01*
X143665905Y-98909428D01*
X143704928Y-98870405D01*
X143757018Y-98852178D01*
X143799644Y-98847376D01*
X143969803Y-98787835D01*
X143983607Y-98779161D01*
X143983607Y-98779160D01*
X143620500Y-98416053D01*
X142945681Y-99090872D01*
X142890094Y-99122966D01*
X142825906Y-99122966D01*
X142770319Y-99090872D01*
X142095500Y-98416053D01*
X141420681Y-99090872D01*
X141365094Y-99122966D01*
X141300906Y-99122966D01*
X141245319Y-99090872D01*
X140987693Y-98833246D01*
X140570501Y-98416053D01*
X140570500Y-98416053D01*
X140207391Y-98779160D01*
X140221196Y-98787835D01*
X140391355Y-98847376D01*
X140433980Y-98852178D01*
X140486069Y-98870404D01*
X140525092Y-98909425D01*
X140543319Y-98961514D01*
X140548122Y-99004140D01*
X140607664Y-99174303D01*
X140651637Y-99244286D01*
X140669920Y-99296887D01*
X140663340Y-99352184D01*
X140633225Y-99399025D01*
X140585647Y-99427964D01*
X140480264Y-99462884D01*
X140329346Y-99555971D01*
X140203971Y-99681346D01*
X140110884Y-99832264D01*
X140055113Y-100000573D01*
X140044500Y-100104457D01*
X140044500Y-100877233D01*
X140030985Y-100933528D01*
X139993385Y-100977551D01*
X139939898Y-100999706D01*
X139882182Y-100995164D01*
X139832819Y-100964914D01*
X138151819Y-99283914D01*
X138124939Y-99243686D01*
X138115500Y-99196233D01*
X138115500Y-98062499D01*
X139765437Y-98062499D01*
X139785622Y-98241640D01*
X139845165Y-98411804D01*
X139853838Y-98425608D01*
X140216947Y-98062501D01*
X140216947Y-98062500D01*
X140924053Y-98062500D01*
X141333000Y-98471447D01*
X141741947Y-98062500D01*
X142449053Y-98062500D01*
X142858000Y-98471447D01*
X143266946Y-98062501D01*
X143974053Y-98062501D01*
X144337160Y-98425607D01*
X144337161Y-98425607D01*
X144345835Y-98411803D01*
X144405377Y-98241640D01*
X144425562Y-98062499D01*
X144405377Y-97883359D01*
X144345835Y-97713196D01*
X144337160Y-97699391D01*
X143974053Y-98062500D01*
X143974053Y-98062501D01*
X143266946Y-98062501D01*
X143266947Y-98062500D01*
X142858000Y-97653553D01*
X142449053Y-98062500D01*
X141741947Y-98062500D01*
X141333000Y-97653553D01*
X140924053Y-98062500D01*
X140216947Y-98062500D01*
X139853838Y-97699390D01*
X139853838Y-97699391D01*
X139845164Y-97713196D01*
X139785622Y-97883359D01*
X139765437Y-98062499D01*
X138115500Y-98062499D01*
X138115500Y-97345838D01*
X140207390Y-97345838D01*
X140570499Y-97708947D01*
X140979447Y-97300000D01*
X141686553Y-97300000D01*
X142095500Y-97708947D01*
X142504447Y-97300000D01*
X143211553Y-97300000D01*
X143620500Y-97708947D01*
X143620501Y-97708947D01*
X143983608Y-97345838D01*
X143980008Y-97313884D01*
X143980007Y-97286119D01*
X143983607Y-97254160D01*
X143620500Y-96891053D01*
X143211553Y-97300000D01*
X142504447Y-97300000D01*
X142095500Y-96891053D01*
X141686553Y-97300000D01*
X140979447Y-97300000D01*
X140570501Y-96891053D01*
X140570500Y-96891053D01*
X140207390Y-97254161D01*
X140210991Y-97286123D01*
X140210991Y-97313892D01*
X140207390Y-97345838D01*
X138115500Y-97345838D01*
X138115500Y-96537500D01*
X139765437Y-96537500D01*
X139785622Y-96716640D01*
X139845165Y-96886804D01*
X139853838Y-96900608D01*
X140216947Y-96537501D01*
X140216947Y-96537500D01*
X140924053Y-96537500D01*
X141333000Y-96946447D01*
X141741947Y-96537500D01*
X142449053Y-96537500D01*
X142858000Y-96946447D01*
X143266946Y-96537501D01*
X143974053Y-96537501D01*
X144337160Y-96900607D01*
X144337161Y-96900607D01*
X144345835Y-96886803D01*
X144405377Y-96716640D01*
X144425562Y-96537500D01*
X144405377Y-96358359D01*
X144345835Y-96188196D01*
X144337160Y-96174391D01*
X143974053Y-96537500D01*
X143974053Y-96537501D01*
X143266946Y-96537501D01*
X143266947Y-96537500D01*
X142858000Y-96128553D01*
X142449053Y-96537500D01*
X141741947Y-96537500D01*
X141333000Y-96128553D01*
X140924053Y-96537500D01*
X140216947Y-96537500D01*
X139853838Y-96174390D01*
X139853838Y-96174391D01*
X139845164Y-96188196D01*
X139785622Y-96358359D01*
X139765437Y-96537500D01*
X138115500Y-96537500D01*
X138115500Y-95820838D01*
X140207390Y-95820838D01*
X140570499Y-96183947D01*
X140979446Y-95775001D01*
X141686553Y-95775001D01*
X142095499Y-96183947D01*
X142504447Y-95774999D01*
X143211552Y-95774999D01*
X143620500Y-96183947D01*
X143620501Y-96183947D01*
X143983608Y-95820838D01*
X143969804Y-95812165D01*
X143799640Y-95752622D01*
X143757014Y-95747819D01*
X143704925Y-95729592D01*
X143665904Y-95690569D01*
X143647678Y-95638480D01*
X143642876Y-95595855D01*
X143583335Y-95425696D01*
X143574660Y-95411891D01*
X143211552Y-95774999D01*
X142504447Y-95774999D01*
X142141338Y-95411890D01*
X142109392Y-95415491D01*
X142081623Y-95415491D01*
X142049661Y-95411890D01*
X141686553Y-95775000D01*
X141686553Y-95775001D01*
X140979446Y-95775001D01*
X140979447Y-95775000D01*
X140616338Y-95411890D01*
X140616338Y-95411891D01*
X140607664Y-95425696D01*
X140548122Y-95595859D01*
X140543319Y-95638485D01*
X140525092Y-95690572D01*
X140486072Y-95729592D01*
X140433985Y-95747819D01*
X140391359Y-95752622D01*
X140221196Y-95812164D01*
X140207391Y-95820838D01*
X140207390Y-95820838D01*
X138115500Y-95820838D01*
X138115500Y-95759766D01*
X138124939Y-95712313D01*
X138151819Y-95672085D01*
X138735341Y-95088563D01*
X138765566Y-95058338D01*
X140969890Y-95058338D01*
X141333000Y-95421447D01*
X141333001Y-95421447D01*
X141696108Y-95058338D01*
X142494890Y-95058338D01*
X142858000Y-95421447D01*
X142858001Y-95421447D01*
X143221108Y-95058338D01*
X143207304Y-95049665D01*
X143037140Y-94990122D01*
X142858000Y-94969937D01*
X142678859Y-94990122D01*
X142508696Y-95049664D01*
X142494891Y-95058338D01*
X142494890Y-95058338D01*
X141696108Y-95058338D01*
X141682304Y-95049665D01*
X141512140Y-94990122D01*
X141333000Y-94969937D01*
X141153859Y-94990122D01*
X140983696Y-95049664D01*
X140969891Y-95058338D01*
X140969890Y-95058338D01*
X138765566Y-95058338D01*
X140528727Y-93295175D01*
X140587812Y-93262200D01*
X140634784Y-93264251D01*
X140635065Y-93261507D01*
X140718288Y-93270009D01*
X140752456Y-93273500D01*
X141778543Y-93273500D01*
X141778544Y-93273500D01*
X141882425Y-93262887D01*
X142050738Y-93207115D01*
X142201651Y-93114030D01*
X142327030Y-92988651D01*
X142420115Y-92837738D01*
X142475887Y-92669425D01*
X142486500Y-92565544D01*
X142486500Y-92140000D01*
X143028000Y-92140000D01*
X143028000Y-92564978D01*
X143038493Y-92667695D01*
X143093642Y-92834121D01*
X143185683Y-92983344D01*
X143309655Y-93107316D01*
X143458878Y-93199357D01*
X143625304Y-93254506D01*
X143728022Y-93265000D01*
X143990500Y-93265000D01*
X143990500Y-92140000D01*
X144490500Y-92140000D01*
X144490500Y-93265000D01*
X144752978Y-93265000D01*
X144855695Y-93254506D01*
X145022121Y-93199357D01*
X145171344Y-93107316D01*
X145295316Y-92983344D01*
X145387357Y-92834121D01*
X145442506Y-92667695D01*
X145453000Y-92564978D01*
X145453000Y-92140000D01*
X144490500Y-92140000D01*
X143990500Y-92140000D01*
X143028000Y-92140000D01*
X142486500Y-92140000D01*
X142486500Y-91640000D01*
X143028000Y-91640000D01*
X143990500Y-91640000D01*
X143990500Y-90515000D01*
X144490500Y-90515000D01*
X144490500Y-91640000D01*
X145453000Y-91640000D01*
X145453000Y-91215022D01*
X145442506Y-91112304D01*
X145387357Y-90945878D01*
X145295316Y-90796655D01*
X145171344Y-90672683D01*
X145022121Y-90580642D01*
X144855695Y-90525493D01*
X144752978Y-90515000D01*
X144490500Y-90515000D01*
X143990500Y-90515000D01*
X143728022Y-90515000D01*
X143625304Y-90525493D01*
X143458878Y-90580642D01*
X143309655Y-90672683D01*
X143185683Y-90796655D01*
X143093642Y-90945878D01*
X143038493Y-91112304D01*
X143028000Y-91215022D01*
X143028000Y-91640000D01*
X142486500Y-91640000D01*
X142486500Y-91214456D01*
X142475887Y-91110575D01*
X142420115Y-90942262D01*
X142327030Y-90791349D01*
X142327029Y-90791348D01*
X142327028Y-90791346D01*
X142201653Y-90665971D01*
X142169128Y-90645909D01*
X142050738Y-90572885D01*
X142050735Y-90572884D01*
X141882426Y-90517113D01*
X141830484Y-90511806D01*
X141778544Y-90506500D01*
X140752456Y-90506500D01*
X140717829Y-90510037D01*
X140648573Y-90517113D01*
X140480264Y-90572884D01*
X140329346Y-90665971D01*
X140203971Y-90791346D01*
X140110884Y-90942264D01*
X140055113Y-91110573D01*
X140044500Y-91214457D01*
X140044500Y-91936233D01*
X140035061Y-91983686D01*
X140008181Y-92023914D01*
X137093180Y-94938913D01*
X137076896Y-94951961D01*
X137028339Y-95003668D01*
X137025633Y-95006461D01*
X137005861Y-95026233D01*
X137003321Y-95029508D01*
X136995752Y-95038369D01*
X136965414Y-95070677D01*
X136955582Y-95088563D01*
X136944901Y-95104823D01*
X136932385Y-95120959D01*
X136914786Y-95161628D01*
X136909648Y-95172117D01*
X136888303Y-95210943D01*
X136883226Y-95230718D01*
X136876925Y-95249123D01*
X136868818Y-95267856D01*
X136861888Y-95311610D01*
X136859520Y-95323046D01*
X136848500Y-95365970D01*
X136848500Y-95386384D01*
X136846973Y-95405783D01*
X136843780Y-95425941D01*
X124782500Y-95425941D01*
X124782500Y-84709999D01*
X125429052Y-84709999D01*
X125429053Y-84710000D01*
X128121947Y-84710000D01*
X128121947Y-84709999D01*
X126775500Y-83363553D01*
X125429052Y-84709999D01*
X124782500Y-84709999D01*
X124782500Y-84700809D01*
X124791939Y-84653356D01*
X124818819Y-84613128D01*
X126687819Y-82744128D01*
X126743406Y-82712034D01*
X126807594Y-82712034D01*
X126863181Y-82744128D01*
X128828496Y-84709443D01*
X128882875Y-84703597D01*
X129017589Y-84653352D01*
X129132688Y-84567188D01*
X129218852Y-84452089D01*
X129269097Y-84317375D01*
X129275500Y-84257824D01*
X129275500Y-82552753D01*
X129289015Y-82496458D01*
X129326615Y-82452435D01*
X129380102Y-82430280D01*
X129437818Y-82434822D01*
G37*
%TD.AperFunction*%
M02*
