%TF.GenerationSoftware,KiCad,Pcbnew,7.0.1-3b83917a11~172~ubuntu22.04.1*%
%TF.CreationDate,2023-04-18T10:01:55+02:00*%
%TF.ProjectId,part2,70617274-322e-46b6-9963-61645f706362,rev?*%
%TF.SameCoordinates,Original*%
%TF.FileFunction,Legend,Top*%
%TF.FilePolarity,Positive*%
%FSLAX46Y46*%
G04 Gerber Fmt 4.6, Leading zero omitted, Abs format (unit mm)*
G04 Created by KiCad (PCBNEW 7.0.1-3b83917a11~172~ubuntu22.04.1) date 2023-04-18 10:01:55*
%MOMM*%
%LPD*%
G01*
G04 APERTURE LIST*
G04 Aperture macros list*
%AMRoundRect*
0 Rectangle with rounded corners*
0 $1 Rounding radius*
0 $2 $3 $4 $5 $6 $7 $8 $9 X,Y pos of 4 corners*
0 Add a 4 corners polygon primitive as box body*
4,1,4,$2,$3,$4,$5,$6,$7,$8,$9,$2,$3,0*
0 Add four circle primitives for the rounded corners*
1,1,$1+$1,$2,$3*
1,1,$1+$1,$4,$5*
1,1,$1+$1,$6,$7*
1,1,$1+$1,$8,$9*
0 Add four rect primitives between the rounded corners*
20,1,$1+$1,$2,$3,$4,$5,0*
20,1,$1+$1,$4,$5,$6,$7,0*
20,1,$1+$1,$6,$7,$8,$9,0*
20,1,$1+$1,$8,$9,$2,$3,0*%
G04 Aperture macros list end*
%ADD10C,0.125000*%
%ADD11C,0.150000*%
%ADD12C,0.120000*%
%ADD13RoundRect,0.250000X0.650000X-0.412500X0.650000X0.412500X-0.650000X0.412500X-0.650000X-0.412500X0*%
%ADD14RoundRect,0.250000X0.450000X-0.350000X0.450000X0.350000X-0.450000X0.350000X-0.450000X-0.350000X0*%
%ADD15R,4.000000X1.800000*%
%ADD16RoundRect,0.250000X0.412500X0.650000X-0.412500X0.650000X-0.412500X-0.650000X0.412500X-0.650000X0*%
%ADD17RoundRect,0.250000X-0.350000X-0.450000X0.350000X-0.450000X0.350000X0.450000X-0.350000X0.450000X0*%
%ADD18RoundRect,0.250000X-0.450000X0.350000X-0.450000X-0.350000X0.450000X-0.350000X0.450000X0.350000X0*%
%ADD19RoundRect,0.250000X0.475000X-0.337500X0.475000X0.337500X-0.475000X0.337500X-0.475000X-0.337500X0*%
%ADD20RoundRect,0.250000X-0.475000X0.337500X-0.475000X-0.337500X0.475000X-0.337500X0.475000X0.337500X0*%
%ADD21R,1.000000X1.250000*%
%ADD22RoundRect,0.250000X-0.650000X0.412500X-0.650000X-0.412500X0.650000X-0.412500X0.650000X0.412500X0*%
%ADD23R,1.700000X1.700000*%
%ADD24O,1.700000X1.700000*%
%ADD25RoundRect,0.250000X0.350000X0.450000X-0.350000X0.450000X-0.350000X-0.450000X0.350000X-0.450000X0*%
%ADD26R,2.000000X1.500000*%
%ADD27R,2.000000X3.800000*%
%ADD28R,1.500000X0.900000*%
%ADD29R,0.900000X1.500000*%
%ADD30C,0.600000*%
%ADD31R,4.200000X4.200000*%
%ADD32C,0.650000*%
%ADD33R,1.150000X0.600000*%
%ADD34R,1.150000X0.300000*%
%ADD35O,2.100000X1.000000*%
%ADD36O,1.800000X1.000000*%
G04 APERTURE END LIST*
D10*
X153510571Y-87207619D02*
X154129618Y-87207619D01*
X154129618Y-87207619D02*
X153796285Y-87588571D01*
X153796285Y-87588571D02*
X153939142Y-87588571D01*
X153939142Y-87588571D02*
X154034380Y-87636190D01*
X154034380Y-87636190D02*
X154081999Y-87683809D01*
X154081999Y-87683809D02*
X154129618Y-87779047D01*
X154129618Y-87779047D02*
X154129618Y-88017142D01*
X154129618Y-88017142D02*
X154081999Y-88112380D01*
X154081999Y-88112380D02*
X154034380Y-88160000D01*
X154034380Y-88160000D02*
X153939142Y-88207619D01*
X153939142Y-88207619D02*
X153653428Y-88207619D01*
X153653428Y-88207619D02*
X153558190Y-88160000D01*
X153558190Y-88160000D02*
X153510571Y-88112380D01*
X154415333Y-87207619D02*
X154748666Y-88207619D01*
X154748666Y-88207619D02*
X155081999Y-87207619D01*
X155320095Y-87207619D02*
X155939142Y-87207619D01*
X155939142Y-87207619D02*
X155605809Y-87588571D01*
X155605809Y-87588571D02*
X155748666Y-87588571D01*
X155748666Y-87588571D02*
X155843904Y-87636190D01*
X155843904Y-87636190D02*
X155891523Y-87683809D01*
X155891523Y-87683809D02*
X155939142Y-87779047D01*
X155939142Y-87779047D02*
X155939142Y-88017142D01*
X155939142Y-88017142D02*
X155891523Y-88112380D01*
X155891523Y-88112380D02*
X155843904Y-88160000D01*
X155843904Y-88160000D02*
X155748666Y-88207619D01*
X155748666Y-88207619D02*
X155462952Y-88207619D01*
X155462952Y-88207619D02*
X155367714Y-88160000D01*
X155367714Y-88160000D02*
X155320095Y-88112380D01*
X153510571Y-89747619D02*
X154081999Y-89747619D01*
X153796285Y-90747619D02*
X153796285Y-89747619D01*
X154320095Y-89747619D02*
X154986761Y-90747619D01*
X154986761Y-89747619D02*
X154320095Y-90747619D01*
X155367714Y-90747619D02*
X155367714Y-89747619D01*
X155367714Y-89747619D02*
X155605809Y-89747619D01*
X155605809Y-89747619D02*
X155748666Y-89795238D01*
X155748666Y-89795238D02*
X155843904Y-89890476D01*
X155843904Y-89890476D02*
X155891523Y-89985714D01*
X155891523Y-89985714D02*
X155939142Y-90176190D01*
X155939142Y-90176190D02*
X155939142Y-90319047D01*
X155939142Y-90319047D02*
X155891523Y-90509523D01*
X155891523Y-90509523D02*
X155843904Y-90604761D01*
X155843904Y-90604761D02*
X155748666Y-90700000D01*
X155748666Y-90700000D02*
X155605809Y-90747619D01*
X155605809Y-90747619D02*
X155367714Y-90747619D01*
X153843904Y-94875238D02*
X153748666Y-94827619D01*
X153748666Y-94827619D02*
X153605809Y-94827619D01*
X153605809Y-94827619D02*
X153462952Y-94875238D01*
X153462952Y-94875238D02*
X153367714Y-94970476D01*
X153367714Y-94970476D02*
X153320095Y-95065714D01*
X153320095Y-95065714D02*
X153272476Y-95256190D01*
X153272476Y-95256190D02*
X153272476Y-95399047D01*
X153272476Y-95399047D02*
X153320095Y-95589523D01*
X153320095Y-95589523D02*
X153367714Y-95684761D01*
X153367714Y-95684761D02*
X153462952Y-95780000D01*
X153462952Y-95780000D02*
X153605809Y-95827619D01*
X153605809Y-95827619D02*
X153701047Y-95827619D01*
X153701047Y-95827619D02*
X153843904Y-95780000D01*
X153843904Y-95780000D02*
X153891523Y-95732380D01*
X153891523Y-95732380D02*
X153891523Y-95399047D01*
X153891523Y-95399047D02*
X153701047Y-95399047D01*
X154320095Y-95827619D02*
X154320095Y-94827619D01*
X154320095Y-94827619D02*
X154891523Y-95827619D01*
X154891523Y-95827619D02*
X154891523Y-94827619D01*
X155367714Y-95827619D02*
X155367714Y-94827619D01*
X155367714Y-94827619D02*
X155605809Y-94827619D01*
X155605809Y-94827619D02*
X155748666Y-94875238D01*
X155748666Y-94875238D02*
X155843904Y-94970476D01*
X155843904Y-94970476D02*
X155891523Y-95065714D01*
X155891523Y-95065714D02*
X155939142Y-95256190D01*
X155939142Y-95256190D02*
X155939142Y-95399047D01*
X155939142Y-95399047D02*
X155891523Y-95589523D01*
X155891523Y-95589523D02*
X155843904Y-95684761D01*
X155843904Y-95684761D02*
X155748666Y-95780000D01*
X155748666Y-95780000D02*
X155605809Y-95827619D01*
X155605809Y-95827619D02*
X155367714Y-95827619D01*
X153986761Y-93287619D02*
X153653428Y-92811428D01*
X153415333Y-93287619D02*
X153415333Y-92287619D01*
X153415333Y-92287619D02*
X153796285Y-92287619D01*
X153796285Y-92287619D02*
X153891523Y-92335238D01*
X153891523Y-92335238D02*
X153939142Y-92382857D01*
X153939142Y-92382857D02*
X153986761Y-92478095D01*
X153986761Y-92478095D02*
X153986761Y-92620952D01*
X153986761Y-92620952D02*
X153939142Y-92716190D01*
X153939142Y-92716190D02*
X153891523Y-92763809D01*
X153891523Y-92763809D02*
X153796285Y-92811428D01*
X153796285Y-92811428D02*
X153415333Y-92811428D01*
X154320095Y-92287619D02*
X154986761Y-93287619D01*
X154986761Y-92287619D02*
X154320095Y-93287619D01*
X155367714Y-93287619D02*
X155367714Y-92287619D01*
X155367714Y-92287619D02*
X155605809Y-92287619D01*
X155605809Y-92287619D02*
X155748666Y-92335238D01*
X155748666Y-92335238D02*
X155843904Y-92430476D01*
X155843904Y-92430476D02*
X155891523Y-92525714D01*
X155891523Y-92525714D02*
X155939142Y-92716190D01*
X155939142Y-92716190D02*
X155939142Y-92859047D01*
X155939142Y-92859047D02*
X155891523Y-93049523D01*
X155891523Y-93049523D02*
X155843904Y-93144761D01*
X155843904Y-93144761D02*
X155748666Y-93240000D01*
X155748666Y-93240000D02*
X155605809Y-93287619D01*
X155605809Y-93287619D02*
X155367714Y-93287619D01*
D11*
%TO.C,C4*%
X137810880Y-115166666D02*
X137858500Y-115214285D01*
X137858500Y-115214285D02*
X137906119Y-115357142D01*
X137906119Y-115357142D02*
X137906119Y-115452380D01*
X137906119Y-115452380D02*
X137858500Y-115595237D01*
X137858500Y-115595237D02*
X137763261Y-115690475D01*
X137763261Y-115690475D02*
X137668023Y-115738094D01*
X137668023Y-115738094D02*
X137477547Y-115785713D01*
X137477547Y-115785713D02*
X137334690Y-115785713D01*
X137334690Y-115785713D02*
X137144214Y-115738094D01*
X137144214Y-115738094D02*
X137048976Y-115690475D01*
X137048976Y-115690475D02*
X136953738Y-115595237D01*
X136953738Y-115595237D02*
X136906119Y-115452380D01*
X136906119Y-115452380D02*
X136906119Y-115357142D01*
X136906119Y-115357142D02*
X136953738Y-115214285D01*
X136953738Y-115214285D02*
X137001357Y-115166666D01*
X137239452Y-114309523D02*
X137906119Y-114309523D01*
X136858500Y-114547618D02*
X137572785Y-114785713D01*
X137572785Y-114785713D02*
X137572785Y-114166666D01*
%TO.C,R5*%
X127784619Y-98402666D02*
X127308428Y-98735999D01*
X127784619Y-98974094D02*
X126784619Y-98974094D01*
X126784619Y-98974094D02*
X126784619Y-98593142D01*
X126784619Y-98593142D02*
X126832238Y-98497904D01*
X126832238Y-98497904D02*
X126879857Y-98450285D01*
X126879857Y-98450285D02*
X126975095Y-98402666D01*
X126975095Y-98402666D02*
X127117952Y-98402666D01*
X127117952Y-98402666D02*
X127213190Y-98450285D01*
X127213190Y-98450285D02*
X127260809Y-98497904D01*
X127260809Y-98497904D02*
X127308428Y-98593142D01*
X127308428Y-98593142D02*
X127308428Y-98974094D01*
X126784619Y-97497904D02*
X126784619Y-97974094D01*
X126784619Y-97974094D02*
X127260809Y-98021713D01*
X127260809Y-98021713D02*
X127213190Y-97974094D01*
X127213190Y-97974094D02*
X127165571Y-97878856D01*
X127165571Y-97878856D02*
X127165571Y-97640761D01*
X127165571Y-97640761D02*
X127213190Y-97545523D01*
X127213190Y-97545523D02*
X127260809Y-97497904D01*
X127260809Y-97497904D02*
X127356047Y-97450285D01*
X127356047Y-97450285D02*
X127594142Y-97450285D01*
X127594142Y-97450285D02*
X127689380Y-97497904D01*
X127689380Y-97497904D02*
X127737000Y-97545523D01*
X127737000Y-97545523D02*
X127784619Y-97640761D01*
X127784619Y-97640761D02*
X127784619Y-97878856D01*
X127784619Y-97878856D02*
X127737000Y-97974094D01*
X127737000Y-97974094D02*
X127689380Y-98021713D01*
%TO.C,J11*%
X128988857Y-78575619D02*
X129226952Y-79575619D01*
X129226952Y-79575619D02*
X129417428Y-78861333D01*
X129417428Y-78861333D02*
X129607904Y-79575619D01*
X129607904Y-79575619D02*
X129846000Y-78575619D01*
X130179333Y-79528000D02*
X130322190Y-79575619D01*
X130322190Y-79575619D02*
X130560285Y-79575619D01*
X130560285Y-79575619D02*
X130655523Y-79528000D01*
X130655523Y-79528000D02*
X130703142Y-79480380D01*
X130703142Y-79480380D02*
X130750761Y-79385142D01*
X130750761Y-79385142D02*
X130750761Y-79289904D01*
X130750761Y-79289904D02*
X130703142Y-79194666D01*
X130703142Y-79194666D02*
X130655523Y-79147047D01*
X130655523Y-79147047D02*
X130560285Y-79099428D01*
X130560285Y-79099428D02*
X130369809Y-79051809D01*
X130369809Y-79051809D02*
X130274571Y-79004190D01*
X130274571Y-79004190D02*
X130226952Y-78956571D01*
X130226952Y-78956571D02*
X130179333Y-78861333D01*
X130179333Y-78861333D02*
X130179333Y-78766095D01*
X130179333Y-78766095D02*
X130226952Y-78670857D01*
X130226952Y-78670857D02*
X130274571Y-78623238D01*
X130274571Y-78623238D02*
X130369809Y-78575619D01*
X130369809Y-78575619D02*
X130607904Y-78575619D01*
X130607904Y-78575619D02*
X130750761Y-78623238D01*
X129417428Y-83123809D02*
X129560285Y-83171428D01*
X129560285Y-83171428D02*
X129607904Y-83219047D01*
X129607904Y-83219047D02*
X129655523Y-83314285D01*
X129655523Y-83314285D02*
X129655523Y-83457142D01*
X129655523Y-83457142D02*
X129607904Y-83552380D01*
X129607904Y-83552380D02*
X129560285Y-83600000D01*
X129560285Y-83600000D02*
X129465047Y-83647619D01*
X129465047Y-83647619D02*
X129084095Y-83647619D01*
X129084095Y-83647619D02*
X129084095Y-82647619D01*
X129084095Y-82647619D02*
X129417428Y-82647619D01*
X129417428Y-82647619D02*
X129512666Y-82695238D01*
X129512666Y-82695238D02*
X129560285Y-82742857D01*
X129560285Y-82742857D02*
X129607904Y-82838095D01*
X129607904Y-82838095D02*
X129607904Y-82933333D01*
X129607904Y-82933333D02*
X129560285Y-83028571D01*
X129560285Y-83028571D02*
X129512666Y-83076190D01*
X129512666Y-83076190D02*
X129417428Y-83123809D01*
X129417428Y-83123809D02*
X129084095Y-83123809D01*
X130655523Y-83552380D02*
X130607904Y-83600000D01*
X130607904Y-83600000D02*
X130465047Y-83647619D01*
X130465047Y-83647619D02*
X130369809Y-83647619D01*
X130369809Y-83647619D02*
X130226952Y-83600000D01*
X130226952Y-83600000D02*
X130131714Y-83504761D01*
X130131714Y-83504761D02*
X130084095Y-83409523D01*
X130084095Y-83409523D02*
X130036476Y-83219047D01*
X130036476Y-83219047D02*
X130036476Y-83076190D01*
X130036476Y-83076190D02*
X130084095Y-82885714D01*
X130084095Y-82885714D02*
X130131714Y-82790476D01*
X130131714Y-82790476D02*
X130226952Y-82695238D01*
X130226952Y-82695238D02*
X130369809Y-82647619D01*
X130369809Y-82647619D02*
X130465047Y-82647619D01*
X130465047Y-82647619D02*
X130607904Y-82695238D01*
X130607904Y-82695238D02*
X130655523Y-82742857D01*
X131560285Y-83647619D02*
X131084095Y-83647619D01*
X131084095Y-83647619D02*
X131084095Y-82647619D01*
X131893619Y-83647619D02*
X131893619Y-82647619D01*
X132465047Y-83647619D02*
X132036476Y-83076190D01*
X132465047Y-82647619D02*
X131893619Y-83219047D01*
X129084095Y-81607619D02*
X129084095Y-80607619D01*
X129084095Y-80607619D02*
X129322190Y-80607619D01*
X129322190Y-80607619D02*
X129465047Y-80655238D01*
X129465047Y-80655238D02*
X129560285Y-80750476D01*
X129560285Y-80750476D02*
X129607904Y-80845714D01*
X129607904Y-80845714D02*
X129655523Y-81036190D01*
X129655523Y-81036190D02*
X129655523Y-81179047D01*
X129655523Y-81179047D02*
X129607904Y-81369523D01*
X129607904Y-81369523D02*
X129560285Y-81464761D01*
X129560285Y-81464761D02*
X129465047Y-81560000D01*
X129465047Y-81560000D02*
X129322190Y-81607619D01*
X129322190Y-81607619D02*
X129084095Y-81607619D01*
X130036476Y-81321904D02*
X130512666Y-81321904D01*
X129941238Y-81607619D02*
X130274571Y-80607619D01*
X130274571Y-80607619D02*
X130607904Y-81607619D01*
X130798381Y-80607619D02*
X131369809Y-80607619D01*
X131084095Y-81607619D02*
X131084095Y-80607619D01*
X131655524Y-81321904D02*
X132131714Y-81321904D01*
X131560286Y-81607619D02*
X131893619Y-80607619D01*
X131893619Y-80607619D02*
X132226952Y-81607619D01*
%TO.C,C5*%
X129293333Y-112577380D02*
X129245714Y-112625000D01*
X129245714Y-112625000D02*
X129102857Y-112672619D01*
X129102857Y-112672619D02*
X129007619Y-112672619D01*
X129007619Y-112672619D02*
X128864762Y-112625000D01*
X128864762Y-112625000D02*
X128769524Y-112529761D01*
X128769524Y-112529761D02*
X128721905Y-112434523D01*
X128721905Y-112434523D02*
X128674286Y-112244047D01*
X128674286Y-112244047D02*
X128674286Y-112101190D01*
X128674286Y-112101190D02*
X128721905Y-111910714D01*
X128721905Y-111910714D02*
X128769524Y-111815476D01*
X128769524Y-111815476D02*
X128864762Y-111720238D01*
X128864762Y-111720238D02*
X129007619Y-111672619D01*
X129007619Y-111672619D02*
X129102857Y-111672619D01*
X129102857Y-111672619D02*
X129245714Y-111720238D01*
X129245714Y-111720238D02*
X129293333Y-111767857D01*
X130198095Y-111672619D02*
X129721905Y-111672619D01*
X129721905Y-111672619D02*
X129674286Y-112148809D01*
X129674286Y-112148809D02*
X129721905Y-112101190D01*
X129721905Y-112101190D02*
X129817143Y-112053571D01*
X129817143Y-112053571D02*
X130055238Y-112053571D01*
X130055238Y-112053571D02*
X130150476Y-112101190D01*
X130150476Y-112101190D02*
X130198095Y-112148809D01*
X130198095Y-112148809D02*
X130245714Y-112244047D01*
X130245714Y-112244047D02*
X130245714Y-112482142D01*
X130245714Y-112482142D02*
X130198095Y-112577380D01*
X130198095Y-112577380D02*
X130150476Y-112625000D01*
X130150476Y-112625000D02*
X130055238Y-112672619D01*
X130055238Y-112672619D02*
X129817143Y-112672619D01*
X129817143Y-112672619D02*
X129721905Y-112625000D01*
X129721905Y-112625000D02*
X129674286Y-112577380D01*
%TO.C,R6*%
X157233333Y-100810619D02*
X156900000Y-100334428D01*
X156661905Y-100810619D02*
X156661905Y-99810619D01*
X156661905Y-99810619D02*
X157042857Y-99810619D01*
X157042857Y-99810619D02*
X157138095Y-99858238D01*
X157138095Y-99858238D02*
X157185714Y-99905857D01*
X157185714Y-99905857D02*
X157233333Y-100001095D01*
X157233333Y-100001095D02*
X157233333Y-100143952D01*
X157233333Y-100143952D02*
X157185714Y-100239190D01*
X157185714Y-100239190D02*
X157138095Y-100286809D01*
X157138095Y-100286809D02*
X157042857Y-100334428D01*
X157042857Y-100334428D02*
X156661905Y-100334428D01*
X158090476Y-99810619D02*
X157900000Y-99810619D01*
X157900000Y-99810619D02*
X157804762Y-99858238D01*
X157804762Y-99858238D02*
X157757143Y-99905857D01*
X157757143Y-99905857D02*
X157661905Y-100048714D01*
X157661905Y-100048714D02*
X157614286Y-100239190D01*
X157614286Y-100239190D02*
X157614286Y-100620142D01*
X157614286Y-100620142D02*
X157661905Y-100715380D01*
X157661905Y-100715380D02*
X157709524Y-100763000D01*
X157709524Y-100763000D02*
X157804762Y-100810619D01*
X157804762Y-100810619D02*
X157995238Y-100810619D01*
X157995238Y-100810619D02*
X158090476Y-100763000D01*
X158090476Y-100763000D02*
X158138095Y-100715380D01*
X158138095Y-100715380D02*
X158185714Y-100620142D01*
X158185714Y-100620142D02*
X158185714Y-100382047D01*
X158185714Y-100382047D02*
X158138095Y-100286809D01*
X158138095Y-100286809D02*
X158090476Y-100239190D01*
X158090476Y-100239190D02*
X157995238Y-100191571D01*
X157995238Y-100191571D02*
X157804762Y-100191571D01*
X157804762Y-100191571D02*
X157709524Y-100239190D01*
X157709524Y-100239190D02*
X157661905Y-100286809D01*
X157661905Y-100286809D02*
X157614286Y-100382047D01*
%TO.C,R3*%
X142622619Y-119230666D02*
X142146428Y-119563999D01*
X142622619Y-119802094D02*
X141622619Y-119802094D01*
X141622619Y-119802094D02*
X141622619Y-119421142D01*
X141622619Y-119421142D02*
X141670238Y-119325904D01*
X141670238Y-119325904D02*
X141717857Y-119278285D01*
X141717857Y-119278285D02*
X141813095Y-119230666D01*
X141813095Y-119230666D02*
X141955952Y-119230666D01*
X141955952Y-119230666D02*
X142051190Y-119278285D01*
X142051190Y-119278285D02*
X142098809Y-119325904D01*
X142098809Y-119325904D02*
X142146428Y-119421142D01*
X142146428Y-119421142D02*
X142146428Y-119802094D01*
X141622619Y-118897332D02*
X141622619Y-118278285D01*
X141622619Y-118278285D02*
X142003571Y-118611618D01*
X142003571Y-118611618D02*
X142003571Y-118468761D01*
X142003571Y-118468761D02*
X142051190Y-118373523D01*
X142051190Y-118373523D02*
X142098809Y-118325904D01*
X142098809Y-118325904D02*
X142194047Y-118278285D01*
X142194047Y-118278285D02*
X142432142Y-118278285D01*
X142432142Y-118278285D02*
X142527380Y-118325904D01*
X142527380Y-118325904D02*
X142575000Y-118373523D01*
X142575000Y-118373523D02*
X142622619Y-118468761D01*
X142622619Y-118468761D02*
X142622619Y-118754475D01*
X142622619Y-118754475D02*
X142575000Y-118849713D01*
X142575000Y-118849713D02*
X142527380Y-118897332D01*
%TO.C,C1*%
X129721380Y-98402666D02*
X129769000Y-98450285D01*
X129769000Y-98450285D02*
X129816619Y-98593142D01*
X129816619Y-98593142D02*
X129816619Y-98688380D01*
X129816619Y-98688380D02*
X129769000Y-98831237D01*
X129769000Y-98831237D02*
X129673761Y-98926475D01*
X129673761Y-98926475D02*
X129578523Y-98974094D01*
X129578523Y-98974094D02*
X129388047Y-99021713D01*
X129388047Y-99021713D02*
X129245190Y-99021713D01*
X129245190Y-99021713D02*
X129054714Y-98974094D01*
X129054714Y-98974094D02*
X128959476Y-98926475D01*
X128959476Y-98926475D02*
X128864238Y-98831237D01*
X128864238Y-98831237D02*
X128816619Y-98688380D01*
X128816619Y-98688380D02*
X128816619Y-98593142D01*
X128816619Y-98593142D02*
X128864238Y-98450285D01*
X128864238Y-98450285D02*
X128911857Y-98402666D01*
X129816619Y-97450285D02*
X129816619Y-98021713D01*
X129816619Y-97735999D02*
X128816619Y-97735999D01*
X128816619Y-97735999D02*
X128959476Y-97831237D01*
X128959476Y-97831237D02*
X129054714Y-97926475D01*
X129054714Y-97926475D02*
X129102333Y-98021713D01*
%TO.C,J7*%
X154388857Y-82647619D02*
X154626952Y-83647619D01*
X154626952Y-83647619D02*
X154817428Y-82933333D01*
X154817428Y-82933333D02*
X155007904Y-83647619D01*
X155007904Y-83647619D02*
X155246000Y-82647619D01*
X155579333Y-83600000D02*
X155722190Y-83647619D01*
X155722190Y-83647619D02*
X155960285Y-83647619D01*
X155960285Y-83647619D02*
X156055523Y-83600000D01*
X156055523Y-83600000D02*
X156103142Y-83552380D01*
X156103142Y-83552380D02*
X156150761Y-83457142D01*
X156150761Y-83457142D02*
X156150761Y-83361904D01*
X156150761Y-83361904D02*
X156103142Y-83266666D01*
X156103142Y-83266666D02*
X156055523Y-83219047D01*
X156055523Y-83219047D02*
X155960285Y-83171428D01*
X155960285Y-83171428D02*
X155769809Y-83123809D01*
X155769809Y-83123809D02*
X155674571Y-83076190D01*
X155674571Y-83076190D02*
X155626952Y-83028571D01*
X155626952Y-83028571D02*
X155579333Y-82933333D01*
X155579333Y-82933333D02*
X155579333Y-82838095D01*
X155579333Y-82838095D02*
X155626952Y-82742857D01*
X155626952Y-82742857D02*
X155674571Y-82695238D01*
X155674571Y-82695238D02*
X155769809Y-82647619D01*
X155769809Y-82647619D02*
X156007904Y-82647619D01*
X156007904Y-82647619D02*
X156150761Y-82695238D01*
X153103142Y-81607619D02*
X153103142Y-80607619D01*
X153103142Y-80607619D02*
X153341237Y-80607619D01*
X153341237Y-80607619D02*
X153484094Y-80655238D01*
X153484094Y-80655238D02*
X153579332Y-80750476D01*
X153579332Y-80750476D02*
X153626951Y-80845714D01*
X153626951Y-80845714D02*
X153674570Y-81036190D01*
X153674570Y-81036190D02*
X153674570Y-81179047D01*
X153674570Y-81179047D02*
X153626951Y-81369523D01*
X153626951Y-81369523D02*
X153579332Y-81464761D01*
X153579332Y-81464761D02*
X153484094Y-81560000D01*
X153484094Y-81560000D02*
X153341237Y-81607619D01*
X153341237Y-81607619D02*
X153103142Y-81607619D01*
X154055523Y-81321904D02*
X154531713Y-81321904D01*
X153960285Y-81607619D02*
X154293618Y-80607619D01*
X154293618Y-80607619D02*
X154626951Y-81607619D01*
X154817428Y-80607619D02*
X155388856Y-80607619D01*
X155103142Y-81607619D02*
X155103142Y-80607619D01*
X155674571Y-81321904D02*
X156150761Y-81321904D01*
X155579333Y-81607619D02*
X155912666Y-80607619D01*
X155912666Y-80607619D02*
X156245999Y-81607619D01*
X153103142Y-79051809D02*
X153245999Y-79099428D01*
X153245999Y-79099428D02*
X153293618Y-79147047D01*
X153293618Y-79147047D02*
X153341237Y-79242285D01*
X153341237Y-79242285D02*
X153341237Y-79385142D01*
X153341237Y-79385142D02*
X153293618Y-79480380D01*
X153293618Y-79480380D02*
X153245999Y-79528000D01*
X153245999Y-79528000D02*
X153150761Y-79575619D01*
X153150761Y-79575619D02*
X152769809Y-79575619D01*
X152769809Y-79575619D02*
X152769809Y-78575619D01*
X152769809Y-78575619D02*
X153103142Y-78575619D01*
X153103142Y-78575619D02*
X153198380Y-78623238D01*
X153198380Y-78623238D02*
X153245999Y-78670857D01*
X153245999Y-78670857D02*
X153293618Y-78766095D01*
X153293618Y-78766095D02*
X153293618Y-78861333D01*
X153293618Y-78861333D02*
X153245999Y-78956571D01*
X153245999Y-78956571D02*
X153198380Y-79004190D01*
X153198380Y-79004190D02*
X153103142Y-79051809D01*
X153103142Y-79051809D02*
X152769809Y-79051809D01*
X154341237Y-79480380D02*
X154293618Y-79528000D01*
X154293618Y-79528000D02*
X154150761Y-79575619D01*
X154150761Y-79575619D02*
X154055523Y-79575619D01*
X154055523Y-79575619D02*
X153912666Y-79528000D01*
X153912666Y-79528000D02*
X153817428Y-79432761D01*
X153817428Y-79432761D02*
X153769809Y-79337523D01*
X153769809Y-79337523D02*
X153722190Y-79147047D01*
X153722190Y-79147047D02*
X153722190Y-79004190D01*
X153722190Y-79004190D02*
X153769809Y-78813714D01*
X153769809Y-78813714D02*
X153817428Y-78718476D01*
X153817428Y-78718476D02*
X153912666Y-78623238D01*
X153912666Y-78623238D02*
X154055523Y-78575619D01*
X154055523Y-78575619D02*
X154150761Y-78575619D01*
X154150761Y-78575619D02*
X154293618Y-78623238D01*
X154293618Y-78623238D02*
X154341237Y-78670857D01*
X155245999Y-79575619D02*
X154769809Y-79575619D01*
X154769809Y-79575619D02*
X154769809Y-78575619D01*
X155579333Y-79575619D02*
X155579333Y-78575619D01*
X156150761Y-79575619D02*
X155722190Y-79004190D01*
X156150761Y-78575619D02*
X155579333Y-79147047D01*
%TO.C,C3*%
X130222880Y-90610166D02*
X130270500Y-90657785D01*
X130270500Y-90657785D02*
X130318119Y-90800642D01*
X130318119Y-90800642D02*
X130318119Y-90895880D01*
X130318119Y-90895880D02*
X130270500Y-91038737D01*
X130270500Y-91038737D02*
X130175261Y-91133975D01*
X130175261Y-91133975D02*
X130080023Y-91181594D01*
X130080023Y-91181594D02*
X129889547Y-91229213D01*
X129889547Y-91229213D02*
X129746690Y-91229213D01*
X129746690Y-91229213D02*
X129556214Y-91181594D01*
X129556214Y-91181594D02*
X129460976Y-91133975D01*
X129460976Y-91133975D02*
X129365738Y-91038737D01*
X129365738Y-91038737D02*
X129318119Y-90895880D01*
X129318119Y-90895880D02*
X129318119Y-90800642D01*
X129318119Y-90800642D02*
X129365738Y-90657785D01*
X129365738Y-90657785D02*
X129413357Y-90610166D01*
X129318119Y-90276832D02*
X129318119Y-89657785D01*
X129318119Y-89657785D02*
X129699071Y-89991118D01*
X129699071Y-89991118D02*
X129699071Y-89848261D01*
X129699071Y-89848261D02*
X129746690Y-89753023D01*
X129746690Y-89753023D02*
X129794309Y-89705404D01*
X129794309Y-89705404D02*
X129889547Y-89657785D01*
X129889547Y-89657785D02*
X130127642Y-89657785D01*
X130127642Y-89657785D02*
X130222880Y-89705404D01*
X130222880Y-89705404D02*
X130270500Y-89753023D01*
X130270500Y-89753023D02*
X130318119Y-89848261D01*
X130318119Y-89848261D02*
X130318119Y-90133975D01*
X130318119Y-90133975D02*
X130270500Y-90229213D01*
X130270500Y-90229213D02*
X130222880Y-90276832D01*
%TO.C,R4*%
X144654619Y-119230666D02*
X144178428Y-119563999D01*
X144654619Y-119802094D02*
X143654619Y-119802094D01*
X143654619Y-119802094D02*
X143654619Y-119421142D01*
X143654619Y-119421142D02*
X143702238Y-119325904D01*
X143702238Y-119325904D02*
X143749857Y-119278285D01*
X143749857Y-119278285D02*
X143845095Y-119230666D01*
X143845095Y-119230666D02*
X143987952Y-119230666D01*
X143987952Y-119230666D02*
X144083190Y-119278285D01*
X144083190Y-119278285D02*
X144130809Y-119325904D01*
X144130809Y-119325904D02*
X144178428Y-119421142D01*
X144178428Y-119421142D02*
X144178428Y-119802094D01*
X143987952Y-118373523D02*
X144654619Y-118373523D01*
X143607000Y-118611618D02*
X144321285Y-118849713D01*
X144321285Y-118849713D02*
X144321285Y-118230666D01*
%TO.C,R7*%
X157233333Y-98778619D02*
X156900000Y-98302428D01*
X156661905Y-98778619D02*
X156661905Y-97778619D01*
X156661905Y-97778619D02*
X157042857Y-97778619D01*
X157042857Y-97778619D02*
X157138095Y-97826238D01*
X157138095Y-97826238D02*
X157185714Y-97873857D01*
X157185714Y-97873857D02*
X157233333Y-97969095D01*
X157233333Y-97969095D02*
X157233333Y-98111952D01*
X157233333Y-98111952D02*
X157185714Y-98207190D01*
X157185714Y-98207190D02*
X157138095Y-98254809D01*
X157138095Y-98254809D02*
X157042857Y-98302428D01*
X157042857Y-98302428D02*
X156661905Y-98302428D01*
X157566667Y-97778619D02*
X158233333Y-97778619D01*
X158233333Y-97778619D02*
X157804762Y-98778619D01*
%TO.C,SW2*%
X157844667Y-110593000D02*
X157987524Y-110640619D01*
X157987524Y-110640619D02*
X158225619Y-110640619D01*
X158225619Y-110640619D02*
X158320857Y-110593000D01*
X158320857Y-110593000D02*
X158368476Y-110545380D01*
X158368476Y-110545380D02*
X158416095Y-110450142D01*
X158416095Y-110450142D02*
X158416095Y-110354904D01*
X158416095Y-110354904D02*
X158368476Y-110259666D01*
X158368476Y-110259666D02*
X158320857Y-110212047D01*
X158320857Y-110212047D02*
X158225619Y-110164428D01*
X158225619Y-110164428D02*
X158035143Y-110116809D01*
X158035143Y-110116809D02*
X157939905Y-110069190D01*
X157939905Y-110069190D02*
X157892286Y-110021571D01*
X157892286Y-110021571D02*
X157844667Y-109926333D01*
X157844667Y-109926333D02*
X157844667Y-109831095D01*
X157844667Y-109831095D02*
X157892286Y-109735857D01*
X157892286Y-109735857D02*
X157939905Y-109688238D01*
X157939905Y-109688238D02*
X158035143Y-109640619D01*
X158035143Y-109640619D02*
X158273238Y-109640619D01*
X158273238Y-109640619D02*
X158416095Y-109688238D01*
X158749429Y-109640619D02*
X158987524Y-110640619D01*
X158987524Y-110640619D02*
X159178000Y-109926333D01*
X159178000Y-109926333D02*
X159368476Y-110640619D01*
X159368476Y-110640619D02*
X159606572Y-109640619D01*
X159939905Y-109735857D02*
X159987524Y-109688238D01*
X159987524Y-109688238D02*
X160082762Y-109640619D01*
X160082762Y-109640619D02*
X160320857Y-109640619D01*
X160320857Y-109640619D02*
X160416095Y-109688238D01*
X160416095Y-109688238D02*
X160463714Y-109735857D01*
X160463714Y-109735857D02*
X160511333Y-109831095D01*
X160511333Y-109831095D02*
X160511333Y-109926333D01*
X160511333Y-109926333D02*
X160463714Y-110069190D01*
X160463714Y-110069190D02*
X159892286Y-110640619D01*
X159892286Y-110640619D02*
X160511333Y-110640619D01*
%TO.C,C2*%
X126525380Y-91096666D02*
X126573000Y-91144285D01*
X126573000Y-91144285D02*
X126620619Y-91287142D01*
X126620619Y-91287142D02*
X126620619Y-91382380D01*
X126620619Y-91382380D02*
X126573000Y-91525237D01*
X126573000Y-91525237D02*
X126477761Y-91620475D01*
X126477761Y-91620475D02*
X126382523Y-91668094D01*
X126382523Y-91668094D02*
X126192047Y-91715713D01*
X126192047Y-91715713D02*
X126049190Y-91715713D01*
X126049190Y-91715713D02*
X125858714Y-91668094D01*
X125858714Y-91668094D02*
X125763476Y-91620475D01*
X125763476Y-91620475D02*
X125668238Y-91525237D01*
X125668238Y-91525237D02*
X125620619Y-91382380D01*
X125620619Y-91382380D02*
X125620619Y-91287142D01*
X125620619Y-91287142D02*
X125668238Y-91144285D01*
X125668238Y-91144285D02*
X125715857Y-91096666D01*
X125715857Y-90715713D02*
X125668238Y-90668094D01*
X125668238Y-90668094D02*
X125620619Y-90572856D01*
X125620619Y-90572856D02*
X125620619Y-90334761D01*
X125620619Y-90334761D02*
X125668238Y-90239523D01*
X125668238Y-90239523D02*
X125715857Y-90191904D01*
X125715857Y-90191904D02*
X125811095Y-90144285D01*
X125811095Y-90144285D02*
X125906333Y-90144285D01*
X125906333Y-90144285D02*
X126049190Y-90191904D01*
X126049190Y-90191904D02*
X126620619Y-90763332D01*
X126620619Y-90763332D02*
X126620619Y-90144285D01*
%TO.C,J4*%
X136288619Y-111075333D02*
X137002904Y-111075333D01*
X137002904Y-111075333D02*
X137145761Y-111122952D01*
X137145761Y-111122952D02*
X137241000Y-111218190D01*
X137241000Y-111218190D02*
X137288619Y-111361047D01*
X137288619Y-111361047D02*
X137288619Y-111456285D01*
X136621952Y-110170571D02*
X137288619Y-110170571D01*
X136241000Y-110408666D02*
X136955285Y-110646761D01*
X136955285Y-110646761D02*
X136955285Y-110027714D01*
%TO.C,R2*%
X146819333Y-117748619D02*
X146486000Y-117272428D01*
X146247905Y-117748619D02*
X146247905Y-116748619D01*
X146247905Y-116748619D02*
X146628857Y-116748619D01*
X146628857Y-116748619D02*
X146724095Y-116796238D01*
X146724095Y-116796238D02*
X146771714Y-116843857D01*
X146771714Y-116843857D02*
X146819333Y-116939095D01*
X146819333Y-116939095D02*
X146819333Y-117081952D01*
X146819333Y-117081952D02*
X146771714Y-117177190D01*
X146771714Y-117177190D02*
X146724095Y-117224809D01*
X146724095Y-117224809D02*
X146628857Y-117272428D01*
X146628857Y-117272428D02*
X146247905Y-117272428D01*
X147200286Y-116843857D02*
X147247905Y-116796238D01*
X147247905Y-116796238D02*
X147343143Y-116748619D01*
X147343143Y-116748619D02*
X147581238Y-116748619D01*
X147581238Y-116748619D02*
X147676476Y-116796238D01*
X147676476Y-116796238D02*
X147724095Y-116843857D01*
X147724095Y-116843857D02*
X147771714Y-116939095D01*
X147771714Y-116939095D02*
X147771714Y-117034333D01*
X147771714Y-117034333D02*
X147724095Y-117177190D01*
X147724095Y-117177190D02*
X147152667Y-117748619D01*
X147152667Y-117748619D02*
X147771714Y-117748619D01*
%TO.C,R1*%
X146819333Y-115716619D02*
X146486000Y-115240428D01*
X146247905Y-115716619D02*
X146247905Y-114716619D01*
X146247905Y-114716619D02*
X146628857Y-114716619D01*
X146628857Y-114716619D02*
X146724095Y-114764238D01*
X146724095Y-114764238D02*
X146771714Y-114811857D01*
X146771714Y-114811857D02*
X146819333Y-114907095D01*
X146819333Y-114907095D02*
X146819333Y-115049952D01*
X146819333Y-115049952D02*
X146771714Y-115145190D01*
X146771714Y-115145190D02*
X146724095Y-115192809D01*
X146724095Y-115192809D02*
X146628857Y-115240428D01*
X146628857Y-115240428D02*
X146247905Y-115240428D01*
X147771714Y-115716619D02*
X147200286Y-115716619D01*
X147486000Y-115716619D02*
X147486000Y-114716619D01*
X147486000Y-114716619D02*
X147390762Y-114859476D01*
X147390762Y-114859476D02*
X147295524Y-114954714D01*
X147295524Y-114954714D02*
X147200286Y-115002333D01*
%TO.C,U2*%
X133270095Y-119542619D02*
X133270095Y-120352142D01*
X133270095Y-120352142D02*
X133317714Y-120447380D01*
X133317714Y-120447380D02*
X133365333Y-120495000D01*
X133365333Y-120495000D02*
X133460571Y-120542619D01*
X133460571Y-120542619D02*
X133651047Y-120542619D01*
X133651047Y-120542619D02*
X133746285Y-120495000D01*
X133746285Y-120495000D02*
X133793904Y-120447380D01*
X133793904Y-120447380D02*
X133841523Y-120352142D01*
X133841523Y-120352142D02*
X133841523Y-119542619D01*
X134270095Y-119637857D02*
X134317714Y-119590238D01*
X134317714Y-119590238D02*
X134412952Y-119542619D01*
X134412952Y-119542619D02*
X134651047Y-119542619D01*
X134651047Y-119542619D02*
X134746285Y-119590238D01*
X134746285Y-119590238D02*
X134793904Y-119637857D01*
X134793904Y-119637857D02*
X134841523Y-119733095D01*
X134841523Y-119733095D02*
X134841523Y-119828333D01*
X134841523Y-119828333D02*
X134793904Y-119971190D01*
X134793904Y-119971190D02*
X134222476Y-120542619D01*
X134222476Y-120542619D02*
X134841523Y-120542619D01*
%TO.C,C6*%
X131753380Y-98402666D02*
X131801000Y-98450285D01*
X131801000Y-98450285D02*
X131848619Y-98593142D01*
X131848619Y-98593142D02*
X131848619Y-98688380D01*
X131848619Y-98688380D02*
X131801000Y-98831237D01*
X131801000Y-98831237D02*
X131705761Y-98926475D01*
X131705761Y-98926475D02*
X131610523Y-98974094D01*
X131610523Y-98974094D02*
X131420047Y-99021713D01*
X131420047Y-99021713D02*
X131277190Y-99021713D01*
X131277190Y-99021713D02*
X131086714Y-98974094D01*
X131086714Y-98974094D02*
X130991476Y-98926475D01*
X130991476Y-98926475D02*
X130896238Y-98831237D01*
X130896238Y-98831237D02*
X130848619Y-98688380D01*
X130848619Y-98688380D02*
X130848619Y-98593142D01*
X130848619Y-98593142D02*
X130896238Y-98450285D01*
X130896238Y-98450285D02*
X130943857Y-98402666D01*
X130848619Y-97545523D02*
X130848619Y-97735999D01*
X130848619Y-97735999D02*
X130896238Y-97831237D01*
X130896238Y-97831237D02*
X130943857Y-97878856D01*
X130943857Y-97878856D02*
X131086714Y-97974094D01*
X131086714Y-97974094D02*
X131277190Y-98021713D01*
X131277190Y-98021713D02*
X131658142Y-98021713D01*
X131658142Y-98021713D02*
X131753380Y-97974094D01*
X131753380Y-97974094D02*
X131801000Y-97926475D01*
X131801000Y-97926475D02*
X131848619Y-97831237D01*
X131848619Y-97831237D02*
X131848619Y-97640761D01*
X131848619Y-97640761D02*
X131801000Y-97545523D01*
X131801000Y-97545523D02*
X131753380Y-97497904D01*
X131753380Y-97497904D02*
X131658142Y-97450285D01*
X131658142Y-97450285D02*
X131420047Y-97450285D01*
X131420047Y-97450285D02*
X131324809Y-97497904D01*
X131324809Y-97497904D02*
X131277190Y-97545523D01*
X131277190Y-97545523D02*
X131229571Y-97640761D01*
X131229571Y-97640761D02*
X131229571Y-97831237D01*
X131229571Y-97831237D02*
X131277190Y-97926475D01*
X131277190Y-97926475D02*
X131324809Y-97974094D01*
X131324809Y-97974094D02*
X131420047Y-98021713D01*
%TO.C,J3*%
X159468166Y-96936619D02*
X159468166Y-97650904D01*
X159468166Y-97650904D02*
X159420547Y-97793761D01*
X159420547Y-97793761D02*
X159325309Y-97889000D01*
X159325309Y-97889000D02*
X159182452Y-97936619D01*
X159182452Y-97936619D02*
X159087214Y-97936619D01*
X159849119Y-96936619D02*
X160468166Y-96936619D01*
X160468166Y-96936619D02*
X160134833Y-97317571D01*
X160134833Y-97317571D02*
X160277690Y-97317571D01*
X160277690Y-97317571D02*
X160372928Y-97365190D01*
X160372928Y-97365190D02*
X160420547Y-97412809D01*
X160420547Y-97412809D02*
X160468166Y-97508047D01*
X160468166Y-97508047D02*
X160468166Y-97746142D01*
X160468166Y-97746142D02*
X160420547Y-97841380D01*
X160420547Y-97841380D02*
X160372928Y-97889000D01*
X160372928Y-97889000D02*
X160277690Y-97936619D01*
X160277690Y-97936619D02*
X159991976Y-97936619D01*
X159991976Y-97936619D02*
X159896738Y-97889000D01*
X159896738Y-97889000D02*
X159849119Y-97841380D01*
%TO.C,SW1*%
X125078667Y-110589000D02*
X125221524Y-110636619D01*
X125221524Y-110636619D02*
X125459619Y-110636619D01*
X125459619Y-110636619D02*
X125554857Y-110589000D01*
X125554857Y-110589000D02*
X125602476Y-110541380D01*
X125602476Y-110541380D02*
X125650095Y-110446142D01*
X125650095Y-110446142D02*
X125650095Y-110350904D01*
X125650095Y-110350904D02*
X125602476Y-110255666D01*
X125602476Y-110255666D02*
X125554857Y-110208047D01*
X125554857Y-110208047D02*
X125459619Y-110160428D01*
X125459619Y-110160428D02*
X125269143Y-110112809D01*
X125269143Y-110112809D02*
X125173905Y-110065190D01*
X125173905Y-110065190D02*
X125126286Y-110017571D01*
X125126286Y-110017571D02*
X125078667Y-109922333D01*
X125078667Y-109922333D02*
X125078667Y-109827095D01*
X125078667Y-109827095D02*
X125126286Y-109731857D01*
X125126286Y-109731857D02*
X125173905Y-109684238D01*
X125173905Y-109684238D02*
X125269143Y-109636619D01*
X125269143Y-109636619D02*
X125507238Y-109636619D01*
X125507238Y-109636619D02*
X125650095Y-109684238D01*
X125983429Y-109636619D02*
X126221524Y-110636619D01*
X126221524Y-110636619D02*
X126412000Y-109922333D01*
X126412000Y-109922333D02*
X126602476Y-110636619D01*
X126602476Y-110636619D02*
X126840572Y-109636619D01*
X127745333Y-110636619D02*
X127173905Y-110636619D01*
X127459619Y-110636619D02*
X127459619Y-109636619D01*
X127459619Y-109636619D02*
X127364381Y-109779476D01*
X127364381Y-109779476D02*
X127269143Y-109874714D01*
X127269143Y-109874714D02*
X127173905Y-109922333D01*
%TO.C,U1*%
X131746095Y-85506619D02*
X131746095Y-86316142D01*
X131746095Y-86316142D02*
X131793714Y-86411380D01*
X131793714Y-86411380D02*
X131841333Y-86459000D01*
X131841333Y-86459000D02*
X131936571Y-86506619D01*
X131936571Y-86506619D02*
X132127047Y-86506619D01*
X132127047Y-86506619D02*
X132222285Y-86459000D01*
X132222285Y-86459000D02*
X132269904Y-86411380D01*
X132269904Y-86411380D02*
X132317523Y-86316142D01*
X132317523Y-86316142D02*
X132317523Y-85506619D01*
X133317523Y-86506619D02*
X132746095Y-86506619D01*
X133031809Y-86506619D02*
X133031809Y-85506619D01*
X133031809Y-85506619D02*
X132936571Y-85649476D01*
X132936571Y-85649476D02*
X132841333Y-85744714D01*
X132841333Y-85744714D02*
X132746095Y-85792333D01*
%TO.C,J1*%
X150371119Y-112545333D02*
X151085404Y-112545333D01*
X151085404Y-112545333D02*
X151228261Y-112592952D01*
X151228261Y-112592952D02*
X151323500Y-112688190D01*
X151323500Y-112688190D02*
X151371119Y-112831047D01*
X151371119Y-112831047D02*
X151371119Y-112926285D01*
X151371119Y-111545333D02*
X151371119Y-112116761D01*
X151371119Y-111831047D02*
X150371119Y-111831047D01*
X150371119Y-111831047D02*
X150513976Y-111926285D01*
X150513976Y-111926285D02*
X150609214Y-112021523D01*
X150609214Y-112021523D02*
X150656833Y-112116761D01*
D12*
%TO.C,C4*%
X136572000Y-119017252D02*
X136572000Y-117594748D01*
X138392000Y-119017252D02*
X138392000Y-117594748D01*
%TO.C,R5*%
X126587000Y-95657064D02*
X126587000Y-95202936D01*
X128057000Y-95657064D02*
X128057000Y-95202936D01*
%TO.C,C5*%
X133659752Y-113120000D02*
X132237248Y-113120000D01*
X133659752Y-111300000D02*
X132237248Y-111300000D01*
%TO.C,R6*%
X154494936Y-99613000D02*
X154949064Y-99613000D01*
X154494936Y-101083000D02*
X154949064Y-101083000D01*
%TO.C,R3*%
X142789000Y-116102936D02*
X142789000Y-116557064D01*
X141319000Y-116102936D02*
X141319000Y-116557064D01*
%TO.C,C1*%
X128619000Y-95691252D02*
X128619000Y-95168748D01*
X130089000Y-95691252D02*
X130089000Y-95168748D01*
%TO.C,C3*%
X132114500Y-90182248D02*
X132114500Y-90704752D01*
X130644500Y-90182248D02*
X130644500Y-90704752D01*
%TO.C,R4*%
X144814500Y-116124436D02*
X144814500Y-116578564D01*
X143344500Y-116124436D02*
X143344500Y-116578564D01*
%TO.C,R7*%
X154510936Y-97581000D02*
X154965064Y-97581000D01*
X154510936Y-99051000D02*
X154965064Y-99051000D01*
%TO.C,SW2*%
X154775500Y-109314000D02*
X155975500Y-109314000D01*
X157575500Y-109314000D02*
X158775500Y-109314000D01*
X158775500Y-109314000D02*
X158775500Y-102914000D01*
X154775500Y-102914000D02*
X154775500Y-109314000D01*
X155975500Y-102914000D02*
X154775500Y-102914000D01*
X158775500Y-102914000D02*
X157575500Y-102914000D01*
%TO.C,C2*%
X128733500Y-90218748D02*
X128733500Y-91641252D01*
X126913500Y-90218748D02*
X126913500Y-91641252D01*
%TO.C,J4*%
X137645500Y-112072000D02*
X137645500Y-110742000D01*
X138975500Y-112072000D02*
X137645500Y-112072000D01*
X140245500Y-112072000D02*
X147925500Y-112072000D01*
X140245500Y-112072000D02*
X140245500Y-109412000D01*
X147925500Y-112072000D02*
X147925500Y-109412000D01*
X140245500Y-109412000D02*
X147925500Y-109412000D01*
%TO.C,R2*%
X149885064Y-118025000D02*
X149430936Y-118025000D01*
X149885064Y-116555000D02*
X149430936Y-116555000D01*
%TO.C,R1*%
X149885064Y-115993000D02*
X149430936Y-115993000D01*
X149885064Y-114523000D02*
X149430936Y-114523000D01*
%TO.C,U2*%
X126816500Y-113880000D02*
X132826500Y-113880000D01*
X129066500Y-120700000D02*
X132826500Y-120700000D01*
X132826500Y-113880000D02*
X132826500Y-115140000D01*
X132826500Y-120700000D02*
X132826500Y-119440000D01*
%TO.C,C6*%
X130651000Y-95691252D02*
X130651000Y-95168748D01*
X132121000Y-95691252D02*
X132121000Y-95168748D01*
%TO.C,J3*%
X159132000Y-96776000D02*
X157802000Y-96776000D01*
X159132000Y-95446000D02*
X159132000Y-96776000D01*
X159132000Y-94176000D02*
X159132000Y-86496000D01*
X159132000Y-94176000D02*
X156472000Y-94176000D01*
X159132000Y-86496000D02*
X156472000Y-86496000D01*
X156472000Y-94176000D02*
X156472000Y-86496000D01*
%TO.C,SW1*%
X126775500Y-109314000D02*
X127975500Y-109314000D01*
X129575500Y-109314000D02*
X130775500Y-109314000D01*
X130775500Y-109314000D02*
X130775500Y-102914000D01*
X126775500Y-102914000D02*
X126775500Y-109314000D01*
X127975500Y-102914000D02*
X126775500Y-102914000D01*
X130775500Y-102914000D02*
X129575500Y-102914000D01*
%TO.C,U1*%
X133655500Y-82350000D02*
X133655500Y-88765000D01*
X133655500Y-82350000D02*
X151895500Y-82350000D01*
X133655500Y-88765000D02*
X133275500Y-88765000D01*
X133655500Y-107310000D02*
X133655500Y-108090000D01*
X133655500Y-108090000D02*
X134655500Y-108090000D01*
X151895500Y-82350000D02*
X151895500Y-88765000D01*
X151895500Y-107310000D02*
X151895500Y-108090000D01*
X151895500Y-108090000D02*
X150895500Y-108090000D01*
%TO.C,J1*%
X156620500Y-121196000D02*
X154820500Y-121196000D01*
X158720500Y-121196000D02*
X159870500Y-121196000D01*
X156620500Y-111856000D02*
X154820500Y-111856000D01*
X158720500Y-111856000D02*
X159870500Y-111856000D01*
%TD*%
%LPC*%
D13*
%TO.C,C4*%
X137482000Y-119868500D03*
X137482000Y-116743500D03*
%TD*%
D14*
%TO.C,R5*%
X127322000Y-96430000D03*
X127322000Y-94430000D03*
%TD*%
D15*
%TO.C,J11*%
X126775500Y-83310000D03*
X126775500Y-81210000D03*
X126775500Y-79110000D03*
%TD*%
D16*
%TO.C,C5*%
X134511000Y-112210000D03*
X131386000Y-112210000D03*
%TD*%
D17*
%TO.C,R6*%
X153722000Y-100348000D03*
X155722000Y-100348000D03*
%TD*%
D18*
%TO.C,R3*%
X142054000Y-115330000D03*
X142054000Y-117330000D03*
%TD*%
D19*
%TO.C,C1*%
X129354000Y-96467500D03*
X129354000Y-94392500D03*
%TD*%
D15*
%TO.C,J7*%
X158775500Y-79110000D03*
X158775500Y-81210000D03*
X158775500Y-83310000D03*
%TD*%
D20*
%TO.C,C3*%
X131379500Y-89406000D03*
X131379500Y-91481000D03*
%TD*%
D18*
%TO.C,R4*%
X144079500Y-115351500D03*
X144079500Y-117351500D03*
%TD*%
D17*
%TO.C,R7*%
X153738000Y-98316000D03*
X155738000Y-98316000D03*
%TD*%
D21*
%TO.C,SW2*%
X156775500Y-109989000D03*
X156775500Y-102239000D03*
%TD*%
D22*
%TO.C,C2*%
X127823500Y-89367500D03*
X127823500Y-92492500D03*
%TD*%
D23*
%TO.C,J4*%
X138975500Y-110742000D03*
D24*
X141515500Y-110742000D03*
X144055500Y-110742000D03*
X146595500Y-110742000D03*
%TD*%
D25*
%TO.C,R2*%
X150658000Y-117290000D03*
X148658000Y-117290000D03*
%TD*%
%TO.C,R1*%
X150658000Y-115258000D03*
X148658000Y-115258000D03*
%TD*%
D26*
%TO.C,U2*%
X127766500Y-114990000D03*
X127766500Y-117290000D03*
D27*
X134066500Y-117290000D03*
D26*
X127766500Y-119590000D03*
%TD*%
D19*
%TO.C,C6*%
X131386000Y-96467500D03*
X131386000Y-94392500D03*
%TD*%
D23*
%TO.C,J3*%
X157802000Y-95446000D03*
D24*
X157802000Y-92906000D03*
X157802000Y-90366000D03*
X157802000Y-87826000D03*
%TD*%
D21*
%TO.C,SW1*%
X128775500Y-109989000D03*
X128775500Y-102239000D03*
%TD*%
D28*
%TO.C,U1*%
X134025500Y-89960000D03*
X134025500Y-91230000D03*
X134025500Y-92500000D03*
X134025500Y-93770000D03*
X134025500Y-95040000D03*
X134025500Y-96310000D03*
X134025500Y-97580000D03*
X134025500Y-98850000D03*
X134025500Y-100120000D03*
X134025500Y-101390000D03*
X134025500Y-102660000D03*
X134025500Y-103930000D03*
X134025500Y-105200000D03*
X134025500Y-106470000D03*
D29*
X137065500Y-107720000D03*
X138335500Y-107720000D03*
X139605500Y-107720000D03*
X140875500Y-107720000D03*
X142145500Y-107720000D03*
X143415500Y-107720000D03*
X144685500Y-107720000D03*
X145955500Y-107720000D03*
X147225500Y-107720000D03*
X148495500Y-107720000D03*
D28*
X151525500Y-106470000D03*
X151525500Y-105200000D03*
X151525500Y-103930000D03*
X151525500Y-102660000D03*
X151525500Y-101390000D03*
X151525500Y-100120000D03*
X151525500Y-98850000D03*
X151525500Y-97580000D03*
X151525500Y-96310000D03*
X151525500Y-95040000D03*
X151525500Y-93770000D03*
X151525500Y-92500000D03*
X151525500Y-91230000D03*
X151525500Y-89960000D03*
D30*
X140570500Y-96537500D03*
X140570500Y-98062500D03*
X141333000Y-95775000D03*
X141333000Y-97300000D03*
X141333000Y-98825000D03*
X142095500Y-96537500D03*
D31*
X142095500Y-97300000D03*
D30*
X142095500Y-98062500D03*
X142858000Y-95775000D03*
X142858000Y-97300000D03*
X142858000Y-98825000D03*
X143620500Y-96537500D03*
X143620500Y-98062500D03*
%TD*%
D32*
%TO.C,J1*%
X154015500Y-119416000D03*
X154015500Y-113636000D03*
D33*
X152940500Y-119726000D03*
X152940500Y-118926000D03*
D34*
X152940500Y-117776000D03*
X152940500Y-116776000D03*
X152940500Y-116276000D03*
X152940500Y-115276000D03*
D33*
X152940500Y-114126000D03*
X152940500Y-113326000D03*
X152940500Y-113326000D03*
X152940500Y-114126000D03*
D34*
X152940500Y-114776000D03*
X152940500Y-115776000D03*
X152940500Y-117276000D03*
X152940500Y-118276000D03*
D33*
X152940500Y-118926000D03*
X152940500Y-119726000D03*
D35*
X153515500Y-120846000D03*
D36*
X157695500Y-120846000D03*
D35*
X153515500Y-112206000D03*
D36*
X157695500Y-112206000D03*
%TD*%
M02*
