%TF.GenerationSoftware,KiCad,Pcbnew,7.0.1-3b83917a11~172~ubuntu22.04.1*%
%TF.CreationDate,2023-04-18T10:01:55+02:00*%
%TF.ProjectId,part2,70617274-322e-46b6-9963-61645f706362,rev?*%
%TF.SameCoordinates,Original*%
%TF.FileFunction,Paste,Top*%
%TF.FilePolarity,Positive*%
%FSLAX46Y46*%
G04 Gerber Fmt 4.6, Leading zero omitted, Abs format (unit mm)*
G04 Created by KiCad (PCBNEW 7.0.1-3b83917a11~172~ubuntu22.04.1) date 2023-04-18 10:01:55*
%MOMM*%
%LPD*%
G01*
G04 APERTURE LIST*
G04 Aperture macros list*
%AMRoundRect*
0 Rectangle with rounded corners*
0 $1 Rounding radius*
0 $2 $3 $4 $5 $6 $7 $8 $9 X,Y pos of 4 corners*
0 Add a 4 corners polygon primitive as box body*
4,1,4,$2,$3,$4,$5,$6,$7,$8,$9,$2,$3,0*
0 Add four circle primitives for the rounded corners*
1,1,$1+$1,$2,$3*
1,1,$1+$1,$4,$5*
1,1,$1+$1,$6,$7*
1,1,$1+$1,$8,$9*
0 Add four rect primitives between the rounded corners*
20,1,$1+$1,$2,$3,$4,$5,0*
20,1,$1+$1,$4,$5,$6,$7,0*
20,1,$1+$1,$6,$7,$8,$9,0*
20,1,$1+$1,$8,$9,$2,$3,0*%
G04 Aperture macros list end*
%ADD10RoundRect,0.250000X0.650000X-0.412500X0.650000X0.412500X-0.650000X0.412500X-0.650000X-0.412500X0*%
%ADD11RoundRect,0.250000X0.450000X-0.350000X0.450000X0.350000X-0.450000X0.350000X-0.450000X-0.350000X0*%
%ADD12R,4.000000X1.800000*%
%ADD13RoundRect,0.250000X0.412500X0.650000X-0.412500X0.650000X-0.412500X-0.650000X0.412500X-0.650000X0*%
%ADD14RoundRect,0.250000X-0.350000X-0.450000X0.350000X-0.450000X0.350000X0.450000X-0.350000X0.450000X0*%
%ADD15RoundRect,0.250000X-0.450000X0.350000X-0.450000X-0.350000X0.450000X-0.350000X0.450000X0.350000X0*%
%ADD16RoundRect,0.250000X0.475000X-0.337500X0.475000X0.337500X-0.475000X0.337500X-0.475000X-0.337500X0*%
%ADD17RoundRect,0.250000X-0.475000X0.337500X-0.475000X-0.337500X0.475000X-0.337500X0.475000X0.337500X0*%
%ADD18R,1.000000X1.250000*%
%ADD19RoundRect,0.250000X-0.650000X0.412500X-0.650000X-0.412500X0.650000X-0.412500X0.650000X0.412500X0*%
%ADD20RoundRect,0.250000X0.350000X0.450000X-0.350000X0.450000X-0.350000X-0.450000X0.350000X-0.450000X0*%
%ADD21R,2.000000X1.500000*%
%ADD22R,2.000000X3.800000*%
%ADD23R,1.500000X0.900000*%
%ADD24R,0.900000X1.500000*%
%ADD25R,1.050000X1.050000*%
%ADD26R,1.150000X0.600000*%
%ADD27R,1.150000X0.300000*%
G04 APERTURE END LIST*
D10*
%TO.C,C4*%
X137482000Y-119868500D03*
X137482000Y-116743500D03*
%TD*%
D11*
%TO.C,R5*%
X127322000Y-96430000D03*
X127322000Y-94430000D03*
%TD*%
D12*
%TO.C,J11*%
X126775500Y-83310000D03*
X126775500Y-81210000D03*
X126775500Y-79110000D03*
%TD*%
D13*
%TO.C,C5*%
X134511000Y-112210000D03*
X131386000Y-112210000D03*
%TD*%
D14*
%TO.C,R6*%
X153722000Y-100348000D03*
X155722000Y-100348000D03*
%TD*%
D15*
%TO.C,R3*%
X142054000Y-115330000D03*
X142054000Y-117330000D03*
%TD*%
D16*
%TO.C,C1*%
X129354000Y-96467500D03*
X129354000Y-94392500D03*
%TD*%
D12*
%TO.C,J7*%
X158775500Y-79110000D03*
X158775500Y-81210000D03*
X158775500Y-83310000D03*
%TD*%
D17*
%TO.C,C3*%
X131379500Y-89406000D03*
X131379500Y-91481000D03*
%TD*%
D15*
%TO.C,R4*%
X144079500Y-115351500D03*
X144079500Y-117351500D03*
%TD*%
D14*
%TO.C,R7*%
X153738000Y-98316000D03*
X155738000Y-98316000D03*
%TD*%
D18*
%TO.C,SW2*%
X156775500Y-109989000D03*
X156775500Y-102239000D03*
%TD*%
D19*
%TO.C,C2*%
X127823500Y-89367500D03*
X127823500Y-92492500D03*
%TD*%
D20*
%TO.C,R2*%
X150658000Y-117290000D03*
X148658000Y-117290000D03*
%TD*%
%TO.C,R1*%
X150658000Y-115258000D03*
X148658000Y-115258000D03*
%TD*%
D21*
%TO.C,U2*%
X127766500Y-114990000D03*
X127766500Y-117290000D03*
D22*
X134066500Y-117290000D03*
D21*
X127766500Y-119590000D03*
%TD*%
D16*
%TO.C,C6*%
X131386000Y-96467500D03*
X131386000Y-94392500D03*
%TD*%
D18*
%TO.C,SW1*%
X128775500Y-109989000D03*
X128775500Y-102239000D03*
%TD*%
D23*
%TO.C,U1*%
X134025500Y-89960000D03*
X134025500Y-91230000D03*
X134025500Y-92500000D03*
X134025500Y-93770000D03*
X134025500Y-95040000D03*
X134025500Y-96310000D03*
X134025500Y-97580000D03*
X134025500Y-98850000D03*
X134025500Y-100120000D03*
X134025500Y-101390000D03*
X134025500Y-102660000D03*
X134025500Y-103930000D03*
X134025500Y-105200000D03*
X134025500Y-106470000D03*
D24*
X137065500Y-107720000D03*
X138335500Y-107720000D03*
X139605500Y-107720000D03*
X140875500Y-107720000D03*
X142145500Y-107720000D03*
X143415500Y-107720000D03*
X144685500Y-107720000D03*
X145955500Y-107720000D03*
X147225500Y-107720000D03*
X148495500Y-107720000D03*
D23*
X151525500Y-106470000D03*
X151525500Y-105200000D03*
X151525500Y-103930000D03*
X151525500Y-102660000D03*
X151525500Y-101390000D03*
X151525500Y-100120000D03*
X151525500Y-98850000D03*
X151525500Y-97580000D03*
X151525500Y-96310000D03*
X151525500Y-95040000D03*
X151525500Y-93770000D03*
X151525500Y-92500000D03*
X151525500Y-91230000D03*
X151525500Y-89960000D03*
D25*
X140570500Y-95775000D03*
X140570500Y-97300000D03*
X140570500Y-98825000D03*
X142095500Y-95775000D03*
X142095500Y-97300000D03*
X142095500Y-98825000D03*
X143620500Y-95775000D03*
X143620500Y-97300000D03*
X143620500Y-98825000D03*
%TD*%
D26*
%TO.C,J1*%
X152940500Y-119726000D03*
X152940500Y-118926000D03*
D27*
X152940500Y-117776000D03*
X152940500Y-116776000D03*
X152940500Y-116276000D03*
X152940500Y-115276000D03*
D26*
X152940500Y-114126000D03*
X152940500Y-113326000D03*
X152940500Y-113326000D03*
X152940500Y-114126000D03*
D27*
X152940500Y-114776000D03*
X152940500Y-115776000D03*
X152940500Y-117276000D03*
X152940500Y-118276000D03*
D26*
X152940500Y-118926000D03*
X152940500Y-119726000D03*
%TD*%
M02*
