M48
; DRILL file {KiCad 7.0.1-3b83917a11~172~ubuntu22.04.1} date Tue 18 Apr 2023 10:02:10 CEST
; FORMAT={-:-/ absolute / metric / decimal}
; #@! TF.CreationDate,2023-04-18T10:02:10+02:00
; #@! TF.GenerationSoftware,Kicad,Pcbnew,7.0.1-3b83917a11~172~ubuntu22.04.1
; #@! TF.FileFunction,Plated,1,2,PTH
FMAT,2
METRIC
; #@! TA.AperFunction,Plated,PTH,ViaDrill
T1C0.200
; #@! TA.AperFunction,Plated,PTH,ComponentDrill
T2C0.200
; #@! TA.AperFunction,Plated,PTH,ComponentDrill
T3C0.600
; #@! TA.AperFunction,Plated,PTH,ComponentDrill
T4C1.000
%
G90
G05
T1
X127.83Y-87.318
X130.37Y-98.494
X130.911Y-82.746
X136.974Y-112.718
X142.054Y-114.242
X144.086Y-114.242
X144.594Y-104.59
X146.626Y-84.561
X147.642Y-85.286
X147.642Y-95.954
X149.304Y-114.242
X153.23Y-85.286
X155.77Y-84.778
X157.294Y-85.169
T2
X140.57Y-96.537
X140.57Y-98.062
X141.333Y-95.775
X141.333Y-97.3
X141.333Y-98.825
X142.095Y-96.537
X142.095Y-98.062
X142.858Y-95.775
X142.858Y-97.3
X142.858Y-98.825
X143.62Y-96.537
X143.62Y-98.062
T4
X138.975Y-110.742
X141.516Y-110.742
X144.055Y-110.742
X146.595Y-110.742
X157.802Y-87.826
X157.802Y-90.366
X157.802Y-92.906
X157.802Y-95.446
T3
X152.965Y-112.206G85X154.065Y-112.206
G05
X152.965Y-120.846G85X154.065Y-120.846
G05
X157.296Y-112.206G85X158.095Y-112.206
G05
X157.296Y-120.846G85X158.095Y-120.846
G05
T0
M30
