%TF.GenerationSoftware,KiCad,Pcbnew,7.0.1-3b83917a11~172~ubuntu22.04.1*%
%TF.CreationDate,2023-04-18T10:01:55+02:00*%
%TF.ProjectId,part2,70617274-322e-46b6-9963-61645f706362,rev?*%
%TF.SameCoordinates,Original*%
%TF.FileFunction,Copper,L1,Top*%
%TF.FilePolarity,Positive*%
%FSLAX46Y46*%
G04 Gerber Fmt 4.6, Leading zero omitted, Abs format (unit mm)*
G04 Created by KiCad (PCBNEW 7.0.1-3b83917a11~172~ubuntu22.04.1) date 2023-04-18 10:01:55*
%MOMM*%
%LPD*%
G01*
G04 APERTURE LIST*
G04 Aperture macros list*
%AMRoundRect*
0 Rectangle with rounded corners*
0 $1 Rounding radius*
0 $2 $3 $4 $5 $6 $7 $8 $9 X,Y pos of 4 corners*
0 Add a 4 corners polygon primitive as box body*
4,1,4,$2,$3,$4,$5,$6,$7,$8,$9,$2,$3,0*
0 Add four circle primitives for the rounded corners*
1,1,$1+$1,$2,$3*
1,1,$1+$1,$4,$5*
1,1,$1+$1,$6,$7*
1,1,$1+$1,$8,$9*
0 Add four rect primitives between the rounded corners*
20,1,$1+$1,$2,$3,$4,$5,0*
20,1,$1+$1,$4,$5,$6,$7,0*
20,1,$1+$1,$6,$7,$8,$9,0*
20,1,$1+$1,$8,$9,$2,$3,0*%
G04 Aperture macros list end*
%TA.AperFunction,SMDPad,CuDef*%
%ADD10RoundRect,0.250000X0.650000X-0.412500X0.650000X0.412500X-0.650000X0.412500X-0.650000X-0.412500X0*%
%TD*%
%TA.AperFunction,SMDPad,CuDef*%
%ADD11RoundRect,0.250000X0.450000X-0.350000X0.450000X0.350000X-0.450000X0.350000X-0.450000X-0.350000X0*%
%TD*%
%TA.AperFunction,SMDPad,CuDef*%
%ADD12R,4.000000X1.800000*%
%TD*%
%TA.AperFunction,SMDPad,CuDef*%
%ADD13RoundRect,0.250000X0.412500X0.650000X-0.412500X0.650000X-0.412500X-0.650000X0.412500X-0.650000X0*%
%TD*%
%TA.AperFunction,SMDPad,CuDef*%
%ADD14RoundRect,0.250000X-0.350000X-0.450000X0.350000X-0.450000X0.350000X0.450000X-0.350000X0.450000X0*%
%TD*%
%TA.AperFunction,SMDPad,CuDef*%
%ADD15RoundRect,0.250000X-0.450000X0.350000X-0.450000X-0.350000X0.450000X-0.350000X0.450000X0.350000X0*%
%TD*%
%TA.AperFunction,SMDPad,CuDef*%
%ADD16RoundRect,0.250000X0.475000X-0.337500X0.475000X0.337500X-0.475000X0.337500X-0.475000X-0.337500X0*%
%TD*%
%TA.AperFunction,SMDPad,CuDef*%
%ADD17RoundRect,0.250000X-0.475000X0.337500X-0.475000X-0.337500X0.475000X-0.337500X0.475000X0.337500X0*%
%TD*%
%TA.AperFunction,SMDPad,CuDef*%
%ADD18R,1.000000X1.250000*%
%TD*%
%TA.AperFunction,SMDPad,CuDef*%
%ADD19RoundRect,0.250000X-0.650000X0.412500X-0.650000X-0.412500X0.650000X-0.412500X0.650000X0.412500X0*%
%TD*%
%TA.AperFunction,ComponentPad*%
%ADD20R,1.700000X1.700000*%
%TD*%
%TA.AperFunction,ComponentPad*%
%ADD21O,1.700000X1.700000*%
%TD*%
%TA.AperFunction,SMDPad,CuDef*%
%ADD22RoundRect,0.250000X0.350000X0.450000X-0.350000X0.450000X-0.350000X-0.450000X0.350000X-0.450000X0*%
%TD*%
%TA.AperFunction,SMDPad,CuDef*%
%ADD23R,2.000000X1.500000*%
%TD*%
%TA.AperFunction,SMDPad,CuDef*%
%ADD24R,2.000000X3.800000*%
%TD*%
%TA.AperFunction,SMDPad,CuDef*%
%ADD25R,1.500000X0.900000*%
%TD*%
%TA.AperFunction,SMDPad,CuDef*%
%ADD26R,0.900000X1.500000*%
%TD*%
%TA.AperFunction,SMDPad,CuDef*%
%ADD27R,1.050000X1.050000*%
%TD*%
%TA.AperFunction,HeatsinkPad*%
%ADD28C,0.600000*%
%TD*%
%TA.AperFunction,SMDPad,CuDef*%
%ADD29R,4.200000X4.200000*%
%TD*%
%TA.AperFunction,SMDPad,CuDef*%
%ADD30R,1.150000X0.600000*%
%TD*%
%TA.AperFunction,SMDPad,CuDef*%
%ADD31R,1.150000X0.300000*%
%TD*%
%TA.AperFunction,ComponentPad*%
%ADD32O,2.100000X1.000000*%
%TD*%
%TA.AperFunction,ComponentPad*%
%ADD33O,1.800000X1.000000*%
%TD*%
%TA.AperFunction,ViaPad*%
%ADD34C,0.800000*%
%TD*%
%TA.AperFunction,ViaPad*%
%ADD35C,0.600000*%
%TD*%
%TA.AperFunction,Conductor*%
%ADD36C,0.200000*%
%TD*%
%TA.AperFunction,Conductor*%
%ADD37C,0.600000*%
%TD*%
%TA.AperFunction,Conductor*%
%ADD38C,0.250000*%
%TD*%
G04 APERTURE END LIST*
D10*
%TO.P,C4,1*%
%TO.N,N/C*%
X137482000Y-119868500D03*
%TO.P,C4,2*%
X137482000Y-116743500D03*
%TD*%
D11*
%TO.P,R5,1*%
%TO.N,N/C*%
X127322000Y-96430000D03*
%TO.P,R5,2*%
X127322000Y-94430000D03*
%TD*%
D12*
%TO.P,J11,1,BCLK*%
%TO.N,N/C*%
X126775500Y-83310000D03*
%TO.P,J11,2,DATA*%
X126775500Y-81210000D03*
%TO.P,J11,3,WS*%
X126775500Y-79110000D03*
%TD*%
D13*
%TO.P,C5,1*%
%TO.N,N/C*%
X134511000Y-112210000D03*
%TO.P,C5,2*%
X131386000Y-112210000D03*
%TD*%
D14*
%TO.P,R6,1*%
%TO.N,N/C*%
X153722000Y-100348000D03*
%TO.P,R6,2*%
X155722000Y-100348000D03*
%TD*%
D15*
%TO.P,R3,1*%
%TO.N,N/C*%
X142054000Y-115330000D03*
%TO.P,R3,2*%
X142054000Y-117330000D03*
%TD*%
D16*
%TO.P,C1,1*%
%TO.N,N/C*%
X129354000Y-96467500D03*
%TO.P,C1,2*%
X129354000Y-94392500D03*
%TD*%
D12*
%TO.P,J7,1,BCLK*%
%TO.N,N/C*%
X158775500Y-79110000D03*
%TO.P,J7,2,DATA*%
X158775500Y-81210000D03*
%TO.P,J7,3,WS*%
X158775500Y-83310000D03*
%TD*%
D17*
%TO.P,C3,1*%
%TO.N,N/C*%
X131379500Y-89406000D03*
%TO.P,C3,2*%
X131379500Y-91481000D03*
%TD*%
D15*
%TO.P,R4,1*%
%TO.N,N/C*%
X144079500Y-115351500D03*
%TO.P,R4,2*%
X144079500Y-117351500D03*
%TD*%
D14*
%TO.P,R7,1*%
%TO.N,N/C*%
X153738000Y-98316000D03*
%TO.P,R7,2*%
X155738000Y-98316000D03*
%TD*%
D18*
%TO.P,SW2,1,1*%
%TO.N,N/C*%
X156775500Y-109989000D03*
%TO.P,SW2,2,2*%
X156775500Y-102239000D03*
%TD*%
D19*
%TO.P,C2,1*%
%TO.N,N/C*%
X127823500Y-89367500D03*
%TO.P,C2,2*%
X127823500Y-92492500D03*
%TD*%
D20*
%TO.P,J4,1,Pin_1*%
%TO.N,N/C*%
X138975500Y-110742000D03*
D21*
%TO.P,J4,2,Pin_2*%
X141515500Y-110742000D03*
%TO.P,J4,3,Pin_3*%
X144055500Y-110742000D03*
%TO.P,J4,4,Pin_4*%
X146595500Y-110742000D03*
%TD*%
D22*
%TO.P,R2,1*%
%TO.N,N/C*%
X150658000Y-117290000D03*
%TO.P,R2,2*%
X148658000Y-117290000D03*
%TD*%
%TO.P,R1,1*%
%TO.N,N/C*%
X150658000Y-115258000D03*
%TO.P,R1,2*%
X148658000Y-115258000D03*
%TD*%
D23*
%TO.P,U2,1,GND*%
%TO.N,N/C*%
X127766500Y-114990000D03*
%TO.P,U2,2,VO*%
X127766500Y-117290000D03*
D24*
X134066500Y-117290000D03*
D23*
%TO.P,U2,3,VI*%
X127766500Y-119590000D03*
%TD*%
D16*
%TO.P,C6,1*%
%TO.N,N/C*%
X131386000Y-96467500D03*
%TO.P,C6,2*%
X131386000Y-94392500D03*
%TD*%
D20*
%TO.P,J3,1,Pin_1*%
%TO.N,N/C*%
X157802000Y-95446000D03*
D21*
%TO.P,J3,2,Pin_2*%
X157802000Y-92906000D03*
%TO.P,J3,3,Pin_3*%
X157802000Y-90366000D03*
%TO.P,J3,4,Pin_4*%
X157802000Y-87826000D03*
%TD*%
D18*
%TO.P,SW1,1,1*%
%TO.N,N/C*%
X128775500Y-109989000D03*
%TO.P,SW1,2,2*%
X128775500Y-102239000D03*
%TD*%
D25*
%TO.P,U1,1,GND*%
%TO.N,N/C*%
X134025500Y-89960000D03*
%TO.P,U1,2,VDD*%
X134025500Y-91230000D03*
%TO.P,U1,3,EN*%
X134025500Y-92500000D03*
%TO.P,U1,4,SENSOR_VP*%
X134025500Y-93770000D03*
%TO.P,U1,5,SENSOR_VN*%
X134025500Y-95040000D03*
%TO.P,U1,6,IO34*%
X134025500Y-96310000D03*
%TO.P,U1,7,IO35*%
X134025500Y-97580000D03*
%TO.P,U1,8,IO32*%
X134025500Y-98850000D03*
%TO.P,U1,9,IO33*%
X134025500Y-100120000D03*
%TO.P,U1,10,IO25*%
X134025500Y-101390000D03*
%TO.P,U1,11,IO26*%
X134025500Y-102660000D03*
%TO.P,U1,12,IO27*%
X134025500Y-103930000D03*
%TO.P,U1,13,IO14*%
X134025500Y-105200000D03*
%TO.P,U1,14,IO12*%
X134025500Y-106470000D03*
D26*
%TO.P,U1,15,GND*%
X137065500Y-107720000D03*
%TO.P,U1,16,IO13*%
X138335500Y-107720000D03*
%TO.P,U1,17,SHD/SD2*%
X139605500Y-107720000D03*
%TO.P,U1,18,SWP/SD3*%
X140875500Y-107720000D03*
%TO.P,U1,19,SCS/CMD*%
X142145500Y-107720000D03*
%TO.P,U1,20,SCK/CLK*%
X143415500Y-107720000D03*
%TO.P,U1,21,SDO/SD0*%
X144685500Y-107720000D03*
%TO.P,U1,22,SDI/SD1*%
X145955500Y-107720000D03*
%TO.P,U1,23,IO15*%
X147225500Y-107720000D03*
%TO.P,U1,24,IO2*%
X148495500Y-107720000D03*
D25*
%TO.P,U1,25,IO0*%
X151525500Y-106470000D03*
%TO.P,U1,26,IO4*%
X151525500Y-105200000D03*
%TO.P,U1,27,IO16*%
X151525500Y-103930000D03*
%TO.P,U1,28,IO17*%
X151525500Y-102660000D03*
%TO.P,U1,29,IO5*%
X151525500Y-101390000D03*
%TO.P,U1,30,IO18*%
X151525500Y-100120000D03*
%TO.P,U1,31,IO19*%
X151525500Y-98850000D03*
%TO.P,U1,32,NC*%
X151525500Y-97580000D03*
%TO.P,U1,33,IO21*%
X151525500Y-96310000D03*
%TO.P,U1,34,RXD0/IO3*%
X151525500Y-95040000D03*
%TO.P,U1,35,TXD0/IO1*%
X151525500Y-93770000D03*
%TO.P,U1,36,IO22*%
X151525500Y-92500000D03*
%TO.P,U1,37,IO23*%
X151525500Y-91230000D03*
%TO.P,U1,38,GND*%
X151525500Y-89960000D03*
D27*
%TO.P,U1,39,GND*%
X140570500Y-95775000D03*
D28*
X140570500Y-96537500D03*
D27*
X140570500Y-97300000D03*
D28*
X140570500Y-98062500D03*
D27*
X140570500Y-98825000D03*
D28*
X141333000Y-95775000D03*
X141333000Y-97300000D03*
X141333000Y-98825000D03*
D27*
X142095500Y-95775000D03*
D28*
X142095500Y-96537500D03*
D27*
X142095500Y-97300000D03*
D29*
X142095500Y-97300000D03*
D28*
X142095500Y-98062500D03*
D27*
X142095500Y-98825000D03*
D28*
X142858000Y-95775000D03*
X142858000Y-97300000D03*
X142858000Y-98825000D03*
D27*
X143620500Y-95775000D03*
D28*
X143620500Y-96537500D03*
D27*
X143620500Y-97300000D03*
D28*
X143620500Y-98062500D03*
D27*
X143620500Y-98825000D03*
%TD*%
D30*
%TO.P,J1,A1,GND*%
%TO.N,N/C*%
X152940500Y-119726000D03*
%TO.P,J1,A4,VBUS*%
X152940500Y-118926000D03*
D31*
%TO.P,J1,A5,CC1*%
X152940500Y-117776000D03*
%TO.P,J1,A6,D+*%
X152940500Y-116776000D03*
%TO.P,J1,A7,D-*%
X152940500Y-116276000D03*
%TO.P,J1,A8,SBU1*%
X152940500Y-115276000D03*
D30*
%TO.P,J1,A9,VBUS*%
X152940500Y-114126000D03*
%TO.P,J1,A12,GND*%
X152940500Y-113326000D03*
%TO.P,J1,B1,GND*%
X152940500Y-113326000D03*
%TO.P,J1,B4,VBUS*%
X152940500Y-114126000D03*
D31*
%TO.P,J1,B5,CC2*%
X152940500Y-114776000D03*
%TO.P,J1,B6,D+*%
X152940500Y-115776000D03*
%TO.P,J1,B7,D-*%
X152940500Y-117276000D03*
%TO.P,J1,B8,SBU2*%
X152940500Y-118276000D03*
D30*
%TO.P,J1,B9,VBUS*%
X152940500Y-118926000D03*
%TO.P,J1,B12,GND*%
X152940500Y-119726000D03*
D32*
%TO.P,J1,S1,SHIELD*%
X153515500Y-120846000D03*
D33*
X157695500Y-120846000D03*
D32*
X153515500Y-112206000D03*
D33*
X157695500Y-112206000D03*
%TD*%
D34*
%TO.N,*%
X127830000Y-87318000D03*
X144594000Y-104590000D03*
X149303569Y-114242500D03*
X136974000Y-112718000D03*
D35*
X142054000Y-114242000D03*
X144086000Y-114242000D03*
D34*
X130911500Y-82746000D03*
X130370000Y-98494000D03*
D35*
X157294000Y-85169500D03*
X146626000Y-84561500D03*
X155770000Y-84778000D03*
X147642000Y-85286000D03*
X147642000Y-95954000D03*
X153230000Y-85286000D03*
%TD*%
D36*
%TO.N,*%
X158952000Y-89889654D02*
X158278346Y-89216000D01*
D37*
X138845500Y-104590000D02*
X142054000Y-104590000D01*
X142095500Y-97300000D02*
X142095500Y-104548500D01*
X137065500Y-107720000D02*
X137065500Y-106370000D01*
X153515500Y-112751000D02*
X152940500Y-113326000D01*
X157695500Y-120846000D02*
X153515500Y-120846000D01*
X157695500Y-112206000D02*
X157695500Y-120846000D01*
X137065500Y-106370000D02*
X138845500Y-104590000D01*
X126066000Y-114990000D02*
X125798000Y-115258000D01*
D38*
X131386000Y-94392500D02*
X133278500Y-92500000D01*
D36*
X154398000Y-93770000D02*
X157802000Y-90366000D01*
D38*
X148333000Y-112718000D02*
X148495500Y-112555500D01*
X145610000Y-117290000D02*
X145610000Y-112718000D01*
X144079500Y-117351500D02*
X144141000Y-117290000D01*
X144141000Y-117290000D02*
X145610000Y-117290000D01*
X148495500Y-112555500D02*
X148495500Y-107720000D01*
X145610000Y-112718000D02*
X148333000Y-112718000D01*
X155044500Y-109989000D02*
X151525500Y-106470000D01*
X156775500Y-109989000D02*
X155044500Y-109989000D01*
D36*
X155668000Y-95040000D02*
X151525500Y-95040000D01*
X157802000Y-92906000D02*
X155668000Y-95040000D01*
X151525500Y-93770000D02*
X154398000Y-93770000D01*
D37*
X158818000Y-104281500D02*
X158818000Y-111083500D01*
X152940500Y-118926000D02*
X147134000Y-118926000D01*
X148541000Y-113343000D02*
X147134000Y-114750000D01*
X138424500Y-118926000D02*
X137482000Y-119868500D01*
X137012500Y-120338000D02*
X137482000Y-119868500D01*
X150603660Y-113343000D02*
X148541000Y-113343000D01*
X151386660Y-114126000D02*
X150603660Y-113343000D01*
X152940500Y-114126000D02*
X151386660Y-114126000D01*
X128514500Y-120338000D02*
X137012500Y-120338000D01*
X131386000Y-97478000D02*
X130370000Y-98494000D01*
X134025500Y-89960000D02*
X131933500Y-89960000D01*
D36*
X152269500Y-89216000D02*
X151525500Y-89960000D01*
D37*
X137482000Y-113057840D02*
X137313840Y-113057840D01*
D36*
X158952000Y-94296000D02*
X158952000Y-89889654D01*
D37*
X152940500Y-119726000D02*
X152940500Y-120271000D01*
X142054000Y-104590000D02*
X144594000Y-104590000D01*
X142095500Y-104548500D02*
X142054000Y-104590000D01*
X127766500Y-114990000D02*
X126066000Y-114990000D01*
X137482000Y-116743500D02*
X137482000Y-113057840D01*
X156775500Y-102239000D02*
X158818000Y-104281500D01*
X150286000Y-119726000D02*
X152940500Y-119726000D01*
D36*
X157802000Y-95446000D02*
X158952000Y-94296000D01*
D37*
X153515500Y-112206000D02*
X153515500Y-112751000D01*
X125798000Y-115258000D02*
X125798000Y-120846000D01*
X131386000Y-96467500D02*
X129354000Y-96467500D01*
X137313840Y-113057840D02*
X136974000Y-112718000D01*
D38*
X136447500Y-110742000D02*
X132950500Y-107245000D01*
X138975500Y-110742000D02*
X136447500Y-110742000D01*
X133316000Y-105200000D02*
X134025500Y-105200000D01*
X132950500Y-105565500D02*
X133316000Y-105200000D01*
X132950500Y-107245000D02*
X132950500Y-105565500D01*
X151525500Y-98850000D02*
X153204000Y-98850000D01*
X153204000Y-98850000D02*
X153738000Y-98316000D01*
D37*
X130546500Y-112210000D02*
X127766500Y-114990000D01*
X131386000Y-112210000D02*
X130546500Y-112210000D01*
X130996500Y-112210000D02*
X128775500Y-109989000D01*
D38*
X153494000Y-100120000D02*
X153722000Y-100348000D01*
X151525500Y-100120000D02*
X153494000Y-100120000D01*
X151140000Y-114776000D02*
X152940500Y-114776000D01*
X150658000Y-115258000D02*
X151140000Y-114776000D01*
X151166000Y-117798000D02*
X152918500Y-117798000D01*
X150658000Y-117290000D02*
X151166000Y-117798000D01*
X152918500Y-117798000D02*
X152940500Y-117776000D01*
D37*
X127766500Y-119590000D02*
X128514500Y-120338000D01*
X148658000Y-115258000D02*
X148658000Y-117290000D01*
X131386000Y-96467500D02*
X131386000Y-97478000D01*
X125122000Y-92069000D02*
X125122000Y-106335500D01*
X152940500Y-120271000D02*
X153515500Y-120846000D01*
X125798000Y-120846000D02*
X126306000Y-121354000D01*
X148658000Y-115258000D02*
X148658000Y-114888069D01*
D38*
X159827000Y-97613396D02*
X159827000Y-84361500D01*
X159827000Y-84361500D02*
X158775500Y-83310000D01*
X146595500Y-110742000D02*
X147225500Y-110112000D01*
X147225500Y-110112000D02*
X147225500Y-107720000D01*
X144055500Y-110742000D02*
X142108500Y-108795000D01*
X138335500Y-108720000D02*
X138335500Y-107720000D01*
X142108500Y-108795000D02*
X138410500Y-108795000D01*
X138410500Y-108795000D02*
X138335500Y-108720000D01*
D37*
X147134000Y-118926000D02*
X138424500Y-118926000D01*
X128835000Y-91481000D02*
X127823500Y-92492500D01*
X134066500Y-117290000D02*
X127766500Y-117290000D01*
X131379500Y-91481000D02*
X128835000Y-91481000D01*
X134682500Y-117906000D02*
X134066500Y-117290000D01*
X132402000Y-87826000D02*
X138359500Y-87826000D01*
X157802000Y-87826000D02*
X138359500Y-87826000D01*
X134511000Y-112210000D02*
X127322000Y-105021000D01*
D38*
X144079500Y-115351500D02*
X144079500Y-114248500D01*
X142054000Y-115330000D02*
X142054000Y-114242000D01*
X144079500Y-114248500D02*
X144086000Y-114242000D01*
D37*
X127862000Y-89406000D02*
X127823500Y-89367500D01*
X131386000Y-112210000D02*
X130996500Y-112210000D01*
X147134000Y-114750000D02*
X147134000Y-118926000D01*
D36*
X158278346Y-89216000D02*
X152269500Y-89216000D01*
D38*
X155722000Y-100018000D02*
X157422396Y-100018000D01*
X157307500Y-85156000D02*
X157294000Y-85169500D01*
X135025097Y-84561500D02*
X129573597Y-79110000D01*
X129573597Y-79110000D02*
X126775500Y-79110000D01*
X158775500Y-83310000D02*
X157307500Y-84778000D01*
X157422396Y-100018000D02*
X159827000Y-97613396D01*
X157307500Y-84778000D02*
X157307500Y-85156000D01*
X146626000Y-84561500D02*
X135025097Y-84561500D01*
D37*
X127823500Y-89367500D02*
X127823500Y-87324500D01*
X148658000Y-121354000D02*
X150286000Y-119726000D01*
X127823500Y-87324500D02*
X127830000Y-87318000D01*
X148658000Y-114888069D02*
X149303569Y-114242500D01*
X126306000Y-121354000D02*
X148658000Y-121354000D01*
X127823500Y-89367500D02*
X125122000Y-92069000D01*
X158818000Y-111083500D02*
X157695500Y-112206000D01*
X131933500Y-89960000D02*
X131379500Y-89406000D01*
X125122000Y-106335500D02*
X128775500Y-109989000D01*
X127115997Y-92492500D02*
X125922000Y-93686497D01*
X134511000Y-112210000D02*
X134511000Y-116845500D01*
X142054000Y-117330000D02*
X141478000Y-117906000D01*
X125922000Y-95570000D02*
X126782000Y-96430000D01*
X127322000Y-105021000D02*
X127322000Y-96430000D01*
X134025500Y-91230000D02*
X131630500Y-91230000D01*
X130911500Y-86335500D02*
X132402000Y-87826000D01*
X131630500Y-91230000D02*
X131379500Y-91481000D01*
X134511000Y-116845500D02*
X134066500Y-117290000D01*
X126782000Y-96430000D02*
X127322000Y-96430000D01*
X141478000Y-117906000D02*
X134682500Y-117906000D01*
X134955500Y-91230000D02*
X138359500Y-87826000D01*
X130911500Y-82746000D02*
X130911500Y-86335500D01*
X134955500Y-91230000D02*
X134025500Y-91230000D01*
X125922000Y-93686497D02*
X125922000Y-95570000D01*
X127823500Y-92492500D02*
X127115997Y-92492500D01*
X131379500Y-89406000D02*
X127862000Y-89406000D01*
D38*
X131386000Y-94841827D02*
X132436000Y-95891827D01*
X132436000Y-98578500D02*
X128775500Y-102239000D01*
X129354000Y-94392500D02*
X127359500Y-94392500D01*
X127359500Y-94392500D02*
X127322000Y-94430000D01*
X132436000Y-95891827D02*
X132436000Y-98578500D01*
X133278500Y-92500000D02*
X134025500Y-92500000D01*
X131386000Y-94392500D02*
X129354000Y-94392500D01*
X131386000Y-94392500D02*
X131386000Y-94841827D01*
X140018500Y-109245000D02*
X136800500Y-109245000D01*
X136800500Y-109245000D02*
X134025500Y-106470000D01*
X141515500Y-110742000D02*
X140018500Y-109245000D01*
X135101805Y-85911000D02*
X154637000Y-85911000D01*
X131211805Y-82021000D02*
X135101805Y-85911000D01*
X154754000Y-80881500D02*
X156525500Y-79110000D01*
X154637000Y-85911000D02*
X158990000Y-85911000D01*
X156525500Y-79110000D02*
X158775500Y-79110000D01*
X158818000Y-97986000D02*
X159377000Y-97427000D01*
X158990000Y-85911000D02*
X159377000Y-86298000D01*
X151525500Y-96310000D02*
X147998000Y-96310000D01*
X154754000Y-85794000D02*
X154754000Y-80881500D01*
X155738000Y-97986000D02*
X158818000Y-97986000D01*
X130611195Y-82021000D02*
X131211805Y-82021000D01*
X154637000Y-85911000D02*
X154754000Y-85794000D01*
X129322195Y-83310000D02*
X130611195Y-82021000D01*
X126775500Y-83310000D02*
X129322195Y-83310000D01*
X159377000Y-97427000D02*
X159377000Y-86298000D01*
X158775500Y-81210000D02*
X157325500Y-81210000D01*
X135027601Y-85200400D02*
X135113201Y-85286000D01*
X147998000Y-96310000D02*
X147642000Y-95954000D01*
X126775500Y-81210000D02*
X131037201Y-81210000D01*
X135113201Y-85286000D02*
X147642000Y-85286000D01*
X147642000Y-85286000D02*
X153230000Y-85286000D01*
X157325500Y-81210000D02*
X155770000Y-82765500D01*
X131037201Y-81210000D02*
X135027601Y-85200400D01*
X155770000Y-82765500D02*
X155770000Y-84778000D01*
D37*
X157695500Y-112206000D02*
X153515500Y-112206000D01*
%TD*%
%TA.AperFunction,NonConductor*%
G36*
X136164541Y-88648015D02*
G01*
X136208564Y-88685615D01*
X136230719Y-88739102D01*
X136226177Y-88796818D01*
X136195927Y-88846181D01*
X135487181Y-89554927D01*
X135437818Y-89585177D01*
X135380102Y-89589719D01*
X135326615Y-89567564D01*
X135289015Y-89523541D01*
X135275500Y-89467246D01*
X135275500Y-89462176D01*
X135269097Y-89402624D01*
X135218852Y-89267910D01*
X135132688Y-89152811D01*
X135017589Y-89066647D01*
X134882875Y-89016402D01*
X134823324Y-89010000D01*
X134275500Y-89010000D01*
X134275500Y-90086000D01*
X134258887Y-90148000D01*
X134213500Y-90193387D01*
X134151500Y-90210000D01*
X133899500Y-90210000D01*
X133837500Y-90193387D01*
X133792113Y-90148000D01*
X133775500Y-90086000D01*
X133775500Y-89010000D01*
X133227676Y-89010000D01*
X133168124Y-89016402D01*
X133033410Y-89066647D01*
X132918310Y-89152811D01*
X132827766Y-89273763D01*
X132780010Y-89312247D01*
X132719652Y-89323136D01*
X132661459Y-89303767D01*
X132619667Y-89258879D01*
X132604499Y-89199452D01*
X132604499Y-89018521D01*
X132594006Y-88915804D01*
X132554805Y-88797504D01*
X132549954Y-88739637D01*
X132571981Y-88685907D01*
X132616055Y-88648097D01*
X132672511Y-88634500D01*
X136108246Y-88634500D01*
X136164541Y-88648015D01*
G37*
%TD.AperFunction*%
%TA.AperFunction,NonConductor*%
G36*
X132714745Y-90009543D02*
G01*
X132759246Y-90054828D01*
X132775500Y-90116202D01*
X132775500Y-90297500D01*
X132758887Y-90359500D01*
X132713500Y-90404887D01*
X132651500Y-90421500D01*
X132536524Y-90421500D01*
X132480229Y-90407985D01*
X132436206Y-90370385D01*
X132414051Y-90316898D01*
X132418593Y-90259182D01*
X132439813Y-90224553D01*
X132439208Y-90224180D01*
X132545961Y-90051105D01*
X132592015Y-90007401D01*
X132653664Y-89992221D01*
X132714745Y-90009543D01*
G37*
%TD.AperFunction*%
%TA.AperFunction,NonConductor*%
G36*
X157990000Y-95212613D02*
G01*
X158035387Y-95258000D01*
X158052000Y-95320000D01*
X158052000Y-96796000D01*
X158619500Y-96796000D01*
X158681500Y-96812613D01*
X158726887Y-96858000D01*
X158743500Y-96920000D01*
X158743500Y-97113233D01*
X158734061Y-97160686D01*
X158707181Y-97200914D01*
X158591914Y-97316181D01*
X158551686Y-97343061D01*
X158504233Y-97352500D01*
X156698544Y-97352500D01*
X156651091Y-97343061D01*
X156610865Y-97316183D01*
X156561652Y-97266970D01*
X156410738Y-97173885D01*
X156410737Y-97173884D01*
X156410736Y-97173884D01*
X156242426Y-97118112D01*
X156148173Y-97108483D01*
X156138544Y-97107500D01*
X155337455Y-97107500D01*
X155233574Y-97118112D01*
X155065263Y-97173884D01*
X154914345Y-97266971D01*
X154825681Y-97355636D01*
X154770094Y-97387730D01*
X154705906Y-97387730D01*
X154650319Y-97355636D01*
X154561654Y-97266971D01*
X154410736Y-97173884D01*
X154242426Y-97118112D01*
X154148173Y-97108483D01*
X154138544Y-97107500D01*
X153337455Y-97107500D01*
X153233574Y-97118112D01*
X153065263Y-97173884D01*
X153042420Y-97187974D01*
X152973094Y-97230734D01*
X152910705Y-97249165D01*
X152847568Y-97233472D01*
X152801067Y-97187974D01*
X152784000Y-97125195D01*
X152784000Y-97081366D01*
X152783895Y-97080385D01*
X152777489Y-97020799D01*
X152765379Y-96988332D01*
X152757561Y-96944998D01*
X152765381Y-96901662D01*
X152773636Y-96879532D01*
X152777489Y-96869201D01*
X152784000Y-96808638D01*
X152784000Y-95811362D01*
X152782152Y-95794174D01*
X152781247Y-95785753D01*
X152793001Y-95718318D01*
X152813048Y-95696000D01*
X156452000Y-95696000D01*
X156452000Y-96343824D01*
X156458402Y-96403375D01*
X156508647Y-96538089D01*
X156594811Y-96653188D01*
X156709910Y-96739352D01*
X156844624Y-96789597D01*
X156904176Y-96796000D01*
X157552000Y-96796000D01*
X157552000Y-95696000D01*
X156452000Y-95696000D01*
X152813048Y-95696000D01*
X152838744Y-95667394D01*
X152904537Y-95648500D01*
X155619995Y-95648500D01*
X155636179Y-95649560D01*
X155668000Y-95653750D01*
X155699821Y-95649560D01*
X155699833Y-95649560D01*
X155707884Y-95648500D01*
X155707885Y-95648500D01*
X155807456Y-95635391D01*
X155826851Y-95632838D01*
X155974876Y-95571524D01*
X156070072Y-95498477D01*
X156070072Y-95498476D01*
X156086366Y-95485974D01*
X156086368Y-95485971D01*
X156101987Y-95473987D01*
X156121536Y-95448509D01*
X156132216Y-95436331D01*
X156336229Y-95232318D01*
X156376457Y-95205439D01*
X156423910Y-95196000D01*
X157928000Y-95196000D01*
X157990000Y-95212613D01*
G37*
%TD.AperFunction*%
%TA.AperFunction,NonConductor*%
G36*
X131574000Y-96234113D02*
G01*
X131619387Y-96279500D01*
X131636000Y-96341500D01*
X131636000Y-97554999D01*
X131678500Y-97554999D01*
X131740500Y-97571612D01*
X131785887Y-97616999D01*
X131802500Y-97678999D01*
X131802500Y-98264734D01*
X131793061Y-98312187D01*
X131766181Y-98352415D01*
X129049414Y-101069181D01*
X129009186Y-101096061D01*
X128961733Y-101105500D01*
X128254500Y-101105500D01*
X128192500Y-101088887D01*
X128147113Y-101043500D01*
X128130500Y-100981500D01*
X128130500Y-97519263D01*
X128146222Y-97458832D01*
X128189400Y-97413726D01*
X128245652Y-97379030D01*
X128245654Y-97379027D01*
X128252946Y-97374530D01*
X128304843Y-97356773D01*
X128359322Y-97363140D01*
X128405725Y-97392387D01*
X128410654Y-97397316D01*
X128559877Y-97489357D01*
X128726303Y-97544506D01*
X128829021Y-97555000D01*
X129104000Y-97555000D01*
X129104000Y-96717500D01*
X129604000Y-96717500D01*
X129604000Y-97554999D01*
X129878979Y-97554999D01*
X129981695Y-97544506D01*
X130148120Y-97489358D01*
X130304903Y-97392654D01*
X130370000Y-97374193D01*
X130435097Y-97392654D01*
X130591879Y-97489358D01*
X130758303Y-97544506D01*
X130861021Y-97555000D01*
X131136000Y-97555000D01*
X131136000Y-96717500D01*
X129604000Y-96717500D01*
X129104000Y-96717500D01*
X129104000Y-96341500D01*
X129120613Y-96279500D01*
X129166000Y-96234113D01*
X129228000Y-96217500D01*
X131512000Y-96217500D01*
X131574000Y-96234113D01*
G37*
%TD.AperFunction*%
%TA.AperFunction,NonConductor*%
G36*
X153128500Y-112502613D02*
G01*
X153173887Y-112548000D01*
X153190500Y-112610000D01*
X153190500Y-113193500D01*
X153173887Y-113255500D01*
X153128500Y-113300887D01*
X153066500Y-113317500D01*
X152985906Y-113317500D01*
X152748362Y-113317500D01*
X152692067Y-113303985D01*
X152648044Y-113266385D01*
X152625889Y-113212898D01*
X152630431Y-113155182D01*
X152660681Y-113105819D01*
X152690500Y-113076000D01*
X152690500Y-112610000D01*
X152707113Y-112548000D01*
X152752500Y-112502613D01*
X152814500Y-112486000D01*
X153066500Y-112486000D01*
X153128500Y-112502613D01*
G37*
%TD.AperFunction*%
%TA.AperFunction,NonConductor*%
G36*
X132692730Y-99317333D02*
G01*
X132748720Y-99357317D01*
X132764522Y-99395931D01*
X132768068Y-99394609D01*
X132785619Y-99441667D01*
X132793437Y-99484998D01*
X132785620Y-99528329D01*
X132773511Y-99560795D01*
X132773511Y-99560798D01*
X132773511Y-99560799D01*
X132767000Y-99621362D01*
X132767000Y-100618638D01*
X132770770Y-100653702D01*
X132773511Y-100679202D01*
X132785620Y-100711669D01*
X132793437Y-100755000D01*
X132785620Y-100798331D01*
X132773511Y-100830797D01*
X132767000Y-100891366D01*
X132767000Y-101888634D01*
X132773511Y-101949202D01*
X132785620Y-101981669D01*
X132793437Y-102025000D01*
X132785620Y-102068331D01*
X132773511Y-102100797D01*
X132767000Y-102161366D01*
X132767000Y-103158634D01*
X132773511Y-103219204D01*
X132785619Y-103251667D01*
X132793437Y-103294998D01*
X132785620Y-103338329D01*
X132773511Y-103370795D01*
X132767000Y-103431366D01*
X132767000Y-104428634D01*
X132773511Y-104489204D01*
X132785619Y-104521667D01*
X132793437Y-104564998D01*
X132785620Y-104608329D01*
X132773511Y-104640795D01*
X132767000Y-104701366D01*
X132767000Y-104801733D01*
X132757561Y-104849186D01*
X132730680Y-104889415D01*
X132561675Y-105058417D01*
X132545399Y-105071457D01*
X132496837Y-105123170D01*
X132494132Y-105125962D01*
X132474361Y-105145733D01*
X132471821Y-105149008D01*
X132464252Y-105157869D01*
X132433914Y-105190177D01*
X132424082Y-105208063D01*
X132413401Y-105224323D01*
X132400885Y-105240459D01*
X132383286Y-105281128D01*
X132378148Y-105291617D01*
X132356803Y-105330443D01*
X132351726Y-105350218D01*
X132345426Y-105368619D01*
X132343091Y-105374016D01*
X132337318Y-105387356D01*
X132330388Y-105431110D01*
X132328020Y-105442546D01*
X132317000Y-105485470D01*
X132317000Y-105505884D01*
X132315473Y-105525283D01*
X132312280Y-105545441D01*
X132316450Y-105589557D01*
X132317000Y-105601226D01*
X132317000Y-107161367D01*
X132314710Y-107182108D01*
X132316939Y-107253017D01*
X132317000Y-107256913D01*
X132317000Y-107284855D01*
X132317518Y-107288956D01*
X132318434Y-107300597D01*
X132319826Y-107344888D01*
X132325522Y-107364492D01*
X132329467Y-107383544D01*
X132332025Y-107403798D01*
X132348338Y-107445001D01*
X132352121Y-107456049D01*
X132364482Y-107498593D01*
X132374874Y-107516166D01*
X132383431Y-107533633D01*
X132390948Y-107552618D01*
X132416991Y-107588463D01*
X132423405Y-107598227D01*
X132445958Y-107636362D01*
X132460390Y-107650794D01*
X132473026Y-107665589D01*
X132485026Y-107682105D01*
X132519167Y-107710349D01*
X132527808Y-107718212D01*
X135940412Y-111130817D01*
X135953456Y-111147098D01*
X135955499Y-111149016D01*
X135955500Y-111149018D01*
X136005184Y-111195674D01*
X136007947Y-111198352D01*
X136027730Y-111218135D01*
X136031011Y-111220680D01*
X136039870Y-111228247D01*
X136072179Y-111258586D01*
X136090064Y-111268418D01*
X136106325Y-111279099D01*
X136122459Y-111291614D01*
X136163125Y-111309210D01*
X136173612Y-111314348D01*
X136212440Y-111335695D01*
X136232208Y-111340770D01*
X136250619Y-111347073D01*
X136269355Y-111355181D01*
X136313126Y-111362113D01*
X136324541Y-111364477D01*
X136367470Y-111375500D01*
X136387884Y-111375500D01*
X136407283Y-111377027D01*
X136427443Y-111380220D01*
X136471556Y-111376050D01*
X136483226Y-111375500D01*
X137493000Y-111375500D01*
X137555000Y-111392113D01*
X137600387Y-111437500D01*
X137617000Y-111499500D01*
X137617000Y-111640634D01*
X137623511Y-111701205D01*
X137674610Y-111838203D01*
X137762238Y-111955261D01*
X137879296Y-112042889D01*
X138016294Y-112093988D01*
X138016297Y-112093988D01*
X138016299Y-112093989D01*
X138076862Y-112100500D01*
X139874134Y-112100500D01*
X139874138Y-112100500D01*
X139934701Y-112093989D01*
X139934703Y-112093988D01*
X139934705Y-112093988D01*
X140016597Y-112063443D01*
X140071704Y-112042889D01*
X140188761Y-111955261D01*
X140276389Y-111838204D01*
X140321637Y-111716889D01*
X140357589Y-111665677D01*
X140413971Y-111638539D01*
X140476425Y-111642387D01*
X140529048Y-111676241D01*
X140566469Y-111716890D01*
X140592260Y-111744906D01*
X140769924Y-111883189D01*
X140967926Y-111990342D01*
X141180865Y-112063444D01*
X141402931Y-112100500D01*
X141628069Y-112100500D01*
X141850135Y-112063444D01*
X142063074Y-111990342D01*
X142261076Y-111883189D01*
X142438740Y-111744906D01*
X142591222Y-111579268D01*
X142681690Y-111440795D01*
X142726482Y-111399561D01*
X142785500Y-111384616D01*
X142844518Y-111399561D01*
X142889309Y-111440795D01*
X142972272Y-111567780D01*
X142979778Y-111579268D01*
X143132260Y-111744906D01*
X143309924Y-111883189D01*
X143507926Y-111990342D01*
X143720865Y-112063444D01*
X143942931Y-112100500D01*
X144168069Y-112100500D01*
X144390135Y-112063444D01*
X144603074Y-111990342D01*
X144801076Y-111883189D01*
X144978740Y-111744906D01*
X145131222Y-111579268D01*
X145221690Y-111440795D01*
X145266482Y-111399561D01*
X145325500Y-111384616D01*
X145384518Y-111399561D01*
X145429309Y-111440795D01*
X145512272Y-111567780D01*
X145519778Y-111579268D01*
X145672260Y-111744906D01*
X145823534Y-111862649D01*
X145860926Y-111910690D01*
X145870946Y-111970740D01*
X145851179Y-112028322D01*
X145806387Y-112069555D01*
X145747370Y-112084500D01*
X145681607Y-112084500D01*
X145658373Y-112082304D01*
X145650093Y-112080724D01*
X145596418Y-112084101D01*
X145593984Y-112084255D01*
X145586199Y-112084500D01*
X145570138Y-112084500D01*
X145554210Y-112086511D01*
X145546466Y-112087243D01*
X145490347Y-112090774D01*
X145482327Y-112093380D01*
X145459564Y-112098468D01*
X145451204Y-112099524D01*
X145398938Y-112120217D01*
X145391614Y-112122854D01*
X145338124Y-112140235D01*
X145331002Y-112144755D01*
X145310221Y-112155343D01*
X145302385Y-112158445D01*
X145256905Y-112191488D01*
X145250467Y-112195863D01*
X145202980Y-112226000D01*
X145197205Y-112232150D01*
X145179710Y-112247574D01*
X145172893Y-112252527D01*
X145137051Y-112295851D01*
X145131903Y-112301690D01*
X145093413Y-112342679D01*
X145089354Y-112350063D01*
X145076241Y-112369358D01*
X145070867Y-112375853D01*
X145046925Y-112426731D01*
X145043392Y-112433665D01*
X145016303Y-112482942D01*
X145014206Y-112491109D01*
X145006307Y-112513049D01*
X145002716Y-112520681D01*
X144992182Y-112575901D01*
X144990484Y-112583500D01*
X144976500Y-112637969D01*
X144976500Y-112646393D01*
X144974304Y-112669627D01*
X144972724Y-112677906D01*
X144976255Y-112734014D01*
X144976500Y-112741801D01*
X144976500Y-113709164D01*
X144960348Y-113770359D01*
X144916100Y-113815612D01*
X144855282Y-113833133D01*
X144793740Y-113818358D01*
X144747507Y-113775137D01*
X144722111Y-113734719D01*
X144593281Y-113605889D01*
X144439015Y-113508957D01*
X144267047Y-113448783D01*
X144267046Y-113448782D01*
X144267044Y-113448782D01*
X144086000Y-113428383D01*
X143904955Y-113448782D01*
X143732984Y-113508957D01*
X143578717Y-113605890D01*
X143449890Y-113734717D01*
X143352957Y-113888984D01*
X143292782Y-114060955D01*
X143272383Y-114241999D01*
X143272912Y-114246691D01*
X143261188Y-114314839D01*
X143214791Y-114366112D01*
X143143514Y-114410078D01*
X143141500Y-114406813D01*
X143109550Y-114425241D01*
X143045385Y-114425224D01*
X142989819Y-114393136D01*
X142977652Y-114380969D01*
X142927053Y-114349759D01*
X142880644Y-114298465D01*
X142873252Y-114255426D01*
X142869181Y-114255885D01*
X142847217Y-114060955D01*
X142847217Y-114060953D01*
X142787043Y-113888985D01*
X142690111Y-113734719D01*
X142561281Y-113605889D01*
X142407015Y-113508957D01*
X142235047Y-113448783D01*
X142235046Y-113448782D01*
X142235044Y-113448782D01*
X142054000Y-113428383D01*
X141872955Y-113448782D01*
X141700984Y-113508957D01*
X141546717Y-113605890D01*
X141417890Y-113734717D01*
X141320957Y-113888984D01*
X141260782Y-114060955D01*
X141238819Y-114255884D01*
X141234754Y-114255426D01*
X141227342Y-114298491D01*
X141180948Y-114349758D01*
X141130350Y-114380968D01*
X141004970Y-114506347D01*
X140911884Y-114657263D01*
X140856112Y-114825573D01*
X140845500Y-114929455D01*
X140845500Y-115730544D01*
X140856112Y-115834425D01*
X140911884Y-116002736D01*
X140911885Y-116002738D01*
X140926233Y-116025999D01*
X141004971Y-116153654D01*
X141093636Y-116242319D01*
X141125730Y-116297906D01*
X141125730Y-116362094D01*
X141093636Y-116417681D01*
X141004971Y-116506345D01*
X140911884Y-116657263D01*
X140856112Y-116825573D01*
X140845500Y-116929456D01*
X140845500Y-116973500D01*
X140828887Y-117035500D01*
X140783500Y-117080887D01*
X140721500Y-117097500D01*
X139006000Y-117097500D01*
X138944000Y-117080887D01*
X138898613Y-117035500D01*
X138889320Y-117000820D01*
X138882000Y-116993500D01*
X136082001Y-116993500D01*
X136074680Y-117000820D01*
X136065388Y-117035500D01*
X136020001Y-117080887D01*
X135958001Y-117097500D01*
X135699000Y-117097500D01*
X135637000Y-117080887D01*
X135591613Y-117035500D01*
X135575000Y-116973500D01*
X135575000Y-116493500D01*
X136082000Y-116493500D01*
X137232000Y-116493500D01*
X137232000Y-115581001D01*
X136782021Y-115581001D01*
X136679304Y-115591493D01*
X136512877Y-115646642D01*
X136363654Y-115738683D01*
X136239683Y-115862654D01*
X136147642Y-116011877D01*
X136092493Y-116178303D01*
X136082000Y-116281021D01*
X136082000Y-116493500D01*
X135575000Y-116493500D01*
X135575000Y-115581000D01*
X137732000Y-115581000D01*
X137732000Y-116493500D01*
X138881999Y-116493500D01*
X138881999Y-116281021D01*
X138871506Y-116178304D01*
X138816357Y-116011877D01*
X138724316Y-115862654D01*
X138600345Y-115738683D01*
X138451122Y-115646642D01*
X138284696Y-115591493D01*
X138181979Y-115581000D01*
X137732000Y-115581000D01*
X135575000Y-115581000D01*
X135575000Y-115341366D01*
X135568488Y-115280794D01*
X135517389Y-115143796D01*
X135429762Y-115026740D01*
X135429759Y-115026738D01*
X135369189Y-114981395D01*
X135332616Y-114937632D01*
X135319500Y-114882128D01*
X135319500Y-113576133D01*
X135335223Y-113515701D01*
X135378404Y-113470594D01*
X135384261Y-113466980D01*
X135397152Y-113459030D01*
X135522530Y-113333652D01*
X135615615Y-113182738D01*
X135671387Y-113014426D01*
X135682000Y-112910545D01*
X135681999Y-111509456D01*
X135671387Y-111405574D01*
X135615615Y-111237262D01*
X135522530Y-111086348D01*
X135522529Y-111086347D01*
X135522528Y-111086345D01*
X135397154Y-110960971D01*
X135246236Y-110867884D01*
X135077926Y-110812112D01*
X134983673Y-110802483D01*
X134974045Y-110801500D01*
X134974044Y-110801500D01*
X134297254Y-110801500D01*
X134249801Y-110792061D01*
X134209573Y-110765181D01*
X128166819Y-104722427D01*
X128139939Y-104682199D01*
X128130500Y-104634746D01*
X128130500Y-103496500D01*
X128147113Y-103434500D01*
X128192500Y-103389113D01*
X128254500Y-103372500D01*
X129324134Y-103372500D01*
X129324138Y-103372500D01*
X129384701Y-103365989D01*
X129384703Y-103365988D01*
X129384705Y-103365988D01*
X129462624Y-103336924D01*
X129521704Y-103314889D01*
X129638761Y-103227261D01*
X129726389Y-103110204D01*
X129777489Y-102973201D01*
X129784000Y-102912638D01*
X129784000Y-102177766D01*
X129793439Y-102130313D01*
X129820319Y-102090085D01*
X131273931Y-100636473D01*
X132563812Y-99346592D01*
X132624046Y-99313350D01*
X132692730Y-99317333D01*
G37*
%TD.AperFunction*%
%TA.AperFunction,NonConductor*%
G36*
X148846000Y-115024613D02*
G01*
X148891387Y-115070000D01*
X148908000Y-115132000D01*
X148908000Y-117416000D01*
X148891387Y-117478000D01*
X148846000Y-117523387D01*
X148784000Y-117540000D01*
X148532000Y-117540000D01*
X148470000Y-117523387D01*
X148424613Y-117478000D01*
X148408000Y-117416000D01*
X148408000Y-115132000D01*
X148424613Y-115070000D01*
X148470000Y-115024613D01*
X148532000Y-115008000D01*
X148784000Y-115008000D01*
X148846000Y-115024613D01*
G37*
%TD.AperFunction*%
%TA.AperFunction,NonConductor*%
G36*
X130051886Y-83624142D02*
G01*
X130089485Y-83668165D01*
X130103000Y-83724460D01*
X130103000Y-86426599D01*
X130111617Y-86464355D01*
X130113946Y-86478061D01*
X130118282Y-86516543D01*
X130131073Y-86553100D01*
X130134920Y-86566457D01*
X130143539Y-86604219D01*
X130160343Y-86639112D01*
X130165664Y-86651957D01*
X130178457Y-86688516D01*
X130199060Y-86721306D01*
X130205786Y-86733475D01*
X130222590Y-86768369D01*
X130246738Y-86798649D01*
X130254785Y-86809990D01*
X130275389Y-86842782D01*
X130307696Y-86875088D01*
X130307697Y-86875089D01*
X131602623Y-88170014D01*
X131634716Y-88225599D01*
X131634718Y-88289784D01*
X131629500Y-88298823D01*
X131629500Y-89532000D01*
X131612887Y-89594000D01*
X131567500Y-89639387D01*
X131505500Y-89656000D01*
X130154501Y-89656000D01*
X130154501Y-89793479D01*
X130164993Y-89896195D01*
X130220142Y-90062622D01*
X130312183Y-90211845D01*
X130446404Y-90346066D01*
X130445213Y-90347256D01*
X130474715Y-90378071D01*
X130490439Y-90438502D01*
X130474719Y-90498934D01*
X130441017Y-90534141D01*
X130441097Y-90534221D01*
X130437448Y-90537869D01*
X130431540Y-90544042D01*
X130430851Y-90544466D01*
X130392480Y-90582838D01*
X130339134Y-90636183D01*
X130298909Y-90663061D01*
X130251456Y-90672500D01*
X128892408Y-90672500D01*
X128831034Y-90656246D01*
X128785749Y-90611745D01*
X128768427Y-90550664D01*
X128783608Y-90489015D01*
X128827311Y-90442961D01*
X128941846Y-90372315D01*
X129065816Y-90248345D01*
X129157857Y-90099122D01*
X129213006Y-89932696D01*
X129223500Y-89829979D01*
X129223500Y-89617500D01*
X128073500Y-89617500D01*
X128073500Y-90529999D01*
X128398449Y-90529999D01*
X128459645Y-90546152D01*
X128504898Y-90590402D01*
X128522418Y-90651222D01*
X128507640Y-90712764D01*
X128464414Y-90758997D01*
X128449186Y-90768564D01*
X128437026Y-90775284D01*
X128402131Y-90792089D01*
X128371842Y-90816243D01*
X128360507Y-90824286D01*
X128327719Y-90844888D01*
X127887426Y-91285181D01*
X127847198Y-91312061D01*
X127799745Y-91321500D01*
X127122955Y-91321500D01*
X127019074Y-91332112D01*
X126850763Y-91387884D01*
X126699845Y-91480971D01*
X126574471Y-91606345D01*
X126481384Y-91757263D01*
X126425612Y-91925573D01*
X126417133Y-92008570D01*
X126405773Y-92049187D01*
X126381456Y-92083647D01*
X125397278Y-93067826D01*
X125397277Y-93067827D01*
X125397278Y-93067827D01*
X125285887Y-93179218D01*
X125265285Y-93212005D01*
X125257243Y-93223339D01*
X125233089Y-93253628D01*
X125216284Y-93288523D01*
X125209562Y-93300687D01*
X125188958Y-93333479D01*
X125188956Y-93333482D01*
X125188957Y-93333482D01*
X125176163Y-93370043D01*
X125170848Y-93382875D01*
X125154040Y-93417778D01*
X125145419Y-93455544D01*
X125141572Y-93468898D01*
X125128782Y-93505451D01*
X125124446Y-93543935D01*
X125122118Y-93557641D01*
X125113500Y-93595402D01*
X125113500Y-95661099D01*
X125122117Y-95698855D01*
X125124446Y-95712561D01*
X125128782Y-95751043D01*
X125141573Y-95787600D01*
X125145420Y-95800957D01*
X125154039Y-95838719D01*
X125170843Y-95873612D01*
X125176164Y-95886457D01*
X125188957Y-95923016D01*
X125209560Y-95955806D01*
X125216286Y-95967975D01*
X125233090Y-96002869D01*
X125257238Y-96033149D01*
X125265285Y-96044490D01*
X125285889Y-96077282D01*
X125318196Y-96109588D01*
X126093954Y-96885346D01*
X126123979Y-96934023D01*
X126172803Y-97081366D01*
X126179885Y-97102738D01*
X126193737Y-97125195D01*
X126272971Y-97253654D01*
X126398346Y-97379029D01*
X126398348Y-97379030D01*
X126454596Y-97413724D01*
X126497777Y-97458831D01*
X126513500Y-97519263D01*
X126513500Y-105112099D01*
X126522117Y-105149855D01*
X126524446Y-105163561D01*
X126528782Y-105202043D01*
X126528782Y-105202045D01*
X126528783Y-105202047D01*
X126541573Y-105238600D01*
X126545420Y-105251957D01*
X126554039Y-105289719D01*
X126570843Y-105324612D01*
X126576164Y-105337457D01*
X126588957Y-105374016D01*
X126609560Y-105406806D01*
X126616286Y-105418975D01*
X126633090Y-105453869D01*
X126657238Y-105484149D01*
X126665285Y-105495490D01*
X126685889Y-105528282D01*
X126718196Y-105560588D01*
X131755927Y-110598319D01*
X131786177Y-110647682D01*
X131790719Y-110705398D01*
X131768564Y-110758885D01*
X131724541Y-110796485D01*
X131668246Y-110810000D01*
X131636000Y-110810000D01*
X131636000Y-111960000D01*
X132548499Y-111960000D01*
X132548499Y-111690253D01*
X132562014Y-111633958D01*
X132599614Y-111589935D01*
X132653101Y-111567780D01*
X132710817Y-111572322D01*
X132760180Y-111602572D01*
X133303681Y-112146073D01*
X133330561Y-112186301D01*
X133340000Y-112233754D01*
X133340000Y-112910544D01*
X133350612Y-113014425D01*
X133406384Y-113182736D01*
X133406385Y-113182738D01*
X133411222Y-113190580D01*
X133499471Y-113333654D01*
X133624846Y-113459029D01*
X133643596Y-113470594D01*
X133686777Y-113515701D01*
X133702500Y-113576133D01*
X133702500Y-114757500D01*
X133685887Y-114819500D01*
X133640500Y-114864887D01*
X133578500Y-114881500D01*
X133017862Y-114881500D01*
X132990945Y-114884393D01*
X132957294Y-114888011D01*
X132820296Y-114939110D01*
X132703238Y-115026738D01*
X132615610Y-115143796D01*
X132564511Y-115280794D01*
X132558000Y-115341366D01*
X132558000Y-116357500D01*
X132541387Y-116419500D01*
X132496000Y-116464887D01*
X132434000Y-116481500D01*
X129373494Y-116481500D01*
X129324682Y-116471488D01*
X129283751Y-116443070D01*
X129257313Y-116400836D01*
X129217389Y-116293796D01*
X129152575Y-116207215D01*
X129130678Y-116159266D01*
X129130678Y-116106549D01*
X129152578Y-116058596D01*
X129209852Y-115982088D01*
X129260097Y-115847375D01*
X129266500Y-115787824D01*
X129266500Y-115240000D01*
X126266500Y-115240000D01*
X126266500Y-115787824D01*
X126272902Y-115847375D01*
X126323147Y-115982089D01*
X126380421Y-116058597D01*
X126402320Y-116106549D01*
X126402320Y-116159265D01*
X126380422Y-116207218D01*
X126315609Y-116293798D01*
X126264511Y-116430794D01*
X126260893Y-116464445D01*
X126258000Y-116491362D01*
X126258000Y-118088638D01*
X126259317Y-118100887D01*
X126264511Y-118149205D01*
X126315610Y-118286203D01*
X126375113Y-118365690D01*
X126397012Y-118413642D01*
X126397012Y-118466358D01*
X126375113Y-118514310D01*
X126315610Y-118593796D01*
X126264511Y-118730794D01*
X126264477Y-118731113D01*
X126258667Y-118785165D01*
X126258000Y-118791366D01*
X126258000Y-120388634D01*
X126264511Y-120449205D01*
X126315610Y-120586203D01*
X126403238Y-120703261D01*
X126520296Y-120790889D01*
X126657294Y-120841988D01*
X126657297Y-120841988D01*
X126657299Y-120841989D01*
X126717862Y-120848500D01*
X127830246Y-120848500D01*
X127877699Y-120857939D01*
X127917924Y-120884816D01*
X128007219Y-120974111D01*
X128040024Y-120994723D01*
X128051334Y-121002748D01*
X128081631Y-121026909D01*
X128116529Y-121043714D01*
X128128678Y-121050428D01*
X128161485Y-121071043D01*
X128175802Y-121076052D01*
X128198041Y-121083835D01*
X128210887Y-121089156D01*
X128243753Y-121104982D01*
X128245780Y-121105959D01*
X128283536Y-121114576D01*
X128296884Y-121118421D01*
X128333453Y-121131217D01*
X128347982Y-121132853D01*
X128371938Y-121135553D01*
X128385647Y-121137881D01*
X128423404Y-121146500D01*
X128469094Y-121146500D01*
X128605597Y-121146500D01*
X136921403Y-121146500D01*
X137057906Y-121146500D01*
X137103597Y-121146500D01*
X137141359Y-121137880D01*
X137155048Y-121135553D01*
X137193547Y-121131217D01*
X137230124Y-121118417D01*
X137243442Y-121114581D01*
X137281220Y-121105959D01*
X137301898Y-121096000D01*
X151992134Y-121096000D01*
X151992432Y-121097948D01*
X152063064Y-121288663D01*
X152170645Y-121461263D01*
X152310766Y-121608669D01*
X152477694Y-121724855D01*
X152664592Y-121805059D01*
X152863811Y-121846000D01*
X153265500Y-121846000D01*
X153265500Y-121096000D01*
X153765500Y-121096000D01*
X153765500Y-121846000D01*
X154116210Y-121846000D01*
X154267839Y-121830580D01*
X154461889Y-121769696D01*
X154639714Y-121670996D01*
X154794031Y-121538520D01*
X154918521Y-121377692D01*
X155008089Y-121195094D01*
X155033746Y-121096000D01*
X156322134Y-121096000D01*
X156322432Y-121097948D01*
X156393064Y-121288663D01*
X156500645Y-121461263D01*
X156640766Y-121608669D01*
X156807694Y-121724855D01*
X156994592Y-121805059D01*
X157193811Y-121846000D01*
X157445500Y-121846000D01*
X157445500Y-121096000D01*
X157945500Y-121096000D01*
X157945500Y-121846000D01*
X158146210Y-121846000D01*
X158297839Y-121830580D01*
X158491889Y-121769696D01*
X158669714Y-121670996D01*
X158824031Y-121538520D01*
X158948521Y-121377692D01*
X159038089Y-121195094D01*
X159063746Y-121096000D01*
X157945500Y-121096000D01*
X157445500Y-121096000D01*
X156322134Y-121096000D01*
X155033746Y-121096000D01*
X153765500Y-121096000D01*
X153265500Y-121096000D01*
X151992134Y-121096000D01*
X137301898Y-121096000D01*
X137316115Y-121089153D01*
X137328949Y-121083836D01*
X137365515Y-121071043D01*
X137385466Y-121058506D01*
X137451440Y-121039499D01*
X138182545Y-121039499D01*
X138234484Y-121034193D01*
X138286426Y-121028887D01*
X138454738Y-120973115D01*
X138605652Y-120880030D01*
X138731030Y-120754652D01*
X138824115Y-120603738D01*
X138879887Y-120435426D01*
X138890500Y-120331545D01*
X138890499Y-119858499D01*
X138907112Y-119796500D01*
X138952499Y-119751113D01*
X139014499Y-119734500D01*
X147081632Y-119734500D01*
X147095516Y-119735279D01*
X147134000Y-119739616D01*
X147172483Y-119735279D01*
X147186368Y-119734500D01*
X151807638Y-119734500D01*
X151863933Y-119748015D01*
X151907956Y-119785615D01*
X151930111Y-119839102D01*
X151925569Y-119896818D01*
X151895319Y-119946181D01*
X151865500Y-119976000D01*
X151865500Y-120073824D01*
X151871902Y-120133375D01*
X151922147Y-120268089D01*
X152005340Y-120379220D01*
X152029524Y-120441874D01*
X152021923Y-120483624D01*
X152026072Y-120484699D01*
X151997253Y-120595999D01*
X151997253Y-120596000D01*
X155038866Y-120596000D01*
X156327253Y-120596000D01*
X157445500Y-120596000D01*
X157445500Y-119846000D01*
X157945500Y-119846000D01*
X157945500Y-120596000D01*
X159068866Y-120596000D01*
X159068567Y-120594051D01*
X158997935Y-120403336D01*
X158890354Y-120230736D01*
X158750233Y-120083330D01*
X158583305Y-119967144D01*
X158396407Y-119886940D01*
X158197189Y-119846000D01*
X157945500Y-119846000D01*
X157445500Y-119846000D01*
X157244790Y-119846000D01*
X157093160Y-119861419D01*
X156899110Y-119922303D01*
X156721285Y-120021003D01*
X156566968Y-120153479D01*
X156442478Y-120314307D01*
X156352910Y-120496905D01*
X156327253Y-120595999D01*
X156327253Y-120596000D01*
X155038866Y-120596000D01*
X155038567Y-120594051D01*
X154967935Y-120403336D01*
X154860354Y-120230736D01*
X154720233Y-120083330D01*
X154553305Y-119967144D01*
X154522855Y-119954077D01*
X154477754Y-119920995D01*
X154451779Y-119871459D01*
X154450215Y-119815548D01*
X154473379Y-119764641D01*
X154518198Y-119706233D01*
X154576187Y-119566236D01*
X154595966Y-119416000D01*
X154580901Y-119301574D01*
X154576187Y-119265764D01*
X154521303Y-119133263D01*
X154518198Y-119125767D01*
X154425951Y-119005549D01*
X154305733Y-118913302D01*
X154165736Y-118855313D01*
X154145378Y-118852632D01*
X154131814Y-118850847D01*
X154076876Y-118829483D01*
X154038011Y-118785165D01*
X154024000Y-118727908D01*
X154024000Y-118577360D01*
X154019903Y-118539257D01*
X154019903Y-118512743D01*
X154024000Y-118474640D01*
X154024000Y-118077358D01*
X154019903Y-118039255D01*
X154019903Y-118012742D01*
X154024000Y-117974640D01*
X154024000Y-117577367D01*
X154024000Y-117577362D01*
X154019902Y-117539244D01*
X154019902Y-117512744D01*
X154024000Y-117474638D01*
X154024000Y-117077362D01*
X154019903Y-117039254D01*
X154019903Y-117012743D01*
X154024000Y-116974640D01*
X154024000Y-116577360D01*
X154019903Y-116539257D01*
X154019903Y-116512743D01*
X154024000Y-116474640D01*
X154024000Y-116077367D01*
X154024000Y-116077362D01*
X154019902Y-116039244D01*
X154019902Y-116012744D01*
X154024000Y-115974638D01*
X154024000Y-115577362D01*
X154019902Y-115539244D01*
X154019902Y-115512744D01*
X154024000Y-115474638D01*
X154024000Y-115077362D01*
X154019903Y-115039254D01*
X154019903Y-115012742D01*
X154024000Y-114974640D01*
X154024000Y-114577358D01*
X154019903Y-114539255D01*
X154019903Y-114512742D01*
X154024000Y-114474640D01*
X154024000Y-114324092D01*
X154038011Y-114266835D01*
X154076876Y-114222517D01*
X154131814Y-114201153D01*
X154134254Y-114200831D01*
X154165736Y-114196687D01*
X154305733Y-114138698D01*
X154425951Y-114046451D01*
X154518198Y-113926233D01*
X154576187Y-113786236D01*
X154595966Y-113636000D01*
X154591161Y-113599506D01*
X154576187Y-113485764D01*
X154565113Y-113459029D01*
X154518198Y-113345767D01*
X154496508Y-113317500D01*
X154472661Y-113286421D01*
X154450158Y-113238582D01*
X154449628Y-113185717D01*
X154471167Y-113137436D01*
X154510860Y-113102516D01*
X154639714Y-113030996D01*
X154794031Y-112898520D01*
X154918521Y-112737692D01*
X155008089Y-112555094D01*
X155033746Y-112456000D01*
X156322134Y-112456000D01*
X156322432Y-112457948D01*
X156393064Y-112648663D01*
X156500645Y-112821263D01*
X156640766Y-112968669D01*
X156807694Y-113084855D01*
X156994592Y-113165059D01*
X157193811Y-113206000D01*
X157445500Y-113206000D01*
X157445500Y-112456000D01*
X157945500Y-112456000D01*
X157945500Y-113206000D01*
X158146210Y-113206000D01*
X158297839Y-113190580D01*
X158491889Y-113129696D01*
X158669714Y-113030996D01*
X158824031Y-112898520D01*
X158948521Y-112737692D01*
X159038089Y-112555094D01*
X159063746Y-112456000D01*
X157945500Y-112456000D01*
X157445500Y-112456000D01*
X156322134Y-112456000D01*
X155033746Y-112456000D01*
X151992134Y-112456000D01*
X151992431Y-112457944D01*
X152026483Y-112549889D01*
X152032918Y-112610743D01*
X152009468Y-112667265D01*
X151922147Y-112783910D01*
X151871902Y-112918624D01*
X151865500Y-112978176D01*
X151865500Y-113076000D01*
X151895319Y-113105819D01*
X151925569Y-113155182D01*
X151930111Y-113212898D01*
X151907956Y-113266385D01*
X151863933Y-113303985D01*
X151807638Y-113317500D01*
X151772914Y-113317500D01*
X151725461Y-113308061D01*
X151685233Y-113281181D01*
X151143248Y-112739196D01*
X151110942Y-112706889D01*
X151078150Y-112686285D01*
X151066809Y-112678238D01*
X151036529Y-112654090D01*
X151001635Y-112637286D01*
X150989466Y-112630560D01*
X150956676Y-112609957D01*
X150920117Y-112597164D01*
X150907272Y-112591843D01*
X150872379Y-112575039D01*
X150834617Y-112566420D01*
X150821263Y-112562574D01*
X150784707Y-112549783D01*
X150784705Y-112549782D01*
X150784703Y-112549782D01*
X150746221Y-112545446D01*
X150732515Y-112543117D01*
X150694759Y-112534500D01*
X150694757Y-112534500D01*
X150649066Y-112534500D01*
X149253000Y-112534500D01*
X149191000Y-112517887D01*
X149145613Y-112472500D01*
X149129000Y-112410500D01*
X149129000Y-111956000D01*
X151997253Y-111956000D01*
X153265500Y-111956000D01*
X153265500Y-111206000D01*
X153765500Y-111206000D01*
X153765500Y-111956000D01*
X155038866Y-111956000D01*
X155038567Y-111954051D01*
X154967935Y-111763336D01*
X154860354Y-111590736D01*
X154720233Y-111443330D01*
X154553305Y-111327144D01*
X154366407Y-111246940D01*
X154167189Y-111206000D01*
X153765500Y-111206000D01*
X153265500Y-111206000D01*
X152914790Y-111206000D01*
X152763160Y-111221419D01*
X152569110Y-111282303D01*
X152391285Y-111381003D01*
X152236968Y-111513479D01*
X152112478Y-111674307D01*
X152022910Y-111856905D01*
X151997253Y-111955999D01*
X151997253Y-111956000D01*
X149129000Y-111956000D01*
X149129000Y-109029898D01*
X149142116Y-108974393D01*
X149178690Y-108930631D01*
X149202096Y-108913110D01*
X149308761Y-108833261D01*
X149396389Y-108716204D01*
X149447489Y-108579201D01*
X149454000Y-108518638D01*
X149454000Y-106921362D01*
X149447489Y-106860799D01*
X149447488Y-106860797D01*
X149447488Y-106860794D01*
X149396389Y-106723796D01*
X149308761Y-106606738D01*
X149191703Y-106519110D01*
X149054705Y-106468011D01*
X149024419Y-106464755D01*
X148994138Y-106461500D01*
X147996862Y-106461500D01*
X147966580Y-106464755D01*
X147936295Y-106468011D01*
X147903829Y-106480120D01*
X147860498Y-106487937D01*
X147817167Y-106480119D01*
X147784704Y-106468011D01*
X147758745Y-106465220D01*
X147724138Y-106461500D01*
X146726862Y-106461500D01*
X146696580Y-106464755D01*
X146666295Y-106468011D01*
X146633829Y-106480120D01*
X146590498Y-106487937D01*
X146547167Y-106480119D01*
X146514704Y-106468011D01*
X146488745Y-106465220D01*
X146454138Y-106461500D01*
X145456862Y-106461500D01*
X145426580Y-106464755D01*
X145396295Y-106468011D01*
X145363829Y-106480120D01*
X145320498Y-106487937D01*
X145277167Y-106480119D01*
X145244704Y-106468011D01*
X145218745Y-106465220D01*
X145184138Y-106461500D01*
X144186862Y-106461500D01*
X144156580Y-106464755D01*
X144126295Y-106468011D01*
X144093829Y-106480120D01*
X144050498Y-106487937D01*
X144007167Y-106480119D01*
X143974704Y-106468011D01*
X143948745Y-106465220D01*
X143914138Y-106461500D01*
X142916862Y-106461500D01*
X142886580Y-106464755D01*
X142856295Y-106468011D01*
X142823829Y-106480120D01*
X142780498Y-106487937D01*
X142737167Y-106480119D01*
X142704704Y-106468011D01*
X142678745Y-106465220D01*
X142644138Y-106461500D01*
X141646862Y-106461500D01*
X141616580Y-106464755D01*
X141586295Y-106468011D01*
X141553829Y-106480120D01*
X141510498Y-106487937D01*
X141467167Y-106480119D01*
X141434704Y-106468011D01*
X141408745Y-106465220D01*
X141374138Y-106461500D01*
X140376862Y-106461500D01*
X140346580Y-106464755D01*
X140316295Y-106468011D01*
X140283829Y-106480120D01*
X140240498Y-106487937D01*
X140197167Y-106480119D01*
X140164704Y-106468011D01*
X140138745Y-106465220D01*
X140104138Y-106461500D01*
X139106862Y-106461500D01*
X139076580Y-106464755D01*
X139046295Y-106468011D01*
X139013829Y-106480120D01*
X138970498Y-106487937D01*
X138927167Y-106480119D01*
X138894704Y-106468011D01*
X138868745Y-106465220D01*
X138834138Y-106461500D01*
X137836862Y-106461500D01*
X137796486Y-106465840D01*
X137776297Y-106468011D01*
X137731669Y-106484656D01*
X137688338Y-106492473D01*
X137645006Y-106484655D01*
X137622879Y-106476402D01*
X137563324Y-106470000D01*
X137315500Y-106470000D01*
X137315500Y-107846000D01*
X137298887Y-107908000D01*
X137253500Y-107953387D01*
X137191500Y-107970000D01*
X136939500Y-107970000D01*
X136877500Y-107953387D01*
X136832113Y-107908000D01*
X136815500Y-107846000D01*
X136815500Y-106470000D01*
X136567676Y-106470000D01*
X136508124Y-106476402D01*
X136373410Y-106526647D01*
X136258311Y-106612811D01*
X136172147Y-106727910D01*
X136121902Y-106862624D01*
X136115500Y-106922176D01*
X136115500Y-107364733D01*
X136101985Y-107421028D01*
X136064385Y-107465051D01*
X136010898Y-107487206D01*
X135953182Y-107482664D01*
X135903819Y-107452414D01*
X135320319Y-106868914D01*
X135293439Y-106828686D01*
X135284000Y-106781233D01*
X135284000Y-105971366D01*
X135284000Y-105971362D01*
X135277489Y-105910799D01*
X135265379Y-105878332D01*
X135257561Y-105834998D01*
X135265381Y-105791662D01*
X135277488Y-105759203D01*
X135277487Y-105759203D01*
X135277489Y-105759201D01*
X135284000Y-105698638D01*
X135284000Y-104701362D01*
X135277489Y-104640799D01*
X135277488Y-104640795D01*
X135265380Y-104608332D01*
X135257562Y-104564998D01*
X135265381Y-104521664D01*
X135277488Y-104489203D01*
X135277487Y-104489203D01*
X135277489Y-104489201D01*
X135284000Y-104428638D01*
X135284000Y-103431362D01*
X135277489Y-103370799D01*
X135265379Y-103338332D01*
X135257561Y-103294998D01*
X135265381Y-103251662D01*
X135274483Y-103227261D01*
X135277489Y-103219201D01*
X135284000Y-103158638D01*
X135284000Y-102161362D01*
X135277489Y-102100799D01*
X135265379Y-102068331D01*
X135257561Y-102025000D01*
X135265379Y-101981667D01*
X135277489Y-101949201D01*
X135284000Y-101888638D01*
X135284000Y-100891362D01*
X135277489Y-100830799D01*
X135265379Y-100798331D01*
X135257561Y-100754998D01*
X135265381Y-100711662D01*
X135277488Y-100679203D01*
X135277487Y-100679203D01*
X135277489Y-100679201D01*
X135284000Y-100618638D01*
X135284000Y-99621362D01*
X135277489Y-99560799D01*
X135265379Y-99528332D01*
X135257561Y-99484998D01*
X135265381Y-99441662D01*
X135277488Y-99409203D01*
X135277487Y-99409203D01*
X135277489Y-99409201D01*
X135284000Y-99348638D01*
X135284000Y-98351362D01*
X135277489Y-98290799D01*
X135265379Y-98258331D01*
X135257561Y-98214998D01*
X135265381Y-98171662D01*
X135267474Y-98166052D01*
X135277489Y-98139201D01*
X135284000Y-98078638D01*
X135284000Y-97550000D01*
X139495500Y-97550000D01*
X139495500Y-99447824D01*
X139501902Y-99507375D01*
X139552147Y-99642089D01*
X139638311Y-99757188D01*
X139753410Y-99843352D01*
X139888124Y-99893597D01*
X139947676Y-99900000D01*
X141845500Y-99900000D01*
X142345500Y-99900000D01*
X144243324Y-99900000D01*
X144302875Y-99893597D01*
X144437589Y-99843352D01*
X144552688Y-99757188D01*
X144638852Y-99642089D01*
X144689097Y-99507375D01*
X144695500Y-99447824D01*
X144695500Y-97550000D01*
X143870500Y-97550000D01*
X143870500Y-97958947D01*
X143886372Y-97974819D01*
X143918466Y-98030406D01*
X143918466Y-98094594D01*
X143886372Y-98150181D01*
X143870500Y-98166052D01*
X143870500Y-98951000D01*
X143853887Y-99013000D01*
X143808500Y-99058387D01*
X143746500Y-99075000D01*
X142961552Y-99075000D01*
X142945681Y-99090872D01*
X142890094Y-99122966D01*
X142825906Y-99122966D01*
X142770319Y-99090872D01*
X142754447Y-99075000D01*
X142345500Y-99075000D01*
X142345500Y-99900000D01*
X141845500Y-99900000D01*
X141845500Y-99075000D01*
X141436552Y-99075000D01*
X141420681Y-99090872D01*
X141365094Y-99122966D01*
X141300906Y-99122966D01*
X141245319Y-99090872D01*
X141229447Y-99075000D01*
X140444500Y-99075000D01*
X140382500Y-99058387D01*
X140337113Y-99013000D01*
X140320500Y-98951000D01*
X140320500Y-98166054D01*
X140320499Y-98166052D01*
X140304628Y-98150181D01*
X140272534Y-98094594D01*
X140272534Y-98062500D01*
X140924053Y-98062500D01*
X141333000Y-98471447D01*
X141741947Y-98062500D01*
X142449053Y-98062500D01*
X142858000Y-98471447D01*
X143266947Y-98062500D01*
X142858000Y-97653553D01*
X142449053Y-98062500D01*
X141741947Y-98062500D01*
X141333000Y-97653553D01*
X140924053Y-98062500D01*
X140272534Y-98062500D01*
X140272534Y-98030406D01*
X140304628Y-97974819D01*
X140320499Y-97958947D01*
X140320500Y-97958947D01*
X140320500Y-97550000D01*
X139495500Y-97550000D01*
X135284000Y-97550000D01*
X135284000Y-97081362D01*
X135280628Y-97050000D01*
X139495500Y-97050000D01*
X140320500Y-97050000D01*
X140320500Y-96641054D01*
X140320499Y-96641052D01*
X140304628Y-96625181D01*
X140272534Y-96569594D01*
X140272534Y-96537500D01*
X140924053Y-96537500D01*
X141333000Y-96946447D01*
X141741947Y-96537500D01*
X142449053Y-96537500D01*
X142858000Y-96946447D01*
X143266947Y-96537500D01*
X142858000Y-96128553D01*
X142449053Y-96537500D01*
X141741947Y-96537500D01*
X141333000Y-96128553D01*
X140924053Y-96537500D01*
X140272534Y-96537500D01*
X140272534Y-96505406D01*
X140304628Y-96449819D01*
X140320499Y-96433947D01*
X140320500Y-96433947D01*
X140320500Y-95649000D01*
X140337113Y-95587000D01*
X140382500Y-95541613D01*
X140444500Y-95525000D01*
X141229447Y-95525000D01*
X141229447Y-95524999D01*
X141245319Y-95509128D01*
X141300906Y-95477034D01*
X141365094Y-95477034D01*
X141420681Y-95509128D01*
X141436553Y-95525000D01*
X141845500Y-95525000D01*
X141845500Y-94700000D01*
X142345500Y-94700000D01*
X142345500Y-95525000D01*
X142754447Y-95525000D01*
X142754447Y-95524999D01*
X142770319Y-95509128D01*
X142825906Y-95477034D01*
X142890094Y-95477034D01*
X142945681Y-95509128D01*
X142961553Y-95525000D01*
X143746500Y-95525000D01*
X143808500Y-95541613D01*
X143853887Y-95587000D01*
X143870500Y-95649000D01*
X143870500Y-96433947D01*
X143886372Y-96449819D01*
X143918466Y-96505406D01*
X143918466Y-96569594D01*
X143886372Y-96625181D01*
X143870500Y-96641052D01*
X143870500Y-97050000D01*
X144695500Y-97050000D01*
X144695500Y-95152176D01*
X144689097Y-95092624D01*
X144638852Y-94957910D01*
X144552688Y-94842811D01*
X144437589Y-94756647D01*
X144302875Y-94706402D01*
X144243324Y-94700000D01*
X142345500Y-94700000D01*
X141845500Y-94700000D01*
X139947676Y-94700000D01*
X139888124Y-94706402D01*
X139753410Y-94756647D01*
X139638311Y-94842811D01*
X139552147Y-94957910D01*
X139501902Y-95092624D01*
X139495500Y-95152176D01*
X139495500Y-97050000D01*
X135280628Y-97050000D01*
X135277489Y-97020799D01*
X135265379Y-96988332D01*
X135257561Y-96944998D01*
X135265381Y-96901662D01*
X135273636Y-96879532D01*
X135277489Y-96869201D01*
X135284000Y-96808638D01*
X135284000Y-95811362D01*
X135277489Y-95750799D01*
X135265379Y-95718332D01*
X135257561Y-95675000D01*
X135265379Y-95631667D01*
X135277489Y-95599201D01*
X135284000Y-95538638D01*
X135284000Y-94541362D01*
X135277489Y-94480799D01*
X135265379Y-94448331D01*
X135257561Y-94405000D01*
X135265379Y-94361667D01*
X135277489Y-94329201D01*
X135284000Y-94268638D01*
X135284000Y-93271362D01*
X135277489Y-93210799D01*
X135265379Y-93178332D01*
X135257561Y-93134998D01*
X135265381Y-93091662D01*
X135274272Y-93067827D01*
X135277489Y-93059201D01*
X135284000Y-92998638D01*
X135284000Y-92047085D01*
X135303006Y-91981113D01*
X135354199Y-91935364D01*
X135388370Y-91918909D01*
X135418653Y-91894757D01*
X135429978Y-91886721D01*
X135462781Y-91866111D01*
X135591611Y-91737281D01*
X137618891Y-89710000D01*
X150275500Y-89710000D01*
X151275500Y-89710000D01*
X151275500Y-89010000D01*
X151775500Y-89010000D01*
X151775500Y-89710000D01*
X152775500Y-89710000D01*
X152775500Y-89462176D01*
X152769097Y-89402624D01*
X152718852Y-89267910D01*
X152632688Y-89152811D01*
X152517589Y-89066647D01*
X152382875Y-89016402D01*
X152323324Y-89010000D01*
X151775500Y-89010000D01*
X151275500Y-89010000D01*
X150727676Y-89010000D01*
X150668124Y-89016402D01*
X150533410Y-89066647D01*
X150418311Y-89152811D01*
X150332147Y-89267910D01*
X150281902Y-89402624D01*
X150275500Y-89462176D01*
X150275500Y-89710000D01*
X137618891Y-89710000D01*
X138658073Y-88670818D01*
X138698301Y-88643939D01*
X138745754Y-88634500D01*
X156645403Y-88634500D01*
X156695213Y-88644944D01*
X156736632Y-88674516D01*
X156793493Y-88736282D01*
X156878760Y-88828906D01*
X157056424Y-88967189D01*
X157092930Y-88986945D01*
X157140435Y-89032524D01*
X157157913Y-89095997D01*
X157140437Y-89159471D01*
X157092933Y-89205052D01*
X157056427Y-89224809D01*
X157056425Y-89224810D01*
X157056424Y-89224811D01*
X156878760Y-89363093D01*
X156878760Y-89363094D01*
X156726279Y-89528730D01*
X156603138Y-89717211D01*
X156512705Y-89923381D01*
X156457435Y-90141636D01*
X156438843Y-90366000D01*
X156457435Y-90590363D01*
X156457435Y-90590366D01*
X156457436Y-90590368D01*
X156475844Y-90663061D01*
X156492605Y-90729249D01*
X156491950Y-90792607D01*
X156460080Y-90847370D01*
X154182270Y-93125181D01*
X154142042Y-93152061D01*
X154094589Y-93161500D01*
X152904537Y-93161500D01*
X152838744Y-93142606D01*
X152793001Y-93091682D01*
X152781247Y-93024247D01*
X152784000Y-92998636D01*
X152784000Y-92001366D01*
X152784000Y-92001362D01*
X152777489Y-91940799D01*
X152765379Y-91908333D01*
X152757561Y-91864998D01*
X152765381Y-91821662D01*
X152777488Y-91789203D01*
X152777487Y-91789203D01*
X152777489Y-91789201D01*
X152784000Y-91728638D01*
X152784000Y-90731362D01*
X152777489Y-90670799D01*
X152760843Y-90626169D01*
X152753025Y-90582838D01*
X152760845Y-90539502D01*
X152769097Y-90517377D01*
X152775500Y-90457824D01*
X152775500Y-90210000D01*
X150275500Y-90210000D01*
X150275500Y-90457824D01*
X150281902Y-90517379D01*
X150290155Y-90539506D01*
X150297973Y-90582838D01*
X150290156Y-90626169D01*
X150273511Y-90670797D01*
X150273511Y-90670798D01*
X150273511Y-90670799D01*
X150267000Y-90731362D01*
X150267000Y-91728638D01*
X150270077Y-91757262D01*
X150273511Y-91789204D01*
X150285619Y-91821667D01*
X150293437Y-91864998D01*
X150285620Y-91908329D01*
X150273511Y-91940795D01*
X150270255Y-91971080D01*
X150270082Y-91972699D01*
X150267000Y-92001366D01*
X150267000Y-92998634D01*
X150273511Y-93059204D01*
X150285619Y-93091667D01*
X150293437Y-93134998D01*
X150285620Y-93178329D01*
X150273511Y-93210795D01*
X150273511Y-93210798D01*
X150273511Y-93210799D01*
X150267228Y-93269248D01*
X150267000Y-93271366D01*
X150267000Y-94268634D01*
X150273511Y-94329202D01*
X150285620Y-94361669D01*
X150293437Y-94405000D01*
X150285620Y-94448331D01*
X150273511Y-94480797D01*
X150267000Y-94541366D01*
X150267000Y-95538638D01*
X150267065Y-95539242D01*
X150267000Y-95539615D01*
X150267000Y-95545284D01*
X150266012Y-95545284D01*
X150255314Y-95606679D01*
X150209570Y-95657605D01*
X150143776Y-95676500D01*
X148489449Y-95676500D01*
X148439860Y-95666152D01*
X148398546Y-95636837D01*
X148383634Y-95612086D01*
X148382476Y-95612815D01*
X148373922Y-95599201D01*
X148278111Y-95446719D01*
X148149281Y-95317889D01*
X147995015Y-95220957D01*
X147823047Y-95160783D01*
X147823046Y-95160782D01*
X147823044Y-95160782D01*
X147642000Y-95140383D01*
X147460955Y-95160782D01*
X147288984Y-95220957D01*
X147134717Y-95317890D01*
X147005890Y-95446717D01*
X146908957Y-95600984D01*
X146848782Y-95772955D01*
X146828383Y-95954000D01*
X146848782Y-96135044D01*
X146848782Y-96135046D01*
X146848783Y-96135047D01*
X146908957Y-96307015D01*
X147005889Y-96461281D01*
X147134719Y-96590111D01*
X147288985Y-96687043D01*
X147460953Y-96747217D01*
X147492642Y-96750787D01*
X147506145Y-96752309D01*
X147546063Y-96763809D01*
X147571615Y-96781939D01*
X147572069Y-96781355D01*
X147578228Y-96786133D01*
X147578230Y-96786135D01*
X147581511Y-96788680D01*
X147590370Y-96796247D01*
X147622679Y-96826586D01*
X147629881Y-96830545D01*
X147640564Y-96836418D01*
X147656825Y-96847099D01*
X147672959Y-96859614D01*
X147713625Y-96877210D01*
X147724112Y-96882348D01*
X147762940Y-96903695D01*
X147782708Y-96908770D01*
X147801119Y-96915073D01*
X147819855Y-96923181D01*
X147863626Y-96930113D01*
X147875041Y-96932477D01*
X147917970Y-96943500D01*
X147938384Y-96943500D01*
X147957783Y-96945027D01*
X147977943Y-96948220D01*
X148022056Y-96944050D01*
X148033726Y-96943500D01*
X150143776Y-96943500D01*
X150209570Y-96962395D01*
X150255314Y-97013321D01*
X150266012Y-97074716D01*
X150267000Y-97074716D01*
X150267000Y-97080385D01*
X150267064Y-97080757D01*
X150267000Y-97081362D01*
X150267000Y-98078638D01*
X150270458Y-98110804D01*
X150273511Y-98139202D01*
X150285620Y-98171669D01*
X150293437Y-98215000D01*
X150285620Y-98258331D01*
X150273511Y-98290797D01*
X150267000Y-98351366D01*
X150267000Y-99348634D01*
X150273511Y-99409204D01*
X150285619Y-99441667D01*
X150293437Y-99484998D01*
X150285620Y-99528329D01*
X150273511Y-99560795D01*
X150273511Y-99560798D01*
X150273511Y-99560799D01*
X150267000Y-99621362D01*
X150267000Y-100618638D01*
X150270770Y-100653702D01*
X150273511Y-100679202D01*
X150285620Y-100711669D01*
X150293437Y-100755000D01*
X150285620Y-100798331D01*
X150273511Y-100830797D01*
X150267000Y-100891366D01*
X150267000Y-101888634D01*
X150273511Y-101949202D01*
X150285620Y-101981669D01*
X150293437Y-102025000D01*
X150285620Y-102068331D01*
X150273511Y-102100797D01*
X150267000Y-102161366D01*
X150267000Y-103158634D01*
X150273511Y-103219204D01*
X150285619Y-103251667D01*
X150293437Y-103294998D01*
X150285620Y-103338329D01*
X150273511Y-103370795D01*
X150267000Y-103431366D01*
X150267000Y-104428634D01*
X150273511Y-104489204D01*
X150285619Y-104521667D01*
X150293437Y-104564998D01*
X150285620Y-104608329D01*
X150273511Y-104640795D01*
X150267000Y-104701366D01*
X150267000Y-105698634D01*
X150273511Y-105759204D01*
X150285619Y-105791667D01*
X150293437Y-105834998D01*
X150285620Y-105878329D01*
X150273511Y-105910795D01*
X150267000Y-105971366D01*
X150267000Y-106968634D01*
X150273511Y-107029205D01*
X150324610Y-107166203D01*
X150412238Y-107283261D01*
X150529296Y-107370889D01*
X150666294Y-107421988D01*
X150666297Y-107421988D01*
X150666299Y-107421989D01*
X150726862Y-107428500D01*
X151536734Y-107428500D01*
X151584187Y-107437939D01*
X151624415Y-107464819D01*
X154537410Y-110377814D01*
X154550459Y-110394101D01*
X154552499Y-110396016D01*
X154552500Y-110396018D01*
X154602201Y-110442690D01*
X154604964Y-110445368D01*
X154624731Y-110465135D01*
X154627997Y-110467668D01*
X154636875Y-110475250D01*
X154669179Y-110505586D01*
X154687070Y-110515421D01*
X154703323Y-110526097D01*
X154715316Y-110535399D01*
X154719461Y-110538615D01*
X154760118Y-110556208D01*
X154770602Y-110561343D01*
X154809440Y-110582695D01*
X154829214Y-110587772D01*
X154847619Y-110594073D01*
X154866355Y-110602181D01*
X154910130Y-110609113D01*
X154921541Y-110611477D01*
X154964470Y-110622500D01*
X154984884Y-110622500D01*
X155004283Y-110624027D01*
X155024443Y-110627220D01*
X155068556Y-110623050D01*
X155080226Y-110622500D01*
X155651301Y-110622500D01*
X155709429Y-110636969D01*
X155753992Y-110676998D01*
X155765868Y-110709428D01*
X155768067Y-110708608D01*
X155824610Y-110860203D01*
X155912238Y-110977261D01*
X156029296Y-111064889D01*
X156166294Y-111115988D01*
X156166297Y-111115988D01*
X156166299Y-111115989D01*
X156226862Y-111122500D01*
X156226866Y-111122500D01*
X156708104Y-111122500D01*
X156770466Y-111139323D01*
X156815908Y-111185227D01*
X156832098Y-111247757D01*
X156814643Y-111309946D01*
X156768281Y-111354919D01*
X156721285Y-111381003D01*
X156566968Y-111513479D01*
X156442478Y-111674307D01*
X156352910Y-111856905D01*
X156327253Y-111955999D01*
X156327253Y-111956000D01*
X157445500Y-111956000D01*
X157445500Y-111206000D01*
X157945500Y-111206000D01*
X157945500Y-111956000D01*
X159068866Y-111956000D01*
X159068567Y-111954051D01*
X158997935Y-111763336D01*
X158890354Y-111590736D01*
X158750233Y-111443330D01*
X158583305Y-111327144D01*
X158396407Y-111246940D01*
X158197189Y-111206000D01*
X157945500Y-111206000D01*
X157445500Y-111206000D01*
X157445500Y-111179406D01*
X157455512Y-111130593D01*
X157483930Y-111089663D01*
X157512500Y-111071778D01*
X157521701Y-111064889D01*
X157521704Y-111064889D01*
X157638761Y-110977261D01*
X157726389Y-110860204D01*
X157761831Y-110765181D01*
X157777488Y-110723205D01*
X157777488Y-110723203D01*
X157777489Y-110723201D01*
X157784000Y-110662638D01*
X157784000Y-109315362D01*
X157777489Y-109254799D01*
X157777488Y-109254797D01*
X157777488Y-109254794D01*
X157726389Y-109117796D01*
X157638761Y-109000738D01*
X157521703Y-108913110D01*
X157384705Y-108862011D01*
X157354419Y-108858755D01*
X157324138Y-108855500D01*
X156226862Y-108855500D01*
X156199945Y-108858393D01*
X156166294Y-108862011D01*
X156029296Y-108913110D01*
X155912238Y-109000738D01*
X155824610Y-109117796D01*
X155768067Y-109269392D01*
X155765868Y-109268571D01*
X155753992Y-109301002D01*
X155709429Y-109341031D01*
X155651301Y-109355500D01*
X155358266Y-109355500D01*
X155310813Y-109346061D01*
X155270585Y-109319181D01*
X152820319Y-106868914D01*
X152793439Y-106828686D01*
X152784000Y-106781233D01*
X152784000Y-105971366D01*
X152784000Y-105971362D01*
X152777489Y-105910799D01*
X152765379Y-105878332D01*
X152757561Y-105834998D01*
X152765381Y-105791662D01*
X152777488Y-105759203D01*
X152777487Y-105759203D01*
X152777489Y-105759201D01*
X152784000Y-105698638D01*
X152784000Y-104701362D01*
X152777489Y-104640799D01*
X152777488Y-104640795D01*
X152765380Y-104608332D01*
X152757562Y-104564998D01*
X152765381Y-104521664D01*
X152777488Y-104489203D01*
X152777487Y-104489203D01*
X152777489Y-104489201D01*
X152784000Y-104428638D01*
X152784000Y-103431362D01*
X152777489Y-103370799D01*
X152765379Y-103338332D01*
X152757561Y-103294998D01*
X152765381Y-103251662D01*
X152774483Y-103227261D01*
X152777489Y-103219201D01*
X152784000Y-103158638D01*
X152784000Y-102489000D01*
X155775500Y-102489000D01*
X155775500Y-102911824D01*
X155781902Y-102971375D01*
X155832147Y-103106089D01*
X155918311Y-103221188D01*
X156033410Y-103307352D01*
X156168124Y-103357597D01*
X156227676Y-103364000D01*
X156525500Y-103364000D01*
X156525500Y-102489000D01*
X157025500Y-102489000D01*
X157025500Y-103364000D01*
X157323324Y-103364000D01*
X157382875Y-103357597D01*
X157517589Y-103307352D01*
X157632688Y-103221188D01*
X157718852Y-103106089D01*
X157769097Y-102971375D01*
X157775500Y-102911824D01*
X157775500Y-102489000D01*
X157025500Y-102489000D01*
X156525500Y-102489000D01*
X155775500Y-102489000D01*
X152784000Y-102489000D01*
X152784000Y-102161362D01*
X152777489Y-102100799D01*
X152765379Y-102068331D01*
X152757561Y-102025000D01*
X152765379Y-101981667D01*
X152777489Y-101949201D01*
X152784000Y-101888638D01*
X152784000Y-101548674D01*
X152801067Y-101485895D01*
X152847568Y-101440397D01*
X152910705Y-101424704D01*
X152973094Y-101443134D01*
X153049262Y-101490115D01*
X153099084Y-101506624D01*
X153217573Y-101545887D01*
X153227202Y-101546870D01*
X153321455Y-101556500D01*
X154122544Y-101556499D01*
X154226426Y-101545887D01*
X154394738Y-101490115D01*
X154545652Y-101397030D01*
X154570772Y-101371910D01*
X154634319Y-101308364D01*
X154689906Y-101276270D01*
X154754094Y-101276270D01*
X154809681Y-101308364D01*
X154898345Y-101397028D01*
X154898347Y-101397029D01*
X154898348Y-101397030D01*
X155049262Y-101490115D01*
X155099084Y-101506624D01*
X155217573Y-101545887D01*
X155227202Y-101546870D01*
X155321455Y-101556500D01*
X155651502Y-101556499D01*
X155713500Y-101573112D01*
X155758887Y-101618499D01*
X155775500Y-101680499D01*
X155775500Y-101989000D01*
X157775500Y-101989000D01*
X157775500Y-101566176D01*
X157769097Y-101506624D01*
X157718852Y-101371910D01*
X157632688Y-101256811D01*
X157517589Y-101170647D01*
X157382875Y-101120402D01*
X157323324Y-101114000D01*
X156938067Y-101114000D01*
X156881612Y-101100403D01*
X156837538Y-101062594D01*
X156815510Y-101008864D01*
X156819103Y-100965995D01*
X156818507Y-100965935D01*
X156830500Y-100848544D01*
X156830500Y-100775500D01*
X156847113Y-100713500D01*
X156892500Y-100668113D01*
X156954500Y-100651500D01*
X157338763Y-100651500D01*
X157359504Y-100653789D01*
X157362301Y-100653701D01*
X157362305Y-100653702D01*
X157430413Y-100651560D01*
X157434309Y-100651500D01*
X157462250Y-100651500D01*
X157462252Y-100651500D01*
X157466352Y-100650981D01*
X157478002Y-100650064D01*
X157522285Y-100648673D01*
X157541894Y-100642975D01*
X157560927Y-100639033D01*
X157581193Y-100636474D01*
X157622402Y-100620157D01*
X157633433Y-100616380D01*
X157675989Y-100604018D01*
X157693556Y-100593628D01*
X157711028Y-100585068D01*
X157730013Y-100577552D01*
X157765871Y-100551498D01*
X157775619Y-100545096D01*
X157813758Y-100522542D01*
X157828196Y-100508103D01*
X157842984Y-100495472D01*
X157859503Y-100483472D01*
X157887755Y-100449319D01*
X157895599Y-100440699D01*
X160215816Y-98120482D01*
X160232097Y-98107440D01*
X160234014Y-98105398D01*
X160234018Y-98105396D01*
X160280707Y-98055675D01*
X160283355Y-98052943D01*
X160303135Y-98033165D01*
X160305661Y-98029907D01*
X160313252Y-98021017D01*
X160343586Y-97988717D01*
X160353424Y-97970820D01*
X160364100Y-97954567D01*
X160376614Y-97938436D01*
X160394216Y-97897756D01*
X160399334Y-97887309D01*
X160420695Y-97848456D01*
X160425772Y-97828678D01*
X160432072Y-97810278D01*
X160440181Y-97791541D01*
X160447112Y-97747772D01*
X160449478Y-97736349D01*
X160460500Y-97693426D01*
X160460500Y-97673012D01*
X160462027Y-97653613D01*
X160462102Y-97653136D01*
X160465220Y-97633453D01*
X160461050Y-97589339D01*
X160460500Y-97577670D01*
X160460500Y-84842500D01*
X160477113Y-84780500D01*
X160522500Y-84735113D01*
X160584500Y-84718500D01*
X160657500Y-84718500D01*
X160719500Y-84735113D01*
X160764887Y-84780500D01*
X160781500Y-84842500D01*
X160781500Y-122042800D01*
X160764887Y-122104800D01*
X160719500Y-122150187D01*
X160657500Y-122166800D01*
X124906500Y-122166800D01*
X124844500Y-122150187D01*
X124799113Y-122104800D01*
X124782500Y-122042800D01*
X124782500Y-114740000D01*
X126266500Y-114740000D01*
X127516500Y-114740000D01*
X127516500Y-113740000D01*
X128016500Y-113740000D01*
X128016500Y-114740000D01*
X129266500Y-114740000D01*
X129266500Y-114192176D01*
X129260097Y-114132624D01*
X129209852Y-113997910D01*
X129123688Y-113882811D01*
X129008589Y-113796647D01*
X128873875Y-113746402D01*
X128814324Y-113740000D01*
X128016500Y-113740000D01*
X127516500Y-113740000D01*
X126718676Y-113740000D01*
X126659124Y-113746402D01*
X126524410Y-113796647D01*
X126409311Y-113882811D01*
X126323147Y-113997910D01*
X126272902Y-114132624D01*
X126266500Y-114192176D01*
X126266500Y-114740000D01*
X124782500Y-114740000D01*
X124782500Y-112460000D01*
X130223501Y-112460000D01*
X130223501Y-112909979D01*
X130233993Y-113012695D01*
X130289142Y-113179122D01*
X130381183Y-113328345D01*
X130505154Y-113452316D01*
X130654377Y-113544357D01*
X130820803Y-113599506D01*
X130923521Y-113610000D01*
X131136000Y-113610000D01*
X131136000Y-112460000D01*
X131636000Y-112460000D01*
X131636000Y-113609999D01*
X131848479Y-113609999D01*
X131951195Y-113599506D01*
X132117622Y-113544357D01*
X132266845Y-113452316D01*
X132390816Y-113328345D01*
X132482857Y-113179122D01*
X132538006Y-113012696D01*
X132548500Y-112909979D01*
X132548500Y-112460000D01*
X131636000Y-112460000D01*
X131136000Y-112460000D01*
X130223501Y-112460000D01*
X124782500Y-112460000D01*
X124782500Y-111960000D01*
X130223500Y-111960000D01*
X131136000Y-111960000D01*
X131136000Y-110810001D01*
X130923521Y-110810001D01*
X130820804Y-110820493D01*
X130654377Y-110875642D01*
X130505154Y-110967683D01*
X130381183Y-111091654D01*
X130289142Y-111240877D01*
X130233993Y-111407303D01*
X130223500Y-111510021D01*
X130223500Y-111960000D01*
X124782500Y-111960000D01*
X124782500Y-110239000D01*
X127775500Y-110239000D01*
X127775500Y-110661824D01*
X127781902Y-110721375D01*
X127832147Y-110856089D01*
X127918311Y-110971188D01*
X128033410Y-111057352D01*
X128168124Y-111107597D01*
X128227676Y-111114000D01*
X128525500Y-111114000D01*
X128525500Y-110239000D01*
X129025500Y-110239000D01*
X129025500Y-111114000D01*
X129323324Y-111114000D01*
X129382875Y-111107597D01*
X129517589Y-111057352D01*
X129632688Y-110971188D01*
X129718852Y-110856089D01*
X129769097Y-110721375D01*
X129775500Y-110661824D01*
X129775500Y-110239000D01*
X129025500Y-110239000D01*
X128525500Y-110239000D01*
X127775500Y-110239000D01*
X124782500Y-110239000D01*
X124782500Y-109739000D01*
X127775500Y-109739000D01*
X128525500Y-109739000D01*
X128525500Y-108864000D01*
X129025500Y-108864000D01*
X129025500Y-109739000D01*
X129775500Y-109739000D01*
X129775500Y-109316176D01*
X129769097Y-109256624D01*
X129718852Y-109121910D01*
X129632688Y-109006811D01*
X129517589Y-108920647D01*
X129382875Y-108870402D01*
X129323324Y-108864000D01*
X129025500Y-108864000D01*
X128525500Y-108864000D01*
X128227676Y-108864000D01*
X128168124Y-108870402D01*
X128033410Y-108920647D01*
X127918311Y-109006811D01*
X127832147Y-109121910D01*
X127781902Y-109256624D01*
X127775500Y-109316176D01*
X127775500Y-109739000D01*
X124782500Y-109739000D01*
X124782500Y-89617500D01*
X126423501Y-89617500D01*
X126423501Y-89829979D01*
X126433993Y-89932695D01*
X126489142Y-90099122D01*
X126581183Y-90248345D01*
X126705154Y-90372316D01*
X126854377Y-90464357D01*
X127020803Y-90519506D01*
X127123521Y-90530000D01*
X127573500Y-90530000D01*
X127573500Y-89617500D01*
X126423501Y-89617500D01*
X124782500Y-89617500D01*
X124782500Y-89156000D01*
X130154500Y-89156000D01*
X131129500Y-89156000D01*
X131129500Y-88318501D01*
X130854521Y-88318501D01*
X130751804Y-88328993D01*
X130585377Y-88384142D01*
X130436154Y-88476183D01*
X130312183Y-88600154D01*
X130220142Y-88749377D01*
X130164993Y-88915803D01*
X130154500Y-89018521D01*
X130154500Y-89156000D01*
X124782500Y-89156000D01*
X124782500Y-89117500D01*
X126423500Y-89117500D01*
X127573500Y-89117500D01*
X127573500Y-88205001D01*
X127123521Y-88205001D01*
X127020804Y-88215493D01*
X126854377Y-88270642D01*
X126705154Y-88362683D01*
X126581183Y-88486654D01*
X126489142Y-88635877D01*
X126433993Y-88802303D01*
X126423500Y-88905021D01*
X126423500Y-89117500D01*
X124782500Y-89117500D01*
X124782500Y-88205000D01*
X128073500Y-88205000D01*
X128073500Y-89117500D01*
X129223499Y-89117500D01*
X129223499Y-88905021D01*
X129213006Y-88802304D01*
X129157857Y-88635877D01*
X129065816Y-88486654D01*
X128941845Y-88362683D01*
X128792622Y-88270642D01*
X128626196Y-88215493D01*
X128523479Y-88205000D01*
X128073500Y-88205000D01*
X124782500Y-88205000D01*
X124782500Y-84842500D01*
X124799113Y-84780500D01*
X124844500Y-84735113D01*
X124906500Y-84718500D01*
X128824134Y-84718500D01*
X128824138Y-84718500D01*
X128884701Y-84711989D01*
X128884703Y-84711988D01*
X128884705Y-84711988D01*
X128978777Y-84676900D01*
X129021704Y-84660889D01*
X129138761Y-84573261D01*
X129226389Y-84456204D01*
X129277489Y-84319201D01*
X129284000Y-84258638D01*
X129284000Y-84065177D01*
X129299970Y-84004305D01*
X129343765Y-83959112D01*
X129404105Y-83941238D01*
X129413250Y-83940950D01*
X129422084Y-83940673D01*
X129441693Y-83934975D01*
X129460726Y-83931033D01*
X129480992Y-83928474D01*
X129522201Y-83912157D01*
X129533232Y-83908380D01*
X129575788Y-83896018D01*
X129593355Y-83885628D01*
X129610827Y-83877068D01*
X129629812Y-83869552D01*
X129665670Y-83843498D01*
X129675418Y-83837096D01*
X129713557Y-83814542D01*
X129727995Y-83800103D01*
X129742783Y-83787472D01*
X129759302Y-83775472D01*
X129787554Y-83741319D01*
X129795388Y-83732709D01*
X129891322Y-83636775D01*
X129940682Y-83606529D01*
X129998398Y-83601987D01*
X130051886Y-83624142D01*
G37*
%TD.AperFunction*%
M02*
