%TF.GenerationSoftware,KiCad,Pcbnew,7.0.1-3b83917a11~172~ubuntu22.04.1*%
%TF.CreationDate,2023-04-18T10:02:11+02:00*%
%TF.ProjectId,part2,70617274-322e-46b6-9963-61645f706362,rev?*%
%TF.SameCoordinates,Original*%
%TF.FileFunction,Drillmap*%
%TF.FilePolarity,Positive*%
%FSLAX45Y45*%
G04 Gerber Fmt 4.5, Leading zero omitted, Abs format (unit mm)*
G04 Created by KiCad (PCBNEW 7.0.1-3b83917a11~172~ubuntu22.04.1) date 2023-04-18 10:02:11*
%MOMM*%
%LPD*%
G01*
G04 APERTURE LIST*
%ADD10C,0.100000*%
%ADD11C,0.200000*%
%ADD12C,0.065000*%
G04 APERTURE END LIST*
D10*
X12478200Y-7817400D02*
X13328200Y-7817400D01*
X13328200Y-7817400D02*
X13328200Y-8217400D01*
X16078200Y-12217400D02*
X16078200Y-7817400D01*
X13328200Y-8217400D02*
X15228200Y-8217400D01*
X12478200Y-7817400D02*
X12478200Y-12217400D01*
X15228200Y-7817400D02*
X16078200Y-7817400D01*
X15228200Y-8217400D02*
X15228200Y-7817400D01*
X12478200Y-12217400D02*
X16078200Y-12217400D01*
D11*
D12*
X15369050Y-11331100D02*
X15434050Y-11396100D01*
X15434050Y-11331100D02*
X15369050Y-11396100D01*
X15369050Y-11909100D02*
X15434050Y-11974100D01*
X15434050Y-11909100D02*
X15369050Y-11974100D01*
D11*
X12720819Y-12534924D02*
X12720819Y-12334924D01*
X12720819Y-12334924D02*
X12768438Y-12334924D01*
X12768438Y-12334924D02*
X12797009Y-12344448D01*
X12797009Y-12344448D02*
X12816057Y-12363495D01*
X12816057Y-12363495D02*
X12825581Y-12382543D01*
X12825581Y-12382543D02*
X12835105Y-12420638D01*
X12835105Y-12420638D02*
X12835105Y-12449209D01*
X12835105Y-12449209D02*
X12825581Y-12487305D01*
X12825581Y-12487305D02*
X12816057Y-12506352D01*
X12816057Y-12506352D02*
X12797009Y-12525400D01*
X12797009Y-12525400D02*
X12768438Y-12534924D01*
X12768438Y-12534924D02*
X12720819Y-12534924D01*
X12920819Y-12534924D02*
X12920819Y-12401590D01*
X12920819Y-12439686D02*
X12930343Y-12420638D01*
X12930343Y-12420638D02*
X12939867Y-12411114D01*
X12939867Y-12411114D02*
X12958914Y-12401590D01*
X12958914Y-12401590D02*
X12977962Y-12401590D01*
X13044628Y-12534924D02*
X13044628Y-12401590D01*
X13044628Y-12334924D02*
X13035105Y-12344448D01*
X13035105Y-12344448D02*
X13044628Y-12353971D01*
X13044628Y-12353971D02*
X13054152Y-12344448D01*
X13054152Y-12344448D02*
X13044628Y-12334924D01*
X13044628Y-12334924D02*
X13044628Y-12353971D01*
X13168438Y-12534924D02*
X13149390Y-12525400D01*
X13149390Y-12525400D02*
X13139867Y-12506352D01*
X13139867Y-12506352D02*
X13139867Y-12334924D01*
X13273200Y-12534924D02*
X13254152Y-12525400D01*
X13254152Y-12525400D02*
X13244628Y-12506352D01*
X13244628Y-12506352D02*
X13244628Y-12334924D01*
X13501771Y-12534924D02*
X13501771Y-12334924D01*
X13501771Y-12334924D02*
X13568438Y-12477781D01*
X13568438Y-12477781D02*
X13635105Y-12334924D01*
X13635105Y-12334924D02*
X13635105Y-12534924D01*
X13816057Y-12534924D02*
X13816057Y-12430162D01*
X13816057Y-12430162D02*
X13806533Y-12411114D01*
X13806533Y-12411114D02*
X13787486Y-12401590D01*
X13787486Y-12401590D02*
X13749390Y-12401590D01*
X13749390Y-12401590D02*
X13730343Y-12411114D01*
X13816057Y-12525400D02*
X13797009Y-12534924D01*
X13797009Y-12534924D02*
X13749390Y-12534924D01*
X13749390Y-12534924D02*
X13730343Y-12525400D01*
X13730343Y-12525400D02*
X13720819Y-12506352D01*
X13720819Y-12506352D02*
X13720819Y-12487305D01*
X13720819Y-12487305D02*
X13730343Y-12468257D01*
X13730343Y-12468257D02*
X13749390Y-12458733D01*
X13749390Y-12458733D02*
X13797009Y-12458733D01*
X13797009Y-12458733D02*
X13816057Y-12449209D01*
X13911295Y-12401590D02*
X13911295Y-12601590D01*
X13911295Y-12411114D02*
X13930343Y-12401590D01*
X13930343Y-12401590D02*
X13968438Y-12401590D01*
X13968438Y-12401590D02*
X13987486Y-12411114D01*
X13987486Y-12411114D02*
X13997009Y-12420638D01*
X13997009Y-12420638D02*
X14006533Y-12439686D01*
X14006533Y-12439686D02*
X14006533Y-12496828D01*
X14006533Y-12496828D02*
X13997009Y-12515876D01*
X13997009Y-12515876D02*
X13987486Y-12525400D01*
X13987486Y-12525400D02*
X13968438Y-12534924D01*
X13968438Y-12534924D02*
X13930343Y-12534924D01*
X13930343Y-12534924D02*
X13911295Y-12525400D01*
X14092248Y-12515876D02*
X14101771Y-12525400D01*
X14101771Y-12525400D02*
X14092248Y-12534924D01*
X14092248Y-12534924D02*
X14082724Y-12525400D01*
X14082724Y-12525400D02*
X14092248Y-12515876D01*
X14092248Y-12515876D02*
X14092248Y-12534924D01*
X14092248Y-12411114D02*
X14101771Y-12420638D01*
X14101771Y-12420638D02*
X14092248Y-12430162D01*
X14092248Y-12430162D02*
X14082724Y-12420638D01*
X14082724Y-12420638D02*
X14092248Y-12411114D01*
X14092248Y-12411114D02*
X14092248Y-12430162D01*
D12*
X12408200Y-12829900D02*
X12473200Y-12894900D01*
X12473200Y-12829900D02*
X12408200Y-12894900D01*
D11*
X12758914Y-12754924D02*
X12777962Y-12754924D01*
X12777962Y-12754924D02*
X12797009Y-12764448D01*
X12797009Y-12764448D02*
X12806533Y-12773971D01*
X12806533Y-12773971D02*
X12816057Y-12793019D01*
X12816057Y-12793019D02*
X12825581Y-12831114D01*
X12825581Y-12831114D02*
X12825581Y-12878733D01*
X12825581Y-12878733D02*
X12816057Y-12916828D01*
X12816057Y-12916828D02*
X12806533Y-12935876D01*
X12806533Y-12935876D02*
X12797009Y-12945400D01*
X12797009Y-12945400D02*
X12777962Y-12954924D01*
X12777962Y-12954924D02*
X12758914Y-12954924D01*
X12758914Y-12954924D02*
X12739867Y-12945400D01*
X12739867Y-12945400D02*
X12730343Y-12935876D01*
X12730343Y-12935876D02*
X12720819Y-12916828D01*
X12720819Y-12916828D02*
X12711295Y-12878733D01*
X12711295Y-12878733D02*
X12711295Y-12831114D01*
X12711295Y-12831114D02*
X12720819Y-12793019D01*
X12720819Y-12793019D02*
X12730343Y-12773971D01*
X12730343Y-12773971D02*
X12739867Y-12764448D01*
X12739867Y-12764448D02*
X12758914Y-12754924D01*
X12911295Y-12935876D02*
X12920819Y-12945400D01*
X12920819Y-12945400D02*
X12911295Y-12954924D01*
X12911295Y-12954924D02*
X12901771Y-12945400D01*
X12901771Y-12945400D02*
X12911295Y-12935876D01*
X12911295Y-12935876D02*
X12911295Y-12954924D01*
X13092248Y-12754924D02*
X13054152Y-12754924D01*
X13054152Y-12754924D02*
X13035105Y-12764448D01*
X13035105Y-12764448D02*
X13025581Y-12773971D01*
X13025581Y-12773971D02*
X13006533Y-12802543D01*
X13006533Y-12802543D02*
X12997009Y-12840638D01*
X12997009Y-12840638D02*
X12997009Y-12916828D01*
X12997009Y-12916828D02*
X13006533Y-12935876D01*
X13006533Y-12935876D02*
X13016057Y-12945400D01*
X13016057Y-12945400D02*
X13035105Y-12954924D01*
X13035105Y-12954924D02*
X13073200Y-12954924D01*
X13073200Y-12954924D02*
X13092248Y-12945400D01*
X13092248Y-12945400D02*
X13101771Y-12935876D01*
X13101771Y-12935876D02*
X13111295Y-12916828D01*
X13111295Y-12916828D02*
X13111295Y-12869209D01*
X13111295Y-12869209D02*
X13101771Y-12850162D01*
X13101771Y-12850162D02*
X13092248Y-12840638D01*
X13092248Y-12840638D02*
X13073200Y-12831114D01*
X13073200Y-12831114D02*
X13035105Y-12831114D01*
X13035105Y-12831114D02*
X13016057Y-12840638D01*
X13016057Y-12840638D02*
X13006533Y-12850162D01*
X13006533Y-12850162D02*
X12997009Y-12869209D01*
X13292248Y-12754924D02*
X13197009Y-12754924D01*
X13197009Y-12754924D02*
X13187486Y-12850162D01*
X13187486Y-12850162D02*
X13197009Y-12840638D01*
X13197009Y-12840638D02*
X13216057Y-12831114D01*
X13216057Y-12831114D02*
X13263676Y-12831114D01*
X13263676Y-12831114D02*
X13282724Y-12840638D01*
X13282724Y-12840638D02*
X13292248Y-12850162D01*
X13292248Y-12850162D02*
X13301771Y-12869209D01*
X13301771Y-12869209D02*
X13301771Y-12916828D01*
X13301771Y-12916828D02*
X13292248Y-12935876D01*
X13292248Y-12935876D02*
X13282724Y-12945400D01*
X13282724Y-12945400D02*
X13263676Y-12954924D01*
X13263676Y-12954924D02*
X13216057Y-12954924D01*
X13216057Y-12954924D02*
X13197009Y-12945400D01*
X13197009Y-12945400D02*
X13187486Y-12935876D01*
X13425581Y-12754924D02*
X13444629Y-12754924D01*
X13444629Y-12754924D02*
X13463676Y-12764448D01*
X13463676Y-12764448D02*
X13473200Y-12773971D01*
X13473200Y-12773971D02*
X13482724Y-12793019D01*
X13482724Y-12793019D02*
X13492248Y-12831114D01*
X13492248Y-12831114D02*
X13492248Y-12878733D01*
X13492248Y-12878733D02*
X13482724Y-12916828D01*
X13482724Y-12916828D02*
X13473200Y-12935876D01*
X13473200Y-12935876D02*
X13463676Y-12945400D01*
X13463676Y-12945400D02*
X13444629Y-12954924D01*
X13444629Y-12954924D02*
X13425581Y-12954924D01*
X13425581Y-12954924D02*
X13406533Y-12945400D01*
X13406533Y-12945400D02*
X13397009Y-12935876D01*
X13397009Y-12935876D02*
X13387486Y-12916828D01*
X13387486Y-12916828D02*
X13377962Y-12878733D01*
X13377962Y-12878733D02*
X13377962Y-12831114D01*
X13377962Y-12831114D02*
X13387486Y-12793019D01*
X13387486Y-12793019D02*
X13397009Y-12773971D01*
X13397009Y-12773971D02*
X13406533Y-12764448D01*
X13406533Y-12764448D02*
X13425581Y-12754924D01*
X13577962Y-12954924D02*
X13577962Y-12821590D01*
X13577962Y-12840638D02*
X13587486Y-12831114D01*
X13587486Y-12831114D02*
X13606533Y-12821590D01*
X13606533Y-12821590D02*
X13635105Y-12821590D01*
X13635105Y-12821590D02*
X13654152Y-12831114D01*
X13654152Y-12831114D02*
X13663676Y-12850162D01*
X13663676Y-12850162D02*
X13663676Y-12954924D01*
X13663676Y-12850162D02*
X13673200Y-12831114D01*
X13673200Y-12831114D02*
X13692248Y-12821590D01*
X13692248Y-12821590D02*
X13720819Y-12821590D01*
X13720819Y-12821590D02*
X13739867Y-12831114D01*
X13739867Y-12831114D02*
X13749390Y-12850162D01*
X13749390Y-12850162D02*
X13749390Y-12954924D01*
X13844629Y-12954924D02*
X13844629Y-12821590D01*
X13844629Y-12840638D02*
X13854152Y-12831114D01*
X13854152Y-12831114D02*
X13873200Y-12821590D01*
X13873200Y-12821590D02*
X13901771Y-12821590D01*
X13901771Y-12821590D02*
X13920819Y-12831114D01*
X13920819Y-12831114D02*
X13930343Y-12850162D01*
X13930343Y-12850162D02*
X13930343Y-12954924D01*
X13930343Y-12850162D02*
X13939867Y-12831114D01*
X13939867Y-12831114D02*
X13958914Y-12821590D01*
X13958914Y-12821590D02*
X13987486Y-12821590D01*
X13987486Y-12821590D02*
X14006533Y-12831114D01*
X14006533Y-12831114D02*
X14016057Y-12850162D01*
X14016057Y-12850162D02*
X14016057Y-12954924D01*
X14406533Y-12745400D02*
X14235105Y-13002543D01*
X14663676Y-12754924D02*
X14682724Y-12754924D01*
X14682724Y-12754924D02*
X14701772Y-12764448D01*
X14701772Y-12764448D02*
X14711295Y-12773971D01*
X14711295Y-12773971D02*
X14720819Y-12793019D01*
X14720819Y-12793019D02*
X14730343Y-12831114D01*
X14730343Y-12831114D02*
X14730343Y-12878733D01*
X14730343Y-12878733D02*
X14720819Y-12916828D01*
X14720819Y-12916828D02*
X14711295Y-12935876D01*
X14711295Y-12935876D02*
X14701772Y-12945400D01*
X14701772Y-12945400D02*
X14682724Y-12954924D01*
X14682724Y-12954924D02*
X14663676Y-12954924D01*
X14663676Y-12954924D02*
X14644629Y-12945400D01*
X14644629Y-12945400D02*
X14635105Y-12935876D01*
X14635105Y-12935876D02*
X14625581Y-12916828D01*
X14625581Y-12916828D02*
X14616057Y-12878733D01*
X14616057Y-12878733D02*
X14616057Y-12831114D01*
X14616057Y-12831114D02*
X14625581Y-12793019D01*
X14625581Y-12793019D02*
X14635105Y-12773971D01*
X14635105Y-12773971D02*
X14644629Y-12764448D01*
X14644629Y-12764448D02*
X14663676Y-12754924D01*
X14816057Y-12935876D02*
X14825581Y-12945400D01*
X14825581Y-12945400D02*
X14816057Y-12954924D01*
X14816057Y-12954924D02*
X14806533Y-12945400D01*
X14806533Y-12945400D02*
X14816057Y-12935876D01*
X14816057Y-12935876D02*
X14816057Y-12954924D01*
X14949391Y-12754924D02*
X14968438Y-12754924D01*
X14968438Y-12754924D02*
X14987486Y-12764448D01*
X14987486Y-12764448D02*
X14997010Y-12773971D01*
X14997010Y-12773971D02*
X15006533Y-12793019D01*
X15006533Y-12793019D02*
X15016057Y-12831114D01*
X15016057Y-12831114D02*
X15016057Y-12878733D01*
X15016057Y-12878733D02*
X15006533Y-12916828D01*
X15006533Y-12916828D02*
X14997010Y-12935876D01*
X14997010Y-12935876D02*
X14987486Y-12945400D01*
X14987486Y-12945400D02*
X14968438Y-12954924D01*
X14968438Y-12954924D02*
X14949391Y-12954924D01*
X14949391Y-12954924D02*
X14930343Y-12945400D01*
X14930343Y-12945400D02*
X14920819Y-12935876D01*
X14920819Y-12935876D02*
X14911295Y-12916828D01*
X14911295Y-12916828D02*
X14901772Y-12878733D01*
X14901772Y-12878733D02*
X14901772Y-12831114D01*
X14901772Y-12831114D02*
X14911295Y-12793019D01*
X14911295Y-12793019D02*
X14920819Y-12773971D01*
X14920819Y-12773971D02*
X14930343Y-12764448D01*
X14930343Y-12764448D02*
X14949391Y-12754924D01*
X15092248Y-12773971D02*
X15101772Y-12764448D01*
X15101772Y-12764448D02*
X15120819Y-12754924D01*
X15120819Y-12754924D02*
X15168438Y-12754924D01*
X15168438Y-12754924D02*
X15187486Y-12764448D01*
X15187486Y-12764448D02*
X15197010Y-12773971D01*
X15197010Y-12773971D02*
X15206533Y-12793019D01*
X15206533Y-12793019D02*
X15206533Y-12812067D01*
X15206533Y-12812067D02*
X15197010Y-12840638D01*
X15197010Y-12840638D02*
X15082724Y-12954924D01*
X15082724Y-12954924D02*
X15206533Y-12954924D01*
X15387486Y-12754924D02*
X15292248Y-12754924D01*
X15292248Y-12754924D02*
X15282724Y-12850162D01*
X15282724Y-12850162D02*
X15292248Y-12840638D01*
X15292248Y-12840638D02*
X15311295Y-12831114D01*
X15311295Y-12831114D02*
X15358914Y-12831114D01*
X15358914Y-12831114D02*
X15377962Y-12840638D01*
X15377962Y-12840638D02*
X15387486Y-12850162D01*
X15387486Y-12850162D02*
X15397010Y-12869209D01*
X15397010Y-12869209D02*
X15397010Y-12916828D01*
X15397010Y-12916828D02*
X15387486Y-12935876D01*
X15387486Y-12935876D02*
X15377962Y-12945400D01*
X15377962Y-12945400D02*
X15358914Y-12954924D01*
X15358914Y-12954924D02*
X15311295Y-12954924D01*
X15311295Y-12954924D02*
X15292248Y-12945400D01*
X15292248Y-12945400D02*
X15282724Y-12935876D01*
X15568438Y-12754924D02*
X15530343Y-12754924D01*
X15530343Y-12754924D02*
X15511295Y-12764448D01*
X15511295Y-12764448D02*
X15501772Y-12773971D01*
X15501772Y-12773971D02*
X15482724Y-12802543D01*
X15482724Y-12802543D02*
X15473200Y-12840638D01*
X15473200Y-12840638D02*
X15473200Y-12916828D01*
X15473200Y-12916828D02*
X15482724Y-12935876D01*
X15482724Y-12935876D02*
X15492248Y-12945400D01*
X15492248Y-12945400D02*
X15511295Y-12954924D01*
X15511295Y-12954924D02*
X15549391Y-12954924D01*
X15549391Y-12954924D02*
X15568438Y-12945400D01*
X15568438Y-12945400D02*
X15577962Y-12935876D01*
X15577962Y-12935876D02*
X15587486Y-12916828D01*
X15587486Y-12916828D02*
X15587486Y-12869209D01*
X15587486Y-12869209D02*
X15577962Y-12850162D01*
X15577962Y-12850162D02*
X15568438Y-12840638D01*
X15568438Y-12840638D02*
X15549391Y-12831114D01*
X15549391Y-12831114D02*
X15511295Y-12831114D01*
X15511295Y-12831114D02*
X15492248Y-12840638D01*
X15492248Y-12840638D02*
X15482724Y-12850162D01*
X15482724Y-12850162D02*
X15473200Y-12869209D01*
X15663676Y-12754924D02*
X15663676Y-12793019D01*
X15739867Y-12754924D02*
X15739867Y-12793019D01*
X16035105Y-13031114D02*
X16025581Y-13021590D01*
X16025581Y-13021590D02*
X16006534Y-12993019D01*
X16006534Y-12993019D02*
X15997010Y-12973971D01*
X15997010Y-12973971D02*
X15987486Y-12945400D01*
X15987486Y-12945400D02*
X15977962Y-12897781D01*
X15977962Y-12897781D02*
X15977962Y-12859686D01*
X15977962Y-12859686D02*
X15987486Y-12812067D01*
X15987486Y-12812067D02*
X15997010Y-12783495D01*
X15997010Y-12783495D02*
X16006534Y-12764448D01*
X16006534Y-12764448D02*
X16025581Y-12735876D01*
X16025581Y-12735876D02*
X16035105Y-12726352D01*
X16101772Y-12773971D02*
X16111295Y-12764448D01*
X16111295Y-12764448D02*
X16130343Y-12754924D01*
X16130343Y-12754924D02*
X16177962Y-12754924D01*
X16177962Y-12754924D02*
X16197010Y-12764448D01*
X16197010Y-12764448D02*
X16206534Y-12773971D01*
X16206534Y-12773971D02*
X16216057Y-12793019D01*
X16216057Y-12793019D02*
X16216057Y-12812067D01*
X16216057Y-12812067D02*
X16206534Y-12840638D01*
X16206534Y-12840638D02*
X16092248Y-12954924D01*
X16092248Y-12954924D02*
X16216057Y-12954924D01*
X16454153Y-12954924D02*
X16454153Y-12754924D01*
X16539867Y-12954924D02*
X16539867Y-12850162D01*
X16539867Y-12850162D02*
X16530343Y-12831114D01*
X16530343Y-12831114D02*
X16511296Y-12821590D01*
X16511296Y-12821590D02*
X16482724Y-12821590D01*
X16482724Y-12821590D02*
X16463676Y-12831114D01*
X16463676Y-12831114D02*
X16454153Y-12840638D01*
X16663676Y-12954924D02*
X16644629Y-12945400D01*
X16644629Y-12945400D02*
X16635105Y-12935876D01*
X16635105Y-12935876D02*
X16625581Y-12916828D01*
X16625581Y-12916828D02*
X16625581Y-12859686D01*
X16625581Y-12859686D02*
X16635105Y-12840638D01*
X16635105Y-12840638D02*
X16644629Y-12831114D01*
X16644629Y-12831114D02*
X16663676Y-12821590D01*
X16663676Y-12821590D02*
X16692248Y-12821590D01*
X16692248Y-12821590D02*
X16711296Y-12831114D01*
X16711296Y-12831114D02*
X16720819Y-12840638D01*
X16720819Y-12840638D02*
X16730343Y-12859686D01*
X16730343Y-12859686D02*
X16730343Y-12916828D01*
X16730343Y-12916828D02*
X16720819Y-12935876D01*
X16720819Y-12935876D02*
X16711296Y-12945400D01*
X16711296Y-12945400D02*
X16692248Y-12954924D01*
X16692248Y-12954924D02*
X16663676Y-12954924D01*
X16844629Y-12954924D02*
X16825581Y-12945400D01*
X16825581Y-12945400D02*
X16816058Y-12926352D01*
X16816058Y-12926352D02*
X16816058Y-12754924D01*
X16997010Y-12945400D02*
X16977962Y-12954924D01*
X16977962Y-12954924D02*
X16939867Y-12954924D01*
X16939867Y-12954924D02*
X16920819Y-12945400D01*
X16920819Y-12945400D02*
X16911296Y-12926352D01*
X16911296Y-12926352D02*
X16911296Y-12850162D01*
X16911296Y-12850162D02*
X16920819Y-12831114D01*
X16920819Y-12831114D02*
X16939867Y-12821590D01*
X16939867Y-12821590D02*
X16977962Y-12821590D01*
X16977962Y-12821590D02*
X16997010Y-12831114D01*
X16997010Y-12831114D02*
X17006534Y-12850162D01*
X17006534Y-12850162D02*
X17006534Y-12869209D01*
X17006534Y-12869209D02*
X16911296Y-12888257D01*
X17082724Y-12945400D02*
X17101772Y-12954924D01*
X17101772Y-12954924D02*
X17139867Y-12954924D01*
X17139867Y-12954924D02*
X17158915Y-12945400D01*
X17158915Y-12945400D02*
X17168439Y-12926352D01*
X17168439Y-12926352D02*
X17168439Y-12916828D01*
X17168439Y-12916828D02*
X17158915Y-12897781D01*
X17158915Y-12897781D02*
X17139867Y-12888257D01*
X17139867Y-12888257D02*
X17111296Y-12888257D01*
X17111296Y-12888257D02*
X17092248Y-12878733D01*
X17092248Y-12878733D02*
X17082724Y-12859686D01*
X17082724Y-12859686D02*
X17082724Y-12850162D01*
X17082724Y-12850162D02*
X17092248Y-12831114D01*
X17092248Y-12831114D02*
X17111296Y-12821590D01*
X17111296Y-12821590D02*
X17139867Y-12821590D01*
X17139867Y-12821590D02*
X17158915Y-12831114D01*
X17235105Y-13031114D02*
X17244629Y-13021590D01*
X17244629Y-13021590D02*
X17263677Y-12993019D01*
X17263677Y-12993019D02*
X17273200Y-12973971D01*
X17273200Y-12973971D02*
X17282724Y-12945400D01*
X17282724Y-12945400D02*
X17292248Y-12897781D01*
X17292248Y-12897781D02*
X17292248Y-12859686D01*
X17292248Y-12859686D02*
X17282724Y-12812067D01*
X17282724Y-12812067D02*
X17273200Y-12783495D01*
X17273200Y-12783495D02*
X17263677Y-12764448D01*
X17263677Y-12764448D02*
X17244629Y-12735876D01*
X17244629Y-12735876D02*
X17235105Y-12726352D01*
X17597010Y-13031114D02*
X17587486Y-13021590D01*
X17587486Y-13021590D02*
X17568439Y-12993019D01*
X17568439Y-12993019D02*
X17558915Y-12973971D01*
X17558915Y-12973971D02*
X17549391Y-12945400D01*
X17549391Y-12945400D02*
X17539867Y-12897781D01*
X17539867Y-12897781D02*
X17539867Y-12859686D01*
X17539867Y-12859686D02*
X17549391Y-12812067D01*
X17549391Y-12812067D02*
X17558915Y-12783495D01*
X17558915Y-12783495D02*
X17568439Y-12764448D01*
X17568439Y-12764448D02*
X17587486Y-12735876D01*
X17587486Y-12735876D02*
X17597010Y-12726352D01*
X17673200Y-12821590D02*
X17673200Y-12954924D01*
X17673200Y-12840638D02*
X17682724Y-12831114D01*
X17682724Y-12831114D02*
X17701772Y-12821590D01*
X17701772Y-12821590D02*
X17730343Y-12821590D01*
X17730343Y-12821590D02*
X17749391Y-12831114D01*
X17749391Y-12831114D02*
X17758915Y-12850162D01*
X17758915Y-12850162D02*
X17758915Y-12954924D01*
X17882724Y-12954924D02*
X17863677Y-12945400D01*
X17863677Y-12945400D02*
X17854153Y-12935876D01*
X17854153Y-12935876D02*
X17844629Y-12916828D01*
X17844629Y-12916828D02*
X17844629Y-12859686D01*
X17844629Y-12859686D02*
X17854153Y-12840638D01*
X17854153Y-12840638D02*
X17863677Y-12831114D01*
X17863677Y-12831114D02*
X17882724Y-12821590D01*
X17882724Y-12821590D02*
X17911296Y-12821590D01*
X17911296Y-12821590D02*
X17930343Y-12831114D01*
X17930343Y-12831114D02*
X17939867Y-12840638D01*
X17939867Y-12840638D02*
X17949391Y-12859686D01*
X17949391Y-12859686D02*
X17949391Y-12916828D01*
X17949391Y-12916828D02*
X17939867Y-12935876D01*
X17939867Y-12935876D02*
X17930343Y-12945400D01*
X17930343Y-12945400D02*
X17911296Y-12954924D01*
X17911296Y-12954924D02*
X17882724Y-12954924D01*
X18006534Y-12821590D02*
X18082724Y-12821590D01*
X18035105Y-12754924D02*
X18035105Y-12926352D01*
X18035105Y-12926352D02*
X18044629Y-12945400D01*
X18044629Y-12945400D02*
X18063677Y-12954924D01*
X18063677Y-12954924D02*
X18082724Y-12954924D01*
X18301772Y-12821590D02*
X18301772Y-13021590D01*
X18301772Y-12831114D02*
X18320820Y-12821590D01*
X18320820Y-12821590D02*
X18358915Y-12821590D01*
X18358915Y-12821590D02*
X18377962Y-12831114D01*
X18377962Y-12831114D02*
X18387486Y-12840638D01*
X18387486Y-12840638D02*
X18397010Y-12859686D01*
X18397010Y-12859686D02*
X18397010Y-12916828D01*
X18397010Y-12916828D02*
X18387486Y-12935876D01*
X18387486Y-12935876D02*
X18377962Y-12945400D01*
X18377962Y-12945400D02*
X18358915Y-12954924D01*
X18358915Y-12954924D02*
X18320820Y-12954924D01*
X18320820Y-12954924D02*
X18301772Y-12945400D01*
X18511296Y-12954924D02*
X18492248Y-12945400D01*
X18492248Y-12945400D02*
X18482724Y-12926352D01*
X18482724Y-12926352D02*
X18482724Y-12754924D01*
X18673201Y-12954924D02*
X18673201Y-12850162D01*
X18673201Y-12850162D02*
X18663677Y-12831114D01*
X18663677Y-12831114D02*
X18644629Y-12821590D01*
X18644629Y-12821590D02*
X18606534Y-12821590D01*
X18606534Y-12821590D02*
X18587486Y-12831114D01*
X18673201Y-12945400D02*
X18654153Y-12954924D01*
X18654153Y-12954924D02*
X18606534Y-12954924D01*
X18606534Y-12954924D02*
X18587486Y-12945400D01*
X18587486Y-12945400D02*
X18577962Y-12926352D01*
X18577962Y-12926352D02*
X18577962Y-12907305D01*
X18577962Y-12907305D02*
X18587486Y-12888257D01*
X18587486Y-12888257D02*
X18606534Y-12878733D01*
X18606534Y-12878733D02*
X18654153Y-12878733D01*
X18654153Y-12878733D02*
X18673201Y-12869209D01*
X18739867Y-12821590D02*
X18816058Y-12821590D01*
X18768439Y-12754924D02*
X18768439Y-12926352D01*
X18768439Y-12926352D02*
X18777962Y-12945400D01*
X18777962Y-12945400D02*
X18797010Y-12954924D01*
X18797010Y-12954924D02*
X18816058Y-12954924D01*
X18958915Y-12945400D02*
X18939867Y-12954924D01*
X18939867Y-12954924D02*
X18901772Y-12954924D01*
X18901772Y-12954924D02*
X18882724Y-12945400D01*
X18882724Y-12945400D02*
X18873201Y-12926352D01*
X18873201Y-12926352D02*
X18873201Y-12850162D01*
X18873201Y-12850162D02*
X18882724Y-12831114D01*
X18882724Y-12831114D02*
X18901772Y-12821590D01*
X18901772Y-12821590D02*
X18939867Y-12821590D01*
X18939867Y-12821590D02*
X18958915Y-12831114D01*
X18958915Y-12831114D02*
X18968439Y-12850162D01*
X18968439Y-12850162D02*
X18968439Y-12869209D01*
X18968439Y-12869209D02*
X18873201Y-12888257D01*
X19139867Y-12954924D02*
X19139867Y-12754924D01*
X19139867Y-12945400D02*
X19120820Y-12954924D01*
X19120820Y-12954924D02*
X19082724Y-12954924D01*
X19082724Y-12954924D02*
X19063677Y-12945400D01*
X19063677Y-12945400D02*
X19054153Y-12935876D01*
X19054153Y-12935876D02*
X19044629Y-12916828D01*
X19044629Y-12916828D02*
X19044629Y-12859686D01*
X19044629Y-12859686D02*
X19054153Y-12840638D01*
X19054153Y-12840638D02*
X19063677Y-12831114D01*
X19063677Y-12831114D02*
X19082724Y-12821590D01*
X19082724Y-12821590D02*
X19120820Y-12821590D01*
X19120820Y-12821590D02*
X19139867Y-12831114D01*
X19216058Y-13031114D02*
X19225582Y-13021590D01*
X19225582Y-13021590D02*
X19244629Y-12993019D01*
X19244629Y-12993019D02*
X19254153Y-12973971D01*
X19254153Y-12973971D02*
X19263677Y-12945400D01*
X19263677Y-12945400D02*
X19273201Y-12897781D01*
X19273201Y-12897781D02*
X19273201Y-12859686D01*
X19273201Y-12859686D02*
X19263677Y-12812067D01*
X19263677Y-12812067D02*
X19254153Y-12783495D01*
X19254153Y-12783495D02*
X19244629Y-12764448D01*
X19244629Y-12764448D02*
X19225582Y-12735876D01*
X19225582Y-12735876D02*
X19216058Y-12726352D01*
M02*
