%TF.GenerationSoftware,KiCad,Pcbnew,7.0.1-3b83917a11~172~ubuntu22.04.1*%
%TF.CreationDate,2023-04-18T10:01:55+02:00*%
%TF.ProjectId,part2,70617274-322e-46b6-9963-61645f706362,rev?*%
%TF.SameCoordinates,Original*%
%TF.FileFunction,Legend,Bot*%
%TF.FilePolarity,Positive*%
%FSLAX46Y46*%
G04 Gerber Fmt 4.6, Leading zero omitted, Abs format (unit mm)*
G04 Created by KiCad (PCBNEW 7.0.1-3b83917a11~172~ubuntu22.04.1) date 2023-04-18 10:01:55*
%MOMM*%
%LPD*%
G01*
G04 APERTURE LIST*
G04 Aperture macros list*
%AMRoundRect*
0 Rectangle with rounded corners*
0 $1 Rounding radius*
0 $2 $3 $4 $5 $6 $7 $8 $9 X,Y pos of 4 corners*
0 Add a 4 corners polygon primitive as box body*
4,1,4,$2,$3,$4,$5,$6,$7,$8,$9,$2,$3,0*
0 Add four circle primitives for the rounded corners*
1,1,$1+$1,$2,$3*
1,1,$1+$1,$4,$5*
1,1,$1+$1,$6,$7*
1,1,$1+$1,$8,$9*
0 Add four rect primitives between the rounded corners*
20,1,$1+$1,$2,$3,$4,$5,0*
20,1,$1+$1,$4,$5,$6,$7,0*
20,1,$1+$1,$6,$7,$8,$9,0*
20,1,$1+$1,$8,$9,$2,$3,0*%
G04 Aperture macros list end*
%ADD10C,0.200000*%
%ADD11C,0.150000*%
%ADD12C,0.120000*%
%ADD13R,4.000000X2.400000*%
%ADD14R,1.700000X1.700000*%
%ADD15O,1.700000X1.700000*%
%ADD16RoundRect,0.250001X0.462499X0.624999X-0.462499X0.624999X-0.462499X-0.624999X0.462499X-0.624999X0*%
%ADD17C,0.650000*%
%ADD18O,2.100000X1.000000*%
%ADD19O,1.800000X1.000000*%
G04 APERTURE END LIST*
D10*
X153550428Y-105717285D02*
X152979000Y-105717285D01*
X153664714Y-106060142D02*
X153264714Y-104860142D01*
X153264714Y-104860142D02*
X152864714Y-106060142D01*
X151950429Y-106003000D02*
X152064714Y-106060142D01*
X152064714Y-106060142D02*
X152293286Y-106060142D01*
X152293286Y-106060142D02*
X152407571Y-106003000D01*
X152407571Y-106003000D02*
X152464714Y-105945857D01*
X152464714Y-105945857D02*
X152521857Y-105831571D01*
X152521857Y-105831571D02*
X152521857Y-105488714D01*
X152521857Y-105488714D02*
X152464714Y-105374428D01*
X152464714Y-105374428D02*
X152407571Y-105317285D01*
X152407571Y-105317285D02*
X152293286Y-105260142D01*
X152293286Y-105260142D02*
X152064714Y-105260142D01*
X152064714Y-105260142D02*
X151950429Y-105317285D01*
X151264715Y-106060142D02*
X151379000Y-106003000D01*
X151379000Y-106003000D02*
X151436143Y-105945857D01*
X151436143Y-105945857D02*
X151493286Y-105831571D01*
X151493286Y-105831571D02*
X151493286Y-105488714D01*
X151493286Y-105488714D02*
X151436143Y-105374428D01*
X151436143Y-105374428D02*
X151379000Y-105317285D01*
X151379000Y-105317285D02*
X151264715Y-105260142D01*
X151264715Y-105260142D02*
X151093286Y-105260142D01*
X151093286Y-105260142D02*
X150979000Y-105317285D01*
X150979000Y-105317285D02*
X150921858Y-105374428D01*
X150921858Y-105374428D02*
X150864715Y-105488714D01*
X150864715Y-105488714D02*
X150864715Y-105831571D01*
X150864715Y-105831571D02*
X150921858Y-105945857D01*
X150921858Y-105945857D02*
X150979000Y-106003000D01*
X150979000Y-106003000D02*
X151093286Y-106060142D01*
X151093286Y-106060142D02*
X151264715Y-106060142D01*
X149836144Y-105260142D02*
X149836144Y-106060142D01*
X150350429Y-105260142D02*
X150350429Y-105888714D01*
X150350429Y-105888714D02*
X150293286Y-106003000D01*
X150293286Y-106003000D02*
X150179001Y-106060142D01*
X150179001Y-106060142D02*
X150007572Y-106060142D01*
X150007572Y-106060142D02*
X149893286Y-106003000D01*
X149893286Y-106003000D02*
X149836144Y-105945857D01*
X149321858Y-106003000D02*
X149207572Y-106060142D01*
X149207572Y-106060142D02*
X148979001Y-106060142D01*
X148979001Y-106060142D02*
X148864715Y-106003000D01*
X148864715Y-106003000D02*
X148807572Y-105888714D01*
X148807572Y-105888714D02*
X148807572Y-105831571D01*
X148807572Y-105831571D02*
X148864715Y-105717285D01*
X148864715Y-105717285D02*
X148979001Y-105660142D01*
X148979001Y-105660142D02*
X149150430Y-105660142D01*
X149150430Y-105660142D02*
X149264715Y-105603000D01*
X149264715Y-105603000D02*
X149321858Y-105488714D01*
X149321858Y-105488714D02*
X149321858Y-105431571D01*
X149321858Y-105431571D02*
X149264715Y-105317285D01*
X149264715Y-105317285D02*
X149150430Y-105260142D01*
X149150430Y-105260142D02*
X148979001Y-105260142D01*
X148979001Y-105260142D02*
X148864715Y-105317285D01*
X148464715Y-105260142D02*
X148007572Y-105260142D01*
X148293286Y-104860142D02*
X148293286Y-105888714D01*
X148293286Y-105888714D02*
X148236143Y-106003000D01*
X148236143Y-106003000D02*
X148121858Y-106060142D01*
X148121858Y-106060142D02*
X148007572Y-106060142D01*
X147607572Y-106060142D02*
X147607572Y-105260142D01*
X147607572Y-104860142D02*
X147664715Y-104917285D01*
X147664715Y-104917285D02*
X147607572Y-104974428D01*
X147607572Y-104974428D02*
X147550429Y-104917285D01*
X147550429Y-104917285D02*
X147607572Y-104860142D01*
X147607572Y-104860142D02*
X147607572Y-104974428D01*
X146521858Y-106003000D02*
X146636143Y-106060142D01*
X146636143Y-106060142D02*
X146864715Y-106060142D01*
X146864715Y-106060142D02*
X146979000Y-106003000D01*
X146979000Y-106003000D02*
X147036143Y-105945857D01*
X147036143Y-105945857D02*
X147093286Y-105831571D01*
X147093286Y-105831571D02*
X147093286Y-105488714D01*
X147093286Y-105488714D02*
X147036143Y-105374428D01*
X147036143Y-105374428D02*
X146979000Y-105317285D01*
X146979000Y-105317285D02*
X146864715Y-105260142D01*
X146864715Y-105260142D02*
X146636143Y-105260142D01*
X146636143Y-105260142D02*
X146521858Y-105317285D01*
X145093286Y-106060142D02*
X145093286Y-104860142D01*
X145093286Y-104860142D02*
X144807572Y-104860142D01*
X144807572Y-104860142D02*
X144636143Y-104917285D01*
X144636143Y-104917285D02*
X144521858Y-105031571D01*
X144521858Y-105031571D02*
X144464715Y-105145857D01*
X144464715Y-105145857D02*
X144407572Y-105374428D01*
X144407572Y-105374428D02*
X144407572Y-105545857D01*
X144407572Y-105545857D02*
X144464715Y-105774428D01*
X144464715Y-105774428D02*
X144521858Y-105888714D01*
X144521858Y-105888714D02*
X144636143Y-106003000D01*
X144636143Y-106003000D02*
X144807572Y-106060142D01*
X144807572Y-106060142D02*
X145093286Y-106060142D01*
X143436143Y-106003000D02*
X143550429Y-106060142D01*
X143550429Y-106060142D02*
X143779001Y-106060142D01*
X143779001Y-106060142D02*
X143893286Y-106003000D01*
X143893286Y-106003000D02*
X143950429Y-105888714D01*
X143950429Y-105888714D02*
X143950429Y-105431571D01*
X143950429Y-105431571D02*
X143893286Y-105317285D01*
X143893286Y-105317285D02*
X143779001Y-105260142D01*
X143779001Y-105260142D02*
X143550429Y-105260142D01*
X143550429Y-105260142D02*
X143436143Y-105317285D01*
X143436143Y-105317285D02*
X143379001Y-105431571D01*
X143379001Y-105431571D02*
X143379001Y-105545857D01*
X143379001Y-105545857D02*
X143950429Y-105660142D01*
X143036144Y-105260142D02*
X142579001Y-105260142D01*
X142864715Y-104860142D02*
X142864715Y-105888714D01*
X142864715Y-105888714D02*
X142807572Y-106003000D01*
X142807572Y-106003000D02*
X142693287Y-106060142D01*
X142693287Y-106060142D02*
X142579001Y-106060142D01*
X141721858Y-106003000D02*
X141836144Y-106060142D01*
X141836144Y-106060142D02*
X142064716Y-106060142D01*
X142064716Y-106060142D02*
X142179001Y-106003000D01*
X142179001Y-106003000D02*
X142236144Y-105888714D01*
X142236144Y-105888714D02*
X142236144Y-105431571D01*
X142236144Y-105431571D02*
X142179001Y-105317285D01*
X142179001Y-105317285D02*
X142064716Y-105260142D01*
X142064716Y-105260142D02*
X141836144Y-105260142D01*
X141836144Y-105260142D02*
X141721858Y-105317285D01*
X141721858Y-105317285D02*
X141664716Y-105431571D01*
X141664716Y-105431571D02*
X141664716Y-105545857D01*
X141664716Y-105545857D02*
X142236144Y-105660142D01*
X140636145Y-106003000D02*
X140750430Y-106060142D01*
X140750430Y-106060142D02*
X140979002Y-106060142D01*
X140979002Y-106060142D02*
X141093287Y-106003000D01*
X141093287Y-106003000D02*
X141150430Y-105945857D01*
X141150430Y-105945857D02*
X141207573Y-105831571D01*
X141207573Y-105831571D02*
X141207573Y-105488714D01*
X141207573Y-105488714D02*
X141150430Y-105374428D01*
X141150430Y-105374428D02*
X141093287Y-105317285D01*
X141093287Y-105317285D02*
X140979002Y-105260142D01*
X140979002Y-105260142D02*
X140750430Y-105260142D01*
X140750430Y-105260142D02*
X140636145Y-105317285D01*
X140293288Y-105260142D02*
X139836145Y-105260142D01*
X140121859Y-104860142D02*
X140121859Y-105888714D01*
X140121859Y-105888714D02*
X140064716Y-106003000D01*
X140064716Y-106003000D02*
X139950431Y-106060142D01*
X139950431Y-106060142D02*
X139836145Y-106060142D01*
X139436145Y-106060142D02*
X139436145Y-105260142D01*
X139436145Y-104860142D02*
X139493288Y-104917285D01*
X139493288Y-104917285D02*
X139436145Y-104974428D01*
X139436145Y-104974428D02*
X139379002Y-104917285D01*
X139379002Y-104917285D02*
X139436145Y-104860142D01*
X139436145Y-104860142D02*
X139436145Y-104974428D01*
X138693288Y-106060142D02*
X138807573Y-106003000D01*
X138807573Y-106003000D02*
X138864716Y-105945857D01*
X138864716Y-105945857D02*
X138921859Y-105831571D01*
X138921859Y-105831571D02*
X138921859Y-105488714D01*
X138921859Y-105488714D02*
X138864716Y-105374428D01*
X138864716Y-105374428D02*
X138807573Y-105317285D01*
X138807573Y-105317285D02*
X138693288Y-105260142D01*
X138693288Y-105260142D02*
X138521859Y-105260142D01*
X138521859Y-105260142D02*
X138407573Y-105317285D01*
X138407573Y-105317285D02*
X138350431Y-105374428D01*
X138350431Y-105374428D02*
X138293288Y-105488714D01*
X138293288Y-105488714D02*
X138293288Y-105831571D01*
X138293288Y-105831571D02*
X138350431Y-105945857D01*
X138350431Y-105945857D02*
X138407573Y-106003000D01*
X138407573Y-106003000D02*
X138521859Y-106060142D01*
X138521859Y-106060142D02*
X138693288Y-106060142D01*
X137779002Y-105260142D02*
X137779002Y-106060142D01*
X137779002Y-105374428D02*
X137721859Y-105317285D01*
X137721859Y-105317285D02*
X137607574Y-105260142D01*
X137607574Y-105260142D02*
X137436145Y-105260142D01*
X137436145Y-105260142D02*
X137321859Y-105317285D01*
X137321859Y-105317285D02*
X137264717Y-105431571D01*
X137264717Y-105431571D02*
X137264717Y-106060142D01*
X135893288Y-105260142D02*
X135607574Y-106060142D01*
X135607574Y-106060142D02*
X135321859Y-105260142D01*
X134236145Y-106060142D02*
X134921859Y-106060142D01*
X134579002Y-106060142D02*
X134579002Y-104860142D01*
X134579002Y-104860142D02*
X134693288Y-105031571D01*
X134693288Y-105031571D02*
X134807573Y-105145857D01*
X134807573Y-105145857D02*
X134921859Y-105203000D01*
X133721859Y-105945857D02*
X133664716Y-106003000D01*
X133664716Y-106003000D02*
X133721859Y-106060142D01*
X133721859Y-106060142D02*
X133779002Y-106003000D01*
X133779002Y-106003000D02*
X133721859Y-105945857D01*
X133721859Y-105945857D02*
X133721859Y-106060142D01*
X132921859Y-104860142D02*
X132807573Y-104860142D01*
X132807573Y-104860142D02*
X132693287Y-104917285D01*
X132693287Y-104917285D02*
X132636145Y-104974428D01*
X132636145Y-104974428D02*
X132579002Y-105088714D01*
X132579002Y-105088714D02*
X132521859Y-105317285D01*
X132521859Y-105317285D02*
X132521859Y-105603000D01*
X132521859Y-105603000D02*
X132579002Y-105831571D01*
X132579002Y-105831571D02*
X132636145Y-105945857D01*
X132636145Y-105945857D02*
X132693287Y-106003000D01*
X132693287Y-106003000D02*
X132807573Y-106060142D01*
X132807573Y-106060142D02*
X132921859Y-106060142D01*
X132921859Y-106060142D02*
X133036145Y-106003000D01*
X133036145Y-106003000D02*
X133093287Y-105945857D01*
X133093287Y-105945857D02*
X133150430Y-105831571D01*
X133150430Y-105831571D02*
X133207573Y-105603000D01*
X133207573Y-105603000D02*
X133207573Y-105317285D01*
X133207573Y-105317285D02*
X133150430Y-105088714D01*
X133150430Y-105088714D02*
X133093287Y-104974428D01*
X133093287Y-104974428D02*
X133036145Y-104917285D01*
X133036145Y-104917285D02*
X132921859Y-104860142D01*
X153493285Y-108004142D02*
X153493285Y-106804142D01*
X153493285Y-106804142D02*
X153093285Y-107661285D01*
X153093285Y-107661285D02*
X152693285Y-106804142D01*
X152693285Y-106804142D02*
X152693285Y-108004142D01*
X151607571Y-108004142D02*
X151607571Y-107375571D01*
X151607571Y-107375571D02*
X151664713Y-107261285D01*
X151664713Y-107261285D02*
X151778999Y-107204142D01*
X151778999Y-107204142D02*
X152007571Y-107204142D01*
X152007571Y-107204142D02*
X152121856Y-107261285D01*
X151607571Y-107947000D02*
X151721856Y-108004142D01*
X151721856Y-108004142D02*
X152007571Y-108004142D01*
X152007571Y-108004142D02*
X152121856Y-107947000D01*
X152121856Y-107947000D02*
X152178999Y-107832714D01*
X152178999Y-107832714D02*
X152178999Y-107718428D01*
X152178999Y-107718428D02*
X152121856Y-107604142D01*
X152121856Y-107604142D02*
X152007571Y-107547000D01*
X152007571Y-107547000D02*
X151721856Y-107547000D01*
X151721856Y-107547000D02*
X151607571Y-107489857D01*
X151207571Y-107204142D02*
X150750428Y-107204142D01*
X151036142Y-106804142D02*
X151036142Y-107832714D01*
X151036142Y-107832714D02*
X150978999Y-107947000D01*
X150978999Y-107947000D02*
X150864714Y-108004142D01*
X150864714Y-108004142D02*
X150750428Y-108004142D01*
X149893285Y-107947000D02*
X150007571Y-108004142D01*
X150007571Y-108004142D02*
X150236143Y-108004142D01*
X150236143Y-108004142D02*
X150350428Y-107947000D01*
X150350428Y-107947000D02*
X150407571Y-107832714D01*
X150407571Y-107832714D02*
X150407571Y-107375571D01*
X150407571Y-107375571D02*
X150350428Y-107261285D01*
X150350428Y-107261285D02*
X150236143Y-107204142D01*
X150236143Y-107204142D02*
X150007571Y-107204142D01*
X150007571Y-107204142D02*
X149893285Y-107261285D01*
X149893285Y-107261285D02*
X149836143Y-107375571D01*
X149836143Y-107375571D02*
X149836143Y-107489857D01*
X149836143Y-107489857D02*
X150407571Y-107604142D01*
X150350428Y-106747000D02*
X150121857Y-106918428D01*
X150121857Y-106918428D02*
X149893285Y-106747000D01*
X149321857Y-107204142D02*
X149321857Y-108232714D01*
X149321857Y-108232714D02*
X149379000Y-108347000D01*
X149379000Y-108347000D02*
X149493286Y-108404142D01*
X149493286Y-108404142D02*
X149550429Y-108404142D01*
X149321857Y-106804142D02*
X149379000Y-106861285D01*
X149379000Y-106861285D02*
X149321857Y-106918428D01*
X149321857Y-106918428D02*
X149264714Y-106861285D01*
X149264714Y-106861285D02*
X149321857Y-106804142D01*
X149321857Y-106804142D02*
X149321857Y-106918428D01*
X148007571Y-106804142D02*
X147321857Y-106804142D01*
X147664714Y-108004142D02*
X147664714Y-106804142D01*
X146921856Y-108004142D02*
X146921856Y-107204142D01*
X146921856Y-107432714D02*
X146864713Y-107318428D01*
X146864713Y-107318428D02*
X146807571Y-107261285D01*
X146807571Y-107261285D02*
X146693285Y-107204142D01*
X146693285Y-107204142D02*
X146578999Y-107204142D01*
X146178999Y-107204142D02*
X146178999Y-108004142D01*
X146178999Y-107318428D02*
X146121856Y-107261285D01*
X146121856Y-107261285D02*
X146007571Y-107204142D01*
X146007571Y-107204142D02*
X145836142Y-107204142D01*
X145836142Y-107204142D02*
X145721856Y-107261285D01*
X145721856Y-107261285D02*
X145664714Y-107375571D01*
X145664714Y-107375571D02*
X145664714Y-108004142D01*
X145093285Y-108004142D02*
X145093285Y-106804142D01*
X144979000Y-107547000D02*
X144636142Y-108004142D01*
X144636142Y-107204142D02*
X145093285Y-107661285D01*
X143607571Y-108004142D02*
X143607571Y-107375571D01*
X143607571Y-107375571D02*
X143664713Y-107261285D01*
X143664713Y-107261285D02*
X143778999Y-107204142D01*
X143778999Y-107204142D02*
X144007571Y-107204142D01*
X144007571Y-107204142D02*
X144121856Y-107261285D01*
X143607571Y-107947000D02*
X143721856Y-108004142D01*
X143721856Y-108004142D02*
X144007571Y-108004142D01*
X144007571Y-108004142D02*
X144121856Y-107947000D01*
X144121856Y-107947000D02*
X144178999Y-107832714D01*
X144178999Y-107832714D02*
X144178999Y-107718428D01*
X144178999Y-107718428D02*
X144121856Y-107604142D01*
X144121856Y-107604142D02*
X144007571Y-107547000D01*
X144007571Y-107547000D02*
X143721856Y-107547000D01*
X143721856Y-107547000D02*
X143607571Y-107489857D01*
X141607571Y-107204142D02*
X141607571Y-108004142D01*
X141893285Y-106747000D02*
X142178999Y-107604142D01*
X142178999Y-107604142D02*
X141436142Y-107604142D01*
X140121856Y-106747000D02*
X141150428Y-108289857D01*
X139778999Y-106918428D02*
X139721856Y-106861285D01*
X139721856Y-106861285D02*
X139607571Y-106804142D01*
X139607571Y-106804142D02*
X139321856Y-106804142D01*
X139321856Y-106804142D02*
X139207571Y-106861285D01*
X139207571Y-106861285D02*
X139150428Y-106918428D01*
X139150428Y-106918428D02*
X139093285Y-107032714D01*
X139093285Y-107032714D02*
X139093285Y-107147000D01*
X139093285Y-107147000D02*
X139150428Y-107318428D01*
X139150428Y-107318428D02*
X139836142Y-108004142D01*
X139836142Y-108004142D02*
X139093285Y-108004142D01*
X138350428Y-106804142D02*
X138236142Y-106804142D01*
X138236142Y-106804142D02*
X138121856Y-106861285D01*
X138121856Y-106861285D02*
X138064714Y-106918428D01*
X138064714Y-106918428D02*
X138007571Y-107032714D01*
X138007571Y-107032714D02*
X137950428Y-107261285D01*
X137950428Y-107261285D02*
X137950428Y-107547000D01*
X137950428Y-107547000D02*
X138007571Y-107775571D01*
X138007571Y-107775571D02*
X138064714Y-107889857D01*
X138064714Y-107889857D02*
X138121856Y-107947000D01*
X138121856Y-107947000D02*
X138236142Y-108004142D01*
X138236142Y-108004142D02*
X138350428Y-108004142D01*
X138350428Y-108004142D02*
X138464714Y-107947000D01*
X138464714Y-107947000D02*
X138521856Y-107889857D01*
X138521856Y-107889857D02*
X138578999Y-107775571D01*
X138578999Y-107775571D02*
X138636142Y-107547000D01*
X138636142Y-107547000D02*
X138636142Y-107261285D01*
X138636142Y-107261285D02*
X138578999Y-107032714D01*
X138578999Y-107032714D02*
X138521856Y-106918428D01*
X138521856Y-106918428D02*
X138464714Y-106861285D01*
X138464714Y-106861285D02*
X138350428Y-106804142D01*
X137493285Y-106918428D02*
X137436142Y-106861285D01*
X137436142Y-106861285D02*
X137321857Y-106804142D01*
X137321857Y-106804142D02*
X137036142Y-106804142D01*
X137036142Y-106804142D02*
X136921857Y-106861285D01*
X136921857Y-106861285D02*
X136864714Y-106918428D01*
X136864714Y-106918428D02*
X136807571Y-107032714D01*
X136807571Y-107032714D02*
X136807571Y-107147000D01*
X136807571Y-107147000D02*
X136864714Y-107318428D01*
X136864714Y-107318428D02*
X137550428Y-108004142D01*
X137550428Y-108004142D02*
X136807571Y-108004142D01*
X136407571Y-106804142D02*
X135664714Y-106804142D01*
X135664714Y-106804142D02*
X136064714Y-107261285D01*
X136064714Y-107261285D02*
X135893285Y-107261285D01*
X135893285Y-107261285D02*
X135779000Y-107318428D01*
X135779000Y-107318428D02*
X135721857Y-107375571D01*
X135721857Y-107375571D02*
X135664714Y-107489857D01*
X135664714Y-107489857D02*
X135664714Y-107775571D01*
X135664714Y-107775571D02*
X135721857Y-107889857D01*
X135721857Y-107889857D02*
X135779000Y-107947000D01*
X135779000Y-107947000D02*
X135893285Y-108004142D01*
X135893285Y-108004142D02*
X136236142Y-108004142D01*
X136236142Y-108004142D02*
X136350428Y-107947000D01*
X136350428Y-107947000D02*
X136407571Y-107889857D01*
D11*
X130878000Y-103828000D02*
X154754000Y-103828000D01*
X154754000Y-109162000D01*
X130878000Y-109162000D01*
X130878000Y-103828000D01*
%TO.C,J5*%
X156024095Y-82441238D02*
X156119333Y-82393619D01*
X156119333Y-82393619D02*
X156262190Y-82393619D01*
X156262190Y-82393619D02*
X156405047Y-82441238D01*
X156405047Y-82441238D02*
X156500285Y-82536476D01*
X156500285Y-82536476D02*
X156547904Y-82631714D01*
X156547904Y-82631714D02*
X156595523Y-82822190D01*
X156595523Y-82822190D02*
X156595523Y-82965047D01*
X156595523Y-82965047D02*
X156547904Y-83155523D01*
X156547904Y-83155523D02*
X156500285Y-83250761D01*
X156500285Y-83250761D02*
X156405047Y-83346000D01*
X156405047Y-83346000D02*
X156262190Y-83393619D01*
X156262190Y-83393619D02*
X156166952Y-83393619D01*
X156166952Y-83393619D02*
X156024095Y-83346000D01*
X156024095Y-83346000D02*
X155976476Y-83298380D01*
X155976476Y-83298380D02*
X155976476Y-82965047D01*
X155976476Y-82965047D02*
X156166952Y-82965047D01*
X155547904Y-83393619D02*
X155547904Y-82393619D01*
X155547904Y-82393619D02*
X154976476Y-83393619D01*
X154976476Y-83393619D02*
X154976476Y-82393619D01*
X154500285Y-83393619D02*
X154500285Y-82393619D01*
X154500285Y-82393619D02*
X154262190Y-82393619D01*
X154262190Y-82393619D02*
X154119333Y-82441238D01*
X154119333Y-82441238D02*
X154024095Y-82536476D01*
X154024095Y-82536476D02*
X153976476Y-82631714D01*
X153976476Y-82631714D02*
X153928857Y-82822190D01*
X153928857Y-82822190D02*
X153928857Y-82965047D01*
X153928857Y-82965047D02*
X153976476Y-83155523D01*
X153976476Y-83155523D02*
X154024095Y-83250761D01*
X154024095Y-83250761D02*
X154119333Y-83346000D01*
X154119333Y-83346000D02*
X154262190Y-83393619D01*
X154262190Y-83393619D02*
X154500285Y-83393619D01*
X156643142Y-79083619D02*
X156024095Y-79083619D01*
X156024095Y-79083619D02*
X156357428Y-79464571D01*
X156357428Y-79464571D02*
X156214571Y-79464571D01*
X156214571Y-79464571D02*
X156119333Y-79512190D01*
X156119333Y-79512190D02*
X156071714Y-79559809D01*
X156071714Y-79559809D02*
X156024095Y-79655047D01*
X156024095Y-79655047D02*
X156024095Y-79893142D01*
X156024095Y-79893142D02*
X156071714Y-79988380D01*
X156071714Y-79988380D02*
X156119333Y-80036000D01*
X156119333Y-80036000D02*
X156214571Y-80083619D01*
X156214571Y-80083619D02*
X156500285Y-80083619D01*
X156500285Y-80083619D02*
X156595523Y-80036000D01*
X156595523Y-80036000D02*
X156643142Y-79988380D01*
X155738380Y-79083619D02*
X155405047Y-80083619D01*
X155405047Y-80083619D02*
X155071714Y-79083619D01*
X154833618Y-79083619D02*
X154214571Y-79083619D01*
X154214571Y-79083619D02*
X154547904Y-79464571D01*
X154547904Y-79464571D02*
X154405047Y-79464571D01*
X154405047Y-79464571D02*
X154309809Y-79512190D01*
X154309809Y-79512190D02*
X154262190Y-79559809D01*
X154262190Y-79559809D02*
X154214571Y-79655047D01*
X154214571Y-79655047D02*
X154214571Y-79893142D01*
X154214571Y-79893142D02*
X154262190Y-79988380D01*
X154262190Y-79988380D02*
X154309809Y-80036000D01*
X154309809Y-80036000D02*
X154405047Y-80083619D01*
X154405047Y-80083619D02*
X154690761Y-80083619D01*
X154690761Y-80083619D02*
X154785999Y-80036000D01*
X154785999Y-80036000D02*
X154833618Y-79988380D01*
%TO.C,D1*%
X147110094Y-92352619D02*
X147110094Y-91352619D01*
X147110094Y-91352619D02*
X146871999Y-91352619D01*
X146871999Y-91352619D02*
X146729142Y-91400238D01*
X146729142Y-91400238D02*
X146633904Y-91495476D01*
X146633904Y-91495476D02*
X146586285Y-91590714D01*
X146586285Y-91590714D02*
X146538666Y-91781190D01*
X146538666Y-91781190D02*
X146538666Y-91924047D01*
X146538666Y-91924047D02*
X146586285Y-92114523D01*
X146586285Y-92114523D02*
X146633904Y-92209761D01*
X146633904Y-92209761D02*
X146729142Y-92305000D01*
X146729142Y-92305000D02*
X146871999Y-92352619D01*
X146871999Y-92352619D02*
X147110094Y-92352619D01*
X145586285Y-92352619D02*
X146157713Y-92352619D01*
X145871999Y-92352619D02*
X145871999Y-91352619D01*
X145871999Y-91352619D02*
X145967237Y-91495476D01*
X145967237Y-91495476D02*
X146062475Y-91590714D01*
X146062475Y-91590714D02*
X146157713Y-91638333D01*
%TO.C,J9*%
X131465428Y-79083619D02*
X130846381Y-79083619D01*
X130846381Y-79083619D02*
X131179714Y-79464571D01*
X131179714Y-79464571D02*
X131036857Y-79464571D01*
X131036857Y-79464571D02*
X130941619Y-79512190D01*
X130941619Y-79512190D02*
X130894000Y-79559809D01*
X130894000Y-79559809D02*
X130846381Y-79655047D01*
X130846381Y-79655047D02*
X130846381Y-79893142D01*
X130846381Y-79893142D02*
X130894000Y-79988380D01*
X130894000Y-79988380D02*
X130941619Y-80036000D01*
X130941619Y-80036000D02*
X131036857Y-80083619D01*
X131036857Y-80083619D02*
X131322571Y-80083619D01*
X131322571Y-80083619D02*
X131417809Y-80036000D01*
X131417809Y-80036000D02*
X131465428Y-79988380D01*
X130560666Y-79083619D02*
X130227333Y-80083619D01*
X130227333Y-80083619D02*
X129894000Y-79083619D01*
X129655904Y-79083619D02*
X129036857Y-79083619D01*
X129036857Y-79083619D02*
X129370190Y-79464571D01*
X129370190Y-79464571D02*
X129227333Y-79464571D01*
X129227333Y-79464571D02*
X129132095Y-79512190D01*
X129132095Y-79512190D02*
X129084476Y-79559809D01*
X129084476Y-79559809D02*
X129036857Y-79655047D01*
X129036857Y-79655047D02*
X129036857Y-79893142D01*
X129036857Y-79893142D02*
X129084476Y-79988380D01*
X129084476Y-79988380D02*
X129132095Y-80036000D01*
X129132095Y-80036000D02*
X129227333Y-80083619D01*
X129227333Y-80083619D02*
X129513047Y-80083619D01*
X129513047Y-80083619D02*
X129608285Y-80036000D01*
X129608285Y-80036000D02*
X129655904Y-79988380D01*
X131132095Y-82441238D02*
X131227333Y-82393619D01*
X131227333Y-82393619D02*
X131370190Y-82393619D01*
X131370190Y-82393619D02*
X131513047Y-82441238D01*
X131513047Y-82441238D02*
X131608285Y-82536476D01*
X131608285Y-82536476D02*
X131655904Y-82631714D01*
X131655904Y-82631714D02*
X131703523Y-82822190D01*
X131703523Y-82822190D02*
X131703523Y-82965047D01*
X131703523Y-82965047D02*
X131655904Y-83155523D01*
X131655904Y-83155523D02*
X131608285Y-83250761D01*
X131608285Y-83250761D02*
X131513047Y-83346000D01*
X131513047Y-83346000D02*
X131370190Y-83393619D01*
X131370190Y-83393619D02*
X131274952Y-83393619D01*
X131274952Y-83393619D02*
X131132095Y-83346000D01*
X131132095Y-83346000D02*
X131084476Y-83298380D01*
X131084476Y-83298380D02*
X131084476Y-82965047D01*
X131084476Y-82965047D02*
X131274952Y-82965047D01*
X130655904Y-83393619D02*
X130655904Y-82393619D01*
X130655904Y-82393619D02*
X130084476Y-83393619D01*
X130084476Y-83393619D02*
X130084476Y-82393619D01*
X129608285Y-83393619D02*
X129608285Y-82393619D01*
X129608285Y-82393619D02*
X129370190Y-82393619D01*
X129370190Y-82393619D02*
X129227333Y-82441238D01*
X129227333Y-82441238D02*
X129132095Y-82536476D01*
X129132095Y-82536476D02*
X129084476Y-82631714D01*
X129084476Y-82631714D02*
X129036857Y-82822190D01*
X129036857Y-82822190D02*
X129036857Y-82965047D01*
X129036857Y-82965047D02*
X129084476Y-83155523D01*
X129084476Y-83155523D02*
X129132095Y-83250761D01*
X129132095Y-83250761D02*
X129227333Y-83346000D01*
X129227333Y-83346000D02*
X129370190Y-83393619D01*
X129370190Y-83393619D02*
X129608285Y-83393619D01*
%TO.C,D2*%
X147047094Y-101242619D02*
X147047094Y-100242619D01*
X147047094Y-100242619D02*
X146808999Y-100242619D01*
X146808999Y-100242619D02*
X146666142Y-100290238D01*
X146666142Y-100290238D02*
X146570904Y-100385476D01*
X146570904Y-100385476D02*
X146523285Y-100480714D01*
X146523285Y-100480714D02*
X146475666Y-100671190D01*
X146475666Y-100671190D02*
X146475666Y-100814047D01*
X146475666Y-100814047D02*
X146523285Y-101004523D01*
X146523285Y-101004523D02*
X146570904Y-101099761D01*
X146570904Y-101099761D02*
X146666142Y-101195000D01*
X146666142Y-101195000D02*
X146808999Y-101242619D01*
X146808999Y-101242619D02*
X147047094Y-101242619D01*
X146094713Y-100337857D02*
X146047094Y-100290238D01*
X146047094Y-100290238D02*
X145951856Y-100242619D01*
X145951856Y-100242619D02*
X145713761Y-100242619D01*
X145713761Y-100242619D02*
X145618523Y-100290238D01*
X145618523Y-100290238D02*
X145570904Y-100337857D01*
X145570904Y-100337857D02*
X145523285Y-100433095D01*
X145523285Y-100433095D02*
X145523285Y-100528333D01*
X145523285Y-100528333D02*
X145570904Y-100671190D01*
X145570904Y-100671190D02*
X146142332Y-101242619D01*
X146142332Y-101242619D02*
X145523285Y-101242619D01*
D12*
%TO.C,D1*%
X145213000Y-93025000D02*
X141153000Y-93025000D01*
X145213000Y-90755000D02*
X145213000Y-93025000D01*
X141153000Y-90755000D02*
X145213000Y-90755000D01*
%TO.C,G\u002A\u002A\u002A*%
G36*
X131381581Y-119626281D02*
G01*
X131381581Y-119900547D01*
X131305397Y-119900547D01*
X131229212Y-119900547D01*
X131229212Y-119626281D01*
X131229212Y-119352016D01*
X131305397Y-119352016D01*
X131381581Y-119352016D01*
X131381581Y-119626281D01*
G37*
G36*
X128029452Y-119626281D02*
G01*
X128029452Y-119900547D01*
X127953267Y-119900547D01*
X127877082Y-119900547D01*
X127877082Y-119626281D01*
X127877082Y-119352016D01*
X127953267Y-119352016D01*
X128029452Y-119352016D01*
X128029452Y-119626281D01*
G37*
G36*
X133226079Y-112940656D02*
G01*
X133461425Y-112944878D01*
X133271744Y-113139149D01*
X133082063Y-113333420D01*
X132799179Y-113333420D01*
X132516295Y-113333420D01*
X132318654Y-113135340D01*
X132121013Y-112937259D01*
X132364175Y-112937259D01*
X132607336Y-112937259D01*
X132702977Y-113032050D01*
X132798618Y-113126841D01*
X132894676Y-113031637D01*
X132990733Y-112936433D01*
X133226079Y-112940656D01*
G37*
G36*
X130939710Y-119420583D02*
G01*
X130939710Y-119489149D01*
X130871144Y-119489149D01*
X130802577Y-119489149D01*
X130802577Y-119694848D01*
X130802577Y-119900547D01*
X130722583Y-119900572D01*
X130642589Y-119900598D01*
X130647223Y-119694873D01*
X130651857Y-119489149D01*
X130582466Y-119489149D01*
X130513075Y-119489149D01*
X130513075Y-119420583D01*
X130513075Y-119352016D01*
X130726392Y-119352016D01*
X130939710Y-119352016D01*
X130939710Y-119420583D01*
G37*
G36*
X131327273Y-118210413D02*
G01*
X131358170Y-118216460D01*
X131378186Y-118231280D01*
X131396985Y-118258765D01*
X131401350Y-118266123D01*
X131419743Y-118302607D01*
X131427235Y-118327331D01*
X131426896Y-118329882D01*
X131408208Y-118341999D01*
X131362535Y-118345878D01*
X131337577Y-118344896D01*
X131304883Y-118337151D01*
X131275783Y-118316612D01*
X131239577Y-118277311D01*
X131181375Y-118209245D01*
X131274084Y-118209245D01*
X131275837Y-118209245D01*
X131327273Y-118210413D01*
G37*
G36*
X131254982Y-119199692D02*
G01*
X131299100Y-119201427D01*
X131324831Y-119208474D01*
X131340867Y-119224581D01*
X131355904Y-119253493D01*
X131360842Y-119263982D01*
X131375630Y-119297427D01*
X131381581Y-119314441D01*
X131379147Y-119316356D01*
X131355930Y-119320068D01*
X131316107Y-119321542D01*
X131301640Y-119321304D01*
X131263189Y-119315406D01*
X131230382Y-119297137D01*
X131191120Y-119260595D01*
X131131606Y-119199647D01*
X131230916Y-119199647D01*
X131254982Y-119199692D01*
G37*
G36*
X126333446Y-119199692D02*
G01*
X126377565Y-119201427D01*
X126403295Y-119208474D01*
X126419331Y-119224581D01*
X126434368Y-119253493D01*
X126439307Y-119263982D01*
X126454094Y-119297427D01*
X126460046Y-119314441D01*
X126457611Y-119316356D01*
X126434395Y-119320068D01*
X126394572Y-119321542D01*
X126380104Y-119321304D01*
X126341653Y-119315406D01*
X126308847Y-119297137D01*
X126269584Y-119260595D01*
X126210070Y-119199647D01*
X126309380Y-119199647D01*
X126333446Y-119199692D01*
G37*
G36*
X143906356Y-112632520D02*
G01*
X143906356Y-117043618D01*
X143906356Y-121546137D01*
X139403837Y-121546137D01*
X134901318Y-121546137D01*
X134901318Y-121454716D01*
X134992739Y-121454716D01*
X139403837Y-121454716D01*
X143814935Y-121454716D01*
X143814935Y-117043618D01*
X143814935Y-112632520D01*
X139403837Y-112632520D01*
X134992739Y-112632520D01*
X134992739Y-117043618D01*
X134992739Y-121454716D01*
X134901318Y-121454716D01*
X134901318Y-117043618D01*
X134901318Y-112541099D01*
X139403837Y-112541099D01*
X143906356Y-112541099D01*
X143906356Y-112632520D01*
G37*
G36*
X133048437Y-119207265D02*
G01*
X132998134Y-119264404D01*
X132971319Y-119293099D01*
X132944326Y-119312193D01*
X132910924Y-119320028D01*
X132859097Y-119321542D01*
X132812211Y-119320493D01*
X132777950Y-119313888D01*
X132752139Y-119296825D01*
X132723126Y-119264404D01*
X132675890Y-119207265D01*
X132738811Y-119202504D01*
X132790349Y-119204531D01*
X132830649Y-119223912D01*
X132846456Y-119237191D01*
X132864984Y-119241451D01*
X132888482Y-119223912D01*
X132925531Y-119205246D01*
X132982918Y-119202504D01*
X133048437Y-119207265D01*
G37*
G36*
X134459446Y-112632520D02*
G01*
X134459446Y-117043618D01*
X134459446Y-121546137D01*
X129956926Y-121546137D01*
X125454407Y-121546137D01*
X125454407Y-121454716D01*
X125545829Y-121454716D01*
X129956926Y-121454716D01*
X134368024Y-121454716D01*
X134368024Y-117043618D01*
X134368024Y-112632520D01*
X129956926Y-112632520D01*
X125545829Y-112632520D01*
X125545829Y-117043618D01*
X125545829Y-121454716D01*
X125454407Y-121454716D01*
X125454407Y-117043618D01*
X125454407Y-112541099D01*
X129956926Y-112541099D01*
X134459446Y-112541099D01*
X134459446Y-112632520D01*
G37*
G36*
X131702342Y-119515814D02*
G01*
X131703127Y-119679611D01*
X131786281Y-119515814D01*
X131869434Y-119352016D01*
X131968339Y-119352016D01*
X132067244Y-119352016D01*
X132067244Y-119626281D01*
X132067244Y-119900547D01*
X131983441Y-119900547D01*
X131899638Y-119900547D01*
X131898749Y-119744368D01*
X131897860Y-119588189D01*
X131819097Y-119744368D01*
X131740333Y-119900547D01*
X131644761Y-119900547D01*
X131549188Y-119900547D01*
X131549188Y-119626281D01*
X131549188Y-119352016D01*
X131625373Y-119352016D01*
X131701557Y-119352016D01*
X131702342Y-119515814D01*
G37*
G36*
X127707340Y-118209255D02*
G01*
X127752903Y-118210736D01*
X127779743Y-118218103D01*
X127797503Y-118236128D01*
X127815825Y-118269586D01*
X127824311Y-118286539D01*
X127840274Y-118320752D01*
X127846608Y-118338152D01*
X127844458Y-118340261D01*
X127821830Y-118344636D01*
X127782494Y-118346377D01*
X127780883Y-118346375D01*
X127737086Y-118341996D01*
X127701351Y-118325208D01*
X127660598Y-118289956D01*
X127638699Y-118267661D01*
X127612882Y-118238045D01*
X127602817Y-118221390D01*
X127612782Y-118215884D01*
X127645803Y-118211090D01*
X127693929Y-118209245D01*
X127707340Y-118209255D01*
G37*
G36*
X133372150Y-118209273D02*
G01*
X133426334Y-118216910D01*
X133461639Y-118239955D01*
X133489432Y-118270666D01*
X133523148Y-118238991D01*
X133529920Y-118233024D01*
X133567199Y-118214273D01*
X133618954Y-118212090D01*
X133681043Y-118216863D01*
X133627109Y-118281620D01*
X133601362Y-118311280D01*
X133573294Y-118334827D01*
X133541997Y-118344502D01*
X133495087Y-118346377D01*
X133474762Y-118346125D01*
X133431585Y-118340851D01*
X133397892Y-118324131D01*
X133359218Y-118289956D01*
X133337319Y-118267661D01*
X133311502Y-118238045D01*
X133301437Y-118221390D01*
X133304038Y-118218025D01*
X133327570Y-118211739D01*
X133367642Y-118209245D01*
X133372150Y-118209273D01*
G37*
G36*
X130406416Y-119626281D02*
G01*
X130406416Y-119900547D01*
X130215955Y-119900547D01*
X130025493Y-119900547D01*
X130025493Y-119839599D01*
X130025493Y-119778651D01*
X130132151Y-119778651D01*
X130238810Y-119778651D01*
X130238810Y-119732940D01*
X130238810Y-119687229D01*
X130132151Y-119687229D01*
X130025493Y-119687229D01*
X130025493Y-119626281D01*
X130025493Y-119565334D01*
X130132151Y-119565334D01*
X130238810Y-119565334D01*
X130238810Y-119519623D01*
X130238810Y-119473912D01*
X130132151Y-119473912D01*
X130025493Y-119473912D01*
X130025493Y-119412964D01*
X130025493Y-119352016D01*
X130215955Y-119352016D01*
X130406416Y-119352016D01*
X130406416Y-119626281D01*
G37*
G36*
X126581941Y-119626281D02*
G01*
X126581941Y-119900547D01*
X126391479Y-119900547D01*
X126201018Y-119900547D01*
X126201018Y-119839599D01*
X126201018Y-119778651D01*
X126307676Y-119778651D01*
X126414335Y-119778651D01*
X126414335Y-119732940D01*
X126414335Y-119687229D01*
X126307676Y-119687229D01*
X126201018Y-119687229D01*
X126201018Y-119626281D01*
X126201018Y-119565334D01*
X126307676Y-119565334D01*
X126414335Y-119565334D01*
X126414335Y-119519623D01*
X126414335Y-119473912D01*
X126307676Y-119473912D01*
X126201018Y-119473912D01*
X126201018Y-119412964D01*
X126201018Y-119352016D01*
X126391479Y-119352016D01*
X126581941Y-119352016D01*
X126581941Y-119626281D01*
G37*
G36*
X128352704Y-119508195D02*
G01*
X128357046Y-119664374D01*
X128437179Y-119508195D01*
X128517312Y-119352016D01*
X128616213Y-119352016D01*
X128715115Y-119352016D01*
X128715115Y-119626281D01*
X128715115Y-119900547D01*
X128638930Y-119900547D01*
X128562745Y-119900547D01*
X128562745Y-119747278D01*
X128562215Y-119701554D01*
X128559869Y-119647682D01*
X128556079Y-119612208D01*
X128551318Y-119601167D01*
X128543361Y-119611583D01*
X128523483Y-119644525D01*
X128495803Y-119694039D01*
X128463705Y-119754214D01*
X128387520Y-119900103D01*
X128292289Y-119900325D01*
X128197058Y-119900547D01*
X128197058Y-119626281D01*
X128197058Y-119352016D01*
X128272710Y-119352016D01*
X128348362Y-119352016D01*
X128352704Y-119508195D01*
G37*
G36*
X138460566Y-118336965D02*
G01*
X138460203Y-118343395D01*
X138449838Y-118374039D01*
X138428430Y-118423799D01*
X138398279Y-118487487D01*
X138361687Y-118559914D01*
X138255554Y-118763959D01*
X138300211Y-118791117D01*
X138320162Y-118804949D01*
X138339927Y-118832615D01*
X138344812Y-118875638D01*
X138332181Y-118944237D01*
X138294378Y-119007109D01*
X138236359Y-119051697D01*
X138228494Y-119055258D01*
X138175316Y-119070880D01*
X138119599Y-119077404D01*
X138054317Y-119077751D01*
X138063746Y-118997757D01*
X138069582Y-118957632D01*
X138103528Y-118820502D01*
X138157591Y-118678372D01*
X138227864Y-118540456D01*
X138310439Y-118415970D01*
X138328658Y-118393873D01*
X138370644Y-118354122D01*
X138410331Y-118329437D01*
X138442158Y-118322743D01*
X138460566Y-118336965D01*
G37*
G36*
X130461284Y-118379845D02*
G01*
X130550339Y-118384470D01*
X130594756Y-118574832D01*
X130596592Y-118582703D01*
X130614437Y-118657969D01*
X130628099Y-118707155D01*
X130639397Y-118729654D01*
X130650153Y-118724859D01*
X130662186Y-118692164D01*
X130677318Y-118630963D01*
X130697368Y-118540649D01*
X130733404Y-118376851D01*
X130821320Y-118376851D01*
X130859628Y-118378000D01*
X130895477Y-118382147D01*
X130909368Y-118388279D01*
X130905948Y-118403194D01*
X130895022Y-118443087D01*
X130877945Y-118502856D01*
X130856108Y-118577632D01*
X130830905Y-118662544D01*
X130752309Y-118925382D01*
X130642884Y-118925382D01*
X130533459Y-118925382D01*
X130463092Y-118693018D01*
X130449346Y-118647460D01*
X130425588Y-118567913D01*
X130405321Y-118499039D01*
X130390349Y-118446995D01*
X130382477Y-118417937D01*
X130372229Y-118375220D01*
X130461284Y-118379845D01*
G37*
G36*
X129035091Y-119459471D02*
G01*
X129035091Y-119566926D01*
X129115085Y-119562321D01*
X129151951Y-119558981D01*
X129185571Y-119549983D01*
X129196567Y-119534860D01*
X129197237Y-119521755D01*
X129198770Y-119482162D01*
X129200376Y-119432010D01*
X129202697Y-119352016D01*
X129278882Y-119352016D01*
X129355067Y-119352016D01*
X129355067Y-119626281D01*
X129355067Y-119900547D01*
X129278882Y-119900547D01*
X129261623Y-119900260D01*
X129217241Y-119894498D01*
X129201643Y-119881500D01*
X129201026Y-119867731D01*
X129199558Y-119828875D01*
X129197833Y-119778651D01*
X129195079Y-119694848D01*
X129115085Y-119690242D01*
X129035091Y-119685637D01*
X129035091Y-119793092D01*
X129035091Y-119900547D01*
X128958906Y-119900547D01*
X128882721Y-119900547D01*
X128882721Y-119626281D01*
X128882721Y-119352016D01*
X128958906Y-119352016D01*
X129035091Y-119352016D01*
X129035091Y-119459471D01*
G37*
G36*
X132585301Y-119626281D02*
G01*
X132585301Y-119900547D01*
X132394839Y-119900547D01*
X132204377Y-119900547D01*
X132204377Y-119840266D01*
X132204377Y-119779986D01*
X132314845Y-119775509D01*
X132346326Y-119774139D01*
X132390657Y-119770735D01*
X132414254Y-119764408D01*
X132423634Y-119752647D01*
X132425313Y-119732940D01*
X132425217Y-119725825D01*
X132421614Y-119708365D01*
X132407784Y-119698494D01*
X132376982Y-119693418D01*
X132322463Y-119690342D01*
X132219614Y-119685837D01*
X132219614Y-119625585D01*
X132219614Y-119565334D01*
X132327285Y-119565334D01*
X132434955Y-119565334D01*
X132430134Y-119523432D01*
X132428315Y-119510198D01*
X132421768Y-119493743D01*
X132405220Y-119484563D01*
X132371852Y-119479915D01*
X132314845Y-119477054D01*
X132204377Y-119472577D01*
X132204377Y-119412297D01*
X132204377Y-119352016D01*
X132394839Y-119352016D01*
X132585301Y-119352016D01*
X132585301Y-119626281D01*
G37*
G36*
X131274923Y-120395748D02*
G01*
X131274923Y-120464314D01*
X131168264Y-120464314D01*
X131164029Y-120464320D01*
X131112266Y-120465549D01*
X131075555Y-120468492D01*
X131061605Y-120472554D01*
X131068991Y-120485117D01*
X131091684Y-120517195D01*
X131126020Y-120563463D01*
X131168264Y-120618802D01*
X131172154Y-120623840D01*
X131217951Y-120684495D01*
X131247826Y-120728482D01*
X131265080Y-120762145D01*
X131273012Y-120791829D01*
X131274923Y-120823879D01*
X131274923Y-120890949D01*
X131061605Y-120890949D01*
X130848288Y-120890949D01*
X130848288Y-120822382D01*
X130848288Y-120753816D01*
X130963450Y-120753816D01*
X131078612Y-120753816D01*
X130963450Y-120603576D01*
X130954189Y-120591469D01*
X130907736Y-120529234D01*
X130877043Y-120483781D01*
X130858986Y-120449324D01*
X130850442Y-120420078D01*
X130848288Y-120390259D01*
X130848288Y-120327181D01*
X131061605Y-120327181D01*
X131274923Y-120327181D01*
X131274923Y-120395748D01*
G37*
G36*
X130726392Y-120609065D02*
G01*
X130726392Y-120890949D01*
X130535931Y-120890949D01*
X130345469Y-120890949D01*
X130345469Y-120822382D01*
X130345469Y-120753816D01*
X130452127Y-120753816D01*
X130480568Y-120753747D01*
X130524749Y-120752265D01*
X130548085Y-120747015D01*
X130557218Y-120735625D01*
X130558786Y-120715724D01*
X130558592Y-120705566D01*
X130554443Y-120689787D01*
X130539742Y-120681453D01*
X130507851Y-120678191D01*
X130452127Y-120677631D01*
X130345469Y-120677631D01*
X130345469Y-120609065D01*
X130345469Y-120540499D01*
X130452127Y-120540499D01*
X130480568Y-120540429D01*
X130524749Y-120538947D01*
X130548085Y-120533697D01*
X130557218Y-120522307D01*
X130558786Y-120502406D01*
X130558592Y-120492249D01*
X130554443Y-120476470D01*
X130539742Y-120468136D01*
X130507851Y-120464874D01*
X130452127Y-120464314D01*
X130345469Y-120464314D01*
X130345469Y-120395748D01*
X130345469Y-120327181D01*
X130535931Y-120327181D01*
X130726392Y-120327181D01*
X130726392Y-120609065D01*
G37*
G36*
X128217531Y-118377159D02*
G01*
X128253639Y-118381589D01*
X128269678Y-118387748D01*
X128271136Y-118390802D01*
X128285161Y-118414990D01*
X128310198Y-118455799D01*
X128342059Y-118506365D01*
X128410034Y-118613024D01*
X128410205Y-118494938D01*
X128410376Y-118376851D01*
X128494179Y-118376851D01*
X128577982Y-118376851D01*
X128577982Y-118651116D01*
X128577982Y-118925382D01*
X128494795Y-118925382D01*
X128411608Y-118925382D01*
X128407183Y-118802053D01*
X128402757Y-118678724D01*
X128328290Y-118802053D01*
X128253824Y-118925382D01*
X128155122Y-118925382D01*
X128056421Y-118925382D01*
X128083659Y-118883480D01*
X128085860Y-118880100D01*
X128109396Y-118844212D01*
X128142451Y-118794074D01*
X128178598Y-118739437D01*
X128246298Y-118637296D01*
X128159483Y-118513401D01*
X128135118Y-118477833D01*
X128104699Y-118430522D01*
X128085390Y-118396553D01*
X128080581Y-118381591D01*
X128092531Y-118377618D01*
X128126604Y-118374836D01*
X128171729Y-118374796D01*
X128217531Y-118377159D01*
G37*
G36*
X133519269Y-118371886D02*
G01*
X133609358Y-118394946D01*
X133682387Y-118439878D01*
X133735374Y-118503570D01*
X133765343Y-118582913D01*
X133769312Y-118674796D01*
X133768361Y-118683328D01*
X133747623Y-118770360D01*
X133707207Y-118837103D01*
X133644269Y-118888418D01*
X133613104Y-118904863D01*
X133559862Y-118920606D01*
X133491899Y-118925029D01*
X133475271Y-118924985D01*
X133409347Y-118923063D01*
X133367417Y-118916078D01*
X133344113Y-118900985D01*
X133334067Y-118874741D01*
X133331911Y-118834300D01*
X133331911Y-118762009D01*
X133389971Y-118777506D01*
X133422559Y-118784058D01*
X133490717Y-118781428D01*
X133543948Y-118755453D01*
X133578580Y-118708586D01*
X133590940Y-118643281D01*
X133587972Y-118611757D01*
X133563842Y-118556649D01*
X133519247Y-118519603D01*
X133458776Y-118503582D01*
X133387016Y-118511549D01*
X133331911Y-118526764D01*
X133331911Y-118458948D01*
X133333554Y-118424303D01*
X133343267Y-118395006D01*
X133366680Y-118378390D01*
X133409353Y-118371022D01*
X133476847Y-118369470D01*
X133519269Y-118371886D01*
G37*
G36*
X127191419Y-119626281D02*
G01*
X127191419Y-119900547D01*
X127108257Y-119900547D01*
X127025095Y-119900547D01*
X127020645Y-119782460D01*
X127016195Y-119664374D01*
X126947535Y-119778651D01*
X126878876Y-119892928D01*
X126783738Y-119897464D01*
X126738558Y-119898528D01*
X126702445Y-119896985D01*
X126688600Y-119892967D01*
X126690393Y-119888370D01*
X126705064Y-119862992D01*
X126731318Y-119821568D01*
X126765281Y-119770297D01*
X126780557Y-119747471D01*
X126813684Y-119696574D01*
X126838495Y-119656498D01*
X126850510Y-119634386D01*
X126850430Y-119626423D01*
X126837932Y-119594867D01*
X126811361Y-119547846D01*
X126773829Y-119491172D01*
X126751228Y-119458774D01*
X126718991Y-119411208D01*
X126696837Y-119376707D01*
X126688600Y-119361124D01*
X126700073Y-119356856D01*
X126734489Y-119353553D01*
X126783831Y-119352452D01*
X126879062Y-119352888D01*
X126947628Y-119468195D01*
X127016195Y-119583502D01*
X127020645Y-119467759D01*
X127025095Y-119352016D01*
X127108257Y-119352016D01*
X127191419Y-119352016D01*
X127191419Y-119626281D01*
G37*
G36*
X129715210Y-119362412D02*
G01*
X129794383Y-119399090D01*
X129855538Y-119456146D01*
X129895739Y-119529814D01*
X129912054Y-119616327D01*
X129901546Y-119711919D01*
X129889228Y-119747604D01*
X129848873Y-119813661D01*
X129793812Y-119867002D01*
X129732084Y-119898762D01*
X129634284Y-119913631D01*
X129534101Y-119899745D01*
X129513832Y-119893800D01*
X129488576Y-119881058D01*
X129478673Y-119858741D01*
X129476962Y-119816408D01*
X129476962Y-119748939D01*
X129526482Y-119758168D01*
X129529526Y-119758732D01*
X129564842Y-119764811D01*
X129583621Y-119767210D01*
X129619182Y-119764686D01*
X129659858Y-119751961D01*
X129695820Y-119723244D01*
X129723086Y-119685477D01*
X129735546Y-119626038D01*
X129719071Y-119560106D01*
X129717630Y-119557042D01*
X129683170Y-119514994D01*
X129629442Y-119493792D01*
X129554155Y-119492495D01*
X129476962Y-119499912D01*
X129476962Y-119434610D01*
X129478558Y-119401438D01*
X129487924Y-119374569D01*
X129510759Y-119359263D01*
X129552720Y-119352159D01*
X129619463Y-119349892D01*
X129620954Y-119349878D01*
X129715210Y-119362412D01*
G37*
G36*
X127513463Y-119356424D02*
G01*
X127557935Y-119366463D01*
X127603102Y-119386773D01*
X127631664Y-119404008D01*
X127693036Y-119463839D01*
X127730234Y-119541297D01*
X127742096Y-119634307D01*
X127736227Y-119697168D01*
X127707147Y-119778402D01*
X127652831Y-119842971D01*
X127572235Y-119892462D01*
X127564133Y-119895767D01*
X127514121Y-119907277D01*
X127455026Y-119910964D01*
X127396593Y-119907315D01*
X127348568Y-119896814D01*
X127320698Y-119879946D01*
X127320037Y-119878995D01*
X127310491Y-119847653D01*
X127309953Y-119805536D01*
X127315964Y-119754043D01*
X127403332Y-119760362D01*
X127449393Y-119762765D01*
X127482480Y-119759240D01*
X127506162Y-119745590D01*
X127531522Y-119718168D01*
X127547541Y-119696895D01*
X127570743Y-119640106D01*
X127563558Y-119585240D01*
X127525972Y-119531856D01*
X127505260Y-119512248D01*
X127478524Y-119495268D01*
X127446094Y-119489900D01*
X127395725Y-119492440D01*
X127311849Y-119499396D01*
X127316391Y-119429515D01*
X127320934Y-119359635D01*
X127427877Y-119355229D01*
X127456859Y-119354346D01*
X127513463Y-119356424D01*
G37*
G36*
X132950988Y-120562021D02*
G01*
X132950988Y-120607068D01*
X132950988Y-120890949D01*
X132874803Y-120890949D01*
X132798618Y-120890949D01*
X132798618Y-120799527D01*
X132798618Y-120708105D01*
X132729562Y-120708105D01*
X132723142Y-120708048D01*
X132642763Y-120696905D01*
X132576535Y-120668491D01*
X132531512Y-120625739D01*
X132521734Y-120607632D01*
X132506630Y-120547158D01*
X132507852Y-120514879D01*
X132664909Y-120514879D01*
X132673978Y-120548179D01*
X132680555Y-120560656D01*
X132703950Y-120580878D01*
X132744789Y-120586209D01*
X132766303Y-120585942D01*
X132788447Y-120580680D01*
X132795707Y-120562021D01*
X132794636Y-120521452D01*
X132794338Y-120516393D01*
X132789319Y-120477316D01*
X132777076Y-120458892D01*
X132752112Y-120452165D01*
X132724976Y-120454209D01*
X132684938Y-120478891D01*
X132677839Y-120487144D01*
X132664909Y-120514879D01*
X132507852Y-120514879D01*
X132509075Y-120482569D01*
X132529235Y-120428259D01*
X132558644Y-120390587D01*
X132593489Y-120364082D01*
X132639834Y-120346756D01*
X132703979Y-120336260D01*
X132792224Y-120330248D01*
X132950988Y-120323187D01*
X132950988Y-120562021D01*
G37*
G36*
X132858076Y-119349887D02*
G01*
X132951348Y-119364825D01*
X133029757Y-119403694D01*
X133090248Y-119462491D01*
X133129763Y-119537212D01*
X133145245Y-119623854D01*
X133133640Y-119718414D01*
X133122391Y-119749497D01*
X133081307Y-119814030D01*
X133024709Y-119866985D01*
X132961556Y-119898959D01*
X132864890Y-119913634D01*
X132764335Y-119899745D01*
X132742220Y-119893207D01*
X132718160Y-119880436D01*
X132708787Y-119857726D01*
X132707196Y-119814817D01*
X132707196Y-119745756D01*
X132756716Y-119756255D01*
X132775466Y-119760223D01*
X132803476Y-119765404D01*
X132825062Y-119766583D01*
X132856449Y-119765218D01*
X132891973Y-119756697D01*
X132931958Y-119725581D01*
X132957367Y-119679129D01*
X132966019Y-119625063D01*
X132955732Y-119571109D01*
X132924323Y-119524989D01*
X132908825Y-119511482D01*
X132881694Y-119495784D01*
X132847542Y-119490394D01*
X132794809Y-119492405D01*
X132707196Y-119498712D01*
X132707196Y-119434009D01*
X132708783Y-119402420D01*
X132718478Y-119374588D01*
X132741921Y-119358693D01*
X132784659Y-119351516D01*
X132852238Y-119349840D01*
X132858076Y-119349887D01*
G37*
G36*
X136664405Y-115401296D02*
G01*
X136768576Y-115417006D01*
X136857777Y-115457681D01*
X136929279Y-115521600D01*
X136980353Y-115607046D01*
X137001386Y-115684641D01*
X136997330Y-115772323D01*
X136963396Y-115857170D01*
X136899901Y-115937880D01*
X136866860Y-115973443D01*
X136835753Y-116019183D01*
X136823470Y-116061593D01*
X136800704Y-116168710D01*
X136746919Y-116283714D01*
X136663397Y-116392238D01*
X136650035Y-116406320D01*
X136624580Y-116431702D01*
X136612252Y-116441758D01*
X136611967Y-116441736D01*
X136595230Y-116432387D01*
X136562343Y-116409635D01*
X136520133Y-116378666D01*
X136475422Y-116344665D01*
X136435037Y-116312818D01*
X136405801Y-116288311D01*
X136394539Y-116276329D01*
X136402487Y-116260515D01*
X136424356Y-116227519D01*
X136455262Y-116184899D01*
X136501410Y-116114140D01*
X136545863Y-116007216D01*
X136560951Y-115900921D01*
X136546766Y-115797441D01*
X136503402Y-115698964D01*
X136430949Y-115607674D01*
X136350835Y-115527561D01*
X136399352Y-115491258D01*
X136433842Y-115466661D01*
X136503776Y-115427486D01*
X136573018Y-115407048D01*
X136653358Y-115401164D01*
X136664405Y-115401296D01*
G37*
G36*
X133425900Y-119543738D02*
G01*
X133426684Y-119572009D01*
X133429473Y-119644641D01*
X133433363Y-119693985D01*
X133439243Y-119725516D01*
X133448001Y-119744714D01*
X133460528Y-119757056D01*
X133480588Y-119769889D01*
X133514896Y-119776858D01*
X133551480Y-119758680D01*
X133560245Y-119750928D01*
X133572191Y-119731645D01*
X133580445Y-119700975D01*
X133585699Y-119654149D01*
X133588643Y-119586400D01*
X133589967Y-119492958D01*
X133590940Y-119352016D01*
X133667124Y-119352016D01*
X133743309Y-119352016D01*
X133743252Y-119561524D01*
X133743252Y-119562122D01*
X133741430Y-119665930D01*
X133735026Y-119744086D01*
X133722487Y-119801242D01*
X133702261Y-119842045D01*
X133672796Y-119871146D01*
X133632541Y-119893193D01*
X133606283Y-119902343D01*
X133532283Y-119913705D01*
X133453385Y-119910886D01*
X133385085Y-119893845D01*
X133382444Y-119892730D01*
X133341786Y-119870792D01*
X133312087Y-119841739D01*
X133291755Y-119800928D01*
X133279195Y-119743716D01*
X133272815Y-119665463D01*
X133271021Y-119561524D01*
X133270964Y-119352016D01*
X133345906Y-119352016D01*
X133420848Y-119352016D01*
X133425900Y-119543738D01*
G37*
G36*
X133476796Y-120525870D02*
G01*
X133481587Y-120547264D01*
X133498004Y-120614739D01*
X133512689Y-120666690D01*
X133524193Y-120698338D01*
X133531067Y-120704904D01*
X133535494Y-120692902D01*
X133546187Y-120654699D01*
X133560013Y-120598904D01*
X133575087Y-120532880D01*
X133584756Y-120489112D01*
X133598671Y-120427195D01*
X133609675Y-120379516D01*
X133615994Y-120353846D01*
X133618158Y-120348007D01*
X133632004Y-120335177D01*
X133662098Y-120328865D01*
X133715492Y-120327181D01*
X133767814Y-120328951D01*
X133795466Y-120335017D01*
X133800282Y-120346227D01*
X133797499Y-120354325D01*
X133786625Y-120388484D01*
X133770597Y-120440383D01*
X133751779Y-120502406D01*
X133747880Y-120515363D01*
X133722622Y-120599281D01*
X133695750Y-120688544D01*
X133672462Y-120765889D01*
X133634413Y-120892238D01*
X133525379Y-120887784D01*
X133416344Y-120883330D01*
X133344345Y-120647157D01*
X133329366Y-120597794D01*
X133305486Y-120518121D01*
X133285253Y-120449409D01*
X133270441Y-120397711D01*
X133262826Y-120369083D01*
X133253305Y-120327181D01*
X133343208Y-120327181D01*
X133433111Y-120327181D01*
X133476796Y-120525870D01*
G37*
G36*
X127713315Y-118371524D02*
G01*
X127722672Y-118371696D01*
X127791976Y-118373013D01*
X127856639Y-118374312D01*
X127903747Y-118375334D01*
X127968504Y-118376851D01*
X127968504Y-118651116D01*
X127968504Y-118925382D01*
X127778042Y-118925382D01*
X127587580Y-118925382D01*
X127587580Y-118864434D01*
X127587713Y-118845321D01*
X127591883Y-118816093D01*
X127608136Y-118804615D01*
X127644719Y-118801853D01*
X127681822Y-118800777D01*
X127736967Y-118798456D01*
X127770349Y-118794431D01*
X127787787Y-118786885D01*
X127795098Y-118774002D01*
X127798100Y-118753966D01*
X127802922Y-118712064D01*
X127695251Y-118712064D01*
X127587580Y-118712064D01*
X127587580Y-118651116D01*
X127587666Y-118644081D01*
X127593290Y-118604121D01*
X127606626Y-118589040D01*
X127622095Y-118588569D01*
X127662035Y-118588047D01*
X127713285Y-118587798D01*
X127719823Y-118587788D01*
X127766297Y-118586780D01*
X127790410Y-118581504D01*
X127799498Y-118568227D01*
X127800898Y-118543216D01*
X127800898Y-118498747D01*
X127694239Y-118498747D01*
X127587580Y-118498747D01*
X127587610Y-118433990D01*
X127587640Y-118369233D01*
X127713315Y-118371524D01*
G37*
G36*
X133213146Y-118644805D02*
G01*
X133214149Y-118720278D01*
X133214564Y-118798118D01*
X133214202Y-118860541D01*
X133213098Y-118902531D01*
X133211286Y-118919070D01*
X133211053Y-118919237D01*
X133192477Y-118921629D01*
X133149897Y-118923582D01*
X133089385Y-118924899D01*
X133017014Y-118925382D01*
X132829092Y-118925382D01*
X132829092Y-118864434D01*
X132829181Y-118857294D01*
X132834830Y-118817375D01*
X132848138Y-118802116D01*
X132865363Y-118801284D01*
X132906363Y-118799837D01*
X132958606Y-118798307D01*
X132962566Y-118798200D01*
X133011727Y-118795886D01*
X133038450Y-118790066D01*
X133050302Y-118777255D01*
X133054849Y-118753966D01*
X133059670Y-118712064D01*
X132952000Y-118712064D01*
X132844329Y-118712064D01*
X132844329Y-118651813D01*
X132844329Y-118591561D01*
X132947178Y-118587056D01*
X132969542Y-118586030D01*
X133015085Y-118582566D01*
X133039757Y-118575885D01*
X133050649Y-118562931D01*
X133054849Y-118540649D01*
X133059670Y-118498747D01*
X132944381Y-118498747D01*
X132829092Y-118498747D01*
X132829092Y-118437799D01*
X132829092Y-118376851D01*
X133018874Y-118376851D01*
X133208657Y-118376851D01*
X133213146Y-118644805D01*
G37*
G36*
X131506652Y-118371347D02*
G01*
X131530142Y-118373886D01*
X131531433Y-118374503D01*
X131538383Y-118387648D01*
X131543425Y-118418977D01*
X131546766Y-118471558D01*
X131548617Y-118548459D01*
X131549188Y-118652747D01*
X131549188Y-118925382D01*
X131358726Y-118925382D01*
X131168264Y-118925382D01*
X131168264Y-118865101D01*
X131168264Y-118804821D01*
X131278732Y-118800344D01*
X131313604Y-118798819D01*
X131356688Y-118795308D01*
X131379906Y-118788491D01*
X131390077Y-118775624D01*
X131394021Y-118753966D01*
X131398843Y-118712064D01*
X131291172Y-118712064D01*
X131183501Y-118712064D01*
X131183501Y-118651813D01*
X131183501Y-118591561D01*
X131286351Y-118587056D01*
X131308714Y-118586030D01*
X131354257Y-118582566D01*
X131378929Y-118575885D01*
X131389821Y-118562931D01*
X131394021Y-118540649D01*
X131398843Y-118498747D01*
X131283553Y-118498747D01*
X131168264Y-118498747D01*
X131168264Y-118437799D01*
X131168357Y-118422725D01*
X131171946Y-118391299D01*
X131186046Y-118378575D01*
X131217784Y-118375599D01*
X131221578Y-118375502D01*
X131264144Y-118374384D01*
X131323912Y-118372780D01*
X131389200Y-118371003D01*
X131403453Y-118370657D01*
X131461495Y-118370211D01*
X131506652Y-118371347D01*
G37*
G36*
X129245108Y-118628058D02*
G01*
X129248332Y-118661832D01*
X129233535Y-118756506D01*
X129216902Y-118797844D01*
X129165776Y-118862353D01*
X129088420Y-118912712D01*
X129043547Y-118927729D01*
X128964304Y-118934625D01*
X128883048Y-118923052D01*
X128812487Y-118893877D01*
X128758247Y-118844153D01*
X128721142Y-118775972D01*
X128702254Y-118696753D01*
X128701949Y-118656409D01*
X128868233Y-118656409D01*
X128879216Y-118711970D01*
X128909125Y-118761584D01*
X128914555Y-118766952D01*
X128955324Y-118785694D01*
X129001957Y-118783200D01*
X129040999Y-118759665D01*
X129056011Y-118738481D01*
X129073320Y-118686179D01*
X129074698Y-118628058D01*
X129061609Y-118572762D01*
X129035519Y-118528937D01*
X128997891Y-118505228D01*
X128969285Y-118502600D01*
X128926704Y-118517997D01*
X128894191Y-118553028D01*
X128873963Y-118601297D01*
X128868233Y-118656409D01*
X128701949Y-118656409D01*
X128701623Y-118613276D01*
X128719287Y-118532322D01*
X128755286Y-118460671D01*
X128809660Y-118405101D01*
X128824354Y-118395833D01*
X128892254Y-118371138D01*
X128971669Y-118362585D01*
X129051061Y-118370537D01*
X129118894Y-118395358D01*
X129159549Y-118425417D01*
X129209451Y-118490341D01*
X129239674Y-118571128D01*
X129245108Y-118628058D01*
G37*
G36*
X127785661Y-113622922D02*
G01*
X127785647Y-113660602D01*
X127785254Y-113733865D01*
X127783740Y-113783285D01*
X127780352Y-113813575D01*
X127774332Y-113829450D01*
X127764926Y-113835623D01*
X127751377Y-113836809D01*
X127745059Y-113836911D01*
X127708834Y-113837465D01*
X127650928Y-113838332D01*
X127577862Y-113839416D01*
X127496159Y-113840619D01*
X127275223Y-113843858D01*
X127271261Y-114548567D01*
X127267300Y-115253276D01*
X126977950Y-115253276D01*
X126688600Y-115253276D01*
X126688600Y-114554006D01*
X126688563Y-114426630D01*
X126688350Y-114283195D01*
X126687864Y-114165655D01*
X126687009Y-114071403D01*
X126685691Y-113997834D01*
X126683814Y-113942341D01*
X126681282Y-113902319D01*
X126678002Y-113875160D01*
X126673878Y-113858259D01*
X126668815Y-113849009D01*
X126662717Y-113844804D01*
X126659804Y-113843973D01*
X126629761Y-113840555D01*
X126577169Y-113837982D01*
X126508531Y-113836489D01*
X126430353Y-113836314D01*
X126413021Y-113836432D01*
X126336235Y-113836873D01*
X126270313Y-113837128D01*
X126221793Y-113837176D01*
X126197208Y-113836998D01*
X126188252Y-113835091D01*
X126180340Y-113825838D01*
X126175190Y-113804621D01*
X126172224Y-113766814D01*
X126170868Y-113707790D01*
X126170544Y-113622922D01*
X126170544Y-113409605D01*
X126978102Y-113409605D01*
X127785661Y-113409605D01*
X127785661Y-113622922D01*
G37*
G36*
X130285166Y-118374100D02*
G01*
X130322832Y-118378111D01*
X130341932Y-118383473D01*
X130342067Y-118384429D01*
X130334744Y-118403845D01*
X130315934Y-118443890D01*
X130288134Y-118499412D01*
X130253838Y-118565263D01*
X130237047Y-118597127D01*
X130203158Y-118663779D01*
X130181114Y-118713043D01*
X130168590Y-118751479D01*
X130163260Y-118785646D01*
X130162800Y-118822105D01*
X130163608Y-118852867D01*
X130164231Y-118893322D01*
X130163924Y-118913954D01*
X130158388Y-118918043D01*
X130130212Y-118923318D01*
X130086440Y-118925382D01*
X130010256Y-118925382D01*
X130010256Y-118826911D01*
X130009918Y-118798702D01*
X130006888Y-118760609D01*
X129998627Y-118724748D01*
X129982660Y-118683950D01*
X129956511Y-118631042D01*
X129917703Y-118558856D01*
X129912867Y-118549972D01*
X129879168Y-118486694D01*
X129852565Y-118434366D01*
X129835641Y-118398209D01*
X129830977Y-118383444D01*
X129835589Y-118381571D01*
X129862671Y-118377897D01*
X129903721Y-118375386D01*
X129947655Y-118374378D01*
X129983388Y-118375215D01*
X129999836Y-118378240D01*
X130007214Y-118392929D01*
X130023429Y-118428117D01*
X130044683Y-118475665D01*
X130084949Y-118566859D01*
X130125270Y-118475665D01*
X130146411Y-118430679D01*
X130166521Y-118393400D01*
X130179431Y-118375899D01*
X130179756Y-118375712D01*
X130201731Y-118372346D01*
X130240833Y-118371994D01*
X130285166Y-118374100D01*
G37*
G36*
X132114939Y-118373180D02*
G01*
X132143429Y-118374947D01*
X132146414Y-118378965D01*
X132151585Y-118408724D01*
X132155435Y-118465527D01*
X132157837Y-118547087D01*
X132158666Y-118651116D01*
X132158666Y-118925382D01*
X132082481Y-118925382D01*
X132065199Y-118925093D01*
X132020815Y-118919325D01*
X132005140Y-118906335D01*
X132005132Y-118906201D01*
X132004718Y-118881821D01*
X132004730Y-118836745D01*
X132005166Y-118780631D01*
X132005329Y-118764303D01*
X132004798Y-118721041D01*
X132000682Y-118697934D01*
X131990497Y-118696135D01*
X131971759Y-118716802D01*
X131941982Y-118761088D01*
X131898683Y-118830151D01*
X131839465Y-118925382D01*
X131747656Y-118925382D01*
X131705705Y-118924469D01*
X131669696Y-118921498D01*
X131655847Y-118917179D01*
X131660568Y-118907541D01*
X131679256Y-118876860D01*
X131708855Y-118830869D01*
X131745818Y-118775169D01*
X131835790Y-118641362D01*
X131744867Y-118509107D01*
X131653945Y-118376851D01*
X131752999Y-118376851D01*
X131852053Y-118376851D01*
X131902510Y-118461612D01*
X131927611Y-118502671D01*
X131957370Y-118548811D01*
X131979125Y-118579699D01*
X131988809Y-118591451D01*
X131998110Y-118597402D01*
X132003104Y-118586277D01*
X132005195Y-118553611D01*
X132005790Y-118494938D01*
X132005827Y-118483427D01*
X132006576Y-118427185D01*
X132011847Y-118394215D01*
X132026695Y-118378326D01*
X132056174Y-118373332D01*
X132105337Y-118373042D01*
X132114939Y-118373180D01*
G37*
G36*
X131811448Y-120642883D02*
G01*
X131822613Y-120679790D01*
X131840319Y-120738579D01*
X131855723Y-120789840D01*
X131869778Y-120836436D01*
X131878241Y-120864284D01*
X131880144Y-120873461D01*
X131874117Y-120884646D01*
X131850235Y-120889740D01*
X131802212Y-120890949D01*
X131717969Y-120890949D01*
X131701359Y-120829264D01*
X131684749Y-120767579D01*
X131598432Y-120772125D01*
X131591700Y-120772481D01*
X131545534Y-120776053D01*
X131520329Y-120783948D01*
X131507550Y-120801441D01*
X131498664Y-120833810D01*
X131485213Y-120890949D01*
X131402923Y-120890949D01*
X131369843Y-120889976D01*
X131334584Y-120885826D01*
X131321076Y-120879521D01*
X131324997Y-120863548D01*
X131336473Y-120822831D01*
X131354101Y-120762357D01*
X131376475Y-120686954D01*
X131390511Y-120640273D01*
X131552780Y-120640273D01*
X131561158Y-120655104D01*
X131592358Y-120658984D01*
X131626070Y-120657765D01*
X131645077Y-120652848D01*
X131645663Y-120642883D01*
X131640891Y-120611110D01*
X131631828Y-120567518D01*
X131620795Y-120522183D01*
X131610117Y-120485180D01*
X131602119Y-120466585D01*
X131600106Y-120467093D01*
X131590945Y-120488781D01*
X131576365Y-120539377D01*
X131556588Y-120618144D01*
X131552780Y-120640273D01*
X131390511Y-120640273D01*
X131402185Y-120601446D01*
X131482853Y-120334800D01*
X131598976Y-120330365D01*
X131715100Y-120325930D01*
X131762855Y-120482734D01*
X131775251Y-120523480D01*
X131799694Y-120604032D01*
X131811448Y-120642883D01*
G37*
G36*
X132498205Y-118362197D02*
G01*
X132585383Y-118377479D01*
X132651963Y-118415042D01*
X132697735Y-118474779D01*
X132713118Y-118510101D01*
X132718221Y-118546786D01*
X132708716Y-118591106D01*
X132693718Y-118628885D01*
X132663225Y-118666667D01*
X132615116Y-118693563D01*
X132542978Y-118714343D01*
X132498125Y-118727324D01*
X132460723Y-118747338D01*
X132448888Y-118768845D01*
X132464994Y-118789554D01*
X132475612Y-118794781D01*
X132522954Y-118802630D01*
X132582020Y-118797713D01*
X132640980Y-118780631D01*
X132651522Y-118776270D01*
X132685054Y-118763084D01*
X132701439Y-118757775D01*
X132703109Y-118760697D01*
X132706037Y-118784846D01*
X132707196Y-118825442D01*
X132706271Y-118855834D01*
X132697229Y-118891075D01*
X132672482Y-118911572D01*
X132624723Y-118926253D01*
X132547854Y-118936804D01*
X132462393Y-118930121D01*
X132388599Y-118904450D01*
X132333674Y-118861397D01*
X132308178Y-118825901D01*
X132283463Y-118761106D01*
X132287139Y-118700591D01*
X132317856Y-118647527D01*
X132374263Y-118605085D01*
X132455011Y-118576437D01*
X132506683Y-118562548D01*
X132542535Y-118544966D01*
X132550076Y-118525497D01*
X132530490Y-118502989D01*
X132498203Y-118490366D01*
X132441003Y-118490972D01*
X132360556Y-118508134D01*
X132349983Y-118510706D01*
X132334121Y-118508975D01*
X132327562Y-118490717D01*
X132326273Y-118448972D01*
X132328708Y-118409797D01*
X132339726Y-118384286D01*
X132364787Y-118369866D01*
X132409351Y-118363417D01*
X132478880Y-118361822D01*
X132498205Y-118362197D01*
G37*
G36*
X129612450Y-118371407D02*
G01*
X129675140Y-118392138D01*
X129702918Y-118407764D01*
X129741724Y-118441913D01*
X129761155Y-118486854D01*
X129766464Y-118551767D01*
X129759483Y-118607760D01*
X129732906Y-118655138D01*
X129683274Y-118689160D01*
X129607236Y-118713226D01*
X129558094Y-118727394D01*
X129520063Y-118747511D01*
X129508065Y-118768893D01*
X129524262Y-118789554D01*
X129534881Y-118794781D01*
X129582222Y-118802630D01*
X129641288Y-118797713D01*
X129700248Y-118780631D01*
X129710790Y-118776270D01*
X129744323Y-118763084D01*
X129760707Y-118757775D01*
X129762377Y-118760697D01*
X129765305Y-118784846D01*
X129766464Y-118825442D01*
X129764855Y-118861950D01*
X129753888Y-118894534D01*
X129726446Y-118913486D01*
X129675560Y-118926563D01*
X129610239Y-118935870D01*
X129520612Y-118932597D01*
X129447161Y-118906197D01*
X129386794Y-118855915D01*
X129349206Y-118796063D01*
X129341121Y-118733416D01*
X129362843Y-118666048D01*
X129380845Y-118637160D01*
X129410394Y-118610431D01*
X129454612Y-118590834D01*
X129521366Y-118573789D01*
X129534126Y-118570919D01*
X129587924Y-118553681D01*
X129611352Y-118534558D01*
X129604387Y-118513568D01*
X129598451Y-118508695D01*
X129557897Y-118494741D01*
X129501290Y-118493617D01*
X129438289Y-118505778D01*
X129370304Y-118526238D01*
X129370304Y-118458786D01*
X129370310Y-118455311D01*
X129373172Y-118413069D01*
X129384572Y-118390213D01*
X129409388Y-118376474D01*
X129460839Y-118364544D01*
X129536207Y-118361926D01*
X129612450Y-118371407D01*
G37*
G36*
X132387220Y-120524783D02*
G01*
X132387220Y-120609065D01*
X132387220Y-120890949D01*
X132311036Y-120890949D01*
X132234851Y-120890949D01*
X132234851Y-120791908D01*
X132234670Y-120768522D01*
X132231896Y-120722670D01*
X132224734Y-120699363D01*
X132211853Y-120692868D01*
X132211733Y-120692869D01*
X132193453Y-120706125D01*
X132168038Y-120741219D01*
X132140016Y-120791908D01*
X132091178Y-120890949D01*
X132003026Y-120890949D01*
X131964507Y-120890205D01*
X131928696Y-120887538D01*
X131914875Y-120883598D01*
X131915301Y-120882043D01*
X131925889Y-120861443D01*
X131947800Y-120823329D01*
X131977161Y-120774485D01*
X131983044Y-120764841D01*
X132011343Y-120716287D01*
X132024840Y-120686331D01*
X132025432Y-120669183D01*
X132015020Y-120659052D01*
X131984581Y-120637819D01*
X131945398Y-120587553D01*
X131929468Y-120529399D01*
X131929639Y-120527735D01*
X132100428Y-120527735D01*
X132113119Y-120563552D01*
X132113956Y-120564505D01*
X132142501Y-120579866D01*
X132183387Y-120586209D01*
X132198288Y-120586066D01*
X132223486Y-120581526D01*
X132233231Y-120564014D01*
X132234851Y-120524783D01*
X132234396Y-120508808D01*
X132224083Y-120467540D01*
X132197534Y-120450669D01*
X132151246Y-120455284D01*
X132137086Y-120460925D01*
X132109879Y-120489375D01*
X132100428Y-120527735D01*
X131929639Y-120527735D01*
X131935620Y-120469560D01*
X131962684Y-120414240D01*
X132009488Y-120369643D01*
X132074863Y-120341973D01*
X132080087Y-120340857D01*
X132128686Y-120334233D01*
X132193331Y-120329473D01*
X132261515Y-120327545D01*
X132387220Y-120327181D01*
X132387220Y-120524783D01*
G37*
G36*
X138903303Y-115035386D02*
G01*
X138821515Y-115198420D01*
X138449869Y-115195873D01*
X138388681Y-115195627D01*
X138279520Y-115196008D01*
X138177361Y-115197349D01*
X138088070Y-115199527D01*
X138017515Y-115202418D01*
X137971563Y-115205901D01*
X137968137Y-115206305D01*
X137914877Y-115212745D01*
X137875135Y-115217821D01*
X137857286Y-115220466D01*
X137853056Y-115216173D01*
X137836289Y-115191280D01*
X137810370Y-115149449D01*
X137778807Y-115096708D01*
X137745111Y-115039085D01*
X137712793Y-114982607D01*
X137685363Y-114933302D01*
X137666330Y-114897199D01*
X137659206Y-114880325D01*
X137664138Y-114878265D01*
X137692944Y-114875223D01*
X137741756Y-114873131D01*
X137803957Y-114872352D01*
X137858003Y-114872651D01*
X137906050Y-114874499D01*
X137933466Y-114878987D01*
X137945827Y-114887187D01*
X137948708Y-114900170D01*
X137955555Y-114926338D01*
X137984479Y-114961721D01*
X138027209Y-114987943D01*
X138074064Y-114997488D01*
X138103147Y-114991567D01*
X138146162Y-114967183D01*
X138179259Y-114931895D01*
X138192499Y-114894358D01*
X138197126Y-114884439D01*
X138216818Y-114877148D01*
X138256750Y-114873407D01*
X138322013Y-114872352D01*
X138354506Y-114872470D01*
X138405750Y-114873990D01*
X138435091Y-114878274D01*
X138448396Y-114886581D01*
X138451527Y-114900170D01*
X138458793Y-114926509D01*
X138487844Y-114961757D01*
X138530077Y-114988633D01*
X138575711Y-114999327D01*
X138607276Y-114992739D01*
X138649473Y-114967593D01*
X138682178Y-114931853D01*
X138695319Y-114894358D01*
X138695435Y-114892487D01*
X138703198Y-114882557D01*
X138726632Y-114876389D01*
X138770661Y-114873237D01*
X138840205Y-114872352D01*
X138985091Y-114872352D01*
X138903303Y-115035386D01*
G37*
G36*
X132826906Y-113386144D02*
G01*
X132880199Y-113390916D01*
X133067772Y-113423478D01*
X133239972Y-113478642D01*
X133394946Y-113555154D01*
X133530841Y-113651757D01*
X133645806Y-113767195D01*
X133737988Y-113900214D01*
X133805534Y-114049557D01*
X133818867Y-114096993D01*
X133834593Y-114193401D01*
X133842123Y-114302713D01*
X133841298Y-114414612D01*
X133831962Y-114518783D01*
X133813960Y-114604909D01*
X133779361Y-114701062D01*
X133702026Y-114848030D01*
X133601812Y-114976022D01*
X133480240Y-115083785D01*
X133338832Y-115170067D01*
X133179110Y-115233613D01*
X133002594Y-115273171D01*
X132914412Y-115282406D01*
X132778944Y-115285500D01*
X132637880Y-115277852D01*
X132500022Y-115260351D01*
X132374173Y-115233881D01*
X132269134Y-115199328D01*
X132219614Y-115178646D01*
X132219614Y-114943397D01*
X132219614Y-114708148D01*
X132307226Y-114744016D01*
X132336629Y-114755485D01*
X132476167Y-114795160D01*
X132614366Y-114811545D01*
X132747045Y-114805133D01*
X132870020Y-114776418D01*
X132979111Y-114725893D01*
X133070134Y-114654051D01*
X133096215Y-114624975D01*
X133155434Y-114531414D01*
X133190227Y-114428445D01*
X133201013Y-114321165D01*
X133188210Y-114214671D01*
X133152236Y-114114059D01*
X133093509Y-114024427D01*
X133012447Y-113950871D01*
X132954460Y-113916042D01*
X132834115Y-113869821D01*
X132699406Y-113847194D01*
X132553679Y-113848284D01*
X132400281Y-113873217D01*
X132242558Y-113922117D01*
X132233902Y-113922782D01*
X132227513Y-113913954D01*
X132223593Y-113891262D01*
X132221779Y-113850557D01*
X132221707Y-113787693D01*
X132223017Y-113698520D01*
X132227232Y-113465807D01*
X132306795Y-113438780D01*
X132378919Y-113419206D01*
X132483711Y-113400780D01*
X132600041Y-113388447D01*
X132717807Y-113383227D01*
X132826906Y-113386144D01*
G37*
G36*
X137302078Y-115903051D02*
G01*
X137298721Y-115932871D01*
X137290831Y-115977043D01*
X137283044Y-116030838D01*
X137277194Y-116120193D01*
X137276084Y-116222018D01*
X137279548Y-116326351D01*
X137287420Y-116423233D01*
X137299537Y-116502706D01*
X137309321Y-116544817D01*
X137362382Y-116696115D01*
X137441115Y-116832213D01*
X137547277Y-116956324D01*
X137572963Y-116981460D01*
X137604548Y-117010686D01*
X137636184Y-117036684D01*
X137671783Y-117061811D01*
X137715256Y-117088425D01*
X137770516Y-117118882D01*
X137841473Y-117155539D01*
X137932040Y-117200752D01*
X138046129Y-117256878D01*
X138131167Y-117298907D01*
X138254586Y-117361713D01*
X138354751Y-117415876D01*
X138434644Y-117463536D01*
X138497243Y-117506832D01*
X138545528Y-117547902D01*
X138582479Y-117588887D01*
X138611075Y-117631925D01*
X138634297Y-117679156D01*
X138646556Y-117709583D01*
X138659352Y-117755415D01*
X138663324Y-117804706D01*
X138660273Y-117870740D01*
X138642225Y-117977469D01*
X138600240Y-118080126D01*
X138536305Y-118163321D01*
X138451527Y-118225176D01*
X138424820Y-118238892D01*
X138391626Y-118252098D01*
X138378898Y-118248516D01*
X138383473Y-118228291D01*
X138406795Y-118164213D01*
X138428598Y-118051190D01*
X138424950Y-117944073D01*
X138395684Y-117848030D01*
X138373997Y-117809004D01*
X138343585Y-117769935D01*
X138302442Y-117731395D01*
X138247112Y-117690874D01*
X138174144Y-117645861D01*
X138080082Y-117593844D01*
X137961474Y-117532311D01*
X137938233Y-117520447D01*
X137846933Y-117472954D01*
X137761701Y-117427298D01*
X137687844Y-117386407D01*
X137630671Y-117353204D01*
X137595491Y-117330616D01*
X137482737Y-117233397D01*
X137378176Y-117105881D01*
X137295446Y-116958993D01*
X137235329Y-116794477D01*
X137198612Y-116614079D01*
X137186076Y-116419542D01*
X137186156Y-116398670D01*
X137189405Y-116299079D01*
X137196938Y-116214277D01*
X137208113Y-116152032D01*
X137223001Y-116100254D01*
X137241728Y-116042009D01*
X137261409Y-115985652D01*
X137279563Y-115937991D01*
X137293709Y-115905837D01*
X137301368Y-115895998D01*
X137302078Y-115903051D01*
G37*
G36*
X142439675Y-116510114D02*
G01*
X142445810Y-116534307D01*
X142458641Y-116586746D01*
X142477912Y-116666356D01*
X142503366Y-116772067D01*
X142534749Y-116902806D01*
X142571803Y-117057501D01*
X142614273Y-117235080D01*
X142661903Y-117434470D01*
X142714438Y-117654600D01*
X142771620Y-117894398D01*
X142833196Y-118152791D01*
X142898907Y-118428707D01*
X142968500Y-118721074D01*
X143041717Y-119028820D01*
X143118302Y-119350873D01*
X143198001Y-119686160D01*
X143280557Y-120033610D01*
X143282467Y-120041651D01*
X143320582Y-120202379D01*
X143356489Y-120354293D01*
X143389580Y-120494788D01*
X143419247Y-120621260D01*
X143444883Y-120731107D01*
X143465880Y-120821725D01*
X143481630Y-120890511D01*
X143491525Y-120934861D01*
X143494959Y-120952172D01*
X143494834Y-120954517D01*
X143490500Y-120960240D01*
X143477740Y-120956781D01*
X143453514Y-120942129D01*
X143414782Y-120914268D01*
X143358504Y-120871185D01*
X143281641Y-120810867D01*
X143121653Y-120684560D01*
X143011317Y-120212559D01*
X142984498Y-120097744D01*
X142946473Y-119934746D01*
X142905972Y-119760934D01*
X142865351Y-119586431D01*
X142826967Y-119421356D01*
X142793178Y-119275832D01*
X142782147Y-119228305D01*
X142755252Y-119112605D01*
X142730258Y-119005348D01*
X142708161Y-118910782D01*
X142689954Y-118833157D01*
X142676631Y-118776722D01*
X142669186Y-118745728D01*
X142663234Y-118723705D01*
X142653092Y-118699073D01*
X142636393Y-118676483D01*
X142608460Y-118651161D01*
X142564618Y-118618337D01*
X142500193Y-118573237D01*
X142497823Y-118568032D01*
X142488537Y-118536980D01*
X142473474Y-118480449D01*
X142453311Y-118401181D01*
X142428724Y-118301921D01*
X142400390Y-118185413D01*
X142368984Y-118054401D01*
X142335184Y-117911629D01*
X142299666Y-117759840D01*
X142112586Y-116955756D01*
X142149741Y-116778751D01*
X142164681Y-116710527D01*
X142178827Y-116651454D01*
X142190185Y-116609739D01*
X142197166Y-116591647D01*
X142209406Y-116585239D01*
X142243172Y-116571733D01*
X142289782Y-116554725D01*
X142340962Y-116537056D01*
X142388437Y-116521570D01*
X142423932Y-116511109D01*
X142439171Y-116508515D01*
X142439675Y-116510114D01*
G37*
G36*
X141745315Y-118102805D02*
G01*
X141763732Y-118126159D01*
X141764335Y-118135904D01*
X141760876Y-118171871D01*
X141752929Y-118226672D01*
X141741717Y-118293484D01*
X141728464Y-118365490D01*
X141714393Y-118435867D01*
X141700728Y-118497797D01*
X141688693Y-118544458D01*
X141677616Y-118560113D01*
X141646885Y-118588357D01*
X141604686Y-118619896D01*
X141569014Y-118644827D01*
X141536124Y-118669398D01*
X141520954Y-118682916D01*
X141520195Y-118684775D01*
X141516900Y-118696141D01*
X141511075Y-118718707D01*
X141502388Y-118753895D01*
X141490503Y-118803129D01*
X141475088Y-118867830D01*
X141455808Y-118949420D01*
X141432330Y-119049322D01*
X141404319Y-119168958D01*
X141371442Y-119309750D01*
X141333365Y-119473120D01*
X141289754Y-119660492D01*
X141240275Y-119873286D01*
X141184594Y-120112925D01*
X141122378Y-120380831D01*
X141051548Y-120685891D01*
X140989540Y-120733269D01*
X140966283Y-120750702D01*
X140937182Y-120771239D01*
X140924565Y-120778232D01*
X140924268Y-120777421D01*
X140926195Y-120758411D01*
X140932925Y-120722914D01*
X140938110Y-120672325D01*
X140934681Y-120624302D01*
X140933668Y-120578362D01*
X140946436Y-120525262D01*
X140961534Y-120476832D01*
X140968462Y-120378830D01*
X140946077Y-120277275D01*
X140894670Y-120174156D01*
X140889676Y-120164981D01*
X140886110Y-120153038D01*
X140884734Y-120136295D01*
X140886018Y-120112263D01*
X140890431Y-120078454D01*
X140898442Y-120032379D01*
X140910519Y-119971549D01*
X140927133Y-119893476D01*
X140948752Y-119795672D01*
X140975845Y-119675646D01*
X141008882Y-119530911D01*
X141048331Y-119358979D01*
X141060088Y-119307817D01*
X141094302Y-119159098D01*
X141126595Y-119018973D01*
X141156270Y-118890458D01*
X141182628Y-118776568D01*
X141204970Y-118680319D01*
X141222598Y-118604727D01*
X141234813Y-118552807D01*
X141240917Y-118527574D01*
X141244544Y-118515248D01*
X141261348Y-118482714D01*
X141292026Y-118452792D01*
X141343575Y-118418011D01*
X141377455Y-118394402D01*
X141434601Y-118348029D01*
X141497086Y-118291757D01*
X141556376Y-118233005D01*
X141617010Y-118172514D01*
X141673335Y-118125271D01*
X141715643Y-118102271D01*
X141745315Y-118102805D01*
G37*
G36*
X128623778Y-114000037D02*
G01*
X128624111Y-114129221D01*
X128625174Y-114262120D01*
X128626894Y-114380450D01*
X128629198Y-114481032D01*
X128632011Y-114560683D01*
X128635259Y-114616224D01*
X128638866Y-114644474D01*
X128649773Y-114672070D01*
X128688019Y-114728199D01*
X128740132Y-114777856D01*
X128796101Y-114810470D01*
X128803230Y-114812958D01*
X128869250Y-114824676D01*
X128947044Y-114824016D01*
X129022410Y-114810949D01*
X129052138Y-114799038D01*
X129108879Y-114757340D01*
X129156444Y-114698924D01*
X129186544Y-114632787D01*
X129188454Y-114623002D01*
X129192535Y-114579233D01*
X129195999Y-114508063D01*
X129198793Y-114411645D01*
X129200862Y-114292129D01*
X129202154Y-114151670D01*
X129202612Y-113992418D01*
X129202697Y-113409605D01*
X129492199Y-113409605D01*
X129547165Y-113409713D01*
X129639821Y-113410702D01*
X129706582Y-113412888D01*
X129750526Y-113416473D01*
X129774732Y-113421660D01*
X129782276Y-113428651D01*
X129782360Y-113431474D01*
X129783721Y-113500606D01*
X129784477Y-113589460D01*
X129784677Y-113694175D01*
X129784372Y-113810889D01*
X129783611Y-113935743D01*
X129782444Y-114064873D01*
X129780924Y-114194419D01*
X129779098Y-114320521D01*
X129777019Y-114439315D01*
X129774735Y-114546942D01*
X129772298Y-114639541D01*
X129769758Y-114713249D01*
X129767164Y-114764205D01*
X129764568Y-114788549D01*
X129757607Y-114812684D01*
X129704547Y-114933763D01*
X129626394Y-115042843D01*
X129527080Y-115135282D01*
X129410538Y-115206437D01*
X129389750Y-115215671D01*
X129308210Y-115244454D01*
X129211592Y-115270428D01*
X129111579Y-115290720D01*
X129019854Y-115302459D01*
X128931844Y-115304788D01*
X128826742Y-115300466D01*
X128719442Y-115290342D01*
X128623693Y-115275357D01*
X128536912Y-115253413D01*
X128403038Y-115199681D01*
X128285408Y-115126711D01*
X128188068Y-115037221D01*
X128115068Y-114933928D01*
X128098731Y-114902493D01*
X128081746Y-114864291D01*
X128067782Y-114823446D01*
X128056544Y-114776866D01*
X128047743Y-114721461D01*
X128041084Y-114654136D01*
X128036277Y-114571801D01*
X128033029Y-114471363D01*
X128031047Y-114349730D01*
X128030040Y-114203810D01*
X128029716Y-114030511D01*
X128029452Y-113409605D01*
X128326572Y-113409605D01*
X128623693Y-113409605D01*
X128623778Y-114000037D01*
G37*
G36*
X142174866Y-115257827D02*
G01*
X142307446Y-115282255D01*
X142430092Y-115332468D01*
X142538951Y-115406248D01*
X142630170Y-115501378D01*
X142699894Y-115615640D01*
X142702422Y-115621064D01*
X142719668Y-115661568D01*
X142730826Y-115699206D01*
X142737192Y-115742308D01*
X142740061Y-115799207D01*
X142740730Y-115878235D01*
X142740638Y-115920435D01*
X142739337Y-115985541D01*
X142735279Y-116032961D01*
X142726941Y-116071193D01*
X142712803Y-116108740D01*
X142691342Y-116154100D01*
X142626752Y-116255502D01*
X142539663Y-116346112D01*
X142437153Y-116419679D01*
X142325407Y-116471781D01*
X142210607Y-116497993D01*
X142128136Y-116506505D01*
X142016623Y-117021354D01*
X141905109Y-117536204D01*
X141863459Y-117478707D01*
X141821110Y-117430872D01*
X141752743Y-117379271D01*
X141681069Y-117348675D01*
X141670169Y-117344603D01*
X141633930Y-117320164D01*
X141598650Y-117284314D01*
X141555015Y-117229629D01*
X141651067Y-116824266D01*
X141675492Y-116722059D01*
X141701971Y-116613120D01*
X141726684Y-116513289D01*
X141748344Y-116427706D01*
X141765663Y-116361517D01*
X141777354Y-116319863D01*
X141784502Y-116295351D01*
X141795640Y-116246312D01*
X141801208Y-116195766D01*
X141801970Y-116134118D01*
X141798689Y-116051769D01*
X141796847Y-116013423D01*
X141795393Y-115941610D01*
X141799030Y-115893646D01*
X141808951Y-115864997D01*
X141826349Y-115851132D01*
X141852415Y-115847517D01*
X141855784Y-115847637D01*
X141874452Y-115858909D01*
X141879842Y-115892920D01*
X141880078Y-115903731D01*
X141896443Y-115982809D01*
X141935191Y-116051265D01*
X141991579Y-116102851D01*
X142060864Y-116131322D01*
X142097974Y-116135638D01*
X142174859Y-116125322D01*
X142244034Y-116092165D01*
X142300949Y-116040924D01*
X142341054Y-115976356D01*
X142359800Y-115903217D01*
X142352636Y-115826266D01*
X142348595Y-115813155D01*
X142308225Y-115737538D01*
X142247072Y-115680203D01*
X142170698Y-115645098D01*
X142084668Y-115636168D01*
X142059321Y-115636900D01*
X142028115Y-115631294D01*
X141999800Y-115612533D01*
X141963567Y-115575172D01*
X141952083Y-115562718D01*
X141892464Y-115508814D01*
X141831581Y-115475756D01*
X141758592Y-115457311D01*
X141695091Y-115447157D01*
X141742884Y-115397847D01*
X141761185Y-115380245D01*
X141850019Y-115319303D01*
X141957342Y-115277493D01*
X142077177Y-115257328D01*
X142174866Y-115257827D01*
G37*
G36*
X137757120Y-115415038D02*
G01*
X137736363Y-115461321D01*
X137720388Y-115495773D01*
X137685016Y-115597650D01*
X137665366Y-115708074D01*
X137659431Y-115836839D01*
X137663136Y-115926447D01*
X137688994Y-116080206D01*
X137739466Y-116216111D01*
X137814488Y-116334048D01*
X137913998Y-116433903D01*
X138037932Y-116515563D01*
X138060793Y-116526556D01*
X138117842Y-116550448D01*
X138195191Y-116580257D01*
X138287439Y-116613976D01*
X138389184Y-116649603D01*
X138495024Y-116685134D01*
X138560729Y-116706965D01*
X138664988Y-116742663D01*
X138761985Y-116777100D01*
X138846273Y-116808288D01*
X138912406Y-116834239D01*
X138954936Y-116852966D01*
X139038174Y-116898303D01*
X139155350Y-116980654D01*
X139245510Y-117072863D01*
X139310472Y-117177460D01*
X139352051Y-117296974D01*
X139372063Y-117433935D01*
X139369457Y-117543741D01*
X139340735Y-117674887D01*
X139286484Y-117798554D01*
X139209413Y-117910082D01*
X139112230Y-118004810D01*
X138997645Y-118078079D01*
X138988723Y-118082489D01*
X138927848Y-118109626D01*
X138891735Y-118119142D01*
X138880233Y-118110957D01*
X138893196Y-118084987D01*
X138930472Y-118041152D01*
X138964199Y-118001094D01*
X139009126Y-117937275D01*
X139043025Y-117877355D01*
X139057721Y-117844278D01*
X139071433Y-117804176D01*
X139079349Y-117761209D01*
X139082986Y-117706182D01*
X139083861Y-117629902D01*
X139083854Y-117618097D01*
X139082963Y-117547436D01*
X139079325Y-117496534D01*
X139071143Y-117455978D01*
X139056624Y-117416356D01*
X139033973Y-117368258D01*
X139010508Y-117324029D01*
X138972101Y-117265458D01*
X138926161Y-117212538D01*
X138869589Y-117163240D01*
X138799280Y-117115532D01*
X138712134Y-117067383D01*
X138605049Y-117016763D01*
X138474921Y-116961641D01*
X138318650Y-116899987D01*
X138219236Y-116861345D01*
X138109011Y-116816979D01*
X138020400Y-116778750D01*
X137949293Y-116744486D01*
X137891580Y-116712018D01*
X137843153Y-116679174D01*
X137799901Y-116643783D01*
X137757714Y-116603675D01*
X137740231Y-116585624D01*
X137659502Y-116484097D01*
X137600533Y-116372515D01*
X137562075Y-116247028D01*
X137542875Y-116103785D01*
X137541683Y-115938939D01*
X137541806Y-115936031D01*
X137554292Y-115797950D01*
X137580018Y-115681336D01*
X137621038Y-115579424D01*
X137679406Y-115485448D01*
X137682085Y-115481805D01*
X137723731Y-115427677D01*
X137750393Y-115398390D01*
X137761659Y-115394119D01*
X137757120Y-115415038D01*
G37*
G36*
X137530249Y-115591591D02*
G01*
X137528663Y-115608300D01*
X137519159Y-115645694D01*
X137503758Y-115695802D01*
X137498485Y-115713495D01*
X137482276Y-115796867D01*
X137472329Y-115898482D01*
X137468744Y-116009140D01*
X137471620Y-116119645D01*
X137481057Y-116220800D01*
X137497156Y-116303407D01*
X137537454Y-116420645D01*
X137610230Y-116558316D01*
X137704684Y-116674737D01*
X137820628Y-116769638D01*
X137848846Y-116787424D01*
X137910056Y-116820940D01*
X137985802Y-116856395D01*
X138079784Y-116895368D01*
X138195700Y-116939439D01*
X138337250Y-116990187D01*
X138344167Y-116992622D01*
X138509715Y-117056555D01*
X138646694Y-117121521D01*
X138756942Y-117188494D01*
X138842292Y-117258451D01*
X138892405Y-117311381D01*
X138940048Y-117377935D01*
X138970245Y-117448971D01*
X138986276Y-117532832D01*
X138991419Y-117637859D01*
X138991444Y-117683859D01*
X138989327Y-117745218D01*
X138983097Y-117791371D01*
X138971155Y-117831978D01*
X138951903Y-117876701D01*
X138938923Y-117902589D01*
X138874389Y-117999503D01*
X138794486Y-118081153D01*
X138706298Y-118139946D01*
X138676951Y-118154492D01*
X138639645Y-118171861D01*
X138623697Y-118175808D01*
X138625300Y-118166595D01*
X138640647Y-118144488D01*
X138654798Y-118122778D01*
X138680493Y-118077844D01*
X138707250Y-118026401D01*
X138723996Y-117989962D01*
X138739329Y-117942843D01*
X138746604Y-117890628D01*
X138748341Y-117820703D01*
X138748167Y-117805584D01*
X138738203Y-117709176D01*
X138710350Y-117626220D01*
X138660992Y-117548858D01*
X138586509Y-117469231D01*
X138583004Y-117465929D01*
X138540721Y-117427925D01*
X138498493Y-117394582D01*
X138451613Y-117363194D01*
X138395374Y-117331055D01*
X138325067Y-117295460D01*
X138235986Y-117253702D01*
X138123421Y-117203077D01*
X138068220Y-117178274D01*
X137980266Y-117137776D01*
X137898641Y-117099092D01*
X137830556Y-117065659D01*
X137783219Y-117040913D01*
X137714771Y-116997542D01*
X137601876Y-116900285D01*
X137505518Y-116782927D01*
X137429960Y-116651073D01*
X137379465Y-116510325D01*
X137375246Y-116493060D01*
X137352838Y-116359285D01*
X137344516Y-116216595D01*
X137349992Y-116074117D01*
X137368975Y-115940980D01*
X137401176Y-115826310D01*
X137401935Y-115824316D01*
X137422162Y-115776722D01*
X137447672Y-115723871D01*
X137474847Y-115672343D01*
X137500071Y-115628723D01*
X137519726Y-115599592D01*
X137530195Y-115591532D01*
X137530249Y-115591591D01*
G37*
G36*
X130724399Y-113459125D02*
G01*
X130725592Y-113463074D01*
X130734737Y-113495624D01*
X130750458Y-113553242D01*
X130771820Y-113632440D01*
X130797886Y-113729730D01*
X130827722Y-113841623D01*
X130860393Y-113964632D01*
X130894963Y-114095268D01*
X130905892Y-114136578D01*
X130939504Y-114262795D01*
X130970710Y-114378766D01*
X130998627Y-114481283D01*
X131022371Y-114567141D01*
X131041057Y-114633135D01*
X131053801Y-114676058D01*
X131059719Y-114692704D01*
X131062506Y-114688535D01*
X131072693Y-114659700D01*
X131089192Y-114606159D01*
X131111163Y-114530858D01*
X131137768Y-114436742D01*
X131168165Y-114326758D01*
X131201515Y-114203851D01*
X131236978Y-114070968D01*
X131258287Y-113990622D01*
X131292679Y-113861587D01*
X131324389Y-113743393D01*
X131352573Y-113639144D01*
X131376386Y-113551946D01*
X131394982Y-113484903D01*
X131407516Y-113441122D01*
X131413143Y-113423707D01*
X131430746Y-113418967D01*
X131475984Y-113415414D01*
X131545949Y-113413192D01*
X131637766Y-113412394D01*
X131748557Y-113413109D01*
X132075264Y-113417223D01*
X131754661Y-114330854D01*
X131744886Y-114358706D01*
X131680744Y-114541177D01*
X131625661Y-114697184D01*
X131578849Y-114828779D01*
X131539516Y-114938009D01*
X131506872Y-115026925D01*
X131480129Y-115097576D01*
X131458494Y-115152012D01*
X131441179Y-115192281D01*
X131427394Y-115220435D01*
X131416348Y-115238521D01*
X131407251Y-115248589D01*
X131399314Y-115252690D01*
X131393770Y-115253543D01*
X131359219Y-115255654D01*
X131300958Y-115257208D01*
X131224001Y-115258134D01*
X131133362Y-115258363D01*
X131034054Y-115257823D01*
X130938378Y-115256648D01*
X130845221Y-115254541D01*
X130777040Y-115251523D01*
X130730799Y-115247390D01*
X130703459Y-115241939D01*
X130691984Y-115234967D01*
X130691514Y-115234022D01*
X130683037Y-115212207D01*
X130665839Y-115165258D01*
X130640969Y-115096167D01*
X130609478Y-115007927D01*
X130572413Y-114903530D01*
X130530825Y-114785969D01*
X130485763Y-114658235D01*
X130438276Y-114523321D01*
X130389413Y-114384220D01*
X130340223Y-114243923D01*
X130291757Y-114105424D01*
X130245063Y-113971714D01*
X130201190Y-113845785D01*
X130161188Y-113730631D01*
X130126107Y-113629243D01*
X130096994Y-113544614D01*
X130074901Y-113479736D01*
X130060875Y-113437601D01*
X130055967Y-113421202D01*
X130058102Y-113419876D01*
X130082971Y-113416596D01*
X130132240Y-113413772D01*
X130201503Y-113411561D01*
X130286352Y-113410120D01*
X130382379Y-113409605D01*
X130708792Y-113409605D01*
X130724399Y-113459125D01*
G37*
G36*
X141614148Y-117412179D02*
G01*
X141626431Y-117417174D01*
X141669683Y-117426737D01*
X141724885Y-117456129D01*
X141776568Y-117498477D01*
X141814524Y-117546748D01*
X141835114Y-117593675D01*
X141849117Y-117678589D01*
X141850416Y-117701395D01*
X141851379Y-117718315D01*
X141864254Y-117757879D01*
X141893843Y-117794267D01*
X141900141Y-117800815D01*
X141944244Y-117869489D01*
X141962999Y-117948882D01*
X141955837Y-118032590D01*
X141922192Y-118114207D01*
X141896063Y-118149549D01*
X141859943Y-118181594D01*
X141827895Y-118194008D01*
X141824551Y-118182089D01*
X141828084Y-118151866D01*
X141828733Y-118114839D01*
X141807715Y-118069446D01*
X141765677Y-118038097D01*
X141707987Y-118026401D01*
X141689400Y-118026819D01*
X141660771Y-118031734D01*
X141634616Y-118046011D01*
X141603636Y-118074357D01*
X141560532Y-118121479D01*
X141486602Y-118202404D01*
X141416136Y-118272773D01*
X141349262Y-118330438D01*
X141278607Y-118381711D01*
X141196798Y-118432906D01*
X141152010Y-118460416D01*
X141079307Y-118512178D01*
X141031128Y-118559712D01*
X141004425Y-118606399D01*
X140996156Y-118655618D01*
X140996849Y-118664810D01*
X141014213Y-118708980D01*
X141047877Y-118750213D01*
X141088386Y-118776154D01*
X141096421Y-118779973D01*
X141098886Y-118792863D01*
X141079902Y-118818295D01*
X141051744Y-118844752D01*
X141018954Y-118866181D01*
X141006621Y-118870387D01*
X140953564Y-118875665D01*
X140888692Y-118869873D01*
X140823899Y-118854667D01*
X140771078Y-118831700D01*
X140742457Y-118810395D01*
X140696487Y-118771666D01*
X140637865Y-118719641D01*
X140571148Y-118658370D01*
X140500898Y-118591897D01*
X140449149Y-118542514D01*
X140327637Y-118429805D01*
X140223382Y-118338436D01*
X140134660Y-118266989D01*
X140059746Y-118214052D01*
X139996918Y-118178209D01*
X139984278Y-118172374D01*
X139911307Y-118147739D01*
X139837917Y-118135798D01*
X139773059Y-118137373D01*
X139725685Y-118153288D01*
X139714665Y-118160148D01*
X139696309Y-118166605D01*
X139675879Y-118161838D01*
X139646125Y-118143254D01*
X139599798Y-118108258D01*
X139594560Y-118104207D01*
X139550173Y-118069562D01*
X139515861Y-118042246D01*
X139498677Y-118027868D01*
X139499423Y-118020615D01*
X139515838Y-117994858D01*
X139547437Y-117956193D01*
X139590194Y-117909811D01*
X139652583Y-117837481D01*
X139728390Y-117722815D01*
X139786706Y-117600167D01*
X139824281Y-117476752D01*
X139837865Y-117359785D01*
X139837914Y-117356077D01*
X139841676Y-117323612D01*
X139849518Y-117310304D01*
X139849581Y-117310304D01*
X139871447Y-117318748D01*
X139912235Y-117341360D01*
X139966193Y-117374495D01*
X140027570Y-117414506D01*
X140090615Y-117457745D01*
X140149577Y-117500566D01*
X140191891Y-117533677D01*
X140254273Y-117584557D01*
X140328030Y-117646178D01*
X140407237Y-117713586D01*
X140485969Y-117781827D01*
X140515892Y-117807978D01*
X140601115Y-117881529D01*
X140667977Y-117937158D01*
X140719570Y-117976977D01*
X140758985Y-118003099D01*
X140789312Y-118017637D01*
X140813642Y-118022702D01*
X140835066Y-118020407D01*
X140840379Y-118018443D01*
X140870553Y-117998686D01*
X140911724Y-117963835D01*
X140956592Y-117919925D01*
X141044352Y-117827918D01*
X141041225Y-117779680D01*
X141488089Y-117779680D01*
X141488112Y-117779829D01*
X141493193Y-117803450D01*
X141496635Y-117802899D01*
X141500370Y-117791929D01*
X141527610Y-117764974D01*
X141573894Y-117741592D01*
X141631071Y-117725279D01*
X141690991Y-117719531D01*
X141713595Y-117719354D01*
X141756161Y-117713960D01*
X141769109Y-117701395D01*
X141752428Y-117681705D01*
X141706108Y-117654939D01*
X141671490Y-117639898D01*
X141634413Y-117634418D01*
X141590533Y-117643619D01*
X141583239Y-117646041D01*
X141538864Y-117669596D01*
X141507291Y-117699794D01*
X141491850Y-117736395D01*
X141488089Y-117779680D01*
X141041225Y-117779680D01*
X141033661Y-117662972D01*
X141029796Y-117595549D01*
X141028818Y-117546494D01*
X141255926Y-117546494D01*
X141264375Y-117606139D01*
X141264724Y-117607037D01*
X141279985Y-117628453D01*
X141295384Y-117620815D01*
X141308270Y-117585377D01*
X141312329Y-117573016D01*
X141338632Y-117530662D01*
X141379489Y-117485750D01*
X141425876Y-117447327D01*
X141468773Y-117424437D01*
X141469552Y-117424187D01*
X141488951Y-117412179D01*
X141482524Y-117400050D01*
X141454668Y-117390612D01*
X141409782Y-117386683D01*
X141353629Y-117399866D01*
X141305509Y-117435879D01*
X141271289Y-117487248D01*
X141255926Y-117546494D01*
X141028818Y-117546494D01*
X141028667Y-117538941D01*
X141031778Y-117497693D01*
X141039807Y-117463776D01*
X141053435Y-117429158D01*
X141098795Y-117359219D01*
X141166997Y-117301091D01*
X141249032Y-117262987D01*
X141337394Y-117249651D01*
X141357929Y-117251053D01*
X141429236Y-117271215D01*
X141498018Y-117310313D01*
X141552015Y-117361936D01*
X141559580Y-117371348D01*
X141595216Y-117404480D01*
X141614148Y-117412179D01*
G37*
G36*
X141704061Y-115527771D02*
G01*
X141704473Y-115527876D01*
X141730153Y-115530401D01*
X141778511Y-115544913D01*
X141793600Y-115549441D01*
X141856730Y-115581725D01*
X141905491Y-115620762D01*
X141925378Y-115645837D01*
X141958756Y-115711793D01*
X141971264Y-115778717D01*
X141971028Y-115792464D01*
X141966205Y-115805983D01*
X141948958Y-115804967D01*
X141911340Y-115791053D01*
X141859603Y-115777224D01*
X141796152Y-115782861D01*
X141742377Y-115817376D01*
X141732558Y-115828629D01*
X141723617Y-115846128D01*
X141718099Y-115872254D01*
X141715406Y-115912465D01*
X141714939Y-115972218D01*
X141716100Y-116056970D01*
X141719854Y-116266533D01*
X141662929Y-116380811D01*
X141661727Y-116383220D01*
X141625945Y-116452798D01*
X141586832Y-116525694D01*
X141552643Y-116586509D01*
X141528627Y-116631818D01*
X141502607Y-116708039D01*
X141503083Y-116770467D01*
X141529985Y-116819809D01*
X141554796Y-116843177D01*
X141571887Y-116853389D01*
X141578779Y-116854832D01*
X141603204Y-116866604D01*
X141610999Y-116875227D01*
X141610644Y-116903256D01*
X141591647Y-116940665D01*
X141558476Y-116982277D01*
X141515597Y-117022916D01*
X141467477Y-117057404D01*
X141418582Y-117080566D01*
X141399951Y-117084350D01*
X141347627Y-117089464D01*
X141267267Y-117093877D01*
X141160330Y-117097531D01*
X141028273Y-117100367D01*
X140872554Y-117102328D01*
X140742554Y-117103683D01*
X140624987Y-117105467D01*
X140530985Y-117107740D01*
X140456926Y-117110692D01*
X140399186Y-117114515D01*
X140354143Y-117119399D01*
X140318173Y-117125535D01*
X140287653Y-117133113D01*
X140241678Y-117147429D01*
X140166241Y-117178779D01*
X140112425Y-117215412D01*
X140074263Y-117260904D01*
X140069157Y-117268828D01*
X140048449Y-117297850D01*
X140036171Y-117310108D01*
X140033427Y-117310076D01*
X140007942Y-117301141D01*
X139968718Y-117281227D01*
X139923946Y-117255274D01*
X139881813Y-117228226D01*
X139850508Y-117205026D01*
X139838219Y-117190617D01*
X139836790Y-117181427D01*
X139827639Y-117146251D01*
X139811901Y-117093859D01*
X139791776Y-117031770D01*
X139776966Y-116990111D01*
X139704360Y-116835809D01*
X139610575Y-116703037D01*
X139494810Y-116590984D01*
X139356269Y-116498841D01*
X139194151Y-116425799D01*
X139114335Y-116396579D01*
X139297178Y-116403585D01*
X139401462Y-116407572D01*
X139539596Y-116412861D01*
X139655756Y-116417393D01*
X139754701Y-116421437D01*
X139841192Y-116425259D01*
X139919991Y-116429127D01*
X139995859Y-116433309D01*
X140073556Y-116438074D01*
X140157843Y-116443687D01*
X140253482Y-116450418D01*
X140365233Y-116458534D01*
X140497858Y-116468302D01*
X140656117Y-116479990D01*
X140720635Y-116484509D01*
X140828089Y-116490667D01*
X140912032Y-116493463D01*
X140970213Y-116492839D01*
X141000378Y-116488739D01*
X141029790Y-116467717D01*
X141053905Y-116431612D01*
X141070851Y-116384541D01*
X141095280Y-116300806D01*
X141111875Y-116222161D01*
X141117994Y-116159815D01*
X141117482Y-116139494D01*
X141112285Y-116111426D01*
X141097610Y-116085461D01*
X141068785Y-116054429D01*
X141021139Y-116011158D01*
X141009977Y-116001099D01*
X140962080Y-115953593D01*
X140922611Y-115907920D01*
X140899204Y-115872743D01*
X140884470Y-115832032D01*
X140872727Y-115750724D01*
X140878310Y-115667323D01*
X140886534Y-115641424D01*
X141058824Y-115641424D01*
X141061424Y-115681519D01*
X141062994Y-115691197D01*
X141077296Y-115738749D01*
X141097486Y-115773926D01*
X141121074Y-115796505D01*
X141152598Y-115819253D01*
X141166971Y-115825727D01*
X141174289Y-115819990D01*
X141168423Y-115791177D01*
X141162360Y-115760953D01*
X141158889Y-115689200D01*
X141161491Y-115665935D01*
X141364445Y-115665935D01*
X141365362Y-115727007D01*
X141369068Y-115753467D01*
X141381061Y-115799130D01*
X141396133Y-115827447D01*
X141401606Y-115832667D01*
X141414327Y-115838600D01*
X141422658Y-115824163D01*
X141430560Y-115784408D01*
X141453340Y-115700720D01*
X141493640Y-115626972D01*
X141547055Y-115576240D01*
X141596533Y-115544913D01*
X141553736Y-115534172D01*
X141535576Y-115531524D01*
X141479764Y-115540273D01*
X141425161Y-115568522D01*
X141383472Y-115610990D01*
X141376909Y-115622255D01*
X141364445Y-115665935D01*
X141161491Y-115665935D01*
X141166909Y-115617504D01*
X141185360Y-115560336D01*
X141186029Y-115559043D01*
X141200789Y-115527771D01*
X141200586Y-115514845D01*
X141185428Y-115512304D01*
X141174264Y-115515314D01*
X141142971Y-115534681D01*
X141106903Y-115566059D01*
X141093133Y-115580118D01*
X141067710Y-115611898D01*
X141058824Y-115641424D01*
X140886534Y-115641424D01*
X140901125Y-115595476D01*
X140912374Y-115574819D01*
X140960287Y-115511975D01*
X141021821Y-115468471D01*
X141101871Y-115441624D01*
X141205331Y-115428752D01*
X141275085Y-115424119D01*
X141349254Y-115418214D01*
X141409368Y-115412466D01*
X141465041Y-115409091D01*
X141511142Y-115415669D01*
X141558023Y-115435179D01*
X141574755Y-115444400D01*
X141614917Y-115472129D01*
X141639810Y-115497425D01*
X141659623Y-115516439D01*
X141704061Y-115527771D01*
G37*
G36*
X140769486Y-120129107D02*
G01*
X140778658Y-120168709D01*
X140813595Y-120213230D01*
X140819370Y-120219064D01*
X140853615Y-120265044D01*
X140876500Y-120313604D01*
X140884655Y-120361366D01*
X140883734Y-120426617D01*
X140876683Y-120465642D01*
X140872561Y-120488454D01*
X140852555Y-120533806D01*
X140840273Y-120563159D01*
X140847220Y-120604910D01*
X140854924Y-120635106D01*
X140853875Y-120710345D01*
X140828189Y-120785521D01*
X140780856Y-120853782D01*
X140714864Y-120908274D01*
X140687045Y-120922251D01*
X140651214Y-120933691D01*
X140621815Y-120937347D01*
X140606302Y-120932486D01*
X140612127Y-120918375D01*
X140627123Y-120890381D01*
X140630680Y-120843537D01*
X140619354Y-120794514D01*
X140594504Y-120755869D01*
X140584533Y-120747135D01*
X140525702Y-120717157D01*
X140459424Y-120716489D01*
X140386620Y-120745177D01*
X140335260Y-120774203D01*
X140261952Y-120813080D01*
X140204486Y-120838604D01*
X140156721Y-120852903D01*
X140112515Y-120858103D01*
X140065726Y-120856334D01*
X140035884Y-120852305D01*
X139945233Y-120827800D01*
X139835184Y-120782573D01*
X139724409Y-120738594D01*
X139629242Y-120717429D01*
X139547577Y-120719147D01*
X139476470Y-120743427D01*
X139458056Y-120754991D01*
X139415661Y-120798338D01*
X139389429Y-120850765D01*
X139385342Y-120901870D01*
X139386314Y-120907098D01*
X139387104Y-120928396D01*
X139373467Y-120934265D01*
X139337751Y-120929082D01*
X139270520Y-120910001D01*
X139207453Y-120872942D01*
X139146851Y-120813019D01*
X139141996Y-120807315D01*
X139113224Y-120771103D01*
X139090359Y-120735412D01*
X139072768Y-120696367D01*
X139059818Y-120650097D01*
X139050876Y-120592728D01*
X139045309Y-120520388D01*
X139043745Y-120469895D01*
X140432331Y-120469895D01*
X140435899Y-120482755D01*
X140451336Y-120480819D01*
X140485262Y-120462530D01*
X140535528Y-120441648D01*
X140607556Y-120431300D01*
X140665287Y-120437997D01*
X140729851Y-120462530D01*
X140754409Y-120475950D01*
X140777201Y-120481709D01*
X140779976Y-120465642D01*
X140764578Y-120425796D01*
X140730663Y-120382638D01*
X140673312Y-120352917D01*
X140599171Y-120342418D01*
X140562120Y-120345122D01*
X140524104Y-120360143D01*
X140484137Y-120394224D01*
X140468217Y-120411303D01*
X140442487Y-120445590D01*
X140432331Y-120469895D01*
X139043745Y-120469895D01*
X139042485Y-120429203D01*
X139041768Y-120315302D01*
X139042528Y-120174812D01*
X139042532Y-120174313D01*
X139043756Y-120061401D01*
X139045435Y-119955992D01*
X139047455Y-119862683D01*
X139049699Y-119786065D01*
X139052053Y-119730734D01*
X139054401Y-119701282D01*
X139062797Y-119646769D01*
X138974727Y-119627060D01*
X138950851Y-119620818D01*
X138868751Y-119581819D01*
X138807706Y-119521774D01*
X138769609Y-119443098D01*
X138756351Y-119348207D01*
X138756730Y-119321528D01*
X138762829Y-119309491D01*
X138782222Y-119312762D01*
X138822483Y-119329161D01*
X138877073Y-119346343D01*
X138941960Y-119347242D01*
X138992005Y-119321763D01*
X139025905Y-119270700D01*
X139042359Y-119194848D01*
X139044686Y-119147165D01*
X139040653Y-119114828D01*
X139028589Y-119101631D01*
X139028039Y-119101453D01*
X138999464Y-119096921D01*
X138946088Y-119092391D01*
X138873363Y-119088105D01*
X138786745Y-119084302D01*
X138691686Y-119081225D01*
X138593639Y-119079113D01*
X138498059Y-119078207D01*
X138308417Y-119077751D01*
X138359271Y-119025283D01*
X138384288Y-118996469D01*
X138407116Y-118952701D01*
X138417594Y-118895077D01*
X138418550Y-118884553D01*
X138419574Y-118838318D01*
X138410761Y-118807286D01*
X138389049Y-118779001D01*
X138353034Y-118740665D01*
X138441943Y-118565369D01*
X138480433Y-118493517D01*
X138521138Y-118424516D01*
X138558567Y-118367448D01*
X138587870Y-118330132D01*
X138610814Y-118306519D01*
X138636087Y-118285648D01*
X138663119Y-118274849D01*
X138701481Y-118270804D01*
X138760745Y-118270193D01*
X138768975Y-118270222D01*
X138875878Y-118274763D01*
X138996061Y-118286173D01*
X139122232Y-118303212D01*
X139247099Y-118324640D01*
X139363372Y-118349218D01*
X139463760Y-118375706D01*
X139540970Y-118402864D01*
X139549397Y-118406560D01*
X139645313Y-118463987D01*
X139716703Y-118539401D01*
X139763876Y-118633235D01*
X139787142Y-118745920D01*
X139787709Y-118753435D01*
X139788421Y-118806665D01*
X139786006Y-118884062D01*
X139780807Y-118980567D01*
X139773168Y-119091123D01*
X139763429Y-119210671D01*
X139751935Y-119334155D01*
X139739026Y-119456516D01*
X139738584Y-119460819D01*
X139735711Y-119501111D01*
X139732312Y-119565020D01*
X139728653Y-119646746D01*
X139724995Y-119740489D01*
X139721603Y-119840451D01*
X139718880Y-119932691D01*
X139717012Y-120018758D01*
X139716833Y-120082246D01*
X139718524Y-120127439D01*
X139722267Y-120158624D01*
X139728242Y-120180087D01*
X139736630Y-120196113D01*
X139743634Y-120205430D01*
X139791746Y-120239055D01*
X139867049Y-120259313D01*
X139969359Y-120266148D01*
X139970829Y-120266148D01*
X140046326Y-120259392D01*
X140099761Y-120236481D01*
X140125385Y-120206699D01*
X140389390Y-120206699D01*
X140396751Y-120215225D01*
X140416123Y-120198837D01*
X140453589Y-120170563D01*
X140511206Y-120147583D01*
X140576524Y-120134399D01*
X140638032Y-120134357D01*
X140685144Y-120137138D01*
X140704535Y-120129107D01*
X140695268Y-120110894D01*
X140657076Y-120083223D01*
X140628999Y-120068747D01*
X140560305Y-120053411D01*
X140495560Y-120064627D01*
X140440752Y-120100602D01*
X140401869Y-120159547D01*
X140395354Y-120176878D01*
X140389390Y-120206699D01*
X140125385Y-120206699D01*
X140137080Y-120193106D01*
X140164230Y-120124960D01*
X140201439Y-120031678D01*
X140257653Y-119953995D01*
X140329926Y-119902176D01*
X140337068Y-119898830D01*
X140420659Y-119874231D01*
X140505391Y-119872454D01*
X140586159Y-119890984D01*
X140657861Y-119927307D01*
X140715394Y-119978906D01*
X140753656Y-120043267D01*
X140767544Y-120117875D01*
X140767572Y-120120842D01*
X140769486Y-120129107D01*
G37*
G36*
X139129769Y-115299366D02*
G01*
X139131674Y-115299786D01*
X139148278Y-115306696D01*
X139161278Y-115317583D01*
X139166790Y-115337469D01*
X139166425Y-115373474D01*
X139161797Y-115432718D01*
X139158085Y-115475224D01*
X139149744Y-115558929D01*
X139141803Y-115617494D01*
X139133519Y-115654674D01*
X139124151Y-115674228D01*
X139112956Y-115679911D01*
X139091924Y-115669618D01*
X139067727Y-115642588D01*
X139058456Y-115630077D01*
X139010826Y-115594159D01*
X138951203Y-115580597D01*
X138885958Y-115588845D01*
X138821456Y-115618357D01*
X138764069Y-115668589D01*
X138760669Y-115672620D01*
X138730165Y-115715134D01*
X138708976Y-115755553D01*
X138698117Y-115788924D01*
X138698605Y-115810293D01*
X138711456Y-115814707D01*
X138737685Y-115797215D01*
X138758826Y-115780616D01*
X138833166Y-115744683D01*
X138928186Y-115722859D01*
X139038831Y-115716010D01*
X139160046Y-115725000D01*
X139178818Y-115727550D01*
X139330915Y-115744845D01*
X139456964Y-115752157D01*
X139559501Y-115749283D01*
X139641063Y-115736021D01*
X139704187Y-115712165D01*
X139751410Y-115677513D01*
X139753829Y-115675083D01*
X139780852Y-115642834D01*
X139790760Y-115611251D01*
X139788563Y-115565183D01*
X139785801Y-115524350D01*
X139792287Y-115508150D01*
X139812061Y-115516184D01*
X139849076Y-115547286D01*
X139881039Y-115587725D01*
X139904956Y-115654019D01*
X139909278Y-115728049D01*
X139893747Y-115800822D01*
X139858106Y-115863350D01*
X139817732Y-115905187D01*
X139766926Y-115939911D01*
X139705631Y-115961983D01*
X139627388Y-115973613D01*
X139525733Y-115977009D01*
X139514104Y-115977008D01*
X139447620Y-115976466D01*
X139396837Y-115973644D01*
X139352982Y-115966668D01*
X139307286Y-115953659D01*
X139250976Y-115932743D01*
X139175283Y-115902043D01*
X139146915Y-115890663D01*
X139023351Y-115848416D01*
X138920768Y-115826899D01*
X138838175Y-115825973D01*
X138774583Y-115845497D01*
X138757713Y-115856661D01*
X138726579Y-115896932D01*
X138718634Y-115943958D01*
X138733971Y-115989009D01*
X138772683Y-116023352D01*
X138826927Y-116040485D01*
X138900134Y-116037917D01*
X138974193Y-116010835D01*
X139042230Y-115960836D01*
X139061135Y-115943926D01*
X139092017Y-115922790D01*
X139110909Y-115918675D01*
X139115136Y-115931193D01*
X139118039Y-115968122D01*
X139118673Y-116021743D01*
X139117318Y-116084522D01*
X139114254Y-116148926D01*
X139109760Y-116207423D01*
X139104117Y-116252481D01*
X139097606Y-116276567D01*
X139094958Y-116278685D01*
X139068792Y-116283388D01*
X139021755Y-116284218D01*
X138961070Y-116281452D01*
X138893958Y-116275367D01*
X138827642Y-116266238D01*
X138801762Y-116262903D01*
X138751884Y-116257430D01*
X138686015Y-116250705D01*
X138611515Y-116243502D01*
X138582542Y-116240712D01*
X138478631Y-116229078D01*
X138396891Y-116216331D01*
X138330631Y-116200995D01*
X138273160Y-116181595D01*
X138217789Y-116156655D01*
X138184485Y-116138752D01*
X138083107Y-116064524D01*
X138004153Y-115973296D01*
X137950025Y-115868355D01*
X137923124Y-115752992D01*
X137923042Y-115752213D01*
X137915386Y-115703983D01*
X137906716Y-115684706D01*
X137898462Y-115692981D01*
X137892052Y-115727403D01*
X137888916Y-115786569D01*
X137898240Y-115885537D01*
X137935211Y-115989332D01*
X137999301Y-116080301D01*
X138089497Y-116156578D01*
X138141223Y-116187134D01*
X138220478Y-116223893D01*
X138318673Y-116259965D01*
X138438654Y-116296276D01*
X138583267Y-116333752D01*
X138755358Y-116373320D01*
X138820176Y-116387822D01*
X138961546Y-116422506D01*
X139079293Y-116457158D01*
X139178186Y-116493970D01*
X139262993Y-116535135D01*
X139338482Y-116582843D01*
X139409421Y-116639287D01*
X139480578Y-116706658D01*
X139490763Y-116717054D01*
X139557169Y-116790552D01*
X139613011Y-116862064D01*
X139651613Y-116923140D01*
X139703168Y-117045761D01*
X139737658Y-117196907D01*
X139744578Y-117352592D01*
X139723207Y-117506927D01*
X139696521Y-117594778D01*
X139633717Y-117724176D01*
X139548634Y-117839611D01*
X139444955Y-117937194D01*
X139326364Y-118013032D01*
X139196544Y-118063236D01*
X139171878Y-118069834D01*
X139128272Y-118080912D01*
X139108990Y-118084051D01*
X139110437Y-118079476D01*
X139129017Y-118067407D01*
X139158096Y-118047479D01*
X139221592Y-117992653D01*
X139285865Y-117925280D01*
X139342112Y-117854982D01*
X139381531Y-117791382D01*
X139398088Y-117755765D01*
X139445824Y-117612422D01*
X139464342Y-117470328D01*
X139454598Y-117332092D01*
X139417544Y-117200320D01*
X139354133Y-117077619D01*
X139265319Y-116966595D01*
X139152055Y-116869855D01*
X139015295Y-116790008D01*
X138995560Y-116781211D01*
X138939303Y-116758536D01*
X138862628Y-116729518D01*
X138771106Y-116696205D01*
X138670308Y-116660643D01*
X138565805Y-116624880D01*
X138511060Y-116606262D01*
X138407056Y-116569916D01*
X138309284Y-116534559D01*
X138223430Y-116502303D01*
X138155180Y-116475263D01*
X138110218Y-116455550D01*
X138108455Y-116454687D01*
X137981445Y-116378163D01*
X137880200Y-116286107D01*
X137805127Y-116178980D01*
X137756635Y-116057239D01*
X137750976Y-116032525D01*
X137740649Y-115956049D01*
X137735245Y-115864863D01*
X137734924Y-115769867D01*
X137739843Y-115681963D01*
X137750161Y-115612052D01*
X137757865Y-115583536D01*
X137784870Y-115511535D01*
X137820701Y-115437956D01*
X137859984Y-115373187D01*
X137897342Y-115327616D01*
X137934565Y-115292647D01*
X137911163Y-115348657D01*
X137897661Y-115388904D01*
X137889423Y-115458293D01*
X137899431Y-115520027D01*
X137924909Y-115569605D01*
X137963082Y-115602526D01*
X138011175Y-115614289D01*
X138066410Y-115600393D01*
X138093715Y-115583657D01*
X138111184Y-115564766D01*
X138109798Y-115552663D01*
X138086955Y-115553309D01*
X138055894Y-115557644D01*
X138008616Y-115546510D01*
X137974610Y-115516078D01*
X137955871Y-115472423D01*
X137954397Y-115421619D01*
X137962616Y-115397646D01*
X138387153Y-115397646D01*
X138407003Y-115403264D01*
X138455714Y-115405412D01*
X138499086Y-115406271D01*
X138530809Y-115411189D01*
X138548039Y-115423670D01*
X138559517Y-115447237D01*
X138575038Y-115478467D01*
X138593423Y-115500333D01*
X138598474Y-115503455D01*
X138618005Y-115510666D01*
X138638883Y-115503644D01*
X138671941Y-115479519D01*
X138683725Y-115468317D01*
X138712848Y-115429788D01*
X138741310Y-115381324D01*
X138762924Y-115334119D01*
X138771503Y-115299366D01*
X138770095Y-115297277D01*
X138751427Y-115299992D01*
X138717987Y-115314319D01*
X138712023Y-115317129D01*
X138666595Y-115332579D01*
X138604708Y-115347695D01*
X138537951Y-115359563D01*
X138487541Y-115367353D01*
X138428744Y-115378954D01*
X138394841Y-115389297D01*
X138387153Y-115397646D01*
X137962616Y-115397646D01*
X137972183Y-115369740D01*
X138011225Y-115322861D01*
X138013435Y-115321041D01*
X138061294Y-115291776D01*
X138112954Y-115272929D01*
X138153641Y-115267560D01*
X138221042Y-115263538D01*
X138307648Y-115261299D01*
X138408491Y-115260712D01*
X138518603Y-115261647D01*
X138633018Y-115263972D01*
X138746768Y-115267557D01*
X138854885Y-115272270D01*
X138952401Y-115277980D01*
X139034350Y-115284557D01*
X139095764Y-115291869D01*
X139129769Y-115299366D01*
G37*
G36*
X137821896Y-120129591D02*
G01*
X137837940Y-120181164D01*
X137860438Y-120215757D01*
X137899562Y-120263965D01*
X137927835Y-120337531D01*
X137932417Y-120419266D01*
X137913082Y-120497000D01*
X137911942Y-120501583D01*
X137898506Y-120556406D01*
X137898662Y-120644096D01*
X137900110Y-120661554D01*
X137900840Y-120714342D01*
X137891986Y-120755382D01*
X137870991Y-120798996D01*
X137864032Y-120810374D01*
X137822208Y-120860600D01*
X137773802Y-120899640D01*
X137726280Y-120924380D01*
X137687662Y-120936059D01*
X137666597Y-120931388D01*
X137666923Y-120909995D01*
X137667016Y-120909769D01*
X137683163Y-120861854D01*
X137683568Y-120825752D01*
X137668401Y-120787339D01*
X137656683Y-120769625D01*
X137611771Y-120733507D01*
X137554331Y-120713695D01*
X137496155Y-120715131D01*
X137494309Y-120715628D01*
X137460271Y-120729430D01*
X137411306Y-120754194D01*
X137357360Y-120784919D01*
X137309223Y-120812081D01*
X137231147Y-120845061D01*
X137156245Y-120858867D01*
X137077800Y-120853503D01*
X136989091Y-120828975D01*
X136883399Y-120785289D01*
X136856583Y-120773317D01*
X136792530Y-120746852D01*
X136736383Y-120726370D01*
X136697895Y-120715537D01*
X136683436Y-120713386D01*
X136610124Y-120715948D01*
X136542379Y-120738307D01*
X136486362Y-120776512D01*
X136448234Y-120826613D01*
X136434155Y-120884659D01*
X136434119Y-120896586D01*
X136430893Y-120925617D01*
X136415910Y-120934050D01*
X136380064Y-120929421D01*
X136365246Y-120926352D01*
X136284073Y-120892208D01*
X136211985Y-120832923D01*
X136153200Y-120752794D01*
X136111935Y-120656122D01*
X136099983Y-120596103D01*
X136091936Y-120504212D01*
X136091371Y-120483522D01*
X137478801Y-120483522D01*
X137491515Y-120483452D01*
X137525883Y-120464147D01*
X137580495Y-120442169D01*
X137660960Y-120433897D01*
X137696561Y-120434975D01*
X137748182Y-120444296D01*
X137786665Y-120465420D01*
X137826812Y-120497000D01*
X137826812Y-120464248D01*
X137825997Y-120457198D01*
X137810740Y-120423035D01*
X137782274Y-120386957D01*
X137751505Y-120360713D01*
X137715285Y-120346072D01*
X137663768Y-120342418D01*
X137592733Y-120351275D01*
X137538714Y-120380840D01*
X137499131Y-120434008D01*
X137485376Y-120461695D01*
X137478801Y-120483522D01*
X136091371Y-120483522D01*
X136088670Y-120384599D01*
X136090155Y-120238480D01*
X136096359Y-120067075D01*
X136107252Y-119871601D01*
X136122804Y-119653278D01*
X136142985Y-119413323D01*
X136147232Y-119365351D01*
X136153555Y-119290854D01*
X136158267Y-119231213D01*
X136160971Y-119191591D01*
X136161264Y-119177150D01*
X136158053Y-119175828D01*
X136135264Y-119164801D01*
X136098508Y-119146317D01*
X136063169Y-119124220D01*
X136004567Y-119063003D01*
X135966339Y-118985408D01*
X135952667Y-118898541D01*
X135953796Y-118866423D01*
X135966264Y-118795377D01*
X135991037Y-118745594D01*
X135994901Y-118746054D01*
X136017324Y-118757717D01*
X136052155Y-118779951D01*
X136131007Y-118821270D01*
X136242415Y-118856248D01*
X136376977Y-118879841D01*
X136531829Y-118891560D01*
X136704106Y-118890919D01*
X136706563Y-118890822D01*
X136790222Y-118886233D01*
X136870379Y-118879604D01*
X136938046Y-118871807D01*
X136984233Y-118863715D01*
X137028925Y-118851670D01*
X137054966Y-118837573D01*
X137068837Y-118813219D01*
X137079466Y-118769804D01*
X137102473Y-118689447D01*
X137140087Y-118612772D01*
X137197396Y-118533030D01*
X137218234Y-118505898D01*
X137235672Y-118478858D01*
X137237401Y-118468470D01*
X137217634Y-118472888D01*
X137177562Y-118484338D01*
X137125913Y-118500333D01*
X137091771Y-118510386D01*
X137042256Y-118521004D01*
X136986289Y-118527429D01*
X136915878Y-118530468D01*
X136823034Y-118530927D01*
X136820690Y-118530914D01*
X136734704Y-118529167D01*
X136650548Y-118525324D01*
X136577769Y-118519944D01*
X136525914Y-118513584D01*
X136427103Y-118492690D01*
X136244819Y-118433258D01*
X136078082Y-118350651D01*
X135928945Y-118246678D01*
X135799465Y-118123149D01*
X135691696Y-117981875D01*
X135607692Y-117824667D01*
X135549508Y-117653334D01*
X135547983Y-117647054D01*
X135533951Y-117563166D01*
X135525967Y-117463510D01*
X135524250Y-117359447D01*
X135529018Y-117262340D01*
X135540488Y-117183548D01*
X135549102Y-117150754D01*
X135593140Y-117040661D01*
X135657720Y-116931453D01*
X135737219Y-116833145D01*
X135775683Y-116795488D01*
X135831092Y-116747236D01*
X135890759Y-116700069D01*
X135949295Y-116657839D01*
X136001312Y-116624400D01*
X136041422Y-116603604D01*
X136064237Y-116599304D01*
X136068165Y-116601333D01*
X136094360Y-116618054D01*
X136135834Y-116646630D01*
X136185567Y-116682260D01*
X136288952Y-116757624D01*
X136177948Y-116823519D01*
X136137523Y-116848637D01*
X136018468Y-116939401D01*
X135926786Y-117038425D01*
X135863082Y-117144487D01*
X135827960Y-117256370D01*
X135822026Y-117372854D01*
X135845884Y-117492722D01*
X135864865Y-117544086D01*
X135920732Y-117642643D01*
X135997854Y-117721579D01*
X136099673Y-117784857D01*
X136149118Y-117807786D01*
X136198190Y-117824327D01*
X136249060Y-117831650D01*
X136315997Y-117832928D01*
X136320691Y-117832873D01*
X136449287Y-117818563D01*
X136560830Y-117779269D01*
X136656545Y-117714384D01*
X136737657Y-117623298D01*
X136753172Y-117600282D01*
X136795905Y-117513461D01*
X136816807Y-117418233D01*
X136817959Y-117306387D01*
X136812909Y-117254202D01*
X136799003Y-117183900D01*
X136775274Y-117118117D01*
X136739398Y-117053955D01*
X136689052Y-116988519D01*
X136621913Y-116918912D01*
X136535660Y-116842236D01*
X136427968Y-116755596D01*
X136296517Y-116656095D01*
X136272344Y-116638083D01*
X136187190Y-116573430D01*
X136106519Y-116510454D01*
X136035383Y-116453201D01*
X135978833Y-116405718D01*
X135941922Y-116372052D01*
X135893679Y-116316580D01*
X135846131Y-116247794D01*
X135806697Y-116176685D01*
X135779794Y-116111273D01*
X135769836Y-116059575D01*
X135769126Y-116050262D01*
X135751792Y-116013027D01*
X135708780Y-115971168D01*
X135691633Y-115956124D01*
X135648491Y-115908788D01*
X135616777Y-115861427D01*
X135595969Y-115802474D01*
X135585708Y-115727327D01*
X135589187Y-115653713D01*
X135606872Y-115594221D01*
X135652711Y-115526674D01*
X135726139Y-115462748D01*
X135813818Y-115420635D01*
X135910429Y-115401954D01*
X136010652Y-115408324D01*
X136109168Y-115441365D01*
X136145444Y-115460524D01*
X136189686Y-115487902D01*
X136217256Y-115510031D01*
X136223018Y-115516553D01*
X136232804Y-115533896D01*
X136223870Y-115549639D01*
X136192707Y-115572742D01*
X136176900Y-115584209D01*
X136105624Y-115656693D01*
X136057166Y-115744182D01*
X136033140Y-115840805D01*
X136035159Y-115940695D01*
X136064837Y-116037979D01*
X136075349Y-116059108D01*
X136109285Y-116114383D01*
X136154486Y-116171114D01*
X136213900Y-116232184D01*
X136290478Y-116300479D01*
X136387169Y-116378882D01*
X136506922Y-116470278D01*
X136560543Y-116510720D01*
X136689518Y-116612186D01*
X136795841Y-116703554D01*
X136882485Y-116788159D01*
X136952425Y-116869333D01*
X137008637Y-116950409D01*
X137054094Y-117034720D01*
X137091772Y-117125599D01*
X137096910Y-117140580D01*
X137119205Y-117238527D01*
X137129355Y-117348787D01*
X137126772Y-117458216D01*
X137110871Y-117553671D01*
X137071700Y-117664182D01*
X136999092Y-117791102D01*
X136902809Y-117900038D01*
X136784534Y-117989170D01*
X136645949Y-118056680D01*
X136583352Y-118075903D01*
X136462315Y-118095051D01*
X136331856Y-118097080D01*
X136201852Y-118082102D01*
X136082181Y-118050232D01*
X136081894Y-118050128D01*
X136068861Y-118048923D01*
X136076259Y-118060506D01*
X136099165Y-118080895D01*
X136132656Y-118106102D01*
X136171807Y-118132146D01*
X136211695Y-118155040D01*
X136236495Y-118167483D01*
X136335724Y-118208753D01*
X136440903Y-118237748D01*
X136559944Y-118256266D01*
X136700759Y-118266104D01*
X136728531Y-118267027D01*
X136898530Y-118263531D01*
X137046760Y-118242621D01*
X137176701Y-118203289D01*
X137291833Y-118144532D01*
X137395636Y-118065343D01*
X137464415Y-117990407D01*
X137533316Y-117886972D01*
X137589741Y-117771530D01*
X137629202Y-117653415D01*
X137647214Y-117541961D01*
X137649515Y-117511477D01*
X137654206Y-117478087D01*
X137659206Y-117466842D01*
X137659703Y-117467105D01*
X137678082Y-117476431D01*
X137718906Y-117496987D01*
X137777891Y-117526622D01*
X137850754Y-117563183D01*
X137933210Y-117604518D01*
X137935481Y-117605657D01*
X138021160Y-117649614D01*
X138099954Y-117691853D01*
X138166729Y-117729483D01*
X138216349Y-117759613D01*
X138243679Y-117779349D01*
X138293376Y-117839946D01*
X138331429Y-117929486D01*
X138344534Y-118035064D01*
X138343348Y-118078778D01*
X138332871Y-118156456D01*
X138309537Y-118234725D01*
X138270867Y-118320967D01*
X138214381Y-118422562D01*
X138198490Y-118449527D01*
X138133108Y-118565317D01*
X138083124Y-118664800D01*
X138046081Y-118754595D01*
X138019520Y-118841321D01*
X138000982Y-118931597D01*
X137988009Y-119032040D01*
X137971693Y-119140207D01*
X137933242Y-119270464D01*
X137875932Y-119377834D01*
X137799140Y-119463399D01*
X137702244Y-119528238D01*
X137683366Y-119537575D01*
X137641579Y-119555413D01*
X137596897Y-119569617D01*
X137545878Y-119580455D01*
X137485078Y-119588198D01*
X137411055Y-119593115D01*
X137320366Y-119595474D01*
X137209568Y-119595546D01*
X137075217Y-119593599D01*
X136913872Y-119589902D01*
X136846582Y-119588189D01*
X136826739Y-119671992D01*
X136824855Y-119680112D01*
X136810982Y-119749089D01*
X136797662Y-119829487D01*
X136785720Y-119914409D01*
X136775981Y-119996954D01*
X136769271Y-120070224D01*
X136766413Y-120127320D01*
X136768232Y-120161341D01*
X136768260Y-120161466D01*
X136786487Y-120202911D01*
X136822550Y-120232088D01*
X136880456Y-120251053D01*
X136964212Y-120261860D01*
X136986726Y-120263430D01*
X137061780Y-120264789D01*
X137115160Y-120255387D01*
X137153399Y-120231644D01*
X137169441Y-120209087D01*
X137434781Y-120209087D01*
X137441087Y-120216061D01*
X137460154Y-120198837D01*
X137460349Y-120198604D01*
X137498787Y-120170262D01*
X137556123Y-120147592D01*
X137620956Y-120133989D01*
X137681883Y-120132846D01*
X137702937Y-120134688D01*
X137737130Y-120134598D01*
X137750628Y-120129591D01*
X137745178Y-120114543D01*
X137717523Y-120089906D01*
X137674586Y-120069345D01*
X137625541Y-120058102D01*
X137616967Y-120057369D01*
X137547583Y-120063084D01*
X137495110Y-120092976D01*
X137455646Y-120149137D01*
X137441566Y-120181537D01*
X137434781Y-120209087D01*
X137169441Y-120209087D01*
X137183032Y-120189976D01*
X137210594Y-120126802D01*
X137237831Y-120063652D01*
X137291874Y-119976448D01*
X137356265Y-119916234D01*
X137433049Y-119881334D01*
X137524274Y-119870073D01*
X137585164Y-119875084D01*
X137672610Y-119903587D01*
X137742887Y-119955068D01*
X137792937Y-120026975D01*
X137819700Y-120116752D01*
X137821893Y-120129580D01*
X137821896Y-120129591D01*
G37*
%TO.C,D2*%
X145213000Y-101915000D02*
X141153000Y-101915000D01*
X145213000Y-99645000D02*
X145213000Y-101915000D01*
X141153000Y-99645000D02*
X145213000Y-99645000D01*
%TD*%
%LPC*%
D13*
%TO.C,J5*%
X158775500Y-79410000D03*
X158775500Y-83010000D03*
%TD*%
D14*
%TO.C,J4*%
X138975500Y-110742000D03*
D15*
X141515500Y-110742000D03*
X144055500Y-110742000D03*
X146595500Y-110742000D03*
%TD*%
D14*
%TO.C,J3*%
X157802000Y-95446000D03*
D15*
X157802000Y-92906000D03*
X157802000Y-90366000D03*
X157802000Y-87826000D03*
%TD*%
D16*
%TO.C,D1*%
X144240500Y-91890000D03*
X141265500Y-91890000D03*
%TD*%
D13*
%TO.C,J9*%
X126775500Y-79410000D03*
X126775500Y-83010000D03*
%TD*%
D16*
%TO.C,D2*%
X144240500Y-100780000D03*
X141265500Y-100780000D03*
%TD*%
D17*
%TO.C,J1*%
X154015500Y-119416000D03*
X154015500Y-113636000D03*
D18*
X153515500Y-120846000D03*
D19*
X157695500Y-120846000D03*
D18*
X153515500Y-112206000D03*
D19*
X157695500Y-112206000D03*
%TD*%
M02*
